<svg width="195" height="196" viewBox="0 0 195 196" fill="none" xmlns="http://www.w3.org/2000/svg">
<path d="M18.0132 102.406C17.3644 90.7057 19.3068 79.0062 23.7016 68.1431L97.4995 97.9988L18.0132 102.406Z" fill="url(#paint0_radial_2001_25492)"/>
<path d="M176.987 93.5926C177.636 105.293 175.693 116.992 171.299 127.856L97.5007 97.9999L176.987 93.5926Z" fill="url(#paint1_radial_2001_25492)"/>
<path d="M101.907 177.486C90.206 178.135 78.5066 176.192 67.6434 171.798L97.4992 97.9996L101.907 177.486Z" fill="url(#paint2_radial_2001_25492)"/>
<path d="M93.0938 18.5132C104.794 17.8645 116.494 19.8068 127.357 24.2016L97.5007 97.9999L93.0938 18.5132Z" fill="url(#paint3_radial_2001_25492)"/>
<path d="M150.59 38.6774C159.322 46.4922 166.221 56.1384 170.795 66.9274L97.5007 97.9999L150.59 38.6774Z" fill="url(#paint4_radial_2001_25492)"/>
<path d="M156.823 151.088C149.008 159.82 139.362 166.719 128.573 171.293L97.5011 97.9989L156.823 151.088Z" fill="url(#paint5_radial_2001_25492)"/>
<path d="M44.4112 157.321C35.679 149.506 28.7797 139.86 24.2059 129.071L97.4995 97.9988L44.4112 157.321Z" fill="url(#paint6_radial_2001_25492)"/>
<path d="M38.1782 44.9101C45.9929 36.1778 55.6392 29.2785 66.4282 24.7047L97.4995 97.9988L38.1782 44.9101Z" fill="url(#paint7_radial_2001_25492)"/>
<defs>
<radialGradient id="paint0_radial_2001_25492" cx="0" cy="0" r="1" gradientUnits="userSpaceOnUse" gradientTransform="translate(97.8487 98.348) rotate(-118.258) scale(71.6689 71.6689)">
<stop stop-color="#FB2C67"/>
<stop offset="0.23" stop-color="#FB2C2F" stop-opacity="0.46"/>
<stop offset="1" stop-color="#FB442C" stop-opacity="0"/>
</radialGradient>
<radialGradient id="paint1_radial_2001_25492" cx="0" cy="0" r="1" gradientUnits="userSpaceOnUse" gradientTransform="translate(97.8487 98.348) rotate(-118.258) scale(71.6689 71.6689)">
<stop stop-color="#FB2C67"/>
<stop offset="0.23" stop-color="#FB2C2F" stop-opacity="0.46"/>
<stop offset="1" stop-color="#FB442C" stop-opacity="0"/>
</radialGradient>
<radialGradient id="paint2_radial_2001_25492" cx="0" cy="0" r="1" gradientUnits="userSpaceOnUse" gradientTransform="translate(97.8487 98.348) rotate(-118.258) scale(71.6689 71.6689)">
<stop stop-color="#FB2C67"/>
<stop offset="0.23" stop-color="#FB2C2F" stop-opacity="0.46"/>
<stop offset="1" stop-color="#FB442C" stop-opacity="0"/>
</radialGradient>
<radialGradient id="paint3_radial_2001_25492" cx="0" cy="0" r="1" gradientUnits="userSpaceOnUse" gradientTransform="translate(97.8487 98.348) rotate(-118.258) scale(71.6689 71.6689)">
<stop stop-color="#FB2C67"/>
<stop offset="0.23" stop-color="#FB2C2F" stop-opacity="0.46"/>
<stop offset="1" stop-color="#FB442C" stop-opacity="0"/>
</radialGradient>
<radialGradient id="paint4_radial_2001_25492" cx="0" cy="0" r="1" gradientUnits="userSpaceOnUse" gradientTransform="translate(97.8487 98.348) rotate(-118.258) scale(71.6689 71.6689)">
<stop stop-color="#FB2C67"/>
<stop offset="0.23" stop-color="#FB2C2F" stop-opacity="0.46"/>
<stop offset="1" stop-color="#FB442C" stop-opacity="0"/>
</radialGradient>
<radialGradient id="paint5_radial_2001_25492" cx="0" cy="0" r="1" gradientUnits="userSpaceOnUse" gradientTransform="translate(97.8487 98.348) rotate(-118.258) scale(71.6689 71.6689)">
<stop stop-color="#FB2C67"/>
<stop offset="0.23" stop-color="#FB2C2F" stop-opacity="0.46"/>
<stop offset="1" stop-color="#FB442C" stop-opacity="0"/>
</radialGradient>
<radialGradient id="paint6_radial_2001_25492" cx="0" cy="0" r="1" gradientUnits="userSpaceOnUse" gradientTransform="translate(97.8487 98.348) rotate(-118.258) scale(71.6689 71.6689)">
<stop stop-color="#FB2C67"/>
<stop offset="0.23" stop-color="#FB2C2F" stop-opacity="0.46"/>
<stop offset="1" stop-color="#FB442C" stop-opacity="0"/>
</radialGradient>
<radialGradient id="paint7_radial_2001_25492" cx="0" cy="0" r="1" gradientUnits="userSpaceOnUse" gradientTransform="translate(97.8487 98.348) rotate(-118.258) scale(71.6689 71.6689)">
<stop stop-color="#FB2C67"/>
<stop offset="0.23" stop-color="#FB2C2F" stop-opacity="0.46"/>
<stop offset="1" stop-color="#FB442C" stop-opacity="0"/>
</radialGradient>
</defs>
</svg>
