<svg width="90" height="96" viewBox="0 0 90 96" fill="none" xmlns="http://www.w3.org/2000/svg">
<path d="M36.8536 2.09241C36.5117 1.84199 36.0581 1.80498 35.6801 1.99667C35.3021 2.18835 35.0639 2.57619 35.0639 3C35.0639 12.1279 32.8273 28.2559 21.8924 39.1244C11.2585 49.6937 8.97489 62.2832 13.346 72.8748C17.7005 83.4262 28.5577 91.7539 43.7213 94.1097C43.831 94.1267 43.9427 94.1274 44.0526 94.1118C52.2246 92.948 63.4757 90.0138 70.9402 81.3277C78.4672 72.5687 81.8917 58.2767 75.0786 34.9911C74.9525 34.56 74.5821 34.2453 74.1363 34.1904C73.6905 34.1356 73.2548 34.3512 73.028 34.7388C72.8287 35.0794 72.6237 35.4345 72.4125 35.8005C71.1609 37.9691 69.6898 40.518 67.8859 42.6589C66.0325 44.8585 63.98 46.4403 61.6567 46.7976C60.9802 41.5579 58.6437 33.5255 54.7723 25.4186C50.618 16.7195 44.6259 7.7848 36.8536 2.09241Z" fill="#D24940" stroke="#60050F" stroke-width="2.24995" stroke-linejoin="round"/>
<path d="M22.6854 39.9223C33.9404 28.7356 36.1889 12.2306 36.1889 3C38.4094 4.62629 40.4859 6.52949 42.4157 8.62488C43.7692 22.1246 34.3123 38.3242 26.4375 44.6241C20.8126 49.124 15.7502 54.7489 15.7502 63.7487C15.7502 79.9753 32.0875 90.2974 41.5742 92.5837C42.335 92.7377 43.1084 92.876 43.894 92.998C43.1837 92.9225 42.4052 92.7839 41.5742 92.5837C13.5636 86.9131 2.53058 59.9546 22.6854 39.9223Z" fill="#E95D54"/>
<path fill-rule="evenodd" clip-rule="evenodd" d="M12.4295 60.6739C11.4542 75.8108 23.5828 89.8427 43.8937 92.9981C60.0982 90.6905 87.5024 81.4599 73.9987 35.3071C73.8052 35.6376 73.6043 35.9859 73.3956 36.3477C73.2629 36.5778 73.1271 36.8134 72.988 37.0533C83.2586 77.9419 57.9606 86.344 42.8069 88.4953C24.6828 85.6884 13.3066 73.9399 12.4295 60.6739ZM61.155 47.9831C60.9907 47.9937 60.8249 47.9991 60.6575 47.9991C59.8686 39.238 53.2888 19.7897 41.4997 7.65674C52.1254 20.1134 57.7608 40.3851 58.499 48.5587C59.392 48.5587 60.2822 48.3525 61.155 47.9831Z" fill="#AB3028"/>
<path d="M43.8752 92.9963C12.9383 89.0589 28.6878 48.5598 44.9999 35.0601C42.1876 55.3096 57.7895 54.0872 59.6247 72.7467C60.7496 84.184 56.2498 91.8713 43.8752 92.9963Z" fill="#FF784E"/>
<path d="M43.8748 92.9991C20.3858 88.2492 30.5106 59.7498 41.1872 50.25C41.1876 66.8746 53.9996 64.4997 53.9996 78.7494C53.9996 88.2492 49.4997 92.4366 43.8748 92.9991Z" fill="#FFB45C"/>
<path d="M43.987 92.998C56.7991 90.4981 49.4954 76.6859 43.3079 70.4985C43.8706 80.0608 38.8084 79.4983 38.2457 85.6857C37.8721 89.7937 41.2692 92.5814 43.987 92.998Z" fill="#F5992D"/>
<path d="M43.8778 93.0002C50.6275 91.8752 47.2525 84.5629 43.8775 80.6255C43.315 85.1254 40.8132 85.5754 40.5176 88.9784C40.3213 91.2378 42.45 92.7711 43.8778 93.0002Z" fill="#E27F0A"/>
<path d="M43.1586 92.8445C20.5948 87.6632 30.6208 59.6518 41.1872 50.25C41.1873 54.1367 41.8877 56.9849 42.9608 59.2498C40.828 61.3123 36.225 68.0246 34.875 78.3744C33.6146 88.0376 39.6083 91.9149 43.1586 92.8445C43.3938 92.8986 43.6325 92.9501 43.8748 92.9991C43.6507 92.9618 43.4108 92.9106 43.1586 92.8445Z" fill="#FFC46A"/>
<path d="M72.5613 41.8125C71.0613 43.875 67.0489 48.3374 62.999 49.6873" stroke="#FF766D" stroke-width="2.24995" stroke-linecap="round" stroke-linejoin="round"/>
<path d="M72.5612 41.8125C71.7947 42.8664 70.3721 44.547 68.6238 46.1188" stroke="#FFD2CF" stroke-width="2.24995" stroke-linecap="round" stroke-linejoin="round"/>
<path d="M38.2535 8.625C37.691 17.6248 34.8786 28.3121 29.8162 35.0619" stroke="#FF766D" stroke-width="2.24995" stroke-linecap="round" stroke-linejoin="round"/>
<path d="M38.2539 8.625C38.0512 11.8685 37.5562 15.3312 36.769 18.7498" stroke="#FFD2CF" stroke-width="2.24995" stroke-linecap="round" stroke-linejoin="round"/>
<path d="M39.3783 55.875C36.5658 59.2499 33.1909 65.9998 32.6284 72.7496" stroke="#FFDEC0" stroke-width="2.24995" stroke-linecap="round" stroke-linejoin="round"/>
<circle cx="61.8677" cy="59.251" r="1.12498" fill="#F44F44"/>
<circle cx="59.0591" cy="62.0625" r="0.562488" fill="#F44F44"/>
<circle cx="64.6841" cy="56.4375" r="0.562488" fill="#F44F44"/>
<circle cx="65.8071" cy="60.9346" r="0.562488" fill="#F44F44"/>
<circle cx="62.438" cy="64.3135" r="0.562488" fill="#F44F44"/>
<circle cx="61.3052" cy="69.9385" r="0.562488" fill="#F44F44"/>
<circle cx="55.6804" cy="51.9355" r="0.562488" fill="#F44F44"/>
<circle cx="54.5574" cy="42.937" r="0.562488" fill="#F44F44"/>
<circle cx="54.5574" cy="47.439" r="0.562488" fill="#F44F44"/>
<circle cx="52.3113" cy="51.9355" r="0.562488" fill="#F44F44"/>
<circle cx="26.4328" cy="58.6885" r="0.562488" fill="#F44F44"/>
<circle cx="24.187" cy="53.0635" r="0.562488" fill="#F44F44"/>
<circle cx="30.9348" cy="49.6846" r="0.562488" fill="#F44F44"/>
<circle cx="26.4328" cy="49.6846" r="0.562488" fill="#F44F44"/>
<circle cx="32.0578" cy="45.188" r="0.562488" fill="#F44F44"/>
<circle cx="25.31" cy="62.0625" r="0.562488" fill="#F44F44"/>
<circle cx="21.9311" cy="60.9346" r="0.562488" fill="#F44F44"/>
<circle cx="19.685" cy="65.4365" r="0.562488" fill="#F44F44"/>
<circle cx="23.064" cy="67.6875" r="0.562488" fill="#F44F44"/>
<circle cx="23.064" cy="72.1841" r="0.562488" fill="#F44F44"/>
<circle cx="47.8093" cy="41.814" r="0.562488" fill="#F44F44"/>
<circle cx="51.1882" cy="44.06" r="0.562488" fill="#F44F44"/>
<circle cx="48.9324" cy="37.312" r="0.562488" fill="#F44F44"/>
<circle cx="56.2429" cy="57" r="1.12498" fill="#F44F44"/>
<circle cx="21.3706" cy="57" r="1.12498" fill="#F44F44"/>
<circle cx="50.6179" cy="48.0014" r="1.12498" fill="#F44F44"/>
<circle cx="28.1184" cy="53.626" r="1.12498" fill="#F44F44"/>
<circle cx="23.6264" cy="64.876" r="1.12498" fill="#F44F44"/>
<circle cx="60.184" cy="54.1884" r="1.68746" fill="#F44F44"/>
</svg>
