<svg width="161" height="145" viewBox="0 0 161 145" fill="none" xmlns="http://www.w3.org/2000/svg">
<path d="M149.221 105.957L143.316 102.629L149.221 99.1941L155.125 102.629L149.221 105.957Z" fill="#663E1F"/>
<path d="M149.221 119.269V105.957L155.125 102.629L151.69 117.874L149.221 119.269Z" fill="#663E1F"/>
<path d="M149.221 119.269V105.957L143.316 102.629L146.752 117.874L149.221 119.269Z" fill="#663E1F"/>
<path d="M108.534 128.179L66.1299 109.178L71.8196 105.099L78.4755 104.454L78.9049 100.053L88.8887 95.1147L90.9284 91.4647L97.2622 90.2838L98.5505 87.278L103.274 83.95L152.656 102.951L108.534 128.179Z" fill="#8E5225"/>
<path d="M66.3447 109.071L66.7741 113.472L108.749 132.474L108.32 128.179L66.3447 109.071Z" fill="#9F6738"/>
<path d="M108.212 128.072L108.641 132.366L153.085 107.246L152.656 102.951L108.212 128.072Z" fill="#663E1F"/>
<path d="M110.359 123.993L68.3843 104.24L74.1813 100.16L80.8372 99.7309L81.2666 95.3294L91.3578 90.6059L93.5049 86.9559L103.703 82.125L104.992 79.0118L109.823 75.7912L151.905 95.6515L110.359 123.993Z" fill="#514845"/>
<path d="M68.5991 104.025L68.9212 108.426L110.574 128.287L110.252 123.993L68.5991 104.025Z" fill="#BCACA6"/>
<path d="M110.037 123.885L110.467 128.179L152.227 99.7309L151.905 95.3294L110.037 123.885Z" fill="#776862"/>
<path d="M113.365 131.507L107.568 128.072L113.365 124.744L119.27 128.072L113.365 131.507Z" fill="#BF7C43"/>
<path d="M113.365 144.712V131.507L119.27 128.072L115.834 143.316L113.365 144.712Z" fill="#663E1F"/>
<path d="M113.473 144.712L113.365 131.507L107.568 128.072L111.004 143.316L113.473 144.712Z" fill="#9F6738"/>
<path d="M151.797 68.8132L151.69 102.2L108.749 77.2941L108.319 45.5176L151.797 68.8132Z" fill="#BCACA6"/>
<path d="M112.506 44.5515L108.319 45.5176L151.797 68.8132L154.803 67.0956L112.506 44.5515Z" fill="#E8D2CA"/>
<path d="M106.387 78.3676L105.529 69.5647L70.1021 94.4706L70.8535 103.381L106.387 78.3676Z" fill="#776862"/>
<path d="M146.645 96.9397L145.786 88.1368L110.359 113.043L111.111 121.846L146.645 96.9397Z" fill="#566666"/>
<path d="M110.359 113.043L70.7461 94.7927L106.28 69.7794L145.786 88.1368L110.359 113.043Z" fill="#E8D2CA"/>
<path d="M70.7461 94.7927L71.4975 103.596L111.111 121.846L110.359 113.043L70.7461 94.7927Z" fill="#BCACA6"/>
<path d="M114.761 130.541L108.856 127.106L108.749 93.7191L114.653 97.2618L114.761 130.541Z" fill="#BCACA6"/>
<path d="M154.803 66.9882L160.708 70.5309L114.653 97.2618L108.749 93.7191L154.803 66.9882Z" fill="#E8D2CA"/>
<path d="M114.761 97.1544L114.868 130.541L160.815 103.918L160.708 70.5309L114.761 97.1544Z" fill="#776862"/>
<path d="M7.2998 77.7235V64.4118L13.0969 61.0838L9.66157 76.2206L7.2998 77.7235Z" fill="#663E1F"/>
<path d="M7.29992 77.7235V64.4118L1.39551 61.0838L4.8308 76.2206L7.29992 77.7235Z" fill="#9F6738"/>
<path d="M2.36196 56.7897L1.8252 61.0838L38.3252 89.2103L38.862 85.0235L2.36196 56.7897Z" fill="#9F6738"/>
<path d="M38.7545 84.8088L38.2178 89.1029L48.631 84.8088L54.6428 84.0574L58.6148 80.8368L64.1972 76.8647L72.8928 75.0397L77.831 71.0677L85.0237 70.1015L85.6678 65.7L76.8648 66.8809L63.7678 72.7853L38.7545 84.8088Z" fill="#663E1F"/>
<path d="M38.9695 85.0235L2.14746 56.7897L48.5239 37.7882L85.5607 66.022L76.8651 67.0956L72.6783 71.2823L63.3386 73.2147L55.1798 78.3676L54.4283 80.7294L48.0945 81.3735L38.9695 85.0235Z" fill="#8E5225"/>
<path d="M44.4441 0L50.2412 3.54265L5.79705 26.1941L0 22.7588L44.4441 0Z" fill="#E8D2CA"/>
<path d="M5.90441 59.5809L0 56.2529V22.7588L5.79705 26.1941L5.90441 59.5809Z" fill="#BCACA6"/>
<path d="M5.79736 26.1941L5.90472 59.5809L48.8459 34.7823L50.2415 3.54265L5.79736 26.1941Z" fill="#776862"/>
<path d="M5.79702 55.6088L5.26025 60.0103L41.975 87.8147L42.5117 83.6279L5.79702 55.6088Z" fill="#BCACA6"/>
<path d="M42.4044 83.4132L41.8677 87.7074L52.2809 83.4132L58.2927 82.5544L62.2647 79.2265L67.8471 75.2544L76.5427 73.3221L81.3736 69.4574L88.5662 68.2765L89.2103 63.9824L80.4074 65.1632L67.3103 71.2823L42.4044 83.4132Z" fill="#776862"/>
<path d="M42.6188 83.6279L5.58203 55.7162L51.8512 36.2853L89.1026 64.1971L80.4071 65.4853L76.2203 69.5647L66.8806 71.7118L58.8291 76.8647L58.0776 79.2265L51.7438 79.8706L42.6188 83.6279Z" fill="#514845"/>
<path d="M81.6953 56.3603L41.438 72.4632L7.19238 45.5176L47.4497 29.4147L70.96 47.8794L71.2821 48.0941C71.2821 48.0941 71.3894 48.0941 71.3894 48.2015C71.8188 48.5235 72.0336 48.7383 72.463 49.1677C73.5365 50.0265 74.5027 50.778 75.5762 51.6368L77.8306 53.3544L78.1527 53.4618L81.6953 56.3603Z" fill="#E8D2CA"/>
<path d="M80.4072 65.2706L81.6954 56.3603L41.3307 72.4632L40.0425 81.2662L80.4072 65.2706Z" fill="#776862"/>
<path d="M7.0856 45.5176L5.79736 54.2132L40.043 81.2662L41.3312 72.4632L7.0856 45.5176Z" fill="#BCACA6"/>
</svg>
