<svg width="53" height="56" viewBox="0 0 53 56" fill="none" xmlns="http://www.w3.org/2000/svg">
<path d="M21.3026 55.4632C22.6663 55.4632 23.7717 54.7903 23.7717 53.9603C23.7717 53.1302 22.6663 52.4573 21.3026 52.4573C19.939 52.4573 18.8335 53.1302 18.8335 53.9603C18.8335 54.7903 19.939 55.4632 21.3026 55.4632Z" fill="#CC946E"/>
<path d="M23.8791 26.4779H18.8335V53.9603H23.8791V26.4779Z" fill="#CC946E"/>
<path d="M6.05848 45.8014C7.42213 45.8014 8.5276 45.1285 8.5276 44.2985C8.5276 43.4684 7.42213 42.7956 6.05848 42.7956C4.69482 42.7956 3.58936 43.4684 3.58936 44.2985C3.58936 45.1285 4.69482 45.8014 6.05848 45.8014Z" fill="#CC946E"/>
<path d="M8.63495 16.8162H3.58936V44.2985H8.63495V16.8162Z" fill="#CC946E"/>
<path d="M48.2479 40.7558C49.6116 40.7558 50.7171 40.083 50.7171 39.2529C50.7171 38.4229 49.6116 37.75 48.2479 37.75C46.8843 37.75 45.7788 38.4229 45.7788 39.2529C45.7788 40.083 46.8843 40.7558 48.2479 40.7558Z" fill="#CC946E"/>
<path d="M50.7175 11.8779H45.6719V39.3603H50.7175V11.8779Z" fill="#CC946E"/>
<path d="M31.5013 30.772C32.865 30.772 33.9705 30.0992 33.9705 29.2691C33.9705 28.4391 32.865 27.7662 31.5013 27.7662C30.1377 27.7662 29.0322 28.4391 29.0322 29.2691C29.0322 30.0992 30.1377 30.772 31.5013 30.772Z" fill="#CC946E"/>
<path d="M34.0778 1.78674H29.0322V29.2691H34.0778V1.78674Z" fill="#CC946E"/>
<path d="M52.1129 16.0646L23.6643 31.3088C22.2688 32.0602 20.7658 32.0602 19.3702 31.3088L1.44229 21.4323C0.476114 20.8955 0.583467 19.6073 1.44229 19.1779L29.8908 3.82641C31.0717 3.18229 32.4673 3.18229 33.6482 3.82641L52.1129 13.5955C53.0791 14.1323 53.1864 15.5279 52.1129 16.0646Z" fill="#774320"/>
<path d="M51.5759 15.6353L23.2347 28.8397C21.8391 29.5912 20.3362 29.5912 18.9406 28.8397L1.33469 21.4323C0.368509 20.8955 0.153808 17.1382 1.01263 16.6014L29.4612 1.24996C30.642 0.605847 32.0376 0.605847 33.2185 1.24996L51.6832 11.0191C52.6494 11.5559 53.4009 14.9911 52.3273 15.6353H51.5759Z" fill="#774320"/>
<path d="M51.6837 13.3808L23.2351 28.625C21.8396 29.3764 20.3366 29.3764 18.941 28.625L1.01309 18.7485C0.0469145 18.2117 0.154267 16.9235 1.01309 16.4941L29.4616 1.1426C30.6425 0.498486 32.0381 0.498486 33.219 1.1426L51.6837 10.9117C52.6499 11.3411 52.7572 12.8441 51.6837 13.3808Z" fill="#CC946E"/>
</svg>
