<svg width="403" height="872" viewBox="0 0 403 872" fill="none" xmlns="http://www.w3.org/2000/svg">
<mask id="mask0_4007_64092" style="mask-type:luminance" maskUnits="userSpaceOnUse" x="0" y="0" width="403" height="872">
<path d="M21.4706 0H381.103C392.912 0 402.574 9.66176 402.574 21.4706V850.235C402.574 862.044 392.912 871.706 381.103 871.706H21.4706C9.66176 871.706 0 862.044 0 850.235V21.4706C0 9.66176 9.66176 0 21.4706 0Z" fill="white"/>
</mask>
<g mask="url(#mask0_4007_64092)">
<mask id="mask1_4007_64092" style="mask-type:luminance" maskUnits="userSpaceOnUse" x="-9" y="-21" width="421" height="914">
<path d="M411.162 -20.8264H-8.58838V892.532H411.162V-20.8264Z" fill="white"/>
</mask>
<g mask="url(#mask1_4007_64092)">
<path d="M411.913 892.962H-7.40771V439.933L282.338 281.48L411.806 353.084L411.913 892.962Z" fill="#4C392B"/>
<path d="M38.5 -85.9999L-251.246 72.453V-387.232H38.5V-85.9999Z" fill="#BAC2D3"/>
<path d="M404.291 348.575L403.432 873.853H-1.28869L-3.75781 436.927L282.338 281.48L404.291 348.575Z" fill="#6E717A"/>
<mask id="mask2_4007_64092" style="mask-type:luminance" maskUnits="userSpaceOnUse" x="145" y="362" width="31" height="15">
<path d="M175.63 362.424V367.47C175.63 369.724 174.127 371.871 171.229 373.589C165.324 377.024 155.77 377.024 149.865 373.589C146.859 371.871 145.464 369.617 145.464 367.362V362.317C145.464 364.571 146.967 366.825 149.865 368.543C155.77 371.978 165.324 371.978 171.229 368.543C174.234 366.825 175.63 364.678 175.63 362.424Z" fill="white"/>
</mask>
<g mask="url(#mask2_4007_64092)">
<path d="M175.63 362.531V367.577C175.63 367.899 175.63 368.114 175.522 368.436V363.39C175.63 363.175 175.63 362.853 175.63 362.531Z" fill="#464646"/>
<path d="M175.523 363.39V368.436C175.415 368.758 175.415 368.972 175.308 369.295V364.249C175.415 363.927 175.523 363.712 175.523 363.39Z" fill="#494949"/>
<path d="M175.308 364.249V369.295C175.2 369.617 175.093 369.831 174.878 370.153V365.108C175.093 364.786 175.2 364.571 175.308 364.249Z" fill="#4B4B4B"/>
<path d="M174.879 365.108V370.153C174.664 370.475 174.557 370.797 174.235 371.012V365.967C174.557 365.752 174.772 365.43 174.879 365.108Z" fill="#4D4D4D"/>
<path d="M174.342 365.967V371.012C174.02 371.334 173.805 371.656 173.375 371.978V366.933C173.698 366.718 174.02 366.396 174.342 365.967Z" fill="#505050"/>
<path d="M173.376 367.04V372.086C172.839 372.622 172.195 373.052 171.443 373.481V368.436C172.195 368.006 172.839 367.47 173.376 367.04Z" fill="#525252"/>
<path d="M171.443 368.436V373.481C171.336 373.481 171.336 373.589 171.228 373.589C170.262 374.125 169.081 374.662 167.9 375.092V370.046C169.081 369.617 170.155 369.187 171.228 368.543C171.336 368.543 171.443 368.436 171.443 368.436Z" fill="#545454"/>
<path d="M168.008 370.046V375.092C167.042 375.414 166.183 375.628 165.11 375.843V370.797C166.076 370.475 167.042 370.261 168.008 370.046Z" fill="#525252"/>
<path d="M165.109 370.69V375.736C164.465 375.843 163.821 375.95 163.177 375.95V370.905C163.821 370.905 164.465 370.797 165.109 370.69Z" fill="#505050"/>
<path d="M163.177 371.012V376.058C162.64 376.165 162.103 376.165 161.459 376.165V371.12C162.103 371.012 162.64 371.012 163.177 371.012Z" fill="#4D4D4D"/>
<path d="M161.567 371.12V376.165C161.03 376.165 160.493 376.165 160.064 376.165V371.12C160.493 371.12 161.03 371.12 161.567 371.12Z" fill="#4B4B4B"/>
<path d="M159.957 371.12V376.165C159.42 376.165 158.99 376.165 158.454 376.058V371.012C158.99 371.012 159.527 371.12 159.957 371.12Z" fill="#494949"/>
<path d="M158.561 371.012V376.058C158.024 376.058 157.595 375.95 157.058 375.843V370.797C157.488 370.905 158.024 371.012 158.561 371.012Z" fill="#464646"/>
<path d="M157.058 370.797V375.843C156.521 375.736 156.091 375.736 155.555 375.628V370.583C156.091 370.69 156.521 370.797 157.058 370.797Z" fill="#444444"/>
<path d="M155.555 370.583V375.628C155.018 375.521 154.481 375.414 153.944 375.199V370.153C154.481 370.368 155.018 370.475 155.555 370.583Z" fill="#424242"/>
<path d="M153.945 370.153V375.199C153.301 374.984 152.656 374.77 152.12 374.555V369.509C152.764 369.831 153.408 370.046 153.945 370.153Z" fill="#3F3F3F"/>
<path d="M152.12 369.617V374.662C151.368 374.34 150.617 374.018 149.973 373.589C146.967 371.871 145.571 369.617 145.571 367.362V362.317C145.571 364.571 147.074 366.825 149.973 368.543C150.617 368.972 151.368 369.295 152.12 369.617Z" fill="#3D3D3D"/>
</g>
<path d="M175.653 362.462C175.667 357.66 168.949 353.748 160.649 353.724C152.348 353.701 145.608 357.575 145.594 362.377C145.581 367.18 152.299 371.092 160.599 371.115C168.9 371.139 175.64 367.265 175.653 362.462Z" fill="#656565"/>
<path d="M139.774 348.575C139.774 348.575 140.847 360.384 145.571 365C150.187 369.509 153.3 370.153 153.3 370.153L160.278 371.119L172.409 367.899L173.268 367.255C173.268 367.255 179.065 362.961 181.427 349.005C181.427 349.005 171.55 358.13 171.121 358.237C170.692 358.344 139.774 348.575 139.774 348.575Z" fill="#656565"/>
<path d="M181.351 347.456C181.37 340.816 172.061 335.406 160.559 335.374C149.057 335.341 139.717 340.698 139.698 347.338C139.679 353.979 148.988 359.388 160.491 359.421C171.993 359.453 181.332 354.097 181.351 347.456Z" fill="#525252"/>
<path d="M181.462 344.336C181.481 337.696 172.172 332.286 160.67 332.254C149.168 332.221 139.828 337.578 139.809 344.218C139.791 350.858 149.1 356.268 160.602 356.301C172.104 356.333 181.444 350.976 181.462 344.336Z" fill="#656565"/>
<path d="M177.897 343.9C177.912 338.445 170.234 334.001 160.748 333.974C151.262 333.947 143.559 338.347 143.544 343.802C143.528 349.257 151.206 353.7 160.692 353.727C170.178 353.754 177.881 349.354 177.897 343.9Z" fill="#3D3D3D"/>
</g>
</g>
<path d="M106.709 377.453L154.696 255.822L158.346 237.25L156.95 198.281L150.401 160.171C150.401 160.171 132.259 136.016 130.434 134.191C128.609 132.366 85.8824 92.4309 85.3456 91.0353C84.8088 89.6397 73 66.3441 73 66.3441L87.1706 91.0353L131.078 130.971L144.282 147.503L147.288 151.475L164.25 114.868L149.865 154.803L154.266 160.6L158.024 193.987L159.849 212.559L161.674 232.097L160.278 247.449L137.09 316.584L113.901 370.904V373.266L106.709 377.453Z" fill="#525866"/>
<path d="M297.797 0L300.695 18.1426L316.691 45.3029L338.054 67.2029L350.292 83.7353L355.016 91.8941L340.523 104.025L356.09 93.6118L358.344 97.5838L359.417 114.116L360.062 97.0471L350.937 82.125L339.45 65.5926L318.623 44.4441L305.526 21.2559L301.984 11.5941L300.91 0H297.797Z" fill="#525866"/>
</svg>
