<svg width="138" height="132" viewBox="0 0 138 132" fill="none" xmlns="http://www.w3.org/2000/svg">
<path d="M51.0543 131.072L5.53664 105.737C4.24841 104.985 3.38959 103.59 3.38959 102.087L3.28223 47.4441L56.5293 76.7515L56.6367 127.637C56.6367 130.535 53.8455 131.287 51.0543 131.072Z" fill="#68350B"/>
<path d="M49.0147 130.75L3.49709 106.596C2.20886 105.844 1.35004 104.449 1.35004 102.946L1.24268 48.3029L54.4897 77.6103L54.5971 127.315C54.5971 130.213 51.5912 132.038 49.0147 130.75Z" fill="#8E735E"/>
<path d="M130.925 90.6L85.4072 65.372C84.119 64.6206 83.2602 63.225 83.2602 61.722L83.1528 7.07938L136.4 36.3867V85.7691C136.293 88.6676 133.716 90.8147 130.925 90.6Z" fill="#68350B"/>
<path d="M128.885 90.1706L83.3677 66.0161C82.0795 65.2647 81.2206 63.8691 81.2206 62.3661L81.1133 7.72348L134.36 37.0309L134.468 86.7352C134.36 89.7411 131.354 91.5661 128.885 90.1706Z" fill="#8E735E"/>
<path d="M135.327 38.3191L60.6089 78.3618C57.0662 80.2941 52.8795 80.2941 49.3368 78.2544L2.31625 52.3823C-0.0455192 51.0941 -0.0455192 43.472 2.31625 46.3706L77.0339 6.11321C80.0398 4.50291 83.7971 4.50291 86.803 6.11321L135.219 31.7706C138.01 28.4426 137.903 36.9235 135.327 38.3191Z" fill="#68350B"/>
<path d="M135.326 33.9176L60.6088 73.9603C57.0662 75.8926 52.8794 75.8926 49.3368 73.8529L2.20882 48.0882C-0.152941 46.8 -0.152941 43.3647 2.20882 42.0764L76.9265 1.81908C79.9324 0.208785 83.6897 0.208785 86.6956 1.81908L135.112 27.4764C137.903 28.6573 137.903 32.522 135.326 33.9176Z" fill="#8E735E"/>
</svg>
