<svg width="370" height="345" viewBox="0 0 370 345" fill="none" xmlns="http://www.w3.org/2000/svg">
<g clip-path="url(#clip0_2254_226462)">
<path d="M383 -108H-31V363H383V-108Z" fill="#FFE1B0"/>
<path d="M390 292H-13V405H390V292Z" fill="#B47E4F"/>
<path d="M73.9783 305.044H-104.577V312.704H73.9783V305.044Z" fill="#650912"/>
<path opacity="0.79" d="M73.9783 301.206H-104.577V308.866H73.9783V301.206Z" fill="url(#paint0_linear_2254_226462)"/>
<path d="M-110.764 306.473L-109.603 36.0467H78.4741L80.0002 306.473H-110.764Z" fill="#FFA96E"/>
<path d="M75.2554 300.907H-106.037L-105.788 254L-104.925 41.613H73.8122L74.9402 254L75.1061 276.631L75.2554 300.907Z" fill="#650912"/>
<path d="M-96.1167 50.918V300.907H64.6226L62.9969 50.918H-96.1167Z" fill="url(#paint1_linear_2254_226462)"/>
<path opacity="0.4" d="M39.8563 51.8652L17.595 246.506L8.83643 246.306L16.7987 52.4467L39.8563 51.8652Z" fill="#F9A378"/>
<path opacity="0.43" d="M0.210669 50.6688L-0.121094 247.22L3.01407 248.084L9.66592 50.5359L0.210669 50.6688Z" fill="#994A02"/>
<path opacity="0.43" d="M59.2653 50.6688L59.5971 247.22L56.4619 248.084L49.8101 50.5359L59.2653 50.6688Z" fill="#994A02"/>
<path d="M-106.898 39.2701L-96.1161 50.918H62.9975L75.2562 39.8849L-106.898 39.2701Z" fill="#650912"/>
<path d="M-106.898 82.7544L-96.1161 91.6939H62.9975L75.2562 83.2197L-106.898 82.7544Z" fill="#650912"/>
<path d="M-105.771 248.118L-102.487 253.933H66.8284L71.6555 248.417L-105.771 248.118Z" fill="#650912"/>
<path opacity="0.6" d="M75.1065 277.163H63.5279L62.6654 268.356H-93.6615L-95.1876 277.163H-106.186L-105.787 249.497H74.9406L75.1065 277.163Z" fill="#383636"/>
<path opacity="0.6" d="M75.1065 299.927H63.5279L62.6654 292.05H-93.6615L-95.1876 299.927H-106.186L-105.787 275.185H74.9406L75.1065 299.927Z" fill="#383636"/>
<path d="M77.2959 80.179H-108.292V83.7514H77.2959V80.179Z" fill="#FFA96E"/>
<path d="M-109.603 36.0467L-104.925 41.613H73.8123L78.4736 36.0467H-109.603Z" fill="#FFA96E"/>
<path d="M69.649 95.4657H-101.939V99.2375H69.649V95.4657Z" fill="#AAAAAA"/>
<path opacity="0.5" d="M69.649 99.2376H-101.939V97.6923C-101.939 97.6923 -49.4374 97.6923 -16.2113 97.6923C60.8904 97.6923 69.649 97.6923 69.649 97.6923V99.2376Z" fill="#5E5E5E"/>
<path d="M74.9897 245.393H-105.771V248.965H74.9897V245.393Z" fill="#FFA96E"/>
<path opacity="0.3" d="M66.5799 245.542L65.6842 248.683H13.1992L14.5263 245.542H66.5799Z" fill="url(#paint2_linear_2254_226462)"/>
<path d="M-105.904 300.907L-96.2495 297.467H64.6225L75.2555 300.907H-105.904Z" fill="#650912"/>
<path d="M75.2058 273.357V276.93H-13.7233V300.99H-17.0409V276.93H-105.804V273.357H-17.0409V248.982H-13.7233V273.357H75.2058Z" fill="#FFA96E"/>
<path opacity="0.3" d="M66.7791 273.507L65.8833 276.647H13.3154L14.6591 273.507H66.7791Z" fill="url(#paint3_linear_2254_226462)"/>
<path d="M55.2002 79.9131H-0.370125C-3.70435 79.9131 -6.4248 77.188 -6.4248 73.8482C-6.4248 70.5084 -3.70435 67.7833 -0.370125 67.7833H55.2168C58.551 67.7833 61.2715 70.5084 61.2715 73.8482C61.2549 77.188 58.5344 79.9131 55.2002 79.9131Z" fill="#0261FF"/>
<path d="M56.9251 77.2878H-2.26149C-4.10277 77.2878 -5.5957 75.7923 -5.5957 73.9479C-5.5957 72.1035 -4.10277 70.6081 -2.26149 70.6081H56.9251C58.7664 70.6081 60.2593 72.1035 60.2593 73.9479C60.2593 75.7757 58.7664 77.2878 56.9251 77.2878Z" fill="#4A94FF"/>
<path d="M54.8856 69.9767H-0.386107C-0.966693 69.9767 -1.44775 69.4948 -1.44775 68.9133C-1.44775 68.3317 -0.966693 67.8498 -0.386107 67.8498H54.8691C55.4496 67.8498 55.9307 68.3317 55.9307 68.9133C55.9473 69.4948 55.4662 69.9767 54.8856 69.9767Z" fill="#1353A0"/>
<path d="M55.2002 68.1988H-0.370125C-3.70435 68.1988 -6.4248 65.4737 -6.4248 62.1339C-6.4248 58.7941 -3.70435 56.069 -0.370125 56.069H55.2168C58.551 56.069 61.2715 58.7941 61.2715 62.1339C61.2549 65.4737 58.5344 68.1988 55.2002 68.1988Z" fill="#FF0303"/>
<path d="M55.598 65.5568H-0.934433C-3.5056 65.5568 -5.5957 63.4465 -5.5957 60.8877C-5.5957 58.3122 -3.48901 56.2185 -0.934433 56.2185H55.5814C58.1526 56.2185 60.2427 58.3288 60.2427 60.8877C60.2593 63.4465 58.1526 65.5568 55.598 65.5568Z" fill="#FF8206"/>
<path d="M38.2308 192.038C38.2308 192.038 38.0649 192.121 37.7663 192.254C37.6668 192.304 37.5341 192.354 37.3848 192.421C35.361 193.285 30.1192 195.328 26.0717 195.062C21.427 194.763 8.15645 192.52 5.76776 192.121C5.51893 192.088 5.38623 192.055 5.38623 192.055L7.99057 191.556L11.3248 190.908L11.3746 190.892H11.3911L15.2064 190.144L18.889 190.443H18.9056L19.735 190.51L21.0289 190.626H21.0786L31.0979 191.457L36.1241 191.872L38.2308 192.038Z" fill="#144F04"/>
<path d="M28.2115 103.259L27.9793 103.558L27.7636 103.857L27.6309 104.023L26.8015 105.103L26.0716 106.017L24.9934 107.396L24.1308 108.526L23.7493 109.008L22.9199 110.055L21.1449 112.348L18.3084 116.003L17.678 116.801L17.3131 117.266L16.4671 118.363L15.3225 119.841L14.3272 117.316L13.9291 116.286L12.3864 112.298L12.038 111.45L10.6115 107.778L9.40053 104.654L8.35547 101.979L11.5736 102.195L13.7964 102.328L23.8322 102.976L26.7683 103.176H26.7849L27.5148 103.225L27.7636 103.242L28.029 103.259H28.2115Z" fill="#144F04"/>
<path d="M48.2006 140.695L47.4044 140.944L36.8543 144.184L36.7548 144.217L36.6055 144.267L36.8875 152.492L37.2524 163.193L37.8164 179.776L38.115 188.831L38.1648 190.344L38.2145 192.055H5.36997L1.70399 144.367L-0.286594 143.636L-2.67529 142.755V121.985L4.98844 108.875L5.27044 108.376L5.61879 107.762L7.7089 104.189C7.7089 104.189 7.94113 104.904 8.38901 105.934C8.38901 105.95 8.40561 105.967 8.40561 105.984C8.78714 106.831 9.30137 107.878 9.98148 108.941C9.99807 108.975 10.0147 109.008 10.0478 109.041C10.5952 109.888 11.2588 110.736 12.0052 111.45C13.0503 112.464 14.2778 113.245 15.7044 113.511C15.8703 113.544 16.0527 113.561 16.2186 113.577C16.2352 113.577 16.2518 113.577 16.2684 113.577C16.285 113.577 16.3016 113.577 16.3182 113.577C16.5172 113.594 16.7329 113.594 16.9319 113.594C18.3751 113.561 19.7851 113.062 21.1121 112.348C21.4605 112.148 21.8088 111.949 22.1406 111.716C22.3065 111.6 22.4724 111.5 22.6382 111.384C23.252 110.952 23.8326 110.47 24.3634 109.988C24.5127 109.855 24.662 109.722 24.7947 109.589C25.0767 109.324 25.3421 109.058 25.6075 108.792C25.6407 108.759 25.6573 108.742 25.6905 108.709C26.1218 108.26 26.5033 107.845 26.8516 107.429C26.918 107.363 26.9678 107.296 27.0341 107.23C27.1834 107.047 27.3161 106.881 27.4488 106.731C27.8635 106.233 28.1787 105.801 28.3943 105.518C28.527 105.336 28.6266 105.203 28.6597 105.136C28.6763 105.103 28.6929 105.086 28.6929 105.086L29.0579 105.419L29.373 105.701L29.5555 105.867L30.2688 106.515L31.1148 107.28L31.629 107.745L35.942 111.666L36.4728 112.148L36.6055 112.281H36.6221L36.8709 112.514L37.8164 113.378L38.5297 114.026L39.9397 115.305L41.3663 116.601L42.345 117.499L42.4777 118.03L42.5938 118.462L48.2006 140.695Z" fill="#85C679"/>
<path opacity="0.5" d="M31.6449 107.762C31.6449 107.762 31.5122 107.944 31.2799 108.277C31.2634 108.293 31.2634 108.31 31.2468 108.31C30.9814 108.676 30.5832 109.224 30.1188 109.888C29.9861 110.071 29.8534 110.254 29.7041 110.453C29.5382 110.686 29.3557 110.935 29.1732 111.201C29.0405 111.384 28.9244 111.567 28.7917 111.749C28.377 112.348 27.9125 112.979 27.4647 113.627C27.2324 113.943 27.0168 114.259 26.7846 114.591C26.0381 115.654 25.2916 116.718 24.6115 117.715C23.9646 118.662 23.3674 119.542 22.8863 120.257C22.2062 121.287 21.7915 121.985 21.7915 122.135C21.7915 122.517 20.1493 120.307 18.6729 118.23C18.3246 117.748 17.9762 117.249 17.6777 116.817C17.5284 116.618 17.3957 116.419 17.2795 116.252C16.8151 115.588 16.4667 115.089 16.3506 114.923C16.3174 114.873 16.3008 114.857 16.3008 114.857L14.3268 117.332L11.3742 121.038L8.12288 114.84L5.68441 110.188L5.0043 108.892L4.88818 108.676L5.21995 108.293L5.65124 107.795L6.71288 108.509L9.56605 110.437L12.386 112.331L14.8245 113.976L15.7534 113.527L16.1681 113.328L17.0639 112.896L22.9361 110.071L23.2015 109.955L23.666 109.739L24.147 109.506L24.6281 109.274L25.6234 108.792L25.7395 108.742L27.1993 108.044L27.9457 107.679L27.9789 107.662L29.0405 107.147L30.0027 106.682L30.0856 106.648L30.2847 106.549L30.5335 106.432L31.197 107.247L31.6449 107.762Z" fill="#97435F"/>
<path d="M17.1967 95.6984C16.583 95.6984 15.9858 95.6153 15.4052 95.4823C15.3223 95.4657 15.2227 95.4325 15.173 95.3826C15.0237 95.2331 15.2227 95.0337 15.4052 94.9174C17.1635 93.8373 19.5025 93.505 21.7253 93.6546C22.0073 93.6712 22.3225 93.7044 22.5381 93.854C22.704 93.9703 22.7869 94.1198 22.8533 94.286C23.2348 95.1999 24.0476 96.2301 23.4505 97.0609C22.8367 97.8917 22.0902 99.2708 21.4599 100.085C19.7347 102.312 18.3911 103.059 19.9669 105.352C18.756 104.97 17.8105 105.585 17.628 104.555C17.4456 103.574 17.91 102.577 18.4906 101.697C19.4361 100.218 20.7466 98.8388 21.1447 97.2104C21.3106 96.5458 21.2608 95.7316 20.5641 95.3328C19.7845 94.8675 18.6897 95.15 17.7939 95.4491" fill="#2C0659"/>
<path d="M6.21586 107.811C8.77044 106.748 11.325 105.685 13.8796 104.621C14.7919 104.239 15.7043 103.857 16.6664 103.591C17.3133 103.408 17.9769 103.275 18.657 103.292C19.9011 103.292 21.0623 103.741 22.1239 104.239C25.2425 105.718 27.8136 107.828 30.0365 110.104C26.2212 107.679 21.7756 105.618 16.8986 105.336C16.0029 105.286 15.0905 105.286 14.2114 105.469C13.382 105.635 12.6023 105.934 11.8061 106.166C10.1307 106.665 8.88656 107.845 7.16139 108.243C6.82963 108.327 5.8841 108.044 5.66846 108.243" fill="#2C0659"/>
<path d="M16.3013 113.527L16.2516 113.577L13.9292 116.286L11.9884 118.562L8.57126 113.361L6.06644 109.54L5.30339 108.376L5.23704 108.26L4.90527 107.762C4.90527 107.745 8.35561 101.979 8.35561 101.979L9.83196 104.123L11.3083 106.266L16.152 113.311L16.3013 113.527Z" fill="#DBDB2E"/>
<path d="M28.2287 103.259L16.3018 113.527L20.681 118.944L31.878 106.466L28.2287 103.259Z" fill="#DBDB2E"/>
<path opacity="0.23" d="M11.5071 192.038L5.7676 192.105C5.51878 192.072 5.38608 192.038 5.38608 192.038L1.72009 144.35L-0.27049 143.619L-2.65918 142.738V121.968L3.01397 131.755L3.32914 132.304L4.20831 133.816L4.25809 134.297L4.32443 134.979L8.853 176.004L9.81512 184.727V184.744L11.2417 190.443L11.3578 190.908L11.4573 191.723L11.4739 191.939L11.4905 192.038H11.5071Z" fill="#97435F"/>
<path opacity="0.5" d="M16.3013 113.527L18.9554 192.055H19.8014L17.2302 114.657L16.3013 113.527Z" fill="#97435F"/>
<path opacity="0.5" d="M36.6047 144.267L34.4814 127.086C34.4814 127.086 38.3963 141.841 38.8939 142.041C39.3915 142.24 47.4036 140.944 47.4036 140.944L36.6047 144.267Z" fill="#97435F"/>
<path opacity="0.5" d="M41.7973 117.15L35.7095 124.261L42.5106 118.047L41.7973 117.15Z" fill="#97435F"/>
<path opacity="0.5" d="M1.72056 144.35L-0.27002 143.619C-0.27002 143.619 1.48833 133.633 1.70398 132.304C1.60445 133.683 1.72056 144.35 1.72056 144.35Z" fill="#97435F"/>
<path opacity="0.5" d="M19.8347 124.61C19.8347 124.959 19.4863 125.225 19.055 125.225C18.6237 125.225 18.2754 124.943 18.2754 124.61C18.2754 124.278 18.6237 123.996 19.055 123.996C19.4863 123.996 19.8347 124.278 19.8347 124.61Z" fill="#97435F"/>
<path opacity="0.5" d="M18.6568 136.939C18.6402 136.59 18.9886 136.308 19.4199 136.308C19.8512 136.291 20.2161 136.574 20.2161 136.906C20.2327 137.255 19.8843 137.538 19.453 137.538C19.0218 137.554 18.6734 137.272 18.6568 136.939Z" fill="#97435F"/>
<path opacity="0.5" d="M19.0709 149.053C19.0543 148.704 19.4026 148.421 19.8339 148.421C20.2652 148.405 20.6302 148.687 20.6302 149.019C20.6468 149.368 20.2984 149.651 19.8671 149.651C19.4358 149.667 19.0875 149.402 19.0709 149.053Z" fill="#97435F"/>
<path opacity="0.5" d="M19.6847 162.777C19.6681 162.429 20.0164 162.146 20.4477 162.146C20.879 162.129 21.2439 162.412 21.2439 162.744C21.2605 163.093 20.9122 163.376 20.4809 163.376C20.0662 163.392 19.7012 163.11 19.6847 162.777Z" fill="#97435F"/>
<path opacity="0.5" d="M20.1163 174.891C20.0997 174.542 20.4481 174.259 20.8793 174.259C21.3106 174.243 21.6756 174.525 21.6756 174.857C21.6922 175.206 21.3438 175.489 20.9125 175.489C20.4812 175.505 20.1163 175.239 20.1163 174.891Z" fill="#97435F"/>
<path opacity="0.5" d="M20.6641 131.788L32.2924 131.323V132.968L25.4415 135.361L20.6641 133.766V131.788Z" fill="#97435F"/>
<path d="M20.6641 131.223L32.2924 130.758L32.5578 132.702L25.8893 134.68L20.6641 133.217V131.223Z" fill="#DBDB2E"/>
<path opacity="0.5" d="M2.40039 132.337L14.0287 131.872V133.533L7.19436 135.926L2.40039 134.331V132.337Z" fill="#97435F"/>
<path d="M2.40039 131.788L14.0287 131.323L14.3107 133.251L7.64225 135.245L2.40039 133.766V131.788Z" fill="#DBDB2E"/>
<path d="M1.13915 263.62C-0.0386082 263.62 -1.4486 257.506 -1.4486 257.506C-2.04577 256.758 -0.287427 253.85 1.12257 253.402C2.51597 252.953 63.9917 253.036 65.6505 253.169C67.2928 253.302 67.807 261.178 67.8899 261.427C67.9729 261.693 66.2643 263.272 65.2027 263.288C64.1244 263.305 1.13915 263.62 1.13915 263.62Z" fill="url(#paint4_linear_2254_226462)"/>
<path opacity="0.5" d="M-1.4476 257.506C-1.4476 257.506 -0.0541959 263.62 1.14015 263.62C1.14015 263.62 64.1254 263.305 65.187 263.288C66.2487 263.272 67.9739 261.693 67.8743 261.427C67.7914 261.194 67.4099 255.246 66.2321 253.584C66.1823 253.518 66.1326 253.468 66.116 253.435C65.7842 252.936 58.2864 252.438 57.4404 253.551C56.5944 254.648 32.4586 255.711 32.8899 255.794C33.3212 255.877 -0.784067 255.179 -1.54712 257.057C-1.56371 257.24 -1.53054 257.406 -1.4476 257.506Z" fill="#B674CB"/>
<path opacity="0.72" d="M1.43848 253.468C-0.104224 253.501 10.2634 257.124 18.856 256.675C27.2662 256.226 45.5962 253.8 54.5538 253.534C63.2791 253.285 31.6289 252.82 1.43848 253.468Z" fill="#773960"/>
<path opacity="0.5" d="M1.13924 263.62C-0.0385162 263.305 18.308 262.241 21.2939 262.308C24.2466 262.374 42.5101 263.255 52.5791 263.006C63.2951 263.537 65.6838 258.403 65.5511 257.09C65.8829 256.143 59.7618 255.711 57.0911 255.778C54.4038 255.844 57.9039 260.33 58.4182 260.264C58.9324 260.181 62.5486 257.738 62.9467 257.938C63.3449 258.12 61.1221 260.414 58.7499 260.796C56.3612 261.178 54.1218 256.841 55.1669 255.362C56.2285 253.883 65.352 254.947 65.8497 255.761C66.3473 256.559 65.1364 260.563 62.8472 262.042C60.5746 263.521 67.9895 262.839 65.153 263.288L1.13924 263.62Z" fill="#B674CB"/>
<path opacity="0.5" d="M67.8905 260.929C67.8905 263.587 64.5231 263.438 60.5917 263.438C56.6603 263.438 51.7502 264.086 52.2976 261.46C52.4635 260.663 49.9753 253.169 58.767 252.903C60.9069 252.837 62.914 252.504 65.5681 253.169C67.9568 253.75 67.8905 259.716 67.8905 260.929Z" fill="#B674CB"/>
<path d="M1.47118 273.906C0.293423 273.906 -1.11657 267.791 -1.11657 267.791C-1.71374 267.043 0.0446047 264.136 1.4546 263.687C2.848 263.238 64.3237 263.321 65.9826 263.454C67.6248 263.587 68.139 271.463 68.222 271.712C68.3049 271.978 66.5963 273.557 65.5347 273.573C64.4565 273.59 1.47118 273.906 1.47118 273.906Z" fill="#AEB5F4"/>
<path opacity="0.5" d="M-1.11605 267.791C-1.11605 267.791 0.277347 273.906 1.47169 273.906C1.47169 273.906 64.4569 273.59 65.5186 273.573C66.5802 273.557 68.3054 271.978 68.2059 271.712C68.1229 271.48 67.7414 265.531 66.5636 263.87C66.5139 263.803 66.4641 263.753 66.4475 263.72C66.1158 263.222 58.6179 262.723 57.7719 263.836C56.9259 264.933 32.7901 265.996 33.2214 266.08C33.6527 266.163 -0.452524 265.465 -1.21558 267.342C-1.23217 267.525 -1.199 267.691 -1.11605 267.791Z" fill="#7575C9"/>
<path opacity="0.72" d="M1.76953 263.753C0.22683 263.787 10.5944 267.409 19.1871 266.96C27.5973 266.512 45.9272 264.086 54.8848 263.82C63.6102 263.571 31.96 263.105 1.76953 263.753Z" fill="#393975"/>
<path opacity="0.5" d="M1.47127 273.906C0.293515 273.59 18.64 272.527 21.6259 272.593C24.5786 272.66 42.8422 273.54 52.9112 273.291C63.6271 273.823 66.0158 268.688 65.8831 267.376C66.2149 266.429 60.0939 265.997 57.4232 266.063C54.7359 266.129 58.236 270.616 58.7502 270.549C59.2644 270.466 62.8807 268.024 63.2788 268.223C63.6769 268.406 61.4541 270.699 59.082 271.081C56.6933 271.463 54.4539 267.126 55.4989 265.648C56.5606 264.169 65.6841 265.232 66.1817 266.046C66.6793 266.844 65.4684 270.848 63.1792 272.327C60.9067 273.806 68.3216 273.125 65.485 273.573L1.47127 273.906Z" fill="#B674CB"/>
<path opacity="0.5" d="M68.222 271.214C68.222 273.873 64.8546 273.723 60.9232 273.723C56.9918 273.723 52.0817 274.371 52.6292 271.746C52.795 270.948 50.3068 263.454 59.0985 263.188C61.2384 263.122 63.2456 262.79 65.8997 263.454C68.2884 264.036 68.222 270.001 68.222 271.214Z" fill="#7579C9"/>
<path opacity="0.58" d="M74 42H-14V80H74V42Z" fill="url(#paint5_linear_2254_226462)"/>
<path opacity="0.58" d="M74 84H-105V245H74V84Z" fill="url(#paint6_linear_2254_226462)"/>
<path d="M463.205 304.803H278.525V312.726H463.205V304.803Z" fill="#650912"/>
<path opacity="0.79" d="M463.205 300.833H278.525V308.756H463.205V300.833Z" fill="url(#paint7_linear_2254_226462)"/>
<path d="M272.125 306.281L273.326 26.5782H467.855L469.433 306.281H272.125Z" fill="#FFA96E"/>
<path d="M464.526 300.524H277.015L277.272 252.008L278.165 32.3354H463.033L464.2 252.008L464.372 275.415L464.526 300.524Z" fill="#650912"/>
<path d="M287.275 41.9596V300.524H453.528L451.847 41.9596H287.275Z" fill="url(#paint8_linear_2254_226462)"/>
<path opacity="0.4" d="M319.479 41.7019L342.504 243.019L351.563 242.813L343.327 42.3206L319.479 41.7019Z" fill="#F9A378"/>
<path opacity="0.43" d="M351.545 41.8909L355.166 242.143L358.408 243.019L357.568 42.5268L351.545 41.8909Z" fill="#994A02"/>
<path opacity="0.43" d="M307.813 41.7019L308.156 244.996L304.913 245.889L298.033 41.5644L307.813 41.7019Z" fill="#994A02"/>
<path d="M276.124 29.9122L287.276 41.9596H451.847L464.527 30.5481L276.124 29.9122Z" fill="#650912"/>
<path d="M276.124 74.8881L287.276 84.1342H451.847L464.527 75.3693L276.124 74.8881Z" fill="#650912"/>
<path d="M277.29 245.924L280.687 251.939H455.81L460.803 246.233L277.29 245.924Z" fill="#650912"/>
<path opacity="0.6" d="M464.372 275.965H452.396L451.504 266.856H289.815L288.236 275.965H276.861L277.273 247.35H464.2L464.372 275.965Z" fill="#383636"/>
<path opacity="0.6" d="M464.372 299.51H452.396L451.504 291.364H289.815L288.236 299.51H276.861L277.273 273.92H464.2L464.372 299.51Z" fill="#383636"/>
<path d="M466.636 72.2243H274.682V75.9193H466.636V72.2243Z" fill="#FFA96E"/>
<path d="M273.327 26.5782L278.165 32.3355H463.034L467.855 26.5782H273.327Z" fill="#FFA96E"/>
<path d="M458.727 88.0354H281.253V91.9366H458.727V88.0354Z" fill="#AAAAAA"/>
<path opacity="0.5" d="M458.727 91.9367H281.253V90.3384C281.253 90.3384 335.556 90.3384 369.922 90.3384C449.668 90.3384 458.727 90.3384 458.727 90.3384V91.9367Z" fill="#5E5E5E"/>
<path opacity="0.3" d="M272.829 168.69L277.684 172.814V183.59L272.829 181.012V168.69Z" fill="url(#paint9_linear_2254_226462)"/>
<path d="M372.495 32.3354H369.063V72.2243H372.495V32.3354Z" fill="#FFA96E"/>
<path d="M464.251 243.105H277.29V246.8H464.251V243.105Z" fill="#FFA96E"/>
<path d="M277.152 300.524L287.138 296.966H453.528L464.526 300.524H277.152Z" fill="#650912"/>
<path d="M464.474 272.029V275.724H372.495V300.61H369.063V275.724H277.255V272.029H369.063V246.817H372.495V272.029H464.474Z" fill="#FFA96E"/>
<path d="M310.283 88.1386C309.648 88.1386 309.031 88.0527 308.43 87.9152C308.344 87.898 308.241 87.8636 308.19 87.8121C308.035 87.6574 308.241 87.4512 308.43 87.3309C310.249 86.2138 312.668 85.87 314.967 86.0247C315.259 86.0419 315.585 86.0763 315.808 86.2309C315.979 86.3513 316.065 86.5059 316.134 86.6778C316.528 87.623 317.369 88.6886 316.751 89.5479C316.117 90.4072 315.344 91.8336 314.692 92.6757C312.908 94.9786 311.518 95.752 313.148 98.1237C311.896 97.7284 310.918 98.3643 310.729 97.2988C310.54 96.2848 311.021 95.2536 311.621 94.3428C312.599 92.8132 313.955 91.3868 314.366 89.7025C314.538 89.0151 314.487 88.173 313.766 87.7605C312.96 87.2793 311.827 87.5715 310.901 87.8808" fill="#2C0659"/>
<path d="M298.925 100.667C301.567 99.5673 304.209 98.4674 306.851 97.3675C307.795 96.9722 308.738 96.5769 309.734 96.3019C310.403 96.1129 311.089 95.9754 311.792 95.9926C313.079 95.9926 314.28 96.4566 315.378 96.9722C318.604 98.5018 321.263 100.684 323.562 103.039C319.616 100.53 315.018 98.3986 309.974 98.1065C309.047 98.0549 308.104 98.0549 307.194 98.244C306.336 98.4158 305.53 98.7252 304.707 98.9658C302.974 99.4814 301.687 100.702 299.903 101.114C299.559 101.2 298.581 100.908 298.358 101.114" fill="#2C0659"/>
<path d="M338.764 88.1386C338.129 88.1386 337.512 88.0527 336.911 87.9152C336.825 87.898 336.722 87.8636 336.671 87.8121C336.516 87.6574 336.722 87.4512 336.911 87.3309C338.73 86.2138 341.149 85.87 343.448 86.0247C343.74 86.0419 344.066 86.0763 344.289 86.2309C344.46 86.3513 344.546 86.5059 344.615 86.6778C345.009 87.623 345.85 88.6886 345.232 89.5479C344.597 90.4072 343.825 91.8336 343.173 92.6757C341.389 94.9786 339.999 95.752 341.629 98.1237C340.377 97.7284 339.399 98.3643 339.21 97.2988C339.021 96.2848 339.502 95.2536 340.102 94.3428C341.08 92.8132 342.436 91.3868 342.847 89.7025C343.019 89.0151 342.968 88.173 342.247 87.7605C341.441 87.2793 340.308 87.5715 339.382 87.8808" fill="#2C0659"/>
<path d="M327.405 100.667C330.047 99.5673 332.689 98.4674 335.332 97.3675C336.275 96.9722 337.219 96.5769 338.214 96.3019C338.883 96.1129 339.569 95.9754 340.273 95.9926C341.56 95.9926 342.761 96.4566 343.859 96.9722C347.084 98.5018 349.744 100.684 352.043 103.039C348.097 100.53 343.498 98.3986 338.454 98.1065C337.528 98.0549 336.584 98.0549 335.675 98.244C334.817 98.4158 334.011 98.7252 333.187 98.9658C331.454 99.4814 330.167 100.702 328.383 101.114C328.04 101.2 327.062 100.908 326.839 101.114" fill="#2C0659"/>
<path d="M371.363 87.6058C370.728 87.6058 370.11 87.5198 369.51 87.3823C369.424 87.3652 369.321 87.3308 369.269 87.2792C369.115 87.1246 369.321 86.9183 369.51 86.798C371.328 85.6809 373.748 85.3372 376.047 85.4919C376.338 85.5091 376.664 85.5434 376.887 85.6981C377.059 85.8184 377.145 85.9731 377.213 86.145C377.608 87.0902 378.449 88.1557 377.831 89.015C377.196 89.8743 376.424 91.3008 375.772 92.1429C373.988 94.4458 372.598 95.2192 374.228 97.5909C372.975 97.1956 371.997 97.8315 371.809 96.7659C371.62 95.752 372.1 94.7208 372.701 93.8099C373.679 92.2804 375.034 90.8539 375.446 89.1697C375.618 88.4823 375.566 87.6401 374.846 87.2277C374.039 86.7465 372.907 87.0386 371.98 87.348" fill="#2C0659"/>
<path d="M344.734 125.69C344.734 125.69 327.748 99.0345 323.596 96.9894C321.898 95.9754 319.564 95.9238 319.564 95.9238L328.452 127.323L339.45 140.419C339.45 140.419 343.276 145.11 346.021 138.287C348.869 131.172 344.734 125.69 344.734 125.69Z" fill="#F89D4B"/>
<path fill-rule="evenodd" clip-rule="evenodd" d="M304.123 95.8895H303.728C300.537 95.8895 298.29 100.186 298.547 105.754L301.532 168.741C301.567 169.068 301.618 172.9 303.008 172.952H333.462C334.851 173.003 334.165 169.102 334.131 168.741L326.444 105.96C325.758 100.323 322.687 95.8895 319.462 95.8895H319.221C318.295 100.753 315.721 104.104 312.41 104.104C309.099 104.122 305.924 100.77 304.123 95.8895Z" fill="#F89D4B"/>
<path d="M348.149 134.232L344.168 143.529C343.962 143.993 343.568 144.045 343.259 143.65L341.749 141.742L346.416 130.829L347.96 132.788C348.252 133.149 348.337 133.819 348.149 134.232Z" fill="#A26431"/>
<path d="M283.741 125.707C283.741 125.707 295.905 99.0517 299.697 97.0066C301.207 95.9926 303.54 95.9411 303.54 95.9411L300.332 127.34L291.702 140.436C291.702 140.436 288.716 145.128 284.753 138.305C280.601 131.19 283.741 125.707 283.741 125.707Z" fill="#F89D4B"/>
<path d="M281.837 134.094L287.499 143.392C287.79 143.856 288.202 143.907 288.442 143.512L289.609 141.604L282.969 130.691L281.768 132.65C281.545 133.011 281.579 133.664 281.837 134.094Z" fill="#A26431"/>
<path d="M330.7 140.522L300.16 140.453L299.285 119.555L328.058 119.709L330.7 140.522Z" fill="#FCCAA4"/>
<path d="M330.837 141.604L300.263 141.639L300.229 140.504L330.7 140.522L330.837 141.604Z" fill="#965B33"/>
<path d="M328.058 119.709L299.337 119.812L299.234 118.695L327.955 118.592L328.058 119.709Z" fill="#965B33"/>
<path d="M318.759 129.952L315.242 137.273L310.489 130.09L314.006 122.768L318.759 129.952Z" fill="#965B33"/>
<path d="M310.42 129.935L308.498 133.922L305.908 130.004L307.829 126.017L310.42 129.935Z" fill="#965B33"/>
<path d="M323.168 129.849L321.263 133.836L318.672 129.918L320.594 125.931L323.168 129.849Z" fill="#965B33"/>
<path d="M283.415 131.516L281.837 134.094L282.54 135.263L284.17 132.805L283.415 131.516Z" fill="#6D3415"/>
<path d="M284.564 133.389L282.986 135.967L283.689 137.153L285.319 134.678L284.564 133.389Z" fill="#6D3415"/>
<path d="M285.697 135.263L284.135 137.841L284.839 139.026L286.451 136.552L285.697 135.263Z" fill="#6D3415"/>
<path d="M286.846 137.153L285.285 139.731L285.989 140.9L287.601 138.425L286.846 137.153Z" fill="#6D3415"/>
<path d="M287.995 139.026L286.417 141.604L287.138 142.773L288.75 140.298L287.995 139.026Z" fill="#6D3415"/>
<path d="M346.21 131.344L348.252 133.922L347.754 135.108L345.678 132.633L346.21 131.344Z" fill="#6D3415"/>
<path d="M345.404 133.218L347.446 135.795L346.948 136.981L344.872 134.507L345.404 133.218Z" fill="#6D3415"/>
<path d="M344.597 135.108L346.639 137.686L346.141 138.855L344.065 136.38L344.597 135.108Z" fill="#6D3415"/>
<path d="M343.791 136.981L345.833 139.559L345.335 140.728L343.259 138.253L343.791 136.981Z" fill="#6D3415"/>
<path d="M342.985 138.855L345.026 141.433L344.529 142.601L342.453 140.144L342.985 138.855Z" fill="#6D3415"/>
<path d="M317.078 130.107L315.053 134.3L312.342 130.193L314.35 125.999L317.078 130.107Z" fill="#6D3415"/>
<path d="M316.082 130.158L314.898 132.633L313.302 130.21L314.486 127.735L316.082 130.158Z" fill="#965B33"/>
<path d="M329.235 242.623H293.47C292.661 242.623 292 241.961 292 241.151V215.472C292 214.663 292.661 214 293.47 214H329.235C330.043 214 330.704 214.663 330.704 215.472V241.151C330.704 241.961 330.043 242.623 329.235 242.623Z" fill="url(#paint10_linear_2254_226462)"/>
<path d="M324.25 239.225H298.455C297.647 239.225 296.985 238.562 296.985 237.752V219.46C296.985 218.65 297.647 217.987 298.455 217.987H324.238C325.046 217.987 325.707 218.65 325.707 219.46V237.752C325.72 238.562 325.058 239.225 324.25 239.225Z" fill="#212121"/>
<path d="M323.306 237.863H299.888C299.079 237.863 298.418 237.2 298.418 236.391V219.84C298.418 219.03 299.079 218.368 299.888 218.368H323.306C324.115 218.368 324.776 219.03 324.776 219.84V236.391C324.776 237.2 324.115 237.863 323.306 237.863Z" fill="url(#paint11_radial_2254_226462)"/>
<path d="M318.023 229.161L306.216 234.805C305.934 234.94 305.604 234.719 305.604 234.388V223.064C305.604 222.732 305.934 222.511 306.216 222.646L318.023 228.339C318.195 228.425 318.305 228.621 318.268 228.83C318.244 228.977 318.158 229.1 318.023 229.161Z" fill="url(#paint12_linear_2254_226462)"/>
<path d="M318.023 228.67L306.216 234.314C305.934 234.449 305.604 234.228 305.604 233.897V222.573C305.604 222.242 305.934 222.021 306.216 222.156L318.023 227.848C318.195 227.934 318.305 228.131 318.268 228.339C318.244 228.486 318.158 228.609 318.023 228.67Z" fill="url(#paint13_linear_2254_226462)"/>
<path d="M312.928 228.781L308.763 230.768C308.665 230.817 308.543 230.744 308.543 230.621V226.621C308.543 226.499 308.653 226.425 308.763 226.474L312.928 228.486C312.989 228.511 313.026 228.585 313.014 228.658C313.001 228.719 312.977 228.756 312.928 228.781Z" fill="url(#paint14_linear_2254_226462)"/>
<path d="M385.637 113.179C385.569 113.419 385.431 113.574 385.225 113.677C385.088 113.746 384.934 113.797 384.762 113.832C384.711 113.849 384.659 113.849 384.591 113.849C384.436 113.866 384.282 113.866 384.11 113.866C383.647 113.849 383.149 113.78 382.652 113.677C382.635 113.677 382.618 113.677 382.6 113.66C382.463 113.626 382.309 113.591 382.172 113.557C381.914 113.488 381.657 113.419 381.434 113.351C381.365 113.333 381.314 113.316 381.245 113.299C380.696 113.127 380.164 112.921 380.164 112.921C380.164 112.921 380.061 110.463 379.787 108.538C379.735 108.229 379.701 107.92 379.632 107.645C379.632 107.593 379.615 107.542 379.598 107.507C379.598 107.49 379.598 107.49 379.598 107.473C379.529 107.146 379.461 106.82 379.375 106.493C379.341 106.339 379.289 106.184 379.255 106.012C379.203 105.823 379.152 105.634 379.083 105.445C379.032 105.29 378.98 105.118 378.929 104.964C378.929 104.947 378.929 104.929 378.912 104.912C378.894 104.843 378.877 104.792 378.843 104.723C378.809 104.654 378.792 104.603 378.774 104.534C378.671 104.276 378.568 104.001 378.466 103.744C378.448 103.675 378.414 103.606 378.38 103.554C378.328 103.451 378.277 103.348 378.243 103.245C378.208 103.176 378.191 103.125 378.157 103.056C377.985 102.695 377.796 102.334 377.591 101.991C377.402 101.664 377.196 101.355 376.973 101.045C375.892 99.5329 374.434 98.3127 372.495 97.6768C370.745 97.1097 368.892 97.505 367.09 98.4502C366.49 98.7596 365.906 99.1205 365.306 99.5329C364.74 99.9282 364.174 100.375 363.625 100.839C363.436 100.994 363.247 101.166 363.058 101.337C363.007 101.372 362.973 101.423 362.938 101.458C362.818 101.578 362.681 101.698 362.561 101.819C362.475 101.905 362.389 101.973 362.321 102.059C362.115 102.248 361.926 102.455 361.737 102.644C361.566 102.815 361.411 102.987 361.24 103.159C361.12 103.297 361 103.417 360.879 103.554C360.691 103.761 360.502 103.95 360.33 104.156C359.953 104.586 359.575 105.032 359.232 105.445C359.215 105.479 359.181 105.496 359.164 105.531C358.889 105.875 358.615 106.201 358.374 106.528C358.323 106.596 358.254 106.665 358.203 106.751C357.997 107.026 357.808 107.284 357.62 107.524C356.487 109.054 355.801 110.12 355.801 110.12C355.801 110.12 352.215 109.243 352.043 107.662C351.975 107.095 353.691 105.256 356.247 103.211C356.264 103.194 356.281 103.194 356.298 103.176C356.556 102.97 356.813 102.781 357.088 102.575C357.259 102.455 357.431 102.317 357.602 102.197C357.894 101.973 358.203 101.767 358.512 101.544C358.838 101.32 359.164 101.097 359.507 100.873C359.936 100.581 360.382 100.306 360.845 100.031C360.965 99.9626 361.085 99.8938 361.188 99.8251C361.394 99.7048 361.6 99.5845 361.806 99.4642C361.909 99.4126 362.012 99.3439 362.115 99.2923C362.303 99.1892 362.475 99.0861 362.664 99.0002C362.904 98.8627 363.161 98.7424 363.419 98.6049C363.899 98.3643 364.397 98.1409 364.877 97.9346C366.97 97.041 369.063 96.4566 370.934 96.4738C371.688 96.4738 372.392 96.5769 373.061 96.8004C373.147 96.8347 373.233 96.8519 373.318 96.8863C375.772 97.7628 378.002 99.6532 379.855 101.853C379.855 101.853 379.855 101.853 379.872 101.87C379.907 101.905 379.924 101.939 379.958 101.973C380.113 102.162 380.267 102.334 380.404 102.523C380.404 102.523 380.404 102.54 380.421 102.54C380.456 102.575 380.49 102.626 380.524 102.661C380.576 102.73 380.645 102.798 380.696 102.884C380.73 102.919 380.747 102.953 380.782 102.987C380.868 103.09 380.953 103.211 381.022 103.314C381.125 103.451 381.211 103.589 381.314 103.726C381.399 103.847 381.485 103.967 381.554 104.087C381.657 104.225 381.743 104.362 381.846 104.5C381.983 104.689 382.103 104.895 382.223 105.084C382.223 105.101 382.24 105.118 382.257 105.136C382.446 105.428 382.618 105.72 382.789 106.012C382.789 106.029 382.806 106.029 382.806 106.029C382.909 106.218 383.029 106.407 383.132 106.579C383.767 107.696 384.299 108.779 384.711 109.741C384.779 109.896 384.831 110.034 384.899 110.188C385.02 110.498 385.14 110.807 385.225 111.082C385.243 111.134 385.26 111.185 385.277 111.219C385.294 111.254 385.294 111.288 385.311 111.323C385.311 111.34 385.328 111.357 385.328 111.374C385.346 111.408 385.346 111.426 385.346 111.443C385.346 111.46 385.363 111.46 385.363 111.477C385.38 111.529 385.397 111.598 385.414 111.649C385.5 111.907 385.551 112.13 385.586 112.337C385.654 112.68 385.689 112.938 385.654 113.127C385.654 113.11 385.637 113.144 385.637 113.179Z" fill="#2C0659"/>
<path d="M354.995 106.837L384.505 111.598L383.647 113.643L355.801 110.085L354.995 106.837Z" fill="#2C0659"/>
<path d="M358.1 108.006L353.759 166.026C353.708 166.644 354.188 167.194 354.926 167.383C359.095 168.466 372.375 171.886 373.541 172.23C374.571 172.539 380.216 171.921 382.995 171.594C383.853 171.491 384.488 170.889 384.436 170.185L380.13 110.274C380.095 109.673 379.546 109.174 378.826 109.037C375.171 108.367 364.62 106.51 363.196 106.768C363.075 106.785 362.955 106.803 362.835 106.803L359.85 106.717C358.923 106.717 358.151 107.284 358.1 108.006Z" fill="#6D3808"/>
<path d="M358.34 107.937L354.36 164.599C354.326 165.201 354.754 165.734 355.424 165.923C359.25 166.971 371.414 170.322 372.478 170.666C373.421 170.958 378.603 170.374 381.142 170.047C381.931 169.944 382.515 169.36 382.463 168.672L378.517 110.171C378.483 109.587 376.63 108.951 377.316 108.968C382.978 109.157 374.056 106.579 369.595 106.304C369.492 106.304 362.784 105.548 362.561 106.029L359.953 106.717C359.095 106.682 358.375 107.232 358.34 107.937Z" fill="#C49772"/>
<path d="M340.188 271.737H320.2C319.136 271.737 318.278 270.878 318.278 269.812C318.278 266.839 320.68 264.45 323.631 264.45H341.183C341.99 264.45 342.642 265.103 342.642 265.911V269.28C342.642 270.637 341.543 271.737 340.188 271.737Z" fill="#3A3739"/>
<path d="M332.004 266.495C332.004 266.736 331.935 266.942 331.832 267.045C331.455 267.423 330.254 268.145 326.479 268.437C321.366 268.833 321.709 266.805 321.709 266.805C321.709 265.756 322.138 264.897 322.67 264.897H331.695C331.866 264.897 332.004 265.172 332.004 265.499V266.495Z" fill="#606060"/>
<path d="M341.612 264.622L330.289 264.485L329.928 261.357C329.448 260.446 330.289 259.449 331.524 259.449H340.171C340.96 259.449 341.612 259.965 341.612 260.601V264.622Z" fill="#3A3739"/>
<path opacity="0.89" d="M340.926 259.862H335.264V271.17H340.926V259.862Z" fill="#2D2D2D"/>
<path opacity="0.89" d="M341.612 263.935H330.117V264.76H341.612V263.935Z" fill="#1E1D1E"/>
<path d="M328.178 271.6H308.19C307.126 271.6 306.269 270.74 306.269 269.675C306.269 266.702 308.671 264.313 311.622 264.313H329.173C329.98 264.313 330.632 264.966 330.632 265.774V269.142C330.632 270.5 329.534 271.6 328.178 271.6Z" fill="#3A3739"/>
<path d="M319.993 266.358C319.993 266.598 319.925 266.805 319.822 266.908C319.444 267.286 318.243 268.008 314.469 268.3C309.356 268.695 309.699 266.667 309.699 266.667C309.699 265.619 310.128 264.76 310.66 264.76H319.685C319.856 264.76 319.993 265.034 319.993 265.361V266.358Z" fill="#606060"/>
<path d="M329.602 264.485L318.278 264.347L317.918 261.219C317.438 260.308 318.278 259.312 319.514 259.312H328.161C328.95 259.312 329.602 259.827 329.602 260.463V264.485Z" fill="#3A3739"/>
<path opacity="0.89" d="M328.916 259.724H323.254V271.032H328.916V259.724Z" fill="#2D2D2D"/>
<path opacity="0.89" d="M332.862 260.119H330.117V271.428H332.862V260.119Z" fill="#2D2D2D"/>
<path opacity="0.89" d="M329.602 263.797H318.107V264.622H329.602V263.797Z" fill="#1E1D1E"/>
<path d="M362.201 36.6664H289.797V72.0868H362.201V36.6664Z" fill="#DDDDDD"/>
<path d="M300.435 36.8038H288.253V72.2243H300.435V36.8038Z" fill="#A3A0A0"/>
<path d="M362.201 42.2518H288.253V43.6095H362.201V42.2518Z" fill="#706D6D"/>
<path d="M361.994 42.3893H288.459C287.584 42.3893 286.88 41.6846 286.88 40.8082V36.9069C286.88 36.0304 287.584 35.3258 288.459 35.3258H361.977C362.852 35.3258 363.556 36.0304 363.556 36.9069V40.8082C363.573 41.6675 362.87 42.3893 361.994 42.3893Z" fill="#DDDDDD"/>
<path d="M300.606 42.3893H288.459C287.584 42.3893 286.88 41.6846 286.88 40.8082V36.9069C286.88 36.0304 287.584 35.3258 288.459 35.3258H300.606V42.3893Z" fill="#A3A0A0"/>
<path opacity="0.58" d="M369 32H278V75H369V32Z" fill="url(#paint15_linear_2254_226462)"/>
<path opacity="0.58" d="M463 76H278V243H463V76Z" fill="url(#paint16_linear_2254_226462)"/>
</g>
<defs>
<linearGradient id="paint0_linear_2254_226462" x1="-104.58" y1="305.037" x2="73.9718" y2="305.037" gradientUnits="userSpaceOnUse">
<stop stop-color="#CC936A"/>
<stop offset="1" stop-color="#890050"/>
</linearGradient>
<linearGradient id="paint1_linear_2254_226462" x1="-96.1143" y1="175.915" x2="64.6164" y2="175.915" gradientUnits="userSpaceOnUse">
<stop offset="0.3771" stop-color="#E77B45"/>
<stop offset="0.719" stop-color="#E67843"/>
</linearGradient>
<linearGradient id="paint2_linear_2254_226462" x1="-7.99878" y1="248.489" x2="67.7913" y2="246.332" gradientUnits="userSpaceOnUse">
<stop/>
<stop offset="1" stop-color="#E5D9E3"/>
</linearGradient>
<linearGradient id="paint3_linear_2254_226462" x1="-7.89582" y1="276.446" x2="67.9967" y2="274.287" gradientUnits="userSpaceOnUse">
<stop/>
<stop offset="1" stop-color="#E5D9E3"/>
</linearGradient>
<linearGradient id="paint4_linear_2254_226462" x1="-1.5615" y1="257.888" x2="67.8899" y2="257.888" gradientUnits="userSpaceOnUse">
<stop stop-color="#FEF9FF"/>
<stop offset="0.6068" stop-color="#FFDADC"/>
<stop offset="1" stop-color="#FFCACA"/>
</linearGradient>
<linearGradient id="paint5_linear_2254_226462" x1="30.7017" y1="127.3" x2="28.9083" y2="37.617" gradientUnits="userSpaceOnUse">
<stop offset="0.2839" stop-color="white" stop-opacity="0"/>
<stop offset="0.9389"/>
</linearGradient>
<linearGradient id="paint6_linear_2254_226462" x1="-13.2107" y1="440.583" x2="-22.7402" y2="67.2115" gradientUnits="userSpaceOnUse">
<stop offset="0.2839" stop-color="white" stop-opacity="0"/>
<stop offset="0.3456" stop-color="#F9F9F9" stop-opacity="0.0942001"/>
<stop offset="0.4273" stop-color="#E8E8E8" stop-opacity="0.2189"/>
<stop offset="0.5202" stop-color="#CDCDCD" stop-opacity="0.3608"/>
<stop offset="0.6215" stop-color="#A6A6A6" stop-opacity="0.5154"/>
<stop offset="0.7295" stop-color="#757575" stop-opacity="0.6803"/>
<stop offset="0.8413" stop-color="#3A3A3A" stop-opacity="0.8511"/>
<stop offset="0.9389"/>
</linearGradient>
<linearGradient id="paint7_linear_2254_226462" x1="278.522" y1="304.795" x2="463.199" y2="304.795" gradientUnits="userSpaceOnUse">
<stop stop-color="#CC936A"/>
<stop offset="1" stop-color="#890050"/>
</linearGradient>
<linearGradient id="paint8_linear_2254_226462" x1="287.278" y1="171.244" x2="453.522" y2="171.244" gradientUnits="userSpaceOnUse">
<stop offset="0.3771" stop-color="#E77B45"/>
<stop offset="0.719" stop-color="#E67843"/>
</linearGradient>
<linearGradient id="paint9_linear_2254_226462" x1="294.564" y1="154.779" x2="251.226" y2="202.57" gradientUnits="userSpaceOnUse">
<stop/>
<stop offset="1" stop-color="#E5D9E3"/>
</linearGradient>
<linearGradient id="paint10_linear_2254_226462" x1="311.033" y1="246.722" x2="311.659" y2="210.772" gradientUnits="userSpaceOnUse">
<stop stop-color="#D7D7D7"/>
<stop offset="0.2038" stop-color="#4D4E4E"/>
<stop offset="0.2573" stop-color="#515252"/>
<stop offset="0.3089" stop-color="#5C5D5D"/>
<stop offset="0.3598" stop-color="#707171"/>
<stop offset="0.4103" stop-color="#8B8C8C"/>
<stop offset="0.4599" stop-color="#AEAEAE"/>
<stop offset="0.5077" stop-color="#D7D7D7"/>
<stop offset="0.5189" stop-color="white"/>
<stop offset="0.5934" stop-color="#D7D7D7"/>
<stop offset="0.8428" stop-color="#4D4E4E"/>
<stop offset="0.8723" stop-color="#696A6A"/>
<stop offset="0.9598" stop-color="#B8B8B8"/>
<stop offset="1" stop-color="#D7D7D7"/>
</linearGradient>
<radialGradient id="paint11_radial_2254_226462" cx="0" cy="0" r="1" gradientUnits="userSpaceOnUse" gradientTransform="translate(311.597 228.111) scale(68.3732 54.2975)">
<stop stop-color="#D7D7D7"/>
<stop offset="0.2038" stop-color="#4D4E4E"/>
<stop offset="0.2573" stop-color="#515252"/>
<stop offset="0.3089" stop-color="#5C5D5D"/>
<stop offset="0.3598" stop-color="#707171"/>
<stop offset="0.4103" stop-color="#8B8C8C"/>
<stop offset="0.4599" stop-color="#AEAEAE"/>
<stop offset="0.5077" stop-color="#D7D7D7"/>
<stop offset="0.5189" stop-color="white"/>
<stop offset="0.5934" stop-color="#D7D7D7"/>
<stop offset="0.8428" stop-color="#4D4E4E"/>
<stop offset="0.8723" stop-color="#696A6A"/>
<stop offset="0.9598" stop-color="#B8B8B8"/>
<stop offset="1" stop-color="#D7D7D7"/>
</radialGradient>
<linearGradient id="paint12_linear_2254_226462" x1="305.604" y1="228.723" x2="318.277" y2="228.723" gradientUnits="userSpaceOnUse">
<stop stop-color="#B26B28"/>
<stop offset="0.3198" stop-color="#D38C29"/>
<stop offset="0.6802" stop-color="#E5AC23"/>
<stop offset="1" stop-color="#F7C63C"/>
</linearGradient>
<linearGradient id="paint13_linear_2254_226462" x1="305.604" y1="228.237" x2="318.277" y2="228.237" gradientUnits="userSpaceOnUse">
<stop stop-color="#EBC23D"/>
<stop offset="0.3198" stop-color="#FBF28E"/>
<stop offset="0.6802" stop-color="#DAAB27"/>
<stop offset="1" stop-color="#F9F297"/>
</linearGradient>
<linearGradient id="paint14_linear_2254_226462" x1="308.543" y1="228.626" x2="313.017" y2="228.626" gradientUnits="userSpaceOnUse">
<stop stop-color="#B26B28"/>
<stop offset="0.3198" stop-color="#D38C29"/>
<stop offset="0.6802" stop-color="#E5AC23"/>
<stop offset="1" stop-color="#F7C63C"/>
</linearGradient>
<linearGradient id="paint15_linear_2254_226462" x1="324.226" y1="128.524" x2="322.005" y2="27.0483" gradientUnits="userSpaceOnUse">
<stop offset="0.2839" stop-color="white" stop-opacity="0"/>
<stop offset="0.9389"/>
</linearGradient>
<linearGradient id="paint16_linear_2254_226462" x1="372.866" y1="445.872" x2="362.946" y2="58.5877" gradientUnits="userSpaceOnUse">
<stop offset="0.2839" stop-color="white" stop-opacity="0"/>
<stop offset="0.3456" stop-color="#F9F9F9" stop-opacity="0.0942001"/>
<stop offset="0.4273" stop-color="#E8E8E8" stop-opacity="0.2189"/>
<stop offset="0.5202" stop-color="#CDCDCD" stop-opacity="0.3608"/>
<stop offset="0.6215" stop-color="#A6A6A6" stop-opacity="0.5154"/>
<stop offset="0.7295" stop-color="#757575" stop-opacity="0.6803"/>
<stop offset="0.8413" stop-color="#3A3A3A" stop-opacity="0.8511"/>
<stop offset="0.9389"/>
</linearGradient>
<clipPath id="clip0_2254_226462">
<rect width="396" height="463" fill="white" transform="translate(-13 -59)"/>
</clipPath>
</defs>
</svg>
