<svg width="78" height="162" viewBox="0 0 78 162" fill="none" xmlns="http://www.w3.org/2000/svg">
<path d="M73.3105 120.881L6.6443 161.353L0.847242 158.991L0.203125 32.9588L72.4517 0.752914L77.712 3.22204L73.3105 120.881Z" fill="#493E36"/>
<path d="M77.7119 123.672L5.24861 161.782L4.60449 35.75L77.7119 3.22203V123.672Z" fill="#7C7976"/>
<path d="M74.1692 116.157L12.7633 148.471L12.2266 41.6544L74.1692 14.0647V116.157Z" fill="#896B56"/>
<path d="M69.553 112.185L12.8707 142.029L12.2266 41.6544L69.4457 15.997L69.553 112.185Z" fill="#738B8E"/>
<path opacity="0.39" d="M74.2769 115.943L12.7637 148.471L41.9637 112.4L59.1401 55.0735L69.3387 45.7338L74.1696 14.0647L74.2769 115.943Z" fill="#96D8E7"/>
<path opacity="0.39" d="M74.1692 14.0647L12.2266 41.6544L12.3339 57.0059L12.656 106.71L12.7633 148.471L17.0574 140.848L29.6177 124.853L40.5677 110.682L50.7663 76.5441L59.0324 51.4235L68.2648 43.4794L69.6604 31.5632L74.1692 14.0647Z" fill="#96D8E7"/>
<path opacity="0.53" d="M12.6562 136.876L34.9857 111.326L32.5165 59.2603L44.4327 27.2691L33.5901 60.4411L37.2401 108.535L55.168 51.4235L66.0107 41.6544L69.8754 16.1044L74.1695 14.0647L69.2312 34.6764L68.2651 43.4794L58.3886 52.2823L50.2298 76.5441L39.9239 111.326L24.7871 130.221L12.7636 148.471L12.6562 136.876Z" fill="#DCF1F6"/>
<path d="M74.1693 15.0308L69.3384 45.0897V34.247L74.1693 15.0308Z" fill="#738B8E"/>
<path d="M44.4325 27.2691L34.9854 60.8706L40.2457 111.219L37.7766 115.835L33.5898 60.4412L37.0251 49.7059L44.4325 27.2691Z" fill="#738B8E"/>
</svg>
