<svg width="16" height="16" viewBox="0 0 16 16" fill="none" xmlns="http://www.w3.org/2000/svg">
    <path d="M10.7837 8.66674H3.33366C3.14477 8.66674 2.98644 8.60285 2.85866 8.47507C2.73088 8.34729 2.66699 8.18896 2.66699 8.00007C2.66699 7.81118 2.73088 7.65285 2.85866 7.52507C2.98644 7.39729 3.14477 7.33341 3.33366 7.33341H10.7837L7.51699 4.06674C7.38366 3.93341 7.31977 3.77785 7.32533 3.60007C7.33088 3.4223 7.40033 3.26674 7.53366 3.13341C7.66699 3.01118 7.82255 2.9473 8.00033 2.94174C8.1781 2.93618 8.33366 3.00007 8.46699 3.13341L12.867 7.53341C12.9337 7.60007 12.9809 7.67229 13.0087 7.75007C13.0364 7.82785 13.0503 7.91118 13.0503 8.00007C13.0503 8.08896 13.0364 8.17229 13.0087 8.25007C12.9809 8.32785 12.9337 8.40007 12.867 8.46674L8.46699 12.8667C8.34477 12.989 8.19199 13.0501 8.00866 13.0501C7.82533 13.0501 7.66699 12.989 7.53366 12.8667C7.40033 12.7334 7.33366 12.5751 7.33366 12.3917C7.33366 12.2084 7.40033 12.0501 7.53366 11.9167L10.7837 8.66674Z" fill="#373A43"/>
</svg>
