<svg width="15" height="14" viewBox="0 0 15 14" fill="none" xmlns="http://www.w3.org/2000/svg">
<path d="M11.9333 6.41663L9.65825 8.69163C9.54158 8.8083 9.48568 8.94441 9.49054 9.09997C9.4954 9.25552 9.55617 9.39163 9.67284 9.5083C9.7895 9.61525 9.92561 9.67115 10.0812 9.67601C10.2367 9.68087 10.3728 9.62497 10.4895 9.5083L13.1728 6.82497C13.2312 6.76663 13.2725 6.70344 13.2968 6.63538C13.3211 6.56733 13.3333 6.49441 13.3333 6.41663C13.3333 6.33886 13.3211 6.26594 13.2968 6.19788C13.2725 6.12983 13.2312 6.06663 13.1728 6.0083L10.4895 3.32497C10.3826 3.21802 10.2489 3.16455 10.0885 3.16455C9.92804 3.16455 9.7895 3.21802 9.67284 3.32497C9.55617 3.44163 9.49783 3.58018 9.49783 3.74059C9.49783 3.90101 9.55617 4.03955 9.67284 4.15622L11.9333 6.41663ZM8.43325 6.99997L6.74158 8.69163C6.62492 8.8083 6.56902 8.94441 6.57388 9.09997C6.57874 9.25552 6.6395 9.39163 6.75617 9.5083C6.87283 9.61525 7.00895 9.67115 7.1645 9.67601C7.32006 9.68087 7.45617 9.62497 7.57283 9.5083L10.2562 6.82497C10.3145 6.76663 10.3558 6.70344 10.3801 6.63538C10.4044 6.56733 10.4166 6.49441 10.4166 6.41663C10.4166 6.33886 10.4044 6.26594 10.3801 6.19788C10.3558 6.12983 10.3145 6.06663 10.2562 6.0083L7.57283 3.32497C7.46589 3.21802 7.33221 3.16455 7.17179 3.16455C7.01138 3.16455 6.87283 3.21802 6.75617 3.32497C6.6395 3.44163 6.58117 3.58018 6.58117 3.74059C6.58117 3.90101 6.6395 4.03955 6.75617 4.15622L8.43325 5.8333H4.83117C4.02422 5.8333 3.33638 6.11768 2.76763 6.68643C2.19888 7.25518 1.9145 7.94302 1.9145 8.74997V10.5C1.9145 10.6652 1.9704 10.8038 2.08221 10.9156C2.19402 11.0274 2.33256 11.0833 2.49783 11.0833C2.66311 11.0833 2.80165 11.0274 2.91346 10.9156C3.02526 10.8038 3.08117 10.6652 3.08117 10.5V8.74997C3.08117 8.26386 3.25131 7.85066 3.59158 7.51038C3.93186 7.17011 4.34506 6.99997 4.83117 6.99997H8.43325Z" fill="white"/>
</svg>
