<svg width="16" height="16" viewBox="0 0 16 16" fill="none" xmlns="http://www.w3.org/2000/svg">
<path d="M7.99884 9.60254L4.89334 12.8926C4.74736 13.0483 4.56488 13.1297 4.3459 13.1367C4.12692 13.1438 3.9378 13.0624 3.77855 12.8926C3.63256 12.737 3.55957 12.5389 3.55957 12.2983C3.55957 12.0577 3.63256 11.8596 3.77855 11.704L7.44144 7.7983C7.52107 7.7134 7.60733 7.65326 7.70023 7.61788C7.79313 7.5825 7.89267 7.56481 7.99884 7.56481C8.10501 7.56481 8.20454 7.5825 8.29744 7.61788C8.39034 7.65326 8.47661 7.7134 8.55624 7.7983L12.2191 11.704C12.3651 11.8596 12.4414 12.0542 12.4481 12.2877C12.4547 12.5212 12.3784 12.7228 12.2191 12.8926C12.0731 13.0483 11.8873 13.1261 11.6617 13.1261C11.4361 13.1261 11.2503 13.0483 11.1043 12.8926L7.99884 9.60254ZM7.99884 4.50822L4.89334 7.7983C4.74736 7.95396 4.56488 8.03533 4.3459 8.04241C4.12692 8.04948 3.9378 7.96811 3.77855 7.7983C3.63256 7.64264 3.55957 7.44453 3.55957 7.20397C3.55957 6.9634 3.63256 6.76529 3.77855 6.60963L7.44144 2.70398C7.52107 2.61907 7.60733 2.55893 7.70023 2.52356C7.79313 2.48818 7.89267 2.47049 7.99884 2.47049C8.10501 2.47049 8.20454 2.48818 8.29744 2.52356C8.39034 2.55893 8.47661 2.61907 8.55624 2.70398L12.2191 6.60963C12.3651 6.76529 12.4414 6.95986 12.4481 7.19335C12.4547 7.42684 12.3784 7.62849 12.2191 7.7983C12.0731 7.95396 11.8873 8.03179 11.6617 8.03179C11.4361 8.03179 11.2503 7.95396 11.1043 7.7983L7.99884 4.50822Z" fill="#FF3B30"/>
</svg>
