<svg width="22" height="23" viewBox="0 0 22 23" fill="none" xmlns="http://www.w3.org/2000/svg">
<path d="M6.23315 12.4166L8.89149 15.0749C9.05954 15.243 9.14357 15.4569 9.14357 15.7166C9.14357 15.9763 9.05954 16.1902 8.89149 16.3583C8.72343 16.5263 8.50954 16.6104 8.24982 16.6104C7.9901 16.6104 7.77621 16.5263 7.60815 16.3583L3.39149 12.1416C3.29982 12.0499 3.23489 11.9506 3.1967 11.8437C3.1585 11.7367 3.1394 11.6222 3.1394 11.4999C3.1394 11.3777 3.1585 11.2631 3.1967 11.1562C3.23489 11.0492 3.29982 10.9499 3.39149 10.8583L7.60815 6.64161C7.77621 6.47355 7.9901 6.38953 8.24982 6.38953C8.50954 6.38953 8.72343 6.47355 8.89149 6.64161C9.05954 6.80967 9.14357 7.02355 9.14357 7.28328C9.14357 7.543 9.05954 7.75689 8.89149 7.92494L6.23315 10.5833H18.3332C18.5929 10.5833 18.8106 10.6711 18.9863 10.8468C19.162 11.0225 19.2498 11.2402 19.2498 11.4999C19.2498 11.7597 19.162 11.9774 18.9863 12.1531C18.8106 12.3288 18.5929 12.4166 18.3332 12.4166H6.23315Z" fill="#D9DCE1"/>
</svg>
