<svg width="14" height="14" viewBox="0 0 14 14" fill="none" xmlns="http://www.w3.org/2000/svg">
<g id="&#209;&#129;&#209;&#130;&#209;&#128;&#208;&#181;&#208;&#187;&#208;&#186;&#208;&#176; &#208;&#178;&#208;&#191;&#209;&#128;&#208;&#176;&#208;&#178;&#208;&#190;" clip-path="url(#clip0_1160_23629)">
<path id="Vector" d="M12.1312 9.75008H3.75C3.5375 9.75008 3.35937 9.67821 3.21562 9.53446C3.07187 9.39071 3 9.21258 3 9.00008C3 8.78758 3.07187 8.60946 3.21562 8.46571C3.35937 8.32196 3.5375 8.25008 3.75 8.25008H12.1312L8.45625 4.57508C8.30625 4.42508 8.23437 4.25008 8.24062 4.05008C8.24687 3.85008 8.325 3.67508 8.475 3.52508C8.625 3.38758 8.8 3.31571 9 3.30946C9.2 3.30321 9.375 3.37508 9.525 3.52508L14.475 8.47508C14.55 8.55008 14.6031 8.63133 14.6344 8.71883C14.6656 8.80633 14.6812 8.90008 14.6812 9.00008C14.6812 9.10008 14.6656 9.19383 14.6344 9.28133C14.6031 9.36883 14.55 9.45008 14.475 9.52508L9.525 14.4751C9.3875 14.6126 9.21562 14.6813 9.00937 14.6813C8.80312 14.6813 8.625 14.6126 8.475 14.4751C8.325 14.3251 8.25 14.147 8.25 13.9407C8.25 13.7345 8.325 13.5563 8.475 13.4063L12.1312 9.75008Z" fill="#373A43"/>
</g>
<defs>
<clipPath id="clip0_1160_23629">
<rect width="14" height="14" fill="white"/>
</clipPath>
</defs>
</svg>
