<svg width="17" height="12" viewBox="0 0 17 12" fill="none" xmlns="http://www.w3.org/2000/svg">
<path d="M3.2334 6.91661L5.89173 9.57494C6.05979 9.743 6.14382 9.95689 6.14382 10.2166C6.14382 10.4763 6.05979 10.6902 5.89173 10.8583C5.72368 11.0263 5.50979 11.1104 5.25007 11.1104C4.99034 11.1104 4.77645 11.0263 4.6084 10.8583L0.391732 6.64161C0.300065 6.54994 0.235135 6.45064 0.19694 6.34369C0.158746 6.23675 0.139648 6.12216 0.139648 5.99994C0.139648 5.87772 0.158746 5.76314 0.19694 5.65619C0.235135 5.54925 0.300065 5.44994 0.391732 5.35828L4.6084 1.14161C4.77645 0.973554 4.99034 0.889526 5.25007 0.889526C5.50979 0.889526 5.72368 0.973554 5.89173 1.14161C6.05979 1.30967 6.14382 1.52355 6.14382 1.78328C6.14382 2.043 6.05979 2.25689 5.89173 2.42494L3.2334 5.08328H15.3334C15.5931 5.08328 15.8108 5.17112 15.9865 5.34682C16.1622 5.52251 16.2501 5.74022 16.2501 5.99994C16.2501 6.25967 16.1622 6.47737 15.9865 6.65307C15.8108 6.82876 15.5931 6.91661 15.3334 6.91661H3.2334Z" fill="#D9DCE1"/>
</svg>
