<svg width="16" height="16" viewBox="0 0 16 16" fill="none" xmlns="http://www.w3.org/2000/svg">
<rect x="0.75" y="0.75" width="14.5" height="14.5" rx="7.25" fill="#E84949"/>
<rect x="0.75" y="0.75" width="14.5" height="14.5" rx="7.25" stroke="#3A374D" stroke-width="0.5"/>
<path d="M8 13C6.88333 13 5.9375 12.6125 5.1625 11.8375C4.3875 11.0625 4 10.1167 4 9C4 8.05834 4.27917 7.15417 4.8375 6.2875C5.39583 5.42084 6.1625 4.6625 7.1375 4.0125C7.32083 3.8875 7.51042 3.88125 7.70625 3.99375C7.90208 4.10625 8 4.275 8 4.5V5.15C8 5.43334 8.09792 5.67084 8.29375 5.8625C8.48958 6.05417 8.72917 6.15 9.0125 6.15C9.15417 6.15 9.28958 6.11875 9.41875 6.05625C9.54792 5.99375 9.6625 5.90417 9.7625 5.7875C9.82917 5.70417 9.91458 5.65209 10.0188 5.63125C10.1229 5.61042 10.2208 5.63334 10.3125 5.7C10.8375 6.075 11.25 6.55417 11.55 7.1375C11.85 7.72084 12 8.34167 12 9C12 10.1167 11.6125 11.0625 10.8375 11.8375C10.0625 12.6125 9.11667 13 8 13ZM5 9C5 9.43334 5.0875 9.84375 5.2625 10.2313C5.4375 10.6188 5.6875 10.9583 6.0125 11.25C6.00417 11.2083 6 11.1708 6 11.1375V11.025C6 10.7583 6.05 10.5083 6.15 10.275C6.25 10.0417 6.39583 9.82917 6.5875 9.6375L8 8.25L9.4125 9.6375C9.60417 9.82917 9.75 10.0417 9.85 10.275C9.95 10.5083 10 10.7583 10 11.025V11.1375C10 11.1708 9.99583 11.2083 9.9875 11.25C10.3125 10.9583 10.5625 10.6188 10.7375 10.2313C10.9125 9.84375 11 9.43334 11 9C11 8.58334 10.9229 8.18959 10.7688 7.81875C10.6146 7.44792 10.3917 7.11667 10.1 6.825C9.93333 6.93334 9.75833 7.01459 9.575 7.06875C9.39167 7.12292 9.20417 7.15 9.0125 7.15C8.49583 7.15 8.04792 6.97917 7.66875 6.6375C7.28958 6.29584 7.07083 5.875 7.0125 5.375C6.3625 5.925 5.86458 6.51042 5.51875 7.13125C5.17292 7.75209 5 8.375 5 9ZM8 9.65L7.2875 10.35C7.19583 10.4417 7.125 10.5458 7.075 10.6625C7.025 10.7792 7 10.9 7 11.025C7 11.2917 7.09792 11.5208 7.29375 11.7125C7.48958 11.9042 7.725 12 8 12C8.275 12 8.51042 11.9042 8.70625 11.7125C8.90208 11.5208 9 11.2917 9 11.025C9 10.8917 8.975 10.7688 8.925 10.6563C8.875 10.5438 8.80417 10.4417 8.7125 10.35L8 9.65Z" fill="#FDFAE8"/>
</svg>
