<svg width="68" height="68" viewBox="0 0 68 68" fill="none" xmlns="http://www.w3.org/2000/svg">
<g clip-path="url(#clip0_2102_229175)">
<path d="M23.5407 71.1762L9.52052 83.1063C8.15928 84.2264 6.17109 84.0715 5.04925 82.7111C3.92741 81.3506 4.08447 79.3022 5.4457 78.1821L19.5281 66.2549C20.8893 65.1348 22.8775 65.2897 23.9993 66.6501C25.059 68.0077 24.9019 70.056 23.5407 71.1762Z" fill="#CD9A7E"/>
<path d="M46.1752 70.3704L60.491 81.9874C61.8745 83.1095 63.8194 82.8888 64.9442 81.5098C66.0067 80.128 65.7873 78.1266 64.4661 77.0074L50.1502 65.3904C48.7667 64.2682 46.8218 64.489 45.697 65.8679C44.5722 67.2469 44.7917 69.2483 46.1752 70.3704Z" fill="#CD9A7E"/>
<path d="M58.0162 67.6116C58.0162 67.6116 48.729 59.5732 45.2872 58.5398C43.8772 58.0376 41.8846 58.007 41.8846 58.007L46.4918 72.9333L50.5141 76.2378C50.5141 76.2378 53.0012 76.3539 55.9009 72.9361C58.9306 69.3997 58.0162 67.6116 58.0162 67.6116Z" fill="#3876BA"/>
<path d="M13.3247 73.2383C16.2181 76.6783 18.7158 76.5456 18.7158 76.5456L22.1899 74.1513L28.2171 58.2826C28.2171 58.2826 24.8492 58.3747 24.0861 58.7132C20.6101 59.7979 11.2691 67.842 11.2691 67.842C11.2691 67.842 10.2534 69.6029 13.3247 73.2383Z" fill="#3876BA"/>
<path d="M31.3242 46.1183C31.4485 46.1241 31.5785 46.0057 31.5842 45.8814C31.5899 45.7572 31.4714 45.6272 31.3472 45.6215C31.2229 45.6157 31.0929 45.7341 31.0872 45.8583C31.0785 46.0446 31.1378 46.1096 31.3242 46.1183Z" fill="#4D392F"/>
<path d="M39.1031 46.053C39.2274 46.0588 39.3574 45.9404 39.3632 45.8162C39.3689 45.692 39.2503 45.5621 39.1261 45.5563C39.0018 45.5505 38.8718 45.6689 38.866 45.7931C38.7953 45.9764 38.9167 46.0443 39.1031 46.053Z" fill="#4D392F"/>
<path d="M40.8425 59.4193L29.5444 59.4544L30.1987 50.7113L40.1833 50.7397L40.8425 59.4193Z" fill="#CD9A7E"/>
<path d="M40.5305 55.0373C40.5305 55.0373 38.6775 57.3156 35.0568 57.3341C30.499 57.3712 29.674 54.9684 29.674 54.9684L30.1511 48.706L40.1356 48.7344L40.5305 55.0373Z" fill="#A67F6A"/>
<path d="M35.5907 55.0414L33.9732 55.0281C25.5721 55.0094 18.6783 47.948 18.7018 39.3383L18.7292 29.2937C18.7527 20.684 25.6713 13.7073 34.0723 13.726L35.6899 13.7393C44.0909 13.758 50.9848 20.8194 50.9613 29.4291L50.9339 39.4737C50.9104 48.0833 43.9917 55.0601 35.5907 55.0414Z" fill="#CD9A7E"/>
<path fill-rule="evenodd" clip-rule="evenodd" d="M27.2408 33.0335C28.1741 33.0429 29.0725 33.436 29.6323 34.0927C29.8292 34.2917 29.9803 34.5443 30.0665 34.8292C30.0794 34.8637 30.0914 34.8988 30.1026 34.9343C30.1269 35.0113 30.1362 35.0846 30.1336 35.1493C30.1433 35.2311 30.148 35.3149 30.1472 35.4001C30.1375 36.3681 29.4144 37.1456 28.532 37.1367C27.6497 37.1278 26.9422 36.3358 26.9519 35.3678C26.9559 34.9661 27.0828 34.5972 27.2929 34.3037C27.2715 34.303 27.2498 34.3026 27.2282 34.3024C26.2322 34.2924 25.3277 34.644 24.6732 35.2196C24.4339 35.4301 24.1893 35.2109 24.3364 34.8877C24.8391 33.783 25.9539 33.0205 27.2408 33.0335Z" fill="black" fill-opacity="0.75"/>
<path fill-rule="evenodd" clip-rule="evenodd" d="M43.2301 33.0335C44.1633 33.0429 45.0618 33.436 45.6216 34.0927C45.8184 34.2917 45.9696 34.5443 46.0557 34.8292C46.0687 34.8637 46.0807 34.8988 46.0919 34.9343C46.1162 35.0113 46.1255 35.0846 46.1229 35.1493C46.1326 35.2311 46.1373 35.3149 46.1364 35.4001C46.1268 36.3681 45.4037 37.1456 44.5213 37.1367C43.639 37.1278 42.9315 36.3358 42.9412 35.3678C42.9452 34.9661 43.072 34.5972 43.2822 34.3037C43.2607 34.303 43.2391 34.3026 43.2174 34.3024C42.2215 34.2924 41.317 34.644 40.6625 35.2196C40.4232 35.4301 40.1786 35.2109 40.3256 34.8877C40.8284 33.783 41.9432 33.0205 43.2301 33.0335Z" fill="black" fill-opacity="0.75"/>
<path d="M18.6137 40.0942L18.1817 40.0739C17.3147 40.0956 16.6082 39.3117 16.5863 38.4348L16.6096 32.493C16.5877 31.6161 17.3036 30.8366 18.1677 30.8773L18.5997 30.8976C19.4667 30.8759 20.1732 31.6598 20.1952 32.5367L20.1719 38.4785C20.1938 39.3554 19.4779 40.1349 18.6137 40.0942Z" fill="#CD9A7E"/>
<path d="M51.727 39.9546L51.295 39.9342C50.428 39.956 49.7215 39.172 49.6996 38.2952L49.7228 32.3533C49.7009 31.4765 50.4169 30.6969 51.281 30.7376L51.713 30.758C52.58 30.7362 53.2865 31.5202 53.3084 32.397L53.2852 38.3389C53.3071 39.2157 52.594 39.9328 51.727 39.9546Z" fill="#CD9A7E"/>
<path d="M35.3108 40.6478C36.2507 40.6288 37.0741 40.4194 37.5767 40.3805C37.8294 40.3303 38.0054 40.5852 37.9344 40.7672C37.6447 41.6183 36.5514 42.2476 35.2367 42.2495C33.9846 42.2542 32.8858 41.6486 32.548 40.8307C32.4345 40.5786 32.6333 40.3407 32.8803 40.4137C33.3772 40.498 34.4334 40.6696 35.3108 40.6478Z" fill="#A67F6A"/>
<path d="M23.2328 31.9035C23.2328 31.9035 26.608 29.3543 30.1612 31.1087" stroke="#49372E" stroke-width="0.701754" stroke-miterlimit="10" stroke-linecap="round"/>
<path d="M46.5543 31.8668C46.5543 31.8668 43.2229 29.3361 39.6336 31.0725" stroke="#49372E" stroke-width="0.701754" stroke-miterlimit="10" stroke-linecap="round"/>
<path d="M38.8641 45.9028C38.8582 47.3841 37.1117 48.6011 34.985 48.566C32.8583 48.5309 31.1576 47.4041 31.1011 45.9199" stroke="#49372E" stroke-width="1.05263" stroke-miterlimit="10" stroke-linecap="round"/>
<path d="M41.9374 58.6695L43.0745 58.4117C43.0945 63.3766 39.6052 67.1867 34.6663 67.2071C29.7274 67.2274 27.4583 63.586 27.3759 58.6182L41.9374 58.6695Z" fill="#CD9A7E"/>
<mask id="mask0_2102_229175" style="mask-type:luminance" maskUnits="userSpaceOnUse" x="15" y="8" width="42" height="30">
<path d="M56.4056 9.29849L16.4746 8.0625L15.5084 35.9684L55.4394 37.2044L56.4056 9.29849Z" fill="white"/>
</mask>
<g mask="url(#mask0_2102_229175)">
<path fill-rule="evenodd" clip-rule="evenodd" d="M45.3015 20.5082C45.3015 20.5082 43.2536 23.978 37.6365 25.1432C37.0118 25.2793 36.6396 24.5294 37.104 24.0805C37.9015 23.2937 38.835 22.3358 39.3409 21.3474C39.3409 21.3474 35.0272 23.9319 31.1157 25.2794C26.8516 26.4208 24.3888 28.8966 23.2962 30.3253C22.9586 30.723 22.2959 30.5551 22.2106 30.0668C22.0538 28.9104 21.995 27.2788 22.9792 25.6615C22.9792 25.6615 19.2717 28.3496 18.8477 33.8645C18.8108 34.344 18.1862 34.4801 17.9741 34.0431C16.5704 31.5317 14.3022 25.8845 17.9912 20.2416L17.9255 20.2972C17.4611 20.7462 16.7604 20.2741 16.9286 19.6834C17.6581 17.3849 19.6023 13.6666 24.4796 10.9416C31.9856 6.77735 38.4833 10.1354 38.4833 10.1354C38.2102 9.69396 38.6228 9.12074 39.1068 9.21565C41.4049 9.68146 46.19 11.3499 47.5892 17.1157C47.5892 17.1157 48.1055 16.791 48.7681 16.959C49.1911 17.0495 49.2718 17.5977 48.9433 17.8756C48.9433 17.8756 54.2113 18.8553 53.9498 26.2502C53.8196 30.3395 50.9685 33.8725 49.6881 35.348C49.4161 35.6901 48.9413 35.4753 48.8468 35.1069C48.7753 34.4388 48.5909 33.6421 48.2094 33.012C47.4418 31.8119 45.4238 30.1004 46.1199 27.4379L45.7742 28.7392C45.6105 29.2699 44.8683 29.3374 44.6609 28.8403C43.9866 27.225 43.1176 24.1491 45.3015 20.5082Z" fill="#5E4947"/>
</g>
<path fill-rule="evenodd" clip-rule="evenodd" d="M28.6854 58.0227L28.3756 58.0082C25.6433 58.0049 23.3095 60.1444 23.1158 63.0091L20.997 98.3323C20.9884 98.5193 20.9827 98.644 20.9741 98.831C20.9559 100.579 20.7137 100.443 21.8911 100.498L46.5302 95.4073C47.4768 95.0769 47.5159 95.5786 47.4721 93.8272C47.4807 93.6402 47.4864 93.5155 47.4331 93.3256L46.1455 63.2153C46.0293 60.3361 44.6985 58.212 41.9043 58.2058L41.7184 58.1971C40.5505 60.6412 38.0508 62.3356 35.1946 62.3265C32.3384 62.3174 29.8751 60.5151 28.6854 58.0227Z" fill="#3876BA"/>
</g>
<defs>
<clipPath id="clip0_2102_229175">
<rect width="67.3684" height="67.3684" fill="white" transform="translate(0.105469 0.229492)"/>
</clipPath>
</defs>
</svg>
