<svg width="248" height="248" viewBox="0 0 248 248" fill="none" xmlns="http://www.w3.org/2000/svg">
<path d="M129.142 224.291C114.314 225.113 99.4877 222.651 85.7211 217.082L123.557 123.56L129.142 224.291Z" fill="url(#paint0_radial_768_39713)"/>
<path d="M117.973 22.8274C132.8 22.0052 147.627 24.4667 161.393 30.0361L123.558 123.558L117.973 22.8274Z" fill="url(#paint1_radial_768_39713)"/>
<path d="M224.288 117.975C225.111 132.803 222.649 147.629 217.08 161.396L123.558 123.56L224.288 117.975Z" fill="url(#paint2_radial_768_39713)"/>
<path d="M22.8266 129.143C22.0044 114.315 24.4659 99.4889 30.0354 85.7223L123.558 123.558L22.8266 129.143Z" fill="url(#paint3_radial_768_39713)"/>
<path d="M48.3801 56.2799C58.2836 45.2138 70.5079 36.4705 84.1805 30.6742L123.558 123.558L48.3801 56.2799Z" fill="url(#paint4_radial_768_39713)"/>
<path d="M190.835 48.3809C201.901 58.2843 210.644 70.5087 216.44 84.1813L123.557 123.558L190.835 48.3809Z" fill="url(#paint5_radial_768_39713)"/>
<path d="M198.734 190.837C188.83 201.903 176.606 210.646 162.933 216.443L123.557 123.56L198.734 190.837Z" fill="url(#paint6_radial_768_39713)"/>
<path d="M56.2786 198.736C45.2125 188.833 36.4692 176.608 30.6729 162.936L123.557 123.56L56.2786 198.736Z" fill="url(#paint7_radial_768_39713)"/>
<defs>
<radialGradient id="paint0_radial_768_39713" cx="0" cy="0" r="1" gradientUnits="userSpaceOnUse" gradientTransform="translate(123.999 123.117) rotate(151.742) scale(90.824 90.824)">
<stop stop-color="#9A2CFB"/>
<stop offset="0.23" stop-color="#B92CFB" stop-opacity="0.46"/>
<stop offset="1" stop-color="#AF2CFB" stop-opacity="0"/>
</radialGradient>
<radialGradient id="paint1_radial_768_39713" cx="0" cy="0" r="1" gradientUnits="userSpaceOnUse" gradientTransform="translate(123.999 123.117) rotate(151.742) scale(90.824 90.824)">
<stop stop-color="#9A2CFB"/>
<stop offset="0.23" stop-color="#B92CFB" stop-opacity="0.46"/>
<stop offset="1" stop-color="#AF2CFB" stop-opacity="0"/>
</radialGradient>
<radialGradient id="paint2_radial_768_39713" cx="0" cy="0" r="1" gradientUnits="userSpaceOnUse" gradientTransform="translate(123.999 123.117) rotate(151.742) scale(90.824 90.824)">
<stop stop-color="#9A2CFB"/>
<stop offset="0.23" stop-color="#B92CFB" stop-opacity="0.46"/>
<stop offset="1" stop-color="#AF2CFB" stop-opacity="0"/>
</radialGradient>
<radialGradient id="paint3_radial_768_39713" cx="0" cy="0" r="1" gradientUnits="userSpaceOnUse" gradientTransform="translate(123.999 123.117) rotate(151.742) scale(90.824 90.824)">
<stop stop-color="#9A2CFB"/>
<stop offset="0.23" stop-color="#B92CFB" stop-opacity="0.46"/>
<stop offset="1" stop-color="#AF2CFB" stop-opacity="0"/>
</radialGradient>
<radialGradient id="paint4_radial_768_39713" cx="0" cy="0" r="1" gradientUnits="userSpaceOnUse" gradientTransform="translate(123.999 123.117) rotate(151.742) scale(90.824 90.824)">
<stop stop-color="#9A2CFB"/>
<stop offset="0.23" stop-color="#B92CFB" stop-opacity="0.46"/>
<stop offset="1" stop-color="#AF2CFB" stop-opacity="0"/>
</radialGradient>
<radialGradient id="paint5_radial_768_39713" cx="0" cy="0" r="1" gradientUnits="userSpaceOnUse" gradientTransform="translate(123.999 123.117) rotate(151.742) scale(90.824 90.824)">
<stop stop-color="#9A2CFB"/>
<stop offset="0.23" stop-color="#B92CFB" stop-opacity="0.46"/>
<stop offset="1" stop-color="#AF2CFB" stop-opacity="0"/>
</radialGradient>
<radialGradient id="paint6_radial_768_39713" cx="0" cy="0" r="1" gradientUnits="userSpaceOnUse" gradientTransform="translate(123.999 123.117) rotate(151.742) scale(90.824 90.824)">
<stop stop-color="#9A2CFB"/>
<stop offset="0.23" stop-color="#B92CFB" stop-opacity="0.46"/>
<stop offset="1" stop-color="#AF2CFB" stop-opacity="0"/>
</radialGradient>
<radialGradient id="paint7_radial_768_39713" cx="0" cy="0" r="1" gradientUnits="userSpaceOnUse" gradientTransform="translate(123.999 123.117) rotate(151.742) scale(90.824 90.824)">
<stop stop-color="#9A2CFB"/>
<stop offset="0.23" stop-color="#B92CFB" stop-opacity="0.46"/>
<stop offset="1" stop-color="#AF2CFB" stop-opacity="0"/>
</radialGradient>
</defs>
</svg>
