<svg width="226" height="56" viewBox="0 0 226 56" fill="none" xmlns="http://www.w3.org/2000/svg">
<path d="M3 9C3 5.68629 5.68629 3 9 3H217C220.314 3 223 5.68629 223 9V47C223 50.3137 220.314 53 217 53H8.99999C5.68629 53 3 50.3137 3 47V9Z" fill="#006DF0"/>
<path fill-rule="evenodd" clip-rule="evenodd" d="M122.602 28.3298C122.602 17.102 113.5 7.99998 102.272 7.99998C102.154 7.99998 102.035 8.001 101.917 8.00302C101.916 8.00304 101.916 8.00249 101.916 8.0018C101.916 8.00112 101.915 8.00057 101.914 8.00057L89.7241 8.00057C85.4264 8.00057 81.9424 11.4846 81.9424 15.7823L81.9424 28.319C81.9424 28.3226 81.9424 28.3262 81.9424 28.3298C81.9424 28.3334 81.9424 28.3371 81.9424 28.3407L81.9424 28.4491C81.9424 28.4492 81.9425 28.4493 81.9426 28.4493C81.9426 28.4493 81.9427 28.4494 81.9427 28.4495C82.0071 39.6223 91.0843 48.6597 102.272 48.6597C113.5 48.6597 122.602 39.5577 122.602 28.3298Z" fill="white"/>
<path d="M81.9424 28.319L84.5947 28.3204L84.5947 28.319L81.9424 28.319ZM81.9424 28.3407L84.5947 28.3407L84.5947 28.3393L81.9424 28.3407ZM81.9427 28.4495L84.595 28.4342L81.9427 28.4495ZM101.917 8.00302L101.962 10.655L101.917 8.00302ZM102.272 10.6523C112.035 10.6523 119.95 18.5668 119.95 28.3298L125.254 28.3298C125.254 15.6371 114.965 5.34766 102.272 5.34766L102.272 10.6523ZM101.962 10.655C102.065 10.6532 102.169 10.6523 102.272 10.6523L102.272 5.34766C102.138 5.34766 102.005 5.34881 101.871 5.35109L101.962 10.655ZM89.7241 10.6529L101.914 10.6529L101.914 5.34825L89.7241 5.34825L89.7241 10.6529ZM84.5947 28.319L84.5947 15.7823L79.2901 15.7823L79.2901 28.319L84.5947 28.319ZM84.5947 28.3298C84.5947 28.3267 84.5947 28.3235 84.5947 28.3204L79.2901 28.3176C79.2901 28.3217 79.2901 28.3257 79.2901 28.3298L84.5947 28.3298ZM84.5947 28.3393C84.5947 28.3361 84.5947 28.333 84.5947 28.3298L79.2901 28.3298C79.2901 28.3339 79.2901 28.338 79.2901 28.3421L84.5947 28.3393ZM84.5947 28.4491L84.5947 28.3407L79.2901 28.3407L79.2901 28.4491L84.5947 28.4491ZM102.272 46.0073C92.544 46.0073 84.651 38.149 84.595 28.4342L79.2904 28.4648C79.3632 41.0956 89.6246 51.312 102.272 51.312L102.272 46.0073ZM119.95 28.3298C119.95 38.0928 112.035 46.0073 102.272 46.0073L102.272 51.312C114.965 51.312 125.254 41.0225 125.254 28.3298L119.95 28.3298ZM81.9426 31.1016C80.4862 31.1016 79.2989 29.9259 79.2904 28.4648L84.595 28.4342C84.5866 26.9728 83.3991 25.797 81.9426 25.797L81.9426 31.1016ZM89.7241 5.34825C83.9616 5.34825 79.2901 10.0197 79.2901 15.7823L84.5947 15.7823C84.5947 12.9494 86.8912 10.6529 89.7241 10.6529L89.7241 5.34825ZM79.2901 28.4491C79.2901 29.9141 80.4776 31.1016 81.9426 31.1016L81.9426 25.797C83.4073 25.797 84.5947 26.9844 84.5947 28.4491L79.2901 28.4491ZM104.568 8.0018C104.568 6.53914 103.383 5.34825 101.914 5.34825L101.914 10.6529C100.447 10.6529 99.2632 9.4631 99.2632 8.0018L104.568 8.0018ZM101.871 5.35109C103.353 5.32569 104.568 6.51995 104.568 8.0018L99.2632 8.0018C99.2632 9.48502 100.479 10.6804 101.962 10.655L101.871 5.35109Z" fill="#006DF0"/>
<path fill-rule="evenodd" clip-rule="evenodd" d="M121.661 45.0812C120.068 45.8154 119.079 43.7167 120.186 42.3559C123.281 38.5502 125.136 33.6957 125.136 28.408C125.136 23.12 123.281 18.2653 120.186 14.4595C119.079 13.0987 120.067 11 121.66 11.7341C127.963 14.6388 132.338 21.0124 132.338 28.4078C132.338 35.803 127.964 42.1764 121.661 45.0812Z" fill="white"/>
<path fill-rule="evenodd" clip-rule="evenodd" d="M133.322 45.0812C131.729 45.8153 130.74 43.7167 131.847 42.3559C134.942 38.5501 136.798 33.6956 136.798 28.4077C136.798 23.1196 134.942 18.2648 131.847 14.459C130.74 13.0983 131.729 10.9996 133.322 11.7336C139.625 14.6382 144 21.0119 144 28.4075C144 35.8029 139.625 42.1765 133.322 45.0812Z" fill="white"/>
<path d="M9 1.5C4.85786 1.5 1.5 4.85786 1.5 9V47C1.5 51.1421 4.85786 54.5 8.99999 54.5H217C221.142 54.5 224.5 51.1421 224.5 47V9C224.5 4.85787 221.142 1.5 217 1.5H9Z" stroke="#016BEA" stroke-width="3"/>
<path d="M9 1.5C4.85786 1.5 1.5 4.85786 1.5 9V47C1.5 51.1421 4.85786 54.5 8.99999 54.5H217C221.142 54.5 224.5 51.1421 224.5 47V9C224.5 4.85787 221.142 1.5 217 1.5H9Z" stroke="black" stroke-opacity="0.2" stroke-width="3"/>
<path d="M8.00539 42.1538L8.00537 47.1642C8.00537 47.7165 8.45308 48.1642 9.00537 48.1642L14.3234 48.1642" stroke="white" stroke-opacity="0.2" stroke-width="2" stroke-linecap="round" stroke-linejoin="round"/>
<path d="M18.8237 48.1641L17.5005 48.1641" stroke="white" stroke-opacity="0.2" stroke-width="2" stroke-linecap="round" stroke-linejoin="round"/>
</svg>
