<svg xmlns="http://www.w3.org/2000/svg" width="15" height="14" viewBox="0 0 15 14" fill="none">
  <path d="M4.25065 8.93991C4.38676 8.87185 4.52773 8.82324 4.67357 8.79408C4.8194 8.76491 4.9701 8.75033 5.12565 8.75033H5.41732V2.33366H5.12565C4.8826 2.33366 4.676 2.41873 4.50586 2.58887C4.33572 2.75901 4.25065 2.9656 4.25065 3.20866V8.93991ZM6.58398 8.75033H11.2507V2.33366H6.58398V8.75033ZM5.12565 12.8337C4.56176 12.8337 4.08051 12.6344 3.6819 12.2357C3.28329 11.8371 3.08398 11.3559 3.08398 10.792V3.20866C3.08398 2.64477 3.28329 2.16352 3.6819 1.76491C4.08051 1.3663 4.56176 1.16699 5.12565 1.16699H11.2507C11.5715 1.16699 11.8461 1.28123 12.0746 1.5097C12.3031 1.73817 12.4173 2.01283 12.4173 2.33366V9.63991C12.4173 9.71769 12.3857 9.78817 12.3225 9.85137C12.2593 9.91456 12.1451 9.98505 11.9798 10.0628C11.8437 10.1309 11.7368 10.2281 11.659 10.3545C11.5812 10.4809 11.5423 10.6267 11.5423 10.792C11.5423 10.9573 11.5812 11.1055 11.659 11.2368C11.7368 11.368 11.8437 11.4628 11.9798 11.5212C12.1159 11.5795 12.2229 11.6597 12.3007 11.7618C12.3784 11.8639 12.4173 11.9732 12.4173 12.0899V12.2357C12.4173 12.401 12.3614 12.542 12.2496 12.6587C12.1378 12.7753 11.9993 12.8337 11.834 12.8337H5.12565ZM5.12565 11.667H10.5652C10.5069 11.5309 10.4607 11.3923 10.4267 11.2514C10.3927 11.1104 10.3757 10.9573 10.3757 10.792C10.3757 10.6364 10.3902 10.4857 10.4194 10.3399C10.4486 10.1941 10.4972 10.0531 10.5652 9.91699H5.12565C4.87287 9.91699 4.66385 10.0021 4.49857 10.1722C4.33329 10.3423 4.25065 10.5489 4.25065 10.792C4.25065 11.0448 4.33329 11.2538 4.49857 11.4191C4.66385 11.5844 4.87287 11.667 5.12565 11.667Z" fill="white"/>
</svg>