<svg width="55" height="54" viewBox="0 0 55 54" fill="none" xmlns="http://www.w3.org/2000/svg">
<path d="M33.6777 49.7691C33.0478 49.7691 32.5371 49.3098 32.5371 48.7432C32.5371 48.1766 33.0478 47.7173 33.6777 47.7173C34.3077 47.7173 34.8184 48.1766 34.8184 48.7432C34.8184 49.3098 34.3077 49.7691 33.6777 49.7691Z" fill="#0A6437"/>
<path d="M33.9932 43.607C33.3632 43.607 32.8526 43.1477 32.8526 42.5811C32.8526 42.0145 33.3632 41.5552 33.9932 41.5552C34.6231 41.5552 35.1338 42.0145 35.1338 42.5811C35.1338 43.1477 34.6231 43.607 33.9932 43.607Z" fill="#0A6437"/>
<path d="M23.3193 49.5113C22.6894 49.5113 22.1787 49.052 22.1787 48.4854C22.1787 47.9188 22.6894 47.4595 23.3193 47.4595C23.9493 47.4595 24.46 47.9188 24.46 48.4854C24.46 49.052 23.9493 49.5113 23.3193 49.5113Z" fill="#0A6437"/>
<path d="M23.0772 43.5914C22.4472 43.5914 21.9365 43.1321 21.9365 42.5655C21.9365 41.9989 22.4472 41.5396 23.0772 41.5396C23.7071 41.5396 24.2178 41.9989 24.2178 42.5655C24.2178 43.1321 23.7071 43.5914 23.0772 43.5914Z" fill="#0A6437"/>
<path d="M28.3974 44.5922L29.9268 43.8244L29.9172 38.3252C29.6273 38.4176 29.3533 38.4686 29.0697 38.4686C28.8371 38.4686 28.6651 38.4845 28.356 38.4335C28.3688 40.5236 28.3879 42.5053 28.3974 44.5922Z" fill="#484848"/>
<path d="M26.9924 43.7671L28.3975 44.5668L28.372 38.4336L26.9924 38.2456V43.7671Z" fill="#323232"/>
<path d="M31.1568 44.5124L34.6998 42.4415C34.7953 42.3841 34.8559 42.2822 34.8559 42.1707L34.875 40.8994L29.9206 43.8242L31.1568 44.5124Z" fill="#094C15"/>
<path d="M23.3984 48.7243L28.4229 45.8568L28.3974 44.5664L23.3124 47.3096L23.3984 48.7243Z" fill="#094C15"/>
<path d="M23.5098 48.5681L23.497 47.4402L22.2608 46.478L22.2672 47.5868C22.2672 47.7333 22.3309 47.8703 22.436 47.9596L23.2899 48.686C23.3791 48.7656 23.5098 48.6924 23.5098 48.5681Z" fill="#114028"/>
<path d="M29.9203 43.8274L34.7727 41.1319C34.9066 41.0555 34.9161 40.8675 34.7887 40.7783L33.8838 40.1602C33.7468 40.0678 33.5716 40.0582 33.425 40.1411L29.9235 42.1037L29.9203 43.8274Z" fill="#103615"/>
<path d="M23.6151 47.2365L28.3975 44.5665L26.9924 43.77L22.3343 46.3954C22.226 46.4559 22.2165 46.6088 22.3184 46.6821L23.048 47.2078C23.2137 47.3225 23.4367 47.3352 23.6151 47.2365Z" fill="#103615"/>
<path d="M33.3964 48.9092L33.543 47.3003L28.3974 44.5762L28.2923 45.806L33.3964 48.9092Z" fill="#114028"/>
<path d="M25.8111 44.4362L27.0059 43.764L22.0802 40.8296L22.0674 42.0307C22.0674 42.12 22.112 42.206 22.1917 42.2506L25.8111 44.4362Z" fill="#114028"/>
<path d="M27.0059 43.7635L27.0027 42.1291L23.5745 40.1887C23.4821 40.1378 23.3705 40.1346 23.275 40.1792L22.1503 40.7367C22.0547 40.7845 22.0515 40.9183 22.1439 40.9693L27.0059 43.7635Z" fill="#103615"/>
<path d="M33.4253 47.335L34.7825 46.6054C34.8017 46.5959 34.8017 46.5704 34.7825 46.5608L29.9206 43.8271L28.3976 44.5759L33.0875 47.3287C33.1927 47.3892 33.3201 47.3892 33.4253 47.335Z" fill="#103615"/>
<path d="M33.4957 48.8679L34.6905 48.1542C34.751 48.1192 34.7893 48.0491 34.7893 47.9726L34.7988 46.5835L33.3077 47.3768L33.295 48.7341C33.2918 48.852 33.4033 48.9221 33.4957 48.8679Z" fill="#094C15"/>
<path d="M40.1191 30.4936L40.0873 24.8542C40.0873 24.8542 39.5934 22.9744 38.4528 21.9899C37.497 21.1647 33.7565 19.2818 32.5904 18.7338C32.3451 18.6191 32.0743 18.6031 31.8003 18.6063C31.0229 18.6127 29.6497 19.4156 29.4489 20.1261C29.1718 21.1106 30.768 20.7697 30.768 20.7697L31.676 21.2476C31.676 21.2476 31.7015 21.2858 31.762 20.6709C31.8226 20.056 32.2559 20.2089 32.2559 20.2089L37.7391 23.3504C37.7391 23.3504 38.6631 24.491 38.695 25.0454C38.7268 25.5998 38.9562 31.2646 38.9562 31.2646L40.1191 30.4936Z" fill="#278510"/>
<path d="M38.9658 31.2579L38.934 25.6186C38.934 25.6186 38.4401 23.7388 37.2995 22.7543C36.1589 21.7698 31.5391 19.5204 31.5391 19.5204C31.5391 19.5204 29.6593 19.2114 29.3821 20.199C29.1049 21.1835 29.2578 25.8384 29.2578 25.8384L30.7043 26.6094C30.7043 26.6094 30.5896 22.031 30.6406 21.4512C30.6947 20.8331 31.0962 20.9828 31.0962 20.9828L36.589 24.1115C36.589 24.1115 37.513 25.2522 37.5448 25.8065C37.5767 26.3609 37.5767 30.643 37.5767 30.643L38.9658 31.2579Z" fill="#0E4123"/>
<path d="M31.5332 21.2093V26.1286L30.5742 26.5874L30.6156 21.477C30.6156 21.4451 30.6475 21.2316 30.657 21.1998L30.7335 21.0787C30.7399 21.0564 30.7654 21.05 30.7749 21.0309C30.8131 20.9736 30.947 20.9226 31.0202 20.9385C31.0967 20.9608 31.5332 21.2093 31.5332 21.2093Z" fill="#262626"/>
<path d="M40.584 29.4514L40.5171 32.2138L31.7936 36.4481C31.7936 36.4481 27.1387 37.1331 27.0718 37.1331C27.0049 37.1331 17.6792 32.2106 17.6792 32.2106V29.3813L40.584 29.4514Z" fill="#0D6C40"/>
<path d="M31.6022 37.7798L39.9561 32.9943C40.7112 32.561 40.7144 31.4746 39.9625 31.0381L31.8762 26.3386C30.076 25.2936 27.8553 25.2808 26.0457 26.3099L18.4596 30.6175C17.3827 31.2292 17.3763 32.7777 18.4468 33.399L25.9756 37.7639C27.712 38.7739 29.8594 38.7803 31.6022 37.7798Z" fill="#0D6C40"/>
<path d="M40.6201 28.4041L40.5532 31.1664L31.8297 35.4007C31.8297 35.4007 27.1748 36.0857 27.1079 36.0857C27.041 36.0857 17.7154 31.1632 17.7154 31.1632V28.334L40.6201 28.4041Z" fill="#6D997C"/>
<path d="M31.6383 36.732L39.9922 31.9465C40.7473 31.5132 40.7505 30.4267 39.9986 29.9902L31.9123 25.2908C30.1122 24.2457 27.8915 24.233 26.0818 25.2621L18.4957 29.5697C17.4188 30.1814 17.4124 31.7298 18.483 32.3511L26.0117 36.7161C27.7481 37.726 29.8923 37.7324 31.6383 36.732Z" fill="#6D997C"/>
<path d="M31.7242 33.9732L40.0782 29.1877C40.8333 28.7544 40.8364 27.6679 40.0845 27.2314L31.9983 22.532C30.1981 21.4869 27.9774 21.4742 26.1677 22.5033L18.5817 26.8109C17.5048 27.4226 17.4984 28.971 18.5689 29.5923L26.0976 33.9573C27.834 34.9673 29.9783 34.9736 31.7242 33.9732Z" fill="#83AE8C"/>
<path d="M27.3154 38.2299L27.2836 32.5906C27.2836 32.5906 26.7897 30.7108 25.6491 29.7263C24.6933 28.9011 20.9528 27.0181 19.7867 26.4701C19.5414 26.3554 19.2706 26.3395 18.9966 26.3426C18.2192 26.349 16.846 27.1519 16.6452 27.8624C16.368 28.8469 17.9643 28.506 17.9643 28.506L18.8723 28.9839C18.8723 28.9839 18.8978 29.0221 18.9583 28.4072C19.0189 27.7923 19.4522 27.9452 19.4522 27.9452L24.9354 31.0867C24.9354 31.0867 25.8594 32.2273 25.8912 32.7817C25.9231 33.3361 26.1525 39.001 26.1525 39.001L27.3154 38.2299Z" fill="#278510"/>
<path d="M26.1592 38.9947L26.1273 33.3554C26.1273 33.3554 25.6335 31.4756 24.4929 30.4911C23.3522 29.5066 18.7324 27.2572 18.7324 27.2572C18.7324 27.2572 16.8526 26.9482 16.5754 27.9359C16.2982 28.9204 16.4512 33.5752 16.4512 33.5752L17.732 34.3335C17.732 34.3335 17.7447 29.7838 17.8084 29.1689C17.869 28.554 18.3023 28.7069 18.3023 28.7069L23.7855 31.8484C23.7855 31.8484 24.7095 32.989 24.7414 33.5434C24.7732 34.0977 24.7732 38.3798 24.7732 38.3798L26.1592 38.9947Z" fill="#0E4123"/>
<path d="M18.7314 28.9452L18.7251 33.8645L17.7151 34.3393L17.7788 29.2925C17.7788 29.2097 17.7979 29.1396 17.8234 29.0567L17.8489 28.9771C17.8712 28.7732 18.0401 28.6999 18.1994 28.6521C18.2057 28.6489 18.2153 28.6489 18.2217 28.6457C18.2949 28.6362 18.7314 28.9452 18.7314 28.9452Z" fill="#262626"/>
<path d="M24.2812 20.6582V23.583L22.1721 24.7778L22.1115 21.9167L24.2812 20.6582Z" fill="#0E4123"/>
<path d="M21.3212 22.3694L22.1113 21.917L22.1719 24.7781L21.3276 25.2656L21.3212 22.3694Z" fill="#262626"/>
<path d="M16.1919 22.5215L24.1061 18.0769C25.1098 17.513 25.7342 16.452 25.7374 15.3018L25.7725 5.63523C25.7756 4.56471 24.6223 3.88926 23.6919 4.41178L16.3576 8.53776C15.1309 9.22595 14.3727 10.5227 14.3695 11.9309L14.3535 21.4414C14.3472 22.3877 15.3667 22.9866 16.1919 22.5215Z" fill="#0C430C"/>
<path d="M27.0801 4.99238L24.6427 4.24365L23.3301 5.19311L24.6204 5.73156C24.8466 5.61686 25.9841 4.90955 26.2613 4.89362C26.6022 4.87769 26.8794 4.92229 27.0801 4.99238Z" fill="#0C430C"/>
<path d="M17.6113 23.3155L15.174 22.6145L14.8108 22.4042L16.1808 21.7097L16.493 21.5312C16.493 21.5312 16.4484 22.0665 16.544 22.3915C16.6396 22.7165 17.6113 23.3155 17.6113 23.3155Z" fill="#0C430C"/>
<path d="M17.231 22.8408L25.1452 18.3962C26.1488 17.8323 26.7733 16.7713 26.7765 15.6211L26.8115 5.95457C26.8147 4.88404 25.6613 4.2086 24.731 4.73111L17.3966 8.8571C16.17 9.54529 15.4117 10.842 15.4085 12.2503L15.3926 21.7607C15.3894 22.707 16.409 23.306 17.231 22.8408Z" fill="#198B50"/>
<path d="M28.1211 5.31074L25.6837 4.56201L24.3711 5.51147L25.6614 6.04992C25.8877 5.93522 27.0251 5.22791 27.3023 5.21198C27.6432 5.19286 27.9204 5.24065 28.1211 5.31074Z" fill="#198B50"/>
<path d="M18.6484 23.6338L16.2111 22.9329L15.8479 22.7226L17.2179 22.028L17.5301 21.8496C17.5301 21.8496 17.4855 22.3849 17.5811 22.7098C17.6767 23.0348 18.6484 23.6338 18.6484 23.6338Z" fill="#198B50"/>
<path d="M19.3589 23.478L27.2731 19.0334C28.2767 18.4695 28.9012 17.4085 28.9044 16.2584L28.9394 6.59178C28.9426 5.52125 27.7893 4.8458 26.8589 5.36832L19.5246 9.4943C18.2979 10.1825 17.5396 11.4792 17.5365 12.8875L17.5205 22.3979C17.5173 23.3442 18.5337 23.94 19.3589 23.478Z" fill="#83AE8C"/>
</svg>
