<svg width="14" height="14" viewBox="0 0 14 14" fill="none" xmlns="http://www.w3.org/2000/svg">
<path d="M7.00033 12.8337C6.19338 12.8337 5.43505 12.6805 4.72533 12.3743C4.0156 12.068 3.39824 11.6524 2.87324 11.1274C2.34824 10.6024 1.93262 9.98505 1.62637 9.27533C1.32012 8.5656 1.16699 7.80727 1.16699 7.00033C1.16699 6.19338 1.32012 5.43505 1.62637 4.72533C1.93262 4.0156 2.34824 3.39824 2.87324 2.87324C3.39824 2.34824 4.0156 1.93262 4.72533 1.62637C5.43505 1.32012 6.19338 1.16699 7.00033 1.16699C7.46699 1.16699 7.92151 1.22046 8.36387 1.32741C8.80623 1.43435 9.23158 1.58991 9.63991 1.79408C9.78574 1.87185 9.88053 1.98852 9.92428 2.14408C9.96803 2.29963 9.9413 2.44546 9.84408 2.58158C9.74685 2.71769 9.61803 2.80519 9.45762 2.84408C9.2972 2.88296 9.13921 2.86352 8.98366 2.78574C8.67255 2.63991 8.34928 2.5281 8.01387 2.45033C7.67845 2.37255 7.3406 2.33366 7.00033 2.33366C5.70727 2.33366 4.60623 2.78817 3.6972 3.6972C2.78817 4.60623 2.33366 5.70727 2.33366 7.00033C2.33366 8.29338 2.78817 9.39442 3.6972 10.3035C4.60623 11.2125 5.70727 11.667 7.00033 11.667C8.29338 11.667 9.39442 11.2125 10.3035 10.3035C11.2125 9.39442 11.667 8.29338 11.667 7.00033C11.667 6.92255 11.6646 6.8472 11.6597 6.77428C11.6548 6.70137 11.6475 6.62602 11.6378 6.54824C11.6184 6.38296 11.65 6.22498 11.7326 6.07428C11.8153 5.92359 11.9392 5.82394 12.1045 5.77533C12.26 5.72671 12.4059 5.7413 12.542 5.81908C12.6781 5.89685 12.7559 6.01352 12.7753 6.16908C12.7948 6.30519 12.8094 6.4413 12.8191 6.57741C12.8288 6.71352 12.8337 6.85449 12.8337 7.00033C12.8337 7.80727 12.6805 8.5656 12.3743 9.27533C12.068 9.98505 11.6524 10.6024 11.1274 11.1274C10.6024 11.6524 9.98505 12.068 9.27533 12.3743C8.5656 12.6805 7.80727 12.8337 7.00033 12.8337ZM6.18366 8.05033L11.6087 2.61074C11.7156 2.5038 11.8493 2.44789 12.0097 2.44303C12.1701 2.43817 12.3087 2.49408 12.4253 2.61074C12.5323 2.71769 12.5857 2.8538 12.5857 3.01908C12.5857 3.18435 12.5323 3.32046 12.4253 3.42741L6.59199 9.27533C6.47533 9.39199 6.33921 9.45033 6.18366 9.45033C6.0281 9.45033 5.89199 9.39199 5.77533 9.27533L4.11283 7.61283C4.00588 7.50588 3.95241 7.36977 3.95241 7.20449C3.95241 7.03921 4.00588 6.9031 4.11283 6.79616C4.21977 6.68921 4.35588 6.63574 4.52116 6.63574C4.68644 6.63574 4.82255 6.68921 4.92949 6.79616L6.18366 8.05033Z" fill="#2F80ED"/>
</svg>
