<svg width="57" height="47" viewBox="0 0 57 47" fill="none" xmlns="http://www.w3.org/2000/svg">
<path d="M1.45215 7.30398C1.45215 4.20343 3.96564 1.68994 7.06618 1.68994H49.1714C52.272 1.68994 54.7855 4.20343 54.7855 7.30398V15.725V43.7952C54.7855 44.5703 54.1571 45.1987 53.382 45.1987H2.85566C2.08052 45.1987 1.45215 44.5703 1.45215 43.7952V15.725V7.30398Z" fill="#8D3FCA"/>
<path fill-rule="evenodd" clip-rule="evenodd" d="M7.06735 0.286133H49.1726C53.0483 0.286133 56.1902 3.42799 56.1902 7.30368V43.7949C56.1902 45.3452 54.9334 46.6019 53.3831 46.6019H2.85682C1.30654 46.6019 0.0498047 45.3452 0.0498047 43.7949V7.30368C0.0498047 3.428 3.19167 0.286133 7.06735 0.286133ZM7.06735 1.68964C3.9668 1.68964 1.45331 4.20313 1.45331 7.30368V43.7949C1.45331 44.57 2.08168 45.1984 2.85682 45.1984H53.3831C54.1583 45.1984 54.7867 44.57 54.7867 43.7949V7.30368C54.7867 4.20313 52.2732 1.68964 49.1726 1.68964H7.06735Z" fill="#3F035B"/>
<rect x="1.45215" y="18.5332" width="53.3333" height="2.80702" fill="#5E1E90"/>
<circle cx="48.8183" cy="43.4433" r="1.05263" fill="#7C29AE"/>
<circle cx="51.9758" cy="36.0754" r="1.40351" fill="#7C29AE"/>
<circle cx="51.274" cy="39.5841" r="0.701754" fill="#7C29AE"/>
<circle cx="48.1171" cy="35.7245" r="1.05263" fill="#7C29AE"/>
<circle cx="43.204" cy="35.7245" r="1.05263" fill="#7C29AE"/>
<circle cx="49.1695" cy="31.1632" r="0.701754" fill="#7C29AE"/>
<circle cx="51.9732" cy="32.5655" r="0.701754" fill="#7C29AE"/>
<circle cx="53.3814" cy="27.6544" r="0.701754" fill="#7C29AE"/>
<circle cx="52.6764" cy="42.3922" r="0.701754" fill="#7C29AE"/>
<circle cx="43.5533" cy="31.8648" r="0.701754" fill="#7C29AE"/>
<circle cx="43.204" cy="42.7431" r="1.05263" fill="#7C29AE"/>
<circle cx="41.4518" cy="40.2853" r="0.701754" fill="#7C29AE"/>
<circle cx="38.6393" cy="42.3922" r="0.701754" fill="#7C29AE"/>
<circle cx="41.4518" cy="38.8839" r="0.701754" fill="#7C29AE"/>
<circle cx="38.6393" cy="37.4811" r="0.701754" fill="#7C29AE"/>
<circle cx="35.1353" cy="43.795" r="0.701754" fill="#7C29AE"/>
<circle cx="49.1695" cy="38.1822" r="0.701754" fill="#7C29AE"/>
<path d="M6.08984 7.30518H50.1515" stroke="#631790" stroke-width="1.40351" stroke-linecap="round" stroke-linejoin="round"/>
<path d="M3.72949 12.2168H52.5121" stroke="#631790" stroke-width="1.40351" stroke-linecap="round" stroke-linejoin="round"/>
<path d="M2.1543 23.4448H54.0841" stroke="#631790" stroke-width="1.40351" stroke-linecap="round" stroke-linejoin="round"/>
<path d="M2.1543 29.0596H54.0841" stroke="#631790" stroke-width="1.40351" stroke-linecap="round" stroke-linejoin="round"/>
<path d="M2.1543 34.6748H54.0841" stroke="#631790" stroke-width="1.40351" stroke-linecap="round" stroke-linejoin="round"/>
<path d="M2.1543 40.2876H54.0841" stroke="#631790" stroke-width="1.40351" stroke-linecap="round" stroke-linejoin="round"/>
<path d="M2.1543 39.5855V19.5854" stroke="#AD88E1" stroke-width="1.40351" stroke-linecap="round" stroke-linejoin="round"/>
<path d="M0.75293 17.8296H55.4898" stroke="#3F035B" stroke-width="1.40351" stroke-linecap="round" stroke-linejoin="round"/>
<circle cx="27.4215" cy="17.8287" r="0.701754" fill="#FFEACA"/>
<path d="M43.5615 18.5332H47.772V45.1999H43.5615V18.5332Z" fill="#3B1E63"/>
<path d="M47.7691 16.0034H43.5586V1.96826H47.7691V16.0034Z" fill="#57338A"/>
<path d="M8.47266 15.725H10.5779H12.6832V1.68994H8.47266V15.725Z" fill="#57338A"/>
<path d="M9.17383 2.39062V9.75905" stroke="#922AC2" stroke-width="1.40351" stroke-linecap="round" stroke-linejoin="round"/>
<path d="M44.2617 2.39062V9.75905" stroke="#922AC2" stroke-width="1.40351" stroke-linecap="round" stroke-linejoin="round"/>
<path d="M8.47266 18.5332H10.5779H12.6832V45.1999H8.47266V18.5332Z" fill="#3B1E63"/>
<path d="M47.7683 2.39062H7.41746C3.90868 2.39062 2.1543 4.14501 2.1543 7.65378V16.4257H53.3824" stroke="#AD88E1" stroke-width="1.40351" stroke-linecap="round" stroke-linejoin="round"/>
<path d="M7.41745 2.39062C3.90868 2.39062 2.1543 4.14501 2.1543 7.65378" stroke="#E2C4F9" stroke-width="1.40351" stroke-linecap="round" stroke-linejoin="round"/>
<path d="M34.1579 23.3039C34.3346 23.1714 34.4386 22.9634 34.4386 22.7425V13.6197C34.4386 12.8446 33.8102 12.2162 33.0351 12.2162H23.2105C22.4354 12.2162 21.807 12.8446 21.807 13.6197V22.7425C21.807 22.9634 21.911 23.1714 22.0877 23.3039L27.7018 27.5145C27.9513 27.7016 28.2944 27.7016 28.5439 27.5145L34.1579 23.3039Z" fill="#DF8D12" stroke="#652A11" stroke-width="1.40351" stroke-linejoin="round"/>
<circle cx="28.1209" cy="18.532" r="2.80702" fill="#FFB341" stroke="#944320" stroke-width="1.40351"/>
<circle cx="27.4215" cy="17.8287" r="0.701754" fill="#FFEACA"/>
<path d="M23.21 21.3384V13.6191H31.631" stroke="#FFB341" stroke-width="1.40351" stroke-linecap="round" stroke-linejoin="round"/>
</svg>
