<svg width="14" height="13" viewBox="0 0 14 13" fill="none" xmlns="http://www.w3.org/2000/svg">
<path d="M1.87926 1.16329C1.03079 1.16329 0.342973 1.85111 0.342973 2.69958V4.74796V11.5759C0.342973 11.8587 0.572247 12.088 0.85507 12.088H13.1454C13.4282 12.088 13.6575 11.8587 13.6575 11.5759V4.74796V2.69958C13.6575 1.85111 12.9697 1.16329 12.1212 1.16329H1.87926Z" fill="#E84949" stroke="#5B1003" stroke-width="0.341398" stroke-linejoin="round"/>
<rect x="0.513672" y="5.43115" width="12.9731" height="0.682796" fill="#911E1E"/>
<circle cx="12.0353" cy="11.4904" r="0.256048" fill="#AE2929"/>
<circle cx="12.8038" cy="9.69784" r="0.341398" fill="#AE2929"/>
<circle cx="12.6331" cy="10.5516" r="0.170699" fill="#AE2929"/>
<circle cx="11.8649" cy="9.61249" r="0.256048" fill="#AE2929"/>
<circle cx="10.6699" cy="9.61249" r="0.256048" fill="#AE2929"/>
<circle cx="12.1209" cy="8.50322" r="0.170699" fill="#AE2929"/>
<circle cx="12.8035" cy="8.84453" r="0.170699" fill="#AE2929"/>
<circle cx="13.1451" cy="7.6497" r="0.170699" fill="#AE2929"/>
<circle cx="12.9744" cy="11.2342" r="0.170699" fill="#AE2929"/>
<circle cx="10.7554" cy="8.67363" r="0.170699" fill="#AE2929"/>
<circle cx="10.6699" cy="11.3195" r="0.256048" fill="#AE2929"/>
<circle cx="10.243" cy="10.722" r="0.170699" fill="#AE2929"/>
<circle cx="9.56035" cy="11.2342" r="0.170699" fill="#AE2929"/>
<circle cx="10.243" cy="10.3807" r="0.170699" fill="#AE2929"/>
<circle cx="9.56035" cy="10.0398" r="0.170699" fill="#AE2929"/>
<circle cx="8.70683" cy="11.5755" r="0.170699" fill="#AE2929"/>
<circle cx="12.1209" cy="10.2102" r="0.170699" fill="#AE2929"/>
<path d="M1.64087 2.69971H12.3587" stroke="#913017" stroke-width="0.341398" stroke-linecap="round" stroke-linejoin="round"/>
<path d="M1.06665 3.89453H12.9328" stroke="#913017" stroke-width="0.341398" stroke-linecap="round" stroke-linejoin="round"/>
<path d="M0.68457 6.62549H13.3163" stroke="#913017" stroke-width="0.341398" stroke-linecap="round" stroke-linejoin="round"/>
<path d="M0.68457 7.99121H13.3163" stroke="#913017" stroke-width="0.341398" stroke-linecap="round" stroke-linejoin="round"/>
<path d="M0.68457 9.35742H13.3163" stroke="#913017" stroke-width="0.341398" stroke-linecap="round" stroke-linejoin="round"/>
<path d="M0.68457 10.7227H13.3163" stroke="#913017" stroke-width="0.341398" stroke-linecap="round" stroke-linejoin="round"/>
<path d="M0.684326 10.5519V5.68701" stroke="#FF796C" stroke-width="0.341398" stroke-linecap="round" stroke-linejoin="round"/>
<path d="M11.7798 1.50439H1.96457C1.11107 1.50439 0.684326 1.93114 0.684326 2.78464V4.91837H13.1453" stroke="#FF796C" stroke-width="0.341398" stroke-linecap="round" stroke-linejoin="round"/>
<path d="M1.96457 1.50439C1.11107 1.50439 0.684326 1.93114 0.684326 2.78464" stroke="#FFB4AD" stroke-width="0.341398" stroke-linecap="round" stroke-linejoin="round"/>
<path d="M0.343018 5.25928H13.6575" stroke="#5B1003" stroke-width="0.341398" stroke-linecap="round" stroke-linejoin="round"/>
<path d="M8.46861 6.59129C8.5116 6.55905 8.53689 6.50846 8.53689 6.45473V4.23564C8.53689 4.04709 8.38404 3.89424 8.19549 3.89424H5.80571C5.61716 3.89424 5.46431 4.04709 5.46431 4.23564V6.45473C5.46431 6.50846 5.48961 6.55905 5.53259 6.59129L6.89818 7.61548C6.95887 7.661 7.04233 7.661 7.10302 7.61548L8.46861 6.59129Z" fill="#DF8D12" stroke="#651D11" stroke-width="0.341398" stroke-linejoin="round"/>
<circle cx="7.00038" cy="5.43055" r="0.682796" fill="#FFB341" stroke="#944320" stroke-width="0.341398"/>
<path d="M5.80542 6.11304V4.23535H7.85381" stroke="#FFB341" stroke-width="0.341398" stroke-linecap="round" stroke-linejoin="round"/>
<circle cx="6.82963" cy="5.25957" r="0.170699" fill="#FFEACA"/>
<path d="M10.7554 5.43115H11.7796V11.9177H10.7554V5.43115Z" fill="#C52B10"/>
<path d="M11.7798 4.74796H11.2677H10.7556V1.33398H11.7798V4.74796Z" fill="#C52B10"/>
<path d="M2.22046 4.74796H2.73256H3.24465V1.33398H2.22046V4.74796Z" fill="#C52B10"/>
<path d="M2.39111 1.50439V3.29673" stroke="#BD0F0F" stroke-opacity="0.98" stroke-width="0.341398" stroke-linecap="round" stroke-linejoin="round"/>
<path d="M10.9263 1.50439V3.29673" stroke="#BD0F0F" stroke-opacity="0.98" stroke-width="0.341398" stroke-linecap="round" stroke-linejoin="round"/>
<path d="M2.22046 5.43115H2.73256H3.24465V11.9177H2.22046V5.43115Z" fill="#C52B10"/>
</svg>
