<svg width="14" height="13" viewBox="0 0 14 13" fill="none" xmlns="http://www.w3.org/2000/svg">
<path d="M1.87957 1.16295C1.0311 1.16295 0.343278 1.85077 0.343278 2.69924V4.74763V11.5756C0.343278 11.8584 0.572553 12.0877 0.855375 12.0877H13.1457C13.4285 12.0877 13.6578 11.8584 13.6578 11.5756V4.74763V2.69924C13.6578 1.85077 12.97 1.16295 12.1215 1.16295H1.87957Z" fill="#728AAF" stroke="#011555" stroke-width="0.341398" stroke-linejoin="round"/>
<rect x="0.513977" y="5.43018" width="12.9731" height="0.682796" fill="#2B3D76"/>
<circle cx="12.0366" cy="11.4902" r="0.256048" fill="#576E9A"/>
<circle cx="12.8043" cy="9.69766" r="0.341398" fill="#576E9A"/>
<circle cx="12.6336" cy="10.5514" r="0.170699" fill="#576E9A"/>
<circle cx="11.8654" cy="9.61231" r="0.256048" fill="#576E9A"/>
<circle cx="10.6707" cy="9.61231" r="0.256048" fill="#576E9A"/>
<circle cx="12.1218" cy="8.50288" r="0.170699" fill="#576E9A"/>
<circle cx="12.8048" cy="8.84434" r="0.170699" fill="#576E9A"/>
<circle cx="13.1459" cy="7.64937" r="0.170699" fill="#576E9A"/>
<circle cx="12.9754" cy="11.234" r="0.170699" fill="#576E9A"/>
<circle cx="10.756" cy="8.67345" r="0.170699" fill="#576E9A"/>
<circle cx="10.6707" cy="11.3193" r="0.256048" fill="#576E9A"/>
<circle cx="10.2442" cy="10.722" r="0.170699" fill="#576E9A"/>
<circle cx="9.56129" cy="11.234" r="0.170699" fill="#576E9A"/>
<circle cx="10.2442" cy="10.3805" r="0.170699" fill="#576E9A"/>
<circle cx="9.56129" cy="10.039" r="0.170699" fill="#576E9A"/>
<circle cx="8.70778" cy="11.5755" r="0.170699" fill="#576E9A"/>
<circle cx="12.1218" cy="10.2099" r="0.170699" fill="#576E9A"/>
<path d="M1.64062 2.69922H12.3584" stroke="#484C74" stroke-width="0.341398" stroke-linecap="round" stroke-linejoin="round"/>
<path d="M1.06641 3.8942H12.9326" stroke="#484C74" stroke-width="0.341398" stroke-linecap="round" stroke-linejoin="round"/>
<path d="M0.684235 6.62534H13.316" stroke="#484C74" stroke-width="0.341398" stroke-linecap="round" stroke-linejoin="round"/>
<path d="M0.684235 7.99088H13.316" stroke="#484C74" stroke-width="0.341398" stroke-linecap="round" stroke-linejoin="round"/>
<path d="M0.684235 9.35645H13.316" stroke="#484C74" stroke-width="0.341398" stroke-linecap="round" stroke-linejoin="round"/>
<path d="M0.684235 10.722H13.316" stroke="#484C74" stroke-width="0.341398" stroke-linecap="round" stroke-linejoin="round"/>
<path d="M0.68454 10.5513V5.68634" stroke="#89C5E3" stroke-width="0.341398" stroke-linecap="round" stroke-linejoin="round"/>
<path d="M11.78 1.50406H1.96478C1.11129 1.50406 0.68454 1.93081 0.68454 2.7843V4.91804H13.1456" stroke="#89C5E3" stroke-width="0.341398" stroke-linecap="round" stroke-linejoin="round"/>
<path d="M1.96478 1.50406C1.11129 1.50406 0.68454 1.93081 0.68454 2.7843" stroke="#B5EEFF" stroke-width="0.341398" stroke-linecap="round" stroke-linejoin="round"/>
<path d="M0.343414 5.25977H13.6579" stroke="#011555" stroke-width="0.341398" stroke-linecap="round" stroke-linejoin="round"/>
<path d="M8.46867 6.5911C8.51166 6.55887 8.53695 6.50827 8.53695 6.45454V4.23546C8.53695 4.04691 8.3841 3.89406 8.19555 3.89406H5.80577C5.61722 3.89406 5.46437 4.04691 5.46437 4.23546V6.45454C5.46437 6.50827 5.48967 6.55887 5.53265 6.5911L6.89824 7.6153C6.95894 7.66082 7.04239 7.66082 7.10308 7.6153L8.46867 6.5911Z" fill="#DF8D12" stroke="#652A11" stroke-width="0.341398" stroke-linejoin="round"/>
<circle cx="7.00068" cy="5.43037" r="0.682796" fill="#FFB341" stroke="#944320" stroke-width="0.341398"/>
<path d="M5.80563 6.11301V4.23532H7.85402" stroke="#FFB341" stroke-width="0.341398" stroke-linecap="round" stroke-linejoin="round"/>
<circle cx="6.82985" cy="5.25954" r="0.170699" fill="#FFEACA"/>
<path d="M10.7562 5.43018H11.7804V11.9167H10.7562V5.43018Z" fill="#81B8E4"/>
<path d="M11.7802 4.74747H11.2681H10.756V1.3335H11.7802V4.74747Z" fill="#C2D3FE"/>
<path d="M2.22101 4.74763H2.73311H3.2452V1.33365H2.22101V4.74763Z" fill="#C2D3FE"/>
<path d="M2.39157 1.50406V3.2964" stroke="#FCFEFF" stroke-width="0.341398" stroke-linecap="round" stroke-linejoin="round"/>
<path d="M10.9267 1.50406V3.2964" stroke="#FCFEFF" stroke-width="0.341398" stroke-linecap="round" stroke-linejoin="round"/>
<path d="M2.22101 5.43018H2.73311H3.2452V11.9167H2.22101V5.43018Z" fill="#81B8E4"/>
</svg>
