<svg width="14" height="12" viewBox="0 0 14 12" fill="none" xmlns="http://www.w3.org/2000/svg">
<g id="Group 1536">
<g id="Group 54">
<path id="Rectangle 19" d="M1.87975 0.16298C1.03128 0.16298 0.343461 0.850801 0.343461 1.69927V3.74766V10.5756C0.343461 10.8584 0.572736 11.0877 0.855558 11.0877H13.1459C13.4287 11.0877 13.658 10.8584 13.658 10.5756V3.74766V1.69927C13.658 0.850801 12.9702 0.16298 12.1217 0.16298H1.87975Z" fill="#8D3FCA" stroke="#3F035B" stroke-width="0.341398" stroke-linejoin="round"/>
<rect id="Rectangle 81" x="0.51416" y="4.43018" width="12.9731" height="0.682796" fill="#5E1E91"/>
<g id="Group 1534">
<circle id="Ellipse 755" cx="12.0368" cy="10.4903" r="0.256048" fill="#7C29AE"/>
<circle id="Ellipse 760" cx="12.8045" cy="8.69772" r="0.341398" fill="#7C29AE"/>
<circle id="Ellipse 756" cx="12.6338" cy="9.55144" r="0.170699" fill="#7C29AE"/>
<circle id="Ellipse 761" cx="11.8657" cy="8.61237" r="0.256048" fill="#7C29AE"/>
<circle id="Ellipse 762" cx="10.6711" cy="8.61237" r="0.256048" fill="#7C29AE"/>
<circle id="Ellipse 763" cx="12.1221" cy="7.50291" r="0.170699" fill="#7C29AE"/>
<circle id="Ellipse 764" cx="12.805" cy="7.84441" r="0.170699" fill="#7C29AE"/>
<circle id="Ellipse 771" cx="13.1463" cy="6.6494" r="0.170699" fill="#7C29AE"/>
<circle id="Ellipse 765" cx="12.9756" cy="10.2341" r="0.170699" fill="#7C29AE"/>
<circle id="Ellipse 767" cx="10.7561" cy="7.67351" r="0.170699" fill="#7C29AE"/>
<circle id="Ellipse 757" cx="10.6711" cy="10.3194" r="0.256048" fill="#7C29AE"/>
<circle id="Ellipse 758" cx="10.2444" cy="9.72197" r="0.170699" fill="#7C29AE"/>
<circle id="Ellipse 766" cx="9.56157" cy="10.2341" r="0.170699" fill="#7C29AE"/>
<circle id="Ellipse 768" cx="10.2444" cy="9.38054" r="0.170699" fill="#7C29AE"/>
<circle id="Ellipse 769" cx="9.56157" cy="9.03905" r="0.170699" fill="#7C29AE"/>
<circle id="Ellipse 770" cx="8.70805" cy="10.5755" r="0.170699" fill="#7C29AE"/>
<circle id="Ellipse 759" cx="12.1221" cy="9.20994" r="0.170699" fill="#7C29AE"/>
</g>
<g id="Group 1531">
<path id="Vector 1699" d="M1.64062 1.69922H12.3584" stroke="#631791" stroke-width="0.341398" stroke-linecap="round" stroke-linejoin="round"/>
<path id="Vector 1700" d="M1.06641 2.89423H12.9326" stroke="#631791" stroke-width="0.341398" stroke-linecap="round" stroke-linejoin="round"/>
<path id="Vector 1701" d="M0.684326 5.62531H13.316" stroke="#631791" stroke-width="0.341398" stroke-linecap="round" stroke-linejoin="round"/>
<path id="Vector 1702" d="M0.684326 6.99091H13.316" stroke="#631791" stroke-width="0.341398" stroke-linecap="round" stroke-linejoin="round"/>
<path id="Vector 1703" d="M0.684326 8.35645H13.316" stroke="#631791" stroke-width="0.341398" stroke-linecap="round" stroke-linejoin="round"/>
<path id="Vector 1704" d="M0.684326 9.72198H13.316" stroke="#631791" stroke-width="0.341398" stroke-linecap="round" stroke-linejoin="round"/>
</g>
<path id="Rectangle 27" d="M0.684814 9.55132V4.6864" stroke="#D96CFF" stroke-width="0.341398" stroke-linecap="round" stroke-linejoin="round"/>
<path id="Rectangle 26" d="M11.7802 0.504089H1.96506C1.11156 0.504089 0.684814 0.930837 0.684814 1.78433V3.91807H13.1458" stroke="#D96CFF" stroke-width="0.341398" stroke-linecap="round" stroke-linejoin="round"/>
<path id="Rectangle 28" d="M1.96506 0.504089C1.11156 0.504089 0.684814 0.930837 0.684814 1.78433" stroke="#F4ADFF" stroke-width="0.341398" stroke-linecap="round" stroke-linejoin="round"/>
</g>
<path id="Vector 1706" d="M0.343506 4.25977H13.658" stroke="#3F035B" stroke-width="0.341398" stroke-linecap="round" stroke-linejoin="round"/>
<g id="Group 1532">
<path id="Rectangle 21" d="M8.46886 5.59116C8.51184 5.55893 8.53714 5.50833 8.53714 5.4546V3.23552C8.53714 3.04697 8.38429 2.89412 8.19574 2.89412H5.80595C5.6174 2.89412 5.46455 3.04697 5.46455 3.23552V5.4546C5.46455 5.50833 5.48985 5.55893 5.53283 5.59116L6.89843 6.61536C6.95912 6.66088 7.04257 6.66088 7.10326 6.61536L8.46886 5.59116Z" fill="#DF8D12" stroke="#652A11" stroke-width="0.341398" stroke-linejoin="round"/>
<circle id="Ellipse 8" cx="7.00087" cy="4.43043" r="0.682796" fill="#FFB341" stroke="#944320" stroke-width="0.341398"/>
<path id="Vector 1690" d="M5.80591 5.1131V3.23541H7.8543" stroke="#FFB341" stroke-width="0.341398" stroke-linecap="round" stroke-linejoin="round"/>
<circle id="Ellipse 754" cx="6.83012" cy="4.25963" r="0.170699" fill="#FFEACA"/>
</g>
<g id="Group 1533">
<path id="Rectangle 23" d="M10.7563 4.43018H11.7805V10.9167H10.7563V4.43018Z" fill="#10A4C5"/>
<path id="Rectangle 25" d="M11.7805 3.74747H11.2684H10.7563V0.333496H11.7805V3.74747Z" fill="#45CDEB"/>
<path id="Rectangle 24" d="M2.22119 3.74766H2.73329H3.24538V0.333679H2.22119V3.74766Z" fill="#45CDEB"/>
<path id="Vector 1726" d="M2.39185 0.504089V2.29643" stroke="#8EEBFF" stroke-width="0.341398" stroke-linecap="round" stroke-linejoin="round"/>
<path id="Vector 1727" d="M10.927 0.504089V2.29643" stroke="#8EEBFF" stroke-width="0.341398" stroke-linecap="round" stroke-linejoin="round"/>
<path id="Rectangle 22" d="M2.22119 4.43018H2.73329H3.24538V10.9167H2.22119V4.43018Z" fill="#10A4C5"/>
</g>
</g>
</svg>
