<svg width="14" height="14" viewBox="0 0 14 14" fill="none" xmlns="http://www.w3.org/2000/svg">
<path d="M7.00033 12.8337C6.19338 12.8337 5.43505 12.6805 4.72533 12.3743C4.0156 12.068 3.39824 11.6524 2.87324 11.1274C2.34824 10.6024 1.93262 9.98505 1.62637 9.27533C1.32012 8.5656 1.16699 7.80727 1.16699 7.00033C1.16699 6.19338 1.32012 5.43505 1.62637 4.72533C1.93262 4.0156 2.34824 3.39824 2.87324 2.87324C3.39824 2.34824 4.0156 1.93262 4.72533 1.62637C5.43505 1.32012 6.19338 1.16699 7.00033 1.16699C7.80727 1.16699 8.5656 1.32012 9.27533 1.62637C9.98505 1.93262 10.6024 2.34824 11.1274 2.87324C11.6524 3.39824 12.068 4.0156 12.3743 4.72533C12.6805 5.43505 12.8337 6.19338 12.8337 7.00033C12.8337 7.80727 12.6805 8.5656 12.3743 9.27533C12.068 9.98505 11.6524 10.6024 11.1274 11.1274C10.6024 11.6524 9.98505 12.068 9.27533 12.3743C8.5656 12.6805 7.80727 12.8337 7.00033 12.8337ZM7.00033 11.667C8.3031 11.667 9.40658 11.2149 10.3107 10.3107C11.2149 9.40658 11.667 8.3031 11.667 7.00033C11.667 5.69755 11.2149 4.59408 10.3107 3.68991C9.40658 2.78574 8.3031 2.33366 7.00033 2.33366C5.69755 2.33366 4.59408 2.78574 3.68991 3.68991C2.78574 4.59408 2.33366 5.69755 2.33366 7.00033C2.33366 8.3031 2.78574 9.40658 3.68991 10.3107C4.59408 11.2149 5.69755 11.667 7.00033 11.667Z" fill="#505B78"/>
</svg>
