<svg width="18" height="18" viewBox="0 0 18 18" fill="none" xmlns="http://www.w3.org/2000/svg">
<g id="&#208;&#186;&#209;&#128;&#209;&#131;&#208;&#179;">
<path id="Vector" d="M9 16.5002C7.9625 16.5002 6.9875 16.3034 6.075 15.9096C5.1625 15.5159 4.36875 14.9815 3.69375 14.3065C3.01875 13.6315 2.48438 12.8377 2.09063 11.9252C1.69688 11.0127 1.5 10.0377 1.5 9.00024C1.5 7.96274 1.69688 6.98774 2.09063 6.07524C2.48438 5.16274 3.01875 4.36899 3.69375 3.69399C4.36875 3.01899 5.1625 2.48462 6.075 2.09087C6.9875 1.69712 7.9625 1.50024 9 1.50024C10.0375 1.50024 11.0125 1.69712 11.925 2.09087C12.8375 2.48462 13.6313 3.01899 14.3063 3.69399C14.9813 4.36899 15.5156 5.16274 15.9094 6.07524C16.3031 6.98774 16.5 7.96274 16.5 9.00024C16.5 10.0377 16.3031 11.0127 15.9094 11.9252C15.5156 12.8377 14.9813 13.6315 14.3063 14.3065C13.6313 14.9815 12.8375 15.5159 11.925 15.9096C11.0125 16.3034 10.0375 16.5002 9 16.5002ZM9 15.0002C10.675 15.0002 12.0938 14.419 13.2563 13.2565C14.4188 12.094 15 10.6752 15 9.00024C15 7.32524 14.4188 5.90649 13.2563 4.74399C12.0938 3.58149 10.675 3.00024 9 3.00024C7.325 3.00024 5.90625 3.58149 4.74375 4.74399C3.58125 5.90649 3 7.32524 3 9.00024C3 10.6752 3.58125 12.094 4.74375 13.2565C5.90625 14.419 7.325 15.0002 9 15.0002Z" fill="white"/>
</g>
</svg>
