<svg width="12" height="14" viewBox="0 0 12 14" fill="none" xmlns="http://www.w3.org/2000/svg">
<g id="Group 1522">
<path id="Rectangle 36" d="M1.91602 3.49983C1.83547 3.49983 1.77018 3.56512 1.77018 3.64566V9.67725C1.77018 9.99066 2.09006 10.2024 2.37857 10.08L5.82846 8.61617C5.93767 8.56983 6.06102 8.56983 6.17024 8.61617L9.62013 10.08C9.90864 10.2024 10.2285 9.99066 10.2285 9.67725V3.64566C10.2285 3.56512 10.1632 3.49983 10.0827 3.49983H1.91602Z" fill="#CA425A" stroke="#60040F" stroke-width="0.291667" stroke-linejoin="round"/>
<path id="Rectangle 37" d="M10.0827 3.64566H1.91602V4.22899H10.0827V3.64566Z" fill="#98293C"/>
<path id="Rectangle 33" d="M6.0578 0.887054C6.02054 0.870751 5.97816 0.870751 5.9409 0.887054L3.60756 1.90789C3.54432 1.93556 3.50914 2.00378 3.52327 2.07135C3.53741 2.13892 3.59698 2.18733 3.66602 2.18733H8.33268C8.40172 2.18733 8.46129 2.13892 8.47543 2.07135C8.48956 2.00378 8.45438 1.93556 8.39114 1.90789L6.0578 0.887054Z" stroke="#60040F" stroke-width="0.291667" stroke-linejoin="round"/>
<path id="Rectangle 34" d="M1.33285 2.0415C0.930137 2.0415 0.603678 2.36796 0.603678 2.77067C0.603678 3.17337 0.930137 3.49983 1.33284 3.49983H10.6662C11.0689 3.49983 11.3953 3.17337 11.3953 2.77067C11.3953 2.36796 11.0689 2.0415 10.6662 2.0415H1.33285Z" fill="#E9B145" stroke="#60040F" stroke-width="0.291667"/>
<path id="Vector 1664" d="M1.18701 2.479H10.6662" stroke="#FFCB65" stroke-width="0.291667" stroke-linecap="round" stroke-linejoin="round"/>
<path id="Vector 1670" d="M1.47852 2.479H3.95768" stroke="#FFEBC5" stroke-width="0.291667" stroke-linecap="round" stroke-linejoin="round"/>
<g id="Group 1521">
<path id="Vector 1656" d="M1.62451 3.20816L2.35368 2.33316" stroke="#D19521" stroke-width="0.291667" stroke-linecap="round" stroke-linejoin="round"/>
<path id="Vector 1659" d="M4.68701 3.20799L5.41618 2.33299" stroke="#D19521" stroke-width="0.291667" stroke-linecap="round" stroke-linejoin="round"/>
<path id="Vector 1657" d="M2.64551 3.20799L3.37467 2.33299" stroke="#D19521" stroke-width="0.291667" stroke-linecap="round" stroke-linejoin="round"/>
<path id="Vector 1660" d="M5.70801 3.20799L6.43717 2.33299" stroke="#D19521" stroke-width="0.291667" stroke-linecap="round" stroke-linejoin="round"/>
<path id="Vector 1658" d="M3.66602 3.20799L4.39518 2.33299" stroke="#D19521" stroke-width="0.291667" stroke-linecap="round" stroke-linejoin="round"/>
<path id="Vector 1661" d="M6.72852 3.20799L7.45768 2.33299" stroke="#D19521" stroke-width="0.291667" stroke-linecap="round" stroke-linejoin="round"/>
<path id="Vector 1662" d="M7.74951 3.20799L8.47868 2.33299" stroke="#D19521" stroke-width="0.291667" stroke-linecap="round" stroke-linejoin="round"/>
<path id="Vector 1663" d="M8.77051 3.20799L9.49967 2.33299" stroke="#D19521" stroke-width="0.291667" stroke-linecap="round" stroke-linejoin="round"/>
<path id="Vector 1665" d="M9.79102 3.20799L10.5202 2.33299" stroke="#D19521" stroke-width="0.291667" stroke-linecap="round" stroke-linejoin="round"/>
</g>
<path id="Rectangle 35" d="M2.79102 3.49983C2.71047 3.49983 2.64518 3.56512 2.64518 3.64566V10.9395C2.64518 11.2055 2.78999 11.4504 3.02306 11.5785L5.64806 13.0217C5.86681 13.1419 6.13189 13.1419 6.35064 13.0217L8.97564 11.5785C9.20871 11.4504 9.35352 11.2055 9.35352 10.9395V3.64566C9.35352 3.56512 9.28823 3.49983 9.20768 3.49983H2.79102Z" fill="#FF6480" stroke="#60040F" stroke-width="0.291667" stroke-linejoin="round"/>
<g id="Group 1491">
<circle id="Ellipse 359" cx="8.77034" cy="11.083" r="0.145833" fill="#E34864"/>
<circle id="Ellipse 366" cx="8.04134" cy="9.91633" r="0.145833" fill="#E34864"/>
<circle id="Ellipse 367" cx="8.77034" cy="9.47883" r="0.145833" fill="#E34864"/>
<circle id="Ellipse 363" cx="7.02035" cy="11.958" r="0.145833" fill="#E34864"/>
<circle id="Ellipse 364" cx="8.04134" cy="11.3747" r="0.145833" fill="#E34864"/>
<circle id="Ellipse 365" cx="7.38477" cy="11.4476" r="0.21875" fill="#E34864"/>
<circle id="Ellipse 360" cx="8.77034" cy="10.208" r="0.145833" fill="#E34864"/>
<circle id="Ellipse 361" cx="7.74935" cy="10.7913" r="0.145833" fill="#E34864"/>
<circle id="Ellipse 362" cx="8.40576" cy="10.5726" r="0.21875" fill="#E34864"/>
</g>
<path id="Rectangle 33_2" d="M9.20768 3.64566H2.79102V4.22899H9.20768V3.64566Z" fill="#DA435E"/>
<path id="Vector 1671" d="M3.08301 4.81233V10.9071C3.08301 11.0154 3.143 11.1147 3.23883 11.1652L5.85384 12.5415" stroke="#FFABBA" stroke-width="0.291667" stroke-linecap="round" stroke-linejoin="round"/>
<path id="Vector 1672" d="M8.91602 8.09358V6.59879M7.5306 11.8123L8.22331 11.4477" stroke="#FFABBA" stroke-width="0.291667" stroke-linecap="round" stroke-linejoin="round"/>
<path id="Vector 1665_2" d="M3.08301 8.09358V6.59879M4.46842 11.8123L3.77572 11.4477" stroke="#FFDCDC" stroke-width="0.291667" stroke-linecap="round" stroke-linejoin="round"/>
</g>
</svg>
