<svg width="20" height="20" viewBox="0 0 20 20" fill="none" xmlns="http://www.w3.org/2000/svg">
<g id="&#208;&#183;&#208;&#176;&#208;&#186;&#209;&#128;&#209;&#139;&#209;&#130;&#209;&#140;">
<path id="Vector" d="M9.99999 11.5379L4.61765 16.9202C4.41627 17.1216 4.15997 17.2223 3.84875 17.2223C3.53752 17.2223 3.28122 17.1216 3.07984 16.9202C2.87846 16.7188 2.77777 16.4625 2.77777 16.1513C2.77777 15.8401 2.87846 15.5838 3.07984 15.3824L8.46218 10.0001L3.07984 4.61771C2.87846 4.41633 2.77777 4.16003 2.77777 3.84881C2.77777 3.53758 2.87846 3.28128 3.07984 3.0799C3.28122 2.87852 3.53752 2.77783 3.84875 2.77783C4.15997 2.77783 4.41627 2.87852 4.61765 3.0799L9.99999 8.46224L15.3823 3.0799C15.5837 2.87852 15.84 2.77783 16.1512 2.77783C16.4625 2.77783 16.7188 2.87852 16.9201 3.0799C17.1215 3.28128 17.2222 3.53758 17.2222 3.84881C17.2222 4.16003 17.1215 4.41633 16.9201 4.61771L11.5378 10.0001L16.9201 15.3824C17.1215 15.5838 17.2222 15.8401 17.2222 16.1513C17.2222 16.4625 17.1215 16.7188 16.9201 16.9202C16.7188 17.1216 16.4625 17.2223 16.1512 17.2223C15.84 17.2223 15.5837 17.1216 15.3823 16.9202L9.99999 11.5379Z" fill="#373A43"/>
</g>
</svg>
