<svg xmlns="http://www.w3.org/2000/svg" width="14" height="14" viewBox="0 0 14 14" fill="none">
    <g opacity="0.6">
        <path d="M7.00001 8.07636L3.23238 11.844C3.09141 11.985 2.912 12.0554 2.69414 12.0554C2.47628 12.0554 2.29687 11.985 2.15591 11.844C2.01494 11.703 1.94446 11.5236 1.94446 11.3058C1.94446 11.0879 2.01494 10.9085 2.15591 10.7675L5.92355 6.99989L2.15591 3.23225C2.01494 3.09129 1.94446 2.91188 1.94446 2.69402C1.94446 2.47616 2.01494 2.29675 2.15591 2.15579C2.29687 2.01482 2.47628 1.94434 2.69414 1.94434C2.912 1.94434 3.09141 2.01482 3.23238 2.15579L7.00001 5.92342L10.7677 2.15579C10.9086 2.01482 11.088 1.94434 11.3059 1.94434C11.5237 1.94434 11.7032 2.01482 11.8441 2.15579C11.9851 2.29675 12.0556 2.47616 12.0556 2.69402C12.0556 2.91188 11.9851 3.09129 11.8441 3.23225L8.07648 6.99989L11.8441 10.7675C11.9851 10.9085 12.0556 11.0879 12.0556 11.3058C12.0556 11.5236 11.9851 11.703 11.8441 11.844C11.7032 11.985 11.5237 12.0554 11.3059 12.0554C11.088 12.0554 10.9086 11.985 10.7677 11.844L7.00001 8.07636Z" fill="#D9DCE1"/>
    </g>
</svg>