<svg width="15" height="14" viewBox="0 0 15 14" fill="none" xmlns="http://www.w3.org/2000/svg">
<path d="M6.00596 13.4029C9.392 14.2941 12.8907 12.2328 13.8252 8.80688C14.7597 5.38099 12.779 1.87741 9.39296 0.98618C6.00691 0.0949512 2.5082 2.15631 1.57369 5.5822C0.63919 9.00808 2.61991 12.5117 6.00596 13.4029Z" fill="#023BA5" stroke="#093A7A" stroke-width="0.389551"/>
<path d="M5.60947 13.0142C8.99552 13.9054 12.4942 11.8441 13.4287 8.4182C14.3632 4.99232 12.3825 1.48874 8.99647 0.597508C5.61043 -0.293721 2.11171 1.76764 1.17721 5.19352C0.242706 8.61941 2.22343 12.123 5.60947 13.0142Z" fill="#2369FF" stroke="#093A7A" stroke-width="0.389551"/>
<path d="M5.91598 11.8847C8.66867 12.6093 11.5141 10.9162 12.2781 8.11509C13.0422 5.31398 11.4398 2.45023 8.68714 1.7257C5.93445 1.00118 3.08905 2.69424 2.32497 5.49535C1.56089 8.29646 3.1633 11.1602 5.91598 11.8847Z" stroke="#1234DF" stroke-width="0.389551"/>
<path fill-rule="evenodd" clip-rule="evenodd" d="M10.9789 3.33374C10.435 2.85872 9.77759 2.4997 9.0332 2.30377C6.38874 1.60773 3.64758 3.23353 2.91065 5.93509C2.43454 7.68053 2.91152 9.44798 4.02198 10.6681C2.63357 9.45562 1.98429 7.48729 2.51378 5.54619C3.25071 2.84463 5.99186 1.21883 8.63633 1.91487C9.57225 2.16121 10.3706 2.66536 10.9789 3.33374Z" fill="#65ADFF"/>
<ellipse cx="0.280562" cy="0.277629" rx="0.280562" ry="0.277629" transform="matrix(0.983645 -0.195757 0.20139 0.976442 9.23828 9.72363)" fill="#2156DC"/>
<ellipse cx="0.280562" cy="0.277629" rx="0.280562" ry="0.277629" transform="matrix(0.983645 -0.195757 0.20139 0.976442 10.5996 8.88672)" fill="#2156DC"/>
<ellipse cx="0.280562" cy="0.277629" rx="0.280562" ry="0.277629" transform="matrix(0.983645 -0.195757 0.20139 0.976442 9.28711 8.47363)" fill="#2156DC"/>
<ellipse cx="0.195391" cy="0.193348" rx="0.195391" ry="0.193348" transform="matrix(0.983645 -0.195757 0.20139 0.976442 9.93945 9.04785)" fill="#2156DC"/>
<ellipse cx="0.195391" cy="0.193348" rx="0.195391" ry="0.193348" transform="matrix(0.983645 -0.195757 0.20139 0.976442 10.0586 8.20898)" fill="#2156DC"/>
<ellipse cx="0.195391" cy="0.193348" rx="0.195391" ry="0.193348" transform="matrix(0.983645 -0.195757 0.20139 0.976442 10.9746 8.22363)" fill="#2156DC"/>
<ellipse cx="0.195391" cy="0.193348" rx="0.195391" ry="0.193348" transform="matrix(0.983645 -0.195757 0.20139 0.976442 11.3633 7.07617)" fill="#2156DC"/>
<ellipse cx="0.195391" cy="0.193348" rx="0.195391" ry="0.193348" transform="matrix(0.983645 -0.195757 0.20139 0.976442 10.5918 7.70898)" fill="#2156DC"/>
<ellipse cx="0.195391" cy="0.193348" rx="0.195391" ry="0.193348" transform="matrix(0.983645 -0.195757 0.20139 0.976442 10.2949 9.6582)" fill="#2156DC"/>
<ellipse cx="0.180579" cy="0.178691" rx="0.180579" ry="0.178691" transform="matrix(0.983645 -0.195757 0.20139 0.976442 9.19727 10.5752)" fill="#2156DC"/>
<ellipse cx="0.11049" cy="0.109334" rx="0.11049" ry="0.109334" transform="matrix(0.983645 -0.195757 0.20139 0.976442 9.87695 10.2402)" fill="#2156DC"/>
<ellipse cx="0.150301" cy="0.14873" rx="0.150301" ry="0.14873" transform="matrix(0.983645 -0.195757 0.20139 0.976442 9.23242 9.1748)" fill="#2156DC"/>
<ellipse cx="0.150301" cy="0.14873" rx="0.150301" ry="0.14873" transform="matrix(0.983645 -0.195757 0.20139 0.976442 10.8867 7.15137)" fill="#2156DC"/>
<ellipse cx="0.150301" cy="0.14873" rx="0.150301" ry="0.14873" transform="matrix(0.983645 -0.195757 0.20139 0.976442 11.2031 7.78418)" fill="#2156DC"/>
<ellipse cx="0.150301" cy="0.14873" rx="0.150301" ry="0.14873" transform="matrix(0.983645 -0.195757 0.20139 0.976442 8.80273 10.1523)" fill="#2156DC"/>
<ellipse cx="0.150301" cy="0.14873" rx="0.150301" ry="0.14873" transform="matrix(0.983645 -0.195757 0.20139 0.976442 8.51953 10.9736)" fill="#2156DC"/>
<path d="M5.91406 1.1717C4.07222 1.67105 2.58865 3.01866 1.92631 4.75977" stroke="#79B3FF" stroke-width="0.389551" stroke-linecap="round" stroke-linejoin="round"/>
<path d="M10.3926 11.6749C11.0919 11.2181 11.6871 10.6199 12.1361 9.92188" stroke="#79B3FF" stroke-width="0.389551" stroke-linecap="round" stroke-linejoin="round"/>
<path d="M3.93088 2.13086C3.93088 2.13086 3.33602 2.52041 2.93945 3.10474" stroke="#D7D2FF" stroke-width="0.389551" stroke-linecap="round" stroke-linejoin="round"/>
<path d="M4.72385 3.10449C4.72385 3.10449 4.12899 3.49404 3.73242 4.07837" stroke="white" stroke-width="0.389551" stroke-linecap="round" stroke-linejoin="round"/>
<path d="M7.26799 10.6857L7.38478 10.8927C7.50883 10.8227 7.59189 10.7126 7.62885 10.5771L8.77171 6.38739L10.4452 6.82785C10.5796 6.86323 10.716 6.84911 10.8398 6.77938C10.964 6.7094 11.0471 6.59921 11.0841 6.46362C11.1211 6.32799 11.1054 6.19049 11.0325 6.06722M11.0325 6.06722C11.0326 6.06726 11.0326 6.0673 11.0326 6.06734L10.8279 6.18809L11.0325 6.06722Z" fill="#6194E0" stroke="#023BA5" stroke-width="0.475319"/>
<path d="M7.86657 5.06057C7.62 4.99567 7.42599 4.84984 7.29649 4.63065L7.86657 5.06057ZM7.86657 5.06057C8.11306 5.12545 8.35407 5.09425 8.57612 4.96896L7.86657 5.06057ZM8.34957 3.27378C8.59616 3.33868 8.79016 3.48456 8.91963 3.7038L8.34957 3.27378ZM8.34957 3.27378C8.10307 3.2089 7.86205 3.24015 7.63999 3.36548L8.34957 3.27378ZM8.57617 4.96893C8.79845 4.84356 8.94898 4.65356 9.01586 4.40836C9.08278 4.16305 9.04933 3.92329 8.91969 3.70389L8.57617 4.96893ZM7.6399 3.36554C7.41765 3.49091 7.26713 3.6809 7.20025 3.92609C7.13333 4.17142 7.1668 4.41119 7.29646 4.6306L7.6399 3.36554Z" fill="#6194E0" stroke="#023BA5" stroke-width="0.475319"/>
</svg>
