<svg width="15" height="14" viewBox="0 0 15 14" fill="none" xmlns="http://www.w3.org/2000/svg">
<g opacity="0.2">
<path d="M5.75489 13.4038C9.14087 14.295 12.6395 12.2337 13.574 8.80781C14.5085 5.38195 12.5279 1.8784 9.14188 0.987188C5.75589 0.0959784 2.25723 2.15734 1.32273 5.5832C0.388224 9.00906 2.3689 12.5126 5.75489 13.4038Z" fill="#A56402" stroke="#5B3303" stroke-width="0.389543"/>
<path d="M5.3584 13.0142C8.74439 13.9054 12.2431 11.844 13.1776 8.41816C14.1121 4.9923 12.1314 1.48875 8.74539 0.59754C5.3594 -0.29367 1.86074 1.76769 0.926241 5.19355C-0.00826022 8.61941 1.97241 12.123 5.3584 13.0142Z" fill="#FFB423" stroke="#5B3303" stroke-width="0.389543"/>
<path d="M5.66558 11.8849C8.41821 12.6094 11.2636 10.9163 12.0276 8.11529C12.7917 5.31425 11.1893 2.45055 8.43669 1.72604C5.68405 1.00154 2.8387 2.69457 2.07464 5.49561C1.31057 8.29666 2.91294 11.1604 5.66558 11.8849Z" fill="#FFCF23" stroke="#DF8D12" stroke-width="0.389543"/>
<path fill-rule="evenodd" clip-rule="evenodd" d="M10.7325 3.33738C10.1879 2.86091 9.52936 2.50082 8.78344 2.30449C6.13903 1.60846 3.39792 3.23422 2.66101 5.93573C2.18538 7.67936 2.66091 9.44496 3.76894 10.6649C2.38288 9.45223 1.73509 7.48556 2.26414 5.54608C3.00106 2.84457 5.74216 1.21881 8.38658 1.91484C9.32421 2.16163 10.1238 2.66717 10.7325 3.33738Z" fill="#FFDD65"/>
<ellipse cx="0.279481" cy="0.278681" rx="0.279481" ry="0.278681" transform="matrix(0.913272 -0.407405 0.422682 0.906303 9.90869 8.95044)" fill="#EEBE14"/>
<ellipse cx="0.279481" cy="0.278681" rx="0.279481" ry="0.278681" transform="matrix(0.913272 -0.407405 0.422682 0.906303 11.0427 7.83389)" fill="#EEBE14"/>
<ellipse cx="0.279481" cy="0.278681" rx="0.279481" ry="0.278681" transform="matrix(0.913272 -0.407405 0.422682 0.906303 9.67053 7.7215)" fill="#EEBE14"/>
<ellipse cx="0.194639" cy="0.194081" rx="0.194639" ry="0.194081" transform="matrix(0.913272 -0.407405 0.422682 0.906303 10.437 8.13849)" fill="#EEBE14"/>
<ellipse cx="0.194639" cy="0.194081" rx="0.194639" ry="0.194081" transform="matrix(0.913272 -0.407405 0.422682 0.906303 10.361 7.29385)" fill="#EEBE14"/>
<ellipse cx="0.194639" cy="0.194081" rx="0.194639" ry="0.194081" transform="matrix(0.913272 -0.407405 0.422682 0.906303 11.2561 7.10397)" fill="#EEBE14"/>
<ellipse cx="0.194639" cy="0.194081" rx="0.194639" ry="0.194081" transform="matrix(0.913272 -0.407405 0.422682 0.906303 11.3719 5.90161)" fill="#EEBE14"/>
<ellipse cx="0.194639" cy="0.194081" rx="0.194639" ry="0.194081" transform="matrix(0.913272 -0.407405 0.422682 0.906303 10.7651 6.68851)" fill="#EEBE14"/>
<ellipse cx="0.194639" cy="0.194081" rx="0.194639" ry="0.194081" transform="matrix(0.913272 -0.407405 0.422682 0.906303 10.9254 8.65271)" fill="#EEBE14"/>
<ellipse cx="0.179884" cy="0.179369" rx="0.179884" ry="0.179369" transform="matrix(0.913272 -0.407405 0.422682 0.906303 10.0663 9.7905)" fill="#EEBE14"/>
<ellipse cx="0.110064" cy="0.109749" rx="0.110064" ry="0.109749" transform="matrix(0.913272 -0.407405 0.422682 0.906303 10.6504 9.31351)" fill="#EEBE14"/>
<ellipse cx="0.149722" cy="0.149293" rx="0.149722" ry="0.149293" transform="matrix(0.913272 -0.407405 0.422682 0.906303 9.77771 8.418)" fill="#EEBE14"/>
<ellipse cx="0.149722" cy="0.149293" rx="0.149722" ry="0.149293" transform="matrix(0.913272 -0.407405 0.422682 0.906303 10.9246 6.08011)" fill="#EEBE14"/>
<ellipse cx="0.149722" cy="0.149293" rx="0.149722" ry="0.149293" transform="matrix(0.913272 -0.407405 0.422682 0.906303 11.377 6.62698)" fill="#EEBE14"/>
<ellipse cx="0.149722" cy="0.149293" rx="0.149722" ry="0.149293" transform="matrix(0.913272 -0.407405 0.422682 0.906303 9.58362 9.46542)" fill="#EEBE14"/>
<ellipse cx="0.149722" cy="0.149293" rx="0.149722" ry="0.149293" transform="matrix(0.913272 -0.407405 0.422682 0.906303 9.49854 10.329)" fill="#EEBE14"/>
<path d="M9.19416 5.34607C8.87301 4.85516 8.50724 4.56702 7.68647 4.39631C6.8657 4.22559 5.97799 4.35903 5.7772 5.27152C5.57641 6.184 6.33026 6.65888 7.15103 6.8296C7.97181 7.00032 8.72565 7.4752 8.52486 8.38769C8.32408 9.30017 7.43637 9.43361 6.6156 9.2629C5.79482 9.09218 5.31457 8.6742 5.10791 8.31314" stroke="#C37808" stroke-width="1.55817" stroke-linecap="round" stroke-linejoin="round"/>
<path d="M7.94446 3.18671L7.69557 4.32948" stroke="#C37808" stroke-width="1.55817" stroke-linecap="round" stroke-linejoin="round"/>
<path d="M6.62219 9.25778L6.37331 10.4006" stroke="#C37808" stroke-width="1.55817" stroke-linecap="round" stroke-linejoin="round"/>
<path d="M9.19416 5.34607C8.87301 4.85516 8.50724 4.56702 7.68647 4.39631C6.8657 4.22559 5.97799 4.35903 5.7772 5.27152C5.57641 6.184 6.33026 6.65888 7.15103 6.8296C7.97181 7.00032 8.72565 7.4752 8.52486 8.38769C8.32408 9.30017 7.43637 9.43361 6.6156 9.2629C5.79482 9.09218 5.31457 8.6742 5.10791 8.31314" stroke="#FFB423" stroke-width="0.584314" stroke-linecap="round" stroke-linejoin="round"/>
<path d="M7.94446 3.18671L7.69557 4.32948" stroke="#FFB423" stroke-width="0.584314" stroke-linecap="round" stroke-linejoin="round"/>
<path d="M6.62219 9.25778L6.37331 10.4006" stroke="#FFB423" stroke-width="0.584314" stroke-linecap="round" stroke-linejoin="round"/>
<path d="M5.66333 1.1726C3.82152 1.67194 2.33798 3.01952 1.67565 4.76059" stroke="#FFD179" stroke-width="0.389543" stroke-linecap="round" stroke-linejoin="round"/>
<path d="M10.1423 11.6747C10.8416 11.218 11.4369 10.6198 11.8858 9.92172" stroke="#FFD179" stroke-width="0.389543" stroke-linecap="round" stroke-linejoin="round"/>
<path d="M3.68074 2.13101C3.68074 2.13101 3.08589 2.52055 2.68933 3.10487" stroke="#FFF3D2" stroke-width="0.389543" stroke-linecap="round" stroke-linejoin="round"/>
<path d="M4.47408 3.10477C4.47408 3.10477 3.87923 3.49431 3.48267 4.07862" stroke="white" stroke-width="0.389543" stroke-linecap="round" stroke-linejoin="round"/>
</g>
</svg>
