<svg width="13" height="12" viewBox="0 0 13 12" fill="none" xmlns="http://www.w3.org/2000/svg">
<path d="M5.38532 11.4886C8.2876 12.2525 11.2865 10.4857 12.0875 7.5492C12.8885 4.61275 11.1907 1.60971 8.28845 0.845811C5.38617 0.0819154 2.38732 1.84879 1.58631 4.78525C0.785313 7.7217 2.48304 10.7247 5.38532 11.4886Z" fill="#A56402" stroke="#5B3303" stroke-width="0.333894"/>
<path d="M5.04535 11.1548C7.94763 11.9187 10.9465 10.1518 11.7475 7.21537C12.5485 4.27892 10.8508 1.27588 7.94849 0.511979C5.04621 -0.251916 2.04735 1.51496 1.24635 4.45141C0.445347 7.38787 2.14307 10.3909 5.04535 11.1548Z" fill="#FFB423" stroke="#5B3303" stroke-width="0.333894"/>
<path d="M5.30871 10.1871C7.66811 10.8081 10.107 9.35695 10.7619 6.95606C11.4168 4.55516 10.0433 2.10056 7.68394 1.47956C5.32454 0.858551 2.88567 2.30972 2.23076 4.71062C1.57584 7.11151 2.94931 9.56611 5.30871 10.1871Z" fill="#FFCF23" stroke="#DF8D12" stroke-width="0.333894"/>
<path fill-rule="evenodd" clip-rule="evenodd" d="M9.65337 2.86185C9.18625 2.45267 8.62115 2.14345 7.98098 1.97495C5.71434 1.37836 3.36482 2.77187 2.73318 5.08744C2.32573 6.58113 2.73264 8.09364 3.68122 9.13928C2.49439 8.09968 1.93993 6.41482 2.39317 4.75324C3.02481 2.43766 5.37433 1.04415 7.64098 1.64074C8.44549 1.8525 9.13143 2.2865 9.65337 2.86185Z" fill="#FFDD65"/>
<ellipse cx="0.239555" cy="0.238869" rx="0.239555" ry="0.238869" transform="matrix(0.913272 -0.407405 0.422682 0.906303 8.94556 7.67139)" fill="#EEBE14"/>
<ellipse cx="0.239555" cy="0.238869" rx="0.239555" ry="0.238869" transform="matrix(0.913272 -0.407405 0.422682 0.906303 9.91785 6.71436)" fill="#EEBE14"/>
<ellipse cx="0.239555" cy="0.238869" rx="0.239555" ry="0.238869" transform="matrix(0.913272 -0.407405 0.422682 0.906303 8.74158 6.61816)" fill="#EEBE14"/>
<ellipse cx="0.166833" cy="0.166355" rx="0.166833" ry="0.166355" transform="matrix(0.913272 -0.407405 0.422682 0.906303 9.39844 6.97516)" fill="#EEBE14"/>
<ellipse cx="0.166833" cy="0.166355" rx="0.166833" ry="0.166355" transform="matrix(0.913272 -0.407405 0.422682 0.906303 9.33337 6.2514)" fill="#EEBE14"/>
<ellipse cx="0.166833" cy="0.166355" rx="0.166833" ry="0.166355" transform="matrix(0.913272 -0.407405 0.422682 0.906303 10.1008 6.08862)" fill="#EEBE14"/>
<ellipse cx="0.166833" cy="0.166355" rx="0.166833" ry="0.166355" transform="matrix(0.913272 -0.407405 0.422682 0.906303 10.2 5.0578)" fill="#EEBE14"/>
<ellipse cx="0.166833" cy="0.166355" rx="0.166833" ry="0.166355" transform="matrix(0.913272 -0.407405 0.422682 0.906303 9.67981 5.73273)" fill="#EEBE14"/>
<ellipse cx="0.166833" cy="0.166355" rx="0.166833" ry="0.166355" transform="matrix(0.913272 -0.407405 0.422682 0.906303 9.81726 7.41608)" fill="#EEBE14"/>
<ellipse cx="0.154186" cy="0.153745" rx="0.154186" ry="0.153745" transform="matrix(0.913272 -0.407405 0.422682 0.906303 9.08081 8.39117)" fill="#EEBE14"/>
<ellipse cx="0.0943405" cy="0.0940704" rx="0.0943405" ry="0.0940704" transform="matrix(0.913272 -0.407405 0.422682 0.906303 9.58142 7.98248)" fill="#EEBE14"/>
<ellipse cx="0.128333" cy="0.127966" rx="0.128333" ry="0.127966" transform="matrix(0.913272 -0.407405 0.422682 0.906303 8.83337 7.2149)" fill="#EEBE14"/>
<ellipse cx="0.128333" cy="0.127966" rx="0.128333" ry="0.127966" transform="matrix(0.913272 -0.407405 0.422682 0.906303 9.81653 5.21118)" fill="#EEBE14"/>
<ellipse cx="0.128333" cy="0.127966" rx="0.128333" ry="0.127966" transform="matrix(0.913272 -0.407405 0.422682 0.906303 10.2042 5.67993)" fill="#EEBE14"/>
<ellipse cx="0.128333" cy="0.127966" rx="0.128333" ry="0.127966" transform="matrix(0.913272 -0.407405 0.422682 0.906303 8.66711 8.11304)" fill="#EEBE14"/>
<ellipse cx="0.128333" cy="0.127966" rx="0.128333" ry="0.127966" transform="matrix(0.913272 -0.407405 0.422682 0.906303 8.59399 8.85303)" fill="#EEBE14"/>
<path d="M8.33277 4.58233C8.0575 4.16155 7.74398 3.91458 7.04046 3.76825C6.33694 3.62192 5.57605 3.7363 5.40395 4.51843C5.23185 5.30056 5.878 5.7076 6.58152 5.85393C7.28504 6.00026 7.93119 6.4073 7.75909 7.18943C7.58698 7.97156 6.82609 8.08594 6.12257 7.93961C5.41905 7.79328 5.00741 7.43502 4.83027 7.12553" stroke="#C37808" stroke-width="1.33558" stroke-linecap="round" stroke-linejoin="round"/>
<path d="M7.26184 2.73196L7.04851 3.71148" stroke="#C37808" stroke-width="1.33558" stroke-linecap="round" stroke-linejoin="round"/>
<path d="M6.1283 7.93524L5.91496 8.91476" stroke="#C37808" stroke-width="1.33558" stroke-linecap="round" stroke-linejoin="round"/>
<path d="M8.33277 4.58233C8.0575 4.16155 7.74398 3.91458 7.04046 3.76825C6.33694 3.62192 5.57605 3.7363 5.40395 4.51843C5.23185 5.30056 5.878 5.7076 6.58152 5.85393C7.28504 6.00026 7.93119 6.4073 7.75909 7.18943C7.58698 7.97156 6.82609 8.08594 6.12257 7.93961C5.41905 7.79328 5.00741 7.43502 4.83027 7.12553" stroke="#FFB423" stroke-width="0.500841" stroke-linecap="round" stroke-linejoin="round"/>
<path d="M7.26184 2.73196L7.04851 3.71148" stroke="#FFB423" stroke-width="0.500841" stroke-linecap="round" stroke-linejoin="round"/>
<path d="M6.1283 7.93524L5.91496 8.91476" stroke="#FFB423" stroke-width="0.500841" stroke-linecap="round" stroke-linejoin="round"/>
<path d="M5.30676 1.0046C3.72807 1.4326 2.45646 2.58767 1.88875 4.08002" stroke="#FFD179" stroke-width="0.333894" stroke-linecap="round" stroke-linejoin="round"/>
<path d="M9.14575 10.0064C9.74513 9.6149 10.2554 9.10218 10.6401 8.50385" stroke="#FFD179" stroke-width="0.333894" stroke-linecap="round" stroke-linejoin="round"/>
<path d="M3.60735 1.82669C3.60735 1.82669 3.09748 2.16058 2.75757 2.66143" stroke="#FFF3D2" stroke-width="0.333894" stroke-linecap="round" stroke-linejoin="round"/>
<path d="M4.2874 2.66074C4.2874 2.66074 3.77753 2.99463 3.43762 3.49547" stroke="white" stroke-width="0.333894" stroke-linecap="round" stroke-linejoin="round"/>
</svg>
