<svg width="24" height="23" viewBox="0 0 24 23" fill="none" xmlns="http://www.w3.org/2000/svg">
<g id="Group 1642">
<path id="Vector" d="M11.4814 7.10355L1.68584 8.19703C0.910423 8.28359 0.351996 8.98236 0.438556 9.75777L1.53204 19.5533C1.6186 20.3288 2.31737 20.8872 3.09278 20.8006L12.8884 19.7071C13.6638 19.6206 14.2222 18.9218 14.1356 18.1464L13.0422 8.35083C12.9556 7.57541 12.2568 7.01699 11.4814 7.10355Z" fill="#9747FF" stroke="#282830" stroke-width="0.7"/>
<path id="Vector_2" d="M22.1275 10.3073L12.7032 7.42091C11.9572 7.19243 11.1672 7.61198 10.9387 8.358L8.05232 17.7823C7.82384 18.5283 8.24339 19.3183 8.98941 19.5468L18.4137 22.4332C19.1598 22.6617 19.9498 22.2421 20.1782 21.4961L23.0646 12.0718C23.2931 11.3258 22.8736 10.5358 22.1275 10.3073Z" fill="#E84949" stroke="#282830" stroke-width="0.7"/>
<path id="Vector_3" d="M18.0705 3.25562H5.30012C4.51989 3.25562 3.88738 3.88812 3.88738 4.66835V17.4387C3.88738 18.2189 4.51989 18.8514 5.30012 18.8514H18.0705C18.8507 18.8514 19.4832 18.2189 19.4832 17.4387V4.66835C19.4832 3.88812 18.8507 3.25562 18.0705 3.25562Z" fill="#F2C94C" stroke="#282830" stroke-width="0.673535"/>
<path id="Vector_4" d="M18.0619 9.70849C18.6407 9.32577 19.4446 9.70878 19.4446 10.3673V16.0801C19.4446 16.5272 19.0532 16.8896 18.5702 16.8896H9.93173C9.0811 16.8896 8.73131 15.8791 9.4235 15.4213L18.0619 9.70849Z" fill="#F3D370"/>
<path id="Vector_5" d="M18.0705 3.25562H5.30012C4.51989 3.25562 3.88738 3.88812 3.88738 4.66835V17.4387C3.88738 18.2189 4.51989 18.8514 5.30012 18.8514H18.0705C18.8507 18.8514 19.4832 18.2189 19.4832 17.4387V4.66835C19.4832 3.88812 18.8507 3.25562 18.0705 3.25562Z" stroke="#282830" stroke-width="0.7"/>
<path id="Vector_6" d="M17.8948 8.15864C19.8643 8.67704 21.8894 7.47706 22.429 5.49826C22.9688 3.51948 21.826 1.48569 19.8564 0.967291C17.8868 0.448894 15.8618 1.64888 15.3221 3.62766C14.7823 5.60646 15.9252 7.64024 17.8948 8.15864Z" fill="#F2C94C" stroke="#282830" stroke-width="0.7"/>
<path id="Vector_7" d="M19.9557 3.86419C19.7828 3.59988 19.5858 3.44474 19.1439 3.35284C18.702 3.26092 18.2241 3.33276 18.1159 3.82405C18.0079 4.31534 18.4137 4.57101 18.8556 4.66293C19.2975 4.75485 19.7034 5.01052 19.5953 5.50182C19.4872 5.9931 19.0093 6.06494 18.5674 5.97303C18.1255 5.88112 17.8669 5.65608 17.7557 5.46167" stroke="#282830" stroke-width="0.6" stroke-linecap="round" stroke-linejoin="round"/>
<path id="Vector_8" d="M19.2837 2.70032L19.1498 3.31559" stroke="#282830" stroke-width="0.6" stroke-linecap="round" stroke-linejoin="round"/>
<path id="Vector_9" d="M18.5726 5.96924L18.4387 6.58451" stroke="#282830" stroke-width="0.6" stroke-linecap="round" stroke-linejoin="round"/>
<path id="Vector_10" d="M11.0767 9.54895H6.65557C6.37954 9.54895 6.15577 9.74047 6.15577 9.97673C6.15577 10.213 6.37954 10.4045 6.65557 10.4045H11.0767C11.3527 10.4045 11.5765 10.213 11.5765 9.97673C11.5765 9.74047 11.3527 9.54895 11.0767 9.54895Z" fill="#282830"/>
<path id="Vector_11" d="M15.1422 11.4971H6.65557C6.37954 11.4971 6.15577 11.6886 6.15577 11.9248C6.15577 12.1611 6.37954 12.3526 6.65557 12.3526H15.1422C15.4183 12.3526 15.642 12.1611 15.642 11.9248C15.642 11.6886 15.4183 11.4971 15.1422 11.4971Z" fill="#282830"/>
<path id="Vector_12" d="M15.1424 13.4462H6.65569C6.37966 13.4462 6.15589 13.6377 6.15589 13.8739C6.15589 14.1102 6.37966 14.3017 6.65569 14.3017H15.1424C15.4184 14.3017 15.6422 14.1102 15.6422 13.8739C15.6422 13.6377 15.4184 13.4462 15.1424 13.4462Z" fill="#282830"/>
</g>
</svg>
