<svg width="20" height="18" viewBox="0 0 20 18" fill="none" xmlns="http://www.w3.org/2000/svg">
<path d="M17.3096 5.43997C17.101 4.08439 15.9346 3.08372 14.5631 3.08372H11.2845C10.8957 3.08372 10.5112 3.00213 10.1559 2.84423L8.10761 1.93383C7.75231 1.77593 7.36784 1.69434 6.97904 1.69434H4.14301C2.46244 1.69434 1.1665 3.17453 1.38861 4.84037L2.03699 9.70323C2.22106 11.0837 3.39866 12.1148 4.79139 12.1148H15.0975C16.8006 12.1148 18.1029 10.5967 17.8439 8.91344L17.3096 5.43997Z" fill="#7A2BC3"/>
<path d="M3.00681 11.4664C2.67873 11.0746 2.45566 10.5892 2.38385 10.0506L1.73546 5.18771C1.51335 3.52188 2.80929 2.04168 4.48987 2.04168H7.32589C7.71469 2.04168 8.09917 2.12327 8.45446 2.28118L10.5028 3.19157C10.8581 3.34948 11.2426 3.43107 11.6314 3.43107H14.91C15.584 3.43107 16.2085 3.67276 16.6941 4.07948C16.1809 3.46658 15.411 3.08372 14.5626 3.08372H11.2841C10.8953 3.08372 10.5108 3.00213 10.1555 2.84423L8.10711 1.93383C7.75182 1.77593 7.36735 1.69434 6.97855 1.69434H4.14252C2.46194 1.69434 1.16601 3.17453 1.38812 4.84037L2.0365 9.70323C2.1314 10.415 2.4904 11.0338 3.00681 11.4664Z" fill="#9747FF"/>
<path fill-rule="evenodd" clip-rule="evenodd" d="M0.699991 4.93254L1.34837 9.7954C1.57845 11.521 3.05046 12.8098 4.79137 12.8098H15.0975C17.2263 12.8098 18.8542 10.9122 18.5305 8.80816L17.9962 5.33469C17.7355 3.64022 16.2775 2.38939 14.5631 2.38939H11.2845C10.9929 2.38939 10.7045 2.3282 10.4381 2.20976L8.38973 1.29937C7.94561 1.10199 7.46502 1 6.97902 1H4.14299C2.04227 1 0.422352 2.85025 0.699991 4.93254ZM14.5631 3.08408C15.9346 3.08408 17.101 4.08475 17.3095 5.44033L17.8439 8.9138C18.1029 10.5971 16.8005 12.1151 15.0975 12.1151H4.79137C3.39864 12.1151 2.22104 11.0841 2.03697 9.70358L1.38859 4.84072C1.16648 3.17489 2.46242 1.69469 4.14299 1.69469H6.97902C7.36782 1.69469 7.75229 1.77629 8.10759 1.93419L10.1559 2.84458C10.5112 3.00249 10.8957 3.08408 11.2845 3.08408H14.5631Z" fill="#282830"/>
<path d="M1.38812 7.61966C1.16601 5.95383 2.46194 4.47363 4.14252 4.47363H13.1244C14.5171 4.47363 15.6947 5.50464 15.8788 6.88516L16.5271 11.748C16.7493 13.4138 15.4533 14.894 13.7727 14.894H4.7909C3.39817 14.894 2.22057 13.863 2.0365 12.4825L1.38812 7.61966Z" fill="#C93232"/>
<path fill-rule="evenodd" clip-rule="evenodd" d="M4.1425 3.77832H13.1243C14.8653 3.77832 16.3373 5.06708 16.5673 6.79272L17.2157 11.6556C17.4934 13.7379 15.8734 15.5881 13.7727 15.5881H4.79089C3.04997 15.5881 1.57797 14.2994 1.34788 12.5737L0.699502 7.71086C0.421864 5.62857 2.04179 3.77832 4.1425 3.77832ZM4.1425 4.47301C2.46193 4.47301 1.16599 5.95321 1.3881 7.61904L2.03648 12.4819C2.22055 13.8624 3.39815 14.8934 4.79089 14.8934H13.7727C15.4533 14.8934 16.7492 13.4132 16.5271 11.7474L15.8787 6.88454C15.6947 5.50402 14.5171 4.47301 13.1243 4.47301H4.1425Z" fill="#282830"/>
<path fill-rule="evenodd" clip-rule="evenodd" d="M4.14252 4.47363C2.46194 4.47363 1.16601 5.95383 1.38812 7.61966L2.0365 12.4825C2.1314 13.1943 2.4904 13.8131 3.00681 14.2457C2.67873 13.8539 2.45566 13.3685 2.38385 12.8299L1.73546 7.96701C1.51335 6.30118 2.80929 4.82098 4.48987 4.82098H13.4717C14.1464 4.82098 14.7706 5.06293 15.2558 5.46935C14.743 4.85706 13.9737 4.47363 13.1244 4.47363H4.14252Z" fill="#E84949"/>
<path d="M2.69082 9.60891C2.89937 8.25334 4.06577 7.25267 5.43729 7.25267H8.71588C9.10468 7.25267 9.48915 7.17108 9.84444 7.01317L11.8928 6.10278C12.2481 5.94487 12.6326 5.86328 13.0214 5.86328H15.8574C17.538 5.86328 18.8339 7.34348 18.6118 9.00931L17.9634 13.8722C17.7794 15.2527 16.6018 16.2837 15.209 16.2837H4.90291C3.19984 16.2837 1.89748 14.7657 2.15644 13.0824L2.69082 9.60891Z" fill="#F2C94C"/>
<path d="M19.3009 9.10051L18.6525 13.9634C18.4225 15.689 16.9505 16.9778 15.2095 16.9778H4.90342C2.77458 16.9778 1.14663 15.0802 1.47034 12.9761L2.00472 9.50266C2.2654 7.80819 3.72339 6.55736 5.4378 6.55736H8.71638C9.00798 6.55736 9.29634 6.49616 9.56281 6.37773L11.6112 5.46734C12.0553 5.26996 12.5359 5.16797 13.0219 5.16797H15.8579C17.9586 5.16797 19.5786 7.01822 19.3009 9.10051ZM5.4378 7.25205C4.06627 7.25205 2.89988 8.25272 2.69133 9.60829L2.15695 13.0818C1.89799 14.765 3.20034 16.2831 4.90342 16.2831H15.2095C16.6023 16.2831 17.7799 15.2521 17.9639 13.8716L18.6123 9.00869C18.8344 7.34286 17.5385 5.86266 15.8579 5.86266H13.0219C12.6331 5.86266 12.2486 5.94425 11.8933 6.10216L9.84495 7.01255C9.48966 7.17046 9.10518 7.25205 8.71638 7.25205H5.4378Z" fill="#282830"/>
<path d="M16.2522 8.98864C16.2522 9.37231 15.9412 9.68332 15.5575 9.68332C15.1738 9.68332 14.8628 9.37231 14.8628 8.98864C14.8628 8.60497 15.1738 8.29395 15.5575 8.29395C15.9412 8.29395 16.2522 8.60497 16.2522 8.98864Z" fill="#F2994A"/>
<path fill-rule="evenodd" clip-rule="evenodd" d="M16.9467 8.989C16.9467 9.75634 16.3247 10.3784 15.5574 10.3784C14.79 10.3784 14.168 9.75634 14.168 8.989C14.168 8.22166 14.79 7.59961 15.5574 7.59961C16.3247 7.59961 16.9467 8.22166 16.9467 8.989ZM15.5574 9.68369C15.941 9.68369 16.2521 9.37267 16.2521 8.989C16.2521 8.60533 15.941 8.2943 15.5574 8.2943C15.1737 8.2943 14.8627 8.60533 14.8627 8.989C14.8627 9.37267 15.1737 9.68369 15.5574 9.68369Z" fill="#282830"/>
<path fill-rule="evenodd" clip-rule="evenodd" d="M16.1908 8.70269C16.1036 8.66325 16.0068 8.64128 15.9048 8.64128C15.5212 8.64128 15.2101 8.95232 15.2101 9.33599C15.2101 9.43792 15.2321 9.53472 15.2715 9.62193C15.0305 9.51293 14.8628 9.27037 14.8628 8.98864C14.8628 8.60497 15.1738 8.29395 15.5575 8.29395C15.8392 8.29395 16.0818 8.46166 16.1908 8.70269Z" fill="#FFF3DC"/>
<path fill-rule="evenodd" clip-rule="evenodd" d="M4.09521 13.8522C4.09521 13.6604 4.25073 13.5049 4.44256 13.5049H8.61073C8.80256 13.5049 8.95807 13.6604 8.95807 13.8522C8.95807 14.0441 8.80256 14.1996 8.61073 14.1996H4.44256C4.25073 14.1996 4.09521 14.0441 4.09521 13.8522Z" fill="#282830"/>
<path fill-rule="evenodd" clip-rule="evenodd" d="M4.44238 12.4626C4.44238 12.2707 4.5979 12.1152 4.78973 12.1152H8.9579C9.14973 12.1152 9.30524 12.2707 9.30524 12.4626C9.30524 12.6544 9.14973 12.8099 8.9579 12.8099H4.78973C4.5979 12.8099 4.44238 12.6544 4.44238 12.4626Z" fill="#282830"/>
<path fill-rule="evenodd" clip-rule="evenodd" d="M4.79004 11.0729C4.79004 10.8811 4.94555 10.7256 5.13739 10.7256H6.52677C6.71861 10.7256 6.87412 10.8811 6.87412 11.0729C6.87412 11.2648 6.71861 11.4203 6.52677 11.4203H5.13739C4.94555 11.4203 4.79004 11.2648 4.79004 11.0729Z" fill="#282830"/>
</svg>
