<svg width="23" height="22" viewBox="0 0 23 22" fill="none" xmlns="http://www.w3.org/2000/svg">
<g id="Group 714">
<path id="Rectangle 220" d="M1.28572 11.001C1.28572 5.35983 5.85881 0.786743 11.5 0.786743C17.1412 0.786743 21.7143 5.35983 21.7143 11.001C21.7143 16.6422 17.1412 21.2153 11.5 21.2153C5.85881 21.2153 1.28572 16.6422 1.28572 11.001Z" fill="#C93232"/>
<path id="Rectangle 220 (Stroke)" fill-rule="evenodd" clip-rule="evenodd" d="M11.5 22.001C5.42487 22.001 0.5 17.0761 0.5 11.001C0.5 4.92584 5.42487 0.000976562 11.5 0.000976562C17.5751 0.000976562 22.5 4.92584 22.5 11.001C22.5 17.0761 17.5751 22.001 11.5 22.001ZM11.5 0.786691C5.85881 0.786691 1.28571 5.35978 1.28571 11.001C1.28571 16.6422 5.85881 21.2153 11.5 21.2153C17.1412 21.2153 21.7143 16.6422 21.7143 11.001C21.7143 5.35978 17.1412 0.786691 11.5 0.786691Z" fill="#282830"/>
<path id="Subtract" fill-rule="evenodd" clip-rule="evenodd" d="M11.5 0.786743C5.85881 0.786743 1.28572 5.35983 1.28572 11.001C1.28572 13.9215 2.51143 16.5558 4.47649 18.4174C2.74228 16.5868 1.67857 14.1146 1.67857 11.3939C1.67857 5.75269 6.25166 1.1796 11.8929 1.1796C14.6135 1.1796 17.0858 2.2433 18.9164 3.97752C17.0548 2.01245 14.4205 0.786743 11.5 0.786743Z" fill="#E84949"/>
<path id="Rectangle 239" d="M3.25 11.001C3.25 6.44463 6.94365 2.75098 11.5 2.75098C16.0563 2.75098 19.75 6.44463 19.75 11.001C19.75 15.5573 16.0563 19.251 11.5 19.251C6.94365 19.251 3.25 15.5573 3.25 11.001Z" fill="#E84949"/>
<path id="Rectangle 240" d="M5.21429 11.0009C5.21429 7.52942 8.0285 4.71521 11.5 4.71521C14.9715 4.71521 17.7857 7.52942 17.7857 11.0009C17.7857 14.4724 14.9715 17.2866 11.5 17.2866C8.0285 17.2866 5.21429 14.4724 5.21429 11.0009Z" fill="#F2C94C"/>
<path id="Rectangle 240 (Stroke)" fill-rule="evenodd" clip-rule="evenodd" d="M11.5 18.0724C7.59456 18.0724 4.42857 14.9064 4.42857 11.001C4.42857 7.09555 7.59456 3.92957 11.5 3.92957C15.4054 3.92957 18.5714 7.09555 18.5714 11.001C18.5714 14.9064 15.4054 18.0724 11.5 18.0724ZM11.5 4.71528C8.0285 4.71528 5.21429 7.52949 5.21429 11.001C5.21429 14.4725 8.0285 17.2867 11.5 17.2867C14.9715 17.2867 17.7857 14.4725 17.7857 11.001C17.7857 7.52949 14.9715 4.71528 11.5 4.71528Z" fill="#282830"/>
<path id="Subtract_2" fill-rule="evenodd" clip-rule="evenodd" d="M11.5 4.71521C8.0285 4.71521 5.21429 7.52942 5.21429 11.0009C5.21429 12.8366 6.00119 14.4885 7.25608 15.6377C6.23201 14.5195 5.60714 13.0296 5.60714 11.3938C5.60714 7.92228 8.42135 5.10807 11.8929 5.10807C13.5287 5.10807 15.0185 5.73294 16.1368 6.757C14.9876 5.50211 13.3357 4.71521 11.5 4.71521Z" fill="#E0B01D"/>
<path id="Rectangle 241" d="M7.57143 11.001C7.57143 8.83127 9.33031 7.07239 11.5 7.07239C13.6697 7.07239 15.4286 8.83127 15.4286 11.001C15.4286 13.1706 13.6697 14.9295 11.5 14.9295C9.33031 14.9295 7.57143 13.1706 7.57143 11.001Z" fill="#E84949"/>
<path id="Rectangle 241 (Stroke)" fill-rule="evenodd" clip-rule="evenodd" d="M11.5 15.7153C8.89637 15.7153 6.78571 13.6047 6.78571 11.001C6.78571 8.3974 8.89637 6.28674 11.5 6.28674C14.1036 6.28674 16.2143 8.3974 16.2143 11.001C16.2143 13.6047 14.1036 15.7153 11.5 15.7153ZM11.5 7.07246C9.33031 7.07246 7.57143 8.83134 7.57143 11.001C7.57143 13.1707 9.33031 14.9296 11.5 14.9296C13.6697 14.9296 15.4286 13.1707 15.4286 11.001C15.4286 8.83134 13.6697 7.07246 11.5 7.07246Z" fill="#C93232"/>
<path id="Rectangle 242" d="M9.53571 11.001C9.53571 9.91618 10.4152 9.03674 11.5 9.03674C12.5848 9.03674 13.4643 9.91618 13.4643 11.001C13.4643 12.0859 12.5848 12.9653 11.5 12.9653C10.4152 12.9653 9.53571 12.0859 9.53571 11.001Z" fill="#F2C94C"/>
<path id="Rectangle 242 (Stroke)" fill-rule="evenodd" clip-rule="evenodd" d="M11.5 13.751C9.98122 13.751 8.75 12.5198 8.75 11.001C8.75 9.48219 9.98122 8.25098 11.5 8.25098C13.0188 8.25098 14.25 9.48219 14.25 11.001C14.25 12.5198 13.0188 13.751 11.5 13.751ZM11.5 9.03669C10.4152 9.03669 9.53571 9.91613 9.53571 11.001C9.53571 12.0858 10.4152 12.9653 11.5 12.9653C12.5848 12.9653 13.4643 12.0858 13.4643 11.001C13.4643 9.91613 12.5848 9.03669 11.5 9.03669Z" fill="#282830"/>
<path id="Subtract_3" fill-rule="evenodd" clip-rule="evenodd" d="M11.5 9.03674C10.4152 9.03674 9.53571 9.91618 9.53571 11.001C9.53571 11.6436 9.84429 12.2142 10.3213 12.5725C10.0747 12.2442 9.92857 11.8361 9.92857 11.3939C9.92857 10.309 10.808 9.4296 11.8929 9.4296C12.3351 9.4296 12.7432 9.57575 13.0715 9.82238C12.7131 9.34532 12.1426 9.03674 11.5 9.03674Z" fill="#E0B01D"/>
<path id="Vector 542 (Stroke)" fill-rule="evenodd" clip-rule="evenodd" d="M18.9643 0.000976562C19.6152 0.000976562 20.1429 0.528641 20.1429 1.17955V2.35812H21.3214C21.9723 2.35812 22.5 2.88578 22.5 3.53669C22.5 4.1876 21.9723 4.71526 21.3214 4.71526H18.9643C18.3134 4.71526 17.7857 4.1876 17.7857 3.53669V1.17955C17.7857 0.528641 18.3134 0.000976562 18.9643 0.000976562Z" fill="#2D2D35"/>
<path id="Vector 543 (Stroke)" fill-rule="evenodd" clip-rule="evenodd" d="M17.3929 1.57239C18.0438 1.57239 18.5714 2.10005 18.5714 2.75096V3.92953H19.75C20.4009 3.92953 20.9286 4.4572 20.9286 5.1081C20.9286 5.75901 20.4009 6.28667 19.75 6.28667H17.3929C16.7419 6.28667 16.2143 5.75901 16.2143 5.1081V2.75096C16.2143 2.10005 16.7419 1.57239 17.3929 1.57239Z" fill="#2D2D35"/>
<path id="Vector 284 (Stroke)" fill-rule="evenodd" clip-rule="evenodd" d="M18.6543 3.84659C18.893 4.08525 18.893 4.47218 18.6543 4.71083L12.5432 10.8219C12.3046 11.0606 11.9176 11.0606 11.679 10.8219C11.4403 10.5833 11.4403 10.1964 11.679 9.9577L17.7901 3.84659C18.0288 3.60794 18.4157 3.60794 18.6543 3.84659Z" fill="#2D2D35"/>
<path id="Vector 547 (Stroke)" fill-rule="evenodd" clip-rule="evenodd" d="M18.9643 0.786743C19.1813 0.786743 19.3571 0.962631 19.3571 1.1796V3.14389H21.3214C21.5384 3.14389 21.7143 3.31977 21.7143 3.53674C21.7143 3.75371 21.5384 3.9296 21.3214 3.9296H18.9643C18.7473 3.9296 18.5714 3.75371 18.5714 3.53674V1.1796C18.5714 0.962631 18.7473 0.786743 18.9643 0.786743Z" fill="#F2C94C"/>
<path id="Vector 546 (Stroke)" fill-rule="evenodd" clip-rule="evenodd" d="M17.3929 2.35815C17.6098 2.35815 17.7857 2.53404 17.7857 2.75101V4.7153H19.75C19.967 4.7153 20.1429 4.89119 20.1429 5.10815C20.1429 5.32512 19.967 5.50101 19.75 5.50101H17.3929C17.1759 5.50101 17 5.32512 17 5.10815V2.75101C17 2.53404 17.1759 2.35815 17.3929 2.35815Z" fill="#F2C94C"/>
</g>
</svg>
