<svg width="23" height="20" viewBox="0 0 23 20" fill="none" xmlns="http://www.w3.org/2000/svg">
<g id="Group 1641">
<g id="Group 745">
<path id="Rectangle 276" d="M20.4342 5.65026C20.1793 3.99344 18.7537 2.77041 17.0774 2.77041H13.0702C12.595 2.77041 12.1251 2.67068 11.6909 2.47769L9.1873 1.36499C8.75306 1.17199 8.28314 1.07227 7.80794 1.07227H4.34168C2.28765 1.07227 0.703726 2.8814 0.975195 4.91741L1.76766 10.8609C1.99263 12.5482 3.43192 13.8083 5.13415 13.8083H17.7305C19.8121 13.8083 21.4038 11.9529 21.0873 9.89561L20.4342 5.65026Z" fill="#7A2BC3"/>
<path id="Subtract" d="M2.95318 13.0159C2.55219 12.5371 2.27955 11.9438 2.19178 11.2854L1.39931 5.34195C1.12784 3.30593 2.71177 1.4968 4.7658 1.4968H8.23206C8.70726 1.4968 9.17717 1.59652 9.61142 1.78952L12.115 2.90222C12.5492 3.09522 13.0192 3.19494 13.4944 3.19494H17.5015C18.3253 3.19494 19.0886 3.49034 19.6821 3.98744C19.0548 3.23835 18.1139 2.77041 17.077 2.77041H13.0698C12.5946 2.77041 12.1247 2.67068 11.6905 2.47769L9.18688 1.36499C8.75264 1.17199 8.28272 1.07227 7.80752 1.07227H4.34127C2.28723 1.07227 0.703306 2.8814 0.974775 4.91741L1.76724 10.8609C1.88323 11.7308 2.32201 12.4872 2.95318 13.0159Z" fill="#9747FF"/>
<path id="Rectangle 276 (Stroke)" fill-rule="evenodd" clip-rule="evenodd" d="M0.13339 5.02958L0.925858 10.9731C1.20707 13.0822 3.00619 14.6573 5.13397 14.6573H17.7304C20.3323 14.6573 22.322 12.3381 21.9263 9.76646L21.2732 5.5211C20.9546 3.45008 19.1726 1.92129 17.0772 1.92129H13.0701C12.7137 1.92129 12.3612 1.84649 12.0355 1.70175L9.53196 0.589045C8.98915 0.347798 8.40176 0.223145 7.80776 0.223145H4.3415C1.77396 0.223145 -0.205946 2.48456 0.13339 5.02958ZM17.0772 2.77036C18.7535 2.77036 20.1791 3.99339 20.434 5.65021L21.0871 9.89556C21.4037 11.9529 19.8119 13.8083 17.7304 13.8083H5.13397C3.43174 13.8083 1.99245 12.5482 1.76748 10.8609L0.975014 4.91736C0.703545 2.88135 2.28747 1.07222 4.3415 1.07222H7.80776C8.28296 1.07222 8.75288 1.17194 9.18712 1.36494L11.6907 2.47764C12.1249 2.67063 12.5949 2.77036 13.0701 2.77036H17.0772Z" fill="#282830"/>
<path id="Rectangle 277" d="M0.974775 8.31365C0.703306 6.27764 2.28723 4.46851 4.34127 4.46851H15.3191C17.0213 4.46851 18.4606 5.72863 18.6856 7.41592L19.478 13.3594C19.7495 15.3954 18.1656 17.2046 16.1115 17.2046H5.13373C3.43151 17.2046 1.99221 15.9444 1.76724 14.2571L0.974775 8.31365Z" fill="#C93232"/>
<path id="Rectangle 277 (Stroke)" fill-rule="evenodd" clip-rule="evenodd" d="M4.34141 3.61938H15.3192C17.447 3.61938 19.2461 5.19454 19.5273 7.30366L20.3198 13.2472C20.6591 15.7922 18.6792 18.0536 16.1117 18.0536H5.13388C3.00609 18.0536 1.20698 16.4784 0.925763 14.3693L0.133297 8.42582C-0.20604 5.8808 1.77387 3.61938 4.34141 3.61938ZM4.34141 4.46846C2.28737 4.46846 0.70345 6.27759 0.974919 8.3136L1.76739 14.2571C1.99236 15.9444 3.43165 17.2045 5.13388 17.2045H16.1117C18.1657 17.2045 19.7496 15.3954 19.4782 13.3594L18.6857 7.41587C18.4607 5.72858 17.0214 4.46846 15.3192 4.46846H4.34141Z" fill="#282830"/>
<path id="Subtract_2" fill-rule="evenodd" clip-rule="evenodd" d="M4.34127 4.46851C2.28723 4.46851 0.703306 6.27764 0.974775 8.31365L1.76724 14.2571C1.88323 15.1271 2.32201 15.8834 2.95318 16.4121C2.55219 15.9333 2.27955 15.34 2.19178 14.6817L1.39931 8.73819C1.12784 6.70217 2.71177 4.89304 4.7658 4.89304H15.7436C16.5682 4.89304 17.3311 5.18876 17.9242 5.68549C17.2974 4.93714 16.3571 4.46851 15.3191 4.46851H4.34127Z" fill="#E84949"/>
<path id="Rectangle 275" d="M2.56645 10.7446C2.82134 9.08781 4.24693 7.86477 5.92324 7.86477H9.9304C10.4056 7.86477 10.8755 7.76505 11.3098 7.57205L13.8133 6.45935C14.2476 6.26635 14.7175 6.16663 15.1927 6.16663H18.659C20.713 6.16663 22.2969 7.97576 22.0254 10.0118L21.233 15.9553C21.008 17.6426 19.5687 18.9027 17.8665 18.9027H5.2701C3.18857 18.9027 1.5968 17.0473 1.91331 14.99L2.56645 10.7446Z" fill="#F2C94C"/>
<g id="Rectangle 275 (Stroke)">
<path d="M22.8673 10.1241L22.0748 16.0676C21.7936 18.1767 19.9945 19.7518 17.8667 19.7518H5.27029C2.66837 19.7518 0.678663 17.4326 1.0743 14.8609L1.72743 10.6156C2.04605 8.54457 3.82804 7.01577 5.92342 7.01577H9.93058C10.287 7.01577 10.6394 6.94098 10.9651 6.79623L13.4687 5.68353C14.0115 5.44228 14.5989 5.31763 15.1929 5.31763H18.6591C21.2267 5.31763 23.2066 7.57904 22.8673 10.1241ZM5.92342 7.86484C4.24711 7.86484 2.82153 9.08788 2.56663 10.7447L1.9135 14.99C1.59699 17.0474 3.18876 18.9028 5.27029 18.9028H17.8667C19.5689 18.9028 21.0082 17.6426 21.2332 15.9553L22.0256 10.0118C22.2971 7.97583 20.7132 6.1667 18.6591 6.1667H15.1929C14.7177 6.1667 14.2478 6.26642 13.8135 6.45942L11.3099 7.57212C10.8757 7.76512 10.4058 7.86484 9.93058 7.86484H5.92342Z" fill="#282830"/>
<path d="M22.8673 10.1241L22.0748 16.0676C21.7936 18.1767 19.9945 19.7518 17.8667 19.7518H5.27029C2.66837 19.7518 0.678663 17.4326 1.0743 14.8609L1.72743 10.6156C2.04605 8.54457 3.82804 7.01577 5.92342 7.01577H9.93058C10.287 7.01577 10.6394 6.94098 10.9651 6.79623L13.4687 5.68353C14.0115 5.44228 14.5989 5.31763 15.1929 5.31763H18.6591C21.2267 5.31763 23.2066 7.57904 22.8673 10.1241ZM5.92342 7.86484C4.24711 7.86484 2.82153 9.08788 2.56663 10.7447L1.9135 14.99C1.59699 17.0474 3.18876 18.9028 5.27029 18.9028H17.8667C19.5689 18.9028 21.0082 17.6426 21.2332 15.9553L22.0256 10.0118C22.2971 7.97583 20.7132 6.1667 18.6591 6.1667H15.1929C14.7177 6.1667 14.2478 6.26642 13.8135 6.45942L11.3099 7.57212C10.8757 7.76512 10.4058 7.86484 9.93058 7.86484H5.92342Z" stroke="#282830"/>
</g>
<g id="Group 744">
<path id="Ellipse 303" d="M19.1422 9.98738C19.1422 10.4563 18.7621 10.8364 18.2932 10.8364C17.8242 10.8364 17.4441 10.4563 17.4441 9.98738C17.4441 9.51845 17.8242 9.13831 18.2932 9.13831C18.7621 9.13831 19.1422 9.51845 19.1422 9.98738Z" fill="#F2994A"/>
<path id="Ellipse 303 (Stroke)" fill-rule="evenodd" clip-rule="evenodd" d="M19.991 9.98745C19.991 10.9253 19.2307 11.6856 18.2929 11.6856C17.355 11.6856 16.5947 10.9253 16.5947 9.98745C16.5947 9.04959 17.355 8.28931 18.2929 8.28931C19.2307 8.28931 19.991 9.04959 19.991 9.98745ZM18.2929 10.8365C18.7618 10.8365 19.142 10.4564 19.142 9.98745C19.142 9.51852 18.7618 9.13838 18.2929 9.13838C17.824 9.13838 17.4438 9.51852 17.4438 9.98745C17.4438 10.4564 17.824 10.8365 18.2929 10.8365Z" fill="#282830"/>
<path id="Subtract_3" fill-rule="evenodd" clip-rule="evenodd" d="M19.0672 9.63788C18.9606 9.58968 18.8423 9.56284 18.7177 9.56284C18.2488 9.56284 17.8686 9.94298 17.8686 10.4119C17.8686 10.5365 17.8955 10.6548 17.9437 10.7614C17.6491 10.6282 17.4441 10.3317 17.4441 9.98738C17.4441 9.51845 17.8242 9.13831 18.2932 9.13831C18.6375 9.13831 18.934 9.34328 19.0672 9.63788Z" fill="#FFF3DC"/>
</g>
<path id="Vector 558 (Stroke)" fill-rule="evenodd" clip-rule="evenodd" d="M4.28322 15.931C4.28322 15.6965 4.47329 15.5065 4.70775 15.5065H9.80218C10.0366 15.5065 10.2267 15.6965 10.2267 15.931C10.2267 16.1655 10.0366 16.3555 9.80218 16.3555H4.70775C4.47329 16.3555 4.28322 16.1655 4.28322 15.931Z" fill="#282830"/>
<path id="Vector 557 (Stroke)" fill-rule="evenodd" clip-rule="evenodd" d="M4.70775 14.2328C4.70775 13.9983 4.89782 13.8082 5.13228 13.8082H10.2267C10.4612 13.8082 10.6512 13.9983 10.6512 14.2328C10.6512 14.4672 10.4612 14.6573 10.2267 14.6573H5.13228C4.89782 14.6573 4.70775 14.4672 4.70775 14.2328Z" fill="#282830"/>
<path id="Vector 556 (Stroke)" fill-rule="evenodd" clip-rule="evenodd" d="M5.13229 12.5346C5.13229 12.3002 5.32236 12.1101 5.55682 12.1101H7.25496C7.48943 12.1101 7.6795 12.3002 7.6795 12.5346C7.6795 12.7691 7.48943 12.9592 7.25496 12.9592H5.55682C5.32236 12.9592 5.13229 12.7691 5.13229 12.5346Z" fill="#282830"/>
</g>
</g>
</svg>
