<svg width="21" height="24" viewBox="0 0 21 24" fill="none" xmlns="http://www.w3.org/2000/svg">
<g id="Group 1643">
<path id="Vector" d="M16.1125 10.098C16.5589 10.098 16.9208 9.73614 16.9208 9.28978C16.9208 8.84342 16.5589 8.48157 16.1125 8.48157C15.6662 8.48157 15.3043 8.84342 15.3043 9.28978C15.3043 9.73614 15.6662 10.098 16.1125 10.098Z" fill="#C89D19"/>
<path id="Vector_2" d="M12.3374 8.58379C12.3469 7.85299 12.942 7.26554 13.6729 7.26553L17.4375 7.2655C18.0815 7.26549 18.6337 7.72496 18.7509 8.35815L20.5895 18.2983C20.7414 19.1193 20.1112 19.8768 19.2762 19.8768H13.5441C12.7997 19.8768 12.1989 19.2683 12.2086 18.5239L12.3374 8.58379Z" fill="#F2C94C" stroke="#282830" stroke-width="0.659438"/>
<path id="Vector_3" d="M4.04046 7.42496C3.55493 6.5153 4.23957 5.42193 5.26993 5.46149L12.1793 5.72674C12.7945 5.75036 13.3138 6.19133 13.4367 6.79449L16.295 20.812C16.4355 21.5017 16.0169 22.1821 15.3379 22.3673L13.4663 22.8781C12.8649 23.0422 12.2299 22.7685 11.9365 22.2185L4.04046 7.42496Z" fill="#E84949" stroke="#282830" stroke-width="0.659438"/>
<path id="Vector_4" d="M2.48395 6.57925C2.56848 5.90299 3.15633 5.40379 3.83736 5.42994L11.9646 5.74194C12.6409 5.76791 13.1867 6.30358 13.2253 6.97926L14.0631 21.6457C14.1088 22.446 13.433 23.1002 12.6345 23.0285L1.91739 22.0658C1.17722 21.9994 0.639653 21.3324 0.731837 20.595L2.48395 6.57925Z" fill="#E84949" stroke="#282830" stroke-width="0.696073"/>
<path id="Vector_5" d="M2.46051 6.57653C2.54649 5.88873 3.14436 5.38102 3.837 5.40761L11.9643 5.71962C12.652 5.74602 13.2071 6.29084 13.2464 6.97804L14.0842 21.6445C14.1307 22.4584 13.4434 23.1238 12.6313 23.0508L1.91418 22.0882C1.16138 22.0205 0.614652 21.3422 0.708407 20.5923L2.46051 6.57653Z" fill="#C93232" stroke="#282830" stroke-width="0.659438"/>
<path id="Vector_6" d="M9.52733 13.5178C9.09889 13.0363 8.65478 12.7824 7.73525 12.7298C6.81572 12.6772 5.87271 12.9659 5.80225 13.99C5.73179 15.0141 6.62784 15.4079 7.54737 15.4607C8.46688 15.5133 9.36293 15.9072 9.29247 16.9312C9.22202 17.9553 8.279 18.2441 7.35947 18.1915C6.43995 18.1388 5.85041 17.7623 5.5674 17.4034" stroke="#282830" stroke-width="1.59102" stroke-linecap="round" stroke-linejoin="round"/>
<path id="Vector_7" d="M7.8193 11.3728L7.73386 12.6549" stroke="#282830" stroke-width="1.59102" stroke-linecap="round" stroke-linejoin="round"/>
<path id="Vector_8" d="M7.36541 18.1851L7.27997 19.4671" stroke="#282830" stroke-width="1.59102" stroke-linecap="round" stroke-linejoin="round"/>
<path id="Vector_9" d="M9.52733 13.5178C9.09889 13.0363 8.65478 12.7824 7.73525 12.7298C6.81572 12.6772 5.87271 12.9659 5.80225 13.99C5.73179 15.0141 6.62784 15.4079 7.54737 15.4607C8.46688 15.5133 9.36293 15.9072 9.29247 16.9312C9.22202 17.9553 8.279 18.2441 7.35947 18.1915C6.43995 18.1388 5.85041 17.7623 5.5674 17.4034" stroke="#E0B01D" stroke-width="0.525231" stroke-linecap="round" stroke-linejoin="round"/>
<path id="Vector_10" d="M7.8193 11.3728L7.73386 12.6549" stroke="#E0B01D" stroke-width="0.525231" stroke-linecap="round" stroke-linejoin="round"/>
<path id="Vector_11" d="M7.36541 18.1851L7.27997 19.4671" stroke="#E0B01D" stroke-width="0.525231" stroke-linecap="round" stroke-linejoin="round"/>
<path id="Vector_12" d="M5.64473 7.83775C3.08771 -0.440165 13.4841 -2.03603 9.6544 8.11455" stroke="#282830" stroke-width="0.894951" stroke-linecap="round" stroke-linejoin="round"/>
<path id="Vector_13" d="M12.1877 5.5947C11.8411 3.74722 16.4594 1.78447 15.986 9.50159" stroke="#282830" stroke-width="0.894951" stroke-linecap="round" stroke-linejoin="round"/>
</g>
</svg>
