<svg width="23" height="24" viewBox="0 0 23 24" fill="none" xmlns="http://www.w3.org/2000/svg">
<g id="Group 1540">
<path id="Rectangle 79" d="M4.25117 1.26206C3.47107 1.26206 2.83867 1.89446 2.83867 2.67456V21.3273C2.83867 22.1074 3.47107 22.7398 4.25117 22.7398H18.7484C19.5285 22.7398 20.1609 22.1074 20.1609 21.3273V2.67456C20.1609 1.89446 19.5285 1.26206 18.7484 1.26206H4.25117Z" fill="#C93232" stroke="#282830" stroke-width="0.7" stroke-linejoin="round"/>
<path id="Rectangle 33" d="M3.18867 5.24866H19.8109V21.3278C19.8109 21.9146 19.3352 22.3903 18.7484 22.3903H4.25117C3.66437 22.3903 3.18867 21.9146 3.18867 21.3278V5.24866Z" fill="#F2C94C"/>
<g id="Group 1539">
<path id="Rectangle 80" d="M17.733 22.2211H18.083V21.8711V12.6155C18.083 12.2266 17.7677 11.9114 17.3788 11.9114H12.3733C11.9844 11.9114 11.6691 12.2266 11.6691 12.6155V21.8711V22.2211H12.0191H17.733Z" fill="#CA693F" stroke="#282830" stroke-width="0.7"/>
<path id="Vector 1724" d="M13.3176 15.8981V16.6772" stroke="#282830" stroke-width="0.7" stroke-linecap="round" stroke-linejoin="round"/>
</g>
<rect id="Rectangle 78" x="3.18867" y="9.92334" width="16.6222" height="0.779167" fill="#EC7913"/>
<g id="Group 1541">
<path id="Rectangle 33_2" d="M20.2221 5.28657C20.1028 5.04801 19.8589 4.89731 19.5922 4.89731H3.40778C3.14106 4.89731 2.89723 5.04801 2.77795 5.28657L1.05434 8.73379C0.820242 9.20199 1.1607 9.75287 1.68417 9.75287H21.3158C21.8393 9.75287 22.1798 9.20199 21.9457 8.73379L20.2221 5.28657ZM20.2221 5.28657L19.9093 5.44292L20.2221 5.28657L20.2221 5.28657Z" fill="#E84949" stroke="#282830" stroke-width="0.7"/>
<path id="Vector 1710" d="M1.89005 9.14319H21.1095" stroke="#F67B7B" stroke-width="0.7" stroke-linecap="round" stroke-linejoin="round"/>
</g>
<g id="Group 1542">
<path id="Union" d="M20.3306 22.7399C21.3845 22.7399 22.2389 21.8855 22.2389 20.8315C22.2389 20.0572 21.7779 19.3913 21.1161 19.092C20.8016 17.8025 19.6393 16.8454 18.2528 16.8454C17.295 16.8454 16.4443 17.3025 15.9063 18.0091C15.664 17.9281 15.4049 17.8843 15.1361 17.8843C14.1498 17.8843 13.3013 18.4723 12.9213 19.3166C12.6806 19.1978 12.4096 19.131 12.1233 19.131C11.9497 19.131 11.7813 19.1556 11.6219 19.2017C11.2247 18.7152 10.6197 18.4038 9.94167 18.4038C9.60758 18.4038 9.29076 18.4795 9.00785 18.6147C8.55331 17.5734 7.5148 16.8454 6.30556 16.8454C5.3478 16.8454 4.49703 17.3025 3.95909 18.0091C3.7168 17.9281 3.45771 17.8843 3.18889 17.8843C1.84807 17.8843 0.761115 18.9713 0.761115 20.3121C0.761115 21.6529 1.84807 22.7399 3.18889 22.7399H20.3306Z" fill="#8CB714" stroke="#282830" stroke-width="0.7" stroke-linejoin="round"/>
<g id="Group 1537">
<circle id="Ellipse 766" cx="18.6426" cy="20.1822" r="0.389584" fill="#77A000"/>
<ellipse id="Ellipse 783" cx="17.0842" cy="21.4808" rx="0.389584" ry="0.389583" fill="#77A000"/>
<circle id="Ellipse 784" cx="19.1617" cy="19.1429" r="0.389584" fill="#77A000"/>
<circle id="Ellipse 767" cx="17.084" cy="19.9223" r="0.649305" fill="#77A000"/>
<circle id="Ellipse 768" cx="20.3309" cy="20.5713" r="0.519444" fill="#77A000"/>
<circle id="Ellipse 769" cx="18.5126" cy="21.6106" r="0.519444" fill="#77A000"/>
<circle id="Ellipse 770" cx="7.86391" cy="21.091" r="0.519444" fill="#77A000"/>
<ellipse id="Ellipse 771" cx="6.43544" cy="20.4415" rx="0.389583" ry="0.389584" fill="#77A000"/>
<ellipse id="Ellipse 777" cx="5.91633" cy="21.4808" rx="0.389583" ry="0.389583" fill="#77A000"/>
<ellipse id="Ellipse 775" cx="9.03266" cy="20.1822" rx="0.389583" ry="0.389584" fill="#77A000"/>
<ellipse id="Ellipse 776" cx="10.3313" cy="21.4808" rx="0.389583" ry="0.389583" fill="#77A000"/>
<ellipse id="Ellipse 772" cx="4.48786" cy="21.3509" rx="0.259722" ry="0.259722" fill="#77A000"/>
<ellipse id="Ellipse 773" cx="5.2668" cy="20.0523" rx="0.259722" ry="0.259723" fill="#77A000"/>
<ellipse id="Ellipse 774" cx="7.34435" cy="19.5327" rx="0.259722" ry="0.259722" fill="#77A000"/>
<ellipse id="Ellipse 778" cx="3.44852" cy="21.6102" rx="0.259722" ry="0.259723" fill="#77A000"/>
<ellipse id="Ellipse 779" cx="10.9809" cy="20.3116" rx="0.259722" ry="0.259723" fill="#77A000"/>
<ellipse id="Ellipse 780" cx="9.42247" cy="21.0918" rx="0.259722" ry="0.259722" fill="#77A000"/>
<ellipse id="Ellipse 781" cx="12.0197" cy="21.6102" rx="0.259722" ry="0.259723" fill="#77A000"/>
<circle id="Ellipse 782" cx="17.9931" cy="18.7537" r="0.259723" fill="#77A000"/>
<circle id="Ellipse 785" cx="19.8114" cy="21.6102" r="0.259723" fill="#77A000"/>
<ellipse id="Ellipse 786" cx="21.11" cy="21.0918" rx="0.259723" ry="0.259722" fill="#77A000"/>
<ellipse id="Ellipse 787" cx="14.6169" cy="21.6102" rx="0.259722" ry="0.259723" fill="#77A000"/>
<ellipse id="Ellipse 788" cx="15.3959" cy="20.8313" rx="0.259722" ry="0.259722" fill="#77A000"/>
<ellipse id="Ellipse 790" cx="16.1754" cy="21.3509" rx="0.259722" ry="0.259722" fill="#77A000"/>
</g>
</g>
</g>
</svg>
