<svg width="14" height="14" viewBox="0 0 14 14" fill="none" xmlns="http://www.w3.org/2000/svg">
<path d="M4.66675 12.8332C4.34591 12.8332 4.07126 12.7189 3.84279 12.4905C3.61432 12.262 3.50008 11.9873 3.50008 11.6665V10.4998H2.33341C2.01258 10.4998 1.73793 10.3856 1.50946 10.1571C1.28098 9.92866 1.16675 9.654 1.16675 9.33317V8.74984C1.16675 8.58456 1.22265 8.44602 1.33446 8.33421C1.44626 8.22241 1.5848 8.1665 1.75008 8.1665C1.91536 8.1665 2.0539 8.22241 2.16571 8.33421C2.27751 8.44602 2.33341 8.58456 2.33341 8.74984V9.33317H3.50008V4.6665C3.50008 4.34567 3.61432 4.07102 3.84279 3.84255C4.07126 3.61407 4.34591 3.49984 4.66675 3.49984H9.33342V2.33317H8.75008C8.5848 2.33317 8.44626 2.27727 8.33446 2.16546C8.22265 2.05366 8.16675 1.91511 8.16675 1.74984C8.16675 1.58456 8.22265 1.44602 8.33446 1.33421C8.44626 1.22241 8.5848 1.1665 8.75008 1.1665H9.33342C9.65425 1.1665 9.9289 1.28074 10.1574 1.50921C10.3858 1.73768 10.5001 2.01234 10.5001 2.33317V3.49984H11.6667C11.9876 3.49984 12.2622 3.61407 12.4907 3.84255C12.7192 4.07102 12.8334 4.34567 12.8334 4.6665V11.6665C12.8334 11.9873 12.7192 12.262 12.4907 12.4905C12.2622 12.7189 11.9876 12.8332 11.6667 12.8332H4.66675ZM4.66675 11.6665H11.6667V4.6665H4.66675V11.6665ZM1.75008 6.99984C1.5848 6.99984 1.44626 6.94393 1.33446 6.83213C1.22265 6.72032 1.16675 6.58178 1.16675 6.4165V5.24984C1.16675 5.08456 1.22265 4.94602 1.33446 4.83421C1.44626 4.72241 1.5848 4.6665 1.75008 4.6665C1.91536 4.6665 2.0539 4.72241 2.16571 4.83421C2.27751 4.94602 2.33341 5.08456 2.33341 5.24984V6.4165C2.33341 6.58178 2.27751 6.72032 2.16571 6.83213C2.0539 6.94393 1.91536 6.99984 1.75008 6.99984ZM1.75008 3.49984C1.5848 3.49984 1.44626 3.44393 1.33446 3.33213C1.22265 3.22032 1.16675 3.08178 1.16675 2.9165V2.33317C1.16675 2.01234 1.28098 1.73768 1.50946 1.50921C1.73793 1.28074 2.01258 1.1665 2.33341 1.1665H2.91675C3.08203 1.1665 3.22057 1.22241 3.33237 1.33421C3.44418 1.44602 3.50008 1.58456 3.50008 1.74984C3.50008 1.91511 3.44418 2.05366 3.33237 2.16546C3.22057 2.27727 3.08203 2.33317 2.91675 2.33317H2.33341V2.9165C2.33341 3.08178 2.27751 3.22032 2.16571 3.33213C2.0539 3.44393 1.91536 3.49984 1.75008 3.49984ZM5.25008 2.33317C5.0848 2.33317 4.94626 2.27727 4.83446 2.16546C4.72265 2.05366 4.66675 1.91511 4.66675 1.74984C4.66675 1.58456 4.72265 1.44602 4.83446 1.33421C4.94626 1.22241 5.0848 1.1665 5.25008 1.1665H6.41675C6.58203 1.1665 6.72057 1.22241 6.83237 1.33421C6.94418 1.44602 7.00008 1.58456 7.00008 1.74984C7.00008 1.91511 6.94418 2.05366 6.83237 2.16546C6.72057 2.27727 6.58203 2.33317 6.41675 2.33317H5.25008Z" fill="#2F80ED"/>
</svg>
