<svg xmlns="http://www.w3.org/2000/svg" width="14" height="14" viewBox="0 0 14 14" fill="none">
  <path d="M6.99935 7.81699L8.69102 9.50866C8.79796 9.6156 8.93407 9.66908 9.09935 9.66908C9.26463 9.66908 9.40074 9.6156 9.50768 9.50866C9.61463 9.40171 9.6681 9.2656 9.6681 9.10033C9.6681 8.93505 9.61463 8.79894 9.50768 8.69199L7.81602 7.00033L9.50768 5.30866C9.61463 5.20171 9.6681 5.0656 9.6681 4.90033C9.6681 4.73505 9.61463 4.59894 9.50768 4.49199C9.40074 4.38505 9.26463 4.33158 9.09935 4.33158C8.93407 4.33158 8.79796 4.38505 8.69102 4.49199L6.99935 6.18366L5.30768 4.49199C5.20074 4.38505 5.06463 4.33158 4.89935 4.33158C4.73407 4.33158 4.59796 4.38505 4.49102 4.49199C4.38407 4.59894 4.3306 4.73505 4.3306 4.90033C4.3306 5.0656 4.38407 5.20171 4.49102 5.30866L6.18268 7.00033L4.49102 8.69199C4.38407 8.79894 4.3306 8.93505 4.3306 9.10033C4.3306 9.2656 4.38407 9.40171 4.49102 9.50866C4.59796 9.6156 4.73407 9.66908 4.89935 9.66908C5.06463 9.66908 5.20074 9.6156 5.30768 9.50866L6.99935 7.81699ZM6.99935 12.8337C6.1924 12.8337 5.43407 12.6805 4.72435 12.3743C4.01463 12.068 3.39727 11.6524 2.87227 11.1274C2.34727 10.6024 1.93164 9.98505 1.62539 9.27533C1.31914 8.5656 1.16602 7.80727 1.16602 7.00033C1.16602 6.19338 1.31914 5.43505 1.62539 4.72533C1.93164 4.0156 2.34727 3.39824 2.87227 2.87324C3.39727 2.34824 4.01463 1.93262 4.72435 1.62637C5.43407 1.32012 6.1924 1.16699 6.99935 1.16699C7.80629 1.16699 8.56463 1.32012 9.27435 1.62637C9.98407 1.93262 10.6014 2.34824 11.1264 2.87324C11.6514 3.39824 12.0671 4.0156 12.3733 4.72533C12.6796 5.43505 12.8327 6.19338 12.8327 7.00033C12.8327 7.80727 12.6796 8.5656 12.3733 9.27533C12.0671 9.98505 11.6514 10.6024 11.1264 11.1274C10.6014 11.6524 9.98407 12.068 9.27435 12.3743C8.56463 12.6805 7.80629 12.8337 6.99935 12.8337ZM6.99935 11.667C8.30213 11.667 9.4056 11.2149 10.3098 10.3107C11.2139 9.40658 11.666 8.3031 11.666 7.00033C11.666 5.69755 11.2139 4.59408 10.3098 3.68991C9.4056 2.78574 8.30213 2.33366 6.99935 2.33366C5.69657 2.33366 4.5931 2.78574 3.68893 3.68991C2.78477 4.59408 2.33268 5.69755 2.33268 7.00033C2.33268 8.3031 2.78477 9.40658 3.68893 10.3107C4.5931 11.2149 5.69657 11.667 6.99935 11.667Z" fill="#E84949"/>
</svg>