<svg width="14" height="15" viewBox="0 0 14 15" fill="none" xmlns="http://www.w3.org/2000/svg">
<path d="M6.41667 11.5836V9.77524C5.94028 9.6683 5.51493 9.46656 5.14062 9.17004C4.76632 8.87351 4.49167 8.50163 4.31667 8.05441C3.5875 7.96691 2.97743 7.64851 2.48646 7.0992C1.99549 6.5499 1.75 5.9058 1.75 5.16691V4.58358C1.75 4.26274 1.86424 3.98809 2.09271 3.75962C2.32118 3.53115 2.59583 3.41691 2.91667 3.41691H4.08333C4.08333 3.09608 4.19757 2.82142 4.42604 2.59295C4.65451 2.36448 4.92917 2.25024 5.25 2.25024H8.75C9.07083 2.25024 9.34549 2.36448 9.57396 2.59295C9.80243 2.82142 9.91667 3.09608 9.91667 3.41691H11.0833C11.4042 3.41691 11.6788 3.53115 11.9073 3.75962C12.1358 3.98809 12.25 4.26274 12.25 4.58358V5.16691C12.25 5.9058 12.0045 6.5499 11.5135 7.0992C11.0226 7.64851 10.4125 7.96691 9.68333 8.05441C9.50833 8.50163 9.23368 8.87351 8.85938 9.17004C8.48507 9.46656 8.05972 9.6683 7.58333 9.77524V11.5836H9.33333C9.49861 11.5836 9.63715 11.6395 9.74896 11.7513C9.86076 11.8631 9.91667 12.0016 9.91667 12.1669C9.91667 12.3322 9.86076 12.4707 9.74896 12.5825C9.63715 12.6943 9.49861 12.7502 9.33333 12.7502H4.66667C4.50139 12.7502 4.36285 12.6943 4.25104 12.5825C4.13924 12.4707 4.08333 12.3322 4.08333 12.1669C4.08333 12.0016 4.13924 11.8631 4.25104 11.7513C4.36285 11.6395 4.50139 11.5836 4.66667 11.5836H6.41667ZM4.08333 6.80024V4.58358H2.91667V5.16691C2.91667 5.53636 3.02361 5.86934 3.2375 6.16587C3.45139 6.4624 3.73333 6.67386 4.08333 6.80024ZM7 8.66691C7.48611 8.66691 7.89931 8.49677 8.23958 8.15649C8.57986 7.81622 8.75 7.40302 8.75 6.91691V3.41691H5.25V6.91691C5.25 7.40302 5.42014 7.81622 5.76042 8.15649C6.10069 8.49677 6.51389 8.66691 7 8.66691ZM9.91667 6.80024C10.2667 6.67386 10.5486 6.4624 10.7625 6.16587C10.9764 5.86934 11.0833 5.53636 11.0833 5.16691V4.58358H9.91667V6.80024Z" fill="#2F80ED"/>
</svg>
