<svg width="14" height="14" viewBox="0 0 14 14" fill="none" xmlns="http://www.w3.org/2000/svg">
<path d="M6.41668 11.0836V9.27524C5.94029 9.1683 5.51494 8.96656 5.14063 8.67004C4.76633 8.37351 4.49167 8.00163 4.31667 7.55441C3.5875 7.46691 2.97743 7.14851 2.48646 6.5992C1.99549 6.0499 1.75 5.4058 1.75 4.66691V4.08358C1.75 3.76274 1.86424 3.48809 2.09271 3.25962C2.32118 3.03115 2.59584 2.91691 2.91667 2.91691H4.08334C4.08334 2.59608 4.19758 2.32142 4.42605 2.09295C4.65452 1.86448 4.92917 1.75024 5.25001 1.75024H8.75002C9.07085 1.75024 9.3455 1.86448 9.57398 2.09295C9.80245 2.32142 9.91669 2.59608 9.91669 2.91691H11.0834C11.4042 2.91691 11.6788 3.03115 11.9073 3.25962C12.1358 3.48809 12.25 3.76274 12.25 4.08358V4.66691C12.25 5.4058 12.0045 6.0499 11.5136 6.5992C11.0226 7.14851 10.4125 7.46691 9.68335 7.55441C9.50835 8.00163 9.2337 8.37351 8.85939 8.67004C8.48509 8.96656 8.05974 9.1683 7.58335 9.27524V11.0836H9.33335C9.49863 11.0836 9.63717 11.1395 9.74898 11.2513C9.86078 11.3631 9.91669 11.5016 9.91669 11.6669C9.91669 11.8322 9.86078 11.9707 9.74898 12.0825C9.63717 12.1943 9.49863 12.2502 9.33335 12.2502H4.66667C4.5014 12.2502 4.36285 12.1943 4.25105 12.0825C4.13924 11.9707 4.08334 11.8322 4.08334 11.6669C4.08334 11.5016 4.13924 11.3631 4.25105 11.2513C4.36285 11.1395 4.5014 11.0836 4.66667 11.0836H6.41668ZM4.08334 6.30024V4.08358H2.91667V4.66691C2.91667 5.03636 3.02361 5.36934 3.2375 5.66587C3.45139 5.9624 3.73334 6.17386 4.08334 6.30024ZM7.00001 8.16691C7.48612 8.16691 7.89932 7.99677 8.2396 7.65649C8.57988 7.31622 8.75002 6.90302 8.75002 6.41691V2.91691H5.25001V6.41691C5.25001 6.90302 5.42015 7.31622 5.76043 7.65649C6.1007 7.99677 6.5139 8.16691 7.00001 8.16691ZM9.91669 6.30024C10.2667 6.17386 10.5486 5.9624 10.7625 5.66587C10.9764 5.36934 11.0834 5.03636 11.0834 4.66691V4.08358H9.91669V6.30024Z" fill="white"/>
</svg>
