<svg width="14" height="14" viewBox="0 0 14 14" fill="none" xmlns="http://www.w3.org/2000/svg">
<g id="&#208;&#187;&#208;&#190;&#208;&#179;&#208;&#190;">
<path id="Vector" d="M6.99985 9.91669C7.8068 9.91669 8.49465 9.63231 9.0634 9.06356C9.63215 8.49481 9.91652 7.80696 9.91652 7.00002C9.91652 6.19308 9.63215 5.50523 9.0634 4.93648C8.49465 4.36773 7.8068 4.08335 6.99985 4.08335C6.1929 4.08335 5.50506 4.36773 4.9363 4.93648C4.36755 5.50523 4.08318 6.19308 4.08318 7.00002C4.08318 7.80696 4.36755 8.49481 4.9363 9.06356C5.50506 9.63231 6.1929 9.91669 6.99985 9.91669ZM6.99985 12.8334C6.1929 12.8334 5.43457 12.6802 4.72485 12.374C4.01512 12.0677 3.39776 11.6521 2.87276 11.1271C2.34776 10.6021 1.93213 9.98474 1.62588 9.27502C1.31963 8.5653 1.1665 7.80696 1.1665 7.00002C1.1665 6.19308 1.31963 5.43474 1.62588 4.72502C1.93213 4.0153 2.34776 3.39794 2.87276 2.87294C3.39776 2.34794 4.01512 1.93231 4.72485 1.62606C5.43457 1.31981 6.1929 1.16669 6.99985 1.16669C7.8068 1.16669 8.56513 1.31981 9.27486 1.62606C9.98458 1.93231 10.6019 2.34794 11.1269 2.87294C11.6519 3.39794 12.0676 4.0153 12.3738 4.72502C12.6801 5.43474 12.8332 6.19308 12.8332 7.00002C12.8332 7.80696 12.6801 8.5653 12.3738 9.27502C12.0676 9.98474 11.6519 10.6021 11.1269 11.1271C10.6019 11.6521 9.98458 12.0677 9.27486 12.374C8.56513 12.6802 7.8068 12.8334 6.99985 12.8334ZM6.99985 11.6667C8.30263 11.6667 9.40611 11.2146 10.3103 10.3104C11.2144 9.40627 11.6665 8.3028 11.6665 7.00002C11.6665 5.69724 11.2144 4.59377 10.3103 3.6896C9.40611 2.78544 8.30263 2.33335 6.99985 2.33335C5.69707 2.33335 4.5936 2.78544 3.68943 3.6896C2.78526 4.59377 2.33317 5.69724 2.33317 7.00002C2.33317 8.3028 2.78526 9.40627 3.68943 10.3104C4.5936 11.2146 5.69707 11.6667 6.99985 11.6667Z" fill="white"/>
</g>
</svg>
