<svg xmlns="http://www.w3.org/2000/svg" width="14" height="14" viewBox="0 0 14 14" fill="none">
  <path d="M3.50065 8.16634C3.17982 8.16634 2.90516 8.05211 2.67669 7.82363C2.44822 7.59516 2.33398 7.32051 2.33398 6.99967C2.33398 6.67884 2.44822 6.40419 2.67669 6.17572C2.90516 5.94724 3.17982 5.83301 3.50065 5.83301C3.82148 5.83301 4.09614 5.94724 4.32461 6.17572C4.55308 6.40419 4.66732 6.67884 4.66732 6.99967C4.66732 7.32051 4.55308 7.59516 4.32461 7.82363C4.09614 8.05211 3.82148 8.16634 3.50065 8.16634ZM7.00065 8.16634C6.67982 8.16634 6.40517 8.05211 6.17669 7.82363C5.94822 7.59516 5.83398 7.32051 5.83398 6.99967C5.83398 6.67884 5.94822 6.40419 6.17669 6.17572C6.40517 5.94724 6.67982 5.83301 7.00065 5.83301C7.32148 5.83301 7.59614 5.94724 7.82461 6.17572C8.05308 6.40419 8.16732 6.67884 8.16732 6.99967C8.16732 7.32051 8.05308 7.59516 7.82461 7.82363C7.59614 8.05211 7.32148 8.16634 7.00065 8.16634ZM10.5007 8.16634C10.1798 8.16634 9.90517 8.05211 9.67669 7.82363C9.44822 7.59516 9.33398 7.32051 9.33398 6.99967C9.33398 6.67884 9.44822 6.40419 9.67669 6.17572C9.90517 5.94724 10.1798 5.83301 10.5007 5.83301C10.8215 5.83301 11.0961 5.94724 11.3246 6.17572C11.5531 6.40419 11.6673 6.67884 11.6673 6.99967C11.6673 7.32051 11.5531 7.59516 11.3246 7.82363C11.0961 8.05211 10.8215 8.16634 10.5007 8.16634Z" fill="#373A43"/>
</svg>