<svg width="16" height="17" viewBox="0 0 16 17" fill="none" xmlns="http://www.w3.org/2000/svg">
<g id="&#209;&#130;&#208;&#190;&#209;&#135;&#208;&#186;&#208;&#184;">
<path id="Vector" d="M4.00033 9.6154C3.63366 9.6154 3.31977 9.48484 3.05866 9.22373C2.79755 8.96262 2.66699 8.64873 2.66699 8.28206C2.66699 7.9154 2.79755 7.60151 3.05866 7.3404C3.31977 7.07929 3.63366 6.94873 4.00033 6.94873C4.36699 6.94873 4.68088 7.07929 4.94199 7.3404C5.2031 7.60151 5.33366 7.9154 5.33366 8.28206C5.33366 8.64873 5.2031 8.96262 4.94199 9.22373C4.68088 9.48484 4.36699 9.6154 4.00033 9.6154ZM8.00033 9.6154C7.63366 9.6154 7.31977 9.48484 7.05866 9.22373C6.79755 8.96262 6.66699 8.64873 6.66699 8.28206C6.66699 7.9154 6.79755 7.60151 7.05866 7.3404C7.31977 7.07929 7.63366 6.94873 8.00033 6.94873C8.36699 6.94873 8.68088 7.07929 8.94199 7.3404C9.2031 7.60151 9.33366 7.9154 9.33366 8.28206C9.33366 8.64873 9.2031 8.96262 8.94199 9.22373C8.68088 9.48484 8.36699 9.6154 8.00033 9.6154ZM12.0003 9.6154C11.6337 9.6154 11.3198 9.48484 11.0587 9.22373C10.7975 8.96262 10.667 8.64873 10.667 8.28206C10.667 7.9154 10.7975 7.60151 11.0587 7.3404C11.3198 7.07929 11.6337 6.94873 12.0003 6.94873C12.367 6.94873 12.6809 7.07929 12.942 7.3404C13.2031 7.60151 13.3337 7.9154 13.3337 8.28206C13.3337 8.64873 13.2031 8.96262 12.942 9.22373C12.6809 9.48484 12.367 9.6154 12.0003 9.6154Z" fill="#373A43"/>
</g>
</svg>
