<svg width="16" height="16" viewBox="0 0 16 16" fill="none" xmlns="http://www.w3.org/2000/svg">
<g id="&#209;&#128;&#208;&#181;&#208;&#180;&#208;&#176;&#208;&#186;&#209;&#130;&#208;&#184;&#209;&#128;&#208;&#190;&#208;&#178;&#208;&#176;&#209;&#130;&#209;&#140;">
<path id="Vector" d="M3.33317 9.33357C3.14428 9.33357 2.98595 9.26968 2.85817 9.1419C2.73039 9.01412 2.6665 8.85579 2.6665 8.6669C2.6665 8.47801 2.73039 8.31968 2.85817 8.1919C2.98595 8.06412 3.14428 8.00023 3.33317 8.00023H6.6665C6.85539 8.00023 7.01373 8.06412 7.1415 8.1919C7.26928 8.31968 7.33317 8.47801 7.33317 8.6669C7.33317 8.85579 7.26928 9.01412 7.1415 9.1419C7.01373 9.26968 6.85539 9.33357 6.6665 9.33357H3.33317ZM3.33317 6.6669C3.14428 6.6669 2.98595 6.60301 2.85817 6.47523C2.73039 6.34746 2.6665 6.18912 2.6665 6.00023C2.6665 5.81135 2.73039 5.65301 2.85817 5.52523C2.98595 5.39746 3.14428 5.33357 3.33317 5.33357H9.33317C9.52206 5.33357 9.68039 5.39746 9.80817 5.52523C9.93595 5.65301 9.99984 5.81135 9.99984 6.00023C9.99984 6.18912 9.93595 6.34746 9.80817 6.47523C9.68039 6.60301 9.52206 6.6669 9.33317 6.6669H3.33317ZM3.33317 4.00023C3.14428 4.00023 2.98595 3.93635 2.85817 3.80857C2.73039 3.68079 2.6665 3.52246 2.6665 3.33357C2.6665 3.14468 2.73039 2.98635 2.85817 2.85857C2.98595 2.73079 3.14428 2.6669 3.33317 2.6669H9.33317C9.52206 2.6669 9.68039 2.73079 9.80817 2.85857C9.93595 2.98635 9.99984 3.14468 9.99984 3.33357C9.99984 3.52246 9.93595 3.68079 9.80817 3.80857C9.68039 3.93635 9.52206 4.00023 9.33317 4.00023H3.33317ZM8.6665 12.6669V11.5669C8.6665 11.478 8.68317 11.3919 8.7165 11.3086C8.74984 11.2252 8.79984 11.1502 8.8665 11.0836L12.3498 7.6169C12.4498 7.5169 12.5609 7.44468 12.6832 7.40023C12.8054 7.35579 12.9276 7.33357 13.0498 7.33357C13.1832 7.33357 13.3109 7.35857 13.4332 7.40857C13.5554 7.45857 13.6665 7.53357 13.7665 7.63357L14.3832 8.25023C14.4721 8.35023 14.5415 8.46135 14.5915 8.58357C14.6415 8.70579 14.6665 8.82801 14.6665 8.95023C14.6665 9.07246 14.6443 9.19746 14.5998 9.32523C14.5554 9.45301 14.4832 9.5669 14.3832 9.6669L10.9165 13.1336C10.8498 13.2002 10.7748 13.2502 10.6915 13.2836C10.6082 13.3169 10.5221 13.3336 10.4332 13.3336H9.33317C9.14428 13.3336 8.98595 13.2697 8.85817 13.1419C8.73039 13.0141 8.6665 12.8558 8.6665 12.6669ZM9.6665 12.3336H10.2998L12.3165 10.3002L12.0165 9.98357L11.6998 9.68357L9.6665 11.7002V12.3336ZM12.0165 9.98357L11.6998 9.68357L12.3165 10.3002L12.0165 9.98357Z" fill="#D9DCE1"/>
</g>
</svg>
