<svg width="43" height="43" viewBox="0 0 43 43" fill="none" xmlns="http://www.w3.org/2000/svg">
<path d="M3.97225 22.4721C3.82919 19.8919 4.25751 17.3121 5.22662 14.9166L21.5 21.5002L3.97225 22.4721Z" fill="url(#paint0_linear_794_12742)"/>
<path d="M39.0277 20.5284C39.1708 23.1086 38.7425 25.6884 37.7734 28.0839L21.5 21.5003L39.0277 20.5284Z" fill="url(#paint1_linear_794_12742)"/>
<path d="M22.4719 39.028C19.8918 39.1711 17.3119 38.7427 14.9165 37.7736L21.5001 21.5002L22.4719 39.028Z" fill="url(#paint2_linear_794_12742)"/>
<path d="M20.5281 3.97249C23.1082 3.82943 25.6881 4.25775 28.0835 5.22686L21.4999 21.5002L20.5281 3.97249Z" fill="url(#paint3_linear_794_12742)"/>
<path d="M33.2069 8.41893C35.1325 10.1422 36.6539 12.2693 37.6625 14.6484L21.5001 21.5001L33.2069 8.41893Z" fill="url(#paint4_linear_794_12742)"/>
<path d="M34.5814 33.2069C32.8581 35.1324 30.731 36.6538 28.3519 37.6624L21.5002 21.5001L34.5814 33.2069Z" fill="url(#paint5_linear_794_12742)"/>
<path d="M9.79356 34.5813C7.86799 32.8581 6.34661 30.7309 5.33802 28.3518L21.5003 21.5001L9.79356 34.5813Z" fill="url(#paint6_linear_794_12742)"/>
<path d="M8.41912 9.79344C10.1424 7.86787 12.2695 6.34648 14.6486 5.3379L21.5003 21.5002L8.41912 9.79344Z" fill="url(#paint7_linear_794_12742)"/>
<path d="M16.5621 16.0775C15.2894 16.0775 14.2576 17.1092 14.2576 18.3819V19.7475V26.4048C14.2576 26.829 14.6015 27.1729 15.0258 27.1729H26.9747C27.3989 27.1729 27.7428 26.829 27.7428 26.4048V19.7475V18.3819C27.7428 17.1092 26.7111 16.0775 25.4384 16.0775H16.5621Z" fill="#E84949" stroke="#5B1003" stroke-width="0.512097" stroke-linejoin="round"/>
<rect x="14.5137" y="20.4304" width="12.9731" height="0.682796" fill="#911E1E"/>
<circle cx="26.0358" cy="26.4901" r="0.256049" fill="#AE2929"/>
<circle cx="26.8043" cy="24.6977" r="0.341398" fill="#AE2929"/>
<circle cx="26.6336" cy="25.5512" r="0.170699" fill="#AE2929"/>
<circle cx="25.8654" cy="24.6124" r="0.256048" fill="#AE2929"/>
<circle cx="24.6706" cy="24.6124" r="0.256048" fill="#AE2929"/>
<circle cx="26.1214" cy="23.5029" r="0.170699" fill="#AE2929"/>
<ellipse cx="26.804" cy="23.8442" rx="0.170699" ry="0.170699" fill="#AE2929"/>
<ellipse cx="27.1453" cy="22.6493" rx="0.170699" ry="0.170699" fill="#AE2929"/>
<ellipse cx="26.9749" cy="26.234" rx="0.170699" ry="0.170699" fill="#AE2929"/>
<circle cx="24.7557" cy="23.6735" r="0.170699" fill="#AE2929"/>
<circle cx="24.6706" cy="26.3193" r="0.256048" fill="#AE2929"/>
<circle cx="24.2435" cy="25.7219" r="0.170699" fill="#AE2929"/>
<ellipse cx="23.5608" cy="26.234" rx="0.170699" ry="0.170699" fill="#AE2929"/>
<ellipse cx="24.2435" cy="25.3805" rx="0.170699" ry="0.170699" fill="#AE2929"/>
<circle cx="23.5608" cy="25.0391" r="0.170699" fill="#AE2929"/>
<circle cx="22.7073" cy="26.5754" r="0.170699" fill="#AE2929"/>
<ellipse cx="26.1214" cy="25.2098" rx="0.170699" ry="0.170699" fill="#AE2929"/>
<path d="M15.6406 17.6992H26.3584" stroke="#913017" stroke-width="0.512097" stroke-linecap="round" stroke-linejoin="round"/>
<path d="M15.0664 18.894H26.9326" stroke="#913017" stroke-width="0.512097" stroke-linecap="round" stroke-linejoin="round"/>
<path d="M14.6841 21.6252H27.3158" stroke="#913017" stroke-width="0.512097" stroke-linecap="round" stroke-linejoin="round"/>
<path d="M14.6841 22.9908H27.3158" stroke="#913017" stroke-width="0.512097" stroke-linecap="round" stroke-linejoin="round"/>
<path d="M14.6841 24.3564H27.3158" stroke="#913017" stroke-width="0.512097" stroke-linecap="round" stroke-linejoin="round"/>
<path d="M14.6841 25.722H27.3158" stroke="#913017" stroke-width="0.512097" stroke-linecap="round" stroke-linejoin="round"/>
<path d="M14.6846 25.5513V20.6864" stroke="#FF796C" stroke-width="0.512097" stroke-linecap="round" stroke-linejoin="round"/>
<path d="M25.78 16.5043H15.9648C15.1113 16.5043 14.6846 16.931 14.6846 17.7845V19.9183H27.1456" stroke="#FF796C" stroke-width="0.512097" stroke-linecap="round" stroke-linejoin="round"/>
<path d="M15.9648 16.5043C15.1113 16.5043 14.6846 16.931 14.6846 17.7845" stroke="#FFB4AD" stroke-width="0.512097" stroke-linecap="round" stroke-linejoin="round"/>
<path d="M14.3433 20.2596H27.6578" stroke="#5B1003" stroke-width="0.512097" stroke-linecap="round" stroke-linejoin="round"/>
<path d="M22.5201 21.6592C22.5845 21.6108 22.6225 21.535 22.6225 21.4544V19.3206C22.6225 19.0378 22.3932 18.8085 22.1104 18.8085H19.8913C19.6085 18.8085 19.3792 19.0378 19.3792 19.3206V21.4544C19.3792 21.535 19.4172 21.6108 19.4816 21.6592L20.8472 22.6834C20.9383 22.7517 21.0634 22.7517 21.1545 22.6834L22.5201 21.6592Z" fill="#DF8D12" stroke="#651D11" stroke-width="0.512097" stroke-linejoin="round"/>
<circle cx="21.0009" cy="20.4302" r="0.768145" fill="#FFB341" stroke="#944320" stroke-width="0.512097"/>
<path d="M19.8062 21.113V19.2353H21.8545" stroke="#FFB341" stroke-width="0.512097" stroke-linecap="round" stroke-linejoin="round"/>
<circle cx="20.8304" cy="20.2594" r="0.170699" fill="#FFEACA"/>
<path d="M24.7559 20.4304H25.7801V26.9169H24.7559V20.4304Z" fill="#C52B10"/>
<path d="M25.7798 19.7475H25.2677H24.7556V16.3336H25.7798V19.7475Z" fill="#EB4545"/>
<path d="M16.2207 19.7475H16.7328H17.2449V16.3336H16.2207V19.7475Z" fill="#EB4545"/>
<path d="M16.3916 16.5043V18.2966" stroke="#FFA58E" stroke-opacity="0.98" stroke-width="0.512097" stroke-linecap="round" stroke-linejoin="round"/>
<path d="M24.9263 16.5043V18.2966" stroke="#FFA58E" stroke-opacity="0.98" stroke-width="0.512097" stroke-linecap="round" stroke-linejoin="round"/>
<path d="M16.2207 20.4304H16.7328H17.2449V26.9169H16.2207V20.4304Z" fill="#C52B10"/>
<defs>
<linearGradient id="paint0_linear_794_12742" x1="21.1851" y1="21.5789" x2="7.17287" y2="16.4621" gradientUnits="userSpaceOnUse">
<stop stop-color="#FB2C2C"/>
<stop offset="0.23" stop-color="#FB3D2C" stop-opacity="0.46"/>
<stop offset="1" stop-color="#FB2C2C" stop-opacity="0"/>
</linearGradient>
<linearGradient id="paint1_linear_794_12742" x1="21.8149" y1="21.4216" x2="35.8271" y2="26.5384" gradientUnits="userSpaceOnUse">
<stop stop-color="#FB2C2C"/>
<stop offset="0.23" stop-color="#FB3D2C" stop-opacity="0.46"/>
<stop offset="1" stop-color="#FB2C2C" stop-opacity="0"/>
</linearGradient>
<linearGradient id="paint2_linear_794_12742" x1="21.5788" y1="21.8151" x2="16.4619" y2="35.8274" gradientUnits="userSpaceOnUse">
<stop stop-color="#FB2C2C"/>
<stop offset="0.23" stop-color="#FB3D2C" stop-opacity="0.46"/>
<stop offset="1" stop-color="#FB2C2C" stop-opacity="0"/>
</linearGradient>
<linearGradient id="paint3_linear_794_12742" x1="21.4212" y1="21.1854" x2="26.5381" y2="7.17311" gradientUnits="userSpaceOnUse">
<stop stop-color="#FB2C2C"/>
<stop offset="0.23" stop-color="#FB3D2C" stop-opacity="0.46"/>
<stop offset="1" stop-color="#FB2C2C" stop-opacity="0"/>
</linearGradient>
<linearGradient id="paint4_linear_794_12742" x1="21.6672" y1="21.2218" x2="35.1935" y2="14.9318" gradientUnits="userSpaceOnUse">
<stop stop-color="#FB2C2C"/>
<stop offset="0.23" stop-color="#FB3D2C" stop-opacity="0.46"/>
<stop offset="1" stop-color="#FB2C2C" stop-opacity="0"/>
</linearGradient>
<linearGradient id="paint5_linear_794_12742" x1="21.7785" y1="21.6671" x2="28.0685" y2="35.1934" gradientUnits="userSpaceOnUse">
<stop stop-color="#FB2C2C"/>
<stop offset="0.23" stop-color="#FB3D2C" stop-opacity="0.46"/>
<stop offset="1" stop-color="#FB2C2C" stop-opacity="0"/>
</linearGradient>
<linearGradient id="paint6_linear_794_12742" x1="21.3333" y1="21.7784" x2="7.80703" y2="28.0684" gradientUnits="userSpaceOnUse">
<stop stop-color="#FB2C2C"/>
<stop offset="0.23" stop-color="#FB3D2C" stop-opacity="0.46"/>
<stop offset="1" stop-color="#FB2C2C" stop-opacity="0"/>
</linearGradient>
<linearGradient id="paint7_linear_794_12742" x1="21.222" y1="21.3332" x2="14.932" y2="7.8069" gradientUnits="userSpaceOnUse">
<stop stop-color="#FB2C2C"/>
<stop offset="0.23" stop-color="#FB3D2C" stop-opacity="0.46"/>
<stop offset="1" stop-color="#FB2C2C" stop-opacity="0"/>
</linearGradient>
</defs>
</svg>
