<svg width="26" height="27" viewBox="0 0 26 27" fill="none" xmlns="http://www.w3.org/2000/svg">
<rect y="0.282227" width="26" height="26" rx="6" fill="#282830"/>
<path d="M9.00033 14.6154C8.63366 14.6154 8.31977 14.4848 8.05866 14.2237C7.79755 13.9626 7.66699 13.6487 7.66699 13.2821C7.66699 12.9154 7.79755 12.6015 8.05866 12.3404C8.31977 12.0793 8.63366 11.9487 9.00033 11.9487C9.36699 11.9487 9.68088 12.0793 9.94199 12.3404C10.2031 12.6015 10.3337 12.9154 10.3337 13.2821C10.3337 13.6487 10.2031 13.9626 9.94199 14.2237C9.68088 14.4848 9.36699 14.6154 9.00033 14.6154ZM13.0003 14.6154C12.6337 14.6154 12.3198 14.4848 12.0587 14.2237C11.7975 13.9626 11.667 13.6487 11.667 13.2821C11.667 12.9154 11.7975 12.6015 12.0587 12.3404C12.3198 12.0793 12.6337 11.9487 13.0003 11.9487C13.367 11.9487 13.6809 12.0793 13.942 12.3404C14.2031 12.6015 14.3337 12.9154 14.3337 13.2821C14.3337 13.6487 14.2031 13.9626 13.942 14.2237C13.6809 14.4848 13.367 14.6154 13.0003 14.6154ZM17.0003 14.6154C16.6337 14.6154 16.3198 14.4848 16.0587 14.2237C15.7975 13.9626 15.667 13.6487 15.667 13.2821C15.667 12.9154 15.7975 12.6015 16.0587 12.3404C16.3198 12.0793 16.6337 11.9487 17.0003 11.9487C17.367 11.9487 17.6809 12.0793 17.942 12.3404C18.2031 12.6015 18.3337 12.9154 18.3337 13.2821C18.3337 13.6487 18.2031 13.9626 17.942 14.2237C17.6809 14.4848 17.367 14.6154 17.0003 14.6154Z" fill="#373A43"/>
</svg>
