<svg width="12" height="12" viewBox="0 0 12 12" fill="none" xmlns="http://www.w3.org/2000/svg">
<path d="M7.75 5.50024C7.95833 5.50024 8.13542 5.42733 8.28125 5.28149C8.42708 5.13566 8.5 4.95858 8.5 4.75024C8.5 4.54191 8.42708 4.36483 8.28125 4.21899C8.13542 4.07316 7.95833 4.00024 7.75 4.00024C7.54167 4.00024 7.36458 4.07316 7.21875 4.21899C7.07292 4.36483 7 4.54191 7 4.75024C7 4.95858 7.07292 5.13566 7.21875 5.28149C7.36458 5.42733 7.54167 5.50024 7.75 5.50024ZM4.25 5.50024C4.45833 5.50024 4.63542 5.42733 4.78125 5.28149C4.92708 5.13566 5 4.95858 5 4.75024C5 4.54191 4.92708 4.36483 4.78125 4.21899C4.63542 4.07316 4.45833 4.00024 4.25 4.00024C4.04167 4.00024 3.86458 4.07316 3.71875 4.21899C3.57292 4.36483 3.5 4.54191 3.5 4.75024C3.5 4.95858 3.57292 5.13566 3.71875 5.28149C3.86458 5.42733 4.04167 5.50024 4.25 5.50024ZM6 11.0002C5.30833 11.0002 4.65833 10.869 4.05 10.6065C3.44167 10.344 2.9125 9.98774 2.4625 9.53774C2.0125 9.08774 1.65625 8.55858 1.39375 7.95024C1.13125 7.34191 1 6.69191 1 6.00024C1 5.30858 1.13125 4.65858 1.39375 4.05024C1.65625 3.44191 2.0125 2.91274 2.4625 2.46274C2.9125 2.01274 3.44167 1.65649 4.05 1.39399C4.65833 1.13149 5.30833 1.00024 6 1.00024C6.69167 1.00024 7.34167 1.13149 7.95 1.39399C8.55833 1.65649 9.0875 2.01274 9.5375 2.46274C9.9875 2.91274 10.3438 3.44191 10.6062 4.05024C10.8688 4.65858 11 5.30858 11 6.00024C11 6.69191 10.8688 7.34191 10.6062 7.95024C10.3438 8.55858 9.9875 9.08774 9.5375 9.53774C9.0875 9.98774 8.55833 10.344 7.95 10.6065C7.34167 10.869 6.69167 11.0002 6 11.0002ZM6 10.0002C7.11667 10.0002 8.0625 9.61274 8.8375 8.83774C9.6125 8.06274 10 7.11691 10 6.00024C10 4.88358 9.6125 3.93774 8.8375 3.16274C8.0625 2.38774 7.11667 2.00024 6 2.00024C4.88333 2.00024 3.9375 2.38774 3.1625 3.16274C2.3875 3.93774 2 4.88358 2 6.00024C2 7.11691 2.3875 8.06274 3.1625 8.83774C3.9375 9.61274 4.88333 10.0002 6 10.0002ZM6 8.75024C6.48333 8.75024 6.92917 8.63358 7.3375 8.40024C7.74583 8.16691 8.075 7.85024 8.325 7.45024C8.375 7.35024 8.37083 7.25024 8.3125 7.15024C8.25417 7.05024 8.16667 7.00024 8.05 7.00024H3.95C3.83333 7.00024 3.74583 7.05024 3.6875 7.15024C3.62917 7.25024 3.625 7.35024 3.675 7.45024C3.925 7.85024 4.25625 8.16691 4.66875 8.40024C5.08125 8.63358 5.525 8.75024 6 8.75024Z" fill="#D9DCE1"/>
</svg>
