<svg width="20" height="20" viewBox="0 0 20 20" fill="none" xmlns="http://www.w3.org/2000/svg">
<path d="M12.9167 9.16693C13.264 9.16693 13.5591 9.0454 13.8022 8.80235C14.0452 8.55929 14.1667 8.26415 14.1667 7.91693C14.1667 7.56971 14.0452 7.27457 13.8022 7.03152C13.5591 6.78846 13.264 6.66693 12.9167 6.66693C12.5695 6.66693 12.2744 6.78846 12.0313 7.03152C11.7883 7.27457 11.6667 7.56971 11.6667 7.91693C11.6667 8.26415 11.7883 8.55929 12.0313 8.80235C12.2744 9.0454 12.5695 9.16693 12.9167 9.16693ZM7.08342 9.16693C7.43064 9.16693 7.72578 9.0454 7.96883 8.80235C8.21189 8.55929 8.33342 8.26415 8.33342 7.91693C8.33342 7.56971 8.21189 7.27457 7.96883 7.03152C7.72578 6.78846 7.43064 6.66693 7.08342 6.66693C6.73619 6.66693 6.44105 6.78846 6.198 7.03152C5.95494 7.27457 5.83342 7.56971 5.83342 7.91693C5.83342 8.26415 5.95494 8.55929 6.198 8.80235C6.44105 9.0454 6.73619 9.16693 7.08342 9.16693ZM10.0001 18.3336C8.8473 18.3336 7.76397 18.1148 6.75008 17.6773C5.73619 17.2399 4.85425 16.6461 4.10425 15.8961C3.35425 15.1461 2.7605 14.2642 2.323 13.2503C1.8855 12.2364 1.66675 11.153 1.66675 10.0003C1.66675 8.84749 1.8855 7.76415 2.323 6.75027C2.7605 5.73638 3.35425 4.85443 4.10425 4.10443C4.85425 3.35443 5.73619 2.76068 6.75008 2.32318C7.76397 1.88568 8.8473 1.66693 10.0001 1.66693C11.1529 1.66693 12.2362 1.88568 13.2501 2.32318C14.264 2.76068 15.1459 3.35443 15.8959 4.10443C16.6459 4.85443 17.2397 5.73638 17.6772 6.75027C18.1147 7.76415 18.3334 8.84749 18.3334 10.0003C18.3334 11.153 18.1147 12.2364 17.6772 13.2503C17.2397 14.2642 16.6459 15.1461 15.8959 15.8961C15.1459 16.6461 14.264 17.2399 13.2501 17.6773C12.2362 18.1148 11.1529 18.3336 10.0001 18.3336ZM10.0001 16.6669C11.8612 16.6669 13.4376 16.0211 14.7292 14.7294C16.0209 13.4378 16.6667 11.8614 16.6667 10.0003C16.6667 8.13915 16.0209 6.56277 14.7292 5.2711C13.4376 3.97943 11.8612 3.3336 10.0001 3.3336C8.13897 3.3336 6.56258 3.97943 5.27092 5.2711C3.97925 6.56277 3.33341 8.13915 3.33341 10.0003C3.33341 11.8614 3.97925 13.4378 5.27092 14.7294C6.56258 16.0211 8.13897 16.6669 10.0001 16.6669ZM10.0001 14.5836C10.8056 14.5836 11.5487 14.3892 12.2292 14.0003C12.9098 13.6114 13.4584 13.0836 13.8751 12.4169C13.9584 12.2503 13.9515 12.0836 13.8542 11.9169C13.757 11.7503 13.6112 11.6669 13.4167 11.6669H6.58342C6.38897 11.6669 6.24314 11.7503 6.14592 11.9169C6.04869 12.0836 6.04175 12.2503 6.12508 12.4169C6.54175 13.0836 7.09383 13.6114 7.78133 14.0003C8.46883 14.3892 9.20842 14.5836 10.0001 14.5836Z" fill="#D9DCE1"/>
</svg>
