<svg width="24" height="24" viewBox="0 0 24 24" fill="none" xmlns="http://www.w3.org/2000/svg">
<g id="orbit_24dp_E8EAED_FILL0_wght400_GRAD0_opsz24 (1) 2">
<path id="Vector" d="M11.8978 22.3629C17.6213 22.3629 22.2609 17.7232 22.2609 11.9998C22.2609 6.27635 17.6213 1.6366 11.8978 1.6366C6.17441 1.6366 1.53467 6.27635 1.53467 11.9998C1.53467 17.7232 6.17441 22.3629 11.8978 22.3629Z" fill="#F2C94C" stroke="#282830" stroke-width="0.7"/>
<path id="Vector_2" fill-rule="evenodd" clip-rule="evenodd" d="M11.6258 9.31425C11.6258 10.7931 10.427 11.9919 8.94816 11.9919C7.46933 11.9919 6.27051 10.7931 6.27051 9.31425C6.27051 7.83542 7.46933 6.6366 8.94816 6.6366C10.427 6.6366 11.6258 7.83542 11.6258 9.31425ZM8.94816 10.6475C9.68449 10.6475 10.2814 10.0506 10.2814 9.31425C10.2814 8.57791 9.68449 7.98099 8.94816 7.98099C8.21182 7.98099 7.6149 8.57791 7.6149 9.31425C7.6149 10.0506 8.21182 10.6475 8.94816 10.6475Z" fill="white"/>
<path id="Vector_3" fill-rule="evenodd" clip-rule="evenodd" d="M17.6532 9.31413C17.6532 10.793 16.4544 11.9918 14.9755 11.9918C13.4966 11.9918 12.2979 10.793 12.2979 9.31413C12.2979 7.8353 13.4966 6.63647 14.9755 6.63647C16.4544 6.63647 17.6532 7.8353 17.6532 9.31413ZM14.9755 10.6474C15.7118 10.6474 16.3087 10.0505 16.3087 9.31413C16.3087 8.57778 15.7118 7.98087 14.9755 7.98087C14.2391 7.98087 13.6423 8.57778 13.6423 9.31413C13.6423 10.0505 14.2391 10.6474 14.9755 10.6474Z" fill="white"/>
<path id="Vector_4" d="M10.3714 9.31361C10.3714 10.0499 9.76106 10.6469 9.00819 10.6469C8.25533 10.6469 7.64502 10.0499 7.64502 9.31361C7.64502 8.57726 8.25533 7.98035 9.00819 7.98035C9.76106 7.98035 10.3714 8.57726 10.3714 9.31361Z" fill="#282830"/>
<path id="Vector_5" d="M16.2786 9.31361C16.2786 10.0499 15.6684 10.6469 14.9154 10.6469C14.1626 10.6469 13.5522 10.0499 13.5522 9.31361C13.5522 8.57726 14.1626 7.98035 14.9154 7.98035C15.6684 7.98035 16.2786 8.57726 16.2786 9.31361Z" fill="#282830"/>
<path id="Vector_6" d="M11.8972 22.6665C9.30375 22.6665 6.80387 21.7245 4.85811 20.0143C2.9302 18.3197 1.67726 15.9931 1.33 13.463C1.30722 13.2968 1.4234 13.1437 1.58956 13.1209C1.75542 13.0982 1.90889 13.2143 1.93166 13.3805C2.25906 15.7659 3.44071 17.9599 5.25906 19.5581C7.09392 21.1709 9.45145 22.0591 11.8972 22.0591C13.4203 22.0591 14.8833 21.7275 16.2457 21.0734C16.3968 21.0008 16.5782 21.0645 16.6508 21.2157C16.7233 21.3669 16.6596 21.5483 16.5084 21.6208C15.0634 22.3148 13.512 22.6665 11.8972 22.6665Z" fill="#282830"/>
<path id="Vector_7" d="M17.2927 21.153C17.1904 21.153 17.0905 21.1013 17.0334 21.0077C16.9459 20.8645 16.9911 20.6776 17.1341 20.5903C17.4024 20.4264 17.6663 20.2476 17.9182 20.0591C18.0524 19.9586 18.2428 19.9861 18.3432 20.1203C18.4437 20.2546 18.4164 20.4448 18.2821 20.5454C18.0148 20.7453 17.7352 20.9348 17.4508 21.1086C17.4012 21.1387 17.3466 21.153 17.2927 21.153Z" fill="#282830"/>
<path id="Vector_8" d="M19.0327 19.8195C18.9525 19.8195 18.8723 19.7879 18.8125 19.7249C18.6971 19.6035 18.7021 19.4112 18.8237 19.2957C20.8443 17.3767 21.9572 14.7858 21.9572 12.0002C21.9572 6.45337 17.4445 1.94068 11.8977 1.94068C9.81259 1.94068 7.81254 2.57277 6.11376 3.76869C5.97664 3.86525 5.78721 3.83233 5.69065 3.69521C5.59409 3.55807 5.62701 3.36866 5.76414 3.2721C7.56584 2.00378 9.68675 1.33337 11.8977 1.33337C17.7794 1.33337 22.5645 6.1185 22.5645 12.0002C22.5645 14.954 21.3845 17.7014 19.2419 19.7361C19.1831 19.7918 19.1079 19.8195 19.0327 19.8195Z" fill="#282830"/>
<path id="Vector_9" d="M9.82568 15.8889C10.5855 16.7829 12.6416 18.0345 14.7871 15.8889" stroke="#282830" stroke-linecap="round"/>
</g>
</svg>
