<svg width="12" height="16" viewBox="0 0 12 16" fill="none" xmlns="http://www.w3.org/2000/svg">
<g id="Group 1591">
<path id="Vector 1632" d="M4.73274 0.858814C4.67955 0.819858 4.60898 0.814101 4.55018 0.84392C4.49138 0.873738 4.45433 0.934072 4.45433 1C4.45433 2.41995 4.1064 4.92885 2.40534 6.61957C0.751112 8.26374 0.395878 10.2222 1.07585 11.8698C1.75324 13.5112 3.44221 14.8067 5.80109 15.1732C5.81816 15.1758 5.83552 15.1759 5.85262 15.1735C7.12388 14.9925 8.87412 14.536 10.0353 13.1848C11.2062 11.8222 11.7389 9.59894 10.6791 5.97659C10.6595 5.90953 10.6018 5.86057 10.5325 5.85204C10.4631 5.8435 10.3954 5.87704 10.3601 5.93734C10.3291 5.99032 10.2972 6.04558 10.2643 6.10252C10.0696 6.43985 9.84079 6.83637 9.56017 7.1694C9.27185 7.51158 8.95256 7.75764 8.59115 7.81323C8.48591 6.99813 8.12244 5.74859 7.52019 4.48747C6.87396 3.13423 5.9418 1.74433 4.73274 0.858814Z" fill="#D24940" stroke="#60050F" stroke-width="0.350006" stroke-linejoin="round"/>
<path id="Vector 1803" d="M2.52871 6.74369C4.27956 5.00348 4.62933 2.43592 4.62933 1C4.97476 1.25299 5.29778 1.54905 5.59799 1.87502C5.80855 3.97505 4.33741 6.4951 3.11239 7.47511C2.23737 8.17513 1.44986 9.05014 1.44986 10.4502C1.44986 12.9744 3.99131 14.5801 5.46707 14.9358C5.58543 14.9597 5.70574 14.9813 5.82795 15.0002C5.71745 14.9885 5.59635 14.9669 5.46707 14.9358C1.10971 14.0537 -0.606608 9.85996 2.52871 6.74369Z" fill="#E95D54"/>
<path id="Subtract" fill-rule="evenodd" clip-rule="evenodd" d="M0.933301 9.97204C0.781701 12.3267 2.66843 14.5094 5.82795 15.0003C8.34874 14.6413 12.6118 13.2054 10.5111 6.02575C10.481 6.07717 10.4498 6.13135 10.4173 6.18764C10.3966 6.22347 10.3755 6.26014 10.3538 6.29751C11.9517 12.6584 8.01625 13.9655 5.65888 14.3002C2.83938 13.8635 1.06966 12.0358 0.933301 9.97204ZM8.51419 7.99759C8.48829 7.99928 8.46214 8.00014 8.43575 8.00014C8.31297 6.63659 7.28847 3.60892 5.45287 1.72168C7.10753 3.6592 7.98506 6.81539 8.09997 8.08757C8.23925 8.08757 8.37808 8.05533 8.51419 7.99759Z" fill="#AB3028"/>
<path id="Vector 1633" d="M5.82493 15.0003C1.01233 14.3878 3.46235 8.08771 5.99989 5.98767C5.5624 9.13773 7.98947 8.94756 8.27495 11.8503C8.44994 13.6295 7.74993 14.8253 5.82493 15.0003Z" fill="#FF784E"/>
<path id="Vector 1807" d="M5.82506 15.0004C2.17108 14.2615 3.74611 9.82808 5.40698 8.35028C5.40704 10.9364 7.40009 10.567 7.40009 12.7837C7.40009 14.2615 6.70008 14.9129 5.82506 15.0004Z" fill="#FFB45C"/>
<path id="Vector 1808" d="M5.84316 15.0002C7.83624 14.6113 6.70007 12.4627 5.73752 11.5002C5.82505 12.9877 5.03758 12.9002 4.95004 13.8627C4.89193 14.5018 5.42038 14.9354 5.84316 15.0002Z" fill="#F5992D"/>
<path id="Vector 1804" d="M5.82446 15.0002C6.87445 14.8252 6.34944 13.6876 5.82442 13.0751C5.73692 13.7751 5.34773 13.8451 5.30174 14.3745C5.27121 14.726 5.60235 14.9645 5.82446 15.0002Z" fill="#E27F0A"/>
<path id="Vector 1633_2" d="M5.71365 14.9764C2.20358 14.1703 3.76324 9.81284 5.40698 8.35028C5.40699 8.9549 5.51594 9.39797 5.68288 9.75031C5.3511 10.0711 4.63504 11.1153 4.42504 12.7254C4.22896 14.2286 5.16136 14.8317 5.71365 14.9764C5.75023 14.9848 5.78737 14.9928 5.82506 15.0004C5.7902 14.9946 5.75289 14.9866 5.71365 14.9764Z" fill="#FFC46A"/>
<path id="Vector 1805" d="M10.2873 7.03775C10.054 7.35859 9.42982 8.05277 8.7998 8.26277" stroke="#FF766D" stroke-width="0.350006" stroke-linecap="round" stroke-linejoin="round"/>
<path id="Vector 1799" d="M10.2873 7.03775C10.1681 7.2017 9.94678 7.46314 9.6748 7.70764" stroke="#FFD2CF" stroke-width="0.350006" stroke-linecap="round" stroke-linejoin="round"/>
<path id="Vector 1806" d="M4.94973 1.87502C4.86223 3.27504 4.42472 4.93757 3.63721 5.98759" stroke="#FF766D" stroke-width="0.350006" stroke-linecap="round" stroke-linejoin="round"/>
<path id="Vector 1800" d="M4.94974 1.87502C4.9182 2.37958 4.84121 2.91824 4.71875 3.45004" stroke="#FFD2CF" stroke-width="0.350006" stroke-linecap="round" stroke-linejoin="round"/>
<path id="Vector 1801" d="M5.12473 9.2253C4.68722 9.75031 4.16221 10.8003 4.07471 11.8503" stroke="#FFDEC0" stroke-width="0.350006" stroke-linecap="round" stroke-linejoin="round"/>
<g id="Group 1590">
<circle id="Ellipse 985" cx="8.62471" cy="9.75017" r="0.175003" fill="#F44F44"/>
<circle id="Ellipse 988" cx="8.18711" cy="10.1879" r="0.0875015" fill="#F44F44"/>
<circle id="Ellipse 989" cx="9.06211" cy="9.31289" r="0.0875015" fill="#F44F44"/>
<circle id="Ellipse 990" cx="9.23692" cy="10.0128" r="0.0875015" fill="#F44F44"/>
<circle id="Ellipse 991" cx="8.71201" cy="10.5377" r="0.0875015" fill="#F44F44"/>
<circle id="Ellipse 992" cx="8.53721" cy="11.4127" r="0.0875015" fill="#F44F44"/>
<circle id="Ellipse 993" cx="7.66221" cy="8.61257" r="0.0875015" fill="#F44F44"/>
<circle id="Ellipse 995" cx="7.48692" cy="7.2127" r="0.0875015" fill="#F44F44"/>
<circle id="Ellipse 996" cx="7.48692" cy="7.91264" r="0.0875015" fill="#F44F44"/>
<circle id="Ellipse 997" cx="7.13682" cy="8.61257" r="0.0875015" fill="#F44F44"/>
<circle id="Ellipse 1004" cx="3.11143" cy="9.66267" r="0.0875015" fill="#F44F44"/>
<circle id="Ellipse 1005" cx="2.76133" cy="8.78765" r="0.0875015" fill="#F44F44"/>
<circle id="Ellipse 1006" cx="3.81211" cy="8.26279" r="0.0875015" fill="#F44F44"/>
<circle id="Ellipse 1007" cx="3.11143" cy="8.26279" r="0.0875015" fill="#F44F44"/>
<circle id="Ellipse 1008" cx="3.98692" cy="7.56286" r="0.0875015" fill="#F44F44"/>
<circle id="Ellipse 1009" cx="2.93711" cy="10.1879" r="0.0875015" fill="#F44F44"/>
<circle id="Ellipse 1010" cx="2.41221" cy="10.0128" r="0.0875015" fill="#F44F44"/>
<circle id="Ellipse 1011" cx="2.06211" cy="10.7128" r="0.0875015" fill="#F44F44"/>
<circle id="Ellipse 1012" cx="2.58701" cy="11.0629" r="0.0875015" fill="#F44F44"/>
<circle id="Ellipse 1013" cx="2.58701" cy="11.7629" r="0.0875015" fill="#F44F44"/>
<circle id="Ellipse 998" cx="6.43711" cy="7.03762" r="0.0875015" fill="#F44F44"/>
<circle id="Ellipse 999" cx="6.96201" cy="7.38778" r="0.0875015" fill="#F44F44"/>
<circle id="Ellipse 1000" cx="6.61192" cy="6.33768" r="0.0875015" fill="#F44F44"/>
<circle id="Ellipse 986" cx="7.74971" cy="9.40039" r="0.175003" fill="#F44F44"/>
<circle id="Ellipse 1001" cx="2.32393" cy="9.40039" r="0.175003" fill="#F44F44"/>
<circle id="Ellipse 994" cx="6.87471" cy="8.00014" r="0.175003" fill="#F44F44"/>
<circle id="Ellipse 1002" cx="3.37471" cy="8.87515" r="0.175003" fill="#F44F44"/>
<circle id="Ellipse 1003" cx="2.67451" cy="10.6252" r="0.175003" fill="#F44F44"/>
<circle id="Ellipse 987" cx="8.36211" cy="8.96265" r="0.262505" fill="#F44F44"/>
</g>
</g>
</svg>
