<svg width="12" height="13" viewBox="0 0 12 13" fill="none" xmlns="http://www.w3.org/2000/svg">
    <path d="M6 11.5002C4.88333 11.5002 3.9375 11.1127 3.1625 10.3377C2.3875 9.56275 2 8.61691 2 7.50025C2 6.55858 2.27917 5.65441 2.8375 4.78775C3.39583 3.92108 4.1625 3.16275 5.1375 2.51275C5.32083 2.38775 5.51042 2.3815 5.70625 2.494C5.90208 2.6065 6 2.77525 6 3.00025V3.65025C6 3.93358 6.09792 4.17108 6.29375 4.36275C6.48958 4.55441 6.72917 4.65025 7.0125 4.65025C7.15417 4.65025 7.28958 4.619 7.41875 4.5565C7.54792 4.494 7.6625 4.40441 7.7625 4.28775C7.82917 4.20441 7.91458 4.15233 8.01875 4.1315C8.12292 4.11066 8.22083 4.13358 8.3125 4.20025C8.8375 4.57525 9.25 5.05441 9.55 5.63775C9.85 6.22108 10 6.84191 10 7.50025C10 8.61691 9.6125 9.56275 8.8375 10.3377C8.0625 11.1127 7.11667 11.5002 6 11.5002ZM3 7.50025C3 7.93358 3.0875 8.344 3.2625 8.7315C3.4375 9.119 3.6875 9.45858 4.0125 9.75025C4.00417 9.70858 4 9.67108 4 9.63775V9.52525C4 9.25858 4.05 9.00858 4.15 8.77525C4.25 8.54191 4.39583 8.32941 4.5875 8.13775L6 6.75025L7.4125 8.13775C7.60417 8.32941 7.75 8.54191 7.85 8.77525C7.95 9.00858 8 9.25858 8 9.52525V9.63775C8 9.67108 7.99583 9.70858 7.9875 9.75025C8.3125 9.45858 8.5625 9.119 8.7375 8.7315C8.9125 8.344 9 7.93358 9 7.50025C9 7.08358 8.92292 6.68983 8.76875 6.319C8.61458 5.94816 8.39167 5.61691 8.1 5.32525C7.93333 5.43358 7.75833 5.51483 7.575 5.569C7.39167 5.62316 7.20417 5.65025 7.0125 5.65025C6.49583 5.65025 6.04792 5.47941 5.66875 5.13775C5.28958 4.79608 5.07083 4.37525 5.0125 3.87525C4.3625 4.42525 3.86458 5.01066 3.51875 5.6315C3.17292 6.25233 3 6.87525 3 7.50025ZM6 8.15025L5.2875 8.85025C5.19583 8.94191 5.125 9.04608 5.075 9.16275C5.025 9.27941 5 9.40025 5 9.52525C5 9.79191 5.09792 10.0211 5.29375 10.2127C5.48958 10.4044 5.725 10.5002 6 10.5002C6.275 10.5002 6.51042 10.4044 6.70625 10.2127C6.90208 10.0211 7 9.79191 7 9.52525C7 9.39191 6.975 9.269 6.925 9.1565C6.875 9.044 6.80417 8.94191 6.7125 8.85025L6 8.15025Z" fill="white"/>
</svg>
