<svg width="13" height="12" viewBox="0 0 13 12" fill="none" xmlns="http://www.w3.org/2000/svg">
<path d="M6.5 11.0002C5.38333 11.0002 4.4375 10.6127 3.6625 9.83775C2.8875 9.06275 2.5 8.11691 2.5 7.00025C2.5 6.05858 2.77917 5.15441 3.3375 4.28775C3.89583 3.42108 4.6625 2.66275 5.6375 2.01275C5.82083 1.88775 6.01042 1.8815 6.20625 1.994C6.40208 2.1065 6.5 2.27525 6.5 2.50025V3.15025C6.5 3.43358 6.59792 3.67108 6.79375 3.86275C6.98958 4.05441 7.22917 4.15025 7.5125 4.15025C7.65417 4.15025 7.78958 4.119 7.91875 4.0565C8.04792 3.994 8.1625 3.90441 8.2625 3.78775C8.32917 3.70441 8.41458 3.65233 8.51875 3.6315C8.62292 3.61066 8.72083 3.63358 8.8125 3.70025C9.3375 4.07525 9.75 4.55441 10.05 5.13775C10.35 5.72108 10.5 6.34191 10.5 7.00025C10.5 8.11691 10.1125 9.06275 9.3375 9.83775C8.5625 10.6127 7.61667 11.0002 6.5 11.0002ZM3.5 7.00025C3.5 7.43358 3.5875 7.844 3.7625 8.2315C3.9375 8.619 4.1875 8.95858 4.5125 9.25025C4.50417 9.20858 4.5 9.17108 4.5 9.13775V9.02525C4.5 8.75858 4.55 8.50858 4.65 8.27525C4.75 8.04191 4.89583 7.82941 5.0875 7.63775L6.5 6.25025L7.9125 7.63775C8.10417 7.82941 8.25 8.04191 8.35 8.27525C8.45 8.50858 8.5 8.75858 8.5 9.02525V9.13775C8.5 9.17108 8.49583 9.20858 8.4875 9.25025C8.8125 8.95858 9.0625 8.619 9.2375 8.2315C9.4125 7.844 9.5 7.43358 9.5 7.00025C9.5 6.58358 9.42292 6.18983 9.26875 5.819C9.11458 5.44816 8.89167 5.11691 8.6 4.82525C8.43333 4.93358 8.25833 5.01483 8.075 5.069C7.89167 5.12316 7.70417 5.15025 7.5125 5.15025C6.99583 5.15025 6.54792 4.97941 6.16875 4.63775C5.78958 4.29608 5.57083 3.87525 5.5125 3.37525C4.8625 3.92525 4.36458 4.51066 4.01875 5.1315C3.67292 5.75233 3.5 6.37525 3.5 7.00025ZM6.5 7.65025L5.7875 8.35025C5.69583 8.44191 5.625 8.54608 5.575 8.66275C5.525 8.77941 5.5 8.90025 5.5 9.02525C5.5 9.29191 5.59792 9.52108 5.79375 9.71275C5.98958 9.90441 6.225 10.0002 6.5 10.0002C6.775 10.0002 7.01042 9.90441 7.20625 9.71275C7.40208 9.52108 7.5 9.29191 7.5 9.02525C7.5 8.89191 7.475 8.769 7.425 8.6565C7.375 8.544 7.30417 8.44191 7.2125 8.35025L6.5 7.65025Z" fill="#FDFAE8"/>
</svg>
