<svg width="10" height="14" viewBox="0 0 10 14" fill="none" xmlns="http://www.w3.org/2000/svg">
<g id="Group 1591">
<path id="Vector 1632" d="M3.91396 0.879232C3.86837 0.845843 3.80789 0.840908 3.75749 0.866466C3.70709 0.892024 3.67533 0.943736 3.67533 1.00024C3.67533 2.2173 3.37712 4.3677 1.91913 5.81683C0.501273 7.22607 0.196798 8.90467 0.779607 10.3169C1.36021 11.7237 2.80784 12.8341 4.82965 13.1482C4.84428 13.1505 4.85917 13.1506 4.87383 13.1485C5.96343 12.9933 7.46358 12.6021 8.45884 11.4439C9.46244 10.2761 9.91904 8.37047 9.01063 5.26572C8.99381 5.20825 8.94442 5.16628 8.88498 5.15897C8.82555 5.15166 8.76746 5.1804 8.73721 5.23209C8.71064 5.27749 8.68331 5.32485 8.65514 5.37366C8.48826 5.66279 8.29212 6.00265 8.0516 6.28809C7.80448 6.58138 7.53081 6.79228 7.22104 6.83993C7.13084 6.1413 6.81931 5.07031 6.30312 3.98939C5.74922 2.82951 4.95026 1.63822 3.91396 0.879232Z" fill="#818181" stroke="#282828" stroke-width="0.299993" stroke-linejoin="round"/>
<path id="Vector 1803" d="M2.02487 5.92321C3.52554 4.43166 3.82533 2.23099 3.82533 1.00024C4.1214 1.21708 4.39827 1.47084 4.65557 1.75023C4.83605 3.55019 3.57512 5.71014 2.52514 6.55012C1.77516 7.15011 1.10017 7.90009 1.10017 9.10007C1.10017 11.2636 3.27848 12.6399 4.54337 12.9447C4.64481 12.9653 4.74793 12.9837 4.85268 13C4.75797 12.9899 4.65417 12.9714 4.54337 12.9447C0.80863 12.1887 -0.662441 8.59419 2.02487 5.92321Z" fill="#9D9D9D"/>
<path id="Subtract" fill-rule="evenodd" clip-rule="evenodd" d="M0.657184 8.69024C0.527247 10.7084 2.14438 12.5793 4.85244 13C7.01302 12.6923 10.6669 11.4615 8.86643 5.30783C8.84064 5.3519 8.81385 5.39835 8.78602 5.44659C8.76831 5.4773 8.75017 5.50873 8.73161 5.54076C10.1012 10.9928 6.72804 12.1131 4.70752 12.3999C2.2909 12.0257 0.774061 10.4591 0.657184 8.69024ZM7.15483 6.99792C7.13263 6.99936 7.11022 7.0001 7.0876 7.0001C6.98237 5.83139 6.10426 3.23634 4.53095 1.61877C5.94917 3.27944 6.70132 5.98464 6.79981 7.07504C6.91918 7.07504 7.03817 7.04741 7.15483 6.99792Z" fill="#545454"/>
<path id="Vector 1633" d="M4.84988 13C0.724955 12.4751 2.82489 7.07517 4.99984 5.27521C4.62487 7.97515 6.70513 7.81216 6.94982 10.3001C7.0998 11.8251 6.49982 12.85 4.84988 13Z" fill="#A0A0A0"/>
<path id="Vector 1807" d="M4.84991 13C1.71805 12.3666 3.06802 8.56672 4.49157 7.30008C4.49162 9.5167 6.19988 9.20004 6.19988 11.1C6.19988 12.3666 5.59989 12.925 4.84991 13Z" fill="#A9A9A9"/>
<path id="Vector 1808" d="M4.8655 13C6.57379 12.6667 5.59996 10.825 4.77496 10.0001C4.84998 11.275 4.17503 11.2 4.1 12.025C4.05019 12.5727 4.50313 12.9444 4.8655 13Z" fill="#B9B7B7"/>
<path id="Vector 1804" d="M4.8498 12.9999C5.74976 12.8499 5.29977 11.8749 4.84977 11.3499C4.77477 11.9499 4.44119 12.0099 4.40178 12.4637C4.37561 12.7649 4.65943 12.9694 4.8498 12.9999Z" fill="#8C8C8C"/>
<path id="Vector 1633_2" d="M4.75441 12.9794C1.74591 12.2885 3.0827 8.55365 4.49157 7.30008C4.49158 7.8183 4.58496 8.19806 4.72804 8.50005C4.44367 8.77505 3.82993 9.67003 3.64993 11.05C3.48188 12.3384 4.28104 12.8554 4.75441 12.9794C4.78577 12.9866 4.8176 12.9934 4.84991 13C4.82003 12.995 4.78805 12.9882 4.75441 12.9794Z" fill="#B7B7B7"/>
<path id="Vector 1805" d="M8.67487 6.17511C8.47488 6.4501 7.93989 7.04509 7.3999 7.22509" stroke="#B3B3B3" stroke-width="0.299993" stroke-linecap="round" stroke-linejoin="round"/>
<path id="Vector 1799" d="M8.67489 6.17511C8.57269 6.31563 8.38302 6.53971 8.1499 6.74928" stroke="#DBDBDB" stroke-width="0.299993" stroke-linecap="round" stroke-linejoin="round"/>
<path id="Vector 1806" d="M4.09983 1.75021C4.02483 2.95019 3.64984 4.37516 2.97485 5.27514" stroke="#B3B3B3" stroke-width="0.299993" stroke-linecap="round" stroke-linejoin="round"/>
<path id="Vector 1800" d="M4.09984 1.75021C4.07281 2.18268 4.00682 2.64438 3.90186 3.10018" stroke="#DBDBDB" stroke-width="0.299993" stroke-linecap="round" stroke-linejoin="round"/>
<path id="Vector 1801" d="M4.24983 8.05005C3.87484 8.50004 3.42485 9.40002 3.34985 10.3" stroke="#CBCBCB" stroke-width="0.299993" stroke-linecap="round" stroke-linejoin="round"/>
<g id="Group 1590">
<circle id="Ellipse 985" cx="7.24961" cy="8.49991" r="0.149997" fill="#656565"/>
<circle id="Ellipse 988" cx="6.87456" cy="8.87496" r="0.0749984" fill="#656565"/>
<circle id="Ellipse 989" cx="7.62456" cy="8.12496" r="0.0749984" fill="#656565"/>
<circle id="Ellipse 990" cx="7.77471" cy="8.72505" r="0.0749984" fill="#656565"/>
<circle id="Ellipse 991" cx="7.32475" cy="9.17491" r="0.0749984" fill="#656565"/>
<circle id="Ellipse 992" cx="7.17461" cy="9.92488" r="0.0749984" fill="#656565"/>
<circle id="Ellipse 993" cx="6.42461" cy="7.52504" r="0.0749984" fill="#656565"/>
<circle id="Ellipse 995" cx="6.27471" cy="6.32503" r="0.0749984" fill="#656565"/>
<circle id="Ellipse 996" cx="6.27471" cy="6.92497" r="0.0749984" fill="#656565"/>
<circle id="Ellipse 997" cx="5.97466" cy="7.52504" r="0.0749984" fill="#656565"/>
<circle id="Ellipse 1004" cx="2.52471" cy="8.42491" r="0.0749984" fill="#656565"/>
<circle id="Ellipse 1005" cx="2.2249" cy="7.67494" r="0.0749984" fill="#656565"/>
<circle id="Ellipse 1006" cx="3.1248" cy="7.22508" r="0.0749984" fill="#656565"/>
<circle id="Ellipse 1007" cx="2.52471" cy="7.22508" r="0.0749984" fill="#656565"/>
<circle id="Ellipse 1008" cx="3.27471" cy="6.62499" r="0.0749984" fill="#656565"/>
<circle id="Ellipse 1009" cx="2.3748" cy="8.87496" r="0.0749984" fill="#656565"/>
<circle id="Ellipse 1010" cx="1.92461" cy="8.72505" r="0.0749984" fill="#656565"/>
<circle id="Ellipse 1011" cx="1.6248" cy="9.32497" r="0.0749984" fill="#656565"/>
<circle id="Ellipse 1012" cx="2.07475" cy="9.62492" r="0.0749984" fill="#656565"/>
<circle id="Ellipse 1013" cx="2.07475" cy="10.225" r="0.0749984" fill="#656565"/>
<circle id="Ellipse 998" cx="5.37456" cy="6.17497" r="0.0749984" fill="#656565"/>
<circle id="Ellipse 999" cx="5.82475" cy="6.47508" r="0.0749984" fill="#656565"/>
<circle id="Ellipse 1000" cx="5.52471" cy="5.57506" r="0.0749984" fill="#656565"/>
<circle id="Ellipse 986" cx="6.49961" cy="8.19995" r="0.149997" fill="#656565"/>
<circle id="Ellipse 1001" cx="1.8497" cy="8.19995" r="0.149997" fill="#656565"/>
<circle id="Ellipse 994" cx="5.74961" cy="6.99997" r="0.149997" fill="#656565"/>
<circle id="Ellipse 1002" cx="2.74961" cy="7.74994" r="0.149997" fill="#656565"/>
<circle id="Ellipse 1003" cx="2.14975" cy="9.24991" r="0.149997" fill="#656565"/>
<circle id="Ellipse 987" cx="7.02456" cy="7.82494" r="0.224995" fill="#656565"/>
</g>
</g>
</svg>
