<svg width="90" height="96" viewBox="0 0 90 96" fill="none" xmlns="http://www.w3.org/2000/svg">
<path d="M36.8536 2.09241C36.5117 1.84199 36.0581 1.80498 35.6801 1.99667C35.3021 2.18835 35.0639 2.57619 35.0639 3C35.0639 12.1279 32.8273 28.2559 21.8924 39.1244C11.2585 49.6937 8.97489 62.2832 13.346 72.8748C17.7005 83.4262 28.5577 91.7539 43.7213 94.1097C43.831 94.1267 43.9427 94.1274 44.0526 94.1118C52.2246 92.948 63.4757 90.0138 70.9402 81.3277C78.4672 72.5687 81.8917 58.2767 75.0786 34.9911C74.9525 34.56 74.5821 34.2453 74.1363 34.1904C73.6905 34.1356 73.2548 34.3512 73.028 34.7388C72.8287 35.0794 72.6237 35.4345 72.4125 35.8005C71.1609 37.9691 69.6898 40.518 67.8859 42.6589C66.0325 44.8585 63.98 46.4403 61.6567 46.7976C60.9802 41.5579 58.6437 33.5255 54.7723 25.4186C50.618 16.7195 44.6259 7.7848 36.8536 2.09241Z" fill="#A940D2" stroke="#60055A" stroke-width="2.24995" stroke-linejoin="round"/>
<path d="M22.6854 39.9223C33.9404 28.7356 36.1889 12.2306 36.1889 3C38.4094 4.62629 40.4859 6.52949 42.4157 8.62488C43.7692 22.1246 34.3123 38.3242 26.4375 44.6241C20.8126 49.124 15.7502 54.7489 15.7502 63.7487C15.7502 79.9753 32.0875 90.2974 41.5742 92.5837C42.335 92.7377 43.1084 92.876 43.894 92.998C43.1837 92.9225 42.4052 92.7839 41.5742 92.5837C13.5636 86.9131 2.53058 59.9546 22.6854 39.9223Z" fill="#A854E9"/>
<path fill-rule="evenodd" clip-rule="evenodd" d="M12.4297 60.6734C11.4544 75.8103 23.583 89.8422 43.894 92.9976C60.0984 90.69 87.5026 81.4594 73.9989 35.3066C73.8055 35.6371 73.6046 35.9854 73.3959 36.3473C73.2632 36.5773 73.1273 36.8129 72.9882 37.0528C83.2588 77.9414 57.9608 86.3435 42.8071 88.4948C24.683 85.6879 13.3069 73.9394 12.4297 60.6734ZM61.1552 47.9827C60.9909 47.9932 60.8251 47.9986 60.6577 47.9986C59.8689 39.2375 53.289 19.7892 41.5 7.65625C52.1256 20.1129 57.761 40.3846 58.4993 48.5582C59.3923 48.5582 60.2824 48.352 61.1552 47.9827Z" fill="#6E28AB"/>
<path d="M43.8755 92.9958C12.9385 89.0584 28.688 48.5593 45.0001 35.0596C42.1879 55.3091 57.7898 54.0867 59.625 72.7462C60.7498 84.1835 56.25 91.8708 43.8755 92.9958Z" fill="#C74EFF"/>
<path d="M43.8751 92.9991C20.3861 88.2492 30.5109 59.7498 41.1875 50.25C41.1878 66.8746 53.9998 64.4997 53.9998 78.7494C53.9998 88.2492 49.4999 92.4366 43.8751 92.9991Z" fill="#D15CFF"/>
<path d="M43.9877 92.9976C56.7999 90.4976 49.4962 76.6854 43.3086 70.498C43.8713 80.0603 38.8092 79.4979 38.2465 85.6852C37.8729 89.7932 41.2699 92.5809 43.9877 92.9976Z" fill="#CD2DF5"/>
<path d="M43.8785 92.9997C50.6282 91.8748 47.2533 84.5624 43.8782 80.625C43.3158 85.1249 40.8139 85.5749 40.5183 88.9779C40.3221 91.2373 42.4507 92.7706 43.8785 92.9997Z" fill="#8C0AE2"/>
<path d="M43.1588 92.8445C20.595 87.6632 30.621 59.6518 41.1875 50.25C41.1876 54.1367 41.8879 56.9849 42.9611 59.2498C40.8283 61.3123 36.2252 68.0246 34.8752 78.3744C33.6148 88.0376 39.6085 91.9149 43.1588 92.8445C43.394 92.8986 43.6328 92.9501 43.8751 92.9991C43.651 92.9618 43.4111 92.9106 43.1588 92.8445Z" fill="#FF6AF5"/>
<path d="M72.5623 41.8125C71.0623 43.875 67.0499 48.3374 63 49.6873" stroke="#C76DFF" stroke-width="2.24995" stroke-linecap="round" stroke-linejoin="round"/>
<path d="M72.5624 41.8125C71.7959 42.8664 70.3734 44.547 68.625 46.1188" stroke="#E3CFFF" stroke-width="2.24995" stroke-linecap="round" stroke-linejoin="round"/>
<path d="M38.2537 8.625C37.6912 17.6248 34.8788 28.3121 29.8164 35.0619" stroke="#C76DFF" stroke-width="2.24995" stroke-linecap="round" stroke-linejoin="round"/>
<path d="M38.2544 8.625C38.0517 11.8685 37.5567 15.3312 36.7695 18.7498" stroke="#E3CFFF" stroke-width="2.24995" stroke-linecap="round" stroke-linejoin="round"/>
<path d="M39.3788 55.875C36.5663 59.2499 33.1914 65.9998 32.6289 72.7496" stroke="#FFDEC0" stroke-width="2.24995" stroke-linecap="round" stroke-linejoin="round"/>
<circle cx="61.8691" cy="59.2519" r="1.12498" fill="#D744F4"/>
<circle cx="59.0605" cy="62.0625" r="0.562488" fill="#D744F4"/>
<circle cx="64.6836" cy="56.4385" r="0.562488" fill="#D744F4"/>
<circle cx="65.8066" cy="60.9346" r="0.562488" fill="#D744F4"/>
<circle cx="62.4394" cy="64.3135" r="0.562488" fill="#D744F4"/>
<circle cx="61.3066" cy="69.9385" r="0.562488" fill="#D744F4"/>
<circle cx="55.6816" cy="51.9365" r="0.562488" fill="#D744F4"/>
<circle cx="54.5586" cy="42.9375" r="0.562488" fill="#D744F4"/>
<circle cx="54.5586" cy="47.4394" r="0.562488" fill="#D744F4"/>
<circle cx="52.3125" cy="51.9365" r="0.562488" fill="#D744F4"/>
<circle cx="26.4336" cy="58.6894" r="0.562488" fill="#D744F4"/>
<circle cx="24.1875" cy="53.0644" r="0.562488" fill="#D744F4"/>
<circle cx="30.9355" cy="49.6855" r="0.562488" fill="#D744F4"/>
<circle cx="26.4336" cy="49.6855" r="0.562488" fill="#D744F4"/>
<circle cx="32.0586" cy="45.1885" r="0.562488" fill="#D744F4"/>
<circle cx="25.3105" cy="62.0625" r="0.562488" fill="#D744F4"/>
<circle cx="21.9316" cy="60.9346" r="0.562488" fill="#D744F4"/>
<circle cx="19.6855" cy="65.4365" r="0.562488" fill="#D744F4"/>
<circle cx="23.0644" cy="67.6875" r="0.562488" fill="#D744F4"/>
<circle cx="23.0644" cy="72.1846" r="0.562488" fill="#D744F4"/>
<circle cx="47.8105" cy="41.8144" r="0.562488" fill="#D744F4"/>
<circle cx="51.1894" cy="44.0605" r="0.562488" fill="#D744F4"/>
<circle cx="48.9336" cy="37.3125" r="0.562488" fill="#D744F4"/>
<circle cx="56.2441" cy="57.001" r="1.12498" fill="#D744F4"/>
<circle cx="21.3711" cy="57.001" r="1.12498" fill="#D744F4"/>
<circle cx="50.6191" cy="48.0019" r="1.12498" fill="#D744F4"/>
<circle cx="28.1191" cy="53.6269" r="1.12498" fill="#D744F4"/>
<circle cx="23.6269" cy="64.876" r="1.12498" fill="#D744F4"/>
<circle cx="60.1855" cy="54.1894" r="1.68746" fill="#D744F4"/>
</svg>
