<svg width="12" height="12" viewBox="0 0 12 12" fill="none" xmlns="http://www.w3.org/2000/svg">
<path d="M6 11.0002C4.88333 11.0002 3.9375 10.6127 3.1625 9.83769C2.3875 9.06269 2 8.11685 2 7.00019C2 6.05852 2.27917 5.15435 2.8375 4.28769C3.39583 3.42102 4.1625 2.66269 5.1375 2.01269C5.32083 1.88769 5.51042 1.88144 5.70625 1.99394C5.90208 2.10644 6 2.27519 6 2.50019V3.15019C6 3.43352 6.09792 3.67102 6.29375 3.86269C6.48958 4.05435 6.72917 4.15019 7.0125 4.15019C7.15417 4.15019 7.28958 4.11894 7.41875 4.05644C7.54792 3.99394 7.6625 3.90435 7.7625 3.78769C7.82917 3.70435 7.91458 3.65227 8.01875 3.63144C8.12292 3.6106 8.22083 3.63352 8.3125 3.70019C8.8375 4.07519 9.25 4.55435 9.55 5.13769C9.85 5.72102 10 6.34185 10 7.00019C10 8.11685 9.6125 9.06269 8.8375 9.83769C8.0625 10.6127 7.11667 11.0002 6 11.0002ZM3 7.00019C3 7.43352 3.0875 7.84394 3.2625 8.23144C3.4375 8.61894 3.6875 8.95852 4.0125 9.25019C4.00417 9.20852 4 9.17102 4 9.13769V9.02519C4 8.75852 4.05 8.50852 4.15 8.27519C4.25 8.04185 4.39583 7.82935 4.5875 7.63769L6 6.25019L7.4125 7.63769C7.60417 7.82935 7.75 8.04185 7.85 8.27519C7.95 8.50852 8 8.75852 8 9.02519V9.13769C8 9.17102 7.99583 9.20852 7.9875 9.25019C8.3125 8.95852 8.5625 8.61894 8.7375 8.23144C8.9125 7.84394 9 7.43352 9 7.00019C9 6.58352 8.92292 6.18977 8.76875 5.81894C8.61458 5.4481 8.39167 5.11685 8.1 4.82519C7.93333 4.93352 7.75833 5.01477 7.575 5.06894C7.39167 5.1231 7.20417 5.15019 7.0125 5.15019C6.49583 5.15019 6.04792 4.97935 5.66875 4.63769C5.28958 4.29602 5.07083 3.87519 5.0125 3.37519C4.3625 3.92519 3.86458 4.5106 3.51875 5.13144C3.17292 5.75227 3 6.37519 3 7.00019ZM6 7.65019L5.2875 8.35019C5.19583 8.44185 5.125 8.54602 5.075 8.66269C5.025 8.77935 5 8.90019 5 9.02519C5 9.29185 5.09792 9.52102 5.29375 9.71269C5.48958 9.90435 5.725 10.0002 6 10.0002C6.275 10.0002 6.51042 9.90435 6.70625 9.71269C6.90208 9.52102 7 9.29185 7 9.02519C7 8.89185 6.975 8.76894 6.925 8.65644C6.875 8.54394 6.80417 8.44185 6.7125 8.35019L6 7.65019Z" fill="white"/>
</svg>
