<svg xmlns="http://www.w3.org/2000/svg" width="23" height="22" viewBox="0 0 23 22" fill="none">
  <path d="M8.47501 11.8492L9.73543 12.6971L11.0875 12.0096C11.2097 11.9332 11.3472 11.895 11.5 11.895C11.6528 11.895 11.7903 11.9332 11.9125 12.0096L13.2646 12.6971L14.4792 11.895L13.5625 10.0846H9.34585L8.47501 11.8492ZM5.2896 18.3346H17.6875L15.3042 13.545L13.8375 14.5304C13.7 14.6221 13.5511 14.6717 13.3906 14.6794C13.2302 14.687 13.0736 14.6526 12.9208 14.5763L11.5 13.8658L10.0792 14.5763C9.9264 14.6526 9.7698 14.6832 9.60939 14.6679C9.44897 14.6526 9.30001 14.5992 9.16251 14.5075L7.65001 13.5221L5.2896 18.3346ZM3.80001 20.1679C3.44862 20.1679 3.18508 20.0228 3.00939 19.7325C2.83369 19.4422 2.82223 19.1443 2.97501 18.8388L7.69585 9.28251C7.84862 8.97696 8.07397 8.72869 8.37189 8.53772C8.6698 8.34675 8.99446 8.25126 9.34585 8.25126H10.5833V2.75126C10.5833 2.49154 10.6712 2.27383 10.8469 2.09814C11.0226 1.92244 11.2403 1.83459 11.5 1.83459H16.2667C16.4347 1.83459 16.5646 1.90716 16.6563 2.0523C16.7479 2.19744 16.7556 2.3464 16.6792 2.49918L16.175 3.46168C16.1445 3.53807 16.1292 3.60682 16.1292 3.66793C16.1292 3.72904 16.1445 3.79779 16.175 3.87418L16.6792 4.83668C16.7556 4.98946 16.7479 5.13841 16.6563 5.28355C16.5646 5.42869 16.4347 5.50126 16.2667 5.50126H12.4167V8.25126H13.5625C13.9139 8.25126 14.2347 8.34293 14.525 8.52626C14.8153 8.70959 15.0445 8.95404 15.2125 9.25959L20.0021 18.8388C20.1549 19.1443 20.1434 19.4422 19.9677 19.7325C19.792 20.0228 19.5285 20.1679 19.1771 20.1679H3.80001Z" fill="#D9DCE1"/>
</svg>