<svg width="18" height="18" viewBox="0 0 18 18" fill="none" xmlns="http://www.w3.org/2000/svg">
<g clip-path="url(#clip0_802_162981)">
<path d="M2.90674 10.1647C2.90674 9.92436 3.1016 9.72949 3.34198 9.72949H14.6583C14.8987 9.72949 15.0935 9.92436 15.0935 10.1647V16.6934C15.0935 17.1741 14.7038 17.5638 14.223 17.5638H3.77722C3.29647 17.5638 2.90674 17.1741 2.90674 16.6934V10.1647Z" fill="#F24D5D"/>
<path fill-rule="evenodd" clip-rule="evenodd" d="M3.34168 9.29395H14.658C15.1387 9.29395 15.5285 9.68367 15.5285 10.1644V16.6931C15.5285 17.4142 14.9439 17.9988 14.2227 17.9988H3.77692C3.05579 17.9988 2.47119 17.4142 2.47119 16.6931V10.1644C2.47119 9.68367 2.86092 9.29395 3.34168 9.29395ZM3.34168 9.72919C3.1013 9.72919 2.90643 9.92405 2.90643 10.1644V16.6931C2.90643 17.1738 3.29616 17.5635 3.77692 17.5635H14.2227C14.7035 17.5635 15.0932 17.1738 15.0932 16.6931V10.1644C15.0932 9.92405 14.8983 9.72919 14.658 9.72919H3.34168Z" fill="#CD2222"/>
<path fill-rule="evenodd" clip-rule="evenodd" d="M3.30112 11.748C3.42131 11.748 3.51874 11.8455 3.51874 11.9657V15.9373C3.51874 16.0574 3.42131 16.1549 3.30112 16.1549C3.18093 16.1549 3.0835 16.0574 3.0835 15.9373V11.9657C3.0835 11.8455 3.18093 11.748 3.30112 11.748Z" fill="#F284AC"/>
<path fill-rule="evenodd" clip-rule="evenodd" d="M2.98389 17.0517C3.12047 17.3537 3.42442 17.5638 3.77744 17.5638H14.2232C14.704 17.5638 15.0937 17.1741 15.0937 16.6934V10.1647C15.0937 9.92436 14.8989 9.72949 14.6585 9.72949V16.2581C14.6585 16.7389 14.2688 17.1286 13.788 17.1286H3.3422C3.21447 17.1286 3.09316 17.1011 2.98389 17.0517Z" fill="#D72A33"/>
<path d="M2.90674 9.29395H15.0935V11.443H2.90674V9.29395Z" fill="#D72A33"/>
<path d="M13.7009 13.1495C13.7009 13.2661 13.6064 13.3606 13.4899 13.3606C13.3733 13.3606 13.2788 13.2661 13.2788 13.1495C13.2788 13.033 13.3733 12.9385 13.4899 12.9385C13.6064 12.9385 13.7009 13.033 13.7009 13.1495Z" fill="#E52225"/>
<path d="M14.0896 16.7267C14.0896 16.8433 13.9951 16.9378 13.8785 16.9378C13.762 16.9378 13.6675 16.8433 13.6675 16.7267C13.6675 16.6101 13.762 16.5156 13.8785 16.5156C13.9951 16.5156 14.0896 16.6101 14.0896 16.7267Z" fill="#E52225"/>
<path d="M14.5557 13.6453C14.5557 13.8026 14.4281 13.9302 14.2708 13.9302C14.1134 13.9302 13.9858 13.8026 13.9858 13.6453C13.9858 13.4879 14.1134 13.3604 14.2708 13.3604C14.4281 13.3604 14.5557 13.4879 14.5557 13.6453Z" fill="#E52225"/>
<path d="M14.4132 12.7196C14.4132 12.8376 14.3176 12.9333 14.1995 12.9333C14.0815 12.9333 13.9858 12.8376 13.9858 12.7196C13.9858 12.6015 14.0815 12.5059 14.1995 12.5059C14.3176 12.5059 14.4132 12.6015 14.4132 12.7196Z" fill="#E52225"/>
<path d="M14.5866 14.87C14.5866 15.1148 14.3882 15.3132 14.1434 15.3132C13.8986 15.3132 13.7002 15.1148 13.7002 14.87C13.7002 14.6252 13.8986 14.4268 14.1434 14.4268C14.3882 14.4268 14.5866 14.6252 14.5866 14.87Z" fill="#E52225"/>
<path d="M13.7002 14.073C13.7002 14.2304 13.5727 14.3579 13.4153 14.3579C13.2579 14.3579 13.1304 14.2304 13.1304 14.073C13.1304 13.9157 13.2579 13.7881 13.4153 13.7881C13.5727 13.7881 13.7002 13.9157 13.7002 14.073Z" fill="#E52225"/>
<path d="M14.6592 16.0252C14.6592 16.1825 14.5316 16.3101 14.3743 16.3101C14.2169 16.3101 14.0894 16.1825 14.0894 16.0252C14.0894 15.8678 14.2169 15.7402 14.3743 15.7402C14.5316 15.7402 14.6592 15.8678 14.6592 16.0252Z" fill="#E52225"/>
<path d="M13.8354 15.793C13.8354 15.8884 13.758 15.9658 13.6626 15.9658C13.5671 15.9658 13.4897 15.8884 13.4897 15.793C13.4897 15.6975 13.5671 15.6201 13.6626 15.6201C13.758 15.6201 13.8354 15.6975 13.8354 15.793Z" fill="#E52225"/>
<path d="M13.2354 16.3367C13.2354 16.4941 13.1078 16.6216 12.9505 16.6216C12.7931 16.6216 12.6655 16.4941 12.6655 16.3367C12.6655 16.1793 12.7931 16.0518 12.9505 16.0518C13.1078 16.0518 13.2354 16.1793 13.2354 16.3367Z" fill="#E52225"/>
<path d="M13.2784 15.366C13.2784 15.5233 13.1508 15.6509 12.9934 15.6509C12.8361 15.6509 12.7085 15.5233 12.7085 15.366C12.7085 15.2086 12.8361 15.0811 12.9934 15.0811C13.1508 15.0811 13.2784 15.2086 13.2784 15.366Z" fill="#E52225"/>
<path d="M12.234 16.7244C12.234 16.8425 12.1384 16.9381 12.0203 16.9381C11.9023 16.9381 11.8066 16.8425 11.8066 16.7244C11.8066 16.6064 11.9023 16.5107 12.0203 16.5107C12.1384 16.5107 12.234 16.6064 12.234 16.7244Z" fill="#E52225"/>
<path d="M1.16553 8.20581C1.16553 7.2443 1.94499 6.46484 2.9065 6.46484H15.0933C16.0548 6.46484 16.8342 7.2443 16.8342 8.20581V9.94678C16.8342 10.1872 16.6394 10.382 16.399 10.382H1.60077C1.36039 10.382 1.16553 10.1872 1.16553 9.94678V8.20581Z" fill="#F24D5D"/>
<path fill-rule="evenodd" clip-rule="evenodd" d="M2.90668 6.03027H15.0935C16.2953 6.03027 17.2697 7.0046 17.2697 8.20648V9.94745C17.2697 10.4282 16.8799 10.8179 16.3992 10.8179H1.60095C1.1202 10.8179 0.730469 10.4282 0.730469 9.94745V8.20648C0.730469 7.0046 1.70479 6.03027 2.90668 6.03027ZM2.90668 6.46552C1.94517 6.46552 1.16571 7.24497 1.16571 8.20648V9.94745C1.16571 10.1878 1.36058 10.3827 1.60095 10.3827H16.3992C16.6396 10.3827 16.8344 10.1878 16.8344 9.94745V8.20648C16.8344 7.24497 16.055 6.46552 15.0935 6.46552H2.90668Z" fill="#BC2020"/>
<path fill-rule="evenodd" clip-rule="evenodd" d="M1.22363 10.1638C1.29889 10.2939 1.43955 10.3814 1.60065 10.3814H16.3989C16.6393 10.3814 16.8341 10.1865 16.8341 9.94616V8.20519C16.8341 7.43679 16.3363 6.78467 15.6456 6.55371C16.1007 6.86777 16.3989 7.39284 16.3989 7.98757V9.72854C16.3989 9.96892 16.204 10.1638 15.9636 10.1638H1.22363Z" fill="#F23D40"/>
<path d="M8.18408 6.46484H9.98809V17.5635H8.18408V6.46484Z" fill="#FF4646"/>
<path fill-rule="evenodd" clip-rule="evenodd" d="M7.74854 6.03027H10.423V17.9994H7.74854V6.03027ZM8.18378 6.46552V17.5642H9.98778V6.46552H8.18378Z" fill="#CD2222"/>
<path fill-rule="evenodd" clip-rule="evenodd" d="M8.61899 7.33594C8.73918 7.33594 8.83661 7.43337 8.83661 7.55356V10.9267C8.83661 11.0469 8.73918 11.1443 8.61899 11.1443C8.4988 11.1443 8.40137 11.0469 8.40137 10.9267V7.55356C8.40137 7.43337 8.4988 7.33594 8.61899 7.33594Z" fill="#FF7575"/>
<path fill-rule="evenodd" clip-rule="evenodd" d="M9.29916 9.86523C9.41935 9.86523 9.51678 9.96267 9.51678 10.0829V16.9379C9.51678 17.0581 9.41935 17.1555 9.29916 17.1555C9.17898 17.1555 9.08154 17.0581 9.08154 16.9379V10.0829C9.08154 9.96267 9.17898 9.86523 9.29916 9.86523Z" fill="#F02E2E"/>
<path d="M4.55706 7.4467C4.75608 7.99779 3.53711 7.67496 3.18273 8.17768C2.59788 9.00736 1.76262 9.07891 1.5636 8.52782C1.36457 7.97674 1.67605 7.26571 2.50267 6.96716C3.32929 6.66862 4.35803 6.89562 4.55706 7.4467Z" fill="#FF8F91"/>
<path d="M4.68749 6.26C6.32846 5.77147 8.01502 6.00268 8.6951 6.26L9.53839 5.77147C6.81812 4.60175 6.15164 4.75137 5.41719 4.75137L4.68749 6.26Z" fill="#DC2C2C"/>
<path fill-rule="evenodd" clip-rule="evenodd" d="M8.9132 6.63659C8.80002 6.70216 8.66334 6.71334 8.541 6.66705C7.94752 6.4425 6.35867 6.21655 4.8116 6.67713C4.64633 6.72633 4.4676 6.67332 4.35588 6.54197C4.24416 6.41062 4.22052 6.2257 4.2956 6.07046L5.0253 4.56182C5.09798 4.41156 5.2502 4.31609 5.41712 4.3161C5.48101 4.3161 5.54744 4.31468 5.61756 4.31318C5.91756 4.30678 6.28516 4.29894 6.81089 4.39452C7.45465 4.51157 8.33509 4.78028 9.71025 5.3716C9.86142 5.4366 9.96301 5.58131 9.97279 5.74557C9.98257 5.90983 9.89888 6.06557 9.75649 6.14805L8.9132 6.63659ZM9.03466 5.56022C6.97728 4.72082 6.25704 4.7356 5.6372 4.74833C5.56311 4.74985 5.49045 4.75134 5.41712 4.75134L4.68742 6.25998C4.8707 6.20541 5.05456 6.15982 5.23751 6.12225C6.69258 5.82342 8.09091 6.03139 8.69503 6.25998L9.53832 5.77144C9.362 5.69563 9.1943 5.62535 9.03466 5.56022Z" fill="#B31B1B"/>
<path d="M13.8805 6.33124C11.9463 5.81272 10.5601 5.86668 9.56524 6.14002L8.98111 5.95658C11.4671 4.64309 12.4145 4.98635 13.0581 5.10359L13.8805 6.33124Z" fill="#BF2222"/>
<path fill-rule="evenodd" clip-rule="evenodd" d="M9.42713 6.55404C9.50698 6.57912 9.59283 6.58054 9.67435 6.55814C10.5779 6.30988 11.8833 6.24725 13.7599 6.75037C13.9354 6.79742 14.1238 6.73019 14.2321 6.5819C14.3404 6.4336 14.3456 6.23561 14.2452 6.08571L13.4228 4.85806C13.3588 4.76255 13.2586 4.69713 13.1445 4.67634C13.1015 4.66849 13.0546 4.65896 13.0038 4.64861C12.7073 4.58823 12.2762 4.50046 11.6744 4.56151C10.9729 4.63267 10.0586 4.89947 8.78225 5.57382C8.62596 5.65639 8.53295 5.82323 8.54621 5.99718C8.55947 6.17113 8.67643 6.31829 8.843 6.3706L9.42713 6.55404ZM9.57906 6.13612C10.4607 5.89652 11.6481 5.82924 13.2489 6.17737C13.4527 6.2217 13.6632 6.27276 13.8807 6.33106L13.0583 5.10341C13.0086 5.09436 12.9571 5.08395 12.9032 5.07307C12.3144 4.95417 11.4414 4.77787 9.54264 5.67503C9.36475 5.75908 9.17784 5.85256 8.98133 5.95639L9.56545 6.13984C9.56998 6.13859 9.57452 6.13735 9.57906 6.13612Z" fill="#9D1818"/>
<path fill-rule="evenodd" clip-rule="evenodd" d="M12.7578 5.25945C12.6615 5.33302 12.642 5.46954 12.7142 5.56436L13.0054 5.94664C13.0776 6.04147 13.2142 6.05869 13.3105 5.98511C13.4068 5.91153 13.4263 5.77502 13.3541 5.6802L13.0629 5.29791C12.9907 5.20309 12.8541 5.18587 12.7578 5.25945Z" fill="#DE3838"/>
<path d="M2.58545 4.17277C5.29571 4.07604 7.34582 5.34474 8.17115 5.96469L8.70604 5.76412C6.90996 3.46125 4.10674 2.64213 3.31993 2.60861L3.1567 3.43828L2.58545 4.17277Z" fill="#EA2F2F"/>
<path fill-rule="evenodd" clip-rule="evenodd" d="M8.32354 6.37321C8.18436 6.4254 8.02817 6.40295 7.90932 6.31368C7.12169 5.72204 5.16913 4.51705 2.60055 4.60872C2.43162 4.61475 2.27448 4.52242 2.19752 4.37192C2.12055 4.22143 2.13769 4.03998 2.24146 3.90655L2.74919 3.25374L2.89245 2.52558C2.93395 2.31464 3.12324 2.1656 3.33803 2.17475C3.81114 2.1949 4.76862 2.43251 5.82412 2.94479C6.89046 3.46233 8.09954 4.28032 9.04881 5.49743C9.134 5.60666 9.16211 5.74991 9.12452 5.88323C9.08693 6.01654 8.98813 6.12401 8.85843 6.17264L8.32354 6.37321ZM3.15627 3.43927L2.58503 4.17375C2.77233 4.16707 2.95649 4.16691 3.13731 4.1726C5.5728 4.24929 7.40243 5.38857 8.17073 5.96568L8.70561 5.76511C8.61022 5.64279 8.51198 5.52466 8.41135 5.41061C6.61743 3.37744 4.06452 2.64134 3.3195 2.6096L3.15627 3.43927Z" fill="#B31B1B"/>
<path fill-rule="evenodd" clip-rule="evenodd" d="M4.41474 4.18403C3.88632 4.04277 3.46509 4.03183 3.33759 4.04121C3.21773 4.05002 3.11341 3.96 3.1046 3.84013C3.09579 3.72027 3.18581 3.61595 3.30568 3.60714C3.48648 3.59384 3.95658 3.61102 4.52715 3.76355C4.64326 3.79459 4.71222 3.91388 4.68118 4.02999C4.65014 4.1461 4.53085 4.21507 4.41474 4.18403Z" fill="#FF4444"/>
<path d="M15.4842 4.47383C13.0917 4.38844 11.5913 5.0915 10.8627 5.63875L9.96537 5.63262C11.5508 3.59979 14.2019 2.9117 14.8965 2.88212L14.8911 3.67461L15.4842 4.47383Z" fill="#D92525"/>
<path fill-rule="evenodd" clip-rule="evenodd" d="M10.8592 6.07399C10.9545 6.07465 11.0474 6.044 11.1236 5.98676C11.7685 5.5023 13.1701 4.82679 15.4681 4.9088C15.6353 4.91477 15.791 4.82442 15.8689 4.67637C15.9467 4.52832 15.9328 4.34877 15.8331 4.21445L15.3267 3.53209L15.3311 2.8851C15.332 2.76594 15.2839 2.65166 15.1981 2.56891C15.1124 2.48617 14.9964 2.44221 14.8774 2.44728C14.458 2.46515 13.5657 2.66487 12.5847 3.10978C11.5953 3.55849 10.4706 4.27644 9.62162 5.36496C9.51965 5.4957 9.50082 5.67301 9.57305 5.82225C9.64529 5.97149 9.79604 6.06673 9.96184 6.06786L10.8592 6.07399ZM14.8905 3.67462L15.4836 4.47384C15.296 4.46714 15.1139 4.46529 14.9372 4.46784C12.8606 4.49776 11.5336 5.13442 10.8622 5.63876L9.96482 5.63263C10.0831 5.48101 10.2073 5.33686 10.3361 5.19992C11.6751 3.77685 13.5189 3.13088 14.4602 2.94246C14.6428 2.90591 14.7915 2.88658 14.8959 2.88213L14.8905 3.67462Z" fill="#B31B1B"/>
<path fill-rule="evenodd" clip-rule="evenodd" d="M14.492 2.9873C14.6122 2.9873 14.7097 3.08474 14.7097 3.20493V3.5291C14.7097 3.64929 14.6122 3.74672 14.492 3.74672C14.3718 3.74672 14.2744 3.64929 14.2744 3.5291V3.20493C14.2744 3.08474 14.3718 2.9873 14.492 2.9873Z" fill="#FF5252"/>
<path d="M10.3909 1.5008C8.32645 2.61984 8.72774 5.09152 8.72773 5.81239L9.16297 5.8804C9.34346 4.11223 10.5713 1.96323 11.5099 2.91532C12.1421 3.55672 10.0022 5.82675 9.09134 6.23404H9.81329C10.9323 6.08442 12.6346 4.532 12.9658 3.10574C13.2185 2.01763 12.4484 0.385471 10.3909 1.5008Z" fill="#E33030"/>
<path fill-rule="evenodd" clip-rule="evenodd" d="M8.656 6.2414C8.44638 6.20647 8.29236 6.02503 8.29237 5.81209C8.29237 5.7519 8.2879 5.66517 8.28235 5.55742C8.26129 5.14884 8.22467 4.43803 8.35712 3.72601C8.53057 2.79355 9.00098 1.75876 10.1833 1.11786C10.744 0.81395 11.2554 0.675933 11.7127 0.692779C12.1781 0.709927 12.5613 0.887252 12.8472 1.16391C13.3993 1.69813 13.5422 2.54682 13.3896 3.20389C13.1982 4.02817 12.6283 4.84331 11.987 5.46166C11.3529 6.07301 10.5649 6.57234 9.87085 6.66514C9.85173 6.6677 9.83246 6.66898 9.81317 6.66898H9.09122C8.88585 6.66898 8.70842 6.52542 8.66556 6.32458C8.65963 6.29679 8.6565 6.26896 8.656 6.2414ZM9.92313 6.21495C11.0405 5.98418 12.6452 4.48573 12.9657 3.10544C13.2184 2.01733 12.4483 0.38517 10.3907 1.5005C8.56494 2.49019 8.66779 4.53792 8.71595 5.49675C8.72225 5.62206 8.72761 5.72877 8.72761 5.81209L9.16285 5.8801C9.16562 5.85299 9.16863 5.82578 9.17189 5.7985C9.17677 5.75756 9.1822 5.71646 9.18816 5.67522C9.19898 5.6003 9.21154 5.52494 9.22574 5.44941C9.5383 3.78737 10.6464 2.03924 11.5098 2.91502C12.0166 3.42914 10.7422 4.98965 9.74739 5.7985C9.6963 5.84004 9.64594 5.8796 9.5966 5.91693C9.5937 5.91913 9.5908 5.92131 9.58791 5.92349C9.41043 6.05717 9.24637 6.16171 9.10885 6.22569C9.10292 6.22845 9.09704 6.23113 9.09122 6.23374H9.81317C9.84924 6.22892 9.88591 6.22264 9.92313 6.21495ZM9.71261 5.25542C9.99642 5.00049 10.2898 4.69608 10.5419 4.38707C10.8149 4.05234 11.0211 3.73442 11.1236 3.48278C11.1958 3.30541 11.1918 3.23017 11.1877 3.20865C11.1225 3.14577 11.0749 3.12671 11.0479 3.12038C11.0205 3.11399 10.9836 3.11333 10.9274 3.13473C10.7976 3.18418 10.6128 3.335 10.4088 3.62682C10.116 4.04559 9.86103 4.64379 9.71261 5.25542Z" fill="#BC2020"/>
<path fill-rule="evenodd" clip-rule="evenodd" d="M9.64415 2.23851C10.6032 0.999139 11.7984 1.21327 11.8991 1.23341C12.017 1.25698 12.0934 1.37163 12.0699 1.48948C12.0463 1.60734 11.9316 1.68377 11.8138 1.6602C11.7785 1.65314 10.7975 1.45923 9.98837 2.50487C9.91482 2.59993 9.77814 2.61736 9.68308 2.5438C9.58803 2.47025 9.5706 2.33357 9.64415 2.23851Z" fill="#FF4444"/>
<path fill-rule="evenodd" clip-rule="evenodd" d="M3.05628 7.25029C3.05982 7.37042 2.96529 7.47068 2.84515 7.47421C2.58016 7.48201 2.39235 7.66441 2.26777 7.83882C2.19791 7.93662 2.062 7.95927 1.9642 7.88941C1.86639 7.81956 1.84374 7.68364 1.9136 7.58584C2.06105 7.37941 2.35745 7.05313 2.83236 7.03916C2.9525 7.03562 3.05275 7.13015 3.05628 7.25029Z" fill="white"/>
<path d="M4.75598 2.47446C5.40883 4.24263 7.51706 5.45314 8.97239 6.22841C7.60852 5.36247 6.29915 3.77146 5.9257 3.0729C5.55226 2.37434 5.80329 1.45434 6.79619 1.63116C8.08189 1.86012 8.86699 4.86132 9.28523 6.143C9.33511 5.40891 9.15429 2.79535 8.07469 1.46797C6.41534 -0.572235 4.12194 0.757214 4.75598 2.47446Z" fill="#F23535"/>
<path fill-rule="evenodd" clip-rule="evenodd" d="M9.23586 6.5759C9.10449 6.67533 8.92247 6.69515 8.76833 6.61303C8.03782 6.22388 7.11789 5.71247 6.2951 5.06662C5.47596 4.42364 4.71472 3.61819 4.34827 2.6257C3.94625 1.53689 4.48272 0.537906 5.38864 0.160831C6.30211 -0.219383 7.48665 0.0549357 8.41294 1.19382C9.02187 1.94251 9.35361 3.01435 9.53162 3.94684C9.71113 4.88722 9.74797 5.76202 9.72005 6.17299C9.70592 6.38092 9.54637 6.54966 9.33955 6.57539C9.30448 6.57976 9.26972 6.5798 9.23586 6.5759ZM9.15674 4.32754C8.99714 3.33928 8.67479 2.20556 8.07528 1.46845C6.41592 -0.57175 4.12252 0.757699 4.75657 2.47494C5.10539 3.41968 5.86968 4.20521 6.72788 4.85022C7.42461 5.37388 8.18324 5.80492 8.83168 6.15332C8.87939 6.17896 8.92651 6.20415 8.97297 6.2289C8.92351 6.1975 8.87413 6.16514 8.82485 6.13191C8.17119 5.69105 7.53754 5.09597 7.02203 4.52674C6.50482 3.95563 6.10653 3.41055 5.92628 3.07339C5.55284 2.37483 5.80387 1.45483 6.79677 1.63165C7.6493 1.78347 8.28173 3.15419 8.73304 4.43426C8.88728 4.87175 9.02036 5.29864 9.13385 5.66266C9.15433 5.72834 9.17417 5.79198 9.19338 5.85326C9.19538 5.85964 9.19737 5.866 9.19936 5.87233C9.22976 5.96919 9.25856 6.05998 9.28581 6.14348C9.28978 6.08498 9.29229 6.01455 9.293 5.93378C9.29624 5.56384 9.26165 4.97711 9.15674 4.32754ZM8.6046 5.42959C8.43003 4.87722 8.2209 4.24793 7.96759 3.66668C7.7694 3.2119 7.55486 2.81313 7.32645 2.52114C7.09278 2.22241 6.8875 2.08989 6.72046 2.06015C6.53904 2.02784 6.43069 2.05219 6.37111 2.07957C6.31448 2.10559 6.27249 2.14739 6.24231 2.21095C6.17464 2.35347 6.17236 2.61049 6.31012 2.86819C6.47255 3.17202 6.86634 3.7138 7.39889 4.29408C7.76109 4.68876 8.17481 5.08732 8.6046 5.42959Z" fill="#BC2020"/>
<path fill-rule="evenodd" clip-rule="evenodd" d="M5.69861 0.78895C5.76602 0.888456 5.74 1.02377 5.64049 1.09117C5.42377 1.23798 5.00549 1.7488 5.30096 2.54942C5.34257 2.66218 5.2849 2.78732 5.17214 2.82893C5.05939 2.87054 4.93425 2.81287 4.89264 2.70011C4.51348 1.67272 5.05092 0.964858 5.39639 0.73083C5.49589 0.663422 5.6312 0.689443 5.69861 0.78895Z" fill="#FF7878"/>
</g>
<defs>
<clipPath id="clip0_802_162981">
<rect width="18" height="18" fill="white"/>
</clipPath>
</defs>
</svg>
