<svg width="14" height="14" viewBox="0 0 14 14" fill="none" xmlns="http://www.w3.org/2000/svg">
<path d="M6.99967 13.6666C6.07745 13.6666 5.21079 13.4916 4.39967 13.1416C3.58856 12.7916 2.88301 12.3166 2.28301 11.7166C1.68301 11.1166 1.20801 10.4111 0.858008 9.59998C0.508008 8.78887 0.333008 7.9222 0.333008 6.99998C0.333008 6.07776 0.508008 5.21109 0.858008 4.39998C1.20801 3.58887 1.68301 2.88331 2.28301 2.28331C2.88301 1.68331 3.58856 1.20831 4.39967 0.858313C5.21079 0.508313 6.07745 0.333313 6.99967 0.333313C7.53301 0.333313 8.05245 0.394424 8.55801 0.516646C9.06356 0.638869 9.54967 0.816646 10.0163 1.04998C10.183 1.13887 10.2913 1.2722 10.3413 1.44998C10.3913 1.62776 10.3608 1.79442 10.2497 1.94998C10.1386 2.10554 9.99134 2.20554 9.80801 2.24998C9.62467 2.29442 9.44412 2.2722 9.26634 2.18331C8.91078 2.01665 8.54134 1.88887 8.15801 1.79998C7.77467 1.71109 7.38856 1.66665 6.99967 1.66665C5.5219 1.66665 4.26356 2.18609 3.22467 3.22498C2.18579 4.26387 1.66634 5.5222 1.66634 6.99998C1.66634 8.47776 2.18579 9.73609 3.22467 10.775C4.26356 11.8139 5.5219 12.3333 6.99967 12.3333C8.47745 12.3333 9.73579 11.8139 10.7747 10.775C11.8136 9.73609 12.333 8.47776 12.333 6.99998C12.333 6.91109 12.3302 6.82498 12.3247 6.74165C12.3191 6.65831 12.3108 6.5722 12.2997 6.48331C12.2775 6.29442 12.3136 6.11387 12.408 5.94165C12.5025 5.76942 12.6441 5.65553 12.833 5.59998C13.0108 5.54442 13.1775 5.56109 13.333 5.64998C13.4886 5.73887 13.5775 5.8722 13.5997 6.04998C13.6219 6.20553 13.6386 6.36109 13.6497 6.51665C13.6608 6.6722 13.6663 6.83331 13.6663 6.99998C13.6663 7.9222 13.4913 8.78887 13.1413 9.59998C12.7913 10.4111 12.3163 11.1166 11.7163 11.7166C11.1163 12.3166 10.4108 12.7916 9.59967 13.1416C8.78856 13.4916 7.9219 13.6666 6.99967 13.6666ZM6.06634 8.19998L12.2663 1.98331C12.3886 1.86109 12.5413 1.7972 12.7247 1.79165C12.908 1.78609 13.0663 1.84998 13.1997 1.98331C13.3219 2.10554 13.383 2.26109 13.383 2.44998C13.383 2.63887 13.3219 2.79442 13.1997 2.91665L6.53301 9.59998C6.39967 9.73331 6.24412 9.79998 6.06634 9.79998C5.88856 9.79998 5.73301 9.73331 5.59967 9.59998L3.69967 7.69998C3.57745 7.57776 3.51634 7.4222 3.51634 7.23331C3.51634 7.04442 3.57745 6.88887 3.69967 6.76665C3.8219 6.64442 3.97745 6.58331 4.16634 6.58331C4.35523 6.58331 4.51079 6.64442 4.63301 6.76665L6.06634 8.19998Z" fill="#AFB9D4"/>
</svg>
