<svg width="24" height="25" viewBox="0 0 24 25" fill="none" xmlns="http://www.w3.org/2000/svg">
<g id="Group 935">
<path id="Rectangle 249" d="M3.875 14.0529C3.875 13.7324 4.13482 13.4726 4.45533 13.4726H19.544C19.8645 13.4726 20.1243 13.7324 20.1243 14.0529V22.7578C20.1243 23.3988 19.6047 23.9184 18.9637 23.9184H5.03567C4.39465 23.9184 3.875 23.3988 3.875 22.7578V14.0529Z" fill="#AF2AED"/>
<path id="Rectangle 249 (Stroke)" fill-rule="evenodd" clip-rule="evenodd" d="M4.45559 12.8923H19.5442C20.1853 12.8923 20.7049 13.4119 20.7049 14.0529V22.7578C20.7049 23.7193 19.9254 24.4988 18.9639 24.4988H5.03592C4.07439 24.4988 3.29492 23.7193 3.29492 22.7578V14.0529C3.29492 13.4119 3.81457 12.8923 4.45559 12.8923ZM4.45559 13.4726C4.13508 13.4726 3.87525 13.7324 3.87525 14.0529V22.7578C3.87525 23.3988 4.3949 23.9184 5.03592 23.9184H18.9639C19.6049 23.9184 20.1246 23.3988 20.1246 22.7578V14.0529C20.1246 13.7324 19.8647 13.4726 19.5442 13.4726H4.45559Z" fill="#640BA7"/>
<path id="Vector 1134 (Stroke)" fill-rule="evenodd" clip-rule="evenodd" d="M4.40149 16.1634C4.56175 16.1634 4.69166 16.2933 4.69166 16.4536V21.749C4.69166 21.9093 4.56175 22.0392 4.40149 22.0392C4.24124 22.0392 4.11133 21.9093 4.11133 21.749V16.4536C4.11133 16.2933 4.24124 16.1634 4.40149 16.1634Z" fill="#DF8FFF"/>
<path id="Subtract" fill-rule="evenodd" clip-rule="evenodd" d="M3.97852 23.2355C4.16063 23.6382 4.5659 23.9184 5.03661 23.9184H18.9646C19.6056 23.9184 20.1253 23.3988 20.1253 22.7578V14.0529C20.1253 13.7324 19.8654 13.4726 19.5449 13.4726V22.1775C19.5449 22.8185 19.0253 23.3381 18.3843 23.3381H4.45627C4.28596 23.3381 4.12422 23.3014 3.97852 23.2355Z" fill="#9D11D4"/>
<path id="Rectangle 243" d="M3.875 12.8923H20.1243V15.7576H3.875V12.8923Z" fill="#9D11D4"/>
<g id="Group 631">
<path id="Ellipse 132" d="M18.2669 18.0332C18.2669 18.1886 18.1409 18.3146 17.9855 18.3146C17.8301 18.3146 17.7041 18.1886 17.7041 18.0332C17.7041 17.8777 17.8301 17.7517 17.9855 17.7517C18.1409 17.7517 18.2669 17.8777 18.2669 18.0332Z" fill="#A30ED5"/>
<path id="Ellipse 141" d="M18.7855 22.8027C18.7855 22.9581 18.6595 23.0841 18.5041 23.0841C18.3487 23.0841 18.2227 22.9581 18.2227 22.8027C18.2227 22.6473 18.3487 22.5213 18.5041 22.5213C18.6595 22.5213 18.7855 22.6473 18.7855 22.8027Z" fill="#A30ED5"/>
<path id="Ellipse 133" d="M19.4073 18.6938C19.4073 18.9037 19.2372 19.0737 19.0274 19.0737C18.8176 19.0737 18.6475 18.9037 18.6475 18.6938C18.6475 18.484 18.8176 18.3139 19.0274 18.3139C19.2372 18.3139 19.4073 18.484 19.4073 18.6938Z" fill="#A30ED5"/>
<path id="Ellipse 139" d="M19.2173 17.4594C19.2173 17.6167 19.0898 17.7443 18.9324 17.7443C18.775 17.7443 18.6475 17.6167 18.6475 17.4594C18.6475 17.302 18.775 17.1744 18.9324 17.1744C19.0898 17.1744 19.2173 17.302 19.2173 17.4594Z" fill="#A30ED5"/>
<path id="Ellipse 134" d="M19.4486 20.3262C19.4486 20.6526 19.184 20.9172 18.8576 20.9172C18.5312 20.9172 18.2666 20.6526 18.2666 20.3262C18.2666 19.9998 18.5312 19.7353 18.8576 19.7353C19.184 19.7353 19.4486 19.9998 19.4486 20.3262Z" fill="#A30ED5"/>
<path id="Ellipse 135" d="M18.2667 19.2636C18.2667 19.4734 18.0966 19.6435 17.8867 19.6435C17.6769 19.6435 17.5068 19.4734 17.5068 19.2636C17.5068 19.0538 17.6769 18.8837 17.8867 18.8837C18.0966 18.8837 18.2667 19.0538 18.2667 19.2636Z" fill="#A30ED5"/>
<path id="Ellipse 142" d="M19.545 21.8675C19.545 22.0773 19.3749 22.2474 19.1651 22.2474C18.9552 22.2474 18.7852 22.0773 18.7852 21.8675C18.7852 21.6577 18.9552 21.4876 19.1651 21.4876C19.3749 21.4876 19.545 21.6577 19.545 21.8675Z" fill="#A30ED5"/>
<path id="Ellipse 136" d="M18.4463 21.5571C18.4463 21.6844 18.3431 21.7875 18.2158 21.7875C18.0885 21.7875 17.9854 21.6844 17.9854 21.5571C17.9854 21.4298 18.0885 21.3266 18.2158 21.3266C18.3431 21.3266 18.4463 21.4298 18.4463 21.5571Z" fill="#A30ED5"/>
<path id="Ellipse 140" d="M17.6465 22.2823C17.6465 22.4921 17.4765 22.6622 17.2666 22.6622C17.0568 22.6622 16.8867 22.4921 16.8867 22.2823C16.8867 22.0725 17.0568 21.9024 17.2666 21.9024C17.4765 21.9024 17.6465 22.0725 17.6465 22.2823Z" fill="#A30ED5"/>
<path id="Ellipse 137" d="M17.7042 20.9879C17.7042 21.1977 17.5341 21.3678 17.3242 21.3678C17.1144 21.3678 16.9443 21.1977 16.9443 20.9879C16.9443 20.7781 17.1144 20.608 17.3242 20.608C17.5341 20.608 17.7042 20.7781 17.7042 20.9879Z" fill="#A30ED5"/>
<path id="Ellipse 138" d="M16.3111 22.7994C16.3111 22.9568 16.1835 23.0843 16.0261 23.0843C15.8688 23.0843 15.7412 22.9568 15.7412 22.7994C15.7412 22.642 15.8688 22.5145 16.0261 22.5145C16.1835 22.5145 16.3111 22.642 16.3111 22.7994Z" fill="#A30ED5"/>
</g>
<path id="Rectangle 248" d="M1.55371 11.4415C1.55371 10.1595 2.59301 9.12021 3.87504 9.12021H20.1244C21.4064 9.12021 22.4457 10.1595 22.4457 11.4415V13.7628C22.4457 14.0833 22.1859 14.3431 21.8654 14.3431H2.13404C1.81354 14.3431 1.55371 14.0833 1.55371 13.7628V11.4415Z" fill="#C258FF"/>
<path id="Rectangle 248 (Stroke)" fill-rule="evenodd" clip-rule="evenodd" d="M3.8753 8.53989H20.1246C21.7272 8.53989 23.0263 9.83898 23.0263 11.4415V13.7628C23.0263 14.4038 22.5066 14.9234 21.8656 14.9234H2.1343C1.49328 14.9234 0.973633 14.4038 0.973633 13.7628V11.4415C0.973633 9.83898 2.27275 8.53989 3.8753 8.53989ZM3.8753 9.12021C2.59326 9.12021 1.55397 10.1595 1.55397 11.4415V13.7628C1.55397 14.0833 1.81379 14.3431 2.1343 14.3431H21.8656C22.1861 14.3431 22.446 14.0833 22.446 13.7628V11.4415C22.446 10.1595 21.4067 9.12021 20.1246 9.12021H3.8753Z" fill="#610AAD"/>
<path id="Subtract_2" fill-rule="evenodd" clip-rule="evenodd" d="M1.63086 14.0523C1.7312 14.2257 1.91875 14.3424 2.13355 14.3424H21.8649C22.1854 14.3424 22.4452 14.0826 22.4452 13.7621V11.4408C22.4452 10.4163 21.7815 9.54677 20.8605 9.23883C21.4673 9.65757 21.8649 10.3577 21.8649 11.1506V13.4719C21.8649 13.7924 21.605 14.0523 21.2845 14.0523H1.63086Z" fill="#9512E1"/>
<path id="Rectangle 246" d="M10.9121 9.12021H13.3175V23.9184H10.9121V9.12021Z" fill="#FF4646"/>
<path id="Rectangle 246 (Stroke)" fill-rule="evenodd" clip-rule="evenodd" d="M10.3311 8.53989H13.8971V24.4988H10.3311V8.53989ZM10.9114 9.12021V23.9184H13.3168V9.12021H10.9114Z" fill="#CD2222"/>
<path id="Vector 858 (Stroke)" fill-rule="evenodd" clip-rule="evenodd" d="M11.4923 10.2809C11.6526 10.2809 11.7825 10.4108 11.7825 10.571V15.0685C11.7825 15.2288 11.6526 15.3587 11.4923 15.3587C11.3321 15.3587 11.2021 15.2288 11.2021 15.0685V10.571C11.2021 10.4108 11.3321 10.2809 11.4923 10.2809Z" fill="#FF7575"/>
<path id="Vector 1128 (Stroke)" fill-rule="evenodd" clip-rule="evenodd" d="M12.3986 13.654C12.5588 13.654 12.6887 13.7839 12.6887 13.9442V23.0842C12.6887 23.2445 12.5588 23.3744 12.3986 23.3744C12.2383 23.3744 12.1084 23.2445 12.1084 23.0842V13.9442C12.1084 13.7839 12.2383 13.654 12.3986 13.654Z" fill="#F02E2E"/>
<path id="Ellipse 1064" d="M6.07615 10.429C6.34153 11.1637 4.71621 10.7333 4.24369 11.4036C3.46387 12.5098 2.35018 12.6052 2.0848 11.8705C1.81943 11.1357 2.23474 10.1876 3.33692 9.78958C4.4391 9.39153 5.81078 9.6942 6.07615 10.429Z" fill="#DF8FFF"/>
<g id="Group 1201">
<path id="Vector 1126" d="M6.25064 8.84642C8.43864 8.19504 10.6874 8.50332 11.5942 8.84642L12.7186 8.19504C9.09154 6.63541 8.20287 6.83491 7.22359 6.8349L6.25064 8.84642Z" fill="#DC2C2C"/>
<path id="Vector 1126 (Stroke)" fill-rule="evenodd" clip-rule="evenodd" d="M11.8847 9.34861C11.7338 9.43604 11.5516 9.45095 11.3884 9.38923C10.5971 9.08982 8.4786 8.78856 6.41581 9.40266C6.19545 9.46826 5.95714 9.39759 5.80817 9.22245C5.6592 9.04732 5.62768 8.80075 5.72779 8.59378L6.70075 6.58226C6.79766 6.3819 7.00062 6.25462 7.22318 6.25462C7.30837 6.25462 7.39694 6.25273 7.49044 6.25074C7.89045 6.2422 8.38059 6.23174 9.08158 6.35919C9.93994 6.51526 11.1139 6.87353 12.9475 7.66196C13.149 7.74863 13.2845 7.94157 13.2975 8.16059C13.3106 8.3796 13.199 8.58725 13.0091 8.69723L11.8847 9.34861ZM12.0467 7.91345C9.30344 6.79426 8.34309 6.81397 7.51662 6.83093C7.41783 6.83296 7.32096 6.83494 7.22318 6.83494L6.25023 8.84646C6.49461 8.77371 6.73975 8.71293 6.9837 8.66283C8.92383 8.26439 10.7883 8.54168 11.5938 8.84646L12.7182 8.19509C12.4831 8.09399 12.2595 8.00029 12.0467 7.91345Z" fill="#B31B1B"/>
<g id="Group 1202">
<path id="Vector 1123" d="M18.5082 8.941C15.9294 8.24965 14.081 8.32159 12.7545 8.68605L11.9757 8.44146C15.2904 6.69014 16.5537 7.14782 17.4117 7.30414L18.5082 8.941Z" fill="#BF2222"/>
<path id="Vector 1123 (Stroke)" fill-rule="evenodd" clip-rule="evenodd" d="M12.5704 9.23837C12.6768 9.2718 12.7913 9.2737 12.9 9.24383C14.1048 8.91282 15.8452 8.82932 18.3475 9.50013C18.5815 9.56287 18.8327 9.47324 18.9771 9.27551C19.1215 9.07778 19.1284 8.81379 18.9945 8.61392L17.898 6.97706C17.8127 6.84971 17.6791 6.76248 17.527 6.73477C17.4696 6.7243 17.4071 6.71158 17.3394 6.69779C16.944 6.61729 16.3692 6.50025 15.5668 6.58165C14.6315 6.67654 13.4123 7.03227 11.7105 7.9314C11.5021 8.0415 11.3781 8.26395 11.3958 8.49589C11.4135 8.72782 11.5694 8.92403 11.7915 8.99378L12.5704 9.23837ZM12.7729 8.68113C13.9485 8.36167 15.5316 8.27196 17.6661 8.73614C17.9379 8.79524 18.2186 8.86332 18.5085 8.94105L17.412 7.30419C17.3457 7.29212 17.277 7.27825 17.2052 7.26374C16.4201 7.10521 15.2561 6.87014 12.7244 8.06635C12.4872 8.17842 12.238 8.30306 11.9759 8.4415L12.7548 8.68609C12.7608 8.68443 12.7669 8.68278 12.7729 8.68113Z" fill="#9D1818"/>
<path id="Vector 1125 (Stroke)" fill-rule="evenodd" clip-rule="evenodd" d="M17.0114 7.51272C16.883 7.61082 16.857 7.79284 16.9533 7.91927L17.3415 8.42898C17.4378 8.55541 17.6199 8.57837 17.7483 8.48027C17.8767 8.38217 17.9027 8.20015 17.8064 8.07372L17.4182 7.56401C17.3219 7.43758 17.1397 7.41461 17.0114 7.51272Z" fill="#DE3838"/>
</g>
</g>
<path id="Vector 1127" d="M3.44694 6.06428C7.06068 5.93531 9.79421 7.62691 10.8947 8.45351L11.6079 8.18608C9.21305 5.1156 5.47536 4.02343 4.42626 3.97874L4.20861 5.08497L3.44694 6.06428Z" fill="#EA2F2F"/>
<path id="Vector 1127 (Stroke)" fill-rule="evenodd" clip-rule="evenodd" d="M11.0979 8.99704C10.9123 9.06663 10.704 9.0367 10.5456 8.91767C9.49537 8.12882 6.89191 6.52216 3.46708 6.64439C3.24184 6.65243 3.03231 6.52933 2.92969 6.32866C2.82707 6.128 2.84992 5.88607 2.98829 5.70816L3.66527 4.83774L3.85628 3.86687C3.91162 3.58562 4.16401 3.3869 4.4504 3.3991C5.08122 3.42597 6.35789 3.74277 7.76525 4.42581C9.18705 5.11586 10.7992 6.20652 12.0649 7.82934C12.1785 7.97497 12.216 8.16597 12.1659 8.34373C12.1157 8.52149 11.984 8.66477 11.8111 8.72962L11.0979 8.99704ZM4.20805 5.08513L3.44638 6.06444C3.69613 6.05552 3.94168 6.0553 4.18277 6.0629C7.43015 6.16515 9.8697 7.68419 10.8941 8.45367L11.6073 8.18624C11.4801 8.02315 11.3491 7.86565 11.2149 7.71358C8.82302 5.00269 5.41907 4.02121 4.4257 3.9789L4.20805 5.08513Z" fill="#B31B1B"/>
<path id="Vector 1133 (Stroke)" fill-rule="evenodd" clip-rule="evenodd" d="M5.88636 6.07907C5.18178 5.89072 4.62013 5.87615 4.45013 5.88864C4.29031 5.9004 4.15122 5.78036 4.13947 5.62054C4.12771 5.46072 4.24775 5.32164 4.40757 5.30988C4.64865 5.29216 5.27546 5.31506 6.03623 5.51843C6.19105 5.55982 6.283 5.71887 6.24162 5.87369C6.20023 6.0285 6.04117 6.12045 5.88636 6.07907Z" fill="#FF4444"/>
<g id="Group 1203">
<path id="Vector 1124" d="M20.6456 6.46524C17.4556 6.3514 15.4549 7.2888 14.4835 8.01848L13.287 8.0103C15.401 5.29986 18.9359 4.38241 19.8619 4.34297L19.8547 5.39962L20.6456 6.46524Z" fill="#D92525"/>
<path id="Vector 1124 (Stroke)" fill-rule="evenodd" clip-rule="evenodd" d="M14.4782 8.59894C14.6052 8.59981 14.7291 8.55895 14.8307 8.48264C15.6906 7.83668 17.5595 6.936 20.6235 7.04535C20.8464 7.05331 21.0541 6.93284 21.1579 6.73544C21.2616 6.53805 21.2431 6.29864 21.1102 6.11956L20.435 5.20973L20.4409 4.34708C20.442 4.1882 20.3778 4.03583 20.2635 3.9255C20.1492 3.81518 19.9946 3.75656 19.8358 3.76333C19.2766 3.78715 18.0869 4.05345 16.7789 4.64666C15.4596 5.24494 13.96 6.2022 12.828 7.65356C12.6921 7.82788 12.667 8.0643 12.7633 8.26329C12.8596 8.46228 13.0606 8.58926 13.2817 8.59077L14.4782 8.59894ZM19.8533 5.39978L20.6442 6.4654C20.394 6.45647 20.1512 6.45401 19.9156 6.4574C17.1467 6.4973 15.3774 7.34618 14.4821 8.01864L13.2856 8.01046C13.4433 7.80829 13.6089 7.6161 13.7807 7.43351C15.5661 5.53609 18.0245 4.67479 19.2797 4.42356C19.5231 4.37483 19.7213 4.34905 19.8605 4.34312L19.8533 5.39978Z" fill="#B31B1B"/>
<path id="Vector 1126 (Stroke)_2" fill-rule="evenodd" clip-rule="evenodd" d="M19.3224 4.48273C19.4826 4.48273 19.6126 4.61264 19.6126 4.77289V5.20512C19.6126 5.36537 19.4826 5.49528 19.3224 5.49528C19.1621 5.49528 19.0322 5.36537 19.0322 5.20512V4.77289C19.0322 4.61264 19.1621 4.48273 19.3224 4.48273Z" fill="#FF5252"/>
</g>
<path id="Vector 1131" d="M13.8542 2.50066C11.1016 3.99271 11.6367 7.28829 11.6366 8.24945L12.217 8.34013C12.4576 5.98257 14.0948 3.11723 15.3462 4.38669C16.1893 5.24189 13.3359 8.26859 12.1215 8.81165H13.0841C14.5761 8.61216 16.8459 6.54226 17.2875 4.64058C17.6244 3.18977 16.5976 1.01355 13.8542 2.50066Z" fill="#E33030"/>
<path id="Vector 1131 (Stroke)" fill-rule="evenodd" clip-rule="evenodd" d="M11.541 8.82187C11.2615 8.7753 11.0562 8.53338 11.0562 8.24945C11.0562 8.1692 11.0502 8.05356 11.0428 7.90989C11.0147 7.36512 10.9659 6.41737 11.1425 5.46801C11.3738 4.22474 12.001 2.84501 13.5775 1.99048C14.325 1.58527 15.0069 1.40124 15.6166 1.42371C16.2373 1.44657 16.7482 1.683 17.1294 2.05188C17.8655 2.76418 18.0561 3.89576 17.8527 4.77185C17.5974 5.87089 16.8375 6.95775 15.9824 7.78221C15.1369 8.59735 14.0863 9.26312 13.1608 9.38686C13.1353 9.39026 13.1097 9.39197 13.0839 9.39197H12.1213C11.8475 9.39197 11.6109 9.20057 11.5538 8.93277C11.5459 8.89573 11.5417 8.85862 11.541 8.82187ZM13.2305 8.7866C14.7204 8.47891 16.86 6.48098 17.2874 4.64058C17.6243 3.18978 16.5975 1.01356 13.854 2.50066C11.4196 3.82026 11.5567 6.55056 11.621 7.829C11.6294 7.99608 11.6365 8.13836 11.6365 8.24946L12.2168 8.34014C12.2205 8.30398 12.2245 8.26771 12.2289 8.23133C12.2354 8.17675 12.2426 8.12194 12.2506 8.06696C12.265 7.96706 12.2817 7.86659 12.3007 7.76588C12.7174 5.54983 14.195 3.21898 15.3461 4.38669C16.0218 5.07219 14.3227 7.15287 12.9962 8.23133C12.9281 8.28672 12.861 8.33947 12.7952 8.38924C12.7913 8.39217 12.7874 8.39508 12.7836 8.39799C12.5469 8.57623 12.3282 8.71562 12.1448 8.80093C12.1369 8.8046 12.1291 8.80818 12.1213 8.81165H13.0839C13.132 8.80522 13.1809 8.79685 13.2305 8.7866ZM12.9498 7.50722C13.3283 7.16732 13.7195 6.76145 14.0556 6.34943C14.4196 5.90312 14.6946 5.47923 14.8312 5.14371C14.9274 4.90722 14.9221 4.8069 14.9167 4.7782C14.8298 4.69437 14.7663 4.66894 14.7302 4.66051C14.6937 4.65199 14.6445 4.65111 14.5696 4.67964C14.3966 4.74558 14.1501 4.94666 13.8781 5.33576C13.4878 5.89412 13.1478 6.69172 12.9498 7.50722Z" fill="#BC2020"/>
<path id="Vector 1132 (Stroke)" fill-rule="evenodd" clip-rule="evenodd" d="M12.8585 3.48404C14.1373 1.83154 15.731 2.11705 15.8652 2.14391C16.0224 2.17533 16.1243 2.3282 16.0929 2.48534C16.0614 2.64248 15.9086 2.74439 15.7514 2.71296C15.7043 2.70354 14.3964 2.445 13.3175 3.83919C13.2194 3.96593 13.0372 3.98917 12.9105 3.8911C12.7837 3.79303 12.7605 3.61078 12.8585 3.48404Z" fill="#FF4444"/>
<path id="Vector 684 (Stroke)" fill-rule="evenodd" clip-rule="evenodd" d="M4.07475 10.1666C4.07946 10.3267 3.95342 10.4604 3.79324 10.4651C3.4399 10.4755 3.18948 10.7187 3.02338 10.9513C2.93023 11.0817 2.74901 11.1119 2.6186 11.0187C2.4882 10.9256 2.458 10.7444 2.55114 10.614C2.74775 10.3387 3.14295 9.90367 3.77618 9.88505C3.93636 9.88033 4.07004 10.0064 4.07475 10.1666Z" fill="white"/>
<g id="Group 1204">
<path id="Vector 1129" d="M6.34132 3.79963C7.2118 6.15719 10.0228 7.7712 11.9633 8.80491C10.1448 7.65032 8.3989 5.52897 7.90097 4.59756C7.40303 3.66614 7.73775 2.43948 9.06163 2.67524C10.7759 2.98052 11.8228 6.98212 12.3804 8.69102C12.4469 7.71223 12.2058 4.22748 10.7663 2.45764C8.55382 -0.262625 5.4959 1.50997 6.34132 3.79963Z" fill="#F23535"/>
<path id="Vector 1129 (Stroke)" fill-rule="evenodd" clip-rule="evenodd" d="M12.3146 9.26787C12.1394 9.40044 11.8967 9.42686 11.6912 9.31738C10.7172 8.7985 9.49059 8.11662 8.39352 7.2555C7.3013 6.39819 6.2863 5.32425 5.79769 4.00093C5.26166 2.54919 5.97696 1.21721 7.18488 0.714442C8.40286 0.20749 9.98227 0.573248 11.2173 2.09176C12.0293 3.09001 12.4716 4.51913 12.709 5.76245C12.9483 7.01629 12.9974 8.1827 12.9602 8.73065C12.9414 9.0079 12.7286 9.23288 12.4529 9.26719C12.4061 9.27301 12.3597 9.27307 12.3146 9.26787ZM12.2091 6.27005C11.9963 4.95238 11.5665 3.44074 10.7671 2.45793C8.55461 -0.262334 5.49669 1.51027 6.3421 3.79993C6.8072 5.05957 7.82628 6.10695 8.97056 6.96697C9.89956 7.66518 10.9111 8.23989 11.7757 8.70443C11.8393 8.73861 11.9021 8.7722 11.9641 8.8052C11.8981 8.76333 11.8323 8.72019 11.7666 8.67588C10.895 8.08807 10.0501 7.29463 9.36277 6.53565C8.67315 5.77418 8.14209 5.04741 7.90175 4.59785C7.40382 3.66643 7.73853 2.43977 9.06242 2.67553C10.1991 2.87795 11.0424 4.70559 11.6442 6.41235C11.8498 6.99566 12.0273 7.56485 12.1786 8.05022C12.2059 8.13779 12.2323 8.22264 12.2579 8.30434C12.2606 8.31285 12.2633 8.32133 12.2659 8.32978C12.3065 8.45891 12.3449 8.57998 12.3812 8.69131C12.3865 8.61331 12.3898 8.5194 12.3908 8.4117C12.3951 7.91845 12.349 7.13615 12.2091 6.27005ZM11.4729 7.73945C11.2401 7.00297 10.9613 6.16391 10.6235 5.38891C10.3593 4.78253 10.0732 4.25084 9.76868 3.86152C9.4571 3.46321 9.18339 3.28652 8.96067 3.24686C8.71877 3.20378 8.5743 3.23625 8.49486 3.27276C8.41935 3.30746 8.36337 3.36319 8.32313 3.44793C8.23289 3.63796 8.22985 3.98065 8.41354 4.32425C8.63011 4.72936 9.15518 5.45173 9.86526 6.22544C10.3482 6.75168 10.8998 7.2831 11.4729 7.73945Z" fill="#BC2020"/>
<path id="Vector 1130 (Stroke)" fill-rule="evenodd" clip-rule="evenodd" d="M7.5985 1.55159C7.68837 1.68426 7.65368 1.86468 7.521 1.95455C7.23204 2.1503 6.67432 2.83138 7.06828 3.89888C7.12377 4.04922 7.04687 4.21608 6.89653 4.27156C6.74618 4.32704 6.57933 4.25015 6.52384 4.0998C6.01829 2.72995 6.73489 1.78613 7.19552 1.47409C7.3282 1.38422 7.50862 1.41891 7.5985 1.55159Z" fill="#FF7878"/>
</g>
</g>
</svg>
