<svg width="38" height="40" viewBox="0 0 38 40" fill="none" xmlns="http://www.w3.org/2000/svg">
<g id="Group 935">
<path id="Rectangle 249" d="M5.4585 22.5885C5.4585 22.0544 5.89153 21.6213 6.4257 21.6213H31.573C32.1072 21.6213 32.5402 22.0544 32.5402 22.5885V37.0966C32.5402 38.165 31.6742 39.031 30.6058 39.031H7.39291C6.32456 39.031 5.4585 38.165 5.4585 37.0966V22.5885Z" fill="#2F75F6"/>
<path id="Rectangle 249 (Stroke)" fill-rule="evenodd" clip-rule="evenodd" d="M6.42733 20.6534H31.5746C32.643 20.6534 33.5091 21.5195 33.5091 22.5879V37.0959C33.5091 38.6984 32.21 39.9975 30.6074 39.9975H7.39453C5.79202 39.9975 4.49292 38.6984 4.49292 37.0959V22.5879C4.49292 21.5195 5.35898 20.6534 6.42733 20.6534ZM6.42733 21.6206C5.89316 21.6206 5.46012 22.0537 5.46012 22.5879V37.0959C5.46012 38.1643 6.32619 39.0303 7.39453 39.0303H30.6074C31.6758 39.0303 32.5418 38.1643 32.5418 37.0959V22.5879C32.5418 22.0537 32.1088 21.6206 31.5746 21.6206H6.42733Z" fill="#063AE6"/>
<path id="Vector 1134 (Stroke)" fill-rule="evenodd" clip-rule="evenodd" d="M6.33492 26.107C6.60201 26.107 6.81852 26.3235 6.81852 26.5906V35.4164C6.81852 35.6835 6.60201 35.9 6.33492 35.9C6.06783 35.9 5.85132 35.6835 5.85132 35.4164V26.5906C5.85132 26.3235 6.06783 26.107 6.33492 26.107Z" fill="#4A8AFF"/>
<path id="Subtract" fill-rule="evenodd" clip-rule="evenodd" d="M5.63013 37.8929C5.93365 38.564 6.60908 39.031 7.39358 39.031H30.6065C31.6748 39.031 32.5409 38.165 32.5409 37.0966V22.5885C32.5409 22.0544 32.1079 21.6213 31.5737 21.6213V36.1294C31.5737 37.1977 30.7076 38.0638 29.6393 38.0638H6.42638C6.14253 38.0638 5.87297 38.0027 5.63013 37.8929Z" fill="#2058E7"/>
<path id="Rectangle 243" d="M5.4585 20.6534H32.5402V25.429H5.4585V20.6534Z" fill="#2058E7"/>
<g id="Group 631">
<path id="Ellipse 132" d="M29.4454 29.2212C29.4454 29.4803 29.2354 29.6903 28.9764 29.6903C28.7173 29.6903 28.5073 29.4803 28.5073 29.2212C28.5073 28.9622 28.7173 28.7522 28.9764 28.7522C29.2354 28.7522 29.4454 28.9622 29.4454 29.2212Z" fill="#0768E8"/>
<path id="Ellipse 141" d="M30.3111 37.1704C30.3111 37.4295 30.1011 37.6395 29.8421 37.6395C29.583 37.6395 29.373 37.4295 29.373 37.1704C29.373 36.9114 29.583 36.7014 29.8421 36.7014C30.1011 36.7014 30.3111 36.9114 30.3111 37.1704Z" fill="#0768E8"/>
<path id="Ellipse 133" d="M31.3469 30.3229C31.3469 30.6726 31.0634 30.9561 30.7137 30.9561C30.364 30.9561 30.0806 30.6726 30.0806 30.3229C30.0806 29.9732 30.364 29.6897 30.7137 29.6897C31.0634 29.6897 31.3469 29.9732 31.3469 30.3229Z" fill="#0768E8"/>
<path id="Ellipse 139" d="M31.0303 28.2657C31.0303 28.528 30.8177 28.7406 30.5554 28.7406C30.2932 28.7406 30.0806 28.528 30.0806 28.2657C30.0806 28.0034 30.2932 27.7908 30.5554 27.7908C30.8177 27.7908 31.0303 28.0034 31.0303 28.2657Z" fill="#0768E8"/>
<path id="Ellipse 134" d="M31.4147 33.0445C31.4147 33.5884 30.9737 34.0294 30.4298 34.0294C29.8858 34.0294 29.4448 33.5884 29.4448 33.0445C29.4448 32.5005 29.8858 32.0595 30.4298 32.0595C30.9737 32.0595 31.4147 32.5005 31.4147 33.0445Z" fill="#0768E8"/>
<path id="Ellipse 135" d="M29.4436 31.2734C29.4436 31.6231 29.1601 31.9066 28.8104 31.9066C28.4607 31.9066 28.1772 31.6231 28.1772 31.2734C28.1772 30.9237 28.4607 30.6402 28.8104 30.6402C29.1601 30.6402 29.4436 30.9237 29.4436 31.2734Z" fill="#0768E8"/>
<path id="Ellipse 142" d="M31.5747 35.6115C31.5747 35.9612 31.2912 36.2447 30.9415 36.2447C30.5918 36.2447 30.3083 35.9612 30.3083 35.6115C30.3083 35.2618 30.5918 34.9783 30.9415 34.9783C31.2912 34.9783 31.5747 35.2618 31.5747 35.6115Z" fill="#0768E8"/>
<path id="Ellipse 136" d="M29.7443 35.0955C29.7443 35.3076 29.5723 35.4796 29.3602 35.4796C29.148 35.4796 28.9761 35.3076 28.9761 35.0955C28.9761 34.8834 29.148 34.7114 29.3602 34.7114C29.5723 34.7114 29.7443 34.8834 29.7443 35.0955Z" fill="#0768E8"/>
<path id="Ellipse 140" d="M28.4128 36.3038C28.4128 36.6535 28.1294 36.9369 27.7797 36.9369C27.43 36.9369 27.1465 36.6535 27.1465 36.3038C27.1465 35.9541 27.43 35.6706 27.7797 35.6706C28.1294 35.6706 28.4128 35.9541 28.4128 36.3038Z" fill="#0768E8"/>
<path id="Ellipse 137" d="M28.5083 34.1467C28.5083 34.4964 28.2248 34.7798 27.8751 34.7798C27.5254 34.7798 27.2419 34.4964 27.2419 34.1467C27.2419 33.797 27.5254 33.5135 27.8751 33.5135C28.2248 33.5135 28.5083 33.797 28.5083 34.1467Z" fill="#0768E8"/>
<path id="Ellipse 138" d="M26.1866 37.1655C26.1866 37.4277 25.974 37.6403 25.7117 37.6403C25.4494 37.6403 25.2368 37.4277 25.2368 37.1655C25.2368 36.9032 25.4494 36.6906 25.7117 36.6906C25.974 36.6906 26.1866 36.9032 26.1866 37.1655Z" fill="#0768E8"/>
</g>
<path id="Rectangle 248" d="M1.59131 18.2354C1.59131 16.0987 3.32344 14.3666 5.46013 14.3666H32.5418C34.6785 14.3666 36.4107 16.0987 36.4107 18.2354V22.1042C36.4107 22.6384 35.9776 23.0714 35.4435 23.0714H2.55851C2.02434 23.0714 1.59131 22.6384 1.59131 22.1042V18.2354Z" fill="#587AFF"/>
<path id="Rectangle 248 (Stroke)" fill-rule="evenodd" clip-rule="evenodd" d="M5.45956 13.4008H32.5413C35.2122 13.4008 37.3773 15.566 37.3773 18.2369V22.1057C37.3773 23.174 36.5112 24.0401 35.4429 24.0401H2.55794C1.4896 24.0401 0.623535 23.174 0.623535 22.1057V18.2369C0.623535 15.566 2.7887 13.4008 5.45956 13.4008ZM5.45956 14.3681C3.32287 14.3681 1.59074 16.1002 1.59074 18.2369V22.1057C1.59074 22.6399 2.02377 23.0729 2.55794 23.0729H35.4429C35.9771 23.0729 36.4101 22.6399 36.4101 22.1057V18.2369C36.4101 16.1002 34.678 14.3681 32.5413 14.3681H5.45956Z" fill="#0B39CF"/>
<path id="Subtract_2" fill-rule="evenodd" clip-rule="evenodd" d="M1.71948 22.5864C1.88672 22.8755 2.19929 23.07 2.55729 23.07H35.4422C35.9764 23.07 36.4095 22.637 36.4095 22.1028V18.234C36.4095 16.5265 35.3032 15.0773 33.7683 14.5641C34.7796 15.262 35.4422 16.4288 35.4422 17.7504V21.6192C35.4422 22.1534 35.0092 22.5864 34.475 22.5864H1.71948Z" fill="#3D4CF2"/>
<path id="Rectangle 246" d="M17.186 14.3666H21.1949V39.0303H17.186V14.3666Z" fill="#FF4646"/>
<path id="Rectangle 246 (Stroke)" fill-rule="evenodd" clip-rule="evenodd" d="M16.2202 13.4008H22.1635V39.999H16.2202V13.4008ZM17.1874 14.3681V39.0318H21.1963V14.3681H17.1874Z" fill="#CD2222"/>
<path id="Vector 858 (Stroke)" fill-rule="evenodd" clip-rule="evenodd" d="M18.1535 16.3023C18.4206 16.3023 18.6371 16.5189 18.6371 16.7859V24.2818C18.6371 24.5489 18.4206 24.7654 18.1535 24.7654C17.8864 24.7654 17.6699 24.5489 17.6699 24.2818V16.7859C17.6699 16.5189 17.8864 16.3023 18.1535 16.3023Z" fill="#FF7575"/>
<path id="Vector 1128 (Stroke)" fill-rule="evenodd" clip-rule="evenodd" d="M19.6662 21.923C19.9333 21.923 20.1498 22.1395 20.1498 22.4066V37.64C20.1498 37.9071 19.9333 38.1236 19.6662 38.1236C19.3991 38.1236 19.1826 37.9071 19.1826 37.64V22.4066C19.1826 22.1395 19.3991 21.923 19.6662 21.923Z" fill="#F02E2E"/>
<path id="Ellipse 1064" d="M9.12801 16.5485C9.5703 17.7731 6.86147 17.0557 6.07396 18.1729C4.77428 20.0166 2.91816 20.1756 2.47588 18.951C2.03359 17.7263 2.72577 16.1462 4.56271 15.4828C6.39964 14.8194 8.68572 15.3238 9.12801 16.5485Z" fill="#8FA5FF"/>
<g id="Group 1201">
<path id="Vector 1126" d="M9.41805 13.9115C13.0646 12.8258 16.8126 13.3396 18.3239 13.9115L20.1978 12.8258C14.1528 10.2264 12.6717 10.5589 11.0396 10.5589L9.41805 13.9115Z" fill="#DC2C2C"/>
<path id="Vector 1126 (Stroke)" fill-rule="evenodd" clip-rule="evenodd" d="M18.8072 14.7483C18.5557 14.894 18.252 14.9189 17.9801 14.816C16.6613 14.317 13.1305 13.8149 9.69259 14.8384C9.32532 14.9477 8.92814 14.8299 8.67987 14.5381C8.4316 14.2462 8.37906 13.8352 8.54591 13.4903L10.1675 10.1377C10.329 9.8038 10.6672 9.59166 11.0382 9.59167C11.1802 9.59167 11.3278 9.58852 11.4836 9.58519C12.1503 9.57097 12.9672 9.55354 14.1355 9.76595C15.566 10.0261 17.5226 10.6232 20.5785 11.9372C20.9144 12.0817 21.1402 12.4032 21.1619 12.7683C21.1836 13.1333 20.9976 13.4794 20.6812 13.6627L18.8072 14.7483ZM19.0772 12.3564C14.5052 10.4911 12.9047 10.5239 11.5272 10.5522C11.3626 10.5556 11.2011 10.5589 11.0382 10.5589L9.41661 13.9114C9.82391 13.7901 10.2325 13.6888 10.6391 13.6053C13.8725 12.9413 16.9799 13.4034 18.3224 13.9114L20.1964 12.8258C19.8046 12.6573 19.4319 12.5011 19.0772 12.3564Z" fill="#B31B1B"/>
<g id="Group 1202">
<path id="Vector 1123" d="M29.8468 14.0695C25.5488 12.9172 22.4683 13.0371 20.2575 13.6445L18.9594 13.2369C24.4838 10.318 26.5892 11.0808 28.0193 11.3414L29.8468 14.0695Z" fill="#BF2222"/>
<path id="Vector 1123 (Stroke)" fill-rule="evenodd" clip-rule="evenodd" d="M19.9504 14.5646C20.1278 14.6203 20.3186 14.6235 20.4998 14.5737C22.5078 14.022 25.4084 13.8828 29.5788 15.0009C29.9688 15.1054 30.3875 14.956 30.6281 14.6265C30.8687 14.2969 30.8803 13.8569 30.6571 13.5238L28.8296 10.7957C28.6874 10.5835 28.4648 10.4381 28.2113 10.3919C28.1156 10.3745 28.0115 10.3533 27.8986 10.3303C27.2396 10.1961 26.2816 10.0011 24.9444 10.1367C23.3855 10.2949 21.3536 10.8877 18.5173 12.3863C18.17 12.5698 17.9633 12.9405 17.9928 13.3271C18.0223 13.7137 18.2822 14.0407 18.6523 14.1569L19.9504 14.5646ZM20.288 13.6359C22.2472 13.1034 24.8858 12.9539 28.4432 13.7275C28.8961 13.826 29.3639 13.9395 29.8472 14.069L28.0196 11.3409C27.9092 11.3208 27.7947 11.2977 27.675 11.2735C26.3666 11.0093 24.4266 10.6175 20.2071 12.6112C19.8118 12.798 19.3964 13.0057 18.9597 13.2365L20.2578 13.6441C20.2679 13.6414 20.2779 13.6386 20.288 13.6359Z" fill="#9D1818"/>
<path id="Vector 1125 (Stroke)" fill-rule="evenodd" clip-rule="evenodd" d="M27.351 11.6877C27.137 11.8512 27.0937 12.1546 27.2542 12.3653L27.9012 13.2148C28.0617 13.4255 28.3653 13.4638 28.5792 13.3003C28.7932 13.1368 28.8365 12.8334 28.676 12.6227L28.029 11.7732C27.8685 11.5625 27.5649 11.5242 27.351 11.6877Z" fill="#DE3838"/>
</g>
</g>
<path id="Vector 1127" d="M4.74467 9.27305C10.7675 9.0581 15.3233 11.8774 17.1573 13.2551L18.346 12.8094C14.3547 7.69192 8.1253 5.87163 6.37684 5.79715L6.0141 7.64087L4.74467 9.27305Z" fill="#EA2F2F"/>
<path id="Vector 1127 (Stroke)" fill-rule="evenodd" clip-rule="evenodd" d="M17.4969 14.1629C17.1877 14.2789 16.8406 14.229 16.5765 14.0306C14.8262 12.7159 10.4871 10.0381 4.77919 10.2418C4.40379 10.2552 4.05459 10.0501 3.88356 9.71563C3.71253 9.38119 3.7506 8.97797 3.98122 8.68145L5.10949 7.23076L5.42785 5.61264C5.52007 5.14389 5.94072 4.81269 6.41802 4.83302C7.46938 4.87781 9.59712 5.40581 11.9427 6.54421C14.3123 7.6943 16.9992 9.51206 19.1087 12.2168C19.298 12.4595 19.3604 12.7778 19.2769 13.0741C19.1934 13.3703 18.9738 13.6091 18.6856 13.7172L17.4969 14.1629ZM6.01412 7.64307L4.74469 9.27525C5.16093 9.26039 5.57017 9.26003 5.97198 9.27268C11.3842 9.44311 15.45 11.9748 17.1574 13.2573L18.346 12.8116C18.134 12.5398 17.9157 12.2773 17.6921 12.0238C13.7056 7.50567 8.03245 5.86987 6.37686 5.79935L6.01412 7.64307Z" fill="#B31B1B"/>
<path id="Vector 1133 (Stroke)" fill-rule="evenodd" clip-rule="evenodd" d="M8.80973 9.29808C7.63546 8.98417 6.69938 8.95988 6.41606 8.98071C6.14969 9.00029 5.91788 8.80024 5.8983 8.53387C5.87871 8.2675 6.07877 8.03569 6.34513 8.01611C6.74691 7.98657 7.79159 8.02474 9.05951 8.36369C9.31754 8.43267 9.47079 8.69775 9.40182 8.95578C9.33284 9.2138 9.06775 9.36706 8.80973 9.29808Z" fill="#FF4444"/>
<g id="Group 1203">
<path id="Vector 1124" d="M33.4105 9.94165C28.0939 9.75191 24.7596 11.3143 23.1406 12.5304L21.1465 12.5168C24.6698 7.99935 30.561 6.47027 32.1045 6.40453L32.0925 8.16562L33.4105 9.94165Z" fill="#D92525"/>
<path id="Vector 1124 (Stroke)" fill-rule="evenodd" clip-rule="evenodd" d="M23.1318 13.4976C23.3435 13.499 23.5499 13.4309 23.7193 13.3037C25.1525 12.2272 28.2672 10.726 33.3738 10.9083C33.7452 10.9215 34.0914 10.7208 34.2644 10.3918C34.4374 10.0628 34.4065 9.66375 34.185 9.36528L33.0596 7.8489L33.0694 6.41115C33.0712 6.14635 32.9644 5.89239 32.7738 5.70852C32.5833 5.52465 32.3256 5.42696 32.0611 5.43822C31.129 5.47793 29.1463 5.92176 26.9662 6.91044C24.7675 7.90758 22.2682 9.50302 20.3816 11.9219C20.155 12.2125 20.1131 12.6065 20.2737 12.9382C20.4342 13.2698 20.7692 13.4814 21.1376 13.484L23.1318 13.4976ZM32.0902 8.16565L33.4083 9.94168C32.9914 9.9268 32.5866 9.9227 32.1939 9.92836C27.5793 9.99485 24.6304 11.4097 23.1384 12.5304L21.1443 12.5168C21.4071 12.1798 21.683 11.8595 21.9694 11.5552C24.945 8.39283 29.0422 6.95733 31.1341 6.53862C31.5399 6.4574 31.8702 6.41444 32.1022 6.40455L32.0902 8.16565Z" fill="#B31B1B"/>
<path id="Vector 1126 (Stroke)_2" fill-rule="evenodd" clip-rule="evenodd" d="M31.2048 6.63828C31.4719 6.63828 31.6884 6.85479 31.6884 7.12188V7.84226C31.6884 8.10935 31.4719 8.32587 31.2048 8.32587C30.9377 8.32587 30.7212 8.10935 30.7212 7.84226V7.12188C30.7212 6.85479 30.9377 6.63828 31.2048 6.63828Z" fill="#FF5252"/>
</g>
<path id="Vector 1131" d="M22.0911 3.33535C17.5036 5.8221 18.3953 11.3147 18.3953 12.9167L19.3625 13.0678C19.7636 9.13853 22.4922 4.36297 24.5779 6.47873C25.9829 7.90407 21.2274 12.9486 19.2033 13.8537H20.8077C23.2944 13.5212 27.0772 10.0714 27.8133 6.90187C28.3748 4.48387 26.6635 0.856839 22.0911 3.33535Z" fill="#E33030"/>
<path id="Vector 1131 (Stroke)" fill-rule="evenodd" clip-rule="evenodd" d="M18.2347 13.87C17.7689 13.7924 17.4266 13.3892 17.4266 12.916C17.4266 12.7822 17.4167 12.5895 17.4043 12.3501C17.3576 11.4421 17.2762 9.86254 17.5705 8.28028C17.956 6.20815 19.0013 3.90861 21.6287 2.48438C22.8746 1.80903 24.0111 1.50233 25.0273 1.53976C26.0616 1.57787 26.9132 1.97193 27.5485 2.58673C28.7753 3.77389 29.093 5.65985 28.7539 7.12001C28.3285 8.95174 27.062 10.7632 25.6368 12.1373C24.2277 13.4958 22.4768 14.6055 20.9343 14.8117C20.8919 14.8174 20.849 14.8202 20.8062 14.8202H19.2018C18.7455 14.8202 18.3512 14.5012 18.2559 14.0549C18.2428 13.9931 18.2358 13.9313 18.2347 13.87ZM21.0505 13.8113C23.5336 13.2984 27.0995 9.96855 27.8118 6.90122C28.3733 4.48321 26.662 0.856187 22.0896 3.33469C18.0323 5.53402 18.2609 10.0845 18.3679 12.2153C18.3819 12.4937 18.3938 12.7309 18.3938 12.916L19.361 13.0671C19.3672 13.0069 19.3739 12.9464 19.3811 12.8858C19.392 12.7948 19.404 12.7035 19.4173 12.6119C19.4413 12.4454 19.4692 12.2779 19.5008 12.11C20.1954 8.41664 22.6579 4.53189 24.5764 6.47808C25.7026 7.62057 22.8707 11.0884 20.66 12.8858C20.5465 12.9781 20.4346 13.066 20.3249 13.149C20.3185 13.1539 20.312 13.1587 20.3056 13.1636C19.9112 13.4606 19.5466 13.6929 19.241 13.8351C19.2278 13.8413 19.2148 13.8472 19.2018 13.853H20.8062C20.8863 13.8423 20.9678 13.8283 21.0505 13.8113ZM20.5827 11.679C21.2134 11.1125 21.8654 10.436 22.4255 9.7493C23.0322 9.00545 23.4905 8.29897 23.7182 7.73977C23.8786 7.34562 23.8698 7.17842 23.8608 7.13058C23.7159 6.99086 23.6101 6.94849 23.5499 6.93444C23.4891 6.92024 23.4071 6.91877 23.2823 6.96632C22.9938 7.07621 22.583 7.41136 22.1297 8.05985C21.4792 8.99045 20.9125 10.3198 20.5827 11.679Z" fill="#BC2020"/>
<path id="Vector 1132 (Stroke)" fill-rule="evenodd" clip-rule="evenodd" d="M20.4317 4.97471C22.5629 2.22054 25.219 2.69639 25.4428 2.74114C25.7047 2.79352 25.8746 3.0483 25.8222 3.3102C25.7698 3.5721 25.515 3.74195 25.2531 3.68957C25.1746 3.67387 22.9947 3.24296 21.1967 5.56662C21.0332 5.77785 20.7295 5.81658 20.5182 5.65313C20.307 5.48968 20.2683 5.18594 20.4317 4.97471Z" fill="#FF4444"/>
<path id="Vector 684 (Stroke)" fill-rule="evenodd" clip-rule="evenodd" d="M5.79201 16.112C5.79987 16.379 5.58981 16.6018 5.32284 16.6096C4.73395 16.6269 4.3166 17.0323 4.03976 17.4198C3.88452 17.6372 3.58249 17.6875 3.36515 17.5323C3.14781 17.377 3.09747 17.075 3.25271 16.8577C3.58038 16.3989 4.23904 15.6739 5.2944 15.6428C5.56137 15.635 5.78416 15.845 5.79201 16.112Z" fill="white"/>
<g id="Group 1204">
<path id="Vector 1129" d="M9.56967 5.49906C11.0204 9.42832 15.7054 12.1183 18.9394 13.8412C15.9086 11.9169 12.9989 8.38128 12.169 6.82892C11.3392 5.27657 11.897 3.23213 14.1035 3.62506C16.9606 4.13386 18.7052 10.8032 19.6347 13.6514C19.7455 12.0201 19.3437 6.21214 16.9446 3.2624C13.2571 -1.27138 8.16067 1.68295 9.56967 5.49906Z" fill="#F23535"/>
<path id="Vector 1129 (Stroke)" fill-rule="evenodd" clip-rule="evenodd" d="M19.524 14.6134C19.232 14.8343 18.8276 14.8784 18.485 14.6959C16.8617 13.8311 14.8174 12.6946 12.9889 11.2594C11.1686 9.83056 9.47699 8.04066 8.66265 5.83513C7.76929 3.41556 8.96143 1.19559 10.9746 0.357647C13.0045 -0.487273 15.6368 0.122324 17.6953 2.65318C19.0484 4.31693 19.7856 6.6988 20.1812 8.771C20.5801 10.8607 20.662 12.8047 20.5999 13.718C20.5686 14.1801 20.214 14.555 19.7544 14.6122C19.6765 14.6219 19.5992 14.622 19.524 14.6134ZM19.3482 9.617C18.9935 7.42087 18.2771 4.90148 16.9449 3.26347C13.2574 -1.27031 8.16099 1.68402 9.56999 5.50012C10.3451 7.59953 12.0436 9.34517 13.9507 10.7785C15.499 11.9422 17.1848 12.9001 18.6258 13.6743C18.7318 13.7313 18.8365 13.7872 18.9398 13.8422C18.8299 13.7725 18.7201 13.7006 18.6106 13.6267C17.158 12.647 15.7499 11.3246 14.6043 10.0597C13.455 8.79054 12.5699 7.57925 12.1694 6.82999C11.3395 5.27763 11.8973 3.2332 14.1038 3.62612C15.9983 3.9635 17.4037 7.00956 18.4066 9.85416C18.7493 10.8263 19.0451 11.775 19.2973 12.5839C19.3428 12.7299 19.3869 12.8713 19.4296 13.0075C19.434 13.0217 19.4384 13.0358 19.4429 13.0499C19.5104 13.2651 19.5744 13.4669 19.635 13.6524C19.6438 13.5224 19.6494 13.3659 19.6509 13.1864C19.6581 12.3643 19.5813 11.0605 19.3482 9.617ZM18.1212 12.066C17.7332 10.8385 17.2685 9.44009 16.7056 8.14842C16.2652 7.1378 15.7884 6.25165 15.2808 5.60278C14.7616 4.93893 14.3054 4.64445 13.9342 4.57835C13.531 4.50655 13.2903 4.56066 13.1579 4.62151C13.032 4.67934 12.9387 4.77223 12.8716 4.91347C12.7213 5.23017 12.7162 5.80133 13.0223 6.374C13.3833 7.04917 14.2584 8.25313 15.4418 9.54265C16.2467 10.4197 17.1661 11.3054 18.1212 12.066Z" fill="#BC2020"/>
<path id="Vector 1130 (Stroke)" fill-rule="evenodd" clip-rule="evenodd" d="M11.6633 1.75347C11.8131 1.97459 11.7553 2.27529 11.5342 2.42508C11.0526 2.75132 10.123 3.88646 10.7796 5.66563C10.8721 5.9162 10.7439 6.19429 10.4934 6.28676C10.2428 6.37923 9.96472 6.25107 9.87225 6.0005C9.02968 3.71741 10.224 2.14438 10.9917 1.62431C11.2128 1.47452 11.5135 1.53234 11.6633 1.75347Z" fill="#FF7878"/>
</g>
</g>
</svg>
