<svg width="90" height="96" viewBox="0 0 90 96" fill="none" xmlns="http://www.w3.org/2000/svg">
    <path
        d="M36.8536 2.09241C36.5117 1.84199 36.0581 1.80498 35.6801 1.99667C35.3021 2.18835 35.0639 2.57619 35.0639 3C35.0639 12.1279 32.8273 28.2559 21.8924 39.1244C11.2585 49.6937 8.97489 62.2832 13.346 72.8748C17.7005 83.4262 28.5577 91.7539 43.7213 94.1097C43.831 94.1267 43.9427 94.1274 44.0526 94.1118C52.2246 92.948 63.4757 90.0138 70.9402 81.3277C78.4672 72.5687 81.8917 58.2767 75.0786 34.9911C74.9525 34.56 74.5821 34.2453 74.1363 34.1904C73.6905 34.1356 73.2548 34.3512 73.028 34.7388C72.8287 35.0794 72.6237 35.4345 72.4125 35.8005C71.1609 37.9691 69.6898 40.518 67.8859 42.6589C66.0325 44.8585 63.98 46.4403 61.6567 46.7976C60.9802 41.5579 58.6437 33.5255 54.7723 25.4186C50.618 16.7195 44.6259 7.7848 36.8536 2.09241Z"
        fill="#818181" stroke="#282828" stroke-width="2.24995" stroke-linejoin="round" />
    <path
        d="M22.6854 39.9223C33.9404 28.7356 36.1889 12.2306 36.1889 3C38.4094 4.62629 40.4859 6.52949 42.4157 8.62488C43.7692 22.1246 34.3123 38.3242 26.4375 44.6241C20.8126 49.124 15.7502 54.7489 15.7502 63.7487C15.7502 79.9753 32.0875 90.2974 41.5742 92.5837C42.335 92.7377 43.1084 92.876 43.894 92.998C43.1837 92.9225 42.4052 92.7839 41.5742 92.5837C13.5636 86.9131 2.53058 59.9546 22.6854 39.9223Z"
        fill="#9D9D9D" />
    <path fill-rule="evenodd" clip-rule="evenodd"
        d="M12.4297 60.6739C11.4544 75.8108 23.583 89.8427 43.894 92.9981C60.0984 90.6905 87.5026 81.4599 73.9989 35.3071C73.8055 35.6376 73.6046 35.9859 73.3959 36.3477C73.2632 36.5778 73.1273 36.8134 72.9882 37.0533C83.2588 77.9419 57.9609 86.344 42.8071 88.4953C24.683 85.6884 13.3069 73.9399 12.4297 60.6739ZM61.1552 47.9831C60.9909 47.9937 60.8251 47.9991 60.6577 47.9991C59.8689 39.238 53.2891 19.7897 41.5 7.65674C52.1256 20.1134 57.761 40.3851 58.4993 48.5587C59.3923 48.5587 60.2824 48.3525 61.1552 47.9831Z"
        fill="#545454" />
    <path
        d="M43.8755 92.9963C12.9385 89.0589 28.688 48.5598 45.0001 35.0601C42.1879 55.3096 57.7898 54.0872 59.625 72.7467C60.7498 84.184 56.25 91.8713 43.8755 92.9963Z"
        fill="#A0A0A0" />
    <path
        d="M43.8751 92.9991C20.3861 88.2492 30.5109 59.7498 41.1875 50.25C41.1878 66.8746 53.9998 64.4997 53.9998 78.7494C53.9998 88.2492 49.4999 92.4366 43.8751 92.9991Z"
        fill="#A9A9A9" />
    <path
        d="M43.9867 92.998C56.7989 90.4981 49.4952 76.6859 43.3077 70.4985C43.8703 80.0608 38.8082 79.4983 38.2455 85.6857C37.8719 89.7937 41.2689 92.5814 43.9867 92.998Z"
        fill="#B9B7B7" />
    <path
        d="M43.8775 93.0002C50.6272 91.8752 47.2523 84.5629 43.8773 80.6255C43.3148 85.1254 40.813 85.5754 40.5173 88.9784C40.3211 91.2378 42.4497 92.7711 43.8775 93.0002Z"
        fill="#8C8C8C" />
    <path
        d="M43.1588 92.8445C20.595 87.6632 30.621 59.6518 41.1875 50.25C41.1876 54.1367 41.8879 56.9849 42.9611 59.2498C40.8283 61.3123 36.2252 68.0246 34.8752 78.3744C33.6148 88.0376 39.6085 91.9149 43.1588 92.8445C43.394 92.8986 43.6328 92.9501 43.8751 92.9991C43.651 92.9618 43.4111 92.9106 43.1588 92.8445Z"
        fill="#B7B7B7" />
    <path d="M72.5613 41.8125C71.0613 43.875 67.0489 48.3374 62.999 49.6873" stroke="#B3B3B3"
        stroke-width="2.24995" stroke-linecap="round" stroke-linejoin="round" />
    <path d="M72.5614 41.8125C71.7949 42.8664 70.3724 44.547 68.624 46.1188" stroke="#DBDBDB"
        stroke-width="2.24995" stroke-linecap="round" stroke-linejoin="round" />
    <path d="M38.2537 8.625C37.6912 17.6248 34.8788 28.3121 29.8164 35.0619" stroke="#B3B3B3"
        stroke-width="2.24995" stroke-linecap="round" stroke-linejoin="round" />
    <path d="M38.2544 8.625C38.0517 11.8685 37.5567 15.3312 36.7695 18.7498" stroke="#DBDBDB"
        stroke-width="2.24995" stroke-linecap="round" stroke-linejoin="round" />
    <path d="M39.3788 55.875C36.5663 59.2499 33.1914 65.9998 32.6289 72.7496" stroke="#CBCBCB"
        stroke-width="2.24995" stroke-linecap="round" stroke-linejoin="round" />
    <circle cx="61.8681" cy="59.251" r="1.12498" fill="#656565" />
    <circle cx="59.0596" cy="62.0625" r="0.562488" fill="#656565" />
    <circle cx="64.6846" cy="56.4375" r="0.562488" fill="#656565" />
    <circle cx="65.8076" cy="60.9346" r="0.562488" fill="#656565" />
    <circle cx="62.4385" cy="64.3135" r="0.562488" fill="#656565" />
    <circle cx="61.3057" cy="69.9385" r="0.562488" fill="#656565" />
    <circle cx="55.6807" cy="51.9355" r="0.562488" fill="#656565" />
    <circle cx="54.5576" cy="42.937" r="0.562488" fill="#656565" />
    <circle cx="54.5576" cy="47.439" r="0.562488" fill="#656565" />
    <circle cx="52.3115" cy="51.9355" r="0.562488" fill="#656565" />
    <circle cx="26.4336" cy="58.6885" r="0.562488" fill="#656565" />
    <circle cx="24.1875" cy="53.0635" r="0.562488" fill="#656565" />
    <circle cx="30.9355" cy="49.6846" r="0.562488" fill="#656565" />
    <circle cx="26.4336" cy="49.6846" r="0.562488" fill="#656565" />
    <circle cx="32.0586" cy="45.188" r="0.562488" fill="#656565" />
    <circle cx="25.3105" cy="62.0625" r="0.562488" fill="#656565" />
    <circle cx="21.9316" cy="60.9346" r="0.562488" fill="#656565" />
    <circle cx="19.6855" cy="65.4365" r="0.562488" fill="#656565" />
    <circle cx="23.0644" cy="67.6875" r="0.562488" fill="#656565" />
    <circle cx="23.0644" cy="72.1841" r="0.562488" fill="#656565" />
    <circle cx="47.8096" cy="41.814" r="0.562488" fill="#656565" />
    <circle cx="51.1885" cy="44.06" r="0.562488" fill="#656565" />
    <circle cx="48.9326" cy="37.312" r="0.562488" fill="#656565" />
    <circle cx="56.2431" cy="57" r="1.12498" fill="#656565" />
    <circle cx="21.3711" cy="57" r="1.12498" fill="#656565" />
    <circle cx="50.6181" cy="48.0014" r="1.12498" fill="#656565" />
    <circle cx="28.1191" cy="53.626" r="1.12498" fill="#656565" />
    <circle cx="23.6269" cy="64.876" r="1.12498" fill="#656565" />
    <circle cx="60.1845" cy="54.1884" r="1.68746" fill="#656565" />
</svg>