<svg width="22" height="22" viewBox="0 0 22 22" fill="none" xmlns="http://www.w3.org/2000/svg">
<path d="M3.66685 17.4167V10.6562L2.75018 11.3667C2.5363 11.5194 2.30713 11.5806 2.06268 11.55C1.81824 11.5194 1.61963 11.3972 1.46685 11.1833C1.31407 10.9694 1.25296 10.7403 1.28352 10.4958C1.31407 10.2514 1.42866 10.0528 1.62727 9.9L3.66685 8.34166V6.41666C3.66685 6.15694 3.7547 5.93923 3.93039 5.76354C4.10609 5.58784 4.3238 5.5 4.58352 5.5C4.84324 5.5 5.06095 5.58784 5.23664 5.76354C5.41234 5.93923 5.50018 6.15694 5.50018 6.41666V6.94375L9.87727 3.59791C10.2134 3.33819 10.5877 3.20833 11.0002 3.20833C11.4127 3.20833 11.787 3.33819 12.1231 3.59791L20.3731 9.9C20.5717 10.0528 20.6863 10.2514 20.7169 10.4958C20.7474 10.7403 20.6863 10.9694 20.5335 11.1833C20.3807 11.3819 20.1821 11.4965 19.9377 11.5271C19.6932 11.5576 19.4717 11.4965 19.2731 11.3437L18.3335 10.6562V17.4167C18.3335 17.9208 18.154 18.3524 17.795 18.7115C17.4359 19.0705 17.0044 19.25 16.5002 19.25H5.50018C4.99602 19.25 4.56442 19.0705 4.20539 18.7115C3.84637 18.3524 3.66685 17.9208 3.66685 17.4167ZM5.50018 17.4167H10.0835V14.6667C10.0835 14.4069 10.1714 14.1892 10.3471 14.0135C10.5228 13.8378 10.7405 13.75 11.0002 13.75C11.2599 13.75 11.4776 13.8378 11.6533 14.0135C11.829 14.1892 11.9169 14.4069 11.9169 14.6667V17.4167H16.5002V9.25833L11.0002 5.06458L5.50018 9.25833V17.4167ZM4.85852 4.58333C4.50713 4.58333 4.23595 4.43819 4.04498 4.14791C3.854 3.85764 3.84255 3.55972 4.0106 3.25416C4.27032 2.81111 4.61025 2.46354 5.03039 2.21146C5.45053 1.95937 5.91268 1.83333 6.41685 1.83333C6.58491 1.83333 6.74532 1.79132 6.8981 1.70729C7.05088 1.62326 7.16546 1.50486 7.24185 1.35208C7.31824 1.21458 7.42137 1.10764 7.55123 1.03125C7.68109 0.954859 7.83005 0.916664 7.9981 0.916664C8.34949 0.916664 8.61685 1.0618 8.80018 1.35208C8.98352 1.64236 8.99116 1.94028 8.8231 2.24583C8.56338 2.68889 8.22345 3.03646 7.80331 3.28854C7.38317 3.54062 6.92102 3.66666 6.41685 3.66666C6.2488 3.66666 6.08838 3.70486 5.9356 3.78125C5.78282 3.85764 5.66824 3.97986 5.59185 4.14791C5.51546 4.28541 5.41616 4.39236 5.29393 4.46875C5.17171 4.54514 5.02657 4.58333 4.85852 4.58333Z" fill="white"/>
</svg>
