<svg xmlns="http://www.w3.org/2000/svg" width="45" height="60" viewBox="0 0 45 60" fill="none">
  <path d="M22.5 10C21.125 10 19.9479 9.51042 18.9688 8.53125C17.9896 7.55208 17.5 6.375 17.5 5C17.5 3.625 17.9896 2.44792 18.9688 1.46875C19.9479 0.489583 21.125 0 22.5 0C23.875 0 25.0521 0.489583 26.0312 1.46875C27.0104 2.44792 27.5 3.625 27.5 5C27.5 6.375 27.0104 7.55208 26.0312 8.53125C25.0521 9.51042 23.875 10 22.5 10ZM15 47.5V17.5C12.5 17.2917 9.95833 16.9792 7.375 16.5625C4.79167 16.1458 2.33333 15.625 0 15L1.25 10C4.5 10.875 7.95833 11.5104 11.625 11.9062C15.2917 12.3021 18.9167 12.5 22.5 12.5C26.0833 12.5 29.7083 12.3021 33.375 11.9062C37.0417 11.5104 40.5 10.875 43.75 10L45 15C42.6667 15.625 40.2083 16.1458 37.625 16.5625C35.0417 16.9792 32.5 17.2917 30 17.5V47.5H25V32.5H20V47.5H15ZM12.5 60C11.7917 60 11.1979 59.7604 10.7188 59.2812C10.2396 58.8021 10 58.2083 10 57.5C10 56.7917 10.2396 56.1979 10.7188 55.7188C11.1979 55.2396 11.7917 55 12.5 55C13.2083 55 13.8021 55.2396 14.2812 55.7188C14.7604 56.1979 15 56.7917 15 57.5C15 58.2083 14.7604 58.8021 14.2812 59.2812C13.8021 59.7604 13.2083 60 12.5 60ZM22.5 60C21.7917 60 21.1979 59.7604 20.7188 59.2812C20.2396 58.8021 20 58.2083 20 57.5C20 56.7917 20.2396 56.1979 20.7188 55.7188C21.1979 55.2396 21.7917 55 22.5 55C23.2083 55 23.8021 55.2396 24.2812 55.7188C24.7604 56.1979 25 56.7917 25 57.5C25 58.2083 24.7604 58.8021 24.2812 59.2812C23.8021 59.7604 23.2083 60 22.5 60ZM32.5 60C31.7917 60 31.1979 59.7604 30.7188 59.2812C30.2396 58.8021 30 58.2083 30 57.5C30 56.7917 30.2396 56.1979 30.7188 55.7188C31.1979 55.2396 31.7917 55 32.5 55C33.2083 55 33.8021 55.2396 34.2812 55.7188C34.7604 56.1979 35 56.7917 35 57.5C35 58.2083 34.7604 58.8021 34.2812 59.2812C33.8021 59.7604 33.2083 60 32.5 60Z" fill="#D9DCE1"/>
</svg>