<svg width="22" height="22" viewBox="0 0 22 22" fill="none" xmlns="http://www.w3.org/2000/svg">
<g id="orbit_24dp_E8EAED_FILL0_wght400_GRAD0_opsz24 (1) 2">
<path id="Vector" d="M11.0002 15.5833C11.2599 15.5833 11.4776 15.4955 11.6533 15.3198C11.829 15.1441 11.9168 14.9264 11.9168 14.6667V11C11.9168 10.7403 11.829 10.5226 11.6533 10.3469C11.4776 10.1712 11.2599 10.0833 11.0002 10.0833C10.7404 10.0833 10.5227 10.1712 10.347 10.3469C10.1713 10.5226 10.0835 10.7403 10.0835 11V14.6667C10.0835 14.9264 10.1713 15.1441 10.347 15.3198C10.5227 15.4955 10.7404 15.5833 11.0002 15.5833ZM11.0002 8.25C11.2599 8.25 11.4776 8.16216 11.6533 7.98646C11.829 7.81077 11.9168 7.59306 11.9168 7.33334C11.9168 7.07361 11.829 6.85591 11.6533 6.68021C11.4776 6.50452 11.2599 6.41667 11.0002 6.41667C10.7404 6.41667 10.5227 6.50452 10.347 6.68021C10.1713 6.85591 10.0835 7.07361 10.0835 7.33334C10.0835 7.59306 10.1713 7.81077 10.347 7.98646C10.5227 8.16216 10.7404 8.25 11.0002 8.25ZM11.0002 20.1667C9.73211 20.1667 8.54044 19.926 7.42516 19.4448C6.30988 18.9635 5.33975 18.3104 4.51475 17.4854C3.68975 16.6604 3.03662 15.6903 2.55537 14.575C2.07412 13.4597 1.8335 12.2681 1.8335 11C1.8335 9.73195 2.07412 8.54028 2.55537 7.425C3.03662 6.30972 3.68975 5.33959 4.51475 4.51459C5.33975 3.68959 6.30988 3.03646 7.42516 2.55521C8.54044 2.07396 9.73211 1.83334 11.0002 1.83334C12.2682 1.83334 13.4599 2.07396 14.5752 2.55521C15.6904 3.03646 16.6606 3.68959 17.4856 4.51459C18.3106 5.33959 18.9637 6.30972 19.445 7.425C19.9262 8.54028 20.1668 9.73195 20.1668 11C20.1668 12.2681 19.9262 13.4597 19.445 14.575C18.9637 15.6903 18.3106 16.6604 17.4856 17.4854C16.6606 18.3104 15.6904 18.9635 14.5752 19.4448C13.4599 19.926 12.2682 20.1667 11.0002 20.1667ZM11.0002 18.3333C13.0474 18.3333 14.7814 17.6229 16.2022 16.2021C17.6231 14.7813 18.3335 13.0472 18.3335 11C18.3335 8.95278 17.6231 7.21875 16.2022 5.79792C14.7814 4.37709 13.0474 3.66667 11.0002 3.66667C8.95294 3.66667 7.21891 4.37709 5.79808 5.79792C4.37725 7.21875 3.66683 8.95278 3.66683 11C3.66683 13.0472 4.37725 14.7813 5.79808 16.2021C7.21891 17.6229 8.95294 18.3333 11.0002 18.3333Z" fill="white"/>
</g>
</svg>
