<svg width="12" height="12" viewBox="0 0 12 12" fill="none" xmlns="http://www.w3.org/2000/svg">
<g id="&#208;&#184;&#208;&#189;&#209;&#132;&#208;&#190;">
<path id="Vector" d="M6 8.50024C6.14167 8.50024 6.26042 8.45233 6.35625 8.35649C6.45208 8.26066 6.5 8.14191 6.5 8.00024V6.00024C6.5 5.85858 6.45208 5.73983 6.35625 5.64399C6.26042 5.54816 6.14167 5.50024 6 5.50024C5.85833 5.50024 5.73958 5.54816 5.64375 5.64399C5.54792 5.73983 5.5 5.85858 5.5 6.00024V8.00024C5.5 8.14191 5.54792 8.26066 5.64375 8.35649C5.73958 8.45233 5.85833 8.50024 6 8.50024ZM6 4.50024C6.14167 4.50024 6.26042 4.45233 6.35625 4.35649C6.45208 4.26066 6.5 4.14191 6.5 4.00024C6.5 3.85858 6.45208 3.73983 6.35625 3.64399C6.26042 3.54816 6.14167 3.50024 6 3.50024C5.85833 3.50024 5.73958 3.54816 5.64375 3.64399C5.54792 3.73983 5.5 3.85858 5.5 4.00024C5.5 4.14191 5.54792 4.26066 5.64375 4.35649C5.73958 4.45233 5.85833 4.50024 6 4.50024ZM6 11.0002C5.30833 11.0002 4.65833 10.869 4.05 10.6065C3.44167 10.344 2.9125 9.98774 2.4625 9.53774C2.0125 9.08774 1.65625 8.55858 1.39375 7.95024C1.13125 7.34191 1 6.69191 1 6.00024C1 5.30858 1.13125 4.65858 1.39375 4.05024C1.65625 3.44191 2.0125 2.91274 2.4625 2.46274C2.9125 2.01274 3.44167 1.65649 4.05 1.39399C4.65833 1.13149 5.30833 1.00024 6 1.00024C6.69167 1.00024 7.34167 1.13149 7.95 1.39399C8.55833 1.65649 9.0875 2.01274 9.5375 2.46274C9.9875 2.91274 10.3438 3.44191 10.6062 4.05024C10.8688 4.65858 11 5.30858 11 6.00024C11 6.69191 10.8688 7.34191 10.6062 7.95024C10.3438 8.55858 9.9875 9.08774 9.5375 9.53774C9.0875 9.98774 8.55833 10.344 7.95 10.6065C7.34167 10.869 6.69167 11.0002 6 11.0002ZM6 10.0002C7.11667 10.0002 8.0625 9.61274 8.8375 8.83774C9.6125 8.06274 10 7.11691 10 6.00024C10 4.88358 9.6125 3.93774 8.8375 3.16274C8.0625 2.38774 7.11667 2.00024 6 2.00024C4.88333 2.00024 3.9375 2.38774 3.1625 3.16274C2.3875 3.93774 2 4.88358 2 6.00024C2 7.11691 2.3875 8.06274 3.1625 8.83774C3.9375 9.61274 4.88333 10.0002 6 10.0002Z" fill="#E84949"/>
</g>
</svg>
