<svg width="14" height="14" viewBox="0 0 14 14" fill="none" xmlns="http://www.w3.org/2000/svg">
<path d="M6.99984 12.8332C6.19289 12.8332 5.43456 12.68 4.72484 12.3738C4.01512 12.0675 3.39775 11.6519 2.87275 11.1269C2.34775 10.6019 1.93213 9.98456 1.62588 9.27484C1.31963 8.56511 1.1665 7.80678 1.1665 6.99984C1.1665 6.19289 1.31963 5.43456 1.62588 4.72484C1.93213 4.01512 2.34775 3.39775 2.87275 2.87275C3.39775 2.34775 4.01512 1.93213 4.72484 1.62588C5.43456 1.31963 6.19289 1.1665 6.99984 1.1665C7.4665 1.1665 7.92102 1.21998 8.36338 1.32692C8.80574 1.43387 9.23109 1.58942 9.63942 1.79359C9.78525 1.87137 9.88005 1.98803 9.9238 2.14359C9.96755 2.29914 9.94081 2.44498 9.84359 2.58109C9.74636 2.7172 9.61755 2.8047 9.45713 2.84359C9.29671 2.88248 9.13873 2.86303 8.98317 2.78525C8.67206 2.63942 8.3488 2.52762 8.01338 2.44984C7.67796 2.37206 7.34012 2.33317 6.99984 2.33317C5.70678 2.33317 4.60574 2.78768 3.69671 3.69671C2.78768 4.60574 2.33317 5.70678 2.33317 6.99984C2.33317 8.29289 2.78768 9.39393 3.69671 10.303C4.60574 11.212 5.70678 11.6665 6.99984 11.6665C8.29289 11.6665 9.39393 11.212 10.303 10.303C11.212 9.39393 11.6665 8.29289 11.6665 6.99984C11.6665 6.92206 11.6641 6.84671 11.6592 6.7738C11.6544 6.70088 11.6471 6.62553 11.6373 6.54775C11.6179 6.38248 11.6495 6.22449 11.7321 6.0738C11.8148 5.9231 11.9387 5.82345 12.104 5.77484C12.2596 5.72623 12.4054 5.74081 12.5415 5.81859C12.6776 5.89637 12.7554 6.01303 12.7748 6.16859C12.7943 6.3047 12.8089 6.44081 12.8186 6.57692C12.8283 6.71303 12.8332 6.854 12.8332 6.99984C12.8332 7.80678 12.68 8.56511 12.3738 9.27484C12.0675 9.98456 11.6519 10.6019 11.1269 11.1269C10.6019 11.6519 9.98456 12.0675 9.27484 12.3738C8.56511 12.68 7.80678 12.8332 6.99984 12.8332ZM6.18317 8.04984L11.6082 2.61025C11.7151 2.50331 11.8488 2.44741 12.0092 2.44255C12.1696 2.43768 12.3082 2.49359 12.4248 2.61025C12.5318 2.7172 12.5853 2.85331 12.5853 3.01859C12.5853 3.18387 12.5318 3.31998 12.4248 3.42692L6.5915 9.27484C6.47484 9.3915 6.33873 9.44984 6.18317 9.44984C6.02762 9.44984 5.8915 9.3915 5.77484 9.27484L4.11234 7.61234C4.00539 7.50539 3.95192 7.36928 3.95192 7.204C3.95192 7.03873 4.00539 6.90262 4.11234 6.79567C4.21928 6.68873 4.35539 6.63525 4.52067 6.63525C4.68595 6.63525 4.82206 6.68873 4.929 6.79567L6.18317 8.04984Z" fill="#2F80ED"/>
</svg>
