<svg width="13" height="12" viewBox="0 0 13 12" fill="none" xmlns="http://www.w3.org/2000/svg">
<g id="&#208;&#152;&#208;&#189;&#209;&#130;&#208;&#181;&#208;&#179;&#209;&#128;&#208;&#176;&#209;&#134;&#208;&#184;&#208;&#184;">
<path id="Vector" d="M3.4997 10.75C3.01637 10.75 2.60387 10.5792 2.2622 10.2375C1.92053 9.89583 1.7497 9.48333 1.7497 9C1.7497 8.51667 1.92053 8.10417 2.2622 7.7625C2.60387 7.42083 3.01637 7.25 3.4997 7.25C3.98303 7.25 4.39553 7.42083 4.7372 7.7625C5.07887 8.10417 5.2497 8.51667 5.2497 9C5.2497 9.18333 5.22262 9.36042 5.16845 9.53125C5.11428 9.70208 5.03303 9.8625 4.9247 10.0125V9.675C5.1747 9.78333 5.43303 9.86458 5.6997 9.91875C5.96637 9.97292 6.23303 10 6.4997 10C7.5247 10 8.41012 9.66667 9.15595 9C9.90178 8.33333 10.3372 7.50417 10.4622 6.5125C10.4789 6.37083 10.5372 6.25 10.6372 6.15C10.7372 6.05 10.858 6 10.9997 6C11.1414 6 11.2601 6.05 11.356 6.15C11.4518 6.25 11.4914 6.37083 11.4747 6.5125C11.3414 7.77917 10.8039 8.84375 9.8622 9.70625C8.92053 10.5688 7.7997 11 6.4997 11C6.1247 11 5.75803 10.9604 5.3997 10.8813C5.04137 10.8021 4.69553 10.6833 4.3622 10.525C4.22887 10.6 4.08928 10.6562 3.94345 10.6938C3.79762 10.7312 3.6497 10.75 3.4997 10.75ZM3.4997 9.75C3.70803 9.75 3.88512 9.67708 4.03095 9.53125C4.17678 9.38542 4.2497 9.20833 4.2497 9C4.2497 8.79167 4.17678 8.61458 4.03095 8.46875C3.88512 8.32292 3.70803 8.25 3.4997 8.25C3.29137 8.25 3.11428 8.32292 2.96845 8.46875C2.82262 8.61458 2.7497 8.79167 2.7497 9C2.7497 9.20833 2.82262 9.38542 2.96845 9.53125C3.11428 9.67708 3.29137 9.75 3.4997 9.75ZM6.4997 7.75C6.01637 7.75 5.60387 7.57917 5.2622 7.2375C4.92053 6.89583 4.7497 6.48333 4.7497 6C4.7497 5.51667 4.92053 5.10417 5.2622 4.7625C5.60387 4.42083 6.01637 4.25 6.4997 4.25C6.98303 4.25 7.39553 4.42083 7.7372 4.7625C8.07887 5.10417 8.2497 5.51667 8.2497 6C8.2497 6.48333 8.07887 6.89583 7.7372 7.2375C7.39553 7.57917 6.98303 7.75 6.4997 7.75ZM6.4997 2C5.4747 2 4.58928 2.33333 3.84345 3C3.09762 3.66667 2.6622 4.49583 2.5372 5.4875C2.52053 5.62917 2.4622 5.75 2.3622 5.85C2.2622 5.95 2.14137 6 1.9997 6C1.85803 6 1.73928 5.95 1.64345 5.85C1.54762 5.75 1.50803 5.62917 1.5247 5.4875C1.65803 4.22083 2.19553 3.15625 3.1372 2.29375C4.07887 1.43125 5.1997 1 6.4997 1C6.8747 1 7.24137 1.03958 7.5997 1.11875C7.95803 1.19792 8.30387 1.31667 8.6372 1.475C8.77053 1.4 8.91012 1.34375 9.05595 1.30625C9.20178 1.26875 9.3497 1.25 9.4997 1.25C9.98304 1.25 10.3955 1.42083 10.7372 1.7625C11.0789 2.10417 11.2497 2.51667 11.2497 3C11.2497 3.48333 11.0789 3.89583 10.7372 4.2375C10.3955 4.57917 9.98304 4.75 9.4997 4.75C9.01637 4.75 8.60387 4.57917 8.2622 4.2375C7.92053 3.89583 7.7497 3.48333 7.7497 3C7.7497 2.81667 7.77678 2.63958 7.83095 2.46875C7.88512 2.29792 7.96637 2.1375 8.0747 1.9875V2.325C7.8247 2.21667 7.56637 2.13542 7.2997 2.08125C7.03303 2.02708 6.76637 2 6.4997 2ZM9.4997 3.75C9.70803 3.75 9.88512 3.67708 10.031 3.53125C10.1768 3.38542 10.2497 3.20833 10.2497 3C10.2497 2.79167 10.1768 2.61458 10.031 2.46875C9.88512 2.32292 9.70803 2.25 9.4997 2.25C9.29137 2.25 9.11428 2.32292 8.96845 2.46875C8.82262 2.61458 8.7497 2.79167 8.7497 3C8.7497 3.20833 8.82262 3.38542 8.96845 3.53125C9.11428 3.67708 9.29137 3.75 9.4997 3.75Z" fill="#282830"/>
</g>
</svg>
