<svg width="15" height="14" viewBox="0 0 15 14" fill="none" xmlns="http://www.w3.org/2000/svg">
<g id="&#208;&#152;&#208;&#189;&#209;&#130;&#208;&#181;&#208;&#179;&#209;&#128;&#208;&#176;&#209;&#134;&#208;&#184;&#208;&#184;">
<path id="Vector" d="M3.99989 12.5415C3.43601 12.5415 2.95476 12.3422 2.55614 11.9436C2.15753 11.545 1.95823 11.0637 1.95823 10.4998C1.95823 9.93595 2.15753 9.4547 2.55614 9.05609C2.95476 8.65748 3.43601 8.45817 3.99989 8.45817C4.56378 8.45817 5.04503 8.65748 5.44364 9.05609C5.84226 9.4547 6.04156 9.93595 6.04156 10.4998C6.04156 10.7137 6.00996 10.9203 5.94677 11.1196C5.88357 11.3189 5.78878 11.5061 5.66239 11.6811V11.2873C5.95406 11.4137 6.25545 11.5085 6.56656 11.5717C6.87767 11.6349 7.18878 11.6665 7.49989 11.6665C8.69573 11.6665 9.72871 11.2776 10.5989 10.4998C11.469 9.72206 11.977 8.7547 12.1228 7.59775C12.1423 7.43248 12.2103 7.2915 12.327 7.17484C12.4436 7.05817 12.5846 6.99984 12.7499 6.99984C12.9152 6.99984 13.0537 7.05817 13.1655 7.17484C13.2773 7.2915 13.3235 7.43248 13.3041 7.59775C13.1485 9.07553 12.5214 10.3175 11.4228 11.3238C10.3242 12.33 9.01656 12.8332 7.49989 12.8332C7.06239 12.8332 6.63462 12.787 6.21656 12.6946C5.79851 12.6023 5.39503 12.4637 5.00614 12.279C4.85059 12.3665 4.68774 12.4321 4.5176 12.4759C4.34746 12.5196 4.17489 12.5415 3.99989 12.5415ZM3.99989 11.3748C4.24295 11.3748 4.44955 11.2898 4.61969 11.1196C4.78982 10.9495 4.87489 10.7429 4.87489 10.4998C4.87489 10.2568 4.78982 10.0502 4.61969 9.88004C4.44955 9.70991 4.24295 9.62484 3.99989 9.62484C3.75684 9.62484 3.55024 9.70991 3.3801 9.88004C3.20996 10.0502 3.12489 10.2568 3.12489 10.4998C3.12489 10.7429 3.20996 10.9495 3.3801 11.1196C3.55024 11.2898 3.75684 11.3748 3.99989 11.3748ZM7.49989 9.0415C6.93601 9.0415 6.45476 8.8422 6.05614 8.44359C5.65753 8.04498 5.45823 7.56373 5.45823 6.99984C5.45823 6.43595 5.65753 5.9547 6.05614 5.55609C6.45476 5.15748 6.93601 4.95817 7.49989 4.95817C8.06378 4.95817 8.54503 5.15748 8.94365 5.55609C9.34226 5.9547 9.54156 6.43595 9.54156 6.99984C9.54156 7.56373 9.34226 8.04498 8.94365 8.44359C8.54503 8.8422 8.06378 9.0415 7.49989 9.0415ZM7.49989 2.33317C6.30406 2.33317 5.27108 2.72206 4.40094 3.49984C3.5308 4.27761 3.02281 5.24498 2.87698 6.40192C2.85753 6.5672 2.78948 6.70817 2.67281 6.82484C2.55614 6.9415 2.41517 6.99984 2.24989 6.99984C2.08462 6.99984 1.94607 6.9415 1.83427 6.82484C1.72246 6.70817 1.67628 6.5672 1.69573 6.40192C1.85128 4.92414 2.47837 3.68213 3.57698 2.67588C4.67559 1.66963 5.98323 1.1665 7.49989 1.1665C7.93739 1.1665 8.36517 1.21268 8.78323 1.30505C9.20128 1.39741 9.60476 1.53595 9.99365 1.72067C10.1492 1.63317 10.312 1.56755 10.4822 1.5238C10.6523 1.48005 10.8249 1.45817 10.9999 1.45817C11.5638 1.45817 12.045 1.65748 12.4436 2.05609C12.8423 2.4547 13.0416 2.93595 13.0416 3.49984C13.0416 4.06373 12.8423 4.54498 12.4436 4.94359C12.045 5.3422 11.5638 5.5415 10.9999 5.5415C10.436 5.5415 9.95476 5.3422 9.55615 4.94359C9.15753 4.54498 8.95823 4.06373 8.95823 3.49984C8.95823 3.28595 8.98983 3.07935 9.05302 2.88005C9.11621 2.68074 9.21101 2.49359 9.3374 2.31859V2.71234C9.04573 2.58595 8.74434 2.49116 8.43323 2.42796C8.12212 2.36477 7.81101 2.33317 7.49989 2.33317ZM10.9999 4.37484C11.243 4.37484 11.4495 4.28977 11.6197 4.11963C11.7898 3.94949 11.8749 3.74289 11.8749 3.49984C11.8749 3.25678 11.7898 3.05018 11.6197 2.88005C11.4495 2.70991 11.243 2.62484 10.9999 2.62484C10.7568 2.62484 10.5502 2.70991 10.3801 2.88005C10.21 3.05018 10.1249 3.25678 10.1249 3.49984C10.1249 3.74289 10.21 3.94949 10.3801 4.11963C10.5502 4.28977 10.7568 4.37484 10.9999 4.37484Z" fill="white"/>
</g>
</svg>
