<svg width="51" height="50" viewBox="0 0 51 50" fill="none" xmlns="http://www.w3.org/2000/svg">
<path d="M10.5001 48.7505C8.08342 48.7505 6.02092 47.8963 4.31259 46.188C2.60425 44.4796 1.75009 42.4171 1.75009 40.0005C1.75009 37.5838 2.60425 35.5213 4.31259 33.813C6.02092 32.1046 8.08342 31.2505 10.5001 31.2505C12.9168 31.2505 14.9793 32.1046 16.6876 33.813C18.3959 35.5213 19.2501 37.5838 19.2501 40.0005C19.2501 40.9171 19.1147 41.8025 18.8438 42.6567C18.573 43.5109 18.1668 44.313 17.6251 45.063V43.3755C18.8751 43.9171 20.1668 44.3234 21.5001 44.5942C22.8334 44.865 24.1668 45.0005 25.5001 45.0005C30.6251 45.0005 35.0522 43.3338 38.7813 40.0005C42.5105 36.6671 44.6876 32.5213 45.3126 27.563C45.3959 26.8546 45.6876 26.2505 46.1876 25.7505C46.6876 25.2505 47.2918 25.0005 48.0001 25.0005C48.7084 25.0005 49.3022 25.2505 49.7813 25.7505C50.2605 26.2505 50.4584 26.8546 50.3751 27.563C49.7084 33.8963 47.0209 39.2192 42.3126 43.5317C37.6043 47.8442 32.0001 50.0005 25.5001 50.0005C23.6251 50.0005 21.7918 49.8025 20.0001 49.4067C18.2084 49.0109 16.4793 48.4171 14.8126 47.6255C14.1459 48.0005 13.448 48.2817 12.7188 48.4692C11.9897 48.6567 11.2501 48.7505 10.5001 48.7505ZM10.5001 43.7505C11.5418 43.7505 12.4272 43.3859 13.1563 42.6567C13.8855 41.9275 14.2501 41.0421 14.2501 40.0005C14.2501 38.9588 13.8855 38.0734 13.1563 37.3442C12.4272 36.615 11.5418 36.2505 10.5001 36.2505C9.45842 36.2505 8.573 36.615 7.84384 37.3442C7.11467 38.0734 6.75009 38.9588 6.75009 40.0005C6.75009 41.0421 7.11467 41.9275 7.84384 42.6567C8.573 43.3859 9.45842 43.7505 10.5001 43.7505ZM25.5001 33.7505C23.0834 33.7505 21.0209 32.8963 19.3126 31.188C17.6043 29.4796 16.7501 27.4171 16.7501 25.0005C16.7501 22.5838 17.6043 20.5213 19.3126 18.813C21.0209 17.1046 23.0834 16.2505 25.5001 16.2505C27.9168 16.2505 29.9793 17.1046 31.6876 18.813C33.3959 20.5213 34.2501 22.5838 34.2501 25.0005C34.2501 27.4171 33.3959 29.4796 31.6876 31.188C29.9793 32.8963 27.9168 33.7505 25.5001 33.7505ZM25.5001 5.00046C20.3751 5.00046 15.948 6.66712 12.2188 10.0005C8.48967 13.3338 6.31259 17.4796 5.68759 22.438C5.60425 23.1463 5.31259 23.7505 4.81259 24.2505C4.31259 24.7505 3.70842 25.0005 3.00009 25.0005C2.29175 25.0005 1.698 24.7505 1.21884 24.2505C0.739669 23.7505 0.541753 23.1463 0.625086 22.438C1.29175 16.1046 3.97925 10.7817 8.68759 6.46921C13.3959 2.15671 19.0001 0.000457764 25.5001 0.000457764C27.3751 0.000457764 29.2084 0.198374 31.0001 0.594208C32.7918 0.990041 34.5209 1.58379 36.1876 2.37546C36.8543 2.00046 37.5522 1.71921 38.2813 1.53171C39.0105 1.34421 39.7501 1.25046 40.5001 1.25046C42.9168 1.25046 44.9793 2.10462 46.6876 3.81296C48.3959 5.52129 49.2501 7.58379 49.2501 10.0005C49.2501 12.4171 48.3959 14.4796 46.6876 16.188C44.9793 17.8963 42.9168 18.7505 40.5001 18.7505C38.0834 18.7505 36.0209 17.8963 34.3126 16.188C32.6043 14.4796 31.7501 12.4171 31.7501 10.0005C31.7501 9.08379 31.8855 8.19837 32.1563 7.34421C32.4272 6.49004 32.8334 5.68796 33.3751 4.93796V6.62546C32.1251 6.08379 30.8334 5.67754 29.5001 5.40671C28.1668 5.13587 26.8334 5.00046 25.5001 5.00046ZM40.5001 13.7505C41.5418 13.7505 42.4272 13.3859 43.1563 12.6567C43.8855 11.9275 44.2501 11.0421 44.2501 10.0005C44.2501 8.95879 43.8855 8.07337 43.1563 7.34421C42.4272 6.61504 41.5418 6.25046 40.5001 6.25046C39.4584 6.25046 38.573 6.61504 37.8438 7.34421C37.1147 8.07337 36.7501 8.95879 36.7501 10.0005C36.7501 11.0421 37.1147 11.9275 37.8438 12.6567C38.573 13.3859 39.4584 13.7505 40.5001 13.7505Z" fill="#D9DCE1"/>
</svg>
