<svg width="25" height="24" viewBox="0 0 25 24" fill="none" xmlns="http://www.w3.org/2000/svg">
<g id="&#208;&#152;&#208;&#189;&#209;&#130;&#208;&#181;&#208;&#179;&#209;&#128;&#208;&#176;&#209;&#134;&#208;&#184;&#208;&#184;">
<path id="Vector" d="M6.74989 21.5C5.78322 21.5 4.95822 21.1583 4.27489 20.475C3.59155 19.7917 3.24989 18.9667 3.24989 18C3.24989 17.0333 3.59155 16.2083 4.27489 15.525C4.95822 14.8417 5.78322 14.5 6.74989 14.5C7.71656 14.5 8.54156 14.8417 9.22489 15.525C9.90822 16.2083 10.2499 17.0333 10.2499 18C10.2499 18.3667 10.1957 18.7208 10.0874 19.0625C9.97906 19.4042 9.81656 19.725 9.59989 20.025V19.35C10.0999 19.5667 10.6166 19.7292 11.1499 19.8375C11.6832 19.9458 12.2166 20 12.7499 20C14.7999 20 16.5707 19.3333 18.0624 18C19.5541 16.6667 20.4249 15.0083 20.6749 13.025C20.7082 12.7417 20.8249 12.5 21.0249 12.3C21.2249 12.1 21.4666 12 21.7499 12C22.0332 12 22.2707 12.1 22.4624 12.3C22.6541 12.5 22.7332 12.7417 22.6999 13.025C22.4332 15.5583 21.3582 17.6875 19.4749 19.4125C17.5916 21.1375 15.3499 22 12.7499 22C11.9999 22 11.2666 21.9208 10.5499 21.7625C9.83322 21.6042 9.14156 21.3667 8.47489 21.05C8.20822 21.2 7.92906 21.3125 7.63739 21.3875C7.34572 21.4625 7.04989 21.5 6.74989 21.5ZM6.74989 19.5C7.16656 19.5 7.52072 19.3542 7.81239 19.0625C8.10406 18.7708 8.24989 18.4167 8.24989 18C8.24989 17.5833 8.10406 17.2292 7.81239 16.9375C7.52072 16.6458 7.16656 16.5 6.74989 16.5C6.33322 16.5 5.97905 16.6458 5.68739 16.9375C5.39572 17.2292 5.24989 17.5833 5.24989 18C5.24989 18.4167 5.39572 18.7708 5.68739 19.0625C5.97905 19.3542 6.33322 19.5 6.74989 19.5ZM12.7499 15.5C11.7832 15.5 10.9582 15.1583 10.2749 14.475C9.59156 13.7917 9.24989 12.9667 9.24989 12C9.24989 11.0333 9.59156 10.2083 10.2749 9.525C10.9582 8.84167 11.7832 8.5 12.7499 8.5C13.7166 8.5 14.5416 8.84167 15.2249 9.525C15.9082 10.2083 16.2499 11.0333 16.2499 12C16.2499 12.9667 15.9082 13.7917 15.2249 14.475C14.5416 15.1583 13.7166 15.5 12.7499 15.5ZM12.7499 4C10.6999 4 8.92906 4.66667 7.43739 6C5.94572 7.33333 5.07489 8.99167 4.82489 10.975C4.79155 11.2583 4.67489 11.5 4.47489 11.7C4.27489 11.9 4.03322 12 3.74989 12C3.46655 12 3.22905 11.9 3.03739 11.7C2.84572 11.5 2.76655 11.2583 2.79989 10.975C3.06655 8.44167 4.14155 6.3125 6.02489 4.5875C7.90822 2.8625 10.1499 2 12.7499 2C13.4999 2 14.2332 2.07917 14.9499 2.2375C15.6666 2.39583 16.3582 2.63333 17.0249 2.95C17.2916 2.8 17.5707 2.6875 17.8624 2.6125C18.1541 2.5375 18.4499 2.5 18.7499 2.5C19.7166 2.5 20.5416 2.84167 21.2249 3.525C21.9082 4.20833 22.2499 5.03333 22.2499 6C22.2499 6.96667 21.9082 7.79167 21.2249 8.475C20.5416 9.15833 19.7166 9.5 18.7499 9.5C17.7832 9.5 16.9582 9.15833 16.2749 8.475C15.5916 7.79167 15.2499 6.96667 15.2499 6C15.2499 5.63333 15.3041 5.27917 15.4124 4.9375C15.5207 4.59583 15.6832 4.275 15.8999 3.975V4.65C15.3999 4.43333 14.8832 4.27083 14.3499 4.1625C13.8166 4.05417 13.2832 4 12.7499 4ZM18.7499 7.5C19.1666 7.5 19.5207 7.35417 19.8124 7.0625C20.1041 6.77083 20.2499 6.41667 20.2499 6C20.2499 5.58333 20.1041 5.22917 19.8124 4.9375C19.5207 4.64583 19.1666 4.5 18.7499 4.5C18.3332 4.5 17.9791 4.64583 17.6874 4.9375C17.3957 5.22917 17.2499 5.58333 17.2499 6C17.2499 6.41667 17.3957 6.77083 17.6874 7.0625C17.9791 7.35417 18.3332 7.5 18.7499 7.5Z" fill="#2F80ED"/>
</g>
</svg>
