<svg width="12" height="12" viewBox="0 0 12 12" fill="none" xmlns="http://www.w3.org/2000/svg">
<path d="M5.99997 8.91691C6.80692 8.91691 7.49477 8.63254 8.06352 8.06379C8.63227 7.49504 8.91665 6.80719 8.91665 6.00025C8.91665 5.1933 8.63227 4.50546 8.06352 3.93671C7.49477 3.36796 6.80692 3.08358 5.99997 3.08358C5.19303 3.08358 4.50518 3.36796 3.93643 3.93671C3.36767 4.50546 3.0833 5.1933 3.0833 6.00025C3.0833 6.80719 3.36767 7.49504 3.93643 8.06379C4.50518 8.63254 5.19303 8.91691 5.99997 8.91691ZM5.99997 11.8336C5.19303 11.8336 4.43469 11.6805 3.72497 11.3742C3.01524 11.068 2.39788 10.6523 1.87288 10.1273C1.34788 9.60233 0.932253 8.98497 0.626002 8.27525C0.319751 7.56553 0.166626 6.80719 0.166626 6.00025C0.166626 5.1933 0.319751 4.43497 0.626002 3.72525C0.932253 3.01553 1.34788 2.39817 1.87288 1.87317C2.39788 1.34817 3.01524 0.932541 3.72497 0.626291C4.43469 0.320041 5.19303 0.166916 5.99997 0.166916C6.80692 0.166916 7.56525 0.320041 8.27498 0.626291C8.9847 0.932541 9.60206 1.34817 10.1271 1.87317C10.6521 2.39817 11.0677 3.01553 11.3739 3.72525C11.6802 4.43497 11.8333 5.1933 11.8333 6.00025C11.8333 6.80719 11.6802 7.56553 11.3739 8.27525C11.0677 8.98497 10.6521 9.60233 10.1271 10.1273C9.60206 10.6523 8.9847 11.068 8.27498 11.3742C7.56525 11.6805 6.80692 11.8336 5.99997 11.8336ZM5.99997 10.6669C7.30275 10.6669 8.40623 10.2148 9.3104 9.31067C10.2146 8.4065 10.6666 7.30303 10.6666 6.00025C10.6666 4.69747 10.2146 3.594 9.3104 2.68983C8.40623 1.78567 7.30275 1.33358 5.99997 1.33358C4.69719 1.33358 3.59372 1.78567 2.68955 2.68983C1.78538 3.594 1.3333 4.69747 1.3333 6.00025C1.3333 7.30303 1.78538 8.4065 2.68955 9.31067C3.59372 10.2148 4.69719 10.6669 5.99997 10.6669Z" fill="white"/>
</svg>
