<svg width="22" height="23" viewBox="0 0 22 23" fill="none" xmlns="http://www.w3.org/2000/svg">
<path d="M4.58334 20.6668C4.07918 20.6668 3.64758 20.4873 3.28855 20.1282C2.92952 19.7692 2.75001 19.3376 2.75001 18.8334V8.49803C2.47501 8.32998 2.25348 8.11227 2.08543 7.84491C1.91737 7.57755 1.83334 7.26817 1.83334 6.91678V4.16678C1.83334 3.66262 2.01286 3.23102 2.37189 2.87199C2.73091 2.51296 3.16251 2.33345 3.66668 2.33345H18.3333C18.8375 2.33345 19.2691 2.51296 19.6281 2.87199C19.9872 3.23102 20.1667 3.66262 20.1667 4.16678V6.91678C20.1667 7.26817 20.0826 7.57755 19.9146 7.84491C19.7465 8.11227 19.525 8.32998 19.25 8.49803V18.8334C19.25 19.3376 19.0705 19.7692 18.7115 20.1282C18.3524 20.4873 17.9208 20.6668 17.4167 20.6668H4.58334ZM4.58334 8.75012V18.8334H17.4167V8.75012H4.58334ZM3.66668 6.91678H18.3333V4.16678H3.66668V6.91678ZM9.16668 13.3334H12.8333C13.0931 13.3334 13.3108 13.2456 13.4865 13.0699C13.6622 12.8942 13.75 12.6765 13.75 12.4168C13.75 12.1571 13.6622 11.9394 13.4865 11.7637C13.3108 11.588 13.0931 11.5001 12.8333 11.5001H9.16668C8.90695 11.5001 8.68925 11.588 8.51355 11.7637C8.33786 11.9394 8.25001 12.1571 8.25001 12.4168C8.25001 12.6765 8.33786 12.8942 8.51355 13.0699C8.68925 13.2456 8.90695 13.3334 9.16668 13.3334Z" fill="white"/>
</svg>
