<svg width="14" height="13" viewBox="0 0 14 13" fill="none" xmlns="http://www.w3.org/2000/svg">
<g id="Group 1536">
<g id="Group 54">
<path id="Rectangle 19" d="M2.56206 1.07751C1.28935 1.07751 0.257623 2.10924 0.257623 3.38194V4.74754V11.4048C0.257623 11.829 0.601533 12.1729 1.02577 12.1729H12.9747C13.3989 12.1729 13.7428 11.829 13.7428 11.4048V4.74754V3.38194C13.7428 2.10924 12.7111 1.07751 11.4384 1.07751H2.56206Z" fill="#E84949" stroke="#5B1003" stroke-width="0.512097" stroke-linejoin="round"/>
<rect id="Rectangle 81" x="0.513672" y="5.43036" width="12.9731" height="0.682796" fill="#911E1E"/>
<g id="Group 1534">
<circle id="Ellipse 755" cx="12.0358" cy="11.4901" r="0.256049" fill="#AE2929"/>
<circle id="Ellipse 760" cx="12.8043" cy="9.69772" r="0.341398" fill="#AE2929"/>
<circle id="Ellipse 756" cx="12.6336" cy="10.5512" r="0.170699" fill="#AE2929"/>
<circle id="Ellipse 761" cx="11.8654" cy="9.61237" r="0.256048" fill="#AE2929"/>
<circle id="Ellipse 762" cx="10.6706" cy="9.61237" r="0.256048" fill="#AE2929"/>
<circle id="Ellipse 763" cx="12.1214" cy="8.50285" r="0.170699" fill="#AE2929"/>
<ellipse id="Ellipse 764" cx="12.804" cy="8.84422" rx="0.170699" ry="0.170699" fill="#AE2929"/>
<ellipse id="Ellipse 771" cx="13.1453" cy="7.64934" rx="0.170699" ry="0.170699" fill="#AE2929"/>
<ellipse id="Ellipse 765" cx="12.9749" cy="11.234" rx="0.170699" ry="0.170699" fill="#AE2929"/>
<circle id="Ellipse 767" cx="10.7557" cy="8.67351" r="0.170699" fill="#AE2929"/>
<circle id="Ellipse 757" cx="10.6706" cy="11.3193" r="0.256048" fill="#AE2929"/>
<circle id="Ellipse 758" cx="10.2435" cy="10.7219" r="0.170699" fill="#AE2929"/>
<ellipse id="Ellipse 766" cx="9.56084" cy="11.234" rx="0.170699" ry="0.170699" fill="#AE2929"/>
<ellipse id="Ellipse 768" cx="10.2435" cy="10.3805" rx="0.170699" ry="0.170699" fill="#AE2929"/>
<circle id="Ellipse 769" cx="9.56084" cy="10.0391" r="0.170699" fill="#AE2929"/>
<circle id="Ellipse 770" cx="8.70732" cy="11.5754" r="0.170699" fill="#AE2929"/>
<ellipse id="Ellipse 759" cx="12.1214" cy="10.2098" rx="0.170699" ry="0.170699" fill="#AE2929"/>
</g>
<g id="Group 1531">
<path id="Vector 1699" d="M1.64062 2.69916H12.3584" stroke="#913017" stroke-width="0.512097" stroke-linecap="round" stroke-linejoin="round"/>
<path id="Vector 1700" d="M1.06641 3.89404H12.9326" stroke="#913017" stroke-width="0.512097" stroke-linecap="round" stroke-linejoin="round"/>
<path id="Vector 1701" d="M0.684082 6.62524H13.3158" stroke="#913017" stroke-width="0.512097" stroke-linecap="round" stroke-linejoin="round"/>
<path id="Vector 1702" d="M0.684082 7.99084H13.3158" stroke="#913017" stroke-width="0.512097" stroke-linecap="round" stroke-linejoin="round"/>
<path id="Vector 1703" d="M0.684082 9.35645H13.3158" stroke="#913017" stroke-width="0.512097" stroke-linecap="round" stroke-linejoin="round"/>
<path id="Vector 1704" d="M0.684082 10.722H13.3158" stroke="#913017" stroke-width="0.512097" stroke-linecap="round" stroke-linejoin="round"/>
</g>
<path id="Rectangle 27" d="M0.68457 10.5513V5.6864" stroke="#FF796C" stroke-width="0.512097" stroke-linecap="round" stroke-linejoin="round"/>
<path id="Rectangle 26" d="M11.78 1.50427H1.96481C1.11132 1.50427 0.68457 1.93102 0.68457 2.78451V4.91825H13.1456" stroke="#FF796C" stroke-width="0.512097" stroke-linecap="round" stroke-linejoin="round"/>
<path id="Rectangle 28" d="M1.96481 1.50427C1.11132 1.50427 0.68457 1.93102 0.68457 2.78451" stroke="#FFB4AD" stroke-width="0.512097" stroke-linecap="round" stroke-linejoin="round"/>
</g>
<path id="Vector 1706" d="M0.343262 5.25964H13.6578" stroke="#5B1003" stroke-width="0.512097" stroke-linecap="round" stroke-linejoin="round"/>
<g id="Group 1532">
<path id="Rectangle 21" d="M8.52007 6.6592C8.58454 6.61084 8.62249 6.53495 8.62249 6.45436V4.32062C8.62249 4.0378 8.39321 3.80853 8.11039 3.80853H5.8913C5.60848 3.80853 5.37921 4.0378 5.37921 4.32062V6.45436C5.37921 6.53495 5.41715 6.61084 5.48162 6.6592L6.84722 7.68339C6.93826 7.75167 7.06344 7.75167 7.15447 7.68339L8.52007 6.6592Z" fill="#DF8D12" stroke="#651D11" stroke-width="0.512097" stroke-linejoin="round"/>
<circle id="Ellipse 8" cx="7.00087" cy="5.43019" r="0.768145" fill="#FFB341" stroke="#944320" stroke-width="0.512097"/>
<path id="Vector 1690" d="M5.80615 6.11298V4.23529H7.85454" stroke="#FFB341" stroke-width="0.512097" stroke-linecap="round" stroke-linejoin="round"/>
<circle id="Ellipse 754" cx="6.83037" cy="5.25944" r="0.170699" fill="#FFEACA"/>
</g>
<g id="Group 1533">
<path id="Rectangle 23" d="M10.7559 5.43036H11.7801V11.9169H10.7559V5.43036Z" fill="#C52B10"/>
<path id="Rectangle 25" d="M11.7798 4.74754H11.2677H10.7556V1.33356H11.7798V4.74754Z" fill="#EB4545"/>
<path id="Rectangle 24" d="M2.2207 4.74754H2.7328H3.2449V1.33356H2.2207V4.74754Z" fill="#EB4545"/>
<path id="Vector 1726" d="M2.3916 1.50427V3.29661" stroke="#FFA58E" stroke-opacity="0.98" stroke-width="0.512097" stroke-linecap="round" stroke-linejoin="round"/>
<path id="Vector 1727" d="M10.9263 1.50427V3.29661" stroke="#FFA58E" stroke-opacity="0.98" stroke-width="0.512097" stroke-linecap="round" stroke-linejoin="round"/>
<path id="Rectangle 22" d="M2.2207 5.43036H2.7328H3.2449V11.9169H2.2207V5.43036Z" fill="#C52B10"/>
</g>
</g>
</svg>
