<svg width="21" height="20" viewBox="0 0 21 20" fill="none" xmlns="http://www.w3.org/2000/svg">
<g id="&#208;&#188;&#208;&#190;&#208;&#187;&#208;&#189;&#208;&#184;&#209;&#143;">
<path id="Vector" d="M9.29148 15.1671L13.604 10.0004H10.2706L10.8748 5.27127L7.02065 10.8338H9.91648L9.29148 15.1671ZM7.99981 12.5004H5.41648C5.08315 12.5004 4.83662 12.3511 4.6769 12.0525C4.51717 11.7539 4.53453 11.4657 4.72898 11.1879L10.9581 2.22961C11.097 2.03516 11.2776 1.89974 11.4998 1.82336C11.722 1.74697 11.9512 1.75044 12.1873 1.83377C12.4234 1.91711 12.597 2.06294 12.7081 2.27127C12.8193 2.47961 12.8609 2.70183 12.8331 2.93794L12.1665 8.33377H15.3956C15.7568 8.33377 16.0102 8.49349 16.1561 8.81294C16.3019 9.13238 16.2568 9.43099 16.0206 9.70877L9.16648 17.9171C9.0137 18.0977 8.8262 18.2157 8.60398 18.2713C8.38176 18.3268 8.16648 18.306 7.95815 18.2088C7.74981 18.1116 7.58662 17.9622 7.46856 17.7609C7.35051 17.5595 7.30537 17.3407 7.33315 17.1046L7.99981 12.5004Z" fill="#D9DCE1"/>
</g>
</svg>
