<svg width="147" height="147" viewBox="0 0 147 147" fill="none" xmlns="http://www.w3.org/2000/svg">
<g id="&#209;&#129;&#208;&#178;&#208;&#181;&#209;&#130; &#209;&#132;&#208;&#184;&#208;&#190;&#208;&#187;&#208;&#181;&#209;&#130;&#208;&#190;&#208;&#178;&#209;&#139;&#208;&#185;">
<g id="Vector">
<path d="M13.5784 76.8217C13.0893 68.0013 14.5535 59.1818 17.8665 50.9926L73.4988 73.4993L13.5784 76.8217Z" fill="url(#paint0_radial_1921_38017)"/>
<path d="M133.42 70.1776C133.909 78.998 132.445 87.8176 129.132 96.0067L73.4997 73.5001L133.42 70.1776Z" fill="url(#paint1_radial_1921_38017)"/>
<path d="M76.821 133.42C68.0006 133.909 59.1811 132.445 50.9919 129.132L73.4986 73.4999L76.821 133.42Z" fill="url(#paint2_radial_1921_38017)"/>
<path d="M70.1776 13.5794C78.998 13.0903 87.8176 14.5545 96.0067 17.8675L73.4997 73.5001L70.1776 13.5794Z" fill="url(#paint3_radial_1921_38017)"/>
<path d="M113.521 28.78C120.103 34.6712 125.304 41.9429 128.752 50.0762L73.4997 73.5001L113.521 28.78Z" fill="url(#paint4_radial_1921_38017)"/>
<path d="M118.219 113.52C112.328 120.103 105.057 125.304 96.9234 128.752L73.5 73.4993L118.219 113.52Z" fill="url(#paint5_radial_1921_38017)"/>
<path d="M33.4784 118.219C26.8957 112.328 21.6947 105.056 18.2467 96.9229L73.4988 73.4993L33.4784 118.219Z" fill="url(#paint6_radial_1921_38017)"/>
<path d="M28.7797 33.4785C34.6708 26.8958 41.9425 21.6947 50.0758 18.2468L73.4988 73.4993L28.7797 33.4785Z" fill="url(#paint7_radial_1921_38017)"/>
</g>
</g>
<defs>
<radialGradient id="paint0_radial_1921_38017" cx="0" cy="0" r="1" gradientUnits="userSpaceOnUse" gradientTransform="translate(73.7621 73.7625) rotate(-118.258) scale(54.0273 54.0273)">
<stop stop-color="#9A2CFB"/>
<stop offset="0.23" stop-color="#B92CFB" stop-opacity="0.46"/>
<stop offset="1" stop-color="#AF2CFB" stop-opacity="0"/>
</radialGradient>
<radialGradient id="paint1_radial_1921_38017" cx="0" cy="0" r="1" gradientUnits="userSpaceOnUse" gradientTransform="translate(73.7621 73.7625) rotate(-118.258) scale(54.0273 54.0273)">
<stop stop-color="#9A2CFB"/>
<stop offset="0.23" stop-color="#B92CFB" stop-opacity="0.46"/>
<stop offset="1" stop-color="#AF2CFB" stop-opacity="0"/>
</radialGradient>
<radialGradient id="paint2_radial_1921_38017" cx="0" cy="0" r="1" gradientUnits="userSpaceOnUse" gradientTransform="translate(73.7621 73.7625) rotate(-118.258) scale(54.0273 54.0273)">
<stop stop-color="#9A2CFB"/>
<stop offset="0.23" stop-color="#B92CFB" stop-opacity="0.46"/>
<stop offset="1" stop-color="#AF2CFB" stop-opacity="0"/>
</radialGradient>
<radialGradient id="paint3_radial_1921_38017" cx="0" cy="0" r="1" gradientUnits="userSpaceOnUse" gradientTransform="translate(73.7621 73.7625) rotate(-118.258) scale(54.0273 54.0273)">
<stop stop-color="#9A2CFB"/>
<stop offset="0.23" stop-color="#B92CFB" stop-opacity="0.46"/>
<stop offset="1" stop-color="#AF2CFB" stop-opacity="0"/>
</radialGradient>
<radialGradient id="paint4_radial_1921_38017" cx="0" cy="0" r="1" gradientUnits="userSpaceOnUse" gradientTransform="translate(73.7621 73.7625) rotate(-118.258) scale(54.0273 54.0273)">
<stop stop-color="#9A2CFB"/>
<stop offset="0.23" stop-color="#B92CFB" stop-opacity="0.46"/>
<stop offset="1" stop-color="#AF2CFB" stop-opacity="0"/>
</radialGradient>
<radialGradient id="paint5_radial_1921_38017" cx="0" cy="0" r="1" gradientUnits="userSpaceOnUse" gradientTransform="translate(73.7621 73.7625) rotate(-118.258) scale(54.0273 54.0273)">
<stop stop-color="#9A2CFB"/>
<stop offset="0.23" stop-color="#B92CFB" stop-opacity="0.46"/>
<stop offset="1" stop-color="#AF2CFB" stop-opacity="0"/>
</radialGradient>
<radialGradient id="paint6_radial_1921_38017" cx="0" cy="0" r="1" gradientUnits="userSpaceOnUse" gradientTransform="translate(73.7621 73.7625) rotate(-118.258) scale(54.0273 54.0273)">
<stop stop-color="#9A2CFB"/>
<stop offset="0.23" stop-color="#B92CFB" stop-opacity="0.46"/>
<stop offset="1" stop-color="#AF2CFB" stop-opacity="0"/>
</radialGradient>
<radialGradient id="paint7_radial_1921_38017" cx="0" cy="0" r="1" gradientUnits="userSpaceOnUse" gradientTransform="translate(73.7621 73.7625) rotate(-118.258) scale(54.0273 54.0273)">
<stop stop-color="#9A2CFB"/>
<stop offset="0.23" stop-color="#B92CFB" stop-opacity="0.46"/>
<stop offset="1" stop-color="#AF2CFB" stop-opacity="0"/>
</radialGradient>
</defs>
</svg>
