<svg xmlns="http://www.w3.org/2000/svg" width="23" height="22" viewBox="0 0 23 22" fill="none">
  <path d="M6 20.1679C5.23611 20.1679 4.58681 19.9006 4.05208 19.3658C3.51736 18.8311 3.25 18.1818 3.25 17.4179V16.5013C3.25 15.9971 3.42951 15.5655 3.78854 15.2065C4.14757 14.8474 4.57917 14.6679 5.08333 14.6679H6V3.66793C6 3.16376 6.17951 2.73216 6.53854 2.37314C6.89757 2.01411 7.32917 1.83459 7.83333 1.83459H17.9167C18.4208 1.83459 18.8524 2.01411 19.2115 2.37314C19.5705 2.73216 19.75 3.16376 19.75 3.66793V17.4179C19.75 18.1818 19.4826 18.8311 18.9479 19.3658C18.4132 19.9006 17.7639 20.1679 17 20.1679H6ZM17 18.3346C17.2597 18.3346 17.4774 18.2467 17.6531 18.0711C17.8288 17.8954 17.9167 17.6776 17.9167 17.4179V3.66793H7.83333V14.6679H14.25C14.7542 14.6679 15.1858 14.8474 15.5448 15.2065C15.9038 15.5655 16.0833 15.9971 16.0833 16.5013V17.4179C16.0833 17.6776 16.1712 17.8954 16.3469 18.0711C16.5226 18.2467 16.7403 18.3346 17 18.3346ZM9.66667 8.25126C9.40694 8.25126 9.18924 8.16341 9.01354 7.98772C8.83785 7.81203 8.75 7.59432 8.75 7.33459C8.75 7.07487 8.83785 6.85716 9.01354 6.68147C9.18924 6.50577 9.40694 6.41793 9.66667 6.41793H16.0833C16.3431 6.41793 16.5608 6.50577 16.7365 6.68147C16.9122 6.85716 17 7.07487 17 7.33459C17 7.59432 16.9122 7.81203 16.7365 7.98772C16.5608 8.16341 16.3431 8.25126 16.0833 8.25126H9.66667ZM9.66667 11.0013C9.40694 11.0013 9.18924 10.9134 9.01354 10.7377C8.83785 10.562 8.75 10.3443 8.75 10.0846C8.75 9.82487 8.83785 9.60716 9.01354 9.43147C9.18924 9.25577 9.40694 9.16793 9.66667 9.16793H16.0833C16.3431 9.16793 16.5608 9.25577 16.7365 9.43147C16.9122 9.60716 17 9.82487 17 10.0846C17 10.3443 16.9122 10.562 16.7365 10.7377C16.5608 10.9134 16.3431 11.0013 16.0833 11.0013H9.66667ZM6 18.3346H14.25V16.5013H5.08333V17.4179C5.08333 17.6776 5.17118 17.8954 5.34687 18.0711C5.52257 18.2467 5.74028 18.3346 6 18.3346ZM6 18.3346H5.08333H14.25H6Z" fill="#D9DCE1"/>
</svg>