<svg width="14" height="14" viewBox="0 0 14 14" fill="none" xmlns="http://www.w3.org/2000/svg">
<path d="M3.5 12.8335C3.01389 12.8335 2.60069 12.6634 2.26042 12.3231C1.92014 11.9828 1.75 11.5696 1.75 11.0835V10.5002C1.75 10.1794 1.86424 9.90472 2.09271 9.67624C2.32118 9.44777 2.59583 9.33354 2.91667 9.33354H3.5V2.33354C3.5 2.0127 3.61424 1.73805 3.84271 1.50958C4.07118 1.28111 4.34583 1.16687 4.66667 1.16687H11.0833C11.4042 1.16687 11.6788 1.28111 11.9073 1.50958C12.1358 1.73805 12.25 2.0127 12.25 2.33354V11.0835C12.25 11.5696 12.0799 11.9828 11.7396 12.3231C11.3993 12.6634 10.9861 12.8335 10.5 12.8335H3.5ZM10.5 11.6669C10.6653 11.6669 10.8038 11.611 10.9156 11.4992C11.0274 11.3874 11.0833 11.2488 11.0833 11.0835V2.33354H4.66667V9.33354H8.75C9.07083 9.33354 9.34549 9.44777 9.57396 9.67624C9.80243 9.90472 9.91667 10.1794 9.91667 10.5002V11.0835C9.91667 11.2488 9.97257 11.3874 10.0844 11.4992C10.1962 11.611 10.3347 11.6669 10.5 11.6669ZM5.83333 5.2502C5.66806 5.2502 5.52951 5.1943 5.41771 5.08249C5.3059 4.97069 5.25 4.83215 5.25 4.66687C5.25 4.50159 5.3059 4.36305 5.41771 4.25125C5.52951 4.13944 5.66806 4.08354 5.83333 4.08354H9.91667C10.0819 4.08354 10.2205 4.13944 10.3323 4.25125C10.4441 4.36305 10.5 4.50159 10.5 4.66687C10.5 4.83215 10.4441 4.97069 10.3323 5.08249C10.2205 5.1943 10.0819 5.2502 9.91667 5.2502H5.83333ZM5.83333 7.0002C5.66806 7.0002 5.52951 6.9443 5.41771 6.83249C5.3059 6.72069 5.25 6.58215 5.25 6.41687C5.25 6.25159 5.3059 6.11305 5.41771 6.00125C5.52951 5.88944 5.66806 5.83354 5.83333 5.83354H9.91667C10.0819 5.83354 10.2205 5.88944 10.3323 6.00125C10.4441 6.11305 10.5 6.25159 10.5 6.41687C10.5 6.58215 10.4441 6.72069 10.3323 6.83249C10.2205 6.9443 10.0819 7.0002 9.91667 7.0002H5.83333ZM3.5 11.6669H8.75V10.5002H2.91667V11.0835C2.91667 11.2488 2.97257 11.3874 3.08438 11.4992C3.19618 11.611 3.33472 11.6669 3.5 11.6669ZM3.5 11.6669H2.91667H8.75H3.5Z" fill="#D9DCE1"/>
</svg>
