<svg width="16" height="16" viewBox="0 0 16 16" fill="none" xmlns="http://www.w3.org/2000/svg">
<g opacity="0.2">
<path d="M4 14.6663C3.44444 14.6663 2.97222 14.4719 2.58333 14.083C2.19444 13.6941 2 13.2219 2 12.6663V11.9997C2 11.633 2.13056 11.3191 2.39167 11.058C2.65278 10.7969 2.96667 10.6663 3.33333 10.6663H4V2.66634C4 2.29967 4.13056 1.98579 4.39167 1.72467C4.65278 1.46356 4.96667 1.33301 5.33333 1.33301H12.6667C13.0333 1.33301 13.3472 1.46356 13.6083 1.72467C13.8694 1.98579 14 2.29967 14 2.66634V12.6663C14 13.2219 13.8056 13.6941 13.4167 14.083C13.0278 14.4719 12.5556 14.6663 12 14.6663H4ZM12 13.333C12.1889 13.333 12.3472 13.2691 12.475 13.1413C12.6028 13.0136 12.6667 12.8552 12.6667 12.6663V2.66634H5.33333V10.6663H10C10.3667 10.6663 10.6806 10.7969 10.9417 11.058C11.2028 11.3191 11.3333 11.633 11.3333 11.9997V12.6663C11.3333 12.8552 11.3972 13.0136 11.525 13.1413C11.6528 13.2691 11.8111 13.333 12 13.333ZM6.66667 5.99967C6.47778 5.99967 6.31944 5.93579 6.19167 5.80801C6.06389 5.68023 6 5.5219 6 5.33301C6 5.14412 6.06389 4.98579 6.19167 4.85801C6.31944 4.73023 6.47778 4.66634 6.66667 4.66634H11.3333C11.5222 4.66634 11.6806 4.73023 11.8083 4.85801C11.9361 4.98579 12 5.14412 12 5.33301C12 5.5219 11.9361 5.68023 11.8083 5.80801C11.6806 5.93579 11.5222 5.99967 11.3333 5.99967H6.66667ZM6.66667 7.99967C6.47778 7.99967 6.31944 7.93579 6.19167 7.80801C6.06389 7.68023 6 7.5219 6 7.33301C6 7.14412 6.06389 6.98579 6.19167 6.85801C6.31944 6.73023 6.47778 6.66634 6.66667 6.66634H11.3333C11.5222 6.66634 11.6806 6.73023 11.8083 6.85801C11.9361 6.98579 12 7.14412 12 7.33301C12 7.5219 11.9361 7.68023 11.8083 7.80801C11.6806 7.93579 11.5222 7.99967 11.3333 7.99967H6.66667ZM4 13.333H10V11.9997H3.33333V12.6663C3.33333 12.8552 3.39722 13.0136 3.525 13.1413C3.65278 13.2691 3.81111 13.333 4 13.333ZM4 13.333H3.33333H10H4Z" fill="#D9DCE1"/>
</g>
</svg>
