<svg width="14" height="14" viewBox="0 0 14 14" fill="none" xmlns="http://www.w3.org/2000/svg">
<g clip-path="url(#clip0_707_13619)">
<path d="M3.49992 12.8336C3.17909 12.8336 2.90443 12.7194 2.67596 12.4909C2.44749 12.2624 2.33325 11.9878 2.33325 11.667V5.83362C2.33325 5.51278 2.44749 5.23813 2.67596 5.00966C2.90443 4.78119 3.17909 4.66695 3.49992 4.66695H8.74992V3.50028C8.74992 3.01417 8.57978 2.60098 8.2395 2.2607C7.89922 1.92042 7.48603 1.75028 6.99992 1.75028C6.59159 1.75028 6.23429 1.87424 5.92804 2.12216C5.62179 2.37008 5.4152 2.67876 5.30825 3.0482C5.26936 3.18431 5.18915 3.29369 5.06763 3.37633C4.9461 3.45897 4.81242 3.50028 4.66659 3.50028C4.50131 3.50028 4.36277 3.44681 4.25096 3.33987C4.13915 3.23292 4.09784 3.10653 4.127 2.9607C4.26311 2.28987 4.59853 1.72598 5.13325 1.26903C5.66797 0.81209 6.2902 0.583618 6.99992 0.583618C7.80686 0.583618 8.49471 0.867993 9.06346 1.43674C9.63221 2.00549 9.91659 2.69334 9.91659 3.50028V4.66695H10.4999C10.8208 4.66695 11.0954 4.78119 11.3239 5.00966C11.5524 5.23813 11.6666 5.51278 11.6666 5.83362V11.667C11.6666 11.9878 11.5524 12.2624 11.3239 12.4909C11.0954 12.7194 10.8208 12.8336 10.4999 12.8336H3.49992ZM3.49992 11.667H10.4999V5.83362H3.49992V11.667ZM6.99992 9.91695C7.32075 9.91695 7.59541 9.80272 7.82388 9.57424C8.05235 9.34577 8.16659 9.07112 8.16659 8.75029C8.16659 8.42945 8.05235 8.1548 7.82388 7.92633C7.59541 7.69785 7.32075 7.58362 6.99992 7.58362C6.67909 7.58362 6.40443 7.69785 6.17596 7.92633C5.94749 8.1548 5.83325 8.42945 5.83325 8.75029C5.83325 9.07112 5.94749 9.34577 6.17596 9.57424C6.40443 9.80272 6.67909 9.91695 6.99992 9.91695Z" fill="#CBCEE2"/>
</g>
<defs>
<clipPath id="clip0_707_13619">
<rect width="14" height="14" fill="white" transform="translate(0 0.000244141)"/>
</clipPath>
</defs>
</svg>
