<svg width="44" height="44" viewBox="0 0 44 44" fill="none" xmlns="http://www.w3.org/2000/svg">
<g id="&#208;&#183;&#208;&#176;&#208;&#188;&#208;&#190;&#208;&#186; &#208;&#183;&#208;&#176;&#208;&#186;&#209;&#128;&#209;&#130;">
<path id="Vector" d="M10.9999 40.3336C9.99159 40.3336 9.12839 39.9745 8.41034 39.2565C7.69228 38.5384 7.33325 37.6752 7.33325 36.6669V18.3336C7.33325 17.3252 7.69228 16.462 8.41034 15.744C9.12839 15.0259 9.99159 14.6669 10.9999 14.6669H12.8333V11.0002C12.8333 8.46411 13.727 6.30231 15.5145 4.51481C17.302 2.72731 19.4638 1.83356 21.9999 1.83356C24.536 1.83356 26.6978 2.72731 28.4853 4.51481C30.2728 6.30231 31.1666 8.46411 31.1666 11.0002V14.6669H32.9999C34.0083 14.6669 34.8714 15.0259 35.5895 15.744C36.3076 16.462 36.6666 17.3252 36.6666 18.3336V36.6669C36.6666 37.6752 36.3076 38.5384 35.5895 39.2565C34.8714 39.9745 34.0083 40.3336 32.9999 40.3336H10.9999ZM10.9999 36.6669H32.9999V18.3336H10.9999V36.6669ZM21.9999 31.1669C23.0083 31.1669 23.8714 30.8079 24.5895 30.0898C25.3076 29.3718 25.6666 28.5086 25.6666 27.5002C25.6666 26.4919 25.3076 25.6287 24.5895 24.9106C23.8714 24.1926 23.0083 23.8336 21.9999 23.8336C20.9916 23.8336 20.1284 24.1926 19.4103 24.9106C18.6923 25.6287 18.3333 26.4919 18.3333 27.5002C18.3333 28.5086 18.6923 29.3718 19.4103 30.0898C20.1284 30.8079 20.9916 31.1669 21.9999 31.1669ZM16.4999 14.6669H27.4999V11.0002C27.4999 9.47245 26.9652 8.17384 25.8958 7.10439C24.8263 6.03495 23.5277 5.50022 21.9999 5.50022C20.4721 5.50022 19.1735 6.03495 18.1041 7.10439C17.0346 8.17384 16.4999 9.47245 16.4999 11.0002V14.6669Z" fill="#373A43"/>
</g>
</svg>
