<svg width="120" height="120" viewBox="0 0 120 120" fill="none" xmlns="http://www.w3.org/2000/svg">
<path d="M30 110C27.25 110 24.8958 109.021 22.9375 107.062C20.9792 105.104 20 102.75 20 100V50C20 47.25 20.9792 44.8958 22.9375 42.9375C24.8958 40.9792 27.25 40 30 40H75V30C75 25.8333 73.5417 22.2917 70.625 19.375C67.7083 16.4583 64.1667 15 60 15C56.5 15 53.4375 16.0625 50.8125 18.1875C48.1875 20.3125 46.4167 22.9583 45.5 26.125C45.1667 27.2917 44.4792 28.2292 43.4375 28.9375C42.3958 29.6458 41.25 30 40 30C38.5833 30 37.3958 29.5417 36.4375 28.625C35.4792 27.7083 35.125 26.625 35.375 25.375C36.5417 19.625 39.4167 14.7917 44 10.875C48.5833 6.95833 53.9167 5 60 5C66.9167 5 72.8125 7.4375 77.6875 12.3125C82.5625 17.1875 85 23.0833 85 30V40H90C92.75 40 95.1042 40.9792 97.0625 42.9375C99.0208 44.8958 100 47.25 100 50V100C100 102.75 99.0208 105.104 97.0625 107.062C95.1042 109.021 92.75 110 90 110H30ZM30 100H90V50H30V100ZM60 85C62.75 85 65.1042 84.0208 67.0625 82.0625C69.0208 80.1042 70 77.75 70 75C70 72.25 69.0208 69.8958 67.0625 67.9375C65.1042 65.9792 62.75 65 60 65C57.25 65 54.8958 65.9792 52.9375 67.9375C50.9792 69.8958 50 72.25 50 75C50 77.75 50.9792 80.1042 52.9375 82.0625C54.8958 84.0208 57.25 85 60 85Z" fill="#2F80ED"/>
</svg>
