<svg width="800" height="16" viewBox="0 0 800 16" fill="none" xmlns="http://www.w3.org/2000/svg">
<mask id="mask0_569_28319" style="mask-type:alpha" maskUnits="userSpaceOnUse" x="0" y="0" width="800" height="16">
<rect width="800" height="16" fill="#2F80ED"/>
</mask>
<g mask="url(#mask0_569_28319)">
<rect width="800" height="16" fill="#2F80ED"/>
<rect x="-83.3779" y="95.3379" width="800" height="14" transform="rotate(-60 -83.3779 95.3379)" fill="#2D79DF"/>
<rect x="-51.2539" y="95.3379" width="800" height="14" transform="rotate(-60 -51.2539 95.3379)" fill="#2D79DF"/>
<rect x="-19.1299" y="95.3379" width="800" height="14" transform="rotate(-60 -19.1299 95.3379)" fill="#2D79DF"/>
<rect x="12.9951" y="95.3379" width="800" height="14" transform="rotate(-60 12.9951 95.3379)" fill="#2D79DF"/>
<rect x="45.1191" y="95.3379" width="800" height="14" transform="rotate(-60 45.1191 95.3379)" fill="#2D79DF"/>
<rect x="77.2432" y="95.3379" width="800" height="14" transform="rotate(-60 77.2432 95.3379)" fill="#2D79DF"/>
<rect x="109.368" y="95.3379" width="800" height="14" transform="rotate(-60 109.368 95.3379)" fill="#2D79DF"/>
<rect x="141.492" y="95.3379" width="800" height="14" transform="rotate(-60 141.492 95.3379)" fill="#2D79DF"/>
<rect x="173.616" y="95.3379" width="800" height="14" transform="rotate(-60 173.616 95.3379)" fill="#2D79DF"/>
<rect x="205.74" y="95.3379" width="800" height="14" transform="rotate(-60 205.74 95.3379)" fill="#2D79DF"/>
<rect x="237.864" y="95.3379" width="800" height="14" transform="rotate(-60 237.864 95.3379)" fill="#2D79DF"/>
<rect x="269.988" y="95.3379" width="800" height="14" transform="rotate(-60 269.988 95.3379)" fill="#2D79DF"/>
<rect x="302.112" y="95.3379" width="800" height="14" transform="rotate(-60 302.112 95.3379)" fill="#2D79DF"/>
<rect x="334.236" y="95.3379" width="800" height="14" transform="rotate(-60 334.236 95.3379)" fill="#2D79DF"/>
<rect x="366.36" y="95.3379" width="800" height="14" transform="rotate(-60 366.36 95.3379)" fill="#2D79DF"/>
<rect x="398.484" y="95.3379" width="800" height="14" transform="rotate(-60 398.484 95.3379)" fill="#2D79DF"/>
<rect x="430.608" y="95.3379" width="800" height="14" transform="rotate(-60 430.608 95.3379)" fill="#2D79DF"/>
<rect x="462.732" y="95.3379" width="800" height="14" transform="rotate(-60 462.732 95.3379)" fill="#2D79DF"/>
<rect x="494.856" y="95.3379" width="800" height="14" transform="rotate(-60 494.856 95.3379)" fill="#2D79DF"/>
<rect x="526.98" y="95.3379" width="800" height="14" transform="rotate(-60 526.98 95.3379)" fill="#2D79DF"/>
<rect x="559.104" y="95.3379" width="800" height="14" transform="rotate(-60 559.104 95.3379)" fill="#2D79DF"/>
<rect x="591.228" y="95.3379" width="800" height="14" transform="rotate(-60 591.228 95.3379)" fill="#2D79DF"/>
<rect x="623.352" y="95.3379" width="800" height="14" transform="rotate(-60 623.352 95.3379)" fill="#2D79DF"/>
<rect x="655.476" y="95.3379" width="800" height="14" transform="rotate(-60 655.476 95.3379)" fill="#2D79DF"/>
</g>
</svg>