<svg width="16" height="16" viewBox="0 0 16 16" fill="none" xmlns="http://www.w3.org/2000/svg">
<rect y="0.000244141" width="16" height="16" rx="4" fill="#282830"/>
<g clip-path="url(#clip0_794_21246)">
<mask id="path-2-outside-1_794_21246" maskUnits="userSpaceOnUse" x="4.25" y="2.50024" width="7" height="9" fill="black">
<rect fill="white" x="4.25" y="2.50024" width="7" height="9"/>
<path fill-rule="evenodd" clip-rule="evenodd" d="M9.25 3.50024H10.4643L8.60698 6.75053L10.7497 10.5002H8.49968L8.21396 10.0002H9.24967L7.99984 7.81303L6.75 10.0002H7.78571L7.5 10.5002H5.25L7.39269 6.75053L5.53539 3.50024H6.74968L7.99984 5.68803L9.25 3.50024Z"/>
</mask>
<path fill-rule="evenodd" clip-rule="evenodd" d="M9.25 3.50024H10.4643L8.60698 6.75053L10.7497 10.5002H8.49968L8.21396 10.0002H9.24967L7.99984 7.81303L6.75 10.0002H7.78571L7.5 10.5002H5.25L7.39269 6.75053L5.53539 3.50024H6.74968L7.99984 5.68803L9.25 3.50024Z" fill="#139154"/>
<path d="M10.4643 3.50024L10.6813 3.62428C10.7256 3.5469 10.7252 3.45184 10.6805 3.37476C10.6358 3.29768 10.5534 3.25024 10.4643 3.25024V3.50024ZM9.25 3.50024V3.25024C9.16029 3.25024 9.07745 3.29832 9.03294 3.37621L9.25 3.50024ZM8.60698 6.75053L8.38992 6.62649C8.346 6.70335 8.346 6.79771 8.38992 6.87456L8.60698 6.75053ZM10.7497 10.5002V10.7502C10.8388 10.7502 10.9212 10.7028 10.9659 10.6257C11.0106 10.5486 11.011 10.4536 10.9667 10.3762L10.7497 10.5002ZM8.49968 10.5002L8.28261 10.6243C8.32713 10.7022 8.40996 10.7502 8.49968 10.7502V10.5002ZM8.21396 10.0002V9.75024C8.12484 9.75024 8.04246 9.79768 7.99773 9.87476C7.953 9.95184 7.95269 10.0469 7.9969 10.1243L8.21396 10.0002ZM9.24967 10.0002V10.2502C9.33879 10.2502 9.42117 10.2028 9.4659 10.1257C9.51063 10.0486 9.51095 9.95359 9.46674 9.87621L9.24967 10.0002ZM7.99984 7.81303L8.2169 7.68899C8.17239 7.6111 8.08955 7.56303 7.99984 7.56303C7.91012 7.56303 7.82729 7.6111 7.78278 7.68899L7.99984 7.81303ZM6.75 10.0002L6.53294 9.87621C6.48872 9.95359 6.48904 10.0486 6.53377 10.1257C6.5785 10.2028 6.66088 10.2502 6.75 10.2502V10.0002ZM7.78571 10.0002L8.00278 10.1243C8.04699 10.0469 8.04667 9.95184 8.00194 9.87476C7.95721 9.79768 7.87483 9.75024 7.78571 9.75024V10.0002ZM7.5 10.5002V10.7502C7.58971 10.7502 7.67255 10.7022 7.71706 10.6243L7.5 10.5002ZM5.25 10.5002L5.03294 10.3762C4.98872 10.4536 4.98904 10.5486 5.03377 10.6257C5.0785 10.7028 5.16088 10.7502 5.25 10.7502V10.5002ZM7.39269 6.75053L7.60976 6.87456C7.65367 6.79771 7.65367 6.70335 7.60976 6.62649L7.39269 6.75053ZM5.53539 3.50024V3.25024C5.44627 3.25024 5.36389 3.29768 5.31916 3.37476C5.27443 3.45184 5.27411 3.5469 5.31833 3.62428L5.53539 3.50024ZM6.74968 3.50024L6.96674 3.37621C6.92223 3.29832 6.83939 3.25024 6.74968 3.25024V3.50024ZM7.99984 5.68803L7.78278 5.81206C7.82729 5.88996 7.91012 5.93803 7.99984 5.93803C8.08955 5.93803 8.17239 5.88996 8.2169 5.81206L7.99984 5.68803ZM10.4643 3.25024H9.25V3.75024H10.4643V3.25024ZM8.82404 6.87456L10.6813 3.62428L10.2472 3.37621L8.38992 6.62649L8.82404 6.87456ZM8.38992 6.87456L10.5326 10.6243L10.9667 10.3762L8.82404 6.62649L8.38992 6.87456ZM10.7497 10.2502H8.49968V10.7502H10.7497V10.2502ZM8.71674 10.3762L8.43102 9.87621L7.9969 10.1243L8.28261 10.6243L8.71674 10.3762ZM8.21396 10.2502H9.24967V9.75024H8.21396V10.2502ZM9.46674 9.87621L8.2169 7.68899L7.78278 7.93706L9.03261 10.1243L9.46674 9.87621ZM6.96706 10.1243L8.2169 7.93706L7.78278 7.68899L6.53294 9.87621L6.96706 10.1243ZM7.78571 9.75024H6.75V10.2502H7.78571V9.75024ZM7.71706 10.6243L8.00278 10.1243L7.56865 9.87621L7.28294 10.3762L7.71706 10.6243ZM5.25 10.7502H7.5V10.2502H5.25V10.7502ZM7.17563 6.62649L5.03294 10.3762L5.46706 10.6243L7.60976 6.87456L7.17563 6.62649ZM7.60976 6.62649L5.75245 3.37621L5.31833 3.62428L7.17563 6.87456L7.60976 6.62649ZM5.53539 3.75024H6.74968V3.25024H5.53539V3.75024ZM6.53261 3.62428L7.78278 5.81206L8.2169 5.56399L6.96674 3.37621L6.53261 3.62428ZM9.03294 3.37621L7.78278 5.56399L8.2169 5.81206L9.46706 3.62428L9.03294 3.37621Z" fill="#02532C" mask="url(#path-2-outside-1_794_21246)"/>
<mask id="path-4-outside-2_794_21246" maskUnits="userSpaceOnUse" x="2.25" y="2.00024" width="11" height="6" fill="black">
<rect fill="white" x="2.25" y="2.00024" width="11" height="6"/>
<path fill-rule="evenodd" clip-rule="evenodd" d="M5.5 3.00024H3.25L5.41299 6.78548C5.88485 6.3357 6.47381 6.00767 7.12947 5.85181L5.5 3.00024ZM8.87053 5.85181C9.52619 6.00767 10.1152 6.3357 10.587 6.78548L12.75 3.00024H10.5L8.87053 5.85181Z"/>
</mask>
<path fill-rule="evenodd" clip-rule="evenodd" d="M5.5 3.00024H3.25L5.41299 6.78548C5.88485 6.3357 6.47381 6.00767 7.12947 5.85181L5.5 3.00024ZM8.87053 5.85181C9.52619 6.00767 10.1152 6.3357 10.587 6.78548L12.75 3.00024H10.5L8.87053 5.85181Z" fill="#38C682"/>
<path d="M3.25 3.00024V2.75024C3.16088 2.75024 3.0785 2.79768 3.03377 2.87476C2.98904 2.95184 2.98872 3.0469 3.03294 3.12428L3.25 3.00024ZM5.5 3.00024L5.71706 2.87621C5.67255 2.79832 5.58971 2.75024 5.5 2.75024V3.00024ZM5.41299 6.78548L5.19593 6.90952C5.23407 6.97625 5.30079 7.02174 5.37685 7.03285C5.4529 7.04397 5.52985 7.01947 5.58549 6.96644L5.41299 6.78548ZM7.12947 5.85181L7.18728 6.09503C7.26392 6.07681 7.32749 6.02354 7.35883 5.95126C7.39017 5.87899 7.38561 5.79617 7.34653 5.72778L7.12947 5.85181ZM8.87053 5.85181L8.65347 5.72778C8.61439 5.79617 8.60983 5.87899 8.64117 5.95126C8.67251 6.02354 8.73608 6.07681 8.81272 6.09503L8.87053 5.85181ZM10.587 6.78548L10.4145 6.96644C10.4702 7.01947 10.5471 7.04397 10.6232 7.03285C10.6992 7.02174 10.7659 6.97625 10.8041 6.90952L10.587 6.78548ZM12.75 3.00024L12.9671 3.12428C13.0113 3.0469 13.011 2.95184 12.9662 2.87476C12.9215 2.79768 12.8391 2.75024 12.75 2.75024V3.00024ZM10.5 3.00024V2.75024C10.4103 2.75024 10.3274 2.79832 10.2829 2.87621L10.5 3.00024ZM3.25 3.25024H5.5V2.75024H3.25V3.25024ZM5.63005 6.66145L3.46706 2.87621L3.03294 3.12428L5.19593 6.90952L5.63005 6.66145ZM5.58549 6.96644C6.02614 6.5464 6.5758 6.24039 7.18728 6.09503L7.07165 5.60859C6.37181 5.77495 5.74356 6.12499 5.2405 6.60452L5.58549 6.96644ZM5.28294 3.12428L6.91241 5.97584L7.34653 5.72778L5.71706 2.87621L5.28294 3.12428ZM8.81272 6.09503C9.4242 6.24039 9.97386 6.5464 10.4145 6.96644L10.7595 6.60452C10.2564 6.12499 9.62819 5.77495 8.92835 5.60859L8.81272 6.09503ZM12.5329 2.87621L10.3699 6.66145L10.8041 6.90952L12.9671 3.12428L12.5329 2.87621ZM10.5 3.25024H12.75V2.75024H10.5V3.25024ZM9.08759 5.97584L10.7171 3.12428L10.2829 2.87621L8.65347 5.72778L9.08759 5.97584Z" fill="#02532C" mask="url(#path-4-outside-2_794_21246)"/>
<path d="M3.625 3.25024L5.4375 6.37524" stroke="#4EE99E" stroke-width="0.25" stroke-linecap="round" stroke-linejoin="round"/>
<path d="M10.625 3.25024L9.1875 5.75024" stroke="#4EE99E" stroke-width="0.25" stroke-linecap="round" stroke-linejoin="round"/>
<circle cx="8" cy="9.50024" r="3.625" fill="#C27C3B" stroke="#672001" stroke-width="0.25" stroke-linejoin="round"/>
<circle cx="8" cy="9.50024" r="2.875" fill="#FCCA9B"/>
<circle cx="9.58512" cy="11.8057" r="0.25" transform="rotate(-8.26953 9.58512 11.8057)" fill="#F2B275"/>
<circle cx="9.49488" cy="11.0766" r="0.234577" transform="rotate(-8.26953 9.49488 11.0766)" fill="#F2B275"/>
<circle cx="10.5875" cy="10.3375" r="0.1875" transform="rotate(-8.26953 10.5875 10.3375)" fill="#F2B275"/>
<circle cx="8.24234" cy="12.1267" r="0.25" transform="rotate(-8.26953 8.24234 12.1267)" fill="#F2B275"/>
<circle cx="10.1805" cy="10.8593" r="0.225622" transform="rotate(-8.26953 10.1805 10.8593)" fill="#F2B275"/>
<circle cx="10.1417" cy="10.0164" r="0.125" transform="rotate(-8.26953 10.1417 10.0164)" fill="#F2B275"/>
<circle cx="8.64168" cy="11.6414" r="0.125" transform="rotate(-8.26953 8.64168 11.6414)" fill="#F2B275"/>
<circle cx="10.2911" cy="11.45" r="0.125" transform="rotate(-8.26953 10.2911 11.45)" fill="#F2B275"/>
<circle cx="8.89168" cy="12.0164" r="0.125" transform="rotate(-8.26953 8.89168 12.0164)" fill="#F2B275"/>
<circle cx="7.51863" cy="12.3582" r="0.125" transform="rotate(-8.26953 7.51863 12.3582)" fill="#F2B275"/>
<circle cx="8" cy="9.50024" r="3" stroke="#A55833" stroke-width="0.25" stroke-linejoin="round"/>
<path d="M4.75 9.50024C4.75 7.70532 6.20507 6.25024 8 6.25024" stroke="#EC9F58" stroke-width="0.25" stroke-linecap="round" stroke-linejoin="round"/>
<circle cx="8" cy="9.50024" r="2.25" fill="#F6B981" stroke="#A55833" stroke-width="0.25"/>
<path d="M6 9.50024C6 8.39567 6.89543 7.50024 8 7.50024" stroke="#FFEFDF" stroke-width="0.25" stroke-linecap="round" stroke-linejoin="round"/>
<path d="M6.72517 9.07773C6.68019 9.08685 6.64383 9.11988 6.63044 9.16378C6.61705 9.20768 6.62879 9.25538 6.66103 9.28805L7.23955 9.87428L7.09612 10.601C7.08686 10.6479 7.10516 10.696 7.14327 10.7249C7.18137 10.7537 7.2326 10.7584 7.27525 10.7367L8 10.3695L8.72475 10.7367C8.7674 10.7584 8.81863 10.7537 8.85673 10.7249C8.89484 10.696 8.91314 10.6479 8.90388 10.601L8.76045 9.87428L9.33897 9.28805C9.37121 9.25538 9.38295 9.20768 9.36956 9.16378C9.35617 9.11988 9.31981 9.08685 9.27483 9.07773L8.54801 8.93043L8.10756 8.18656C8.08506 8.14855 8.04417 8.12524 8 8.12524C7.95583 8.12524 7.91494 8.14855 7.89244 8.18656L7.65807 8.58239L7.45199 8.93043L6.72517 9.07773Z" fill="#FFD2B1" stroke="#964F2E" stroke-width="0.25" stroke-linecap="round" stroke-linejoin="round"/>
<circle cx="11.5" cy="3.50024" r="0.125" fill="#1DAE69"/>
<circle cx="12" cy="3.50024" r="0.125" fill="#1DAE69"/>
<circle cx="11.375" cy="4.75024" r="0.125" fill="#1DAE69"/>
<circle cx="10.875" cy="5.50024" r="0.125" fill="#1DAE69"/>
<circle cx="11" cy="3.87524" r="0.125" fill="#1DAE69"/>
<circle cx="11.4375" cy="4.18774" r="0.1875" fill="#1DAE69"/>
<circle cx="10.9375" cy="4.81274" r="0.1875" fill="#1DAE69"/>
</g>
<defs>
<clipPath id="clip0_794_21246">
<rect width="12" height="12" fill="white" transform="translate(2 2.00024)"/>
</clipPath>
</defs>
</svg>
