<svg width="38" height="32" viewBox="0 0 38 32" fill="none" xmlns="http://www.w3.org/2000/svg">
<g id="Group">
<g id="Group_2">
<g id="Group_3">
<path id="Vector" d="M11.6476 32.6379L4.60049 38.7256C3.91615 39.2974 2.91052 39.2262 2.33876 38.5418C1.767 37.8575 1.83943 36.8204 2.52378 36.2486L9.60238 30.1622C10.2867 29.5904 11.2924 29.6616 11.8641 30.3459C12.4044 31.029 12.332 32.0661 11.6476 32.6379Z" fill="#CD9A7E"/>
<path id="Vector_2" d="M22.974 32.2982L30.2441 38.1314C30.9467 38.6949 31.9283 38.5761 32.4918 37.8735C33.0238 37.1696 32.9062 36.1566 32.235 35.5944L24.9649 29.7611C24.2623 29.1977 23.2807 29.3165 22.7173 30.0191C22.1538 30.7217 22.2714 31.7347 22.974 32.2982Z" fill="#CD9A7E"/>
<path id="Vector_3" d="M28.9867 30.8632C28.9867 30.8632 24.2612 26.8321 22.5165 26.3221C21.8015 26.0733 20.7934 26.065 20.7934 26.065L23.1749 33.5962L25.221 35.2526C25.221 35.2526 26.4796 35.3023 27.9348 33.5634C29.4554 31.7641 28.9867 30.8632 28.9867 30.8632Z" fill="#3876BA"/>
<path id="Vector_4" d="M6.49781 33.7595C7.97378 35.488 9.23734 35.4118 9.23734 35.4118L10.9873 34.1888L13.9834 26.1449C13.9834 26.1449 12.2793 26.2038 11.8943 26.3777C10.1389 26.9387 5.43913 31.0391 5.43913 31.0391C5.43913 31.0391 4.93116 31.933 6.49781 33.7595Z" fill="#3876BA"/>
<path id="Vector_5" d="M15.5455 20.0913C15.6083 20.0938 15.6737 20.0334 15.6761 19.9706C15.6786 19.9077 15.6183 19.8424 15.5554 19.8399C15.4925 19.8374 15.4272 19.8978 15.4247 19.9607C15.421 20.0549 15.4512 20.0876 15.5455 20.0913Z" fill="#4D392F"/>
<path id="Vector_6" d="M19.455 20.0585C19.5179 20.0609 19.5832 20.0006 19.5857 19.9377C19.5882 19.8749 19.5278 19.8095 19.4649 19.807C19.4021 19.8046 19.3368 19.8649 19.3343 19.9278C19.2991 20.0208 19.3607 20.0547 19.455 20.0585Z" fill="#4D392F"/>
<path id="Vector_7" d="M20.3565 26.7731L14.6503 26.8316L14.9512 22.4L19.9942 22.3784L20.3565 26.7731Z" fill="#CD9A7E"/>
<path id="Vector_8" d="M20.1913 24.5619C20.1913 24.5619 19.2631 25.7228 17.4344 25.7452C15.1325 25.7804 14.7077 24.5662 14.7077 24.5662L14.9275 21.3919L19.9705 21.3703L20.1913 24.5619Z" fill="#A67F6A"/>
<path id="Vector_9" d="M17.762 24.6262L16.9426 24.6254C12.6875 24.6466 9.17161 21.1044 9.15414 16.7548L9.13375 11.6803C9.11628 7.33069 12.5968 3.78091 16.852 3.75971L17.6713 3.76052C21.9265 3.73932 25.4423 7.28151 25.4598 11.6311L25.4802 16.7056C25.4976 21.0552 22.0171 24.605 17.762 24.6262Z" fill="#CD9A7E"/>
<g id="Eyes/Side">
<path id="Eye" fill-rule="evenodd" clip-rule="evenodd" d="M13.4819 13.5C13.9542 13.5 14.4108 13.6957 14.6974 14.0276C14.798 14.1281 14.8758 14.2561 14.9208 14.4009C14.9276 14.4184 14.9338 14.4362 14.9397 14.4543C14.9523 14.4934 14.9574 14.5307 14.9564 14.5637C14.9617 14.6054 14.9645 14.6481 14.9645 14.6915C14.9645 15.185 14.6026 15.5851 14.156 15.5851C13.7095 15.5851 13.3475 15.185 13.3475 14.6915C13.3475 14.4867 13.4099 14.298 13.5147 14.1473C13.5038 14.147 13.4929 14.147 13.4819 14.147C12.9779 14.147 12.522 14.3309 12.1937 14.6277C12.0737 14.7362 11.9488 14.6257 12.0216 14.4602C12.2704 13.8945 12.8307 13.5 13.4819 13.5Z" fill="black" fill-opacity="0.75"/>
<path id="Eye_2" fill-rule="evenodd" clip-rule="evenodd" d="M21.5171 13.5C21.9894 13.5 22.446 13.6957 22.7326 14.0276C22.8332 14.1281 22.9109 14.2561 22.956 14.4009C22.9627 14.4184 22.969 14.4362 22.9748 14.4543C22.9875 14.4934 22.9926 14.5307 22.9916 14.5637C22.9969 14.6054 22.9997 14.6481 22.9997 14.6915C22.9997 15.185 22.6377 15.5851 22.1912 15.5851C21.7447 15.5851 21.3827 15.185 21.3827 14.6915C21.3827 14.4867 21.445 14.298 21.5499 14.1473C21.539 14.147 21.5281 14.147 21.5171 14.147C21.0131 14.147 20.5572 14.3309 20.2289 14.6277C20.1088 14.7362 19.984 14.6257 20.0567 14.4602C20.3056 13.8945 20.8658 13.5 21.5171 13.5Z" fill="black" fill-opacity="0.75"/>
</g>
<path id="Vector_10" d="M9.17378 17.068L8.95353 17.0593C8.51178 17.0734 8.1491 16.6809 8.13501 16.2391L8.12709 13.245C8.113 12.8033 8.47525 12.4079 8.91576 12.4253L9.13601 12.434C9.57776 12.4199 9.94044 12.8123 9.95452 13.2541L9.96245 16.2482C9.97653 16.6899 9.61428 17.0853 9.17378 17.068Z" fill="#CD9A7E"/>
<path id="Vector_11" d="M25.8154 16.9976L25.5951 16.9889C25.1534 17.003 24.7907 16.6106 24.7766 16.1688L24.7687 13.1747C24.7546 12.733 25.1169 12.3376 25.5574 12.3549L25.7776 12.3636C26.2194 12.3496 26.582 12.742 26.5961 13.1838L26.6041 16.1779C26.6181 16.6196 26.2571 16.9836 25.8154 16.9976Z" fill="#CD9A7E"/>
<path id="Vector_12" d="M17.5463 17.336C18.0195 17.3232 18.4335 17.2135 18.6864 17.1919C18.8135 17.1654 18.903 17.295 18.8678 17.3882C18.7245 17.8237 18.176 18.1487 17.514 18.1541C16.8834 18.1608 16.3282 17.8552 16.1556 17.4387C16.0976 17.3104 16.197 17.1883 16.3216 17.2247C16.5721 17.2661 17.1045 17.3501 17.5463 17.336Z" fill="#A67F6A"/>
<path id="Vector_13" d="M11.4777 12.9646C11.4777 12.9646 13.1685 11.6447 14.9612 12.5348" stroke="#49372E" stroke-width="0.40936" stroke-miterlimit="10" stroke-linecap="round"/>
<path id="Vector_14" d="M23.2027 12.9273C23.2027 12.9273 21.5205 11.6319 19.72 12.5378" stroke="#49372E" stroke-width="0.40936" stroke-miterlimit="10" stroke-linecap="round"/>
<path id="Vector_15" d="M19.3333 19.9586C19.3349 20.715 18.4593 21.3423 17.3883 21.3315C16.3172 21.3208 15.4573 20.7511 15.4242 19.9935" stroke="#49372E" stroke-width="0.40936" stroke-miterlimit="10" stroke-linecap="round"/>
<path id="Vector_16" d="M20.8773 26.3518L21.4499 26.2169C21.4764 28.739 19.7294 30.687 17.2387 30.7147C14.748 30.7425 13.5916 28.9006 13.5336 26.3772L20.8773 26.3518Z" fill="#CD9A7E"/>
<g id="Group_4">
<g id="Group_5">
<g id="Clip path group">
<mask id="mask0_927_21898" style="mask-type:luminance" maskUnits="userSpaceOnUse" x="7" y="0" width="21" height="16">
<g id="SVGID_00000097499313157666003560000006415302287692535479_">
<path id="Vector_17" d="M27.2957 0.938188L7.61592 1.02447L7.67721 15.005L27.357 14.9187L27.2957 0.938188Z" fill="white"/>
</g>
</mask>
<g mask="url(#mask0_927_21898)">
<g id="Group_6">
<path id="Vector_18" fill-rule="evenodd" clip-rule="evenodd" d="M22.647 7.0129C22.647 7.0129 21.6601 8.86478 18.796 9.57114C18.4776 9.65312 18.2722 9.26685 18.5024 9.02382C18.8974 8.59821 19.359 8.08069 19.6004 7.55448C19.6004 7.55448 17.4326 8.98162 15.4483 9.7542C13.2789 10.4249 12.0601 11.7634 11.5256 12.5302C11.3596 12.7442 11.016 12.6677 10.963 12.4135C10.8607 11.8107 10.7998 10.9574 11.2751 10.0938C11.2751 10.0938 9.42077 11.5648 9.30657 14.4595C9.29663 14.7112 8.97826 14.7932 8.86109 14.568C8.09267 13.2771 6.82118 10.3592 8.61047 7.34148L8.57777 7.37171C8.34758 7.61473 7.9787 7.37959 8.05404 7.06742C8.38564 5.85147 9.31464 3.87125 11.7693 2.36089C15.5475 0.0518905 18.949 1.69875 18.949 1.69875C18.8004 1.47229 19.0016 1.16509 19.252 1.20649C20.4415 1.41098 22.9314 2.20252 23.7586 5.19745C23.7586 5.19745 24.0178 5.01858 24.3614 5.09517C24.5804 5.13532 24.6322 5.42099 24.4686 5.5721C24.4686 5.5721 27.1937 5.99476 27.1983 9.87113C27.2083 12.0145 25.8098 13.9131 25.1797 14.7076C25.0464 14.8914 24.7984 14.7871 24.7429 14.5958C24.6936 14.2472 24.5839 13.8332 24.3761 13.5099C23.9591 12.8947 22.8902 12.0332 23.1977 10.6272L23.0446 11.3144C22.9705 11.5951 22.5904 11.6432 22.4745 11.3865C22.0977 10.5523 21.5934 8.95669 22.647 7.0129Z" fill="#5E4947"/>
</g>
</g>
</g>
</g>
</g>
<path id="Vector_19" fill-rule="evenodd" clip-rule="evenodd" d="M14.1139 26.0535L13.9566 26.0473C12.5697 26.0556 11.3922 27.1437 11.3037 28.5898L10.3481 46.4204C10.3444 46.5148 10.3419 46.5777 10.3382 46.6721C10.3349 47.5543 10.2115 47.4864 10.8093 47.51L23.2991 44.8514C23.7785 44.6813 23.8 44.9342 23.7719 44.0507C23.7756 43.9563 23.7781 43.8934 23.7503 43.7978L22.9945 28.6099C22.9257 27.1575 22.243 26.0906 20.8246 26.0977L20.7302 26.094C20.1456 27.3315 18.8825 28.1955 17.4327 28.2013C15.9828 28.2072 14.7263 27.3067 14.1139 26.0535Z" fill="#3876BA"/>
</g>
</g>
</g>
</svg>
