<svg width="14" height="14" viewBox="0 0 14 14" fill="none" xmlns="http://www.w3.org/2000/svg">
    <path d="M5.50542 13.4027C8.89141 14.2939 12.3901 12.2326 13.3245 8.80675C14.259 5.38092 12.2783 1.8774 8.89236 0.986186C5.50638 0.0949733 2.00773 2.1563 1.07324 5.58212C0.13875 9.00795 2.11944 12.5115 5.50542 13.4027Z" fill="#023BA5" stroke="#093A7A" stroke-width="0.389545"/>
    <path d="M5.10821 13.0138C8.49419 13.905 11.9928 11.8437 12.9273 8.41786C13.8618 4.99204 11.8811 1.48851 8.49515 0.597301C5.10916 -0.293912 1.61051 1.76741 0.676021 5.19324C-0.258467 8.61906 1.72222 12.1226 5.10821 13.0138Z" fill="#2369FF" stroke="#093A7A" stroke-width="0.389545"/>
    <path d="M5.41643 11.8851C8.16907 12.6096 11.0144 10.9165 11.7785 8.11548C12.5426 5.31442 10.9402 2.45071 8.18754 1.7262C5.43491 1.00169 2.58956 2.69473 1.82549 5.49579C1.06142 8.29685 2.6638 11.1606 5.41643 11.8851Z" stroke="#1234DF" stroke-width="0.389545"/>
    <path fill-rule="evenodd" clip-rule="evenodd" d="M10.4817 3.33655C9.93706 2.86001 9.27845 2.49986 8.53246 2.30351C5.88804 1.60748 3.14693 3.23325 2.41002 5.93477C1.93436 7.67852 2.40999 9.44425 3.51817 10.6643C2.13222 9.45151 1.4845 7.48492 2.01353 5.5455C2.75045 2.84398 5.49156 1.21822 8.13597 1.91424C9.07349 2.161 9.873 2.66646 10.4817 3.33655Z" fill="#65ADFF"/>
    <ellipse cx="0.280557" cy="0.277624" rx="0.280557" ry="0.277624" transform="matrix(0.983645 -0.195757 0.20139 0.976442 8.73755 9.72333)" fill="#2156DC"/>
    <ellipse cx="0.280557" cy="0.277624" rx="0.280557" ry="0.277624" transform="matrix(0.983645 -0.195757 0.20139 0.976442 10.0986 8.88708)" fill="#2156DC"/>
    <ellipse cx="0.280557" cy="0.277624" rx="0.280557" ry="0.277624" transform="matrix(0.983645 -0.195757 0.20139 0.976442 8.78687 8.47351)" fill="#2156DC"/>
    <ellipse cx="0.195388" cy="0.193345" rx="0.195388" ry="0.193345" transform="matrix(0.983645 -0.195757 0.20139 0.976442 9.43848 9.0481)" fill="#2156DC"/>
    <ellipse cx="0.195388" cy="0.193345" rx="0.195388" ry="0.193345" transform="matrix(0.983645 -0.195757 0.20139 0.976442 9.55859 8.20917)" fill="#2156DC"/>
    <ellipse cx="0.195388" cy="0.193345" rx="0.195388" ry="0.193345" transform="matrix(0.983645 -0.195757 0.20139 0.976442 10.4739 8.22324)" fill="#2156DC"/>
    <ellipse cx="0.195388" cy="0.193345" rx="0.195388" ry="0.193345" transform="matrix(0.983645 -0.195757 0.20139 0.976442 10.8643 7.07669)" fill="#2156DC"/>
    <ellipse cx="0.195388" cy="0.193345" rx="0.195388" ry="0.193345" transform="matrix(0.983645 -0.195757 0.20139 0.976442 10.0918 7.70978)" fill="#2156DC"/>
    <ellipse cx="0.195388" cy="0.193345" rx="0.195388" ry="0.193345" transform="matrix(0.983645 -0.195757 0.20139 0.976442 9.79541 9.65839)" fill="#2156DC"/>
    <ellipse cx="0.180576" cy="0.178688" rx="0.180576" ry="0.178688" transform="matrix(0.983645 -0.195757 0.20139 0.976442 8.69727 10.5752)" fill="#2156DC"/>
    <ellipse cx="0.110488" cy="0.109333" rx="0.110488" ry="0.109333" transform="matrix(0.983645 -0.195757 0.20139 0.976442 9.37622 10.2402)" fill="#2156DC"/>
    <ellipse cx="0.150298" cy="0.148727" rx="0.150298" ry="0.148727" transform="matrix(0.983645 -0.195757 0.20139 0.976442 8.73145 9.17496)" fill="#2156DC"/>
    <ellipse cx="0.150298" cy="0.148727" rx="0.150298" ry="0.148727" transform="matrix(0.983645 -0.195757 0.20139 0.976442 10.3872 7.15189)" fill="#2156DC"/>
    <ellipse cx="0.150298" cy="0.148727" rx="0.150298" ry="0.148727" transform="matrix(0.983645 -0.195757 0.20139 0.976442 10.7017 7.78461)" fill="#2156DC"/>
    <ellipse cx="0.150298" cy="0.148727" rx="0.150298" ry="0.148727" transform="matrix(0.983645 -0.195757 0.20139 0.976442 8.30151 10.1525)" fill="#2156DC"/>
    <ellipse cx="0.150298" cy="0.148727" rx="0.150298" ry="0.148727" transform="matrix(0.983645 -0.195757 0.20139 0.976442 8.01978 10.9739)" fill="#2156DC"/>
    <path d="M5.41333 1.17194C3.57152 1.67128 2.08797 3.01887 1.42565 4.75995" stroke="#79B3FF" stroke-width="0.389545" stroke-linecap="round" stroke-linejoin="round"/>
    <path d="M9.89233 11.674C10.5916 11.2173 11.1869 10.6191 11.6358 9.92108" stroke="#79B3FF" stroke-width="0.389545" stroke-linecap="round" stroke-linejoin="round"/>
    <path d="M3.43111 2.13116C3.43111 2.13116 2.83626 2.52071 2.4397 3.10503" stroke="#D7D2FF" stroke-width="0.389545" stroke-linecap="round" stroke-linejoin="round"/>
    <path d="M4.22408 3.10413C4.22408 3.10413 3.62923 3.49367 3.23267 4.07799" stroke="white" stroke-width="0.389545" stroke-linecap="round" stroke-linejoin="round"/>
    <path d="M7.36552 5.06002C7.119 4.99513 6.92558 4.84952 6.79657 4.63115L7.36552 5.06002ZM7.36552 5.06002C7.61205 5.12491 7.85368 5.0938 8.07656 4.96805L7.36552 5.06002ZM5.90447 5.76453L4.23309 5.32461C4.0985 5.28918 3.9869 5.20955 3.91482 5.08736M5.90447 5.76453L10.534 6.06708C10.4619 5.94496 10.3503 5.86537 10.2158 5.82995L4.50524 4.32691C4.37077 4.29151 4.23369 4.30557 4.10912 4.37582M5.90447 5.76453L4.7622 9.95211C4.72525 10.0876 4.74092 10.2243 4.81313 10.3467C4.88521 10.4689 4.9968 10.5485 5.1314 10.584C5.26583 10.6193 5.4029 10.6053 5.52749 10.5351C5.52757 10.5351 5.52765 10.535 5.52773 10.535L5.4115 10.3289M5.90447 5.76453L5.4115 10.3289M3.91482 5.08736L4.12045 4.96611M3.91482 5.08736C3.91485 5.0874 3.91487 5.08744 3.91489 5.08748L4.12045 4.96611M3.91482 5.08736C3.84257 4.96499 3.82675 4.82819 3.86373 4.69263C3.90072 4.55705 3.98405 4.44625 4.10912 4.37582M4.12045 4.96611C4.15914 5.0317 4.21754 5.07478 4.29563 5.09533L6.0297 5.55175C6.12201 5.57604 6.17648 5.6704 6.15136 5.76249L4.99202 10.0126C4.97119 10.089 4.9801 10.1599 5.01875 10.2254C5.05745 10.291 5.11584 10.3341 5.19394 10.3547C5.27209 10.3752 5.34461 10.3667 5.4115 10.3289M4.12045 4.96611L5.4115 10.3289M4.10912 4.37582C4.10908 4.37585 4.10904 4.37587 4.109 4.37589L4.22523 4.58196L4.10924 4.37576C4.1092 4.37578 4.10916 4.3758 4.10912 4.37582ZM6.70072 3.92815C6.63381 4.17342 6.66737 4.41254 6.79654 4.63111L7.25774 3.57251L7.14156 3.36642C7.14153 3.36643 7.14149 3.36645 7.14146 3.36647C6.91837 3.49232 6.76761 3.68291 6.70072 3.92815Z" fill="white" stroke="#023BA5" stroke-width="0.475311"/>
</svg>
