<svg width="42" height="40" viewBox="0 0 42 40" fill="none" xmlns="http://www.w3.org/2000/svg">
<path d="M11.2957 7.97267C11.221 5.63389 10.7629 3.42869 10.3929 2.19561C10.2746 1.80117 10.4211 1.37522 10.7571 1.13705C11.093 0.898877 11.5434 0.901595 11.8765 1.1438C11.9409 1.19069 12.0917 1.27561 12.4067 1.44808L12.4471 1.47018C13.5731 2.08638 15.8842 3.35121 17.3045 5.68927C18.7167 5.41957 20.2385 5.27848 21.8677 5.27848C27.471 5.27848 31.8055 6.95041 34.7456 9.76025C37.6859 12.5703 39.1405 16.4325 39.1405 20.6321C39.1405 24.6214 37.4317 28.2351 34.6649 30.9465L36.03 32.2467C36.9894 33.1605 37.0264 34.679 36.1126 35.6384C35.9674 35.7909 35.8069 35.9201 35.6357 36.0259C35.4217 36.6725 34.9787 37.246 34.3425 37.6133C32.9656 38.4083 31.2049 37.9365 30.41 36.5596L29.2347 34.524C26.9969 35.4627 24.4987 35.9857 21.8677 35.9857C20.1478 35.9857 18.5474 35.8284 17.0696 35.5286C17.0574 36.8431 15.988 37.9049 14.6707 37.9049C14.3923 37.9049 14.125 37.8575 13.8764 37.7703C13.0733 38.1105 12.1257 38.0831 11.3121 37.6133C9.93516 36.8184 9.46339 35.0577 10.2584 33.6808L10.707 32.9037C8.00912 31.0324 6.19597 28.4293 5.28464 25.4301H4.59487C3.00495 25.4301 1.71606 24.1412 1.71606 22.5513V18.7129C1.71606 17.123 3.00495 15.8341 4.59487 15.8341H5.28464C6.26108 12.6206 8.27243 9.86307 11.2957 7.97267Z" fill="#021024" fill-opacity="0.1"/>
<path d="M27.5572 29.4336C26.9815 28.8853 26.9594 27.9742 27.5076 27.3986V27.3986C28.0559 26.8229 28.967 26.8008 29.5426 27.349L34.4066 31.9818C34.9822 32.5301 35.0044 33.4412 34.4561 34.0168V34.0168C33.9079 34.5925 32.9968 34.6147 32.4211 34.0664L27.5572 29.4336Z" fill="#384DB5"/>
<path fill-rule="evenodd" clip-rule="evenodd" d="M30.2059 26.6534L35.0699 31.2862C36.0293 32.2 36.0662 33.7185 35.1524 34.6779C34.2387 35.6373 32.7201 35.6742 31.7608 34.7604L26.8968 30.1277C25.9374 29.2139 25.9004 27.6953 26.8142 26.736C27.728 25.7766 29.2465 25.7396 30.2059 26.6534ZM27.5091 27.3978C26.9608 27.9734 26.983 28.8845 27.5586 29.4328L32.4226 34.0656C32.9982 34.6139 33.9093 34.5917 34.4576 34.0161C35.0059 33.4404 34.9837 32.5293 34.4081 31.981L29.5441 27.3482C28.9685 26.8 28.0574 26.8221 27.5091 27.3978Z" fill="#282185"/>
<path d="M12.2705 27.8288C12.2705 27.0338 12.9149 26.3894 13.7099 26.3894V26.3894C14.5049 26.3894 15.1493 27.0338 15.1493 27.8288V34.546C15.1493 35.341 14.5049 35.9854 13.7099 35.9854V35.9854C12.9149 35.9854 12.2705 35.341 12.2705 34.546V27.8288Z" fill="#384DB5"/>
<path fill-rule="evenodd" clip-rule="evenodd" d="M16.1095 27.8284V34.5456C16.1095 35.8706 15.0355 36.9446 13.7105 36.9446C12.3856 36.9446 11.3115 35.8706 11.3115 34.5456V27.8284C11.3115 26.5035 12.3856 25.4294 13.7105 25.4294C15.0355 25.4294 16.1095 26.5035 16.1095 27.8284ZM13.7105 26.389C12.9156 26.389 12.2711 27.0335 12.2711 27.8284V34.5456C12.2711 35.3406 12.9156 35.985 13.7105 35.985C14.5055 35.985 15.1499 35.3406 15.1499 34.5456V27.8284C15.1499 27.0335 14.5055 26.389 13.7105 26.389Z" fill="#282185"/>
<path fill-rule="evenodd" clip-rule="evenodd" d="M15.8437 5.81428C14.6238 3.32284 12.2114 2.0021 10.9841 1.33019C10.6989 1.17401 10.4776 1.05289 10.3503 0.960266C10.7707 2.36162 11.2893 4.90901 11.3037 7.55045C8.00844 9.44143 5.91906 12.3769 5.0525 15.8341H3.63307C2.57312 15.8341 1.71387 16.6933 1.71387 17.7533V21.5917C1.71387 22.6516 2.57312 23.5109 3.63307 23.5109H5.0525C5.895 26.872 7.89335 29.7401 11.032 31.6346L10.1276 33.201C9.59762 34.1189 9.91213 35.2927 10.8301 35.8227C11.748 36.3527 12.9218 36.0381 13.4517 35.1202L14.5654 33.1914C16.4221 33.7575 18.5362 34.0665 20.9059 34.0665C23.7169 34.0665 26.3619 33.4391 28.6708 32.3344L30.2792 35.1202C30.8092 36.0382 31.9829 36.3527 32.9009 35.8227C33.8188 35.2927 34.1333 34.119 33.6033 33.201L31.922 30.2889C35.1777 27.6574 37.2191 23.8753 37.2191 19.6725C37.2191 11.7229 31.728 5.27848 20.9059 5.27848C19.0637 5.27848 17.3761 5.4652 15.8437 5.81428Z" fill="#557BCF"/>
<path fill-rule="evenodd" clip-rule="evenodd" d="M11.5248 1.62957C12.8256 2.36915 14.7847 3.64993 15.8443 5.81386C17.3767 5.46478 19.0644 5.27805 20.9065 5.27805C31.7286 5.27805 37.2197 11.7225 37.2197 19.6721C37.2197 23.8749 35.1783 27.657 31.9227 30.2885L33.604 33.2006C34.1339 34.1185 33.8194 35.2923 32.9015 35.8223C31.9835 36.3522 30.8098 36.0377 30.2798 35.1198L28.6714 32.334C26.3625 33.4387 23.7175 34.0661 20.9065 34.0661C18.5368 34.0661 16.4228 33.7571 14.566 33.191L13.4524 35.1198C12.9224 36.0377 11.7486 36.3522 10.8307 35.8223C9.91275 35.2923 9.59824 34.1185 10.1282 33.2006L11.0326 31.6342C7.89396 29.7397 5.89562 26.8716 5.05311 23.5105H3.63368C2.57374 23.5105 1.71448 22.6512 1.71448 21.5913V17.7529C1.71448 16.6929 2.57374 15.8337 3.63368 15.8337H5.05311C5.91968 12.3765 8.00906 9.44101 11.3043 7.55003C11.2937 5.59266 11.0061 3.68692 10.6868 2.2609C10.666 2.16802 10.6451 2.07718 10.6241 1.98849C10.5324 1.60129 10.4395 1.25513 10.3509 0.959845C10.4782 1.05247 10.6995 1.17359 10.9847 1.32976C11.1461 1.41809 11.3279 1.51763 11.5248 1.62957ZM10.3345 7.01264C10.2598 4.67387 9.80168 2.46867 9.43176 1.23558C9.31343 0.841152 9.45995 0.415197 9.79588 0.177026C10.1318 -0.0611449 10.5823 -0.0584266 10.9153 0.183782C10.9798 0.230668 11.1305 0.315587 11.4456 0.488055C11.4588 0.495328 11.4723 0.502696 11.4859 0.510159C12.6119 1.12636 14.923 2.39118 16.3434 4.72925C17.7555 4.45955 19.2773 4.31845 20.9065 4.31845C26.5098 4.31845 30.8443 5.99039 33.7844 8.80023C36.7247 11.6103 38.1793 15.4725 38.1793 19.6721C38.1793 23.9194 36.2423 27.7411 33.1536 30.5013L34.435 32.7208C35.23 34.0977 34.7582 35.8584 33.3813 36.6533C32.0044 37.4483 30.2437 36.9765 29.4488 35.5996L28.2735 33.5639C26.0357 34.5026 23.5376 35.0257 20.9065 35.0257C18.7569 35.0257 16.7941 34.78 15.0237 34.3174L14.2834 35.5996C13.4884 36.9765 11.7278 37.4483 10.3509 36.6533C8.97398 35.8583 8.50221 34.0977 9.29717 32.7208L9.74584 31.9437C7.04794 30.0724 5.23479 27.4693 4.32346 24.4701H3.63368C2.04377 24.4701 0.754883 23.1812 0.754883 21.5913V17.7529C0.754883 16.1629 2.04377 14.8741 3.63368 14.8741H4.32346C5.2999 11.6605 7.31125 8.90305 10.3345 7.01264Z" fill="#282185"/>
<path fill-rule="evenodd" clip-rule="evenodd" d="M13.7758 3.18799C14.1957 3.67483 14.578 4.22745 14.8849 4.85412C14.9989 4.82815 15.1137 4.80308 15.2295 4.77892C14.7949 4.16352 14.2919 3.63726 13.7758 3.18799ZM32.8366 9.22958C35.114 11.7622 36.2603 15.0802 36.2603 18.7123C36.2603 22.9151 34.2189 26.6972 30.9632 29.3287L32.6445 32.2409C33.1745 33.1588 32.86 34.3326 31.9421 34.8625C31.3812 35.1864 30.7248 35.1949 30.1781 34.9431L30.28 35.1197C30.81 36.0376 31.9837 36.3521 32.9017 35.8221C33.8196 35.2922 34.1341 34.1184 33.6041 33.2005L31.9228 30.2883C35.1785 27.6568 37.2199 23.8747 37.2199 19.6719C37.2199 15.5609 35.7514 11.8525 32.8366 9.22958ZM28.352 32.4828L27.712 31.3743C25.4031 32.479 22.7581 33.1063 19.9471 33.1063C17.5774 33.1063 15.4633 32.7973 13.6065 32.2312L12.4929 34.16C11.9952 35.0222 10.9294 35.3521 10.0411 34.9498C10.2006 35.3039 10.4688 35.6131 10.8309 35.8221C11.7488 36.3521 12.9226 36.0376 13.4525 35.1196L14.5661 33.1908C16.4229 33.7569 18.537 34.0659 20.9067 34.0659C23.5889 34.0659 26.1199 33.4948 28.352 32.4828ZM9.94133 30.9028L10.0732 30.6744C9.32253 30.2213 8.63711 29.7126 8.01712 29.1547C8.58763 29.7891 9.22911 30.3743 9.94133 30.9028ZM4.37012 23.5103C4.26721 23.1953 4.17506 22.8753 4.09369 22.5507H2.67427C2.39265 22.5507 2.12521 22.4901 1.88428 22.3811C2.18542 23.047 2.85553 23.5103 3.63387 23.5103H4.37012Z" fill="#384DB5"/>
<path fill-rule="evenodd" clip-rule="evenodd" d="M21.5202 8.09167C20.264 7.99141 18.9683 8.0864 17.2278 8.37084C16.7048 8.45631 16.2115 8.1016 16.126 7.57857C16.0405 7.05553 16.3952 6.56224 16.9183 6.47676C18.7393 6.17916 20.2035 6.06128 21.6729 6.17855C23.1423 6.29583 24.5692 6.64445 26.32 7.22714C26.8229 7.39449 27.0949 7.9378 26.9275 8.44066C26.7601 8.94351 26.2168 9.21549 25.714 9.04814C24.0407 8.49124 22.7764 8.19193 21.5202 8.09167Z" fill="#384DB5"/>
<path fill-rule="evenodd" clip-rule="evenodd" d="M18.4839 25.9016C24.367 25.7039 29.063 21.7015 29.063 16.7931C29.063 11.7583 25.3484 7.67685 18.0276 7.67685C10.7068 7.67685 6.99219 11.7583 6.99219 16.7931C6.99219 19.9378 8.4414 22.7107 11.3134 24.3493C11.901 23.2688 13.0229 22.5507 14.669 22.5507C17.017 22.5507 18.2985 24.0119 18.4839 25.9016Z" fill="#718EEB"/>
<path d="M27.6231 17.2733C27.6231 20.4531 25.0453 23.0309 21.8655 23.0309C18.0459 23.0309 16.1079 20.4531 16.1079 17.2733C16.1079 14.0935 18.0459 11.5157 21.8655 11.5157C25.6851 11.5157 27.6231 14.0935 27.6231 17.2733Z" fill="#B1C1FF"/>
<path d="M15.1489 12.2354C15.1489 13.4278 13.9674 14.3945 12.51 14.3945C10.7594 14.3945 9.87109 13.4278 9.87109 12.2354C9.87109 11.0429 10.7594 10.0763 12.51 10.0763C14.2606 10.0763 15.1489 11.0429 15.1489 12.2354Z" fill="#B1C1FF"/>
<path fill-rule="evenodd" clip-rule="evenodd" d="M12.2455 8.96426C12.3298 9.2155 12.1944 9.48745 11.9431 9.57169C10.9619 9.90065 8.51328 11.5542 7.4559 15.479C7.38697 15.7348 7.12367 15.8864 6.8678 15.8175C6.61194 15.7485 6.4604 15.4852 6.52933 15.2294C7.66533 11.0127 10.3346 9.09889 11.6381 8.66186C11.8893 8.57762 12.1613 8.71301 12.2455 8.96426Z" fill="#7198FA"/>
<path fill-rule="evenodd" clip-rule="evenodd" d="M39.1015 10.4102C39.9375 10.8829 40.6581 11.799 40.9667 13.3583C41.2833 14.9587 41.0531 16.2164 40.5156 17.108C40.879 18.381 40.6307 19.4575 40.1052 20.26C39.5555 21.0994 38.7071 21.6311 37.9854 21.7739C37.7255 21.8253 37.473 21.6563 37.4216 21.3964C37.3702 21.1364 37.5392 20.884 37.7992 20.8325C38.2542 20.7425 38.8862 20.3699 39.3024 19.7343C39.591 19.2935 39.7789 18.7211 39.7157 18.0187C39.5402 18.1564 39.3531 18.2735 39.1577 18.3696C37.8567 19.0096 36.1352 18.665 35.6134 17.1768C35.4087 16.5932 35.5719 16.0237 35.9009 15.5945C36.2257 15.1708 36.7258 14.8584 37.279 14.7302C37.8385 14.6006 38.4719 14.6554 39.0514 14.9955C39.4085 15.2051 39.7284 15.513 39.994 15.9247C40.1767 15.3141 40.2202 14.5293 40.0253 13.5446C39.7609 12.2084 39.1796 11.5568 38.6292 11.2456C38.0595 10.9234 37.4553 10.9272 37.1033 11.0199C36.8471 11.0874 36.5847 10.9343 36.5172 10.6781C36.4497 10.4218 36.6028 10.1594 36.859 10.0919C37.4182 9.9447 38.2849 9.9485 39.1015 10.4102ZM39.4475 16.9503C39.2024 16.3505 38.8792 16.0071 38.5657 15.8231C38.22 15.6203 37.8421 15.5848 37.4955 15.6651C37.1426 15.7468 36.8418 15.9444 36.6624 16.1783C36.4873 16.4068 36.4429 16.6426 36.5189 16.8593C36.7909 17.635 37.7739 17.9809 38.7341 17.5086C38.9837 17.3858 39.231 17.2021 39.4475 16.9503Z" fill="#282185"/>
<path fill-rule="evenodd" clip-rule="evenodd" d="M10.0699 13.0462C10.2846 12.8909 10.5846 12.9392 10.7398 13.1539C10.9485 13.4426 11.3567 13.7884 11.8755 13.8869C12.3625 13.9794 13.04 13.8715 13.8575 13.0885C14.0488 12.9052 14.3525 12.9118 14.5358 13.1031C14.7191 13.2945 14.7126 13.5982 14.5212 13.7815C13.5242 14.7365 12.5441 14.9906 11.6965 14.8297C10.8805 14.6747 10.2768 14.1515 9.96207 13.7161C9.80684 13.5013 9.8551 13.2014 10.0699 13.0462Z" fill="#282185"/>
<path fill-rule="evenodd" clip-rule="evenodd" d="M11.9315 2.54019C12.1189 2.35281 12.4227 2.35281 12.6101 2.54019L12.6134 2.54348C12.9719 2.90197 13.4603 3.39042 13.9201 3.91145C14.3759 4.42803 14.8301 5.00595 15.099 5.54369C15.2175 5.7807 15.1214 6.0689 14.8844 6.18741C14.6474 6.30591 14.3592 6.20984 14.2407 5.97283C14.0297 5.55097 13.6443 5.04934 13.2005 4.54634C12.762 4.04939 12.2925 3.57963 11.9315 3.21873C11.7442 3.03135 11.7442 2.72756 11.9315 2.54019Z" fill="#7198FA"/>
<path fill-rule="evenodd" clip-rule="evenodd" d="M14.9659 24.0929C15.1741 24.2568 15.21 24.5585 15.046 24.7667C14.2377 25.7931 13.4058 26.3327 12.5791 26.6048C11.777 26.8689 11.0102 26.8689 10.3739 26.8688C10.3662 26.8688 10.3586 26.8688 10.3509 26.8688C10.0859 26.8688 9.87109 26.654 9.87109 26.389C9.87109 26.124 10.0859 25.9092 10.3509 25.9092C11.0056 25.9092 11.6334 25.9059 12.279 25.6934C12.9096 25.4858 13.5891 25.0658 14.2921 24.173C14.4561 23.9648 14.7578 23.9289 14.9659 24.0929Z" fill="#282185"/>
<path d="M30.0214 25.6698C30.0214 26.0673 29.6992 26.3895 29.3017 26.3895C28.9043 26.3895 28.582 26.0673 28.582 25.6698C28.582 25.2723 28.9043 24.9501 29.3017 24.9501C29.6992 24.9501 30.0214 25.2723 30.0214 25.6698Z" fill="#384DB5"/>
<path d="M32.4204 24.7098C32.4204 25.1072 32.0981 25.4295 31.7007 25.4295C31.3032 25.4295 30.981 25.1072 30.981 24.7098C30.981 24.3123 31.3032 23.9901 31.7007 23.9901C32.0981 23.9901 32.4204 24.3123 32.4204 24.7098Z" fill="#384DB5"/>
<path d="M30.5001 23.5111C30.5001 23.776 30.2853 23.9909 30.0203 23.9909C29.7553 23.9909 29.5405 23.776 29.5405 23.5111C29.5405 23.2461 29.7553 23.0312 30.0203 23.0312C30.2853 23.0312 30.5001 23.2461 30.5001 23.5111Z" fill="#384DB5"/>
<path d="M33.8607 22.551C33.8607 22.816 33.6459 23.0308 33.3809 23.0308C33.1159 23.0308 32.9011 22.816 32.9011 22.551C32.9011 22.286 33.1159 22.0712 33.3809 22.0712C33.6459 22.0712 33.8607 22.286 33.8607 22.551Z" fill="#384DB5"/>
<path d="M34.82 20.1516C34.82 20.4166 34.6051 20.6314 34.3402 20.6314C34.0752 20.6314 33.8604 20.4166 33.8604 20.1516C33.8604 19.8866 34.0752 19.6718 34.3402 19.6718C34.6051 19.6718 34.82 19.8866 34.82 20.1516Z" fill="#384DB5"/>
<path d="M34.3402 17.2727C34.3402 17.5377 34.1254 17.7525 33.8604 17.7525C33.5954 17.7525 33.3806 17.5377 33.3806 17.2727C33.3806 17.0077 33.5954 16.7929 33.8604 16.7929C34.1254 16.7929 34.3402 17.0077 34.3402 17.2727Z" fill="#384DB5"/>
<path d="M33.3788 21.1115C33.3788 21.3765 33.164 21.5913 32.899 21.5913C32.634 21.5913 32.4192 21.3765 32.4192 21.1115C32.4192 20.8466 32.634 20.6317 32.899 20.6317C33.164 20.6317 33.3788 20.8466 33.3788 21.1115Z" fill="#384DB5"/>
<path d="M30.9821 21.591C30.9821 21.856 30.7672 22.0708 30.5023 22.0708C30.2373 22.0708 30.0225 21.856 30.0225 21.591C30.0225 21.326 30.2373 21.1112 30.5023 21.1112C30.7672 21.1112 30.9821 21.326 30.9821 21.591Z" fill="#384DB5"/>
<path d="M33.8607 24.4699C33.8607 24.7348 33.6459 24.9497 33.3809 24.9497C33.1159 24.9497 32.9011 24.7348 32.9011 24.4699C32.9011 24.2049 33.1159 23.9901 33.3809 23.9901C33.6459 23.9901 33.8607 24.2049 33.8607 24.4699Z" fill="#384DB5"/>
<path d="M33.3788 26.3899C33.3788 26.6549 33.164 26.8697 32.899 26.8697C32.634 26.8697 32.4192 26.6549 32.4192 26.3899C32.4192 26.1249 32.634 25.9101 32.899 25.9101C33.164 25.9101 33.3788 26.1249 33.3788 26.3899Z" fill="#384DB5"/>
<path d="M30.9821 27.8281C30.9821 28.0931 30.7672 28.3079 30.5023 28.3079C30.2373 28.3079 30.0225 28.0931 30.0225 27.8281C30.0225 27.5631 30.2373 27.3483 30.5023 27.3483C30.7672 27.3483 30.9821 27.5631 30.9821 27.8281Z" fill="#384DB5"/>
<path d="M30.5001 29.7482C30.5001 30.0132 30.2853 30.228 30.0203 30.228C29.7553 30.228 29.5405 30.0132 29.5405 29.7482C29.5405 29.4832 29.7553 29.2684 30.0203 29.2684C30.2853 29.2684 30.5001 29.4832 30.5001 29.7482Z" fill="#384DB5"/>
<path d="M27.6215 29.7482C27.6215 30.0132 27.4067 30.228 27.1417 30.228C26.8767 30.228 26.6619 30.0132 26.6619 29.7482C26.6619 29.4832 26.8767 29.2684 27.1417 29.2684C27.4067 29.2684 27.6215 29.4832 27.6215 29.7482Z" fill="#384DB5"/>
<path d="M25.7037 28.3087C25.7037 28.5737 25.4889 28.7885 25.2239 28.7885C24.959 28.7885 24.7441 28.5737 24.7441 28.3087C24.7441 28.0438 24.959 27.8289 25.2239 27.8289C25.4889 27.8289 25.7037 28.0438 25.7037 28.3087Z" fill="#384DB5"/>
<path d="M29.5416 28.3087C29.5416 28.5737 29.3268 28.7885 29.0618 28.7885C28.7968 28.7885 28.582 28.5737 28.582 28.3087C28.582 28.0438 28.7968 27.8289 29.0618 27.8289C29.3268 27.8289 29.5416 28.0438 29.5416 28.3087Z" fill="#384DB5"/>
<path d="M27.142 26.3899C27.142 26.6549 26.9272 26.8697 26.6622 26.8697C26.3972 26.8697 26.1824 26.6549 26.1824 26.3899C26.1824 26.1249 26.3972 25.9101 26.6622 25.9101C26.9272 25.9101 27.142 26.1249 27.142 26.3899Z" fill="#384DB5"/>
<path d="M36.2582 21.3514C36.2582 21.7489 35.936 22.0711 35.5385 22.0711C35.1411 22.0711 34.8188 21.7489 34.8188 21.3514C34.8188 20.954 35.1411 20.6317 35.5385 20.6317C35.936 20.6317 36.2582 20.954 36.2582 21.3514Z" fill="#384DB5"/>
<path fill-rule="evenodd" clip-rule="evenodd" d="M20.167 14.0989C20.6854 13.7749 21.3169 13.6746 21.8679 13.6746C22.4059 13.6746 22.8635 13.7415 23.2747 13.906C23.6917 14.0728 24.0109 14.32 24.296 14.6051C24.5771 14.8862 24.5771 15.3419 24.296 15.6229C24.015 15.904 23.5593 15.904 23.2782 15.6229C23.0836 15.4283 22.9229 15.3156 22.7401 15.2425C22.5516 15.1671 22.2896 15.114 21.8679 15.114C21.4593 15.114 21.1313 15.1936 20.9299 15.3195C20.7723 15.418 20.6684 15.5515 20.6684 15.8337C20.6684 16.1159 20.7723 16.2495 20.9299 16.3479C21.1313 16.4738 21.4593 16.5534 21.8679 16.5534C22.4189 16.5534 23.0505 16.6537 23.5688 16.9777C24.1309 17.329 24.5068 17.9151 24.5068 18.7125C24.5068 19.5099 24.1309 20.096 23.5688 20.4474C23.0505 20.7713 22.4189 20.8716 21.8679 20.8716C20.7274 20.8716 19.8828 20.4414 19.4108 19.9104C19.1467 19.6133 19.1735 19.1584 19.4706 18.8943C19.7676 18.6302 20.2226 18.657 20.4866 18.9541C20.6543 19.1428 21.0892 19.4322 21.8679 19.4322C22.2765 19.4322 22.6046 19.3526 22.8059 19.2268C22.9635 19.1283 23.0674 18.9947 23.0674 18.7125C23.0674 18.4303 22.9635 18.2968 22.8059 18.1983C22.6046 18.0724 22.2765 17.9928 21.8679 17.9928C21.3169 17.9928 20.6854 17.8925 20.167 17.5686C19.6049 17.2172 19.229 16.6311 19.229 15.8337C19.229 15.0363 19.6049 14.4502 20.167 14.0989Z" fill="#282185"/>
<path fill-rule="evenodd" clip-rule="evenodd" d="M21.8686 12.7158C22.2661 12.7158 22.5883 13.038 22.5883 13.4355V14.3951C22.5883 14.7925 22.2661 15.1148 21.8686 15.1148C21.4711 15.1148 21.1489 14.7925 21.1489 14.3951V13.4355C21.1489 13.038 21.4711 12.7158 21.8686 12.7158Z" fill="#282185"/>
<path fill-rule="evenodd" clip-rule="evenodd" d="M21.8686 19.4323C22.2661 19.4323 22.5883 19.7546 22.5883 20.152V21.1116C22.5883 21.5091 22.2661 21.8313 21.8686 21.8313C21.4711 21.8313 21.1489 21.5091 21.1489 21.1116V20.152C21.1489 19.7546 21.4711 19.4323 21.8686 19.4323Z" fill="#282185"/>
</svg>
