<svg width="14" height="13" viewBox="0 0 14 13" fill="none" xmlns="http://www.w3.org/2000/svg">
<path d="M1.87963 1.16295C1.03116 1.16295 0.343339 1.85077 0.343339 2.69924V4.74763V11.5756C0.343339 11.8584 0.572614 12.0877 0.855436 12.0877H13.1458C13.4286 12.0877 13.6579 11.8584 13.6579 11.5756V4.74763V2.69924C13.6579 1.85077 12.97 1.16295 12.1216 1.16295H1.87963Z" fill="#8D3FCA" stroke="#3F035B" stroke-width="0.341398" stroke-linejoin="round"/>
<rect x="0.514038" y="5.43018" width="12.9731" height="0.682796" fill="#5E1E91"/>
<circle cx="12.0367" cy="11.4902" r="0.256048" fill="#7C29AE"/>
<circle cx="12.8043" cy="9.69766" r="0.341398" fill="#7C29AE"/>
<circle cx="12.6337" cy="10.5514" r="0.170699" fill="#7C29AE"/>
<circle cx="11.8655" cy="9.61231" r="0.256048" fill="#7C29AE"/>
<circle cx="10.6708" cy="9.61231" r="0.256048" fill="#7C29AE"/>
<circle cx="12.1219" cy="8.50288" r="0.170699" fill="#7C29AE"/>
<circle cx="12.8049" cy="8.84434" r="0.170699" fill="#7C29AE"/>
<circle cx="13.146" cy="7.64937" r="0.170699" fill="#7C29AE"/>
<circle cx="12.9754" cy="11.234" r="0.170699" fill="#7C29AE"/>
<circle cx="10.756" cy="8.67345" r="0.170699" fill="#7C29AE"/>
<circle cx="10.6708" cy="11.3193" r="0.256048" fill="#7C29AE"/>
<circle cx="10.2443" cy="10.722" r="0.170699" fill="#7C29AE"/>
<circle cx="9.56139" cy="11.234" r="0.170699" fill="#7C29AE"/>
<circle cx="10.2443" cy="10.3805" r="0.170699" fill="#7C29AE"/>
<circle cx="9.56139" cy="10.039" r="0.170699" fill="#7C29AE"/>
<circle cx="8.70787" cy="11.5755" r="0.170699" fill="#7C29AE"/>
<circle cx="12.1219" cy="10.2099" r="0.170699" fill="#7C29AE"/>
<path d="M1.64062 2.69922H12.3584" stroke="#631791" stroke-width="0.341398" stroke-linecap="round" stroke-linejoin="round"/>
<path d="M1.06641 3.8942H12.9326" stroke="#631791" stroke-width="0.341398" stroke-linecap="round" stroke-linejoin="round"/>
<path d="M0.684265 6.62534H13.316" stroke="#631791" stroke-width="0.341398" stroke-linecap="round" stroke-linejoin="round"/>
<path d="M0.684265 7.99088H13.316" stroke="#631791" stroke-width="0.341398" stroke-linecap="round" stroke-linejoin="round"/>
<path d="M0.684265 9.35645H13.316" stroke="#631791" stroke-width="0.341398" stroke-linecap="round" stroke-linejoin="round"/>
<path d="M0.684265 10.722H13.316" stroke="#631791" stroke-width="0.341398" stroke-linecap="round" stroke-linejoin="round"/>
<path d="M0.684631 10.5513V5.68634" stroke="#D96CFF" stroke-width="0.341398" stroke-linecap="round" stroke-linejoin="round"/>
<path d="M11.7801 1.50406H1.96487C1.11138 1.50406 0.684631 1.93081 0.684631 2.7843V4.91804H13.1457" stroke="#D96CFF" stroke-width="0.341398" stroke-linecap="round" stroke-linejoin="round"/>
<path d="M1.96487 1.50406C1.11138 1.50406 0.684631 1.93081 0.684631 2.7843" stroke="#F4ADFF" stroke-width="0.341398" stroke-linecap="round" stroke-linejoin="round"/>
<path d="M0.343445 5.25977H13.658" stroke="#3F035B" stroke-width="0.341398" stroke-linecap="round" stroke-linejoin="round"/>
<path d="M8.46873 6.5911C8.51172 6.55887 8.53701 6.50827 8.53701 6.45454V4.23546C8.53701 4.04691 8.38416 3.89406 8.19562 3.89406H5.80583C5.61728 3.89406 5.46443 4.04691 5.46443 4.23546V6.45454C5.46443 6.50827 5.48973 6.55887 5.53271 6.5911L6.8983 7.6153C6.959 7.66082 7.04245 7.66082 7.10314 7.6153L8.46873 6.5911Z" fill="#DF8D12" stroke="#652A11" stroke-width="0.341398" stroke-linejoin="round"/>
<circle cx="7.00074" cy="5.43037" r="0.682796" fill="#FFB341" stroke="#944320" stroke-width="0.341398"/>
<path d="M5.80573 6.11301V4.23532H7.85411" stroke="#FFB341" stroke-width="0.341398" stroke-linecap="round" stroke-linejoin="round"/>
<circle cx="6.82994" cy="5.25954" r="0.170699" fill="#FFEACA"/>
<path d="M10.7562 5.43018H11.7804V11.9167H10.7562V5.43018Z" fill="#10A4C5"/>
<path d="M11.7803 4.74747H11.2682H10.7561V1.3335H11.7803V4.74747Z" fill="#45CDEB"/>
<path d="M2.22107 4.74763H2.73317H3.24526V1.33365H2.22107V4.74763Z" fill="#45CDEB"/>
<path d="M2.39166 1.50406V3.2964" stroke="#8EEBFF" stroke-width="0.341398" stroke-linecap="round" stroke-linejoin="round"/>
<path d="M10.9268 1.50406V3.2964" stroke="#8EEBFF" stroke-width="0.341398" stroke-linecap="round" stroke-linejoin="round"/>
<path d="M2.22107 5.43018H2.73317H3.24526V11.9167H2.22107V5.43018Z" fill="#10A4C5"/>
</svg>
