<svg width="394" height="363" viewBox="0 0 394 363" fill="none" xmlns="http://www.w3.org/2000/svg">
<path d="M36.8017 175.381C35.4942 151.8 39.4088 128.221 48.266 106.327L196.997 166.498L36.8017 175.381Z" fill="url(#paint0_radial_2472_100183)"/>
<path d="M357.195 157.618C358.503 181.199 354.588 204.778 345.731 226.671L197 166.5L357.195 157.618Z" fill="url(#paint1_radial_2472_100183)"/>
<path d="M205.879 326.695C182.298 328.003 158.719 324.088 136.826 315.231L196.997 166.5L205.879 326.695Z" fill="url(#paint2_radial_2472_100183)"/>
<path d="M188.118 6.30413C211.699 4.99662 235.278 8.91121 257.171 17.7684L197 166.5L188.118 6.30413Z" fill="url(#paint3_radial_2472_100183)"/>
<path d="M303.995 46.9427C321.593 62.6925 335.498 82.1333 344.716 103.877L197 166.5L303.995 46.9427Z" fill="url(#paint4_radial_2472_100183)"/>
<path d="M316.557 273.493C300.807 291.092 281.366 304.996 259.622 314.214L197 166.498L316.557 273.493Z" fill="url(#paint5_radial_2472_100183)"/>
<path d="M90.0039 286.055C72.4051 270.305 58.5004 250.865 49.2824 229.121L196.997 166.498L90.0039 286.055Z" fill="url(#paint6_radial_2472_100183)"/>
<path d="M77.4419 59.504C93.1917 41.9051 112.632 28.0004 134.376 18.7824L196.997 166.498L77.4419 59.504Z" fill="url(#paint7_radial_2472_100183)"/>
<defs>
<radialGradient id="paint0_radial_2472_100183" cx="0" cy="0" r="1" gradientUnits="userSpaceOnUse" gradientTransform="translate(197.701 167.202) rotate(-118.258) scale(144.44 144.44)">
<stop stop-color="#9A2CFB"/>
<stop offset="0.23" stop-color="#B92CFB" stop-opacity="0.46"/>
<stop offset="1" stop-color="#AF2CFB" stop-opacity="0"/>
</radialGradient>
<radialGradient id="paint1_radial_2472_100183" cx="0" cy="0" r="1" gradientUnits="userSpaceOnUse" gradientTransform="translate(197.701 167.202) rotate(-118.258) scale(144.44 144.44)">
<stop stop-color="#9A2CFB"/>
<stop offset="0.23" stop-color="#B92CFB" stop-opacity="0.46"/>
<stop offset="1" stop-color="#AF2CFB" stop-opacity="0"/>
</radialGradient>
<radialGradient id="paint2_radial_2472_100183" cx="0" cy="0" r="1" gradientUnits="userSpaceOnUse" gradientTransform="translate(197.701 167.202) rotate(-118.258) scale(144.44 144.44)">
<stop stop-color="#9A2CFB"/>
<stop offset="0.23" stop-color="#B92CFB" stop-opacity="0.46"/>
<stop offset="1" stop-color="#AF2CFB" stop-opacity="0"/>
</radialGradient>
<radialGradient id="paint3_radial_2472_100183" cx="0" cy="0" r="1" gradientUnits="userSpaceOnUse" gradientTransform="translate(197.701 167.202) rotate(-118.258) scale(144.44 144.44)">
<stop stop-color="#9A2CFB"/>
<stop offset="0.23" stop-color="#B92CFB" stop-opacity="0.46"/>
<stop offset="1" stop-color="#AF2CFB" stop-opacity="0"/>
</radialGradient>
<radialGradient id="paint4_radial_2472_100183" cx="0" cy="0" r="1" gradientUnits="userSpaceOnUse" gradientTransform="translate(197.701 167.202) rotate(-118.258) scale(144.44 144.44)">
<stop stop-color="#9A2CFB"/>
<stop offset="0.23" stop-color="#B92CFB" stop-opacity="0.46"/>
<stop offset="1" stop-color="#AF2CFB" stop-opacity="0"/>
</radialGradient>
<radialGradient id="paint5_radial_2472_100183" cx="0" cy="0" r="1" gradientUnits="userSpaceOnUse" gradientTransform="translate(197.701 167.202) rotate(-118.258) scale(144.44 144.44)">
<stop stop-color="#9A2CFB"/>
<stop offset="0.23" stop-color="#B92CFB" stop-opacity="0.46"/>
<stop offset="1" stop-color="#AF2CFB" stop-opacity="0"/>
</radialGradient>
<radialGradient id="paint6_radial_2472_100183" cx="0" cy="0" r="1" gradientUnits="userSpaceOnUse" gradientTransform="translate(197.701 167.202) rotate(-118.258) scale(144.44 144.44)">
<stop stop-color="#9A2CFB"/>
<stop offset="0.23" stop-color="#B92CFB" stop-opacity="0.46"/>
<stop offset="1" stop-color="#AF2CFB" stop-opacity="0"/>
</radialGradient>
<radialGradient id="paint7_radial_2472_100183" cx="0" cy="0" r="1" gradientUnits="userSpaceOnUse" gradientTransform="translate(197.701 167.202) rotate(-118.258) scale(144.44 144.44)">
<stop stop-color="#9A2CFB"/>
<stop offset="0.23" stop-color="#B92CFB" stop-opacity="0.46"/>
<stop offset="1" stop-color="#AF2CFB" stop-opacity="0"/>
</radialGradient>
</defs>
</svg>
