<svg width="16" height="17" viewBox="0 0 16 17" fill="none" xmlns="http://www.w3.org/2000/svg">
<g id="djghjc" clip-path="url(#clip0_2732_122595)">
<path id="Vector" d="M7.96423 12.7667C8.21312 12.7667 8.42349 12.6807 8.59534 12.5089C8.76719 12.337 8.85312 12.1267 8.85312 11.8778C8.85312 11.6289 8.76719 11.4185 8.59534 11.2467C8.42349 11.0748 8.21312 10.9889 7.96423 10.9889C7.71534 10.9889 7.50497 11.0748 7.33312 11.2467C7.16126 11.4185 7.07534 11.6289 7.07534 11.8778C7.07534 12.1267 7.16126 12.337 7.33312 12.5089C7.50497 12.6807 7.71534 12.7667 7.96423 12.7667ZM7.99978 15.6111C7.01608 15.6111 6.09163 15.4244 5.22645 15.0511C4.36126 14.6778 3.60867 14.1711 2.96867 13.5311C2.32867 12.8911 1.82201 12.1385 1.44867 11.2733C1.07534 10.4081 0.888672 9.4837 0.888672 8.5C0.888672 7.51629 1.07534 6.59185 1.44867 5.72666C1.82201 4.86148 2.32867 4.10889 2.96867 3.46889C3.60867 2.82889 4.36126 2.32222 5.22645 1.94889C6.09163 1.57555 7.01608 1.38889 7.99978 1.38889C8.98349 1.38889 9.90793 1.57555 10.7731 1.94889C11.6383 2.32222 12.3909 2.82889 13.0309 3.46889C13.6709 4.10889 14.1776 4.86148 14.5509 5.72666C14.9242 6.59185 15.1109 7.51629 15.1109 8.5C15.1109 9.4837 14.9242 10.4081 14.5509 11.2733C14.1776 12.1385 13.6709 12.8911 13.0309 13.5311C12.3909 14.1711 11.6383 14.6778 10.7731 15.0511C9.90793 15.4244 8.98349 15.6111 7.99978 15.6111ZM7.99978 14.1889C9.58793 14.1889 10.9331 13.6378 12.0353 12.5356C13.1376 11.4333 13.6887 10.0881 13.6887 8.5C13.6887 6.91185 13.1376 5.56666 12.0353 4.46444C10.9331 3.36222 9.58793 2.81111 7.99978 2.81111C6.41163 2.81111 5.06645 3.36222 3.96423 4.46444C2.862 5.56666 2.31089 6.91185 2.31089 8.5C2.31089 10.0881 2.862 11.4333 3.96423 12.5356C5.06645 13.6378 6.41163 14.1889 7.99978 14.1889ZM8.07089 5.44222C8.36719 5.44222 8.62497 5.53703 8.84423 5.72666C9.06349 5.91629 9.17312 6.15333 9.17312 6.43777C9.17312 6.69851 9.09312 6.92963 8.93312 7.13111C8.77312 7.33259 8.59237 7.52222 8.39089 7.7C8.1183 7.93703 7.8783 8.19777 7.67089 8.48222C7.46349 8.76666 7.35978 9.08666 7.35978 9.44222C7.35978 9.60814 7.422 9.7474 7.54645 9.86C7.67089 9.97259 7.81608 10.0289 7.982 10.0289C8.15978 10.0289 8.31089 9.96963 8.43534 9.85111C8.55978 9.73259 8.63978 9.58444 8.67534 9.40666C8.72275 9.15777 8.82941 8.93555 8.99534 8.74C9.16126 8.54444 9.33904 8.35777 9.52867 8.18C9.80126 7.91926 10.0353 7.63481 10.2309 7.32666C10.4264 7.01851 10.5242 6.67481 10.5242 6.29555C10.5242 5.69111 10.2783 5.19629 9.78645 4.81111C9.2946 4.42592 8.72275 4.23333 8.07089 4.23333C7.62052 4.23333 7.19089 4.32814 6.782 4.51777C6.37312 4.7074 6.062 4.99777 5.84867 5.38889C5.76571 5.53111 5.73904 5.68222 5.76867 5.84222C5.7983 6.00222 5.8783 6.1237 6.00867 6.20666C6.1746 6.30148 6.34645 6.33111 6.52423 6.29555C6.702 6.26 6.85015 6.15926 6.96867 5.99333C7.09904 5.81555 7.262 5.67926 7.45756 5.58444C7.65312 5.48963 7.85756 5.44222 8.07089 5.44222Z" fill="#9B51E0"/>
</g>
<defs>
<clipPath id="clip0_2732_122595">
<rect width="16" height="16" fill="white" transform="translate(0 0.5)"/>
</clipPath>
</defs>
</svg>
