<svg width="16" height="16" viewBox="0 0 16 16" fill="none" xmlns="http://www.w3.org/2000/svg">
<g clip-path="url(#clip0_2746_235622)">
<path d="M7.96423 12.2667C8.21312 12.2667 8.42349 12.1808 8.59534 12.0089C8.76719 11.8371 8.85312 11.6267 8.85312 11.3778C8.85312 11.1289 8.76719 10.9185 8.59534 10.7467C8.42349 10.5748 8.21312 10.4889 7.96423 10.4889C7.71534 10.4889 7.50497 10.5748 7.33312 10.7467C7.16126 10.9185 7.07534 11.1289 7.07534 11.3778C7.07534 11.6267 7.16126 11.8371 7.33312 12.0089C7.50497 12.1808 7.71534 12.2667 7.96423 12.2667ZM7.99978 15.1111C7.01608 15.1111 6.09163 14.9245 5.22645 14.5511C4.36126 14.1778 3.60867 13.6711 2.96867 13.0311C2.32867 12.3911 1.82201 11.6385 1.44867 10.7734C1.07534 9.90817 0.888672 8.98373 0.888672 8.00003C0.888672 7.01632 1.07534 6.09188 1.44867 5.22669C1.82201 4.36151 2.32867 3.60892 2.96867 2.96892C3.60867 2.32892 4.36126 1.82225 5.22645 1.44892C6.09163 1.07558 7.01608 0.888916 7.99978 0.888916C8.98349 0.888916 9.90793 1.07558 10.7731 1.44892C11.6383 1.82225 12.3909 2.32892 13.0309 2.96892C13.6709 3.60892 14.1776 4.36151 14.5509 5.22669C14.9242 6.09188 15.1109 7.01632 15.1109 8.00003C15.1109 8.98373 14.9242 9.90817 14.5509 10.7734C14.1776 11.6385 13.6709 12.3911 13.0309 13.0311C12.3909 13.6711 11.6383 14.1778 10.7731 14.5511C9.90793 14.9245 8.98349 15.1111 7.99978 15.1111ZM7.99978 13.6889C9.58793 13.6889 10.9331 13.1378 12.0353 12.0356C13.1376 10.9334 13.6887 9.58817 13.6887 8.00003C13.6887 6.41188 13.1376 5.06669 12.0353 3.96447C10.9331 2.86225 9.58793 2.31114 7.99978 2.31114C6.41163 2.31114 5.06645 2.86225 3.96423 3.96447C2.86201 5.06669 2.31089 6.41188 2.31089 8.00003C2.31089 9.58817 2.86201 10.9334 3.96423 12.0356C5.06645 13.1378 6.41163 13.6889 7.99978 13.6889ZM8.07089 4.94225C8.36719 4.94225 8.62497 5.03706 8.84423 5.22669C9.06349 5.41632 9.17312 5.65336 9.17312 5.9378C9.17312 6.19855 9.09312 6.42966 8.93312 6.63114C8.77312 6.83262 8.59237 7.02225 8.39089 7.20003C8.1183 7.43706 7.8783 7.6978 7.67089 7.98225C7.46349 8.26669 7.35978 8.58669 7.35978 8.94225C7.35978 9.10817 7.422 9.24743 7.54645 9.36003C7.67089 9.47262 7.81608 9.52892 7.982 9.52892C8.15978 9.52892 8.31089 9.46966 8.43534 9.35114C8.55978 9.23262 8.63978 9.08447 8.67534 8.90669C8.72275 8.6578 8.82941 8.43558 8.99534 8.24003C9.16126 8.04447 9.33904 7.8578 9.52867 7.68003C9.80126 7.41929 10.0353 7.13484 10.2309 6.82669C10.4264 6.51855 10.5242 6.17484 10.5242 5.79558C10.5242 5.19114 10.2783 4.69632 9.78645 4.31114C9.2946 3.92595 8.72275 3.73336 8.07089 3.73336C7.62052 3.73336 7.19089 3.82818 6.782 4.0178C6.37312 4.20743 6.062 4.4978 5.84867 4.88892C5.76571 5.03114 5.73904 5.18225 5.76867 5.34225C5.7983 5.50225 5.8783 5.62373 6.00867 5.70669C6.1746 5.80151 6.34645 5.83114 6.52423 5.79558C6.702 5.76003 6.85015 5.65929 6.96867 5.49336C7.09904 5.31558 7.262 5.17929 7.45756 5.08447C7.65312 4.98966 7.85756 4.94225 8.07089 4.94225Z" fill="#EB5757"/>
</g>
<defs>
<clipPath id="clip0_2746_235622">
<rect width="16" height="16" fill="white"/>
</clipPath>
</defs>
</svg>
