<svg width="16" height="17" viewBox="0 0 16 17" fill="none" xmlns="http://www.w3.org/2000/svg">
<g id="djghjc" clip-path="url(#clip0_2732_123277)">
<path id="Vector" d="M7.96423 12.7667C8.21312 12.7667 8.42349 12.6808 8.59534 12.5089C8.76719 12.3371 8.85312 12.1267 8.85312 11.8778C8.85312 11.6289 8.76719 11.4185 8.59534 11.2467C8.42349 11.0748 8.21312 10.9889 7.96423 10.9889C7.71534 10.9889 7.50497 11.0748 7.33312 11.2467C7.16126 11.4185 7.07534 11.6289 7.07534 11.8778C7.07534 12.1267 7.16126 12.3371 7.33312 12.5089C7.50497 12.6808 7.71534 12.7667 7.96423 12.7667ZM7.99978 15.6111C7.01608 15.6111 6.09163 15.4245 5.22645 15.0511C4.36126 14.6778 3.60867 14.1711 2.96867 13.5311C2.32867 12.8911 1.82201 12.1385 1.44867 11.2734C1.07534 10.4082 0.888672 9.48373 0.888672 8.50003C0.888672 7.51632 1.07534 6.59188 1.44867 5.72669C1.82201 4.86151 2.32867 4.10892 2.96867 3.46892C3.60867 2.82892 4.36126 2.32225 5.22645 1.94892C6.09163 1.57558 7.01608 1.38892 7.99978 1.38892C8.98349 1.38892 9.90793 1.57558 10.7731 1.94892C11.6383 2.32225 12.3909 2.82892 13.0309 3.46892C13.6709 4.10892 14.1776 4.86151 14.5509 5.72669C14.9242 6.59188 15.1109 7.51632 15.1109 8.50003C15.1109 9.48373 14.9242 10.4082 14.5509 11.2734C14.1776 12.1385 13.6709 12.8911 13.0309 13.5311C12.3909 14.1711 11.6383 14.6778 10.7731 15.0511C9.90793 15.4245 8.98349 15.6111 7.99978 15.6111ZM7.99978 14.1889C9.58793 14.1889 10.9331 13.6378 12.0353 12.5356C13.1376 11.4334 13.6887 10.0882 13.6887 8.50003C13.6887 6.91188 13.1376 5.56669 12.0353 4.46447C10.9331 3.36225 9.58793 2.81114 7.99978 2.81114C6.41163 2.81114 5.06645 3.36225 3.96423 4.46447C2.862 5.56669 2.31089 6.91188 2.31089 8.50003C2.31089 10.0882 2.862 11.4334 3.96423 12.5356C5.06645 13.6378 6.41163 14.1889 7.99978 14.1889ZM8.07089 5.44225C8.36719 5.44225 8.62497 5.53706 8.84423 5.72669C9.06349 5.91632 9.17312 6.15336 9.17312 6.4378C9.17312 6.69855 9.09312 6.92966 8.93312 7.13114C8.77312 7.33262 8.59237 7.52225 8.39089 7.70003C8.1183 7.93706 7.8783 8.1978 7.67089 8.48225C7.46349 8.76669 7.35978 9.08669 7.35978 9.44225C7.35978 9.60817 7.422 9.74743 7.54645 9.86003C7.67089 9.97262 7.81608 10.0289 7.982 10.0289C8.15978 10.0289 8.31089 9.96966 8.43534 9.85114C8.55978 9.73262 8.63978 9.58447 8.67534 9.40669C8.72275 9.1578 8.82941 8.93558 8.99534 8.74003C9.16126 8.54447 9.33904 8.3578 9.52867 8.18003C9.80126 7.91929 10.0353 7.63484 10.2309 7.32669C10.4264 7.01855 10.5242 6.67484 10.5242 6.29558C10.5242 5.69114 10.2783 5.19632 9.78645 4.81114C9.2946 4.42595 8.72275 4.23336 8.07089 4.23336C7.62052 4.23336 7.19089 4.32818 6.782 4.5178C6.37312 4.70743 6.062 4.9978 5.84867 5.38892C5.76571 5.53114 5.73904 5.68225 5.76867 5.84225C5.7983 6.00225 5.8783 6.12373 6.00867 6.20669C6.1746 6.30151 6.34645 6.33114 6.52423 6.29558C6.702 6.26003 6.85015 6.15929 6.96867 5.99336C7.09904 5.81558 7.262 5.67929 7.45756 5.58447C7.65312 5.48966 7.85756 5.44225 8.07089 5.44225Z" fill="#2F80ED"/>
</g>
<defs>
<clipPath id="clip0_2732_123277">
<rect width="16" height="16" fill="white" transform="translate(0 0.5)"/>
</clipPath>
</defs>
</svg>
