<svg width="16" height="15" viewBox="0 0 16 15" fill="none" xmlns="http://www.w3.org/2000/svg">
<path d="M7.96423 11.7667C8.21312 11.7667 8.42349 11.6807 8.59534 11.5089C8.76719 11.337 8.85312 11.1267 8.85312 10.8778C8.85312 10.6289 8.76719 10.4185 8.59534 10.2467C8.42349 10.0748 8.21312 9.98888 7.96423 9.98888C7.71534 9.98888 7.50497 10.0748 7.33312 10.2467C7.16126 10.4185 7.07534 10.6289 7.07534 10.8778C7.07534 11.1267 7.16126 11.337 7.33312 11.5089C7.50497 11.6807 7.71534 11.7667 7.96423 11.7667ZM7.99978 14.6111C7.01608 14.6111 6.09163 14.4244 5.22645 14.0511C4.36126 13.6778 3.60867 13.1711 2.96867 12.5311C2.32867 11.8911 1.82201 11.1385 1.44867 10.2733C1.07534 9.40814 0.888672 8.4837 0.888672 7.5C0.888672 6.51629 1.07534 5.59185 1.44867 4.72666C1.82201 3.86148 2.32867 3.10889 2.96867 2.46889C3.60867 1.82889 4.36126 1.32222 5.22645 0.948885C6.09163 0.575552 7.01608 0.388885 7.99978 0.388885C8.98349 0.388885 9.90793 0.575552 10.7731 0.948885C11.6383 1.32222 12.3909 1.82889 13.0309 2.46889C13.6709 3.10889 14.1776 3.86148 14.5509 4.72666C14.9242 5.59185 15.1109 6.51629 15.1109 7.5C15.1109 8.4837 14.9242 9.40814 14.5509 10.2733C14.1776 11.1385 13.6709 11.8911 13.0309 12.5311C12.3909 13.1711 11.6383 13.6778 10.7731 14.0511C9.90793 14.4244 8.98349 14.6111 7.99978 14.6111ZM7.99978 13.1889C9.58793 13.1889 10.9331 12.6378 12.0353 11.5356C13.1376 10.4333 13.6887 9.08814 13.6887 7.5C13.6887 5.91185 13.1376 4.56666 12.0353 3.46444C10.9331 2.36222 9.58793 1.81111 7.99978 1.81111C6.41163 1.81111 5.06645 2.36222 3.96423 3.46444C2.862 4.56666 2.31089 5.91185 2.31089 7.5C2.31089 9.08814 2.862 10.4333 3.96423 11.5356C5.06645 12.6378 6.41163 13.1889 7.99978 13.1889ZM8.07089 4.44222C8.36719 4.44222 8.62497 4.53703 8.84423 4.72666C9.06349 4.91629 9.17312 5.15333 9.17312 5.43777C9.17312 5.69851 9.09312 5.92963 8.93312 6.13111C8.77312 6.33259 8.59237 6.52222 8.39089 6.7C8.1183 6.93703 7.8783 7.19777 7.67089 7.48222C7.46349 7.76666 7.35978 8.08666 7.35978 8.44222C7.35978 8.60814 7.422 8.7474 7.54645 8.86C7.67089 8.97259 7.81608 9.02888 7.982 9.02888C8.15978 9.02888 8.31089 8.96963 8.43534 8.85111C8.55978 8.73259 8.63978 8.58444 8.67534 8.40666C8.72275 8.15777 8.82941 7.93555 8.99534 7.74C9.16126 7.54444 9.33904 7.35777 9.52867 7.18C9.80126 6.91926 10.0353 6.63481 10.2309 6.32666C10.4264 6.01851 10.5242 5.67481 10.5242 5.29555C10.5242 4.69111 10.2783 4.19629 9.78645 3.81111C9.2946 3.42592 8.72275 3.23333 8.07089 3.23333C7.62052 3.23333 7.19089 3.32814 6.782 3.51777C6.37312 3.7074 6.062 3.99777 5.84867 4.38889C5.76571 4.53111 5.73904 4.68222 5.76867 4.84222C5.7983 5.00222 5.8783 5.1237 6.00867 5.20666C6.1746 5.30148 6.34645 5.33111 6.52423 5.29555C6.702 5.26 6.85015 5.15926 6.96867 4.99333C7.09904 4.81555 7.262 4.67926 7.45756 4.58444C7.65312 4.48963 7.85756 4.44222 8.07089 4.44222Z" fill="#505B78"/>
</svg>
