<svg width="18" height="20" viewBox="0 0 18 20" fill="none" xmlns="http://www.w3.org/2000/svg">
<g id="&#208;&#161;&#208;&#187;&#208;&#190;&#208;&#185; 2">
<g id="OBJECTS">
<path id="Vector" d="M17.7954 20.7971C15.5019 23.0149 12.4473 24.2555 9.26816 24.2603H9.20751C7.51885 24.2586 5.8485 23.9078 4.29985 23.2296C2.75119 22.5514 1.35718 21.5602 0.204102 20.3174C0.859646 18.5429 2.04814 17.4834 3.20567 16.8074C3.33471 16.7294 3.47408 16.6566 3.61345 16.589C3.78379 16.5058 3.95799 16.4291 4.12962 16.3589C4.41481 16.2432 4.70258 16.1431 4.97873 16.0547C5.43942 15.9078 5.87172 15.7947 6.21498 15.6907C6.67954 15.5607 6.98279 15.4437 6.98279 15.3124V10.9145H10.8541V15.3111C10.8541 15.4762 11.3238 15.6101 11.991 15.7999C12.3588 15.9052 12.7859 16.0274 13.2272 16.1821C13.4531 16.2601 13.6841 16.3485 13.9112 16.4421C14.1009 16.524 14.2893 16.6137 14.4725 16.7125C14.5714 16.7654 14.6695 16.8213 14.7667 16.8802C15.9823 17.6277 17.2082 18.8029 17.7954 20.7971Z" fill="#FFD7B5"/>
<path id="Vector_2" d="M17.7954 20.7972C17.4505 21.13 17.0868 21.4425 16.7063 21.7332C16.394 21.9724 16.0688 22.196 15.7346 22.404C13.7916 23.6147 11.5528 24.2575 9.26816 24.2604H9.20751C6.92061 24.2593 4.67921 23.6165 2.73466 22.404C2.40086 22.196 2.07782 21.9724 1.76554 21.7332C1.33614 21.4063 0.928751 21.0511 0.546068 20.6698C0.429929 20.5554 0.31637 20.4371 0.204102 20.3175C0.244105 20.2083 0.28669 20.103 0.333146 19.999C0.490725 19.6275 0.682097 19.2715 0.904811 18.9356C1.0614 18.7003 1.23387 18.4762 1.42099 18.2648C1.7719 17.8655 2.16771 17.5086 2.60045 17.2014C2.80305 17.0558 3.00823 16.9258 3.21212 16.8114C3.34116 16.7334 3.48053 16.6606 3.6199 16.593L3.74894 16.5358C3.87799 16.4734 4.00703 16.4162 4.14382 16.3629C4.2135 16.3343 4.28319 16.307 4.35287 16.281C4.56837 16.1991 4.78388 16.125 4.99809 16.0587L5.19811 15.9963C5.58524 15.878 5.9414 15.7818 6.23046 15.6947L8.03708 16.5358L9.22299 17.0896L10.4244 16.5358L12.0091 15.8052C12.2942 15.8871 12.6156 15.9794 12.9511 16.0886C13.0479 16.1198 13.1459 16.1523 13.2453 16.1874C13.4118 16.2446 13.5821 16.3083 13.7512 16.3772L13.9292 16.4526L14.1151 16.5358C14.2441 16.5943 14.3731 16.6567 14.4906 16.723C14.5895 16.7759 14.6876 16.8318 14.7848 16.8907C14.9448 16.9882 15.1048 17.0935 15.2623 17.2066C15.6953 17.5134 16.0912 17.8703 16.4417 18.27C16.6288 18.4814 16.8013 18.7055 16.9579 18.9408C17.1738 19.276 17.3582 19.6307 17.5089 20.0003C17.6032 20.2193 17.6859 20.4433 17.7567 20.6711L17.7954 20.7972Z" fill="#451378"/>
<path id="Vector_3" d="M17.5088 20.0002H0.333008C0.490587 19.6287 0.681959 19.2727 0.904673 18.9368H16.9371C17.1603 19.2724 17.3517 19.6284 17.5088 20.0002Z" fill="#6A9DC4"/>
<path id="Vector_4" d="M16.425 18.2648H1.41455C1.76546 17.8655 2.16127 17.5086 2.59401 17.2014H15.2403C15.6752 17.5079 16.0728 17.8648 16.425 18.2648Z" fill="#6A9DC4"/>
<path id="Vector_5" d="M6.21802 15.6895L8.02464 16.5306H3.73779C3.86684 16.4682 3.99588 16.411 4.13267 16.3577C4.41786 16.242 4.70562 16.1419 4.98178 16.0535L5.1818 15.9911C5.56635 15.8728 5.92509 15.7766 6.21802 15.6895Z" fill="#6A9DC4"/>
<path id="Vector_6" d="M14.0986 16.5306H10.408L11.9926 15.8C12.2778 15.8819 12.5991 15.9742 12.9346 16.0834C13.0314 16.1146 13.1295 16.1471 13.2289 16.1822C13.4547 16.2602 13.6857 16.3486 13.9128 16.4422L14.0986 16.5306Z" fill="#6A9DC4"/>
<g id="Vector_7" style="mix-blend-mode:multiply" opacity="0.3">
<path d="M13.7339 16.372L10.855 19.6467L9.23675 18.2648L7.81727 19.6467L4.34082 16.2758C4.55632 16.1939 4.77183 16.1198 4.98604 16.0535L5.18606 15.9911C5.57319 15.8728 5.92935 15.7766 6.21841 15.6895L8.02503 16.5306L9.21095 17.0844L10.4123 16.5306L11.997 15.8C12.2822 15.8819 12.6035 15.9742 12.939 16.0834C13.0358 16.1146 13.1339 16.1471 13.2333 16.1822C13.3946 16.2394 13.5649 16.3031 13.7339 16.372Z" fill="#19134B"/>
</g>
<path id="Vector_8" d="M10.8554 11.6804V14.1634C10.3507 14.5723 9.73464 14.8171 9.08877 14.8654C8.01512 14.9343 7.34538 14.4754 6.98535 14.1101V11.9001L10.7663 11.5504L10.8554 11.6804Z" fill="#FFC6A6"/>
<path id="Vector_9" d="M4.1697 4.07405C4.1697 4.07405 3.23929 8.98675 4.59168 11.3436C5.264 12.5214 7.16095 13.7772 8.92498 13.8136C10.689 13.85 12.3214 12.6579 13.1667 11.6244C14.8558 9.55615 13.5848 4.07795 13.5848 4.07795C13.5848 4.07795 9.79861 1.36355 4.1697 4.07405Z" fill="#FFD7B5"/>
<path id="Vector_10" d="M13.5874 7.33428C13.5874 7.33428 14.634 5.84188 15.394 7.15228C15.936 8.08308 14.923 10.0955 13.6377 9.23228L13.5874 7.33428Z" fill="#FFD7B5"/>
<path id="Vector_11" d="M14.3473 7.34989L14.0376 8.87349C14.0376 8.87349 14.488 9.04899 14.6557 8.71099C14.7051 8.62014 14.726 8.51635 14.7156 8.41331C14.7053 8.31026 14.6641 8.2128 14.5976 8.13379C14.5976 8.13379 15.1925 8.06879 15.1667 7.58649C15.1409 7.10419 14.4363 6.91179 14.3473 7.34989Z" fill="#FFAC7E"/>
<path id="Vector_12" d="M4.27383 7.34737C4.27383 7.34737 3.22857 5.85497 2.46721 7.16537C1.92651 8.09487 2.93822 10.1086 4.2235 9.24537L4.27383 7.34737Z" fill="#FFD7B5"/>
<path id="Vector_13" d="M3.54629 7.34989L3.85599 8.87349C3.85599 8.87349 3.40563 9.04899 3.23787 8.71099C3.18918 8.61964 3.16915 8.51555 3.18044 8.41249C3.19173 8.30943 3.23381 8.21224 3.3011 8.13379C3.3011 8.13379 2.70621 8.06879 2.73202 7.58649C2.75783 7.10419 3.45725 6.91179 3.54629 7.34989Z" fill="#FFAC7E"/>
<path id="Vector_14" d="M3.85626 3.7059C3.85626 3.7059 3.78657 10.9534 3.89239 12.4861C3.9982 14.0188 8.33409 15.2395 8.8993 15.2395C9.46451 15.2395 14.0017 14.089 14.0017 12.2495V3.7059H12.9913V8.9189L11.0943 9.8133C11.0943 9.8133 10.7859 8.7889 8.79994 8.7889C6.81395 8.7889 6.59328 9.786 6.59328 9.786L4.84989 8.9189V3.5668L3.85626 3.7059Z" fill="#19134B"/>
<path id="Vector_15" d="M7.35315 7.11985C7.35112 7.22017 7.31973 7.31766 7.26293 7.40008C7.20612 7.48251 7.12643 7.5462 7.03384 7.58318C6.94124 7.62016 6.83987 7.62878 6.74244 7.60796C6.645 7.58714 6.55584 7.5378 6.48612 7.46614C6.4164 7.39447 6.36924 7.30367 6.35054 7.20511C6.33185 7.10655 6.34245 7.00462 6.38102 6.91211C6.41959 6.8196 6.48442 6.74062 6.56737 6.68507C6.65031 6.62952 6.7477 6.59987 6.8473 6.59985C6.91451 6.60019 6.98098 6.61395 7.04288 6.64033C7.10478 6.66671 7.16087 6.70519 7.20791 6.75354C7.25495 6.8019 7.29201 6.85917 7.31694 6.92205C7.34187 6.98492 7.35418 7.05216 7.35315 7.11985Z" fill="#19134B"/>
<path id="Vector_16" d="M11.5008 7.11985C11.499 7.22055 11.4677 7.31847 11.4109 7.40131C11.354 7.48415 11.2741 7.54821 11.1812 7.58545C11.0883 7.62268 10.9866 7.63144 10.8888 7.6106C10.791 7.58977 10.7015 7.54028 10.6315 7.46835C10.5615 7.39642 10.5142 7.30526 10.4955 7.20633C10.4768 7.10739 10.4876 7.0051 10.5264 6.9123C10.5652 6.8195 10.6304 6.74033 10.7138 6.68474C10.7971 6.62914 10.895 6.59961 10.9949 6.59985C11.0621 6.60019 11.1286 6.61395 11.1905 6.64033C11.2524 6.66671 11.3085 6.70519 11.3555 6.75355C11.4026 6.8019 11.4396 6.85917 11.4646 6.92205C11.4895 6.98493 11.5018 7.05216 11.5008 7.11985Z" fill="#19134B"/>
<path id="Vector_17" d="M6.46634 8.73972C6.25213 9.06992 5.77983 9.14142 5.41076 8.89832C5.04169 8.65522 4.91523 8.19112 5.12944 7.85832C5.34366 7.52552 5.81596 7.45792 6.18502 7.70102C6.55409 7.94412 6.68055 8.40952 6.46634 8.73972Z" fill="#FF918B"/>
<path id="Vector_18" d="M11.3792 8.73972C11.5934 9.06992 12.0657 9.14142 12.4361 8.89832C12.8064 8.65522 12.9303 8.19112 12.7161 7.85832C12.5019 7.52552 12.0296 7.45792 11.6605 7.70102C11.2914 7.94412 11.165 8.40952 11.3792 8.73972Z" fill="#FF918B"/>
<path id="Vector_19" d="M5.75295 6.54645C5.69144 6.54646 5.63194 6.52433 5.58519 6.48405C5.53374 6.43949 5.50178 6.37631 5.49623 6.30818C5.49067 6.24006 5.51197 6.17247 5.55551 6.12005C5.5839 6.08625 6.26655 5.29195 7.62022 5.60785C7.68696 5.62354 7.74478 5.66529 7.78096 5.72392C7.81714 5.78256 7.82871 5.85327 7.81314 5.9205C7.79757 5.98773 7.75612 6.04598 7.69792 6.08243C7.63972 6.11888 7.56953 6.13054 7.50279 6.11485C6.47044 5.87305 5.97362 6.43335 5.95426 6.45675C5.92934 6.48573 5.89838 6.5088 5.86357 6.52431C5.82877 6.53981 5.791 6.54738 5.75295 6.54645Z" fill="#19134B"/>
<path id="Vector_20" d="M11.2734 6.31256C10.8371 6.31153 10.4151 6.15495 10.0824 5.87056C10.056 5.84894 10.0342 5.82228 10.0181 5.79212C10.002 5.76197 9.99196 5.72891 9.98858 5.69484C9.9852 5.66077 9.98854 5.62636 9.9984 5.59359C10.0083 5.56083 10.0244 5.53034 10.046 5.5039C10.0676 5.47745 10.0942 5.45555 10.1242 5.43947C10.1542 5.42338 10.187 5.41343 10.2209 5.41017C10.2547 5.40692 10.2888 5.41043 10.3213 5.4205C10.3538 5.43057 10.384 5.44701 10.4101 5.46886C10.6144 5.64633 10.8675 5.75674 11.1357 5.78531C11.4039 5.81389 11.6744 5.75927 11.9109 5.62876C11.9397 5.60947 11.9719 5.59618 12.0058 5.58969C12.0398 5.58319 12.0746 5.58361 12.1084 5.59093C12.1421 5.59825 12.1741 5.61231 12.2023 5.63229C12.2306 5.65227 12.2546 5.67776 12.2729 5.70725C12.2912 5.73674 12.3034 5.76962 12.3089 5.80397C12.3144 5.83831 12.3129 5.8734 12.3047 5.90718C12.2965 5.94095 12.2816 5.97272 12.2609 6.00059C12.2403 6.02847 12.2143 6.05189 12.1845 6.06946C11.9078 6.23097 11.5932 6.31491 11.2734 6.31256Z" fill="#19134B"/>
<path id="Vector_21" d="M8.0625 9.57682L9.64458 9.35062C9.64458 9.35062 9.58651 10.0162 8.94387 10.1085C8.30123 10.2008 8.0625 9.57682 8.0625 9.57682Z" fill="white"/>
<path id="Vector_22" d="M5.38499 9.97731C5.14239 9.87331 4.55524 12.3472 4.90107 12.6605C5.24691 12.9738 5.62372 10.0826 5.38499 9.97731Z" fill="#3A3162"/>
<path id="Vector_23" d="M6.46144 10.592C6.20335 10.5127 5.873 13.0347 6.24852 13.3103C6.62404 13.5859 6.71179 10.6713 6.46144 10.592Z" fill="#3A3162"/>
<path id="Vector_24" d="M7.87569 11.3137C7.6176 11.2448 7.3879 13.7772 7.77503 14.0437C8.16217 14.3102 8.1299 11.3826 7.87569 11.3137Z" fill="#3A3162"/>
<path id="Vector_25" d="M12.427 10.1073C12.6683 10.0033 13.2567 12.4772 12.9109 12.7905C12.565 13.1038 12.1844 10.2126 12.427 10.1073Z" fill="#3A3162"/>
<path id="Vector_26" d="M11.3508 10.7221C11.6089 10.6428 11.9392 13.1648 11.5624 13.4404C11.1856 13.716 11.0992 10.8014 11.3508 10.7221Z" fill="#3A3162"/>
<path id="Vector_27" d="M9.93604 11.4435C10.1941 11.3746 10.4225 13.907 10.0367 14.1735C9.65085 14.44 9.68053 11.5124 9.93604 11.4435Z" fill="#3A3162"/>
<path id="Vector_28" d="M8.77519 8.91004C8.62839 8.92263 8.48184 8.88308 8.36096 8.79824C8.32563 8.76608 8.29929 8.72514 8.28457 8.67952C8.26985 8.6339 8.26727 8.58518 8.27708 8.53824C8.43193 7.48134 8.72099 5.92784 8.72099 5.91224C8.72443 5.89554 8.73413 5.88081 8.74807 5.87113C8.76201 5.86144 8.77912 5.85754 8.79584 5.86024C8.81268 5.8637 8.82751 5.87366 8.83715 5.888C8.8468 5.90233 8.8505 5.9199 8.84745 5.93694C8.84745 5.95254 8.55839 7.49694 8.40354 8.55774C8.39676 8.5833 8.39702 8.61024 8.4043 8.63567C8.41157 8.66109 8.42559 8.68404 8.44484 8.70204C8.61001 8.85024 9.15071 8.75014 9.34814 8.70204C9.35662 8.69991 9.36543 8.69947 9.37406 8.70077C9.3827 8.70206 9.391 8.70506 9.39849 8.70959C9.40598 8.71411 9.41251 8.72008 9.41771 8.72715C9.42291 8.73422 9.42668 8.74225 9.4288 8.75079C9.43092 8.75933 9.43134 8.7682 9.43006 8.7769C9.42877 8.7856 9.4258 8.79397 9.4213 8.80151C9.41681 8.80906 9.41089 8.81564 9.40387 8.82087C9.39685 8.82611 9.38888 8.82991 9.38041 8.83204C9.18232 8.88141 8.97923 8.90759 8.77519 8.91004Z" fill="#FFB38D"/>
<path id="Vector_29" d="M4.09082 3.81654C4.09082 3.81654 5.06252 0.500244 8.94675 0.500244C12.9587 0.500244 13.6698 4.07004 13.6698 4.07004L4.09082 3.81654Z" fill="#AD3320"/>
<path id="Vector_30" d="M3.84172 5.66899C3.84172 5.66899 5.83932 4.77719 8.94671 4.77719C12.0541 4.77719 14.0014 5.66899 14.0014 5.66899C14.0014 5.66899 14.1988 4.54709 14.1988 3.99979C14.1988 3.45249 12.027 2.47229 8.79314 2.47229C5.5593 2.47229 3.58492 3.42259 3.47136 3.73979C3.3578 4.05699 3.84172 5.66899 3.84172 5.66899Z" fill="#D43E20"/>
<path id="Vector_31" d="M4.70107 4.92035C5.06368 4.83715 4.80043 3.60735 4.48686 3.69965C4.17328 3.79195 4.33329 5.00095 4.70107 4.92035Z" fill="#AD3320"/>
<path id="Vector_32" d="M5.90018 4.55487C6.2628 4.47167 5.99955 3.24187 5.68597 3.33417C5.37239 3.42647 5.53757 4.63807 5.90018 4.55487Z" fill="#AD3320"/>
<path id="Vector_33" d="M7.16253 4.32489C7.52773 4.25079 7.29158 3.01449 6.978 3.09899C6.66442 3.18349 6.79863 4.40029 7.16253 4.32489Z" fill="#AD3320"/>
<path id="Vector_34" d="M8.39083 4.10379C8.7599 4.05049 8.59472 2.80379 8.27599 2.86879C7.95725 2.93379 8.02306 4.15709 8.39083 4.10379Z" fill="#AD3320"/>
<path id="Vector_35" d="M13.1086 4.92035C12.746 4.83715 13.0092 3.60735 13.3228 3.69965C13.6364 3.79195 13.4686 5.00095 13.1086 4.92035Z" fill="#AD3320"/>
<path id="Vector_36" d="M11.9069 4.55487C11.5443 4.47167 11.8075 3.24187 12.1211 3.33417C12.4347 3.42647 12.2695 4.63807 11.9069 4.55487Z" fill="#AD3320"/>
<path id="Vector_37" d="M10.6453 4.32489C10.2801 4.25079 10.5162 3.01449 10.8298 3.09899C11.1434 3.18349 11.0092 4.40029 10.6453 4.32489Z" fill="#AD3320"/>
<path id="Vector_38" d="M9.41663 4.10379C9.04756 4.05049 9.21274 2.80379 9.53148 2.86879C9.85022 2.93379 9.78441 4.15709 9.41663 4.10379Z" fill="#AD3320"/>
<path id="Vector_39" d="M12.9341 16.0834L10.7326 18.6041L9.20604 17.5875L7.81752 18.6041L5.18115 15.9911C5.56828 15.8728 5.92445 15.7766 6.21351 15.6895L9.20217 17.0844L11.9882 15.8C12.2773 15.8819 12.5986 15.9703 12.9341 16.0834Z" fill="white"/>
</g>
</g>
</svg>
