<svg width="23" height="23" viewBox="0 0 23 23" fill="none" xmlns="http://www.w3.org/2000/svg">
<g id="orbit_24dp_E8EAED_FILL0_wght400_GRAD0_opsz24 (1) 2">
<path id="Vector" d="M7.00807 10.9039C7.22196 10.4761 7.44349 10.0636 7.67266 9.66643C7.90182 9.2692 8.15391 8.87198 8.42891 8.47476L7.14557 8.22268L5.22057 10.1477L7.00807 10.9039ZM18.0539 4.60184C16.9845 4.6324 15.8424 4.94559 14.6279 5.54143C13.4133 6.13726 12.3095 6.9317 11.3164 7.92476C10.6747 8.56643 10.1018 9.25392 9.59766 9.98726C9.09349 10.7206 8.71918 11.4081 8.47474 12.0498L11.0872 14.6393C11.7289 14.3949 12.4164 14.0206 13.1497 13.5164C13.8831 13.0123 14.5706 12.4393 15.2122 11.7977C16.2053 10.8046 16.9997 9.70462 17.5956 8.49767C18.1914 7.29073 18.5046 6.15254 18.5352 5.08309C18.5352 5.02198 18.5237 4.96087 18.5008 4.89976C18.4779 4.83865 18.4435 4.78518 18.3977 4.73934C18.3518 4.69351 18.2983 4.65913 18.2372 4.63622C18.1761 4.6133 18.115 4.60184 18.0539 4.60184ZM13.0122 10.1018C12.6609 9.75045 12.4852 9.31886 12.4852 8.80705C12.4852 8.29524 12.6609 7.86365 13.0122 7.51226C13.3636 7.16087 13.799 6.98518 14.3185 6.98518C14.8379 6.98518 15.2733 7.16087 15.6247 7.51226C15.9761 7.86365 16.1518 8.29524 16.1518 8.80705C16.1518 9.31886 15.9761 9.75045 15.6247 10.1018C15.2733 10.4532 14.8379 10.6289 14.3185 10.6289C13.799 10.6289 13.3636 10.4532 13.0122 10.1018ZM12.2331 16.106L12.9893 17.9164L14.9143 15.9914L14.6622 14.7081C14.265 14.9831 13.8678 15.2314 13.4706 15.4529C13.0733 15.6744 12.6609 15.8921 12.2331 16.106ZM20.2768 3.86851C20.399 5.54906 20.124 7.18761 19.4518 8.78413C18.7796 10.3807 17.7178 11.9046 16.2664 13.356L16.7247 15.6248C16.7858 15.9303 16.7706 16.2282 16.6789 16.5185C16.5872 16.8088 16.4345 17.0609 16.2206 17.2748L13.3331 20.1623C13.1039 20.3914 12.8289 20.4793 12.5081 20.4258C12.1872 20.3723 11.9657 20.1928 11.8435 19.8873L10.4456 16.6102L6.52682 12.6914L3.24974 11.2935C2.94418 11.1713 2.76085 10.9498 2.69974 10.6289C2.63863 10.3081 2.72266 10.0331 2.95182 9.80393L5.83932 6.91643C6.05321 6.70254 6.30911 6.54976 6.60703 6.45809C6.90495 6.36643 7.20668 6.35115 7.51224 6.41226L9.78099 6.87059C11.2324 5.4192 12.7563 4.3574 14.3529 3.68518C15.9494 3.01295 17.5879 2.73795 19.2685 2.86018C19.3907 2.87545 19.5129 2.90983 19.6352 2.9633C19.7574 3.01677 19.8643 3.08934 19.956 3.18101C20.0477 3.27268 20.1202 3.37962 20.1737 3.50184C20.2272 3.62406 20.2615 3.74629 20.2768 3.86851ZM4.09766 15.1435C4.63238 14.6088 5.2855 14.3376 6.05703 14.33C6.82856 14.3223 7.48168 14.5859 8.01641 15.1206C8.55113 15.6553 8.81467 16.3084 8.80703 17.08C8.79939 17.8515 8.52821 18.5046 7.99349 19.0393C7.26016 19.7727 6.39314 20.2081 5.39245 20.3456C4.39175 20.4831 3.38724 20.6206 2.37891 20.7581C2.51641 19.7498 2.65391 18.7452 2.79141 17.7445C2.92891 16.7439 3.36432 15.8768 4.09766 15.1435ZM5.40391 16.4268C5.14418 16.6866 4.96467 16.9998 4.86536 17.3664C4.76606 17.7331 4.68585 18.1074 4.62474 18.4893C5.00668 18.4282 5.38099 18.3518 5.74766 18.2602C6.11432 18.1685 6.42752 17.9928 6.68724 17.7331C6.87057 17.5498 6.96988 17.3282 6.98516 17.0685C7.00043 16.8088 6.91641 16.5873 6.73307 16.4039C6.54974 16.2206 6.32821 16.1327 6.06849 16.1404C5.80877 16.148 5.58724 16.2435 5.40391 16.4268Z" fill="white"/>
</g>
</svg>
