<svg width="21" height="20" viewBox="0 0 21 20" fill="none" xmlns="http://www.w3.org/2000/svg">
<g id="&#209;&#129;&#208;&#186;&#208;&#184;&#208;&#189;">
<path id="Vector" d="M4.56305 7.75L7.16721 6.3125V11.25C6.87555 11.2778 6.59082 11.3229 6.31305 11.3854C6.03527 11.4479 5.76444 11.5347 5.50055 11.6458V9.14583L4.64638 9.60417C4.45194 9.71528 4.2436 9.73958 4.02138 9.67708C3.79916 9.61458 3.63249 9.48611 3.52138 9.29167L1.85471 6.39583C1.7436 6.20139 1.7193 5.98958 1.7818 5.76042C1.8443 5.53125 1.97277 5.36111 2.16721 5.25L6.31305 2.85417C6.47971 2.75694 6.65332 2.67361 6.83388 2.60417C7.01444 2.53472 7.20194 2.5 7.39638 2.5C7.59082 2.5 7.75749 2.55903 7.89638 2.67708C8.03527 2.79514 8.13944 2.94444 8.20888 3.125C8.40332 3.65278 8.6568 4.09722 8.9693 4.45833C9.2818 4.81944 9.79221 5 10.5005 5C11.2089 5 11.7193 4.81944 12.0318 4.45833C12.3443 4.09722 12.5978 3.65278 12.7922 3.125C12.8617 2.94444 12.9693 2.79514 13.1151 2.67708C13.261 2.55903 13.4311 2.5 13.6255 2.5C13.82 2.5 14.004 2.53472 14.1776 2.60417C14.3512 2.67361 14.5214 2.75694 14.688 2.85417L18.8339 5.25C19.0283 5.36111 19.1533 5.52778 19.2089 5.75C19.2644 5.97222 19.2367 6.18056 19.1255 6.375L17.4797 9.29167C17.3686 9.48611 17.2019 9.61458 16.9797 9.67708C16.7575 9.73958 16.5492 9.71528 16.3547 9.60417L15.5005 9.14583V13.1458L14.188 14.2917C14.1325 14.3333 14.0769 14.3715 14.0214 14.4062C13.9658 14.441 13.9033 14.4722 13.8339 14.5V6.3125L16.438 7.75L17.2714 6.29167L14.0839 4.4375C13.7505 5.11806 13.261 5.65972 12.6151 6.0625C11.9693 6.46528 11.2644 6.66667 10.5005 6.66667C9.73666 6.66667 9.0318 6.46528 8.38596 6.0625C7.74013 5.65972 7.25055 5.11806 6.91721 4.4375L3.70888 6.29167L4.56305 7.75ZM3.83388 15.5208C3.6811 15.3403 3.61513 15.1354 3.63596 14.9062C3.6568 14.6771 3.75749 14.4861 3.93805 14.3333L5.10471 13.3333C5.42416 13.0556 5.78874 12.8438 6.19846 12.6979C6.60819 12.5521 7.03527 12.4792 7.47971 12.4792C7.92416 12.4792 8.34777 12.5521 8.75055 12.6979C9.15332 12.8438 9.51444 13.0556 9.83388 13.3333L12.2505 15.3958C12.4172 15.5347 12.6151 15.6424 12.8443 15.7188C13.0735 15.7951 13.3061 15.8333 13.5422 15.8333C13.7922 15.8333 14.0249 15.7986 14.2401 15.7292C14.4554 15.6597 14.6464 15.5486 14.813 15.3958L15.9797 14.3958C16.1603 14.2431 16.3651 14.1736 16.5943 14.1875C16.8235 14.2014 17.0144 14.2986 17.1672 14.4792C17.32 14.6597 17.386 14.8646 17.3651 15.0938C17.3443 15.3229 17.2436 15.5139 17.063 15.6667L15.8964 16.6667C15.5769 16.9444 15.2158 17.1528 14.813 17.2917C14.4103 17.4306 13.9867 17.5 13.5422 17.5C13.0978 17.5 12.6707 17.4306 12.261 17.2917C11.8512 17.1528 11.4867 16.9444 11.1672 16.6667L8.75055 14.6042C8.58388 14.4653 8.39291 14.3576 8.17763 14.2812C7.96235 14.2049 7.72971 14.1667 7.47971 14.1667C7.2436 14.1667 7.01096 14.2049 6.7818 14.2812C6.55263 14.3576 6.35471 14.4653 6.18805 14.6042L5.00055 15.6042C4.81999 15.7569 4.6186 15.8264 4.39638 15.8125C4.17416 15.7986 3.98666 15.7014 3.83388 15.5208Z" fill="#D9DCE1"/>
</g>
</svg>
