<svg width="19" height="16" viewBox="0 0 19 16" fill="none" xmlns="http://www.w3.org/2000/svg">
<path d="M3.56305 5.75024L6.16721 4.31274V9.25024C5.87555 9.27802 5.59082 9.32316 5.31305 9.38566C5.03527 9.44816 4.76444 9.53497 4.50055 9.64608V7.14608L3.64638 7.60441C3.45194 7.71552 3.2436 7.73983 3.02138 7.67733C2.79916 7.61483 2.63249 7.48636 2.52138 7.29191L0.854714 4.39608C0.743602 4.20163 0.719297 3.98983 0.781797 3.76066C0.844297 3.53149 0.972769 3.36136 1.16721 3.25024L5.31305 0.854411C5.47971 0.757189 5.65332 0.673855 5.83388 0.604411C6.01444 0.534966 6.20194 0.500244 6.39638 0.500244C6.59082 0.500244 6.75749 0.559272 6.89638 0.677327C7.03527 0.795383 7.13944 0.944689 7.20888 1.12524C7.40332 1.65302 7.6568 2.09747 7.9693 2.45858C8.2818 2.81969 8.79221 3.00024 9.50055 3.00024C10.2089 3.00024 10.7193 2.81969 11.0318 2.45858C11.3443 2.09747 11.5978 1.65302 11.7922 1.12524C11.8617 0.944689 11.9693 0.795383 12.1151 0.677327C12.261 0.559272 12.4311 0.500244 12.6255 0.500244C12.82 0.500244 13.004 0.534966 13.1776 0.604411C13.3512 0.673855 13.5214 0.757189 13.688 0.854411L17.8339 3.25024C18.0283 3.36136 18.1533 3.52802 18.2089 3.75024C18.2644 3.97247 18.2367 4.1808 18.1255 4.37524L16.4797 7.29191C16.3686 7.48636 16.2019 7.61483 15.9797 7.67733C15.7575 7.73983 15.5492 7.71552 15.3547 7.60441L14.5005 7.14608V11.1461L13.188 12.2919C13.1325 12.3336 13.0769 12.3718 13.0214 12.4065C12.9658 12.4412 12.9033 12.4725 12.8339 12.5002V4.31274L15.438 5.75024L16.2714 4.29191L13.0839 2.43774C12.7505 3.1183 12.261 3.65997 11.6151 4.06274C10.9693 4.46552 10.2644 4.66691 9.50055 4.66691C8.73666 4.66691 8.0318 4.46552 7.38596 4.06274C6.74013 3.65997 6.25055 3.1183 5.91721 2.43774L2.70888 4.29191L3.56305 5.75024ZM2.83388 13.5211C2.6811 13.3405 2.61513 13.1357 2.63596 12.9065C2.6568 12.6773 2.75749 12.4864 2.93805 12.3336L4.10471 11.3336C4.42416 11.0558 4.78874 10.844 5.19846 10.6982C5.60819 10.5523 6.03527 10.4794 6.47971 10.4794C6.92416 10.4794 7.34777 10.5523 7.75055 10.6982C8.15332 10.844 8.51444 11.0558 8.83388 11.3336L11.2505 13.3961C11.4172 13.535 11.6151 13.6426 11.8443 13.719C12.0735 13.7954 12.3061 13.8336 12.5422 13.8336C12.7922 13.8336 13.0249 13.7989 13.2401 13.7294C13.4554 13.66 13.6464 13.5489 13.813 13.3961L14.9797 12.3961C15.1603 12.2433 15.3651 12.1739 15.5943 12.1877C15.8235 12.2016 16.0144 12.2989 16.1672 12.4794C16.32 12.66 16.386 12.8648 16.3651 13.094C16.3443 13.3232 16.2436 13.5141 16.063 13.6669L14.8964 14.6669C14.5769 14.9447 14.2158 15.153 13.813 15.2919C13.4103 15.4308 12.9867 15.5002 12.5422 15.5002C12.0978 15.5002 11.6707 15.4308 11.261 15.2919C10.8512 15.153 10.4867 14.9447 10.1672 14.6669L7.75055 12.6044C7.58388 12.4655 7.39291 12.3579 7.17763 12.2815C6.96235 12.2051 6.72971 12.1669 6.47971 12.1669C6.2436 12.1669 6.01096 12.2051 5.7818 12.2815C5.55263 12.3579 5.35471 12.4655 5.18805 12.6044L4.00055 13.6044C3.81999 13.7572 3.6186 13.8266 3.39638 13.8127C3.17416 13.7989 2.98666 13.7016 2.83388 13.5211Z" fill="#D9DCE1"/>
</svg>
