<svg width="16" height="18" viewBox="0 0 16 18" fill="none" xmlns="http://www.w3.org/2000/svg">
<path fill-rule="evenodd" clip-rule="evenodd" d="M15.3565 11.4932C15.3892 11.6627 15.2783 11.8265 15.1088 11.8592L13.7002 12.1309L14.0377 13.3904C14.0823 13.5571 13.9834 13.7285 13.8167 13.7732C13.65 13.8178 13.4786 13.7189 13.434 13.5522L13.0096 11.9684C12.9872 11.8846 13.0005 11.7953 13.0466 11.7218C13.0926 11.6482 13.1671 11.5971 13.2523 11.5807L14.9905 11.2455C15.16 11.2128 15.3238 11.3237 15.3565 11.4932Z" fill="#75C4FE"/>
<path fill-rule="evenodd" clip-rule="evenodd" d="M2.87746 5.60836C2.91809 5.75998 2.83994 5.9182 2.69485 5.9781L1.34281 6.53624C1.18328 6.60209 1.00057 6.52616 0.934714 6.36662C0.868858 6.20709 0.944796 6.02438 1.10433 5.95853L2.20274 5.50509L1.88204 4.3082C1.83737 4.14149 1.9363 3.97014 2.10301 3.92547C2.26972 3.8808 2.44107 3.97973 2.48574 4.14644L2.87746 5.60836Z" fill="#75C4FE"/>
<path fill-rule="evenodd" clip-rule="evenodd" d="M13.9668 3.92141C14.1297 3.97845 14.2155 4.15674 14.1585 4.31963L13.6843 5.67363L14.9426 6.01582C15.1092 6.06111 15.2074 6.23284 15.1622 6.39938C15.1169 6.56592 14.9451 6.66421 14.7786 6.61892L13.1964 6.18866C13.1127 6.16589 13.0423 6.10936 13.0019 6.03258C12.9615 5.95581 12.9548 5.8657 12.9835 5.78383L13.5686 4.11307C13.6256 3.95018 13.8039 3.86437 13.9668 3.92141Z" fill="#75C4FE"/>
<path fill-rule="evenodd" clip-rule="evenodd" d="M2.60119 11.7438C2.75265 11.785 2.85006 11.9322 2.82881 12.0877L2.63075 13.5369C2.60738 13.7079 2.44981 13.8276 2.27881 13.8042C2.10781 13.7809 1.98813 13.6233 2.0115 13.4523L2.17241 12.2749L0.976727 11.9497C0.810187 11.9045 0.711894 11.7327 0.757184 11.5662C0.802474 11.3996 0.974197 11.3014 1.14074 11.3466L2.60119 11.7438Z" fill="#75C4FE"/>
<path fill-rule="evenodd" clip-rule="evenodd" d="M6.66692 1.32269C6.79734 1.20966 6.99471 1.22375 7.10774 1.35418L8.04732 2.4383L8.96938 1.51624C9.09142 1.3942 9.28929 1.3942 9.41133 1.51624C9.53336 1.63828 9.53336 1.83614 9.41133 1.95818L8.25194 3.11756C8.1906 3.1789 8.10652 3.21199 8.01983 3.20889C7.93314 3.2058 7.85163 3.16681 7.79482 3.10126L6.63543 1.76351C6.5224 1.63309 6.5365 1.43572 6.66692 1.32269Z" fill="#75C4FE"/>
<path fill-rule="evenodd" clip-rule="evenodd" d="M7.81017 15.072C7.92116 14.961 8.09726 14.9496 8.22167 15.0453L9.38106 15.9371C9.51785 16.0423 9.54345 16.2385 9.43822 16.3753C9.33299 16.5121 9.13679 16.5377 8.99999 16.4325L8.05809 15.708L7.18191 16.5841C7.05987 16.7062 6.86201 16.7062 6.73997 16.5841C6.61793 16.4621 6.61793 16.2642 6.73997 16.1422L7.81017 15.072Z" fill="#75C4FE"/>
<path fill-rule="evenodd" clip-rule="evenodd" d="M15.6032 13.2108C15.4881 13.4101 15.2333 13.4784 15.034 13.3633L0.745527 5.11384C0.546239 4.99878 0.477957 4.74395 0.593016 4.54466C0.708076 4.34537 0.962905 4.27709 1.16219 4.39215L15.4507 12.6416C15.65 12.7567 15.7182 13.0115 15.6032 13.2108Z" fill="#43AEFC"/>
<path fill-rule="evenodd" clip-rule="evenodd" d="M14.8853 10.0645C14.9602 10.2821 14.8445 10.5192 14.627 10.5941L12.375 11.3691L12.6548 13.6911C12.6823 13.9196 12.5194 14.1271 12.2909 14.1547C12.0625 14.1822 11.8549 14.0193 11.8274 13.7908L11.5074 11.1345C11.4839 10.9395 11.5997 10.7546 11.7855 10.6907L14.3558 9.80613C14.5734 9.73125 14.8105 9.84694 14.8853 10.0645Z" fill="#43AEFC"/>
<path fill-rule="evenodd" clip-rule="evenodd" d="M4.68789 6.61182C4.71442 6.79948 4.61095 6.98141 4.43609 7.05455L2.2639 7.96301C2.0516 8.0518 1.80752 7.95168 1.71873 7.73938C1.62994 7.52708 1.73007 7.283 1.94237 7.19421L3.81772 6.40989L3.49814 4.14941C3.46592 3.92156 3.62452 3.71074 3.85237 3.67852C4.08022 3.64631 4.29105 3.80491 4.32326 4.03276L4.68789 6.61182Z" fill="#43AEFC"/>
<path fill-rule="evenodd" clip-rule="evenodd" d="M15.5747 4.57243C15.689 4.77215 15.6197 5.02672 15.42 5.14104L1.10091 13.3372C0.901194 13.4515 0.646621 13.3823 0.532305 13.1826C0.417989 12.9829 0.487219 12.7283 0.686935 12.614L15.0061 4.4178C15.2058 4.30349 15.4603 4.37272 15.5747 4.57243Z" fill="#43AEFC"/>
<path fill-rule="evenodd" clip-rule="evenodd" d="M12.4953 3.60941C12.721 3.65419 12.8677 3.87348 12.8229 4.0992L12.3594 6.43524L14.5068 7.36199C14.7181 7.45317 14.8154 7.69836 14.7242 7.90965C14.6331 8.12093 14.3879 8.21829 14.1766 8.12711L11.7201 7.06695C11.5398 6.98913 11.4383 6.79595 11.4765 6.6033L12.0055 3.93702C12.0503 3.7113 12.2696 3.56462 12.4953 3.60941Z" fill="#43AEFC"/>
<path fill-rule="evenodd" clip-rule="evenodd" d="M4.37948 10.6847C4.55501 10.7562 4.66015 10.9372 4.63536 11.1251L4.32732 13.4593C4.29722 13.6875 4.08787 13.848 3.85973 13.8179C3.63158 13.7878 3.47105 13.5784 3.50115 13.3503L3.76709 11.335L1.65287 10.4737C1.43976 10.3868 1.33738 10.1437 1.42421 9.93059C1.51103 9.71748 1.75417 9.6151 1.96728 9.70192L4.37948 10.6847Z" fill="#43AEFC"/>
<path fill-rule="evenodd" clip-rule="evenodd" d="M8.03092 0.250244C8.26104 0.250244 8.44759 0.436792 8.44759 0.666911V17.1658C8.44759 17.396 8.26104 17.5825 8.03092 17.5825C7.80081 17.5825 7.61426 17.396 7.61426 17.1658V0.666911C7.61426 0.436792 7.80081 0.250244 8.03092 0.250244Z" fill="#43AEFC"/>
<path fill-rule="evenodd" clip-rule="evenodd" d="M5.66524 2.44469C5.81624 2.27104 6.07942 2.25268 6.25307 2.40368L8.05022 3.96642L9.92128 2.56313C10.1054 2.42506 10.3665 2.46237 10.5046 2.64646C10.6427 2.83056 10.6054 3.09172 10.4213 3.2298L8.28088 4.8351C8.12376 4.95294 7.90568 4.94506 7.75747 4.81618L5.70625 3.03251C5.5326 2.88152 5.51424 2.61834 5.66524 2.44469Z" fill="#43AEFC"/>
<path fill-rule="evenodd" clip-rule="evenodd" d="M7.7741 13.0028C7.92336 12.8859 8.13265 12.8846 8.28341 12.9995L10.1563 14.4264C10.3393 14.5658 10.3746 14.8273 10.2352 15.0103C10.0957 15.1934 9.83427 15.2287 9.65122 15.0892L8.0343 13.8573L6.23647 15.2643C6.05525 15.4061 5.79337 15.3742 5.65155 15.193C5.50972 15.0118 5.54166 14.7499 5.72288 14.6081L7.7741 13.0028Z" fill="#43AEFC"/>
<path fill-rule="evenodd" clip-rule="evenodd" d="M5.58166 4.7724C5.69424 4.70233 5.83346 4.69002 5.95659 4.73928L8.05181 5.57736L10.321 4.90501C10.435 4.87123 10.558 4.88776 10.659 4.95044C10.7601 5.01312 10.8295 5.11598 10.8499 5.23311L11.1829 7.14789L12.6875 8.56892C12.7723 8.64897 12.8196 8.76088 12.818 8.87745C12.8165 8.99403 12.7661 9.10462 12.6792 9.18236L11.0801 10.6132L10.4869 12.9862C10.4572 13.105 10.3767 13.2047 10.2668 13.2588C10.157 13.313 10.0288 13.316 9.91651 13.2672L8.00908 12.4379L5.92883 13.1036C5.80747 13.1424 5.67501 13.1236 5.56928 13.0524C5.46355 12.9813 5.39618 12.8657 5.3864 12.7387L5.22418 10.6298L3.26224 9.40354C3.14574 9.33073 3.07261 9.20516 3.06678 9.06789C3.06095 8.93063 3.12316 8.79931 3.23307 8.71688L5.22251 7.2248L5.3864 5.09418C5.39657 4.96196 5.46908 4.84248 5.58166 4.7724ZM6.17377 5.72368L6.03891 7.47686C6.02972 7.59645 5.96943 7.70628 5.87347 7.77824L4.21921 9.01894L5.84431 10.0346C5.95653 10.1048 6.02876 10.2241 6.03891 10.356L6.17686 12.1492L7.90444 11.5964C8.0007 11.5656 8.10487 11.5708 8.19756 11.6111L9.79771 12.3069L10.3027 10.2869C10.3229 10.206 10.367 10.133 10.4291 10.0774L11.7858 8.86355L10.51 7.65865C10.4447 7.59691 10.401 7.5157 10.3856 7.42712L10.1091 5.83695L8.1498 6.41747C8.05993 6.4441 7.96371 6.43965 7.87668 6.40484L6.17377 5.72368Z" fill="#43AEFC"/>
<path fill-rule="evenodd" clip-rule="evenodd" d="M8.02396 5.70544C8.14233 5.70265 8.2521 5.767 8.3075 5.87164L9.01237 7.20307L10.6772 7.04451C10.7927 7.03351 10.9048 7.08742 10.9683 7.18452C11.0319 7.28163 11.0363 7.40593 10.98 7.50737L10.1807 8.9461L10.9668 10.1253C11.0308 10.2212 11.0367 10.3445 10.9823 10.4461C10.928 10.5477 10.8221 10.6112 10.7068 10.6112H9.03172L8.31373 12.1269C8.26197 12.2362 8.15183 12.3058 8.03092 12.3056C7.91001 12.3055 7.80004 12.2356 7.74856 12.1262L7.10955 10.7683L5.67804 10.6092C5.56964 10.5972 5.47536 10.5295 5.42929 10.4306C5.38322 10.3318 5.39203 10.2161 5.45253 10.1253L6.2288 8.9609L5.27416 7.52895C5.20713 7.42839 5.20408 7.29819 5.26634 7.19461C5.32861 7.09102 5.44502 7.03263 5.56527 7.04465L7.12915 7.20104L7.74856 5.88479C7.79897 5.77766 7.9056 5.70823 8.02396 5.70544ZM8.04776 6.71682L7.6006 7.66703C7.54423 7.78682 7.41849 7.85809 7.28675 7.84492L6.16091 7.73234L6.8644 8.78756C6.93438 8.89253 6.93438 9.02928 6.8644 9.13425L6.25738 10.0448L7.35236 10.1664C7.46034 10.1784 7.55434 10.2457 7.6006 10.344L8.03224 11.2612L8.55155 10.1649C8.60324 10.0557 8.7132 9.98615 8.83396 9.98615H10.1229L9.55497 9.13425C9.49006 9.03689 9.48498 8.91143 9.54181 8.80914L10.1452 7.723L8.86359 7.84506C8.73768 7.85705 8.61696 7.79197 8.55778 7.68019L8.04776 6.71682Z" fill="#75C4FE"/>
</svg>
