<svg width="12" height="12" viewBox="0 0 12 12" fill="none" xmlns="http://www.w3.org/2000/svg">
<path d="M5.5 8.925L4.2125 10.1875C4.12083 10.2792 4.00625 10.325 3.86875 10.325C3.73125 10.325 3.61667 10.275 3.525 10.175C3.425 10.0833 3.375 9.96875 3.375 9.83125C3.375 9.69375 3.425 9.575 3.525 9.475L5.5 7.5V6.5H4.5L2.5125 8.4875C2.42083 8.57917 2.30625 8.625 2.16875 8.625C2.03125 8.625 1.9125 8.575 1.8125 8.475C1.72083 8.38333 1.675 8.26875 1.675 8.13125C1.675 7.99375 1.72083 7.87917 1.8125 7.7875L3.075 6.5H1.4875C1.34583 6.5 1.22917 6.45208 1.1375 6.35625C1.04583 6.26042 1 6.14167 1 6C1 5.85833 1.04792 5.73958 1.14375 5.64375C1.23958 5.54792 1.35833 5.5 1.5 5.5H3.075L1.8125 4.225C1.72083 4.13333 1.675 4.01875 1.675 3.88125C1.675 3.74375 1.725 3.625 1.825 3.525C1.91667 3.43333 2.03125 3.3875 2.16875 3.3875C2.30625 3.3875 2.425 3.43333 2.525 3.525L4.5 5.5H5.5V4.5L3.5125 2.525C3.42083 2.43333 3.375 2.31875 3.375 2.18125C3.375 2.04375 3.425 1.925 3.525 1.825C3.61667 1.73333 3.73125 1.6875 3.86875 1.6875C4.00625 1.6875 4.12083 1.73333 4.2125 1.825L5.5 3.075V1.5C5.5 1.35833 5.54792 1.23958 5.64375 1.14375C5.73958 1.04792 5.85833 1 6 1C6.14167 1 6.26042 1.04792 6.35625 1.14375C6.45208 1.23958 6.5 1.35833 6.5 1.5V3.075L7.775 1.825C7.86667 1.73333 7.98125 1.6875 8.11875 1.6875C8.25625 1.6875 8.375 1.73333 8.475 1.825C8.56667 1.925 8.6125 2.04375 8.6125 2.18125C8.6125 2.31875 8.56667 2.43333 8.475 2.525L6.5 4.5V5.5H7.5L9.475 3.525C9.56667 3.43333 9.68125 3.3875 9.81875 3.3875C9.95625 3.3875 10.075 3.4375 10.175 3.5375C10.2667 3.62917 10.3125 3.74375 10.3125 3.88125C10.3125 4.01875 10.2667 4.13333 10.175 4.225L8.925 5.5H10.5C10.6417 5.5 10.7604 5.54792 10.8562 5.64375C10.9521 5.73958 11 5.85833 11 6C11 6.14167 10.9521 6.26042 10.8562 6.35625C10.7604 6.45208 10.6417 6.5 10.5 6.5H8.925L10.175 7.7875C10.2667 7.87917 10.3125 7.99375 10.3125 8.13125C10.3125 8.26875 10.2667 8.38333 10.175 8.475C10.075 8.575 9.95625 8.625 9.81875 8.625C9.68125 8.625 9.56667 8.575 9.475 8.475L7.5 6.5H6.5V7.5L8.475 9.4875C8.56667 9.57917 8.6125 9.69375 8.6125 9.83125C8.6125 9.96875 8.5625 10.0875 8.4625 10.1875C8.37083 10.2792 8.25625 10.325 8.11875 10.325C7.98125 10.325 7.86667 10.2792 7.775 10.1875L6.5 8.925V10.5125C6.5 10.6542 6.45208 10.7708 6.35625 10.8625C6.26042 10.9542 6.14167 11 6 11C5.85833 11 5.73958 10.9521 5.64375 10.8562C5.54792 10.7604 5.5 10.6417 5.5 10.5V8.925Z" fill="#FDFAE8"/>
</svg>
