<svg width="15" height="14" viewBox="0 0 15 14" fill="none" xmlns="http://www.w3.org/2000/svg">
<g id="&#208;&#183;&#208;&#178;&#208;&#181;&#208;&#183;&#208;&#180;&#208;&#190;&#209;&#135;&#208;&#186;&#208;&#176;">
<path id="Vector" d="M7.75011 10.6779L5.11104 12.3426C4.99446 12.4203 4.87258 12.4536 4.74539 12.4425C4.61821 12.4314 4.50692 12.387 4.41153 12.3093C4.31615 12.2316 4.24196 12.1345 4.18896 12.018C4.13597 11.9015 4.12537 11.7711 4.15717 11.6268L4.85668 8.48061L2.51968 6.3665C2.41369 6.26662 2.34745 6.15287 2.32095 6.02525C2.29445 5.89763 2.3024 5.77278 2.3448 5.6507C2.38719 5.52863 2.45078 5.42875 2.53557 5.35107C2.62036 5.27338 2.73695 5.22344 2.88533 5.20125L5.96954 4.91826L7.16188 1.95518C7.21488 1.82201 7.29702 1.72213 7.4083 1.65554C7.51959 1.58896 7.63352 1.55566 7.75011 1.55566C7.86669 1.55566 7.98063 1.58896 8.09192 1.65554C8.2032 1.72213 8.28534 1.82201 8.33833 1.95518L9.53068 4.91826L12.6149 5.20125C12.7633 5.22344 12.8799 5.27338 12.9646 5.35107C13.0494 5.42875 13.113 5.52863 13.1554 5.6507C13.1978 5.77278 13.2058 5.89763 13.1793 6.02525C13.1528 6.15287 13.0865 6.26662 12.9805 6.3665L10.6435 8.48061L11.3431 11.6268C11.3748 11.7711 11.3642 11.9015 11.3113 12.018C11.2583 12.1345 11.1841 12.2316 11.0887 12.3093C10.9933 12.387 10.882 12.4314 10.7548 12.4425C10.6276 12.4536 10.5058 12.4203 10.3892 12.3426L7.75011 10.6779Z" fill="#2F80ED"/>
</g>
</svg>
