<svg width="12" height="12" viewBox="0 0 12 12" fill="none" xmlns="http://www.w3.org/2000/svg">
<g clip-path="url(#clip0_707_11402)">
<path d="M5.47534 6.35024L4.75034 5.63774C4.65868 5.54608 4.54409 5.50024 4.40659 5.50024C4.26909 5.50024 4.15034 5.55024 4.05034 5.65024C3.95868 5.74191 3.91284 5.85858 3.91284 6.00024C3.91284 6.14191 3.95868 6.25858 4.05034 6.35024L5.12534 7.42524C5.22534 7.52524 5.34201 7.57524 5.47534 7.57524C5.60868 7.57524 5.72534 7.52524 5.82534 7.42524L7.95034 5.30024C8.05034 5.20024 8.09826 5.08358 8.09409 4.95024C8.08993 4.81691 8.04201 4.70024 7.95034 4.60024C7.85034 4.50024 7.73159 4.44816 7.59409 4.44399C7.45659 4.43983 7.33784 4.48774 7.23784 4.58774L5.47534 6.35024ZM4.07534 10.8752L3.35034 9.65024L1.97534 9.35024C1.85034 9.32524 1.75034 9.26066 1.67534 9.15649C1.60034 9.05233 1.57118 8.93774 1.58784 8.81274L1.72534 7.40024L0.787842 6.32524C0.704508 6.23358 0.662842 6.12524 0.662842 6.00024C0.662842 5.87524 0.704508 5.76691 0.787842 5.67524L1.72534 4.60024L1.58784 3.18774C1.57118 3.06274 1.60034 2.94816 1.67534 2.84399C1.75034 2.73983 1.85034 2.67524 1.97534 2.65024L3.35034 2.35024L4.07534 1.12524C4.14201 1.01691 4.23368 0.943992 4.35034 0.906492C4.46701 0.868992 4.58368 0.875242 4.70034 0.925242L6.00034 1.47524L7.30034 0.925242C7.41701 0.875242 7.53368 0.868992 7.65034 0.906492C7.76701 0.943992 7.85868 1.01691 7.92534 1.12524L8.65034 2.35024L10.0253 2.65024C10.1503 2.67524 10.2503 2.73983 10.3253 2.84399C10.4003 2.94816 10.4295 3.06274 10.4128 3.18774L10.2753 4.60024L11.2128 5.67524C11.2962 5.76691 11.3378 5.87524 11.3378 6.00024C11.3378 6.12524 11.2962 6.23358 11.2128 6.32524L10.2753 7.40024L10.4128 8.81274C10.4295 8.93774 10.4003 9.05233 10.3253 9.15649C10.2503 9.26066 10.1503 9.32524 10.0253 9.35024L8.65034 9.65024L7.92534 10.8752C7.85868 10.9836 7.76701 11.0565 7.65034 11.094C7.53368 11.1315 7.41701 11.1252 7.30034 11.0752L6.00034 10.5252L4.70034 11.0752C4.58368 11.1252 4.46701 11.1315 4.35034 11.094C4.23368 11.0565 4.14201 10.9836 4.07534 10.8752ZM4.72534 9.97524L6.00034 9.42524L7.30034 9.97524L8.00034 8.77524L9.37534 8.45024L9.25034 7.05024L10.1753 6.00024L9.25034 4.92524L9.37534 3.52524L8.00034 3.22524L7.27534 2.02524L6.00034 2.57524L4.70034 2.02524L4.00034 3.22524L2.62534 3.52524L2.75034 4.92524L1.82534 6.00024L2.75034 7.05024L2.62534 8.47524L4.00034 8.77524L4.72534 9.97524Z" fill="white"/>
</g>
<defs>
<clipPath id="clip0_707_11402">
<rect width="12" height="12" fill="white" transform="translate(0 0.000244141)"/>
</clipPath>
</defs>
</svg>
