<svg width="12" height="12" viewBox="0 0 12 12" fill="none" xmlns="http://www.w3.org/2000/svg">
<g clip-path="url(#clip0_613_597)">
<path d="M5.47522 6.35024L4.75022 5.63774C4.65855 5.54608 4.54397 5.50024 4.40647 5.50024C4.26897 5.50024 4.15022 5.55024 4.05022 5.65024C3.95855 5.74191 3.91272 5.85858 3.91272 6.00024C3.91272 6.14191 3.95855 6.25858 4.05022 6.35024L5.12522 7.42524C5.22522 7.52524 5.34189 7.57524 5.47522 7.57524C5.60855 7.57524 5.72522 7.52524 5.82522 7.42524L7.95022 5.30024C8.05022 5.20024 8.09814 5.08358 8.09397 4.95024C8.0898 4.81691 8.04189 4.70024 7.95022 4.60024C7.85022 4.50024 7.73147 4.44816 7.59397 4.44399C7.45647 4.43983 7.33772 4.48774 7.23772 4.58774L5.47522 6.35024ZM4.07522 10.8752L3.35022 9.65024L1.97522 9.35024C1.85022 9.32524 1.75022 9.26066 1.67522 9.15649C1.60022 9.05233 1.57105 8.93774 1.58772 8.81274L1.72522 7.40024L0.78772 6.32524C0.704386 6.23358 0.66272 6.12524 0.66272 6.00024C0.66272 5.87524 0.704386 5.76691 0.78772 5.67524L1.72522 4.60024L1.58772 3.18774C1.57105 3.06274 1.60022 2.94816 1.67522 2.84399C1.75022 2.73983 1.85022 2.67524 1.97522 2.65024L3.35022 2.35024L4.07522 1.12524C4.14189 1.01691 4.23355 0.943992 4.35022 0.906492C4.46689 0.868992 4.58355 0.875242 4.70022 0.925242L6.00022 1.47524L7.30022 0.925242C7.41689 0.875242 7.53355 0.868992 7.65022 0.906492C7.76689 0.943992 7.85855 1.01691 7.92522 1.12524L8.65022 2.35024L10.0252 2.65024C10.1502 2.67524 10.2502 2.73983 10.3252 2.84399C10.4002 2.94816 10.4294 3.06274 10.4127 3.18774L10.2752 4.60024L11.2127 5.67524C11.2961 5.76691 11.3377 5.87524 11.3377 6.00024C11.3377 6.12524 11.2961 6.23358 11.2127 6.32524L10.2752 7.40024L10.4127 8.81274C10.4294 8.93774 10.4002 9.05233 10.3252 9.15649C10.2502 9.26066 10.1502 9.32524 10.0252 9.35024L8.65022 9.65024L7.92522 10.8752C7.85855 10.9836 7.76689 11.0565 7.65022 11.094C7.53355 11.1315 7.41689 11.1252 7.30022 11.0752L6.00022 10.5252L4.70022 11.0752C4.58355 11.1252 4.46689 11.1315 4.35022 11.094C4.23355 11.0565 4.14189 10.9836 4.07522 10.8752ZM4.72522 9.97524L6.00022 9.42524L7.30022 9.97524L8.00022 8.77524L9.37522 8.45024L9.25022 7.05024L10.1752 6.00024L9.25022 4.92524L9.37522 3.52524L8.00022 3.22524L7.27522 2.02524L6.00022 2.57524L4.70022 2.02524L4.00022 3.22524L2.62522 3.52524L2.75022 4.92524L1.82522 6.00024L2.75022 7.05024L2.62522 8.47524L4.00022 8.77524L4.72522 9.97524Z" fill="white"/>
</g>
<defs>
<clipPath id="clip0_613_597">
<rect width="12" height="12" fill="white" transform="translate(0 0.000244141)"/>
</clipPath>
</defs>
</svg>
