<svg width="16" height="16" viewBox="0 0 16 16" fill="none" xmlns="http://www.w3.org/2000/svg">
<path d="M7.99995 13.2543L4.22985 15.6324C4.0633 15.7433 3.88918 15.7909 3.70749 15.7751C3.5258 15.7592 3.36682 15.6958 3.23055 15.5848C3.09429 15.4738 2.9883 15.3351 2.91259 15.1686C2.83689 15.0022 2.82175 14.8159 2.86717 14.6098L3.86647 10.1152L0.527898 7.0951C0.376489 6.95241 0.281858 6.78991 0.244006 6.60759C0.206154 6.42527 0.217509 6.24692 0.278073 6.07253C0.338637 5.89814 0.429482 5.75545 0.55061 5.64447C0.671737 5.5335 0.838287 5.46216 1.05026 5.43045L5.45627 5.02618L7.15962 0.79321C7.23533 0.602964 7.35267 0.46028 7.51165 0.365157C7.67063 0.270035 7.8334 0.222473 7.99995 0.222473C8.1665 0.222473 8.32926 0.270035 8.48824 0.365157C8.64722 0.46028 8.76456 0.602964 8.84027 0.79321L10.5436 5.02618L14.9496 5.43045C15.1616 5.46216 15.3282 5.5335 15.4493 5.64447C15.5704 5.75545 15.6613 5.89814 15.7218 6.07253C15.7824 6.24692 15.7937 6.42527 15.7559 6.60759C15.718 6.78991 15.6234 6.95241 15.472 7.0951L12.1334 10.1152L13.1327 14.6098C13.1781 14.8159 13.163 15.0022 13.0873 15.1686C13.0116 15.3351 12.9056 15.4738 12.7693 15.5848C12.6331 15.6958 12.4741 15.7592 12.2924 15.7751C12.1107 15.7909 11.9366 15.7433 11.77 15.6324L7.99995 13.2543Z" fill="#D9DCE1"/>
</svg>
