<svg width="14" height="14" viewBox="0 0 14 14" fill="none" xmlns="http://www.w3.org/2000/svg">
<g id="&#208;&#183;&#208;&#178;&#208;&#181;&#208;&#183;&#208;&#180;&#208;&#176;">
<path id="Vector" d="M6.38763 7.40864L5.54178 6.57737C5.43484 6.47043 5.30115 6.41695 5.14073 6.41695C4.98031 6.41695 4.84177 6.47529 4.7251 6.59196C4.61816 6.6989 4.56468 6.83501 4.56468 7.0003C4.56468 7.16558 4.61816 7.30169 4.7251 7.40864L5.97929 8.66283C6.09596 8.77949 6.23207 8.83783 6.38763 8.83783C6.54319 8.83783 6.6793 8.77949 6.79597 8.66283L9.27518 6.18361C9.39185 6.06695 9.44775 5.93083 9.44289 5.77527C9.43803 5.61972 9.38213 5.4836 9.27518 5.36693C9.15851 5.25027 9.01997 5.1895 8.85955 5.18464C8.69913 5.17978 8.56059 5.23568 8.44392 5.35235L6.38763 7.40864ZM4.75427 12.6879L3.90842 11.2587L2.30423 10.9087C2.15839 10.8795 2.04172 10.8042 1.95422 10.6827C1.86672 10.5611 1.83269 10.4274 1.85213 10.2816L2.01255 8.63366L0.918785 7.37947C0.821561 7.27252 0.772949 7.14613 0.772949 7.0003C0.772949 6.85446 0.821561 6.72807 0.918785 6.62112L2.01255 5.36693L1.85213 3.71899C1.83269 3.57315 1.86672 3.43947 1.95422 3.31794C2.04172 3.19641 2.15839 3.12106 2.30423 3.09189L3.90842 2.74189L4.75427 1.3127C4.83205 1.18631 4.93899 1.10123 5.07511 1.05748C5.21122 1.01373 5.34734 1.02102 5.48345 1.07936L7.00014 1.72104L8.51684 1.07936C8.65295 1.02102 8.78906 1.01373 8.92518 1.05748C9.06129 1.10123 9.16824 1.18631 9.24601 1.3127L10.0919 2.74189L11.6961 3.09189C11.8419 3.12106 11.9586 3.19641 12.0461 3.31794C12.1336 3.43947 12.1676 3.57315 12.1481 3.71899L11.9877 5.36693L13.0815 6.62112C13.1787 6.72807 13.2273 6.85446 13.2273 7.0003C13.2273 7.14613 13.1787 7.27252 13.0815 7.37947L11.9877 8.63366L12.1481 10.2816C12.1676 10.4274 12.1336 10.5611 12.0461 10.6827C11.9586 10.8042 11.8419 10.8795 11.6961 10.9087L10.0919 11.2587L9.24601 12.6879C9.16824 12.8143 9.06129 12.8994 8.92518 12.9431C8.78906 12.9869 8.65295 12.9796 8.51684 12.9212L7.00014 12.2796L5.48345 12.9212C5.34734 12.9796 5.21122 12.9869 5.07511 12.9431C4.93899 12.8994 4.83205 12.8143 4.75427 12.6879ZM5.51262 11.6379L7.00014 10.9962L8.51684 11.6379L9.33352 10.2379L10.9377 9.85868L10.7919 8.22532L11.8711 7.0003L10.7919 5.74611L10.9377 4.11275L9.33352 3.76274L8.48767 2.36271L7.00014 3.00439L5.48345 2.36271L4.66677 3.76274L3.06257 4.11275L3.20841 5.74611L2.12922 7.0003L3.20841 8.22532L3.06257 9.88785L4.66677 10.2379L5.51262 11.6379Z" fill="#505B78"/>
</g>
</svg>
