<svg width="18" height="16" viewBox="0 0 18 16" fill="none" xmlns="http://www.w3.org/2000/svg">
<path d="M1.66667 15.2502C1.40694 15.2502 1.18924 15.1624 1.01354 14.9867C0.837847 14.811 0.75 14.5933 0.75 14.3336V13.4169C0.75 13.1572 0.837847 12.9395 1.01354 12.7638C1.18924 12.5881 1.40694 12.5002 1.66667 12.5002C1.92639 12.5002 2.1441 12.5881 2.31979 12.7638C2.49549 12.9395 2.58333 13.1572 2.58333 13.4169V14.3336C2.58333 14.5933 2.49549 14.811 2.31979 14.9867C2.1441 15.1624 1.92639 15.2502 1.66667 15.2502ZM5.33333 15.2502C5.07361 15.2502 4.8559 15.1624 4.68021 14.9867C4.50451 14.811 4.41667 14.5933 4.41667 14.3336V9.29189C4.41667 9.03217 4.50451 8.81446 4.68021 8.63876C4.8559 8.46307 5.07361 8.37522 5.33333 8.37522C5.59306 8.37522 5.81076 8.46307 5.98646 8.63876C6.16215 8.81446 6.25 9.03217 6.25 9.29189V14.3336C6.25 14.5933 6.16215 14.811 5.98646 14.9867C5.81076 15.1624 5.59306 15.2502 5.33333 15.2502ZM9 15.2502C8.74028 15.2502 8.52257 15.1624 8.34688 14.9867C8.17118 14.811 8.08333 14.5933 8.08333 14.3336V11.1252C8.08333 10.8655 8.17118 10.6478 8.34688 10.4721C8.52257 10.2964 8.74028 10.2086 9 10.2086C9.25972 10.2086 9.47743 10.2964 9.65312 10.4721C9.82882 10.6478 9.91667 10.8655 9.91667 11.1252V14.3336C9.91667 14.5933 9.82882 14.811 9.65312 14.9867C9.47743 15.1624 9.25972 15.2502 9 15.2502ZM12.6667 15.2502C12.4069 15.2502 12.1892 15.1624 12.0135 14.9867C11.8378 14.811 11.75 14.5933 11.75 14.3336V9.75022C11.75 9.4905 11.8378 9.27279 12.0135 9.0971C12.1892 8.9214 12.4069 8.83356 12.6667 8.83356C12.9264 8.83356 13.1441 8.9214 13.3198 9.0971C13.4955 9.27279 13.5833 9.4905 13.5833 9.75022V14.3336C13.5833 14.5933 13.4955 14.811 13.3198 14.9867C13.1441 15.1624 12.9264 15.2502 12.6667 15.2502ZM16.3333 15.2502C16.0736 15.2502 15.8559 15.1624 15.6802 14.9867C15.5045 14.811 15.4167 14.5933 15.4167 14.3336V6.08356C15.4167 5.82383 15.5045 5.60613 15.6802 5.43043C15.8559 5.25474 16.0736 5.16689 16.3333 5.16689C16.5931 5.16689 16.8108 5.25474 16.9865 5.43043C17.1622 5.60613 17.25 5.82383 17.25 6.08356V14.3336C17.25 14.5933 17.1622 14.811 16.9865 14.9867C16.8108 15.1624 16.5931 15.2502 16.3333 15.2502ZM10.8333 6.97731C10.5889 6.97731 10.3559 6.93147 10.1344 6.83981C9.91285 6.74814 9.71042 6.61828 9.52708 6.45022L7.16667 4.08981L2.30833 8.94814C2.125 9.13147 1.90729 9.21932 1.65521 9.21168C1.40312 9.20404 1.18542 9.10856 1.00208 8.92522C0.834028 8.74189 0.753819 8.52418 0.761458 8.2721C0.769097 8.02001 0.856944 7.80994 1.025 7.64189L5.86042 2.80647C6.04375 2.62314 6.24618 2.48946 6.46771 2.40543C6.68924 2.3214 6.92222 2.27939 7.16667 2.27939C7.41111 2.27939 7.64792 2.3214 7.87708 2.40543C8.10625 2.48946 8.30486 2.62314 8.47292 2.80647L10.8333 5.16689L15.6917 0.308556C15.875 0.125222 16.0927 0.0373751 16.3448 0.045014C16.5969 0.0526529 16.8146 0.148139 16.9979 0.331472C17.166 0.514806 17.2462 0.732514 17.2385 0.984597C17.2309 1.23668 17.1431 1.44675 16.975 1.61481L12.1396 6.45022C11.9715 6.61828 11.7729 6.74814 11.5437 6.83981C11.3146 6.93147 11.0778 6.97731 10.8333 6.97731Z" fill="white"/>
</svg>
