<svg width="15" height="14" viewBox="0 0 15 14" fill="none" xmlns="http://www.w3.org/2000/svg">
    <path d="M6.00547 13.4027C9.39151 14.2939 12.8902 12.2325 13.8247 8.80665C14.7592 5.38076 12.7785 1.87718 9.39247 0.985951C6.00642 0.0947223 2.50771 2.15608 1.57321 5.58197C0.638702 9.00785 2.61942 12.5114 6.00547 13.4027Z" fill="#023BA5" stroke="#093A7A" stroke-width="0.389551"/>
    <path d="M5.60825 13.0138C8.9943 13.905 12.493 11.8436 13.4275 8.41776C14.362 4.99188 12.3813 1.48829 8.99525 0.597065C5.60921 -0.294163 2.11049 1.7672 1.17599 5.19308C0.241485 8.61897 2.22221 12.1225 5.60825 13.0138Z" fill="#2369FF" stroke="#093A7A" stroke-width="0.389551"/>
    <path d="M5.91647 11.885C8.66916 12.6096 11.5146 10.9165 12.2786 8.11538C13.0427 5.31427 11.4403 2.45052 8.68763 1.72599C5.93494 1.00147 3.08954 2.69453 2.32546 5.49564C1.56138 8.29675 3.16378 11.1605 5.91647 11.885Z" stroke="#1234DF" stroke-width="0.389551"/>
    <path fill-rule="evenodd" clip-rule="evenodd" d="M10.9818 3.33637C10.4372 2.85981 9.77858 2.49966 9.03258 2.30331C6.38811 1.60727 3.64695 3.23307 2.91003 5.93463C2.43436 7.67841 2.91 9.44417 4.0182 10.6642C2.63222 9.45144 1.9845 7.4848 2.51354 5.54535C3.25046 2.84379 5.99162 1.21799 8.63609 1.91403C9.57362 2.1608 10.3731 2.66627 10.9818 3.33637Z" fill="#65ADFF"/>
    <ellipse cx="0.280562" cy="0.277629" rx="0.280562" ry="0.277629" transform="matrix(0.983645 -0.195757 0.20139 0.976442 9.23682 9.72293)" fill="#2156DC"/>
    <ellipse cx="0.280562" cy="0.277629" rx="0.280562" ry="0.277629" transform="matrix(0.983645 -0.195757 0.20139 0.976442 10.598 8.88666)" fill="#2156DC"/>
    <ellipse cx="0.280562" cy="0.277629" rx="0.280562" ry="0.277629" transform="matrix(0.983645 -0.195757 0.20139 0.976442 9.28625 8.47307)" fill="#2156DC"/>
    <ellipse cx="0.195391" cy="0.193348" rx="0.195391" ry="0.193348" transform="matrix(0.983645 -0.195757 0.20139 0.976442 9.93799 9.04768)" fill="#2156DC"/>
    <ellipse cx="0.195391" cy="0.193348" rx="0.195391" ry="0.193348" transform="matrix(0.983645 -0.195757 0.20139 0.976442 10.058 8.20874)" fill="#2156DC"/>
    <ellipse cx="0.195391" cy="0.193348" rx="0.195391" ry="0.193348" transform="matrix(0.983645 -0.195757 0.20139 0.976442 10.9733 8.22279)" fill="#2156DC"/>
    <ellipse cx="0.195391" cy="0.193348" rx="0.195391" ry="0.193348" transform="matrix(0.983645 -0.195757 0.20139 0.976442 11.3636 7.07623)" fill="#2156DC"/>
    <ellipse cx="0.195391" cy="0.193348" rx="0.195391" ry="0.193348" transform="matrix(0.983645 -0.195757 0.20139 0.976442 10.5912 7.70934)" fill="#2156DC"/>
    <ellipse cx="0.195391" cy="0.193348" rx="0.195391" ry="0.193348" transform="matrix(0.983645 -0.195757 0.20139 0.976442 10.2949 9.65799)" fill="#2156DC"/>
    <ellipse cx="0.180579" cy="0.178691" rx="0.180579" ry="0.178691" transform="matrix(0.983645 -0.195757 0.20139 0.976442 9.19666 10.5748)" fill="#2156DC"/>
    <ellipse cx="0.11049" cy="0.109334" rx="0.11049" ry="0.109334" transform="matrix(0.983645 -0.195757 0.20139 0.976442 9.87561 10.2398)" fill="#2156DC"/>
    <ellipse cx="0.150301" cy="0.14873" rx="0.150301" ry="0.14873" transform="matrix(0.983645 -0.195757 0.20139 0.976442 9.23083 9.17453)" fill="#2156DC"/>
    <ellipse cx="0.150301" cy="0.14873" rx="0.150301" ry="0.14873" transform="matrix(0.983645 -0.195757 0.20139 0.976442 10.8866 7.15143)" fill="#2156DC"/>
    <ellipse cx="0.150301" cy="0.14873" rx="0.150301" ry="0.14873" transform="matrix(0.983645 -0.195757 0.20139 0.976442 11.201 7.78415)" fill="#2156DC"/>
    <ellipse cx="0.150301" cy="0.14873" rx="0.150301" ry="0.14873" transform="matrix(0.983645 -0.195757 0.20139 0.976442 8.8009 10.1521)" fill="#2156DC"/>
    <ellipse cx="0.150301" cy="0.14873" rx="0.150301" ry="0.14873" transform="matrix(0.983645 -0.195757 0.20139 0.976442 8.51904 10.9735)" fill="#2156DC"/>
    <path d="M5.91345 1.17173C4.07161 1.67108 2.58804 3.01869 1.9257 4.7598" stroke="#79B3FF" stroke-width="0.389551" stroke-linecap="round" stroke-linejoin="round"/>
    <path d="M10.3926 11.674C11.0919 11.2173 11.6871 10.6191 12.1361 9.92102" stroke="#79B3FF" stroke-width="0.389551" stroke-linecap="round" stroke-linejoin="round"/>
    <path d="M3.93112 2.13095C3.93112 2.13095 3.33627 2.5205 2.9397 3.10483" stroke="#D7D2FF" stroke-width="0.389551" stroke-linecap="round" stroke-linejoin="round"/>
    <path d="M4.72409 3.10394C4.72409 3.10394 4.12924 3.49349 3.73267 4.07782" stroke="white" stroke-width="0.389551" stroke-linecap="round" stroke-linejoin="round"/>
    <path d="M7.6416 3.36621C7.41846 3.49206 7.26766 3.68267 7.20075 3.92796C7.13384 4.17325 7.16741 4.41239 7.2966 4.63097L8.46043 4.76178C8.62879 4.66683 8.73786 4.52811 8.78763 4.34564C8.83741 4.16316 8.81356 3.98947 8.71608 3.82455L8.92167 3.70322C8.92165 3.70318 8.92163 3.70315 8.92161 3.70312C8.79263 3.4847 8.59922 3.33905 8.35267 3.27415C8.10612 3.20926 7.86448 3.24041 7.6416 3.36621ZM7.6416 3.36621L7.75779 3.57232L7.64151 3.36627C7.64154 3.36625 7.64157 3.36623 7.6416 3.36621ZM6.4045 5.76437L4.73308 5.32444C4.59853 5.28903 4.48696 5.20943 4.41488 5.08731C4.41486 5.08727 4.41483 5.08723 4.41481 5.08719L6.4045 5.76437ZM6.4045 5.76437L5.2622 9.95202C5.22525 10.0875 5.24092 10.2242 5.31313 10.3466C5.38521 10.4688 5.49681 10.5485 5.6314 10.5839C5.76588 10.6193 5.903 10.6053 6.02763 10.535C6.15275 10.4645 6.23606 10.3537 6.27304 10.2181L6.70073 8.65018L7.04684 8.74128L6.61915 10.3092C6.58221 10.4446 6.59788 10.5814 6.67008 10.7038C6.74216 10.826 6.85376 10.9056 6.98836 10.941C7.12296 10.9765 7.26015 10.9624 7.38482 10.892C7.50974 10.8215 7.59303 10.7108 7.63 10.5752L8.77229 6.38759L10.4437 6.82751C10.5781 6.8629 10.7152 6.8489 10.8398 6.77868C10.9649 6.70821 11.0482 6.5974 11.0852 6.46179C11.1222 6.32622 11.1064 6.18942 11.0341 6.06704L6.4045 5.76437ZM5.00524 4.32672C4.87077 4.29133 4.73368 4.30539 4.60911 4.37564L11.0341 6.06693C10.962 5.94481 10.8504 5.86521 10.7159 5.82979L5.00524 4.32672Z" fill="#6194E0" stroke="#023BA5" stroke-width="0.475319"/>
</svg>