<svg width="10" height="10" viewBox="0 0 10 10" fill="none" xmlns="http://www.w3.org/2000/svg">
<path d="M2.00019 9.7503C1.51685 9.7503 1.10435 9.57947 0.762688 9.2378C0.421021 8.89614 0.250188 8.48364 0.250188 8.0003C0.250188 7.51697 0.421021 7.10447 0.762688 6.7628C1.10435 6.42114 1.51685 6.2503 2.00019 6.2503C2.48352 6.2503 2.89602 6.42114 3.23769 6.7628C3.57936 7.10447 3.75019 7.51697 3.75019 8.0003C3.75019 8.18364 3.7231 8.36072 3.66894 8.53155C3.61477 8.70239 3.53352 8.8628 3.42519 9.0128V8.6753C3.67519 8.78364 3.93352 8.86489 4.20019 8.91905C4.46686 8.97322 4.73352 9.0003 5.00019 9.0003C6.02519 9.0003 6.91061 8.66697 7.65644 8.0003C8.40227 7.33364 8.83769 6.50447 8.96269 5.5128C8.97936 5.37114 9.03769 5.2503 9.13769 5.1503C9.23769 5.0503 9.35852 5.0003 9.50019 5.0003C9.64186 5.0003 9.76061 5.0503 9.85644 5.1503C9.95227 5.2503 9.99186 5.37114 9.97519 5.5128C9.84186 6.77947 9.30436 7.84405 8.36269 8.70655C7.42102 9.56905 6.30019 10.0003 5.00019 10.0003C4.62519 10.0003 4.25852 9.96072 3.90019 9.88155C3.54186 9.80239 3.19602 9.68364 2.86269 9.5253C2.72935 9.6003 2.58977 9.65655 2.44394 9.69405C2.29811 9.73155 2.15019 9.7503 2.00019 9.7503ZM2.00019 8.7503C2.20852 8.7503 2.3856 8.67739 2.53144 8.53155C2.67727 8.38572 2.75019 8.20864 2.75019 8.0003C2.75019 7.79197 2.67727 7.61489 2.53144 7.46905C2.3856 7.32322 2.20852 7.2503 2.00019 7.2503C1.79185 7.2503 1.61477 7.32322 1.46894 7.46905C1.3231 7.61489 1.25019 7.79197 1.25019 8.0003C1.25019 8.20864 1.3231 8.38572 1.46894 8.53155C1.61477 8.67739 1.79185 8.7503 2.00019 8.7503ZM5.00019 6.7503C4.51686 6.7503 4.10436 6.57947 3.76269 6.2378C3.42102 5.89614 3.25019 5.48364 3.25019 5.0003C3.25019 4.51697 3.42102 4.10447 3.76269 3.7628C4.10436 3.42114 4.51686 3.2503 5.00019 3.2503C5.48352 3.2503 5.89602 3.42114 6.23769 3.7628C6.57936 4.10447 6.75019 4.51697 6.75019 5.0003C6.75019 5.48364 6.57936 5.89614 6.23769 6.2378C5.89602 6.57947 5.48352 6.7503 5.00019 6.7503ZM5.00019 1.00031C3.97519 1.00031 3.08977 1.33364 2.34394 2.00031C1.5981 2.66697 1.16269 3.49614 1.03769 4.4878C1.02102 4.62947 0.962688 4.7503 0.862688 4.85031C0.762688 4.9503 0.641855 5.0003 0.500188 5.0003C0.358521 5.0003 0.239771 4.9503 0.143938 4.85031C0.0481047 4.7503 0.00852141 4.62947 0.0251881 4.4878C0.158521 3.22114 0.696021 2.15655 1.63769 1.29406C2.57936 0.431555 3.70019 0.000305176 5.00019 0.000305176C5.37519 0.000305176 5.74186 0.0398885 6.10019 0.119055C6.45852 0.198222 6.80436 0.316972 7.13769 0.475305C7.27102 0.400305 7.41061 0.344055 7.55644 0.306555C7.70227 0.269055 7.85019 0.250305 8.00019 0.250305C8.48352 0.250305 8.89602 0.421138 9.23769 0.762805C9.57936 1.10447 9.75019 1.51697 9.75019 2.00031C9.75019 2.48364 9.57936 2.89614 9.23769 3.2378C8.89602 3.57947 8.48352 3.7503 8.00019 3.7503C7.51686 3.7503 7.10436 3.57947 6.76269 3.2378C6.42102 2.89614 6.25019 2.48364 6.25019 2.00031C6.25019 1.81697 6.27727 1.63989 6.33144 1.46906C6.38561 1.29822 6.46686 1.13781 6.57519 0.987805V1.32531C6.32519 1.21697 6.06686 1.13572 5.80019 1.08156C5.53352 1.02739 5.26686 1.00031 5.00019 1.00031ZM8.00019 2.7503C8.20852 2.7503 8.38561 2.67739 8.53144 2.53155C8.67727 2.38572 8.75019 2.20864 8.75019 2.00031C8.75019 1.79197 8.67727 1.61489 8.53144 1.46906C8.38561 1.32322 8.20852 1.25031 8.00019 1.25031C7.79186 1.25031 7.61477 1.32322 7.46894 1.46906C7.32311 1.61489 7.25019 1.79197 7.25019 2.00031C7.25019 2.20864 7.32311 2.38572 7.46894 2.53155C7.61477 2.67739 7.79186 2.7503 8.00019 2.7503Z" fill="#AFB9D4"/>
</svg>
