<svg width="14" height="14" viewBox="0 0 14 14" fill="none" xmlns="http://www.w3.org/2000/svg">
<path d="M5.50521 13.4027C8.89125 14.2939 12.39 12.2325 13.3245 8.80665C14.259 5.38076 12.2783 1.87718 8.89221 0.985951C5.50616 0.0947223 2.00745 2.15608 1.07295 5.58197C0.138442 9.00785 2.11916 12.5114 5.50521 13.4027Z" fill="#023BA5" stroke="#093A7A" stroke-width="0.389551"/>
<path d="M5.10796 13.0138C8.49401 13.905 11.9927 11.8436 12.9272 8.41776C13.8617 4.99188 11.881 1.48829 8.49496 0.597065C5.10892 -0.294163 1.6102 1.7672 0.675699 5.19308C-0.258805 8.61897 1.72192 12.1225 5.10796 13.0138Z" fill="#2369FF" stroke="#093A7A" stroke-width="0.389551"/>
<path d="M5.41621 11.885C8.1689 12.6096 11.0143 10.9165 11.7784 8.11538C12.5425 5.31427 10.9401 2.45052 8.18737 1.72599C5.43468 1.00147 2.58928 2.69453 1.8252 5.49564C1.06112 8.29675 2.66352 11.1605 5.41621 11.885Z" stroke="#1234DF" stroke-width="0.389551"/>
<path fill-rule="evenodd" clip-rule="evenodd" d="M10.4815 3.33637C9.93689 2.85981 9.27828 2.49966 8.53227 2.30331C5.88781 1.60727 3.14665 3.23307 2.40972 5.93463C1.93406 7.67841 2.40969 9.44417 3.51789 10.6642C2.13192 9.45144 1.48419 7.4848 2.01323 5.54535C2.75016 2.84379 5.49132 1.21799 8.13578 1.91403C9.07332 2.1608 9.87283 2.66627 10.4815 3.33637Z" fill="#65ADFF"/>
<ellipse cx="0.280562" cy="0.277629" rx="0.280562" ry="0.277629" transform="matrix(0.983645 -0.195757 0.20139 0.976442 8.73657 9.72293)" fill="#2156DC"/>
<ellipse cx="0.280562" cy="0.277629" rx="0.280562" ry="0.277629" transform="matrix(0.983645 -0.195757 0.20139 0.976442 10.0977 8.88666)" fill="#2156DC"/>
<ellipse cx="0.280562" cy="0.277629" rx="0.280562" ry="0.277629" transform="matrix(0.983645 -0.195757 0.20139 0.976442 8.78593 8.47307)" fill="#2156DC"/>
<ellipse cx="0.195391" cy="0.193348" rx="0.195391" ry="0.193348" transform="matrix(0.983645 -0.195757 0.20139 0.976442 9.43764 9.04768)" fill="#2156DC"/>
<ellipse cx="0.195391" cy="0.193348" rx="0.195391" ry="0.193348" transform="matrix(0.983645 -0.195757 0.20139 0.976442 9.55765 8.20874)" fill="#2156DC"/>
<ellipse cx="0.195391" cy="0.193348" rx="0.195391" ry="0.193348" transform="matrix(0.983645 -0.195757 0.20139 0.976442 10.4729 8.22279)" fill="#2156DC"/>
<ellipse cx="0.195391" cy="0.193348" rx="0.195391" ry="0.193348" transform="matrix(0.983645 -0.195757 0.20139 0.976442 10.8633 7.07623)" fill="#2156DC"/>
<ellipse cx="0.195391" cy="0.193348" rx="0.195391" ry="0.193348" transform="matrix(0.983645 -0.195757 0.20139 0.976442 10.0909 7.70934)" fill="#2156DC"/>
<ellipse cx="0.195391" cy="0.193348" rx="0.195391" ry="0.193348" transform="matrix(0.983645 -0.195757 0.20139 0.976442 9.79463 9.65799)" fill="#2156DC"/>
<ellipse cx="0.180579" cy="0.178691" rx="0.180579" ry="0.178691" transform="matrix(0.983645 -0.195757 0.20139 0.976442 8.6963 10.5748)" fill="#2156DC"/>
<ellipse cx="0.11049" cy="0.109334" rx="0.11049" ry="0.109334" transform="matrix(0.983645 -0.195757 0.20139 0.976442 9.37535 10.2398)" fill="#2156DC"/>
<ellipse cx="0.150301" cy="0.14873" rx="0.150301" ry="0.14873" transform="matrix(0.983645 -0.195757 0.20139 0.976442 8.73048 9.17453)" fill="#2156DC"/>
<ellipse cx="0.150301" cy="0.14873" rx="0.150301" ry="0.14873" transform="matrix(0.983645 -0.195757 0.20139 0.976442 10.3863 7.15143)" fill="#2156DC"/>
<ellipse cx="0.150301" cy="0.14873" rx="0.150301" ry="0.14873" transform="matrix(0.983645 -0.195757 0.20139 0.976442 10.7008 7.78415)" fill="#2156DC"/>
<ellipse cx="0.150301" cy="0.14873" rx="0.150301" ry="0.14873" transform="matrix(0.983645 -0.195757 0.20139 0.976442 8.30058 10.1521)" fill="#2156DC"/>
<ellipse cx="0.150301" cy="0.14873" rx="0.150301" ry="0.14873" transform="matrix(0.983645 -0.195757 0.20139 0.976442 8.01878 10.9735)" fill="#2156DC"/>
<path d="M5.41313 1.17173C3.57129 1.67108 2.08772 3.01869 1.42538 4.7598" stroke="#79B3FF" stroke-width="0.389551" stroke-linecap="round" stroke-linejoin="round"/>
<path d="M9.89227 11.674C10.5916 11.2173 11.1868 10.6191 11.6358 9.92102" stroke="#79B3FF" stroke-width="0.389551" stroke-linecap="round" stroke-linejoin="round"/>
<path d="M3.43088 2.13095C3.43088 2.13095 2.83602 2.5205 2.43945 3.10483" stroke="#D7D2FF" stroke-width="0.389551" stroke-linecap="round" stroke-linejoin="round"/>
<path d="M4.22386 3.10394C4.22386 3.10394 3.62901 3.49349 3.23244 4.07782" stroke="white" stroke-width="0.389551" stroke-linecap="round" stroke-linejoin="round"/>
<path d="M7.14131 3.36621C6.91817 3.49206 6.76737 3.68267 6.70046 3.92796C6.63355 4.17325 6.66712 4.41239 6.79631 4.63097L7.96014 4.76178C8.1285 4.66683 8.23757 4.52811 8.28734 4.34564C8.33712 4.16316 8.31327 3.98947 8.21579 3.82455L8.42138 3.70322C8.42136 3.70318 8.42134 3.70315 8.42132 3.70312C8.29234 3.4847 8.09893 3.33905 7.85238 3.27415C7.60583 3.20926 7.36419 3.24041 7.14131 3.36621ZM7.14131 3.36621L7.2575 3.57232L7.14122 3.36627C7.14125 3.36625 7.14128 3.36623 7.14131 3.36621ZM5.90421 5.76437L4.23279 5.32444C4.09824 5.28903 3.98667 5.20943 3.91459 5.08731C3.91457 5.08727 3.91454 5.08723 3.91452 5.08719L5.90421 5.76437ZM5.90421 5.76437L4.76191 9.95202C4.72496 10.0875 4.74063 10.2242 4.81284 10.3466C4.88492 10.4688 4.99652 10.5485 5.13111 10.5839C5.26559 10.6193 5.40271 10.6053 5.52734 10.535C5.65246 10.4645 5.73577 10.3537 5.77275 10.2181L6.20044 8.65018L6.54655 8.74128L6.11886 10.3092C6.08192 10.4446 6.09759 10.5814 6.16979 10.7038C6.24187 10.826 6.35347 10.9056 6.48807 10.941C6.62267 10.9765 6.75986 10.9624 6.88453 10.892C7.00945 10.8215 7.09274 10.7108 7.12971 10.5752L8.272 6.38759L9.94342 6.82751C10.0779 6.8629 10.2149 6.8489 10.3395 6.77868C10.4646 6.70821 10.5479 6.5974 10.5849 6.46179C10.6219 6.32622 10.6061 6.18942 10.5338 6.06704L5.90421 5.76437ZM4.50495 4.32672C4.37048 4.29133 4.23339 4.30539 4.10882 4.37564L10.5338 6.06693C10.4617 5.94481 10.3501 5.86521 10.2156 5.82979L4.50495 4.32672Z" fill="#6194E0" stroke="#023BA5" stroke-width="0.475319"/>
</svg>
