<svg width="24" height="24" viewBox="0 0 24 24" fill="none" xmlns="http://www.w3.org/2000/svg">
<path d="M3 15.9997C2.46667 15.9997 2 15.7997 1.6 15.3997C1.2 14.9997 1 14.533 1 13.9997V11.9997C1 11.883 1.01667 11.758 1.05 11.6247C1.08333 11.4914 1.11667 11.3664 1.15 11.2497L4.15 4.19969C4.3 3.86636 4.55 3.58303 4.9 3.34969C5.25 3.11636 5.61667 2.99969 6 2.99969H17V15.9997L11 21.9497C10.75 22.1997 10.4542 22.3455 10.1125 22.3872C9.77083 22.4289 9.44167 22.3664 9.125 22.1997C8.80833 22.033 8.575 21.7997 8.425 21.4997C8.275 21.1997 8.24167 20.8914 8.325 20.5747L9.45 15.9997H3ZM15 15.1497V4.99969H6L3 11.9997V13.9997H12L10.65 19.4997L15 15.1497ZM20 2.99969C20.55 2.99969 21.0208 3.19553 21.4125 3.58719C21.8042 3.97886 22 4.44969 22 4.99969V13.9997C22 14.5497 21.8042 15.0205 21.4125 15.4122C21.0208 15.8039 20.55 15.9997 20 15.9997H17V13.9997H20V4.99969H17V2.99969H20Z" fill="#373A43"/>
</svg>
