<svg width="24" height="24" viewBox="0 0 24 24" fill="none" xmlns="http://www.w3.org/2000/svg">
<path d="M21 7.99979C21.5333 7.99979 22 8.19979 22.4 8.59979C22.8 8.99979 23 9.46646 23 9.99979V11.9998C23 12.1165 22.9833 12.2415 22.95 12.3748C22.9167 12.5081 22.8833 12.6331 22.85 12.7498L19.85 19.7998C19.7 20.1331 19.45 20.4165 19.1 20.6498C18.75 20.8831 18.3833 20.9998 18 20.9998H7V7.99979L13 2.04979C13.25 1.79979 13.5458 1.65396 13.8875 1.61229C14.2292 1.57063 14.5583 1.63313 14.875 1.79979C15.1917 1.96646 15.425 2.19979 15.575 2.49979C15.725 2.79979 15.7583 3.10813 15.675 3.42479L14.55 7.99979H21ZM9 8.84979V18.9998H18L21 11.9998V9.99979H12L13.35 4.49979L9 8.84979ZM4 20.9998C3.45 20.9998 2.97917 20.804 2.5875 20.4123C2.19583 20.0206 2 19.5498 2 18.9998V9.99979C2 9.44979 2.19583 8.97896 2.5875 8.58729C2.97917 8.19563 3.45 7.99979 4 7.99979H7V9.99979H4V18.9998H7V20.9998H4Z" fill="#373A43"/>
</svg>
