<svg width="21" height="19" viewBox="0 0 21 19" fill="none" xmlns="http://www.w3.org/2000/svg">
<path d="M18.25 6.33365C18.7389 6.33365 19.1667 6.51698 19.5334 6.88365C19.9 7.25031 20.0834 7.67809 20.0834 8.16698V10.0003C20.0834 10.1073 20.0681 10.2218 20.0375 10.3441C20.007 10.4663 19.9764 10.5809 19.9459 10.6878L17.1959 17.1503C17.0584 17.4559 16.8292 17.7156 16.5084 17.9295C16.1875 18.1434 15.8514 18.2503 15.5 18.2503H5.41671V6.33365L10.9167 0.87948C11.1459 0.650313 11.4171 0.516633 11.7302 0.478438C12.0434 0.440244 12.3452 0.497536 12.6355 0.650313C12.9257 0.803091 13.1396 1.01698 13.2771 1.29198C13.4146 1.56698 13.4452 1.84962 13.3688 2.1399L12.3375 6.33365H18.25ZM7.25004 7.11281V16.417H15.5L18.25 10.0003V8.16698H10L11.2375 3.12531L7.25004 7.11281ZM2.66671 18.2503C2.16254 18.2503 1.73094 18.0708 1.37192 17.7118C1.01289 17.3527 0.833374 16.9211 0.833374 16.417V8.16698C0.833374 7.66281 1.01289 7.23122 1.37192 6.87219C1.73094 6.51316 2.16254 6.33365 2.66671 6.33365H5.41671V8.16698H2.66671V16.417H5.41671V18.2503H2.66671Z" fill="white"/>
</svg>
