<svg width="21" height="19" viewBox="0 0 21 19" fill="none" xmlns="http://www.w3.org/2000/svg">
<path d="M2.74996 12.6669C2.26107 12.6669 1.83329 12.4836 1.46663 12.1169C1.09996 11.7502 0.916626 11.3225 0.916626 10.8336V9.00024C0.916626 8.8933 0.931904 8.77872 0.962459 8.65649C0.993015 8.53427 1.02357 8.41969 1.05413 8.31274L3.80413 1.85024C3.94163 1.54469 4.17079 1.28497 4.49163 1.07108C4.81246 0.857189 5.14857 0.750244 5.49996 0.750244H15.5833V12.6669L10.0833 18.1211C9.85413 18.3502 9.58295 18.4839 9.26975 18.5221C8.95656 18.5603 8.65482 18.503 8.36454 18.3502C8.07427 18.1975 7.86038 17.9836 7.72288 17.7086C7.58538 17.4336 7.55482 17.1509 7.63121 16.8607L8.66246 12.6669H2.74996ZM13.75 11.8877V2.58358H5.49996L2.74996 9.00024V10.8336H11L9.76246 15.8752L13.75 11.8877ZM18.3333 0.750244C18.8375 0.750244 19.2691 0.929758 19.6281 1.28879C19.9871 1.64781 20.1666 2.07941 20.1666 2.58358V10.8336C20.1666 11.3377 19.9871 11.7693 19.6281 12.1284C19.2691 12.4874 18.8375 12.6669 18.3333 12.6669H15.5833V10.8336H18.3333V2.58358H15.5833V0.750244H18.3333Z" fill="white"/>
</svg>
