<svg width="14" height="14" viewBox="0 0 14 14" fill="none" xmlns="http://www.w3.org/2000/svg">
<path d="M6.99935 12.8337C6.1924 12.8337 5.43407 12.6805 4.72435 12.3743C4.01463 12.068 3.39727 11.6524 2.87227 11.1274C2.34727 10.6024 1.93164 9.98505 1.62539 9.27533C1.31914 8.5656 1.16602 7.80727 1.16602 7.00033C1.16602 6.19338 1.31914 5.43505 1.62539 4.72533C1.93164 4.0156 2.34727 3.39824 2.87227 2.87324C3.39727 2.34824 4.01463 1.93262 4.72435 1.62637C5.43407 1.32012 6.1924 1.16699 6.99935 1.16699C7.46602 1.16699 7.92053 1.22046 8.36289 1.32741C8.80525 1.43435 9.2306 1.58991 9.63893 1.79408C9.78477 1.87185 9.87956 1.98852 9.92331 2.14408C9.96706 2.29963 9.94032 2.44546 9.8431 2.58158C9.74588 2.71769 9.61706 2.80519 9.45664 2.84408C9.29622 2.88296 9.13824 2.86352 8.98268 2.78574C8.67157 2.63991 8.34831 2.5281 8.01289 2.45033C7.67747 2.37255 7.33963 2.33366 6.99935 2.33366C5.70629 2.33366 4.60525 2.78817 3.69622 3.6972C2.7872 4.60623 2.33268 5.70727 2.33268 7.00033C2.33268 8.29338 2.7872 9.39442 3.69622 10.3035C4.60525 11.2125 5.70629 11.667 6.99935 11.667C8.2924 11.667 9.39345 11.2125 10.3025 10.3035C11.2115 9.39442 11.666 8.29338 11.666 7.00033C11.666 6.92255 11.6636 6.8472 11.6587 6.77428C11.6539 6.70137 11.6466 6.62602 11.6368 6.54824C11.6174 6.38296 11.649 6.22498 11.7316 6.07428C11.8143 5.92359 11.9382 5.82394 12.1035 5.77533C12.2591 5.72671 12.4049 5.7413 12.541 5.81908C12.6771 5.89685 12.7549 6.01352 12.7743 6.16908C12.7938 6.30519 12.8084 6.4413 12.8181 6.57741C12.8278 6.71352 12.8327 6.85449 12.8327 7.00033C12.8327 7.80727 12.6796 8.5656 12.3733 9.27533C12.0671 9.98505 11.6514 10.6024 11.1264 11.1274C10.6014 11.6524 9.98407 12.068 9.27435 12.3743C8.56463 12.6805 7.80629 12.8337 6.99935 12.8337ZM6.18268 8.05033L11.6077 2.61074C11.7146 2.5038 11.8483 2.44789 12.0087 2.44303C12.1691 2.43817 12.3077 2.49408 12.4243 2.61074C12.5313 2.71769 12.5848 2.8538 12.5848 3.01908C12.5848 3.18435 12.5313 3.32046 12.4243 3.42741L6.59102 9.27533C6.47435 9.39199 6.33824 9.45033 6.18268 9.45033C6.02713 9.45033 5.89102 9.39199 5.77435 9.27533L4.11185 7.61283C4.0049 7.50588 3.95143 7.36977 3.95143 7.20449C3.95143 7.03921 4.0049 6.9031 4.11185 6.79616C4.21879 6.68921 4.3549 6.63574 4.52018 6.63574C4.68546 6.63574 4.82157 6.68921 4.92852 6.79616L6.18268 8.05033Z" fill="#505B78"/>
</svg>
