<svg width="28" height="30" viewBox="0 0 28 30" fill="none" xmlns="http://www.w3.org/2000/svg">
<path d="M27.5323 31.2255C24.0038 34.6375 19.3044 36.5461 14.4135 36.5535H14.3201C11.7222 36.5509 9.15245 36.0112 6.7699 34.9678C4.38735 33.9244 2.24272 32.3995 0.46875 30.4875C1.47728 27.7575 3.30574 26.1275 5.08654 25.0875C5.28507 24.9675 5.49949 24.8555 5.7139 24.7515C5.97596 24.6235 6.24397 24.5055 6.50801 24.3975C6.94676 24.2195 7.38948 24.0655 7.81434 23.9295C8.52309 23.7035 9.18816 23.5295 9.71625 23.3695C10.431 23.1695 10.8975 22.9895 10.8975 22.7875V16.0215H16.8534V22.7855C16.8534 23.0395 17.576 23.2455 18.6024 23.5375C19.1682 23.6995 19.8254 23.8875 20.5043 24.1255C20.8518 24.2455 21.2071 24.3815 21.5565 24.5255C21.8484 24.6515 22.1382 24.7895 22.4201 24.9415C22.5724 25.0228 22.7232 25.1088 22.8728 25.1995C24.7429 26.3495 26.629 28.1575 27.5323 31.2255Z" fill="#FFD7B5"/>
<path d="M27.5323 31.226C27.0016 31.7379 26.4421 32.2187 25.8567 32.666C25.3762 33.034 24.876 33.378 24.3618 33.698C21.3726 35.5606 17.9282 36.5494 14.4135 36.554H14.3201C10.8018 36.5524 7.35353 35.5634 4.36191 33.698C3.84838 33.378 3.3514 33.034 2.87096 32.666C2.21034 32.1631 1.5836 31.6165 0.994853 31.03C0.816176 30.854 0.641471 30.672 0.46875 30.488C0.530294 30.32 0.595809 30.158 0.667279 29.998C0.909709 29.4265 1.20413 28.8788 1.54676 28.362C1.78768 28 2.05301 27.6552 2.34088 27.33C2.88074 26.7156 3.48969 26.1666 4.15544 25.694C4.46713 25.47 4.78279 25.27 5.09647 25.094C5.295 24.974 5.50941 24.862 5.72382 24.758L5.92235 24.67C6.12088 24.574 6.31941 24.486 6.52985 24.404C6.63706 24.36 6.74427 24.318 6.85147 24.278C7.18301 24.152 7.51456 24.038 7.84412 23.936L8.15184 23.84C8.74743 23.658 9.29537 23.51 9.74007 23.376L12.5195 24.67L14.344 25.522L16.1923 24.67L18.6302 23.546C19.069 23.672 19.5633 23.814 20.0795 23.982C20.2284 24.03 20.3793 24.08 20.5321 24.134C20.7882 24.222 21.0503 24.32 21.3104 24.426L21.5843 24.542L21.8702 24.67C22.0688 24.76 22.2673 24.856 22.4479 24.958C22.6001 25.0393 22.751 25.1253 22.9006 25.216C23.1468 25.366 23.3929 25.528 23.6351 25.702C24.3014 26.174 24.9104 26.7231 25.4497 27.338C25.7376 27.6632 26.0029 28.008 26.2438 28.37C26.5759 28.8857 26.8597 29.4314 27.0915 30C27.2366 30.337 27.3638 30.6815 27.4727 31.032L27.5323 31.226Z" fill="#451378"/>
<path d="M27.0922 30.0003H0.667969C0.910399 29.4288 1.20482 28.8811 1.54745 28.3643H26.2127C26.5561 28.8806 26.8506 29.4284 27.0922 30.0003Z" fill="#6A9DC4"/>
<path d="M25.425 27.3303H2.33203C2.87189 26.716 3.48084 26.167 4.14659 25.6943H23.6025C24.2715 26.1659 24.8832 26.715 25.425 27.3303Z" fill="#6A9DC4"/>
<path d="M9.72199 23.3682L12.5014 24.6622H5.90625C6.10478 24.5662 6.30331 24.4782 6.51375 24.3962C6.9525 24.2182 7.39522 24.0642 7.82007 23.9282L8.12779 23.8322C8.71941 23.6502 9.27132 23.5022 9.72199 23.3682Z" fill="#6A9DC4"/>
<path d="M21.8459 24.6621H16.168L18.6059 23.5381C19.0447 23.6641 19.539 23.8061 20.0552 23.9741C20.2041 24.0221 20.355 24.0721 20.5078 24.1261C20.8552 24.2461 21.2106 24.3821 21.56 24.5261L21.8459 24.6621Z" fill="#6A9DC4"/>
<g style="mix-blend-mode:multiply" opacity="0.3">
<path d="M21.283 24.4182L16.8538 29.4562L14.3642 27.3302L12.1804 29.4562L6.83203 24.2702C7.16358 24.1442 7.49512 24.0302 7.82468 23.9282L8.1324 23.8322C8.72799 23.6502 9.27593 23.5022 9.72063 23.3682L12.5 24.6622L14.3245 25.5142L16.1728 24.6622L18.6108 23.5382C19.0495 23.6642 19.5439 23.8062 20.06 23.9742C20.2089 24.0222 20.3598 24.0722 20.5127 24.1262C20.7609 24.2142 21.0229 24.3122 21.283 24.4182Z" fill="#19134B"/>
</g>
<path d="M16.8562 17.2V21.02C16.0798 21.6491 15.132 22.0257 14.1384 22.1C12.4866 22.206 11.4562 21.5 10.9023 20.938V17.538L16.7193 17L16.8562 17.2Z" fill="#FFC6A6"/>
<path d="M6.56966 5.49826C6.56966 5.49826 5.13826 13.0563 7.21885 16.6823C8.25318 18.4943 11.1716 20.4263 13.8855 20.4823C16.5994 20.5383 19.1108 18.7043 20.4111 17.1143C23.0099 13.9323 21.0544 5.50426 21.0544 5.50426C21.0544 5.50426 15.2295 1.32826 6.56966 5.49826Z" fill="#FFD7B5"/>
<path d="M21.0583 10.514C21.0583 10.514 22.6684 8.21803 23.8378 10.234C24.6716 11.666 23.1131 14.762 21.1358 13.434L21.0583 10.514Z" fill="#FFD7B5"/>
<path d="M22.2265 10.5382L21.75 12.8822C21.75 12.8822 22.4429 13.1522 22.701 12.6322C22.7769 12.4924 22.8091 12.3328 22.7931 12.1742C22.7772 12.0157 22.7139 11.8658 22.6116 11.7442C22.6116 11.7442 23.5268 11.6442 23.4871 10.9022C23.4474 10.1602 22.3635 9.86419 22.2265 10.5382Z" fill="#FFAC7E"/>
<path d="M6.73106 10.5345C6.73106 10.5345 5.12298 8.23854 3.95165 10.2545C3.11981 11.6845 4.67629 14.7825 6.65364 13.4545L6.73106 10.5345Z" fill="#FFD7B5"/>
<path d="M5.6114 10.5382L6.08787 12.8822C6.08787 12.8822 5.395 13.1522 5.13691 12.6322C5.062 12.4917 5.03119 12.3315 5.04856 12.173C5.06593 12.0144 5.13066 11.8649 5.23419 11.7442C5.23419 11.7442 4.31897 11.6442 4.35868 10.9022C4.39838 10.1602 5.47441 9.86419 5.6114 10.5382Z" fill="#FFAC7E"/>
<path d="M6.08737 4.93177C6.08737 4.93177 5.98017 16.0818 6.14296 18.4398C6.30576 20.7978 12.9763 22.6758 13.8459 22.6758C14.7155 22.6758 21.6958 20.9058 21.6958 18.0758V4.93177H20.1413V12.9518L17.2229 14.3278C17.2229 14.3278 16.7484 12.7518 13.693 12.7518C10.6377 12.7518 10.2982 14.2858 10.2982 14.2858L7.61605 12.9518V4.71777L6.08737 4.93177Z" fill="#19134B"/>
<path d="M11.4665 10.1838C11.4633 10.3381 11.4151 10.4881 11.3277 10.6149C11.2403 10.7417 11.1177 10.8397 10.9752 10.8966C10.8328 10.9535 10.6768 10.9668 10.5269 10.9347C10.377 10.9027 10.2398 10.8268 10.1326 10.7165C10.0253 10.6063 9.95275 10.4666 9.92399 10.315C9.89523 10.1633 9.91154 10.0065 9.97088 9.86419C10.0302 9.72186 10.1299 9.60035 10.2576 9.51489C10.3852 9.42943 10.535 9.38382 10.6882 9.38379C10.7916 9.38431 10.8939 9.40547 10.9891 9.44605C11.0843 9.48664 11.1706 9.54584 11.243 9.62024C11.3154 9.69463 11.3724 9.78274 11.4107 9.87947C11.4491 9.97621 11.468 10.0796 11.4665 10.1838Z" fill="#19134B"/>
<path d="M17.8494 10.1838C17.8466 10.3387 17.7985 10.4894 17.711 10.6168C17.6236 10.7442 17.5007 10.8428 17.3578 10.9001C17.2149 10.9574 17.0583 10.9708 16.9079 10.9388C16.7574 10.9067 16.6197 10.8306 16.512 10.7199C16.4044 10.6093 16.3316 10.469 16.3028 10.3168C16.2741 10.1646 16.2906 10.0072 16.3503 9.86447C16.4101 9.7217 16.5104 9.5999 16.6386 9.51438C16.7669 9.42885 16.9173 9.38342 17.0711 9.38379C17.1745 9.38431 17.2768 9.40547 17.372 9.44606C17.4673 9.48664 17.5536 9.54584 17.6259 9.62024C17.6983 9.69463 17.7553 9.78274 17.7937 9.87948C17.832 9.97621 17.851 10.0796 17.8494 10.1838Z" fill="#19134B"/>
<path d="M10.1039 12.6763C9.77438 13.1843 9.04776 13.2943 8.47997 12.9203C7.91218 12.5463 7.71762 11.8323 8.04717 11.3203C8.37673 10.8083 9.10335 10.7043 9.67115 11.0783C10.2389 11.4523 10.4335 12.1683 10.1039 12.6763Z" fill="#FF918B"/>
<path d="M17.6605 12.6763C17.99 13.1843 18.7166 13.2943 19.2864 12.9203C19.8562 12.5463 20.0468 11.8323 19.7172 11.3203C19.3877 10.8083 18.661 10.7043 18.0933 11.0783C17.5255 11.4523 17.3309 12.1683 17.6605 12.6763Z" fill="#FF918B"/>
<path d="M9.00567 9.30214C8.91103 9.30215 8.8195 9.2681 8.74758 9.20614C8.66843 9.13758 8.61925 9.04038 8.61071 8.93558C8.60216 8.83077 8.63493 8.72679 8.70192 8.64614C8.74559 8.59414 9.79581 7.37214 11.8784 7.85814C11.9811 7.88227 12.07 7.94651 12.1257 8.03671C12.1813 8.12692 12.1991 8.2357 12.1752 8.33914C12.1512 8.44257 12.0875 8.53218 11.9979 8.58826C11.9084 8.64433 11.8004 8.66227 11.6977 8.63814C10.1095 8.26614 9.34515 9.12814 9.31537 9.16414C9.27704 9.20872 9.2294 9.24421 9.17586 9.26807C9.12231 9.29193 9.0642 9.30356 9.00567 9.30214Z" fill="#19134B"/>
<path d="M17.4985 8.94186C16.8271 8.94026 16.178 8.69938 15.666 8.26186C15.6255 8.22859 15.5919 8.18758 15.5671 8.14118C15.5424 8.09479 15.5269 8.04393 15.5217 7.99151C15.5165 7.9391 15.5217 7.88617 15.5368 7.83576C15.552 7.78534 15.5769 7.73845 15.6101 7.69776C15.6433 7.65706 15.6842 7.62338 15.7303 7.59864C15.7765 7.57389 15.827 7.55858 15.8791 7.55357C15.9311 7.54856 15.9837 7.55396 16.0336 7.56945C16.0836 7.58495 16.13 7.61023 16.1703 7.64386C16.4845 7.91689 16.8739 8.08675 17.2865 8.13071C17.6992 8.17467 18.1153 8.09064 18.4792 7.88986C18.5234 7.86018 18.573 7.83974 18.6252 7.82974C18.6774 7.81974 18.731 7.82039 18.783 7.83165C18.8349 7.84291 18.884 7.86455 18.9275 7.89529C18.971 7.92603 19.0079 7.96524 19.0361 8.01061C19.0642 8.05597 19.0831 8.10657 19.0915 8.1594C19.0999 8.21224 19.0977 8.26623 19.085 8.31819C19.0723 8.37015 19.0494 8.41902 19.0176 8.4619C18.9859 8.50479 18.9459 8.54082 18.9001 8.56786C18.4744 8.81634 17.9904 8.94548 17.4985 8.94186Z" fill="#19134B"/>
<path d="M12.5586 13.9642L14.9926 13.6162C14.9926 13.6162 14.9032 14.6402 13.9145 14.7822C12.9259 14.9242 12.5586 13.9642 12.5586 13.9642Z" fill="white"/>
<path d="M8.43942 14.5801C8.06619 14.4201 7.16288 18.2261 7.69494 18.7081C8.22699 19.1901 8.8067 14.7421 8.43942 14.5801Z" fill="#3A3162"/>
<path d="M10.0956 15.5263C9.69859 15.4043 9.19036 19.2843 9.76808 19.7083C10.3458 20.1323 10.4808 15.6483 10.0956 15.5263Z" fill="#3A3162"/>
<path d="M12.2713 16.6359C11.8742 16.5299 11.5208 20.4259 12.1164 20.8359C12.712 21.2459 12.6624 16.7419 12.2713 16.6359Z" fill="#3A3162"/>
<path d="M19.2741 14.7803C19.6454 14.6203 20.5507 18.4263 20.0186 18.9083C19.4866 19.3903 18.9009 14.9423 19.2741 14.7803Z" fill="#3A3162"/>
<path d="M17.6185 15.7264C18.0155 15.6044 18.5238 19.4845 17.9441 19.9085C17.3644 20.3324 17.2313 15.8484 17.6185 15.7264Z" fill="#3A3162"/>
<path d="M15.4422 16.8361C15.8392 16.7301 16.1906 20.6261 15.597 21.0361C15.0034 21.4461 15.0491 16.9421 15.4422 16.8361Z" fill="#3A3162"/>
<path d="M13.6542 12.9384C13.4284 12.9578 13.2029 12.8969 13.0169 12.7664C12.9626 12.7169 12.9221 12.6539 12.8994 12.5838C12.8768 12.5136 12.8728 12.4386 12.8879 12.3664C13.1261 10.7404 13.5708 8.3504 13.5708 8.3264C13.5761 8.3007 13.591 8.27805 13.6125 8.26315C13.6339 8.24825 13.6603 8.24225 13.686 8.2464C13.7119 8.25173 13.7347 8.26705 13.7495 8.2891C13.7644 8.31115 13.7701 8.33818 13.7654 8.3644C13.7654 8.3884 13.3207 10.7644 13.0824 12.3964C13.072 12.4357 13.0724 12.4772 13.0836 12.5163C13.0948 12.5554 13.1164 12.5907 13.146 12.6184C13.4001 12.8464 14.2319 12.6924 14.5357 12.6184C14.5487 12.6151 14.5623 12.6145 14.5756 12.6164C14.5888 12.6184 14.6016 12.623 14.6131 12.63C14.6247 12.637 14.6347 12.6462 14.6427 12.657C14.6507 12.6679 14.6565 12.6803 14.6598 12.6934C14.663 12.7065 14.6637 12.7202 14.6617 12.7336C14.6597 12.747 14.6551 12.7598 14.6482 12.7714C14.6413 12.783 14.6322 12.7932 14.6214 12.8012C14.6106 12.8093 14.5983 12.8151 14.5853 12.8184C14.2806 12.8944 13.9681 12.9346 13.6542 12.9384Z" fill="#FFB38D"/>
<path d="M6.44922 5.102C6.44922 5.102 7.94414 0 13.9199 0C20.0922 0 21.1861 5.492 21.1861 5.492L6.44922 5.102Z" fill="#AD3320"/>
<path d="M6.06533 7.95218C6.06533 7.95218 9.13856 6.58018 13.9192 6.58018C18.6997 6.58018 21.6956 7.95218 21.6956 7.95218C21.6956 7.95218 21.9993 6.22618 21.9993 5.38418C21.9993 4.54218 18.658 3.03418 13.6829 3.03418C8.70776 3.03418 5.67026 4.49618 5.49555 4.98418C5.32084 5.47218 6.06533 7.95218 6.06533 7.95218Z" fill="#D43E20"/>
<path d="M7.38731 6.79967C7.94518 6.67167 7.54018 4.77967 7.05775 4.92167C6.57533 5.06367 6.8215 6.92367 7.38731 6.79967Z" fill="#AD3320"/>
<path d="M9.23293 6.23814C9.7908 6.11014 9.3858 4.21814 8.90337 4.36014C8.42094 4.50214 8.67506 6.36614 9.23293 6.23814Z" fill="#AD3320"/>
<path d="M11.175 5.88456C11.7368 5.77056 11.3735 3.86856 10.8911 3.99856C10.4087 4.12856 10.6152 6.00056 11.175 5.88456Z" fill="#AD3320"/>
<path d="M13.0635 5.5444C13.6313 5.4624 13.3772 3.5444 12.8868 3.6444C12.3964 3.7444 12.4977 5.6264 13.0635 5.5444Z" fill="#AD3320"/>
<path d="M20.3207 6.79967C19.7629 6.67167 20.1679 4.77967 20.6503 4.92167C21.1327 5.06367 20.8746 6.92367 20.3207 6.79967Z" fill="#AD3320"/>
<path d="M18.4731 6.23814C17.9152 6.11014 18.3202 4.21814 18.8026 4.36014C19.285 4.50214 19.0309 6.36614 18.4731 6.23814Z" fill="#AD3320"/>
<path d="M16.5327 5.88456C15.9709 5.77056 16.3342 3.86856 16.8166 3.99856C17.2991 4.12856 17.0926 6.00056 16.5327 5.88456Z" fill="#AD3320"/>
<path d="M14.6427 5.5444C14.0749 5.4624 14.329 3.5444 14.8194 3.6444C15.3098 3.7444 15.2085 5.6264 14.6427 5.5444Z" fill="#AD3320"/>
<path d="M20.0526 23.9742L16.6657 27.8522L14.3171 26.2882L12.181 27.8522L8.125 23.8322C8.72059 23.6502 9.26853 23.5022 9.71324 23.3682L14.3112 25.5142L18.5974 23.5382C19.0421 23.6642 19.5365 23.8002 20.0526 23.9742Z" fill="white"/>
</svg>
