<svg width="12" height="12" viewBox="0 0 12 12" fill="none" xmlns="http://www.w3.org/2000/svg">
<path d="M4.71865 11.4883C7.62099 12.2522 10.6199 10.4853 11.4209 7.54884C12.2219 4.61235 10.5241 1.60926 7.62181 0.84535C4.71947 0.0814367 1.72056 1.84833 0.919552 4.78481C0.118545 7.7213 1.81631 10.7244 4.71865 11.4883Z" fill="#A60D0D" stroke="#7A090B" stroke-width="0.333903"/>
<path d="M4.37856 11.1548C7.2809 11.9187 10.2798 10.1519 11.0808 7.21537C11.8818 4.27888 10.1841 1.2758 7.28172 0.511885C4.37938 -0.252029 1.38047 1.51486 0.579464 4.45135C-0.221543 7.38783 1.47623 10.3909 4.37856 11.1548Z" fill="#FF6523" stroke="#7A090B" stroke-width="0.333903"/>
<path d="M4.64273 10.1873C7.00219 10.8083 9.44111 9.3571 10.096 6.95614C10.751 4.55518 9.37748 2.10052 7.01802 1.47949C4.65857 0.858467 2.21964 2.30967 1.56471 4.71064C0.909782 7.1116 2.28328 9.56626 4.64273 10.1873Z" stroke="#DF4212" stroke-width="0.333903"/>
<path fill-rule="evenodd" clip-rule="evenodd" d="M8.9833 2.85813C8.51679 2.45034 7.95282 2.14215 7.31412 1.97404C5.04742 1.37743 2.69785 2.77098 2.06619 5.08662C1.65827 6.58205 2.06658 8.09634 3.0175 9.14214C1.82842 8.10274 1.27252 6.41628 1.72619 4.75314C2.35784 2.4375 4.70741 1.04396 6.97411 1.64057C7.77697 1.85188 8.46175 2.28454 8.9833 2.85813Z" fill="#FF7C65"/>
<ellipse cx="0.221077" cy="0.218765" rx="0.221077" ry="0.218765" transform="matrix(0.685045 0.732524 -0.723434 0.686033 7.98621 8.34369)" fill="#DC5321"/>
<ellipse cx="0.221077" cy="0.218765" rx="0.221077" ry="0.218765" transform="matrix(0.685045 0.732524 -0.723434 0.686033 6.04395 9.31561)" fill="#DC5321"/>
<ellipse cx="0.153964" cy="0.152354" rx="0.153964" ry="0.152354" transform="matrix(0.685045 0.732524 -0.723434 0.686033 5.66125 8.94049)" fill="#DC5321"/>
<ellipse cx="0.153964" cy="0.152354" rx="0.153964" ry="0.152354" transform="matrix(0.685045 0.732524 -0.723434 0.686033 6.27258 8.67212)" fill="#DC5321"/>
<ellipse cx="0.153964" cy="0.152354" rx="0.153964" ry="0.152354" transform="matrix(0.685045 0.732524 -0.723434 0.686033 6.64441 9.29095)" fill="#DC5321"/>
<ellipse cx="0.153964" cy="0.152354" rx="0.153964" ry="0.152354" transform="matrix(0.685045 0.732524 -0.723434 0.686033 7.57385 9.07574)" fill="#DC5321"/>
<ellipse cx="0.153964" cy="0.152354" rx="0.153964" ry="0.152354" transform="matrix(0.685045 0.732524 -0.723434 0.686033 6.82886 8.82184)" fill="#DC5321"/>
<ellipse cx="0.153964" cy="0.152354" rx="0.153964" ry="0.152354" transform="matrix(0.685045 0.732524 -0.723434 0.686033 5.40149 9.43317)" fill="#DC5321"/>
<ellipse cx="0.142293" cy="0.140805" rx="0.142293" ry="0.140805" transform="matrix(0.685045 0.732524 -0.723434 0.686033 4.33093 9.07904)" fill="#DC5321"/>
<ellipse cx="0.0870634" cy="0.0861531" rx="0.0870634" ry="0.0861531" transform="matrix(0.685045 0.732524 -0.723434 0.686033 4.83728 9.3941)" fill="#DC5321"/>
<ellipse cx="0.118434" cy="0.117196" rx="0.118434" ry="0.117196" transform="matrix(0.685045 0.732524 -0.723434 0.686033 7.32507 8.78754)" fill="#DC5321"/>
<ellipse cx="0.118434" cy="0.117196" rx="0.118434" ry="0.117196" transform="matrix(0.685045 0.732524 -0.723434 0.686033 7.03284 9.26129)" fill="#DC5321"/>
<ellipse cx="0.118434" cy="0.117196" rx="0.118434" ry="0.117196" transform="matrix(0.685045 0.732524 -0.723434 0.686033 5.08618 8.96582)" fill="#DC5321"/>
<ellipse cx="0.118434" cy="0.117196" rx="0.118434" ry="0.117196" transform="matrix(0.685045 0.732524 -0.723434 0.686033 3.78259 8.79114)" fill="#DC5321"/>
<path d="M4.64001 1.00452C3.06128 1.43253 1.78965 2.58763 1.22192 4.08002" stroke="#FF3B29" stroke-width="0.333903" stroke-linecap="round" stroke-linejoin="round"/>
<path d="M8.47913 10.0065C9.07852 9.61505 9.58876 9.10232 9.97354 8.50397" stroke="#FF3B29" stroke-width="0.333903" stroke-linecap="round" stroke-linejoin="round"/>
<path d="M2.9405 1.82663C2.9405 1.82663 2.43062 2.16053 2.0907 2.66139M3.62052 2.66074C3.62052 2.66074 3.11064 2.99464 2.77072 3.4955" stroke="white" stroke-width="0.333903" stroke-linecap="round" stroke-linejoin="round"/>
<path d="M2.71426 5.34115C2.71418 5.34087 2.7141 5.34059 2.71402 5.3403L2.91559 5.28503C2.9015 5.23538 2.89424 5.18712 2.89382 5.14025C2.89344 5.09339 2.89914 5.04685 2.91089 5.00062C2.92265 4.95439 2.93988 4.91084 2.96257 4.86995C2.98531 4.82908 3.01473 4.79021 3.05083 4.75332M2.71426 5.34115C2.69575 5.27564 2.68542 5.20912 2.68482 5.14214L2.68482 5.14191C2.6843 5.0768 2.69224 5.01239 2.70834 4.9491C2.72444 4.88581 2.74823 4.82544 2.77982 4.76853L2.77993 4.76833C2.81245 4.70988 2.85328 4.65647 2.90079 4.60782M2.71426 5.34115C2.89626 6.00432 3.21906 6.58578 3.68189 7.08258M2.71426 5.34115L3.68189 7.08258M2.90079 4.60782C2.90058 4.60803 2.90038 4.60825 2.90018 4.60846L3.05083 4.75332M2.90079 4.60782C2.90101 4.60759 2.90124 4.60736 2.90147 4.60712L3.05083 4.75332M2.90079 4.60782C3.37754 4.11221 3.93894 3.75566 4.58291 3.54038M3.05083 4.75332C3.50468 4.28134 4.03746 3.9431 4.64917 3.7386M4.64917 3.7386L4.58291 3.54038M4.64917 3.7386C5.26089 3.53406 5.88375 3.51242 6.51775 3.67369C7.15175 3.83495 7.68857 4.15157 8.12821 4.62354M4.64917 3.7386L8.28114 4.48107M4.58291 3.54038C5.23322 3.32293 5.89699 3.30013 6.56927 3.47113C7.24155 3.64213 7.81375 3.97932 8.28114 4.48107M4.58291 3.54038L8.28114 4.48107M8.28114 4.48107L8.12821 4.62354M8.28114 4.48107C8.74398 4.97788 9.06678 5.55935 9.24879 6.22253C9.26729 6.28803 9.27762 6.35454 9.27822 6.42153L9.27822 6.42175C9.27874 6.48686 9.2708 6.55127 9.2547 6.61456C9.2386 6.67786 9.2148 6.73822 9.18322 6.79514L9.18311 6.79533C9.15059 6.85378 9.10976 6.9072 9.06225 6.95584C8.5855 7.45145 8.0241 7.80801 7.38013 8.02328C6.72981 8.24073 6.06604 8.26353 5.39376 8.09253C4.72148 7.92153 4.14928 7.58434 3.68189 7.08258M8.28114 4.48107C8.28114 4.48107 8.28114 4.48108 8.28115 4.48108L8.12821 4.62354M8.12821 4.62354C8.56787 5.09546 8.87428 5.64716 9.04745 6.27863M9.04745 6.27863C9.06154 6.32829 9.0688 6.37655 9.06922 6.42341C9.0696 6.47027 9.0639 6.51681 9.05214 6.56304C9.04039 6.60927 9.02316 6.65283 9.00047 6.69371C8.97773 6.73458 8.94831 6.77346 8.9122 6.81034C8.45835 7.28233 7.92557 7.62056 7.31387 7.82506C6.70215 8.0296 6.07929 8.05124 5.44529 7.88998C4.81129 7.72871 4.27447 7.41209 3.83483 6.94012L9.04745 6.27863ZM9.04745 6.27863L3.68189 7.08258M7.1721 7.18877C6.65977 7.35449 6.1412 7.37035 5.61172 7.23567C5.08224 7.10099 4.63427 6.83928 4.26338 6.44891C3.95458 6.12387 3.73577 5.75167 3.60515 5.33044C3.57351 5.22841 3.60174 5.11742 3.67828 5.04291C3.9943 4.73529 4.36435 4.51287 4.79093 4.37489C5.30327 4.20917 5.82184 4.19331 6.35132 4.32799C6.8808 4.46267 7.32877 4.72438 7.69966 5.11476C8.00846 5.43979 8.22727 5.81199 8.35789 6.23323C8.38953 6.33525 8.3613 6.44624 8.28476 6.52075C7.96874 6.82838 7.59868 7.05079 7.1721 7.18877ZM6.21606 6.61889C6.68493 6.50294 6.97103 6.02885 6.85509 5.55998C6.73914 5.09111 6.26505 4.80501 5.79618 4.92096C5.32731 5.03691 5.04121 5.51099 5.15716 5.97986C5.2731 6.44873 5.74719 6.73484 6.21606 6.61889Z" fill="#FB7C55" stroke="#CB1414" stroke-width="0.418013"/>
</svg>
