<svg width="15" height="14" viewBox="0 0 15 14" fill="none" xmlns="http://www.w3.org/2000/svg">
    <path
        d="M6.00528 13.403C9.3914 14.2942 12.8902 12.2328 13.8247 8.80685C14.7592 5.38089 12.7785 1.87723 9.39236 0.985981C6.00624 0.0947332 2.50745 2.15614 1.57292 5.5821C0.638396 9.00806 2.61916 12.5117 6.00528 13.403Z"
        fill="#A60D0D" stroke="#7A090B" stroke-width="0.38956" />
    <path
        d="M5.60806 13.0141C8.99418 13.9053 12.493 11.8439 13.4275 8.41797C14.362 4.99201 12.3813 1.48834 8.99514 0.597096C5.60902 -0.294152 2.11023 1.76725 1.1757 5.19321C0.241179 8.61918 2.22194 12.1228 5.60806 13.0141Z"
        fill="#FF6523" stroke="#7A090B" stroke-width="0.38956" />
    <path
        d="M5.91627 11.8853C8.66902 12.6098 11.5145 10.9167 12.2786 8.11555C13.0427 5.31438 11.4402 2.45056 8.68749 1.72602C5.93475 1.00147 3.08928 2.69458 2.32518 5.49575C1.56109 8.29692 3.16352 11.1607 5.91627 11.8853Z"
        stroke="#DF4212" stroke-width="0.38956" />
    <path fill-rule="evenodd" clip-rule="evenodd"
        d="M10.9832 3.33567C10.4386 2.8591 9.77996 2.49894 9.03394 2.30258C6.38941 1.60652 3.64819 3.23236 2.91125 5.93398C2.43558 7.67781 2.91122 9.4436 4.01945 10.6637C2.63345 9.45087 1.98571 7.4842 2.51476 5.5447C3.2517 2.84308 5.99292 1.21725 8.63745 1.9133C9.575 2.16007 10.3745 2.66555 10.9832 3.33567Z"
        fill="#FF7C65" />
    <ellipse cx="0.257927" cy="0.255231" rx="0.257927" ry="0.255231"
        transform="matrix(0.685045 0.732524 -0.723434 0.686033 9.81738 9.73468)" fill="#DC5321" />
    <ellipse cx="0.257927" cy="0.255231" rx="0.257927" ry="0.255231"
        transform="matrix(0.685045 0.732524 -0.723434 0.686033 7.55164 10.8683)" fill="#DC5321" />
    <ellipse cx="0.179628" cy="0.17775" rx="0.179628" ry="0.17775"
        transform="matrix(0.685045 0.732524 -0.723434 0.686033 7.10498 10.4308)" fill="#DC5321" />
    <ellipse cx="0.179628" cy="0.17775" rx="0.179628" ry="0.17775"
        transform="matrix(0.685045 0.732524 -0.723434 0.686033 7.81824 10.1179)" fill="#DC5321" />
    <ellipse cx="0.179628" cy="0.17775" rx="0.179628" ry="0.17775"
        transform="matrix(0.685045 0.732524 -0.723434 0.686033 8.25195 10.8398)" fill="#DC5321" />
    <ellipse cx="0.179628" cy="0.17775" rx="0.179628" ry="0.17775"
        transform="matrix(0.685045 0.732524 -0.723434 0.686033 9.33667 10.5888)" fill="#DC5321" />
    <ellipse cx="0.179628" cy="0.17775" rx="0.179628" ry="0.17775"
        transform="matrix(0.685045 0.732524 -0.723434 0.686033 8.46692 10.2926)" fill="#DC5321" />
    <ellipse cx="0.179628" cy="0.17775" rx="0.179628" ry="0.17775"
        transform="matrix(0.685045 0.732524 -0.723434 0.686033 6.802 11.0054)" fill="#DC5321" />
    <ellipse cx="0.166011" cy="0.164275" rx="0.166011" ry="0.164275"
        transform="matrix(0.685045 0.732524 -0.723434 0.686033 5.55249 10.5926)" fill="#DC5321" />
    <ellipse cx="0.101576" cy="0.100514" rx="0.101576" ry="0.100514"
        transform="matrix(0.685045 0.732524 -0.723434 0.686033 6.14343 10.9599)" fill="#DC5321" />
    <ellipse cx="0.138175" cy="0.136731" rx="0.138175" ry="0.136731"
        transform="matrix(0.685045 0.732524 -0.723434 0.686033 9.04565 10.2523)" fill="#DC5321" />
    <ellipse cx="0.138175" cy="0.136731" rx="0.138175" ry="0.136731"
        transform="matrix(0.685045 0.732524 -0.723434 0.686033 8.70471 10.8053)" fill="#DC5321" />
    <ellipse cx="0.138175" cy="0.136731" rx="0.138175" ry="0.136731"
        transform="matrix(0.685045 0.732524 -0.723434 0.686033 6.43359 10.4604)" fill="#DC5321" />
    <ellipse cx="0.138175" cy="0.136731" rx="0.138175" ry="0.136731"
        transform="matrix(0.685045 0.732524 -0.723434 0.686033 4.91296 10.2565)" fill="#DC5321" />
    <path d="M5.91321 1.17165C4.07132 1.67101 2.58772 3.01865 1.92537 4.7598" stroke="#FF3B29"
        stroke-width="0.38956" stroke-linecap="round" stroke-linejoin="round" />
    <path d="M10.3923 11.674C11.0916 11.2173 11.6869 10.6191 12.1359 9.92102" stroke="#FF3B29"
        stroke-width="0.38956" stroke-linecap="round" stroke-linejoin="round" />
    <path
        d="M3.93017 2.13095C3.93017 2.13095 3.3353 2.52051 2.93872 3.10485M4.72355 3.1041C4.72355 3.1041 4.12868 3.49366 3.7321 4.078"
        stroke="white" stroke-width="0.38956" stroke-linecap="round" stroke-linejoin="round" />
    <path
        d="M3.63192 5.99881L3.63191 5.99855C3.63131 5.92259 3.64057 5.84744 3.65936 5.7736C3.67814 5.69976 3.7059 5.62933 3.74276 5.56293L3.74288 5.5627C3.78083 5.49451 3.82846 5.4322 3.88388 5.37544C4.4401 4.79722 5.09508 4.38123 5.84639 4.13007M3.63192 5.99881L5.84639 4.13007M3.63192 5.99881C3.63262 6.07697 3.64467 6.15457 3.66626 6.231M3.63192 5.99881L3.87575 5.99661M5.84639 4.13007C6.6051 3.87637 7.37952 3.84977 8.16386 4.04927C8.9482 4.24878 9.61578 4.64217 10.1611 5.22756M5.84639 4.13007L10.1611 5.22756M10.1611 5.22756C10.7011 5.80719 11.0777 6.48558 11.29 7.25932L10.1611 5.22756ZM3.90115 6.16552C3.88471 6.1076 3.87625 6.05129 3.87575 5.99661M3.90115 6.16552L3.66599 6.23001C3.66608 6.23034 3.66617 6.23067 3.66626 6.231M3.90115 6.16552L3.66657 6.2321C3.66647 6.23173 3.66636 6.23137 3.66626 6.231M3.90115 6.16552C4.10319 6.90226 4.46068 7.54592 4.97362 8.0965C5.48654 8.64714 6.11284 9.01654 6.85252 9.20468L3.66626 6.231M3.87575 5.99661C3.87532 5.94194 3.88196 5.88764 3.89568 5.83371C3.9094 5.77978 3.92949 5.72896 3.95597 5.68126L3.87575 5.99661ZM3.66626 6.231C3.8786 7.00471 4.25521 7.68309 4.79519 8.26271L3.66626 6.231ZM8.86718 8.3866C8.26944 8.57995 7.66443 8.59845 7.04669 8.44132C6.42895 8.28419 5.90631 7.97885 5.47361 7.52341C5.11333 7.14419 4.85805 6.70995 4.70565 6.2185C4.66874 6.09947 4.70168 5.96998 4.79098 5.88305C5.15967 5.52415 5.59141 5.26466 6.0891 5.10368C6.68683 4.91033 7.29184 4.89183 7.90958 5.04896C8.52732 5.20609 9.04996 5.51142 9.48266 5.96687C9.84294 6.34609 10.0982 6.78033 10.2506 7.27178C10.2875 7.39081 10.2546 7.5203 10.1653 7.60723C9.7966 7.96613 9.36486 8.22562 8.86718 8.3866ZM7.75177 7.72172C8.2988 7.58645 8.63259 7.03334 8.49732 6.48631C8.36204 5.93929 7.80893 5.6055 7.2619 5.74077C6.71488 5.87604 6.38109 6.42916 6.51636 6.97618C6.65164 7.52321 7.20475 7.857 7.75177 7.72172Z"
        fill="#FB7C55" stroke="#CB1414" stroke-width="0.487691" />
</svg>