<svg width="11" height="12" viewBox="0 0 11 12" fill="none" xmlns="http://www.w3.org/2000/svg">
<path d="M4.9751 6.34994L4.2501 5.63744C4.15843 5.54577 4.04385 5.49994 3.90635 5.49994C3.76885 5.49994 3.6501 5.54994 3.5501 5.64994C3.45843 5.7416 3.4126 5.85827 3.4126 5.99994C3.4126 6.1416 3.45843 6.25827 3.5501 6.34994L4.6251 7.42494C4.7251 7.52494 4.84176 7.57494 4.9751 7.57494C5.10843 7.57494 5.2251 7.52494 5.3251 7.42494L7.4501 5.29994C7.5501 5.19994 7.59801 5.08327 7.59385 4.94994C7.58968 4.8166 7.54176 4.69994 7.4501 4.59994C7.3501 4.49994 7.23135 4.44785 7.09385 4.44369C6.95635 4.43952 6.8376 4.48744 6.7376 4.58744L4.9751 6.34994ZM3.5751 10.8749L2.8501 9.64994L1.4751 9.34994C1.3501 9.32494 1.2501 9.26035 1.1751 9.15619C1.1001 9.05202 1.07093 8.93744 1.0876 8.81244L1.2251 7.39994L0.287598 6.32494C0.204264 6.23327 0.162598 6.12494 0.162598 5.99994C0.162598 5.87494 0.204264 5.7666 0.287598 5.67494L1.2251 4.59994L1.0876 3.18744C1.07093 3.06244 1.1001 2.94785 1.1751 2.84369C1.2501 2.73952 1.3501 2.67494 1.4751 2.64994L2.8501 2.34994L3.5751 1.12494C3.64176 1.0166 3.73343 0.943687 3.8501 0.906187C3.96676 0.868687 4.08343 0.874937 4.2001 0.924937L5.5001 1.47494L6.8001 0.924937C6.91676 0.874937 7.03343 0.868687 7.1501 0.906187C7.26676 0.943687 7.35843 1.0166 7.4251 1.12494L8.1501 2.34994L9.5251 2.64994C9.6501 2.67494 9.7501 2.73952 9.8251 2.84369C9.9001 2.94785 9.92927 3.06244 9.9126 3.18744L9.7751 4.59994L10.7126 5.67494C10.7959 5.7666 10.8376 5.87494 10.8376 5.99994C10.8376 6.12494 10.7959 6.23327 10.7126 6.32494L9.7751 7.39994L9.9126 8.81244C9.92927 8.93744 9.9001 9.05202 9.8251 9.15619C9.7501 9.26035 9.6501 9.32494 9.5251 9.34994L8.1501 9.64994L7.4251 10.8749C7.35843 10.9833 7.26676 11.0562 7.1501 11.0937C7.03343 11.1312 6.91676 11.1249 6.8001 11.0749L5.5001 10.5249L4.2001 11.0749C4.08343 11.1249 3.96676 11.1312 3.8501 11.0937C3.73343 11.0562 3.64176 10.9833 3.5751 10.8749ZM4.2251 9.97494L5.5001 9.42494L6.8001 9.97494L7.5001 8.77494L8.8751 8.44994L8.7501 7.04994L9.6751 5.99994L8.7501 4.92494L8.8751 3.52494L7.5001 3.22494L6.7751 2.02494L5.5001 2.57494L4.2001 2.02494L3.5001 3.22494L2.1251 3.52494L2.2501 4.92494L1.3251 5.99994L2.2501 7.04994L2.1251 8.47494L3.5001 8.77494L4.2251 9.97494Z" fill="white"/>
</svg>
