<svg width="78" height="79" viewBox="0 0 78 79" fill="none" xmlns="http://www.w3.org/2000/svg">
<path d="M0.275306 41.6472C-0.0407596 35.947 0.905515 30.2472 3.04657 24.9549L38.9994 39.5L0.275306 41.6472Z" fill="url(#paint0_radial_1035_16893)"/>
<path d="M77.7241 37.3534C78.0402 43.0536 77.0939 48.7534 74.9528 54.0457L39 39.5005L77.7241 37.3534Z" fill="url(#paint1_radial_1035_16893)"/>
<path d="M41.1464 78.2245C35.4462 78.5406 29.7464 77.5943 24.4541 75.4533L38.9992 39.5004L41.1464 78.2245Z" fill="url(#paint2_radial_1035_16893)"/>
<path d="M36.853 0.776282C42.5533 0.460218 48.253 1.40649 53.5453 3.54756L39 39.5005L36.853 0.776282Z" fill="url(#paint3_radial_1035_16893)"/>
<path d="M64.8639 10.5999C69.1181 14.407 72.4793 19.1065 74.7075 24.3627L39 39.5005L64.8639 10.5999Z" fill="url(#paint4_radial_1035_16893)"/>
<path d="M67.9005 65.3639C64.0933 69.6181 59.3939 72.9793 54.1377 75.2075L39.0002 39.5001L67.9005 65.3639Z" fill="url(#paint5_radial_1035_16893)"/>
<path d="M13.1359 68.4006C8.88172 64.5934 5.52052 59.8939 3.29225 54.6378L38.9994 39.5L13.1359 68.4006Z" fill="url(#paint6_radial_1035_16893)"/>
<path d="M10.0993 13.6363C13.9065 9.38212 18.6059 6.02092 23.8621 3.79266L38.9994 39.5L10.0993 13.6363Z" fill="url(#paint7_radial_1035_16893)"/>
<defs>
<radialGradient id="paint0_radial_1035_16893" cx="0" cy="0" r="1" gradientUnits="userSpaceOnUse" gradientTransform="translate(39.1695 39.6701) rotate(-118.258) scale(34.9156)">
<stop stop-color="#2CA5FB"/>
<stop offset="0.23" stop-color="#2C86FB" stop-opacity="0.46"/>
<stop offset="1" stop-color="#2CACFB" stop-opacity="0"/>
</radialGradient>
<radialGradient id="paint1_radial_1035_16893" cx="0" cy="0" r="1" gradientUnits="userSpaceOnUse" gradientTransform="translate(39.1695 39.6701) rotate(-118.258) scale(34.9156)">
<stop stop-color="#2CA5FB"/>
<stop offset="0.23" stop-color="#2C86FB" stop-opacity="0.46"/>
<stop offset="1" stop-color="#2CACFB" stop-opacity="0"/>
</radialGradient>
<radialGradient id="paint2_radial_1035_16893" cx="0" cy="0" r="1" gradientUnits="userSpaceOnUse" gradientTransform="translate(39.1695 39.6701) rotate(-118.258) scale(34.9156)">
<stop stop-color="#2CA5FB"/>
<stop offset="0.23" stop-color="#2C86FB" stop-opacity="0.46"/>
<stop offset="1" stop-color="#2CACFB" stop-opacity="0"/>
</radialGradient>
<radialGradient id="paint3_radial_1035_16893" cx="0" cy="0" r="1" gradientUnits="userSpaceOnUse" gradientTransform="translate(39.1695 39.6701) rotate(-118.258) scale(34.9156)">
<stop stop-color="#2CA5FB"/>
<stop offset="0.23" stop-color="#2C86FB" stop-opacity="0.46"/>
<stop offset="1" stop-color="#2CACFB" stop-opacity="0"/>
</radialGradient>
<radialGradient id="paint4_radial_1035_16893" cx="0" cy="0" r="1" gradientUnits="userSpaceOnUse" gradientTransform="translate(39.1695 39.6701) rotate(-118.258) scale(34.9156)">
<stop stop-color="#2CA5FB"/>
<stop offset="0.23" stop-color="#2C86FB" stop-opacity="0.46"/>
<stop offset="1" stop-color="#2CACFB" stop-opacity="0"/>
</radialGradient>
<radialGradient id="paint5_radial_1035_16893" cx="0" cy="0" r="1" gradientUnits="userSpaceOnUse" gradientTransform="translate(39.1695 39.6701) rotate(-118.258) scale(34.9156)">
<stop stop-color="#2CA5FB"/>
<stop offset="0.23" stop-color="#2C86FB" stop-opacity="0.46"/>
<stop offset="1" stop-color="#2CACFB" stop-opacity="0"/>
</radialGradient>
<radialGradient id="paint6_radial_1035_16893" cx="0" cy="0" r="1" gradientUnits="userSpaceOnUse" gradientTransform="translate(39.1695 39.6701) rotate(-118.258) scale(34.9156)">
<stop stop-color="#2CA5FB"/>
<stop offset="0.23" stop-color="#2C86FB" stop-opacity="0.46"/>
<stop offset="1" stop-color="#2CACFB" stop-opacity="0"/>
</radialGradient>
<radialGradient id="paint7_radial_1035_16893" cx="0" cy="0" r="1" gradientUnits="userSpaceOnUse" gradientTransform="translate(39.1695 39.6701) rotate(-118.258) scale(34.9156)">
<stop stop-color="#2CA5FB"/>
<stop offset="0.23" stop-color="#2C86FB" stop-opacity="0.46"/>
<stop offset="1" stop-color="#2CACFB" stop-opacity="0"/>
</radialGradient>
</defs>
</svg>
