<svg width="22" height="22" viewBox="0 0 22 22" fill="none" xmlns="http://www.w3.org/2000/svg">
<g id="orbit_24dp_E8EAED_FILL0_wght400_GRAD0_opsz24 (1) 2">
<path id="Vector" d="M4.95 12.8334H6.41667C6.41667 12.5737 6.50451 12.356 6.68021 12.1803C6.8559 12.0046 7.07361 11.9168 7.33333 11.9168H14.6667C14.9264 11.9168 15.1441 12.0046 15.3198 12.1803C15.4955 12.356 15.5833 12.5737 15.5833 12.8334H17.05C17.1569 12.8334 17.2448 12.7953 17.3135 12.7189C17.3823 12.6425 17.4167 12.5432 17.4167 12.4209C17.4167 12.3446 17.3976 12.2796 17.3594 12.2262C17.3212 12.1727 17.2639 12.1307 17.1875 12.1001L11 9.35012L4.8125 12.1001C4.73611 12.1307 4.67882 12.1727 4.64062 12.2262C4.60243 12.2796 4.58333 12.3446 4.58333 12.4209C4.58333 12.5432 4.61771 12.6425 4.68646 12.7189C4.75521 12.7953 4.84306 12.8334 4.95 12.8334ZM8.25 18.3334H13.75V13.7501H8.25V18.3334ZM13.0396 4.72095C12.8104 4.82789 12.5813 4.83171 12.3521 4.73241C12.1229 4.6331 11.9549 4.46887 11.8479 4.2397C11.7715 4.07164 11.6608 3.93414 11.5156 3.8272C11.3705 3.72026 11.1986 3.66678 11 3.66678C10.7403 3.66678 10.5226 3.75463 10.3469 3.93033C10.1712 4.10602 10.0833 4.32373 10.0833 4.58345C10.0833 4.84317 10.1712 5.06088 10.3469 5.23658C10.5226 5.41227 10.7403 5.50012 11 5.50012C11.2597 5.50012 11.4774 5.58796 11.6531 5.76366C11.8288 5.93935 11.9167 6.15706 11.9167 6.41678V7.74595L17.9208 10.4043C18.3181 10.5876 18.6389 10.8664 18.8833 11.2407C19.1278 11.615 19.25 12.0237 19.25 12.4668C19.25 13.0779 19.0361 13.5973 18.6083 14.0251C18.1806 14.4529 17.6611 14.6668 17.05 14.6668H15.5833V19.2501C15.5833 19.5098 15.4955 19.7275 15.3198 19.9032C15.1441 20.0789 14.9264 20.1668 14.6667 20.1668H7.33333C7.07361 20.1668 6.8559 20.0789 6.68021 19.9032C6.50451 19.7275 6.41667 19.5098 6.41667 19.2501V14.6668H4.95C4.33889 14.6668 3.81944 14.4529 3.39167 14.0251C2.96389 13.5973 2.75 13.0779 2.75 12.4668C2.75 12.0237 2.87222 11.615 3.11667 11.2407C3.36111 10.8664 3.68194 10.5876 4.07917 10.4043L10.0833 7.74595V7.15012C9.53333 6.95151 9.09028 6.61921 8.75417 6.15324C8.41806 5.68727 8.25 5.16401 8.25 4.58345C8.25 3.81956 8.51736 3.17026 9.05208 2.63553C9.58681 2.10081 10.2361 1.83345 11 1.83345C11.5806 1.83345 12.0962 1.99387 12.5469 2.3147C12.9976 2.63553 13.3299 3.04039 13.5437 3.52928C13.6507 3.75845 13.6507 3.98762 13.5437 4.21678C13.4368 4.44595 13.2688 4.61401 13.0396 4.72095Z" fill="white"/>
</g>
</svg>
