
<svg width="65" height="47" viewBox="0 0 65 47" fill="none" xmlns="http://www.w3.org/2000/svg">
<g id="Group 207">
<g id="Union">
<path fill-rule="evenodd" clip-rule="evenodd" d="M43.6021 23.3298C43.6021 12.102 34.5001 2.99998 23.2722 2.99998C23.1535 2.99998 23.035 3.001 22.9168 3.00302C22.9161 3.00304 22.9156 3.00249 22.9156 3.0018C22.9156 3.00112 22.915 3.00057 22.9143 3.00057L10.7241 3.00057C6.4264 3.00057 2.94238 6.48458 2.94238 10.7823L2.94238 23.319C2.94238 23.3226 2.94238 23.3262 2.94238 23.3298C2.94238 23.3334 2.94238 23.3371 2.94238 23.3407L2.94238 23.4491C2.94238 23.4492 2.94246 23.4493 2.94256 23.4493C2.94265 23.4493 2.94273 23.4494 2.94273 23.4495C3.00711 34.6223 12.0843 43.6597 23.2722 43.6597C34.5001 43.6597 43.6021 34.5577 43.6021 23.3298Z" fill="white"/>
<path d="M2.94238 23.319L5.59471 23.3204L5.59471 23.319L2.94238 23.319ZM2.94238 23.3407L5.59471 23.3407L5.59471 23.3393L2.94238 23.3407ZM2.94273 23.4495L5.595 23.4342L2.94273 23.4495ZM22.9168 3.00302L22.9623 5.65496L22.9168 3.00302ZM23.2722 5.6523C33.0352 5.6523 40.9497 13.5668 40.9497 23.3298L46.2544 23.3298C46.2544 10.6371 35.9649 0.347659 23.2722 0.347659L23.2722 5.6523ZM22.9623 5.65496C23.0654 5.65319 23.1687 5.6523 23.2722 5.6523L23.2722 0.347659C23.1383 0.347659 23.0047 0.348807 22.8713 0.351092L22.9623 5.65496ZM10.7241 5.65289L22.9143 5.65289L22.9143 0.34825L10.7241 0.348251L10.7241 5.65289ZM5.59471 23.319L5.59471 10.7823L0.290062 10.7823L0.290062 23.319L5.59471 23.319ZM5.5947 23.3298C5.5947 23.3267 5.5947 23.3235 5.59471 23.3204L0.290063 23.3176C0.290061 23.3217 0.29006 23.3257 0.29006 23.3298L5.5947 23.3298ZM5.59471 23.3393C5.5947 23.3361 5.5947 23.333 5.5947 23.3298L0.29006 23.3298C0.29006 23.3339 0.290061 23.338 0.290063 23.3421L5.59471 23.3393ZM5.59471 23.4491L5.59471 23.3407L0.290062 23.3407L0.290062 23.4491L5.59471 23.4491ZM23.2722 41.0073C13.544 41.0073 5.65099 33.149 5.595 23.4342L0.290448 23.4648C0.363239 36.0956 10.6246 46.312 23.2722 46.312L23.2722 41.0073ZM40.9497 23.3298C40.9497 33.0928 33.0353 41.0073 23.2722 41.0073L23.2722 46.312C35.9649 46.312 46.2544 36.0225 46.2544 23.3298L40.9497 23.3298ZM2.94256 26.1016C1.48621 26.1016 0.298869 24.9259 0.290448 23.4648L5.595 23.4342C5.58658 21.9728 4.39909 20.797 2.94256 20.797L2.94256 26.1016ZM10.7241 0.348251C4.96156 0.348251 0.290062 5.01974 0.290062 10.7823L5.59471 10.7823C5.59471 7.94942 7.89123 5.65289 10.7241 5.65289L10.7241 0.348251ZM0.290062 23.4491C0.290063 24.9141 1.47762 26.1016 2.94256 26.1016L2.94256 20.797C4.4073 20.797 5.59471 21.9844 5.59471 23.4491L0.290062 23.4491ZM25.5679 3.0018C25.5679 1.53914 24.3827 0.34825 22.9143 0.34825L22.9143 5.65289C21.4473 5.65289 20.2632 4.4631 20.2632 3.0018L25.5679 3.0018ZM22.8713 0.351092C24.3532 0.325694 25.5679 1.51995 25.5679 3.0018L20.2632 3.0018C20.2632 4.48502 21.4791 5.68038 22.9623 5.65496L22.8713 0.351092Z" fill="#006DF0"/>
</g>
<path id="Subtract" fill-rule="evenodd" clip-rule="evenodd" d="M42.661 40.0812C41.0681 40.8154 40.0794 38.7167 41.186 37.3559C44.281 33.5502 46.1362 28.6957 46.1362 23.408C46.1362 18.12 44.2808 13.2653 41.1855 9.45945C40.0788 8.0987 41.0674 6 42.6604 6.73411C48.9634 9.63885 53.3384 16.0124 53.3384 23.4078C53.3384 30.803 48.9637 37.1764 42.661 40.0812Z" fill="white"/>
<path id="Subtract_2" fill-rule="evenodd" clip-rule="evenodd" d="M54.3221 40.0812C52.7292 40.8153 51.7405 38.7167 52.8472 37.3559C55.9423 33.5501 57.7975 28.6956 57.7975 23.4077C57.7975 18.1196 55.9421 13.2648 52.8467 9.45897C51.7399 8.09825 52.7285 5.99955 54.3215 6.7336C60.6248 9.63822 65.0001 16.0119 65.0001 23.4075C65.0001 30.8029 60.6251 37.1765 54.3221 40.0812Z" fill="white"/>
</g>
</svg>
