<svg width="54" height="54" viewBox="0 0 54 54" fill="none" xmlns="http://www.w3.org/2000/svg">
<path d="M33.1781 49.7689C32.5482 49.7689 32.0375 49.3096 32.0375 48.743C32.0375 48.1764 32.5482 47.7171 33.1781 47.7171C33.8081 47.7171 34.3188 48.1764 34.3188 48.743C34.3188 49.3096 33.8081 49.7689 33.1781 49.7689Z" fill="#212121"/>
<path d="M33.4932 43.6069C32.8633 43.6069 32.3526 43.1476 32.3526 42.581C32.3526 42.0144 32.8633 41.5551 33.4932 41.5551C34.1232 41.5551 34.6338 42.0144 34.6338 42.581C34.6338 43.1476 34.1232 43.6069 33.4932 43.6069Z" fill="#212121"/>
<path d="M22.8198 49.5112C22.1899 49.5112 21.6792 49.0519 21.6792 48.4853C21.6792 47.9187 22.1899 47.4594 22.8198 47.4594C23.4497 47.4594 23.9604 47.9187 23.9604 48.4853C23.9604 49.0519 23.4497 49.5112 22.8198 49.5112Z" fill="#212121"/>
<path d="M22.5772 43.5911C21.9473 43.5911 21.4366 43.1318 21.4366 42.5652C21.4366 41.9986 21.9473 41.5393 22.5772 41.5393C23.2072 41.5393 23.7178 41.9986 23.7178 42.5652C23.7178 43.1318 23.2072 43.5911 22.5772 43.5911Z" fill="#212121"/>
<path d="M27.8978 44.5922L29.4271 43.8243L29.4176 38.3251C29.1276 38.4175 28.8536 38.4685 28.5701 38.4685C28.3375 38.4685 28.1654 38.4844 27.8564 38.4335C27.8691 40.5235 27.8882 42.5053 27.8978 44.5922Z" fill="#484848"/>
<path d="M26.4927 43.7669L27.8978 44.5666L27.8723 38.4333L26.4927 38.2454V43.7669Z" fill="#323232"/>
<path d="M30.6567 44.5122L34.1997 42.4413C34.2953 42.3839 34.3558 42.282 34.3558 42.1705L34.3749 40.8992L29.4206 43.8241L30.6567 44.5122Z" fill="#414040"/>
<path d="M22.8984 48.7241L27.9229 45.8566L27.8974 44.5663L22.8124 47.3095L22.8984 48.7241Z" fill="#414040"/>
<path d="M23.0093 48.5679L22.9966 47.4401L21.7604 46.4779L21.7668 47.5866C21.7668 47.7332 21.8305 47.8702 21.9356 47.9594L22.7895 48.6858C22.8787 48.7655 23.0093 48.6922 23.0093 48.5679Z" fill="#333333"/>
<path d="M29.4203 43.8274L34.2727 41.1319C34.4065 41.0555 34.4161 40.8675 34.2886 40.7783L33.3838 40.1602C33.2468 40.0678 33.0715 40.0582 32.925 40.1411L29.4235 42.1037L29.4203 43.8274Z" fill="#555555"/>
<path d="M23.1155 47.2364L27.8978 44.5665L26.4927 43.77L21.8347 46.3953C21.7264 46.4558 21.7168 46.6088 21.8188 46.682L22.5484 47.2077C22.7141 47.3224 22.9371 47.3352 23.1155 47.2364Z" fill="#555555"/>
<path d="M32.8968 48.9092L33.0434 47.3002L27.8978 44.5761L27.7927 45.806L32.8968 48.9092Z" fill="#333333"/>
<path d="M25.3108 44.436L26.5056 43.7637L21.5799 40.8293L21.5672 42.0305C21.5672 42.1197 21.6118 42.2057 21.6915 42.2503L25.3108 44.436Z" fill="#333333"/>
<path d="M26.5056 43.7633L26.5024 42.1289L23.0742 40.1885C22.9818 40.1376 22.8703 40.1344 22.7747 40.179L21.65 40.7366C21.5545 40.7843 21.5513 40.9182 21.6437 40.9691L26.5056 43.7633Z" fill="#555555"/>
<path d="M32.9255 47.3352L34.2828 46.6056C34.3019 46.596 34.3019 46.5705 34.2828 46.561L29.4208 43.8273L27.8979 44.576L32.5878 47.3288C32.6929 47.3893 32.8204 47.3893 32.9255 47.3352Z" fill="#555555"/>
<path d="M32.9953 48.8678L34.1901 48.1541C34.2507 48.119 34.2889 48.0489 34.2889 47.9725L34.2984 46.5833L32.8074 47.3767L32.7946 48.734C32.7914 48.8518 32.9029 48.9219 32.9953 48.8678Z" fill="#414040"/>
<path d="M39.6189 30.4937L39.587 24.8544C39.587 24.8544 39.0932 22.9746 37.9526 21.9901C36.9968 21.1649 33.2563 19.2819 32.0902 18.7339C31.8449 18.6192 31.574 18.6033 31.3 18.6065C30.5226 18.6128 29.1494 19.4157 28.9487 20.1262C28.6715 21.1107 30.2678 20.7698 30.2678 20.7698L31.1758 21.2477C31.1758 21.2477 31.2013 21.286 31.2618 20.671C31.3223 20.0561 31.7556 20.2091 31.7556 20.2091L37.2389 23.3505C37.2389 23.3505 38.1629 24.4912 38.1947 25.0455C38.2266 25.5999 38.456 31.2648 38.456 31.2648L39.6189 30.4937Z" fill="#6B6B6B"/>
<path d="M38.4655 31.2581L38.4337 25.6187C38.4337 25.6187 37.9398 23.739 36.7992 22.7545C35.6586 21.77 31.0388 19.5206 31.0388 19.5206C31.0388 19.5206 29.159 19.2115 28.8818 20.1992C28.6046 21.1837 28.7575 25.8386 28.7575 25.8386L30.204 26.6096C30.204 26.6096 30.0893 22.0312 30.1403 21.4513C30.1945 20.8332 30.5959 20.983 30.5959 20.983L36.0887 24.1117C36.0887 24.1117 37.0127 25.2523 37.0445 25.8067C37.0764 26.3611 37.0764 30.6432 37.0764 30.6432L38.4655 31.2581Z" fill="#3D3D3D"/>
<path d="M31.0326 21.2093V26.1286L30.0736 26.5874L30.115 21.4769C30.115 21.4451 30.1469 21.2316 30.1565 21.1997L30.2329 21.0787C30.2393 21.0564 30.2648 21.05 30.2743 21.0309C30.3126 20.9735 30.4464 20.9225 30.5197 20.9385C30.5961 20.9608 31.0326 21.2093 31.0326 21.2093Z" fill="#262626"/>
<path d="M40.0838 29.4517L40.0169 32.2141L31.2934 36.4484C31.2934 36.4484 26.6385 37.1334 26.5716 37.1334C26.5047 37.1334 17.179 32.2109 17.179 32.2109V29.3817L40.0838 29.4517Z" fill="#606263"/>
<path d="M31.1022 37.78L39.4561 32.9945C40.2112 32.5612 40.2144 31.4747 39.4625 31.0382L31.3762 26.3388C29.5761 25.2937 27.3554 25.281 25.5457 26.3101L17.9596 30.6177C16.8827 31.2294 16.8764 32.7778 17.9469 33.3991L25.4756 37.764C27.212 38.774 29.3594 38.7804 31.1022 37.78Z" fill="#606263"/>
<path d="M40.1201 28.4039L40.0532 31.1663L31.3297 35.4006C31.3297 35.4006 26.6748 36.0856 26.6079 36.0856C26.541 36.0856 17.2153 31.1631 17.2153 31.1631V28.3338L40.1201 28.4039Z" fill="#6D9599"/>
<path d="M31.1385 36.7322L39.4924 31.9467C40.2475 31.5134 40.2507 30.4269 39.4988 29.9904L31.4125 25.2909C29.6124 24.2459 27.3917 24.2332 25.582 25.2623L17.9959 29.5698C16.919 30.1816 16.9126 31.73 17.9832 32.3513L25.5119 36.7162C27.2483 37.7262 29.3925 37.7326 31.1385 36.7322Z" fill="#6D9599"/>
<path d="M31.224 33.9733L39.5779 29.1878C40.333 28.7545 40.3362 27.6681 39.5843 27.2316L31.498 22.5321C29.6979 21.487 27.4772 21.4743 25.6675 22.5034L18.0814 26.811C17.0045 27.4227 16.9981 28.9712 18.0687 29.5924L25.5974 33.9574C27.3338 34.9674 29.478 34.9737 31.224 33.9733Z" fill="#83A3AE"/>
<path d="M26.815 38.2299L26.7831 32.5905C26.7831 32.5905 26.2893 30.7107 25.1487 29.7262C24.1929 28.901 20.4524 27.0181 19.2863 26.4701C19.041 26.3554 18.7701 26.3394 18.4961 26.3426C17.7187 26.349 16.3455 27.1519 16.1448 27.8624C15.8676 28.8469 17.4639 28.506 17.4639 28.506L18.3719 28.9839C18.3719 28.9839 18.3974 29.0221 18.4579 28.4072C18.5184 27.7923 18.9517 27.9452 18.9517 27.9452L24.435 31.0867C24.435 31.0867 25.359 32.2273 25.3908 32.7817C25.4227 33.3361 25.6521 39.0009 25.6521 39.0009L26.815 38.2299Z" fill="#6B6B6B"/>
<path d="M25.6588 38.9945L25.6269 33.3552C25.6269 33.3552 25.1331 31.4754 23.9925 30.4909C22.8519 29.5064 18.232 27.257 18.232 27.257C18.232 27.257 16.3522 26.948 16.0751 27.9356C15.7979 28.9201 15.9508 33.575 15.9508 33.575L17.2316 34.3333C17.2316 34.3333 17.2443 29.7836 17.3081 29.1687C17.3686 28.5537 17.8019 28.7067 17.8019 28.7067L23.2852 31.8482C23.2852 31.8482 24.2091 32.9888 24.241 33.5431C24.2728 34.0975 24.2728 38.3796 24.2728 38.3796L25.6588 38.9945Z" fill="#3D3D3D"/>
<path d="M18.2312 28.9453L18.2248 33.8646L17.2148 34.3393L17.2785 29.2926C17.2785 29.2098 17.2976 29.1397 17.3231 29.0568L17.3486 28.9772C17.3709 28.7733 17.5398 28.7 17.6991 28.6522C17.7055 28.649 17.715 28.649 17.7214 28.6458C17.7947 28.6363 18.2312 28.9453 18.2312 28.9453Z" fill="#262626"/>
<path d="M23.7815 20.6581V23.583L21.6723 24.7778L21.6117 21.9166L23.7815 20.6581Z" fill="#3D3D3D"/>
<path d="M20.8214 22.3696L21.6115 21.9172L21.6721 24.7783L20.8278 25.2658L20.8214 22.3696Z" fill="#262626"/>
<path d="M15.6922 22.5216L23.6064 18.077C24.61 17.5131 25.2345 16.4521 25.2377 15.3019L25.2727 5.63532C25.2759 4.5648 24.1225 3.88935 23.1922 4.41187L15.8578 8.53785C14.6312 9.22605 13.8729 10.5228 13.8697 11.931L13.8538 21.4415C13.8474 22.3878 14.867 22.9867 15.6922 22.5216Z" fill="#585A5C"/>
<path d="M26.58 4.99229L24.1427 4.24356L22.83 5.19302L24.1204 5.73147C24.3466 5.61677 25.484 4.90946 25.7612 4.89352C26.1021 4.87759 26.3793 4.9222 26.58 4.99229Z" fill="#585A5C"/>
<path d="M17.1112 23.3154L14.6739 22.6145L14.3107 22.4042L15.6807 21.7096L15.9929 21.5312C15.9929 21.5312 15.9483 22.0665 16.0439 22.3915C16.1395 22.7164 17.1112 23.3154 17.1112 23.3154Z" fill="#585A5C"/>
<path d="M16.7307 22.8411L24.6449 18.3966C25.6485 17.8326 26.273 16.7717 26.2762 15.6215L26.3112 5.9549C26.3144 4.88438 25.1611 4.20893 24.2307 4.73145L16.8964 8.85743C15.6697 9.54563 14.9114 10.8424 14.9082 12.2506L14.8923 21.7611C14.8891 22.7073 15.9087 23.3063 16.7307 22.8411Z" fill="#98B2BC"/>
<path d="M27.6204 5.31105L25.183 4.56232L23.8704 5.51177L25.1607 6.05022C25.3869 5.93552 26.5244 5.22821 26.8016 5.21228C27.1425 5.19316 27.4196 5.24095 27.6204 5.31105Z" fill="#98B2BC"/>
<path d="M18.148 23.6342L15.7106 22.9332L15.3474 22.723L16.7174 22.0284L17.0296 21.85C17.0296 21.85 16.985 22.3852 17.0806 22.7102C17.1762 23.0352 18.148 23.6342 18.148 23.6342Z" fill="#98B2BC"/>
<path d="M18.8587 23.4779L26.7729 19.0333C27.7765 18.4694 28.401 17.4084 28.4042 16.2582L28.4392 6.59165C28.4424 5.52113 27.289 4.84568 26.3587 5.3682L19.0243 9.49418C17.7977 10.1824 17.0394 11.4791 17.0362 12.8874L17.0203 22.3978C17.0171 23.3441 18.0335 23.9399 18.8587 23.4779Z" fill="#83A3AE"/>
</svg>
