<svg width="81" height="80" viewBox="0 0 81 80" fill="none" xmlns="http://www.w3.org/2000/svg">
    <path d="M31.9584 76.5908C51.3072 81.6835 71.2998 69.9043 76.6399 50.3279C81.9799 30.7516 70.6615 10.7312 51.3127 5.63848C31.9639 0.545776 11.9712 12.3249 6.63122 31.9013C1.2912 51.4777 12.6096 71.4981 31.9584 76.5908Z" fill="#A56402" stroke="#5B3303" stroke-width="2.226"/>
    <path d="M29.6889 74.3642C49.0377 79.4569 69.0303 67.6778 74.3703 48.1014C79.7103 28.525 68.3919 8.50463 49.0431 3.41192C29.6943 -1.68079 9.70171 10.0984 4.36169 29.6747C-0.978327 49.2511 10.3401 69.2715 29.6889 74.3642Z" fill="#FFB423" stroke="#5B3303" stroke-width="2.226"/>
    <path d="M31.446 67.9117C47.1756 72.0518 63.435 62.3772 67.8012 46.3709C72.1673 30.3647 63.0108 14.0004 47.2811 9.86029C31.5515 5.72017 15.2921 15.3948 10.9259 31.4011C6.55976 47.4073 15.7163 63.7716 31.446 67.9117Z" fill="#FFCF23" stroke="#DF8D12" stroke-width="2.226"/>
    <path fill-rule="evenodd" clip-rule="evenodd" d="M60.4114 19.0766C57.2975 16.3492 53.5306 14.2881 49.2633 13.165C34.1521 9.18761 18.4883 18.4778 14.2773 33.9153C11.5606 43.8746 14.2744 53.9594 20.6001 60.9306C12.6868 53.9999 8.9898 42.7667 12.0116 31.6887C16.2226 16.2512 31.8864 6.961 46.9976 10.9384C52.3599 12.3497 56.9321 15.2422 60.4114 19.0766Z" fill="#FFDD65"/>
    <ellipse cx="1.59706" cy="1.59249" rx="1.59706" ry="1.59249" transform="matrix(0.913272 -0.407405 0.422682 0.906303 55.6953 51.1416)" fill="#EEBE14"/>
    <ellipse cx="1.59706" cy="1.59249" rx="1.59706" ry="1.59249" transform="matrix(0.913272 -0.407405 0.422682 0.906303 62.1758 44.7617)" fill="#EEBE14"/>
    <ellipse cx="1.59706" cy="1.59249" rx="1.59706" ry="1.59249" transform="matrix(0.913272 -0.407405 0.422682 0.906303 54.333 44.1191)" fill="#EEBE14"/>
    <ellipse cx="1.11224" cy="1.10906" rx="1.11224" ry="1.10906" transform="matrix(0.913272 -0.407405 0.422682 0.906303 58.7119 46.502)" fill="#EEBE14"/>
    <ellipse cx="1.11224" cy="1.10906" rx="1.11224" ry="1.10906" transform="matrix(0.913272 -0.407405 0.422682 0.906303 58.2783 41.6758)" fill="#EEBE14"/>
    <ellipse cx="1.11224" cy="1.10906" rx="1.11224" ry="1.10906" transform="matrix(0.913272 -0.407405 0.422682 0.906303 63.3955 40.5908)" fill="#EEBE14"/>
    <ellipse cx="1.11224" cy="1.10906" rx="1.11224" ry="1.10906" transform="matrix(0.913272 -0.407405 0.422682 0.906303 64.0547 33.7197)" fill="#EEBE14"/>
    <ellipse cx="1.11224" cy="1.10906" rx="1.11224" ry="1.10906" transform="matrix(0.913272 -0.407405 0.422682 0.906303 60.5918 38.2168)" fill="#EEBE14"/>
    <ellipse cx="1.11224" cy="1.10906" rx="1.11224" ry="1.10906" transform="matrix(0.913272 -0.407405 0.422682 0.906303 61.5068 49.4404)" fill="#EEBE14"/>
    <ellipse cx="1.02792" cy="1.02498" rx="1.02792" ry="1.02498" transform="matrix(0.913272 -0.407405 0.422682 0.906303 56.5986 55.9424)" fill="#EEBE14"/>
    <ellipse cx="0.628948" cy="0.627147" rx="0.628948" ry="0.627147" transform="matrix(0.913272 -0.407405 0.422682 0.906303 59.9316 53.2168)" fill="#EEBE14"/>
    <ellipse cx="0.855569" cy="0.853119" rx="0.855569" ry="0.853119" transform="matrix(0.913272 -0.407405 0.422682 0.906303 54.9492 48.0996)" fill="#EEBE14"/>
    <ellipse cx="0.855569" cy="0.853119" rx="0.855569" ry="0.853119" transform="matrix(0.913272 -0.407405 0.422682 0.906303 61.5029 34.7393)" fill="#EEBE14"/>
    <ellipse cx="0.855569" cy="0.853119" rx="0.855569" ry="0.853119" transform="matrix(0.913272 -0.407405 0.422682 0.906303 64.085 37.8652)" fill="#EEBE14"/>
    <ellipse cx="0.855569" cy="0.853119" rx="0.855569" ry="0.853119" transform="matrix(0.913272 -0.407405 0.422682 0.906303 53.8379 54.085)" fill="#EEBE14"/>
    <ellipse cx="0.855569" cy="0.853119" rx="0.855569" ry="0.853119" transform="matrix(0.913272 -0.407405 0.422682 0.906303 53.3516 59.0195)" fill="#EEBE14"/>
    <path d="M51.6073 30.5464C49.7721 27.7411 47.682 26.0946 42.9918 25.1191C38.3015 24.1435 33.2289 24.9061 32.0815 30.1204C30.9341 35.3347 35.2419 38.0483 39.9321 39.0239C44.6223 39.9994 48.9301 42.713 47.7827 47.9273C46.6353 53.1416 41.5626 53.9042 36.8724 52.9286C32.1822 51.9531 29.4378 49.5646 28.2569 47.5013" stroke="#C37808" stroke-width="8.90399" stroke-linecap="round" stroke-linejoin="round"/>
    <path d="M44.4668 18.207L43.0446 24.7373" stroke="#C37808" stroke-width="8.90399" stroke-linecap="round" stroke-linejoin="round"/>
    <path d="M36.9102 52.8994L35.4879 59.4296" stroke="#C37808" stroke-width="8.90399" stroke-linecap="round" stroke-linejoin="round"/>
    <path d="M51.6073 30.5464C49.7721 27.7411 47.682 26.0946 42.9918 25.1191C38.3015 24.1435 33.2289 24.9061 32.0815 30.1204C30.9341 35.3347 35.2419 38.0483 39.9321 39.0239C44.6223 39.9994 48.9301 42.713 47.7827 47.9273C46.6353 53.1416 41.5626 53.9042 36.8724 52.9286C32.1822 51.9531 29.4378 49.5646 28.2569 47.5013" stroke="#FFB423" stroke-width="3.339" stroke-linecap="round" stroke-linejoin="round"/>
    <path d="M44.4668 18.207L43.0446 24.7373" stroke="#FFB423" stroke-width="3.339" stroke-linecap="round" stroke-linejoin="round"/>
    <path d="M36.9102 52.8994L35.4879 59.4296" stroke="#FFB423" stroke-width="3.339" stroke-linecap="round" stroke-linejoin="round"/>
    <path d="M31.4326 6.69803C20.9078 9.55144 12.4303 17.252 8.64547 27.2012" stroke="#FFD179" stroke-width="2.226" stroke-linecap="round" stroke-linejoin="round"/>
    <path d="M57.0273 66.7103C61.0233 64.1005 64.4249 60.6823 66.9901 56.6934" stroke="#FFD179" stroke-width="2.226" stroke-linecap="round" stroke-linejoin="round"/>
    <path d="M20.1057 12.1748C20.1057 12.1748 16.7065 14.4008 14.4404 17.7398" stroke="#FFF3D2" stroke-width="2.226" stroke-linecap="round" stroke-linejoin="round"/>
    <path d="M24.637 17.7393C24.637 17.7393 21.2378 19.9653 18.9717 23.3043" stroke="white" stroke-width="2.226" stroke-linecap="round" stroke-linejoin="round"/>
</svg>
