<svg width="14" height="14" viewBox="0 0 14 14" fill="none" xmlns="http://www.w3.org/2000/svg">
    <path
        d="M5.50547 13.4035C8.89151 14.2947 12.3902 12.2333 13.3247 8.80747C14.2592 5.3816 12.2785 1.87804 8.89246 0.986814C5.50642 0.09559 2.00771 2.15694 1.07321 5.58281C0.138705 9.00868 2.11943 12.5122 5.50547 13.4035Z"
        fill="#A56402" stroke="#5B3303" stroke-width="0.38955" />
    <path
        d="M5.10825 13.0142C8.49429 13.9054 11.993 11.8441 12.9275 8.41819C13.862 4.99232 11.8813 1.48876 8.49525 0.597532C5.10921 -0.293692 1.61049 1.76766 0.675992 5.19353C-0.258512 8.61939 1.72221 12.123 5.10825 13.0142Z"
        fill="#FFB423" stroke="#5B3303" stroke-width="0.38955" />
    <path
        d="M5.41574 11.8855C8.16842 12.61 11.0138 10.9169 11.7779 8.11582C12.542 5.31472 10.9396 2.45098 8.18689 1.72646C5.43421 1.00194 2.58881 2.695 1.82473 5.49609C1.06065 8.29719 2.66305 11.1609 5.41574 11.8855Z"
        fill="#FFCF23" stroke="#DF8D12" stroke-width="0.38955" />
    <path fill-rule="evenodd" clip-rule="evenodd"
        d="M10.4866 3.34054C9.94137 2.86253 9.28158 2.5013 8.53404 2.30454C5.88957 1.6085 3.14842 3.23429 2.41149 5.93584C1.93631 7.67785 2.4105 9.44179 3.5163 10.6617C2.13264 9.44869 1.48639 7.48368 2.015 5.54581C2.75193 2.84426 5.49308 1.21847 8.13755 1.91451C9.07681 2.16172 9.87754 2.6686 10.4866 3.34054Z"
        fill="#FFDD65" />
    <ellipse cx="0.279486" cy="0.278686" rx="0.279486" ry="0.278686"
        transform="matrix(0.913272 -0.407405 0.422682 0.906303 9.65955 8.95047)" fill="#EEBE14" />
    <ellipse cx="0.279486" cy="0.278686" rx="0.279486" ry="0.278686"
        transform="matrix(0.913272 -0.407405 0.422682 0.906303 10.7936 7.83392)" fill="#EEBE14" />
    <ellipse cx="0.279486" cy="0.278686" rx="0.279486" ry="0.278686"
        transform="matrix(0.913272 -0.407405 0.422682 0.906303 9.42102 7.72189)" fill="#EEBE14" />
    <ellipse cx="0.194642" cy="0.194085" rx="0.194642" ry="0.194085"
        transform="matrix(0.913272 -0.407405 0.422682 0.906303 10.1874 8.13812)" fill="#EEBE14" />
    <ellipse cx="0.194642" cy="0.194085" rx="0.194642" ry="0.194085"
        transform="matrix(0.913272 -0.407405 0.422682 0.906303 10.1115 7.29388)" fill="#EEBE14" />
    <ellipse cx="0.194642" cy="0.194085" rx="0.194642" ry="0.194085"
        transform="matrix(0.913272 -0.407405 0.422682 0.906303 11.007 7.104)" fill="#EEBE14" />
    <ellipse cx="0.194642" cy="0.194085" rx="0.194642" ry="0.194085"
        transform="matrix(0.913272 -0.407405 0.422682 0.906303 11.1224 5.90121)" fill="#EEBE14" />
    <ellipse cx="0.194642" cy="0.194085" rx="0.194642" ry="0.194085"
        transform="matrix(0.913272 -0.407405 0.422682 0.906303 10.5164 6.6889)" fill="#EEBE14" />
    <ellipse cx="0.194642" cy="0.194085" rx="0.194642" ry="0.194085"
        transform="matrix(0.913272 -0.407405 0.422682 0.906303 10.6766 8.65274)" fill="#EEBE14" />
    <ellipse cx="0.179887" cy="0.179372" rx="0.179887" ry="0.179372"
        transform="matrix(0.913272 -0.407405 0.422682 0.906303 9.8175 9.79019)" fill="#EEBE14" />
    <ellipse cx="0.110066" cy="0.109751" rx="0.110066" ry="0.109751"
        transform="matrix(0.913272 -0.407405 0.422682 0.906303 10.4009 9.31357)" fill="#EEBE14" />
    <ellipse cx="0.149725" cy="0.149296" rx="0.149725" ry="0.149296"
        transform="matrix(0.913272 -0.407405 0.422682 0.906303 9.52893 8.41803)" fill="#EEBE14" />
    <ellipse cx="0.149725" cy="0.149296" rx="0.149725" ry="0.149296"
        transform="matrix(0.913272 -0.407405 0.422682 0.906303 10.6758 6.08011)" fill="#EEBE14" />
    <ellipse cx="0.149725" cy="0.149296" rx="0.149725" ry="0.149296"
        transform="matrix(0.913272 -0.407405 0.422682 0.906303 11.1278 6.62698)" fill="#EEBE14" />
    <ellipse cx="0.149725" cy="0.149296" rx="0.149725" ry="0.149296"
        transform="matrix(0.913272 -0.407405 0.422682 0.906303 9.33447 9.46585)" fill="#EEBE14" />
    <ellipse cx="0.149725" cy="0.149296" rx="0.149725" ry="0.149296"
        transform="matrix(0.913272 -0.407405 0.422682 0.906303 9.24939 10.3291)" fill="#EEBE14" />
    <path
        d="M8.9436 5.34609C8.62245 4.85517 8.25668 4.56703 7.43589 4.39631C6.6151 4.22559 5.72738 4.35904 5.52659 5.27154C5.3258 6.18404 6.07965 6.65893 6.90044 6.82965C7.72123 7.00037 8.47509 7.47526 8.2743 8.38776C8.0735 9.30026 7.18578 9.43371 6.365 9.26299C5.54421 9.09227 5.06395 8.67429 4.85728 8.31321"
        stroke="#C37808" stroke-width="1.5582" stroke-linecap="round" stroke-linejoin="round" />
    <path d="M7.69397 3.18744L7.44508 4.33023" stroke="#C37808" stroke-width="1.5582"
        stroke-linecap="round" stroke-linejoin="round" />
    <path d="M6.37158 9.25787L6.12269 10.4007" stroke="#C37808" stroke-width="1.5582"
        stroke-linecap="round" stroke-linejoin="round" />
    <path
        d="M8.9436 5.34609C8.62245 4.85517 8.25668 4.56703 7.43589 4.39631C6.6151 4.22559 5.72738 4.35904 5.52659 5.27154C5.3258 6.18404 6.07965 6.65893 6.90044 6.82965C7.72123 7.00037 8.47509 7.47526 8.2743 8.38776C8.0735 9.30026 7.18578 9.43371 6.365 9.26299C5.54421 9.09227 5.06395 8.67429 4.85728 8.31321"
        stroke="#FFB423" stroke-width="0.584324" stroke-linecap="round" stroke-linejoin="round" />
    <path d="M7.69397 3.18744L7.44508 4.33023" stroke="#FFB423" stroke-width="0.584324"
        stroke-linecap="round" stroke-linejoin="round" />
    <path d="M6.37158 9.25787L6.12269 10.4007" stroke="#FFB423" stroke-width="0.584324"
        stroke-linecap="round" stroke-linejoin="round" />
    <path d="M5.41345 1.17223C3.57161 1.67158 2.08804 3.01918 1.4257 4.76028" stroke="#FFD179"
        stroke-width="0.38955" stroke-linecap="round" stroke-linejoin="round" />
    <path d="M9.89258 11.6745C10.5919 11.2178 11.1871 10.6196 11.6361 9.92151" stroke="#FFD179"
        stroke-width="0.38955" stroke-linecap="round" stroke-linejoin="round" />
    <path d="M3.43112 2.13144C3.43112 2.13144 2.83627 2.52099 2.4397 3.10531" stroke="#FFF3D2"
        stroke-width="0.38955" stroke-linecap="round" stroke-linejoin="round" />
    <path d="M4.22409 3.10443C4.22409 3.10443 3.62924 3.49398 3.23267 4.07831" stroke="white"
        stroke-width="0.38955" stroke-linecap="round" stroke-linejoin="round" />
</svg>