<svg width="14" height="14" viewBox="0 0 14 14" fill="none" xmlns="http://www.w3.org/2000/svg">
    <path
        d="M5.50498 13.4028C8.89102 14.294 12.3897 12.2327 13.3242 8.80683C14.2587 5.38096 12.278 1.8774 8.89197 0.986173C5.50593 0.0949492 2.00722 2.1563 1.07272 5.58217C0.138217 9.00803 2.11894 12.5116 5.50498 13.4028Z"
        fill="#A56402" stroke="#5B3303" stroke-width="0.38955" />
    <path
        d="M5.10849 13.0142C8.49453 13.9054 11.9932 11.844 12.9277 8.41816C13.8623 4.99229 11.8815 1.48872 8.49549 0.597501C5.10945 -0.293723 1.61074 1.76763 0.676236 5.1935C-0.258268 8.61936 1.72245 12.1229 5.10849 13.0142Z"
        fill="#FFB423" stroke="#5B3303" stroke-width="0.38955" />
    <path
        d="M5.41598 11.8847C8.16866 12.6092 11.0141 10.9162 11.7781 8.11506C12.5422 5.31396 10.9398 2.45022 8.18714 1.7257C5.43445 1.00118 2.58906 2.69423 1.82498 5.49533C1.0609 8.29643 2.6633 11.1602 5.41598 11.8847Z"
        fill="#FFCF23" stroke="#DF8D12" stroke-width="0.38955" />
    <path fill-rule="evenodd" clip-rule="evenodd"
        d="M10.4864 3.33993C9.94113 2.86192 9.28133 2.50069 8.53379 2.30393C5.88933 1.60789 3.14817 3.23368 2.41125 5.93523C1.93607 7.67724 2.41026 9.44118 3.51605 10.6611C2.1324 9.44808 1.48615 7.48307 2.01476 5.5452C2.75168 2.84365 5.49284 1.21786 8.1373 1.91389C9.07657 2.16111 9.8773 2.66799 10.4864 3.33993Z"
        fill="#FFDD65" />
    <ellipse cx="0.279486" cy="0.278686" rx="0.279486" ry="0.278686"
        transform="matrix(0.913272 -0.407405 0.422682 0.906303 9.65918 8.9502)" fill="#EEBE14" />
    <ellipse cx="0.279486" cy="0.278686" rx="0.279486" ry="0.278686"
        transform="matrix(0.913272 -0.407405 0.422682 0.906303 10.793 7.83398)" fill="#EEBE14" />
    <ellipse cx="0.279486" cy="0.278686" rx="0.279486" ry="0.278686"
        transform="matrix(0.913272 -0.407405 0.422682 0.906303 9.4209 7.72168)" fill="#EEBE14" />
    <ellipse cx="0.194642" cy="0.194085" rx="0.194642" ry="0.194085"
        transform="matrix(0.913272 -0.407405 0.422682 0.906303 10.1865 8.1377)" fill="#EEBE14" />
    <ellipse cx="0.194642" cy="0.194085" rx="0.194642" ry="0.194085"
        transform="matrix(0.913272 -0.407405 0.422682 0.906303 10.1113 7.29395)" fill="#EEBE14" />
    <ellipse cx="0.194642" cy="0.194085" rx="0.194642" ry="0.194085"
        transform="matrix(0.913272 -0.407405 0.422682 0.906303 11.0068 7.10352)" fill="#EEBE14" />
    <ellipse cx="0.194642" cy="0.194085" rx="0.194642" ry="0.194085"
        transform="matrix(0.913272 -0.407405 0.422682 0.906303 11.1221 5.90137)" fill="#EEBE14" />
    <ellipse cx="0.194642" cy="0.194085" rx="0.194642" ry="0.194085"
        transform="matrix(0.913272 -0.407405 0.422682 0.906303 10.5156 6.68848)" fill="#EEBE14" />
    <ellipse cx="0.194642" cy="0.194085" rx="0.194642" ry="0.194085"
        transform="matrix(0.913272 -0.407405 0.422682 0.906303 10.6758 8.65234)" fill="#EEBE14" />
    <ellipse cx="0.179887" cy="0.179372" rx="0.179887" ry="0.179372"
        transform="matrix(0.913272 -0.407405 0.422682 0.906303 9.81738 9.79004)" fill="#EEBE14" />
    <ellipse cx="0.110066" cy="0.109751" rx="0.110066" ry="0.109751"
        transform="matrix(0.913272 -0.407405 0.422682 0.906303 10.4004 9.31348)" fill="#EEBE14" />
    <ellipse cx="0.149725" cy="0.149296" rx="0.149725" ry="0.149296"
        transform="matrix(0.913272 -0.407405 0.422682 0.906303 9.52832 8.41797)" fill="#EEBE14" />
    <ellipse cx="0.149725" cy="0.149296" rx="0.149725" ry="0.149296"
        transform="matrix(0.913272 -0.407405 0.422682 0.906303 10.6758 6.08008)" fill="#EEBE14" />
    <ellipse cx="0.149725" cy="0.149296" rx="0.149725" ry="0.149296"
        transform="matrix(0.913272 -0.407405 0.422682 0.906303 11.127 6.62695)" fill="#EEBE14" />
    <ellipse cx="0.149725" cy="0.149296" rx="0.149725" ry="0.149296"
        transform="matrix(0.913272 -0.407405 0.422682 0.906303 9.33398 9.46582)" fill="#EEBE14" />
    <ellipse cx="0.149725" cy="0.149296" rx="0.149725" ry="0.149296"
        transform="matrix(0.913272 -0.407405 0.422682 0.906303 9.24902 10.3291)" fill="#EEBE14" />
    <path
        d="M8.94421 5.34591C8.62306 4.85499 8.25729 4.56685 7.4365 4.39613C6.61571 4.22541 5.72799 4.35885 5.5272 5.27136C5.32641 6.18386 6.08026 6.65875 6.90105 6.82947C7.72184 7.00019 8.4757 7.47508 8.27491 8.38758C8.07411 9.30008 7.1864 9.43353 6.36561 9.2628C5.54482 9.09208 5.06456 8.6741 4.85789 8.31303"
        stroke="#C37808" stroke-width="1.5582" stroke-linecap="round" stroke-linejoin="round" />
    <path d="M7.69434 3.18652L7.44545 4.32931" stroke="#C37808" stroke-width="1.5582"
        stroke-linecap="round" stroke-linejoin="round" />
    <path d="M6.37207 9.25684L6.12318 10.3996" stroke="#C37808" stroke-width="1.5582"
        stroke-linecap="round" stroke-linejoin="round" />
    <path
        d="M8.94421 5.34591C8.62306 4.85499 8.25729 4.56685 7.4365 4.39613C6.61571 4.22541 5.72799 4.35885 5.5272 5.27136C5.32641 6.18386 6.08026 6.65875 6.90105 6.82947C7.72184 7.00019 8.4757 7.47508 8.27491 8.38758C8.07411 9.30008 7.1864 9.43353 6.36561 9.2628C5.54482 9.09208 5.06456 8.6741 4.85789 8.31303"
        stroke="#FFB423" stroke-width="0.584324" stroke-linecap="round" stroke-linejoin="round" />
    <path d="M7.69434 3.18652L7.44545 4.32931" stroke="#FFB423" stroke-width="0.584324"
        stroke-linecap="round" stroke-linejoin="round" />
    <path d="M6.37207 9.25684L6.12318 10.3996" stroke="#FFB423" stroke-width="0.584324"
        stroke-linecap="round" stroke-linejoin="round" />
    <path d="M5.41309 1.17172C3.57124 1.67106 2.08767 3.01867 1.42533 4.75977" stroke="#FFD179"
        stroke-width="0.38955" stroke-linecap="round" stroke-linejoin="round" />
    <path d="M9.89258 11.6739C10.5919 11.2172 11.1871 10.619 11.6361 9.9209" stroke="#FFD179"
        stroke-width="0.38955" stroke-linecap="round" stroke-linejoin="round" />
    <path d="M3.43088 2.13086C3.43088 2.13086 2.83602 2.52041 2.43945 3.10473" stroke="#FFF3D2"
        stroke-width="0.38955" stroke-linecap="round" stroke-linejoin="round" />
    <path d="M4.22385 3.10352C4.22385 3.10352 3.62899 3.49307 3.23242 4.07739" stroke="white"
        stroke-width="0.38955" stroke-linecap="round" stroke-linejoin="round" />
</svg>