<svg width="14" height="14" viewBox="0 0 14 14" fill="none" xmlns="http://www.w3.org/2000/svg">
<path d="M5.50548 13.403C8.89152 14.2942 12.3902 12.2328 13.3247 8.80698C14.2592 5.38111 12.2785 1.87755 8.89248 0.986325C5.50644 0.0951018 2.00773 2.15645 1.07322 5.58232C0.13872 9.00819 2.11944 12.5118 5.50548 13.403Z" fill="#A56402" stroke="#5B3303" stroke-width="0.38955"/>
<path d="M5.10823 13.0137C8.49427 13.9049 11.993 11.8436 12.9275 8.41771C13.862 4.99185 11.8813 1.48828 8.49523 0.597059C5.10919 -0.294165 1.61048 1.76718 0.675976 5.19305C-0.258527 8.61892 1.72219 12.1225 5.10823 13.0137Z" fill="#FFB423" stroke="#5B3303" stroke-width="0.38955"/>
<path d="M5.41574 11.885C8.16842 12.6095 11.0138 10.9164 11.7779 8.11535C12.542 5.31425 10.9396 2.45051 8.18689 1.72599C5.43421 1.00147 2.58881 2.69452 1.82473 5.49562C1.06065 8.29672 2.66305 11.1605 5.41574 11.885Z" fill="#FFCF23" stroke="#DF8D12" stroke-width="0.38955"/>
<path fill-rule="evenodd" clip-rule="evenodd" d="M10.4867 3.34007C9.94143 2.86205 9.28164 2.50082 8.5341 2.30407C5.88964 1.60803 3.14848 3.23382 2.41155 5.93537C1.93637 7.67738 2.41056 9.44132 3.51636 10.6612C2.1327 9.44822 1.48645 7.48321 2.01506 5.54533C2.75199 2.84379 5.49314 1.218 8.13761 1.91403C9.07687 2.16125 9.8776 2.66813 10.4867 3.34007Z" fill="#FFDD65"/>
<ellipse cx="0.279486" cy="0.278686" rx="0.279486" ry="0.278686" transform="matrix(0.913272 -0.407405 0.422682 0.906303 9.6595 8.95)" fill="#EEBE14"/>
<ellipse cx="0.279486" cy="0.278686" rx="0.279486" ry="0.278686" transform="matrix(0.913272 -0.407405 0.422682 0.906303 10.7935 7.83344)" fill="#EEBE14"/>
<ellipse cx="0.279486" cy="0.278686" rx="0.279486" ry="0.278686" transform="matrix(0.913272 -0.407405 0.422682 0.906303 9.42099 7.72141)" fill="#EEBE14"/>
<ellipse cx="0.194642" cy="0.194085" rx="0.194642" ry="0.194085" transform="matrix(0.913272 -0.407405 0.422682 0.906303 10.1874 8.13765)" fill="#EEBE14"/>
<ellipse cx="0.194642" cy="0.194085" rx="0.194642" ry="0.194085" transform="matrix(0.913272 -0.407405 0.422682 0.906303 10.1114 7.2934)" fill="#EEBE14"/>
<ellipse cx="0.194642" cy="0.194085" rx="0.194642" ry="0.194085" transform="matrix(0.913272 -0.407405 0.422682 0.906303 11.007 7.1035)" fill="#EEBE14"/>
<ellipse cx="0.194642" cy="0.194085" rx="0.194642" ry="0.194085" transform="matrix(0.913272 -0.407405 0.422682 0.906303 11.1224 5.90074)" fill="#EEBE14"/>
<ellipse cx="0.194642" cy="0.194085" rx="0.194642" ry="0.194085" transform="matrix(0.913272 -0.407405 0.422682 0.906303 10.5163 6.6884)" fill="#EEBE14"/>
<ellipse cx="0.194642" cy="0.194085" rx="0.194642" ry="0.194085" transform="matrix(0.913272 -0.407405 0.422682 0.906303 10.6765 8.65225)" fill="#EEBE14"/>
<ellipse cx="0.179887" cy="0.179372" rx="0.179887" ry="0.179372" transform="matrix(0.913272 -0.407405 0.422682 0.906303 9.81749 9.78969)" fill="#EEBE14"/>
<ellipse cx="0.110066" cy="0.109751" rx="0.110066" ry="0.109751" transform="matrix(0.913272 -0.407405 0.422682 0.906303 10.4008 9.31306)" fill="#EEBE14"/>
<ellipse cx="0.149725" cy="0.149296" rx="0.149725" ry="0.149296" transform="matrix(0.913272 -0.407405 0.422682 0.906303 9.52885 8.41754)" fill="#EEBE14"/>
<ellipse cx="0.149725" cy="0.149296" rx="0.149725" ry="0.149296" transform="matrix(0.913272 -0.407405 0.422682 0.906303 10.6758 6.07961)" fill="#EEBE14"/>
<ellipse cx="0.149725" cy="0.149296" rx="0.149725" ry="0.149296" transform="matrix(0.913272 -0.407405 0.422682 0.906303 11.1277 6.6265)" fill="#EEBE14"/>
<ellipse cx="0.149725" cy="0.149296" rx="0.149725" ry="0.149296" transform="matrix(0.913272 -0.407405 0.422682 0.906303 9.3344 9.46536)" fill="#EEBE14"/>
<ellipse cx="0.149725" cy="0.149296" rx="0.149725" ry="0.149296" transform="matrix(0.913272 -0.407405 0.422682 0.906303 9.24933 10.3286)" fill="#EEBE14"/>
<path d="M8.94357 5.34559C8.62242 4.85467 8.25665 4.56653 7.43586 4.39581C6.61507 4.22509 5.72735 4.35853 5.52656 5.27104C5.32577 6.18354 6.07962 6.65843 6.90041 6.82915C7.7212 6.99987 8.47506 7.47476 8.27427 8.38726C8.07347 9.29976 7.18575 9.43321 6.36497 9.26248C5.54418 9.09176 5.06392 8.67378 4.85725 8.31271" stroke="#C37808" stroke-width="1.5582" stroke-linecap="round" stroke-linejoin="round"/>
<path d="M7.69394 3.18695L7.44505 4.32974" stroke="#C37808" stroke-width="1.5582" stroke-linecap="round" stroke-linejoin="round"/>
<path d="M6.37154 9.25737L6.12265 10.4002" stroke="#C37808" stroke-width="1.5582" stroke-linecap="round" stroke-linejoin="round"/>
<path d="M8.94357 5.34559C8.62242 4.85467 8.25665 4.56653 7.43586 4.39581C6.61507 4.22509 5.72735 4.35853 5.52656 5.27104C5.32577 6.18354 6.07962 6.65843 6.90041 6.82915C7.7212 6.99987 8.47506 7.47476 8.27427 8.38726C8.07347 9.29976 7.18575 9.43321 6.36497 9.26248C5.54418 9.09176 5.06392 8.67378 4.85725 8.31271" stroke="#FFB423" stroke-width="0.584324" stroke-linecap="round" stroke-linejoin="round"/>
<path d="M7.69394 3.18695L7.44505 4.32974" stroke="#FFB423" stroke-width="0.584324" stroke-linecap="round" stroke-linejoin="round"/>
<path d="M6.37154 9.25737L6.12265 10.4002" stroke="#FFB423" stroke-width="0.584324" stroke-linecap="round" stroke-linejoin="round"/>
<path d="M5.41341 1.17175C3.57156 1.67109 2.08799 3.0187 1.42566 4.7598" stroke="#FFD179" stroke-width="0.38955" stroke-linecap="round" stroke-linejoin="round"/>
<path d="M9.89255 11.674C10.5918 11.2173 11.1871 10.6191 11.636 9.92102" stroke="#FFD179" stroke-width="0.38955" stroke-linecap="round" stroke-linejoin="round"/>
<path d="M3.43115 2.13095C3.43115 2.13095 2.8363 2.5205 2.43973 3.10482" stroke="#FFF3D2" stroke-width="0.38955" stroke-linecap="round" stroke-linejoin="round"/>
<path d="M4.22414 3.10394C4.22414 3.10394 3.62928 3.49349 3.23271 4.07782" stroke="white" stroke-width="0.38955" stroke-linecap="round" stroke-linejoin="round"/>
</svg>
