<svg width="12" height="12" viewBox="0 0 12 12" fill="none" xmlns="http://www.w3.org/2000/svg">
<g clip-path="url(#clip0_562_12061)">
<path d="M5.99987 9.00024C7.11654 9.00024 8.06237 8.61066 8.83737 7.83149C9.61237 7.05233 9.99987 6.10858 9.99987 5.00024C9.99987 4.74191 9.97904 4.49399 9.93737 4.25649C9.8957 4.01899 9.82904 3.78774 9.73737 3.56274C9.51237 3.70441 9.27487 3.81274 9.02487 3.88774C8.77487 3.96274 8.51654 4.00024 8.24987 4.00024C7.79987 4.00024 7.37695 3.89816 6.98112 3.69399C6.58529 3.48983 6.2582 3.20024 5.99987 2.82524C5.74154 3.20024 5.41445 3.48983 5.01862 3.69399C4.62279 3.89816 4.19987 4.00024 3.74987 4.00024C3.4832 4.00024 3.22487 3.96274 2.97487 3.88774C2.72487 3.81274 2.48737 3.70441 2.26237 3.56274C2.1707 3.78774 2.10404 4.01899 2.06237 4.25649C2.0207 4.49399 1.99987 4.74191 1.99987 5.00024C1.99987 6.10858 2.38945 7.05233 3.16862 7.83149C3.94779 8.61066 4.89154 9.00024 5.99987 9.00024ZM4.49987 6.12524C4.67487 6.12524 4.82279 6.06483 4.94362 5.94399C5.06445 5.82316 5.12487 5.67524 5.12487 5.50024C5.12487 5.32524 5.06445 5.17733 4.94362 5.05649C4.82279 4.93566 4.67487 4.87524 4.49987 4.87524C4.32487 4.87524 4.17695 4.93566 4.05612 5.05649C3.93529 5.17733 3.87487 5.32524 3.87487 5.50024C3.87487 5.67524 3.93529 5.82316 4.05612 5.94399C4.17695 6.06483 4.32487 6.12524 4.49987 6.12524ZM7.49987 6.12524C7.67487 6.12524 7.82279 6.06483 7.94362 5.94399C8.06445 5.82316 8.12487 5.67524 8.12487 5.50024C8.12487 5.32524 8.06445 5.17733 7.94362 5.05649C7.82279 4.93566 7.67487 4.87524 7.49987 4.87524C7.32487 4.87524 7.17695 4.93566 7.05612 5.05649C6.93529 5.17733 6.87487 5.32524 6.87487 5.50024C6.87487 5.67524 6.93529 5.82316 7.05612 5.94399C7.17695 6.06483 7.32487 6.12524 7.49987 6.12524ZM3.74987 3.00024C4.2332 3.00024 4.6457 2.82941 4.98737 2.48774C5.32904 2.14608 5.49987 1.73358 5.49987 1.25024V1.02524C4.9332 1.09191 4.41237 1.27108 3.93737 1.56274C3.46237 1.85441 3.06654 2.22524 2.74987 2.67524C2.89987 2.77524 3.0582 2.85441 3.22487 2.91274C3.39154 2.97108 3.56654 3.00024 3.74987 3.00024ZM8.24987 3.00024C8.4332 3.00024 8.6082 2.97316 8.77487 2.91899C8.94154 2.86483 9.09987 2.78358 9.24987 2.67524C8.9332 2.22524 8.53945 1.85441 8.06862 1.56274C7.59779 1.27108 7.07487 1.09191 6.49987 1.02524V1.25024C6.49987 1.73358 6.6707 2.14608 7.01237 2.48774C7.35404 2.82941 7.76654 3.00024 8.24987 3.00024ZM1.09987 11.0002C0.808203 11.0002 0.56237 10.8919 0.36237 10.6752C0.16237 10.4586 0.0748698 10.2044 0.0998698 9.91274L0.54987 4.97524C0.616536 4.27524 0.80612 3.62108 1.11862 3.01274C1.43112 2.40441 1.83112 1.87733 2.31862 1.43149C2.80612 0.985661 3.36445 0.635661 3.99362 0.381494C4.62279 0.127327 5.29154 0.000244141 5.99987 0.000244141C6.7082 0.000244141 7.37695 0.127327 8.00612 0.381494C8.63529 0.635661 9.19362 0.985661 9.68112 1.43149C10.1686 1.87733 10.5686 2.40441 10.8811 3.01274C11.1936 3.62108 11.3832 4.27524 11.4499 4.97524L11.8999 9.91274C11.9249 10.2044 11.8374 10.4586 11.6374 10.6752C11.4374 10.8919 11.1915 11.0002 10.8999 11.0002H1.09987ZM5.99987 10.0002C4.9582 10.0002 4.0207 9.71066 3.18737 9.13149C2.35404 8.55233 1.74987 7.80858 1.37487 6.90024L1.09987 10.0002H10.8999L10.6249 6.90024C10.2499 7.80858 9.64779 8.55233 8.81862 9.13149C7.98945 9.71066 7.04987 10.0002 5.99987 10.0002ZM5.99987 10.0002H10.8999H1.09987H5.99987Z" fill="#D9DCE1"/>
</g>
<defs>
<clipPath id="clip0_562_12061">
<rect width="12" height="12" fill="white" transform="translate(0 0.000244141)"/>
</clipPath>
</defs>
</svg>
