<svg width="41" height="40" viewBox="0 0 41 40" fill="none" xmlns="http://www.w3.org/2000/svg">
    <path
        d="M10.5006 35.8336C8.88948 35.8336 7.51448 35.2641 6.37559 34.1252C5.2367 32.9864 4.66725 31.6114 4.66725 30.0002C4.66725 28.3891 5.2367 27.0141 6.37559 25.8753C7.51448 24.7364 8.88948 24.1669 10.5006 24.1669C12.1117 24.1669 13.4867 24.7364 14.6256 25.8753C15.7645 27.0141 16.3339 28.3891 16.3339 30.0002C16.3339 30.6114 16.2436 31.2016 16.0631 31.7711C15.8825 32.3405 15.6117 32.8752 15.2506 33.3752V32.2502C16.0839 32.6114 16.945 32.8822 17.8339 33.0627C18.7228 33.2433 19.6117 33.3336 20.5006 33.3336C23.9173 33.3336 26.8686 32.2225 29.3548 30.0002C31.8409 27.778 33.2923 25.0141 33.7089 21.7086C33.7645 21.2364 33.9589 20.8336 34.2923 20.5003C34.6256 20.1669 35.0284 20.0003 35.5006 20.0003C35.9728 20.0003 36.3686 20.1669 36.6881 20.5003C37.0075 20.8336 37.1395 21.2364 37.0839 21.7086C36.6395 25.9308 34.8478 29.4794 31.7089 32.3544C28.57 35.2294 24.8339 36.6669 20.5006 36.6669C19.2506 36.6669 18.0284 36.535 16.8339 36.2711C15.6395 36.0072 14.4867 35.6114 13.3756 35.0836C12.9311 35.3336 12.4659 35.5211 11.9798 35.6461C11.4936 35.7711 11.0006 35.8336 10.5006 35.8336ZM10.5006 32.5002C11.195 32.5002 11.7853 32.2572 12.2714 31.7711C12.7575 31.285 13.0006 30.6947 13.0006 30.0002C13.0006 29.3058 12.7575 28.7155 12.2714 28.2294C11.7853 27.7433 11.195 27.5002 10.5006 27.5002C9.80614 27.5002 9.21586 27.7433 8.72975 28.2294C8.24364 28.7155 8.00059 29.3058 8.00059 30.0002C8.00059 30.6947 8.24364 31.285 8.72975 31.7711C9.21586 32.2572 9.80614 32.5002 10.5006 32.5002ZM20.5006 25.8336C18.8895 25.8336 17.5145 25.2641 16.3756 24.1253C15.2367 22.9864 14.6673 21.6114 14.6673 20.0003C14.6673 18.3891 15.2367 17.0141 16.3756 15.8753C17.5145 14.7364 18.8895 14.1669 20.5006 14.1669C22.1117 14.1669 23.4867 14.7364 24.6256 15.8753C25.7645 17.0141 26.3339 18.3891 26.3339 20.0003C26.3339 21.6114 25.7645 22.9864 24.6256 24.1253C23.4867 25.2641 22.1117 25.8336 20.5006 25.8336ZM20.5006 6.66692C17.0839 6.66692 14.1325 7.77803 11.6464 10.0003C9.16031 12.2225 7.70892 14.9864 7.29225 18.2919C7.2367 18.7641 7.04225 19.1669 6.70892 19.5003C6.37559 19.8336 5.97281 20.0003 5.50059 20.0003C5.02836 20.0003 4.63253 19.8336 4.31309 19.5003C3.99364 19.1669 3.8617 18.7641 3.91725 18.2919C4.3617 14.0697 6.15336 10.5211 9.29225 7.64609C12.4311 4.77109 16.1673 3.33359 20.5006 3.33359C21.7506 3.33359 22.9728 3.46553 24.1673 3.72942C25.3617 3.99331 26.5145 4.38914 27.6256 4.91692C28.07 4.66692 28.5353 4.47942 29.0214 4.35442C29.5075 4.22942 30.0006 4.16692 30.5006 4.16692C32.1117 4.16692 33.4867 4.73637 34.6256 5.87525C35.7645 7.01414 36.3339 8.38914 36.3339 10.0003C36.3339 11.6114 35.7645 12.9864 34.6256 14.1253C33.4867 15.2641 32.1117 15.8336 30.5006 15.8336C28.8895 15.8336 27.5145 15.2641 26.3756 14.1253C25.2367 12.9864 24.6673 11.6114 24.6673 10.0003C24.6673 9.38914 24.7575 8.79886 24.9381 8.22942C25.1186 7.65998 25.3895 7.12525 25.7506 6.62525V7.75025C24.9173 7.38914 24.0561 7.11831 23.1673 6.93775C22.2784 6.7572 21.3895 6.66692 20.5006 6.66692ZM30.5006 12.5003C31.195 12.5003 31.7853 12.2572 32.2714 11.7711C32.7575 11.285 33.0006 10.6947 33.0006 10.0003C33.0006 9.30581 32.7575 8.71553 32.2714 8.22942C31.7853 7.74331 31.195 7.50025 30.5006 7.50025C29.8061 7.50025 29.2159 7.74331 28.7298 8.22942C28.2436 8.71553 28.0006 9.30581 28.0006 10.0003C28.0006 10.6947 28.2436 11.285 28.7298 11.7711C29.2159 12.2572 29.8061 12.5003 30.5006 12.5003Z"
        fill="#D9DCE1" />
</svg>