<svg width="14" height="14" viewBox="0 0 14 14" fill="none" xmlns="http://www.w3.org/2000/svg">
    <path
        d="M6.99997 9.91691C7.80692 9.91691 8.49477 9.63254 9.06352 9.06379C9.63227 8.49504 9.91665 7.80719 9.91665 7.00025C9.91665 6.1933 9.63227 5.50546 9.06352 4.93671C8.49477 4.36796 7.80692 4.08358 6.99997 4.08358C6.19303 4.08358 5.50518 4.36796 4.93643 4.93671C4.36767 5.50546 4.0833 6.1933 4.0833 7.00025C4.0833 7.80719 4.36767 8.49504 4.93643 9.06379C5.50518 9.63254 6.19303 9.91691 6.99997 9.91691ZM6.99997 12.8336C6.19303 12.8336 5.43469 12.6805 4.72497 12.3742C4.01524 12.068 3.39788 11.6523 2.87288 11.1273C2.34788 10.6023 1.93225 9.98497 1.626 9.27525C1.31975 8.56553 1.16663 7.80719 1.16663 7.00025C1.16663 6.1933 1.31975 5.43497 1.626 4.72525C1.93225 4.01553 2.34788 3.39817 2.87288 2.87317C3.39788 2.34817 4.01524 1.93254 4.72497 1.62629C5.43469 1.32004 6.19303 1.16692 6.99997 1.16692C7.80692 1.16692 8.56525 1.32004 9.27498 1.62629C9.9847 1.93254 10.6021 2.34817 11.1271 2.87317C11.6521 3.39817 12.0677 4.01553 12.3739 4.72525C12.6802 5.43497 12.8333 6.1933 12.8333 7.00025C12.8333 7.80719 12.6802 8.56553 12.3739 9.27525C12.0677 9.98497 11.6521 10.6023 11.1271 11.1273C10.6021 11.6523 9.9847 12.068 9.27498 12.3742C8.56525 12.6805 7.80692 12.8336 6.99997 12.8336ZM6.99997 11.6669C8.30275 11.6669 9.40623 11.2148 10.3104 10.3107C11.2146 9.4065 11.6666 8.30303 11.6666 7.00025C11.6666 5.69747 11.2146 4.594 10.3104 3.68983C9.40623 2.78567 8.30275 2.33358 6.99997 2.33358C5.69719 2.33358 4.59372 2.78567 3.68955 3.68983C2.78538 4.594 2.3333 5.69747 2.3333 7.00025C2.3333 8.30303 2.78538 9.4065 3.68955 10.3107C4.59372 11.2148 5.69719 11.6669 6.99997 11.6669Z"
        fill="white" />
</svg>