<svg width="12" height="12" viewBox="0 0 12 12" fill="none" xmlns="http://www.w3.org/2000/svg">
<path d="M6.00014 3.00024C5.72514 3.00024 5.48973 2.90233 5.29389 2.70649C5.09806 2.51066 5.00014 2.27524 5.00014 2.00024C5.00014 1.72524 5.09806 1.48983 5.29389 1.29399C5.48973 1.09816 5.72514 1.00024 6.00014 1.00024C6.27514 1.00024 6.51056 1.09816 6.70639 1.29399C6.90223 1.48983 7.00014 1.72524 7.00014 2.00024C7.00014 2.27524 6.90223 2.51066 6.70639 2.70649C6.51056 2.90233 6.27514 3.00024 6.00014 3.00024ZM4.50014 10.5002V4.50024C4.09181 4.46691 3.67931 4.42108 3.26264 4.36274C2.84598 4.30441 2.43764 4.22941 2.03764 4.13774C1.89598 4.10441 1.78139 4.02524 1.69389 3.90024C1.60639 3.77524 1.58348 3.64191 1.62514 3.50024C1.66681 3.35858 1.75431 3.25441 1.88764 3.18774C2.02098 3.12108 2.16264 3.10441 2.31264 3.13774C2.89598 3.26274 3.50223 3.35441 4.13139 3.41274C4.76056 3.47108 5.38348 3.50024 6.00014 3.50024C6.61681 3.50024 7.23973 3.47108 7.86889 3.41274C8.49806 3.35441 9.10431 3.26274 9.68764 3.13774C9.83764 3.10441 9.97931 3.12108 10.1126 3.18774C10.246 3.25441 10.3335 3.35858 10.3751 3.50024C10.4168 3.64191 10.3939 3.77524 10.3064 3.90024C10.2189 4.02524 10.1043 4.10441 9.96264 4.13774C9.56264 4.22941 9.15431 4.30441 8.73764 4.36274C8.32098 4.42108 7.90848 4.46691 7.50014 4.50024V10.5002C7.50014 10.6419 7.45223 10.7607 7.35639 10.8565C7.26056 10.9523 7.14181 11.0002 7.00014 11.0002C6.85848 11.0002 6.73973 10.9523 6.64389 10.8565C6.54806 10.7607 6.50014 10.6419 6.50014 10.5002V8.00024H5.50014V10.5002C5.50014 10.6419 5.45223 10.7607 5.35639 10.8565C5.26056 10.9523 5.14181 11.0002 5.00014 11.0002C4.85848 11.0002 4.73973 10.9523 4.64389 10.8565C4.54806 10.7607 4.50014 10.6419 4.50014 10.5002Z" fill="#D9DCE1"/>
</svg>
