<svg width="333" height="312" viewBox="0 0 333 312" fill="none" xmlns="http://www.w3.org/2000/svg">
<path d="M324.45 -1.54376e-05H8.55489L0.0031759 -1.37389e-05V46.7702L0.00317383 48L324.45 48H333.002V-3.05176e-05L324.45 -1.54376e-05Z" fill="#72D0F6"/>
<path d="M332.218 0.000488281H0.385559V2.87005H332.218V0.000488281Z" fill="#6B85C2"/>
<path d="M332.218 2.87012H0.385559V3.51297H332.218V2.87012Z" fill="#C1D2EC"/>
<path d="M332.218 6.85794H0.385559V7.5008H332.218V6.85794Z" fill="#C1D2EC"/>
<path d="M332.218 10.8549H0.385559V11.4977H332.218V10.8549Z" fill="#C1D2EC"/>
<path d="M332.218 14.8518H0.385559V15.4947H332.218V14.8518Z" fill="#C1D2EC"/>
<path d="M332.218 18.8488H0.385559V19.4916H332.218V18.8488Z" fill="#C1D2EC"/>
<path d="M332.218 22.8448H0.385559V23.4876H332.218V22.8448Z" fill="#C1D2EC"/>
<path d="M332.218 26.7398H0.385559V27.3826H332.218V26.7398Z" fill="#C1D2EC"/>
<path d="M332.414 30.6994H0.582031V31.3423H332.414V30.6994Z" fill="#C1D2EC"/>
<path d="M332.091 34.6964H0.259094V35.3392H332.091V34.6964Z" fill="#C1D2EC"/>
<path d="M332.028 38.6278H0.195862V39.2706H332.028V38.6278Z" fill="#C1D2EC"/>
<path d="M332.155 42.6065H0.322327V43.2494H332.155V42.6065Z" fill="#C1D2EC"/>
<path d="M332.155 46.6871H0.322327V47.33H332.155V46.6871Z" fill="#C1D2EC"/>
<path d="M332.218 3.98831H0.385559V6.85788H332.218V3.98831Z" fill="#6B85C2"/>
<path d="M332.218 7.96613H0.385559V10.8357H332.218V7.96613Z" fill="#6B85C2"/>
<path d="M332.218 11.9449H0.385559V14.8144H332.218V11.9449Z" fill="#6B85C2"/>
<path d="M332.218 15.9227H0.385559V18.7923H332.218V15.9227Z" fill="#6B85C2"/>
<path d="M332.218 19.9105H0.385559V22.7801H332.218V19.9105Z" fill="#6B85C2"/>
<path d="M332.218 23.8883H0.385559V26.7579H332.218V23.8883Z" fill="#6B85C2"/>
<path d="M332.218 27.8671H0.385559V30.7367H332.218V27.8671Z" fill="#6B85C2"/>
<path d="M332.218 31.8549H0.385559V34.7245H332.218V31.8549Z" fill="#6B85C2"/>
<path d="M332.218 35.8327H0.385559V38.7023H332.218V35.8327Z" fill="#6B85C2"/>
<path d="M331.832 39.8115H-0.000244141V42.681H331.832V39.8115Z" fill="#6B85C2"/>
<path d="M331.959 43.8075H0.126221V46.6771H331.959V43.8075Z" fill="#6B85C2"/>
<path d="M324.45 44H8.55489L0.0031759 44V90.7702L0.00317383 92L324.45 92H333.002V44L324.45 44Z" fill="#72D0F6"/>
<path d="M332.218 44.0005H0.385559V46.8701H332.218V44.0005Z" fill="#6B85C2"/>
<path d="M332.218 46.8701H0.385559V47.513H332.218V46.8701Z" fill="#C1D2EC"/>
<path d="M332.218 50.858H0.385559V51.5008H332.218V50.858Z" fill="#C1D2EC"/>
<path d="M332.218 54.8549H0.385559V55.4978H332.218V54.8549Z" fill="#C1D2EC"/>
<path d="M332.218 58.8518H0.385559V59.4947H332.218V58.8518Z" fill="#C1D2EC"/>
<path d="M332.218 62.8488H0.385559V63.4916H332.218V62.8488Z" fill="#C1D2EC"/>
<path d="M332.218 66.8448H0.385559V67.4876H332.218V66.8448Z" fill="#C1D2EC"/>
<path d="M332.218 70.7398H0.385559V71.3827H332.218V70.7398Z" fill="#C1D2EC"/>
<path d="M332.414 74.6995H0.582031V75.3423H332.414V74.6995Z" fill="#C1D2EC"/>
<path d="M332.091 78.6964H0.259094V79.3392H332.091V78.6964Z" fill="#C1D2EC"/>
<path d="M332.028 82.6278H0.195862V83.2707H332.028V82.6278Z" fill="#C1D2EC"/>
<path d="M332.155 86.6065H0.322327V87.2494H332.155V86.6065Z" fill="#C1D2EC"/>
<path d="M332.155 90.6872H0.322327V91.33H332.155V90.6872Z" fill="#C1D2EC"/>
<path d="M332.218 47.9883H0.385559V50.8579H332.218V47.9883Z" fill="#6B85C2"/>
<path d="M332.218 51.9662H0.385559V54.8357H332.218V51.9662Z" fill="#6B85C2"/>
<path d="M332.218 55.9449H0.385559V58.8145H332.218V55.9449Z" fill="#6B85C2"/>
<path d="M332.218 59.9227H0.385559V62.7923H332.218V59.9227Z" fill="#6B85C2"/>
<path d="M332.218 63.9106H0.385559V66.7801H332.218V63.9106Z" fill="#6B85C2"/>
<path d="M332.218 67.8884H0.385559V70.7579H332.218V67.8884Z" fill="#6B85C2"/>
<path d="M332.218 71.8671H0.385559V74.7367H332.218V71.8671Z" fill="#6B85C2"/>
<path d="M332.218 75.8549H0.385559V78.7245H332.218V75.8549Z" fill="#6B85C2"/>
<path d="M332.218 79.8328H0.385559V82.7023H332.218V79.8328Z" fill="#6B85C2"/>
<path d="M331.832 83.8115H-0.000244141V86.6811H331.832V83.8115Z" fill="#6B85C2"/>
<path d="M331.959 87.8075H0.126221V90.6771H331.959V87.8075Z" fill="#6B85C2"/>
<path d="M324.45 88H8.55489L0.0031759 88V134.77L0.00317383 136L324.45 136H333.002V88L324.45 88Z" fill="#72D0F6"/>
<path d="M332.218 88.0005H0.385559V90.8701H332.218V88.0005Z" fill="#6B85C2"/>
<path d="M332.218 90.8702H0.385559V91.513H332.218V90.8702Z" fill="#C1D2EC"/>
<path d="M332.218 94.858H0.385559V95.5009H332.218V94.858Z" fill="#C1D2EC"/>
<path d="M332.218 98.8549H0.385559V99.4978H332.218V98.8549Z" fill="#C1D2EC"/>
<path d="M332.218 102.852H0.385559V103.495H332.218V102.852Z" fill="#C1D2EC"/>
<path d="M332.218 106.849H0.385559V107.492H332.218V106.849Z" fill="#C1D2EC"/>
<path d="M332.218 110.845H0.385559V111.488H332.218V110.845Z" fill="#C1D2EC"/>
<path d="M332.218 114.74H0.385559V115.383H332.218V114.74Z" fill="#C1D2EC"/>
<path d="M332.414 118.699H0.582031V119.342H332.414V118.699Z" fill="#C1D2EC"/>
<path d="M332.091 122.696H0.259094V123.339H332.091V122.696Z" fill="#C1D2EC"/>
<path d="M332.028 126.628H0.195862V127.271H332.028V126.628Z" fill="#C1D2EC"/>
<path d="M332.155 130.607H0.322327V131.249H332.155V130.607Z" fill="#C1D2EC"/>
<path d="M332.155 134.687H0.322327V135.33H332.155V134.687Z" fill="#C1D2EC"/>
<path d="M332.218 91.9884H0.385559V94.8579H332.218V91.9884Z" fill="#6B85C2"/>
<path d="M332.218 95.9662H0.385559V98.8358H332.218V95.9662Z" fill="#6B85C2"/>
<path d="M332.218 99.9449H0.385559V102.814H332.218V99.9449Z" fill="#6B85C2"/>
<path d="M332.218 103.923H0.385559V106.792H332.218V103.923Z" fill="#6B85C2"/>
<path d="M332.218 107.911H0.385559V110.78H332.218V107.911Z" fill="#6B85C2"/>
<path d="M332.218 111.888H0.385559V114.758H332.218V111.888Z" fill="#6B85C2"/>
<path d="M332.218 115.867H0.385559V118.737H332.218V115.867Z" fill="#6B85C2"/>
<path d="M332.218 119.855H0.385559V122.725H332.218V119.855Z" fill="#6B85C2"/>
<path d="M332.218 123.833H0.385559V126.702H332.218V123.833Z" fill="#6B85C2"/>
<path d="M331.832 127.812H-0.000244141V130.681H331.832V127.812Z" fill="#6B85C2"/>
<path d="M331.959 131.808H0.126221V134.677H331.959V131.808Z" fill="#6B85C2"/>
<path d="M324.45 132H8.55489L0.0031759 132V178.77L0.00317383 180L324.45 180H333.002V132L324.45 132Z" fill="#72D0F6"/>
<path d="M332.218 132.001H0.385559V134.87H332.218V132.001Z" fill="#6B85C2"/>
<path d="M332.218 134.87H0.385559V135.513H332.218V134.87Z" fill="#C1D2EC"/>
<path d="M332.218 138.858H0.385559V139.501H332.218V138.858Z" fill="#C1D2EC"/>
<path d="M332.218 142.855H0.385559V143.498H332.218V142.855Z" fill="#C1D2EC"/>
<path d="M332.218 146.852H0.385559V147.495H332.218V146.852Z" fill="#C1D2EC"/>
<path d="M332.218 150.849H0.385559V151.492H332.218V150.849Z" fill="#C1D2EC"/>
<path d="M332.218 154.845H0.385559V155.488H332.218V154.845Z" fill="#C1D2EC"/>
<path d="M332.218 158.74H0.385559V159.383H332.218V158.74Z" fill="#C1D2EC"/>
<path d="M332.414 162.7H0.582031V163.342H332.414V162.7Z" fill="#C1D2EC"/>
<path d="M332.091 166.696H0.259094V167.339H332.091V166.696Z" fill="#C1D2EC"/>
<path d="M332.028 170.628H0.195862V171.271H332.028V170.628Z" fill="#C1D2EC"/>
<path d="M332.155 174.607H0.322327V175.249H332.155V174.607Z" fill="#C1D2EC"/>
<path d="M332.155 178.687H0.322327V179.33H332.155V178.687Z" fill="#C1D2EC"/>
<path d="M332.218 135.988H0.385559V138.858H332.218V135.988Z" fill="#6B85C2"/>
<path d="M332.218 139.966H0.385559V142.836H332.218V139.966Z" fill="#6B85C2"/>
<path d="M332.218 143.945H0.385559V146.815H332.218V143.945Z" fill="#6B85C2"/>
<path d="M332.218 147.923H0.385559V150.792H332.218V147.923Z" fill="#6B85C2"/>
<path d="M332.218 151.911H0.385559V154.78H332.218V151.911Z" fill="#6B85C2"/>
<path d="M332.218 155.888H0.385559V158.758H332.218V155.888Z" fill="#6B85C2"/>
<path d="M332.218 159.867H0.385559V162.737H332.218V159.867Z" fill="#6B85C2"/>
<path d="M332.218 163.855H0.385559V166.725H332.218V163.855Z" fill="#6B85C2"/>
<path d="M332.218 167.833H0.385559V170.702H332.218V167.833Z" fill="#6B85C2"/>
<path d="M331.832 171.812H-0.000244141V174.681H331.832V171.812Z" fill="#6B85C2"/>
<path d="M331.959 175.808H0.126221V178.677H331.959V175.808Z" fill="#6B85C2"/>
<path d="M324.45 176H8.55489L0.0031759 176V222.77L0.00317383 224L324.45 224H333.002V176L324.45 176Z" fill="#72D0F6"/>
<path d="M332.218 176.001H0.385559V178.87H332.218V176.001Z" fill="#6B85C2"/>
<path d="M332.218 178.87H0.385559V179.513H332.218V178.87Z" fill="#C1D2EC"/>
<path d="M332.218 182.858H0.385559V183.501H332.218V182.858Z" fill="#C1D2EC"/>
<path d="M332.218 186.855H0.385559V187.498H332.218V186.855Z" fill="#C1D2EC"/>
<path d="M332.218 190.852H0.385559V191.495H332.218V190.852Z" fill="#C1D2EC"/>
<path d="M332.218 194.849H0.385559V195.492H332.218V194.849Z" fill="#C1D2EC"/>
<path d="M332.218 198.845H0.385559V199.488H332.218V198.845Z" fill="#C1D2EC"/>
<path d="M332.218 202.74H0.385559V203.383H332.218V202.74Z" fill="#C1D2EC"/>
<path d="M332.414 206.7H0.582031V207.342H332.414V206.7Z" fill="#C1D2EC"/>
<path d="M332.091 210.696H0.259094V211.339H332.091V210.696Z" fill="#C1D2EC"/>
<path d="M332.028 214.628H0.195862V215.271H332.028V214.628Z" fill="#C1D2EC"/>
<path d="M332.155 218.607H0.322327V219.249H332.155V218.607Z" fill="#C1D2EC"/>
<path d="M332.155 222.687H0.322327V223.33H332.155V222.687Z" fill="#C1D2EC"/>
<path d="M332.218 179.988H0.385559V182.858H332.218V179.988Z" fill="#6B85C2"/>
<path d="M332.218 183.966H0.385559V186.836H332.218V183.966Z" fill="#6B85C2"/>
<path d="M332.218 187.945H0.385559V190.815H332.218V187.945Z" fill="#6B85C2"/>
<path d="M332.218 191.923H0.385559V194.792H332.218V191.923Z" fill="#6B85C2"/>
<path d="M332.218 195.911H0.385559V198.78H332.218V195.911Z" fill="#6B85C2"/>
<path d="M332.218 199.888H0.385559V202.758H332.218V199.888Z" fill="#6B85C2"/>
<path d="M332.218 203.867H0.385559V206.737H332.218V203.867Z" fill="#6B85C2"/>
<path d="M332.218 207.855H0.385559V210.725H332.218V207.855Z" fill="#6B85C2"/>
<path d="M332.218 211.833H0.385559V214.702H332.218V211.833Z" fill="#6B85C2"/>
<path d="M331.832 215.812H-0.000244141V218.681H331.832V215.812Z" fill="#6B85C2"/>
<path d="M331.959 219.808H0.126221V222.677H331.959V219.808Z" fill="#6B85C2"/>
<path d="M324.45 220H8.55489L0.0031759 220V266.77L0.00317383 268L324.45 268H333.002V220L324.45 220Z" fill="#72D0F6"/>
<path d="M332.218 220.001H0.385559V222.87H332.218V220.001Z" fill="#6B85C2"/>
<path d="M332.218 222.87H0.385559V223.513H332.218V222.87Z" fill="#C1D2EC"/>
<path d="M332.218 226.858H0.385559V227.501H332.218V226.858Z" fill="#C1D2EC"/>
<path d="M332.218 230.855H0.385559V231.498H332.218V230.855Z" fill="#C1D2EC"/>
<path d="M332.218 234.852H0.385559V235.495H332.218V234.852Z" fill="#C1D2EC"/>
<path d="M332.218 238.849H0.385559V239.492H332.218V238.849Z" fill="#C1D2EC"/>
<path d="M332.218 242.845H0.385559V243.488H332.218V242.845Z" fill="#C1D2EC"/>
<path d="M332.218 246.74H0.385559V247.383H332.218V246.74Z" fill="#C1D2EC"/>
<path d="M332.414 250.7H0.582031V251.342H332.414V250.7Z" fill="#C1D2EC"/>
<path d="M332.091 254.696H0.259094V255.339H332.091V254.696Z" fill="#C1D2EC"/>
<path d="M332.028 258.628H0.195862V259.271H332.028V258.628Z" fill="#C1D2EC"/>
<path d="M332.155 262.607H0.322327V263.249H332.155V262.607Z" fill="#C1D2EC"/>
<path d="M332.155 266.687H0.322327V267.33H332.155V266.687Z" fill="#C1D2EC"/>
<path d="M332.218 223.988H0.385559V226.858H332.218V223.988Z" fill="#6B85C2"/>
<path d="M332.218 227.966H0.385559V230.836H332.218V227.966Z" fill="#6B85C2"/>
<path d="M332.218 231.945H0.385559V234.815H332.218V231.945Z" fill="#6B85C2"/>
<path d="M332.218 235.923H0.385559V238.792H332.218V235.923Z" fill="#6B85C2"/>
<path d="M332.218 239.911H0.385559V242.78H332.218V239.911Z" fill="#6B85C2"/>
<path d="M332.218 243.888H0.385559V246.758H332.218V243.888Z" fill="#6B85C2"/>
<path d="M332.218 247.867H0.385559V250.737H332.218V247.867Z" fill="#6B85C2"/>
<path d="M332.218 251.855H0.385559V254.725H332.218V251.855Z" fill="#6B85C2"/>
<path d="M332.218 255.833H0.385559V258.702H332.218V255.833Z" fill="#6B85C2"/>
<path d="M331.832 259.812H-0.000244141V262.681H331.832V259.812Z" fill="#6B85C2"/>
<path d="M331.959 263.808H0.126221V266.677H331.959V263.808Z" fill="#6B85C2"/>
<path d="M324.45 264H8.55489L0.0031759 264V310.77L0.00317383 312L324.45 312H333.002V264L324.45 264Z" fill="#72D0F6"/>
<path d="M332.218 264.001H0.385559V266.87H332.218V264.001Z" fill="#6B85C2"/>
<path d="M332.218 266.87H0.385559V267.513H332.218V266.87Z" fill="#C1D2EC"/>
<path d="M332.218 270.858H0.385559V271.501H332.218V270.858Z" fill="#C1D2EC"/>
<path d="M332.218 274.855H0.385559V275.498H332.218V274.855Z" fill="#C1D2EC"/>
<path d="M332.218 278.852H0.385559V279.495H332.218V278.852Z" fill="#C1D2EC"/>
<path d="M332.218 282.849H0.385559V283.492H332.218V282.849Z" fill="#C1D2EC"/>
<path d="M332.218 286.845H0.385559V287.488H332.218V286.845Z" fill="#C1D2EC"/>
<path d="M332.218 290.74H0.385559V291.383H332.218V290.74Z" fill="#C1D2EC"/>
<path d="M332.414 294.7H0.582031V295.342H332.414V294.7Z" fill="#C1D2EC"/>
<path d="M332.091 298.696H0.259094V299.339H332.091V298.696Z" fill="#C1D2EC"/>
<path d="M332.028 302.628H0.195862V303.271H332.028V302.628Z" fill="#C1D2EC"/>
<path d="M332.155 306.607H0.322327V307.249H332.155V306.607Z" fill="#C1D2EC"/>
<path d="M332.155 310.687H0.322327V311.33H332.155V310.687Z" fill="#C1D2EC"/>
<path d="M332.218 267.988H0.385559V270.858H332.218V267.988Z" fill="#6B85C2"/>
<path d="M332.218 271.966H0.385559V274.836H332.218V271.966Z" fill="#6B85C2"/>
<path d="M332.218 275.945H0.385559V278.815H332.218V275.945Z" fill="#6B85C2"/>
<path d="M332.218 279.923H0.385559V282.792H332.218V279.923Z" fill="#6B85C2"/>
<path d="M332.218 283.911H0.385559V286.78H332.218V283.911Z" fill="#6B85C2"/>
<path d="M332.218 287.888H0.385559V290.758H332.218V287.888Z" fill="#6B85C2"/>
<path d="M332.218 291.867H0.385559V294.737H332.218V291.867Z" fill="#6B85C2"/>
<path d="M332.218 295.855H0.385559V298.725H332.218V295.855Z" fill="#6B85C2"/>
<path d="M332.218 299.833H0.385559V302.702H332.218V299.833Z" fill="#6B85C2"/>
<path d="M331.832 303.812H-0.000244141V306.681H331.832V303.812Z" fill="#6B85C2"/>
<path d="M331.959 307.808H0.126221V310.677H331.959V307.808Z" fill="#6B85C2"/>
</svg>
