<svg width="308" height="331" viewBox="0 0 308 331" fill="none" xmlns="http://www.w3.org/2000/svg">
<path d="M4.34378 0.0606079H3.90186V330.931H4.34378V0.0606079Z" fill="#FFE600"/>
<path d="M1.78649 0.0648168H3.92087V330.935H1.78649C0.799222 330.935 0.5 331 7.25458e-06 331L5.36228e-06 12.3193C5.36228e-06 5.51124 -1.8923e-06 3.44792 4.747e-07 0L1.78649 0.0648168Z" fill="#82CEC7"/>
<path d="M8.24618 0.0606079H4.33472V330.931H8.24618V0.0606079Z" fill="#CE529E"/>
<path d="M8.66897 0.0606079H8.22705V330.931H8.66897V0.0606079Z" fill="#FFE600"/>
<path d="M13.0694 0.0606079H12.6274V330.931H13.0694V0.0606079Z" fill="#FFE600"/>
<path d="M16.9715 0.0606079H13.0601V330.931H16.9715V0.0606079Z" fill="#CE529E"/>
<path d="M17.4043 0.0606079H16.9624V330.931H17.4043V0.0606079Z" fill="#FFE600"/>
<path d="M21.8701 0.0606079H21.4282V330.931H21.8701V0.0606079Z" fill="#FFE600"/>
<path d="M12.5804 0.0606079H8.66895V330.931H12.5804V0.0606079Z" fill="#82CEC7"/>
<path d="M21.3719 0.0606079H17.4604V330.931H21.3719V0.0606079Z" fill="#82CEC7"/>
<path d="M21.7764 0.0606079H21.3345V330.931H21.7764V0.0606079Z" fill="#FFE600"/>
<path d="M25.6781 0.0606079H21.7666V330.931H25.6781V0.0606079Z" fill="#CE529E"/>
<path d="M26.1016 0.0606079H25.6597V330.931H26.1016V0.0606079Z" fill="#FFE600"/>
<path d="M30.5679 0.0606079H30.126V330.931H30.5679V0.0606079Z" fill="#FFE600"/>
<path d="M30.0789 0.0606079H26.1675V330.931H30.0789V0.0606079Z" fill="#82CEC7"/>
<path d="M30.4737 0.0606079H30.0317V330.931H30.4737V0.0606079Z" fill="#FFE600"/>
<path d="M34.3758 0.0606079H30.4644V330.931H34.3758V0.0606079Z" fill="#CE529E"/>
<path d="M34.7989 0.0606079H34.3569V330.931H34.7989V0.0606079Z" fill="#FFE600"/>
<path d="M39.2744 0.0606079H38.8325V330.931H39.2744V0.0606079Z" fill="#FFE600"/>
<path d="M38.7762 0.0606079H34.8647V330.931H38.7762V0.0606079Z" fill="#82CEC7"/>
<path d="M39.1709 0.0606079H38.729V330.931H39.1709V0.0606079Z" fill="#FFE600"/>
<path d="M43.0731 0.0606079H39.1616V330.931H43.0731V0.0606079Z" fill="#CE529E"/>
<path d="M43.5054 0.0606079H43.0635V330.931H43.5054V0.0606079Z" fill="#FFE600"/>
<path d="M43.5055 0.0606079H47.417C47.417 3.50852 47.417 4.40478 47.417 9.72153V330.996C47 331 46.251 330.996 44.8031 330.996H43.4961V0.0606079H43.5055Z" fill="#82CEC7"/>
<path d="M47.7607 0.0606079H47.3188V330.931H47.7607V0.0606079Z" fill="#FFE600"/>
<path d="M45.2035 0.0648168H47.3378V330.935H45.2035C44.2162 330.935 43.917 331 43.417 331L43.417 12.3193C43.417 5.51124 43.417 3.44792 43.417 0L45.2035 0.0648168Z" fill="#82CEC7"/>
<path d="M51.6631 0.0606079H47.7517V330.931H51.6631V0.0606079Z" fill="#CE529E"/>
<path d="M52.0859 0.0606079H51.644V330.931H52.0859V0.0606079Z" fill="#FFE600"/>
<path d="M56.4863 0.0606079H56.0444V330.931H56.4863V0.0606079Z" fill="#FFE600"/>
<path d="M60.3885 0.0606079H56.477V330.931H60.3885V0.0606079Z" fill="#CE529E"/>
<path d="M60.8213 0.0606079H60.3794V330.931H60.8213V0.0606079Z" fill="#FFE600"/>
<path d="M65.2871 0.0606079H64.8452V330.931H65.2871V0.0606079Z" fill="#FFE600"/>
<path d="M55.9974 0.0606079H52.0859V330.931H55.9974V0.0606079Z" fill="#82CEC7"/>
<path d="M64.7889 0.0606079H60.8774V330.931H64.7889V0.0606079Z" fill="#82CEC7"/>
<path d="M65.1934 0.0606079H64.7514V330.931H65.1934V0.0606079Z" fill="#FFE600"/>
<path d="M69.095 0.0606079H65.1836V330.931H69.095V0.0606079Z" fill="#CE529E"/>
<path d="M69.5185 0.0606079H69.0766V330.931H69.5185V0.0606079Z" fill="#FFE600"/>
<path d="M73.9849 0.0606079H73.5429V330.931H73.9849V0.0606079Z" fill="#FFE600"/>
<path d="M73.4959 0.0606079H69.5844V330.931H73.4959V0.0606079Z" fill="#82CEC7"/>
<path d="M73.8906 0.0606079H73.4487V330.931H73.8906V0.0606079Z" fill="#FFE600"/>
<path d="M77.7928 0.0606079H73.8813V330.931H77.7928V0.0606079Z" fill="#CE529E"/>
<path d="M78.2158 0.0606079H77.7739V330.931H78.2158V0.0606079Z" fill="#FFE600"/>
<path d="M82.6914 0.0606079H82.2495V330.931H82.6914V0.0606079Z" fill="#FFE600"/>
<path d="M82.1932 0.0606079H78.2817V330.931H82.1932V0.0606079Z" fill="#82CEC7"/>
<path d="M82.5879 0.0606079H82.146V330.931H82.5879V0.0606079Z" fill="#FFE600"/>
<path d="M86.49 0.0606079H82.5786V330.931H86.49V0.0606079Z" fill="#CE529E"/>
<path d="M86.9224 0.0606079H86.4804V330.931H86.9224V0.0606079Z" fill="#FFE600"/>
<path d="M86.9225 0.0606079H90.8339C90.8339 3.50852 90.8339 4.40478 90.8339 9.72153V330.996C90.417 331 89.668 330.996 88.22 330.996H86.9131V0.0606079H86.9225Z" fill="#82CEC7"/>
<path d="M91.1777 0.0606079H90.7358V330.931H91.1777V0.0606079Z" fill="#FFE600"/>
<path d="M88.6204 0.0648168H90.7548V330.935H88.6204C87.6331 330.935 87.3339 331 86.8339 331L86.8339 12.3193C86.8339 5.51124 86.8339 3.44792 86.8339 0L88.6204 0.0648168Z" fill="#82CEC7"/>
<path d="M95.0801 0.0606079H91.1686V330.931H95.0801V0.0606079Z" fill="#CE529E"/>
<path d="M95.5029 0.0606079H95.061V330.931H95.5029V0.0606079Z" fill="#FFE600"/>
<path d="M99.9033 0.0606079H99.4614V330.931H99.9033V0.0606079Z" fill="#FFE600"/>
<path d="M103.805 0.0606079H99.894V330.931H103.805V0.0606079Z" fill="#CE529E"/>
<path d="M104.238 0.0606079H103.796V330.931H104.238V0.0606079Z" fill="#FFE600"/>
<path d="M108.704 0.0606079H108.262V330.931H108.704V0.0606079Z" fill="#FFE600"/>
<path d="M99.4143 0.0606079H95.5029V330.931H99.4143V0.0606079Z" fill="#82CEC7"/>
<path d="M108.206 0.0606079H104.294V330.931H108.206V0.0606079Z" fill="#82CEC7"/>
<path d="M108.61 0.0606079H108.168V330.931H108.61V0.0606079Z" fill="#FFE600"/>
<path d="M112.512 0.0606079H108.601V330.931H112.512V0.0606079Z" fill="#CE529E"/>
<path d="M112.936 0.0606079H112.494V330.931H112.936V0.0606079Z" fill="#FFE600"/>
<path d="M117.402 0.0606079H116.96V330.931H117.402V0.0606079Z" fill="#FFE600"/>
<path d="M116.913 0.0606079H113.001V330.931H116.913V0.0606079Z" fill="#82CEC7"/>
<path d="M117.308 0.0606079H116.866V330.931H117.308V0.0606079Z" fill="#FFE600"/>
<path d="M121.21 0.0606079H117.298V330.931H121.21V0.0606079Z" fill="#CE529E"/>
<path d="M121.633 0.0606079H121.191V330.931H121.633V0.0606079Z" fill="#FFE600"/>
<path d="M126.108 0.0606079H125.666V330.931H126.108V0.0606079Z" fill="#FFE600"/>
<path d="M125.61 0.0606079H121.699V330.931H125.61V0.0606079Z" fill="#82CEC7"/>
<path d="M126.005 0.0606079H125.563V330.931H126.005V0.0606079Z" fill="#FFE600"/>
<path d="M129.907 0.0606079H125.996V330.931H129.907V0.0606079Z" fill="#CE529E"/>
<path d="M130.339 0.0606079H129.897V330.931H130.339V0.0606079Z" fill="#FFE600"/>
<path d="M130.339 0.0606079H134.251C134.251 3.50852 134.251 4.40478 134.251 9.72153V330.996C133.834 331 133.085 330.996 131.637 330.996H130.33V0.0606079H130.339Z" fill="#82CEC7"/>
<path d="M134.595 0.0606079H134.153V330.931H134.595V0.0606079Z" fill="#FFE600"/>
<path d="M132.037 0.0648168H134.172V330.935H132.037C131.05 330.935 130.751 331 130.251 331L130.251 12.3193C130.251 5.51124 130.251 3.44792 130.251 0L132.037 0.0648168Z" fill="#82CEC7"/>
<path d="M138.497 0.0606079H134.586V330.931H138.497V0.0606079Z" fill="#CE529E"/>
<path d="M138.92 0.0606079H138.478V330.931H138.92V0.0606079Z" fill="#FFE600"/>
<path d="M143.32 0.0606079H142.878V330.931H143.32V0.0606079Z" fill="#FFE600"/>
<path d="M147.222 0.0606079H143.311V330.931H147.222V0.0606079Z" fill="#CE529E"/>
<path d="M147.655 0.0606079H147.213V330.931H147.655V0.0606079Z" fill="#FFE600"/>
<path d="M152.121 0.0606079H151.679V330.931H152.121V0.0606079Z" fill="#FFE600"/>
<path d="M142.831 0.0606079H138.92V330.931H142.831V0.0606079Z" fill="#82CEC7"/>
<path d="M151.623 0.0606079H147.711V330.931H151.623V0.0606079Z" fill="#82CEC7"/>
<path d="M152.027 0.0606079H151.585V330.931H152.027V0.0606079Z" fill="#FFE600"/>
<path d="M155.929 0.0606079H152.017V330.931H155.929V0.0606079Z" fill="#CE529E"/>
<path d="M156.352 0.0606079H155.911V330.931H156.352V0.0606079Z" fill="#FFE600"/>
<path d="M160.819 0.0606079H160.377V330.931H160.819V0.0606079Z" fill="#FFE600"/>
<path d="M160.33 0.0606079H156.418V330.931H160.33V0.0606079Z" fill="#82CEC7"/>
<path d="M160.725 0.0606079H160.283V330.931H160.725V0.0606079Z" fill="#FFE600"/>
<path d="M164.627 0.0606079H160.715V330.931H164.627V0.0606079Z" fill="#CE529E"/>
<path d="M165.05 0.0606079H164.608V330.931H165.05V0.0606079Z" fill="#FFE600"/>
<path d="M169.525 0.0606079H169.083V330.931H169.525V0.0606079Z" fill="#FFE600"/>
<path d="M169.027 0.0606079H165.116V330.931H169.027V0.0606079Z" fill="#82CEC7"/>
<path d="M169.422 0.0606079H168.98V330.931H169.422V0.0606079Z" fill="#FFE600"/>
<path d="M173.324 0.0606079H169.413V330.931H173.324V0.0606079Z" fill="#CE529E"/>
<path d="M173.756 0.0606079H173.314V330.931H173.756V0.0606079Z" fill="#FFE600"/>
<path d="M173.756 0.0606079H177.668C177.668 3.50852 177.668 4.40478 177.668 9.72153V330.996C177.251 331 176.502 330.996 175.054 330.996H173.747V0.0606079H173.756Z" fill="#82CEC7"/>
<path d="M178.012 0.0606079H177.57V330.931H178.012V0.0606079Z" fill="#FFE600"/>
<path d="M175.454 0.0648168H177.589V330.935H175.454C174.467 330.935 174.168 331 173.668 331L173.668 12.3193C173.668 5.51124 173.668 3.44792 173.668 0L175.454 0.0648168Z" fill="#82CEC7"/>
<path d="M181.914 0.0606079H178.003V330.931H181.914V0.0606079Z" fill="#CE529E"/>
<path d="M182.337 0.0606079H181.895V330.931H182.337V0.0606079Z" fill="#FFE600"/>
<path d="M186.737 0.0606079H186.295V330.931H186.737V0.0606079Z" fill="#FFE600"/>
<path d="M190.639 0.0606079H186.728V330.931H190.639V0.0606079Z" fill="#CE529E"/>
<path d="M191.072 0.0606079H190.63V330.931H191.072V0.0606079Z" fill="#FFE600"/>
<path d="M195.538 0.0606079H195.096V330.931H195.538V0.0606079Z" fill="#FFE600"/>
<path d="M186.248 0.0606079H182.337V330.931H186.248V0.0606079Z" fill="#82CEC7"/>
<path d="M195.04 0.0606079H191.128V330.931H195.04V0.0606079Z" fill="#82CEC7"/>
<path d="M195.444 0.0606079H195.002V330.931H195.444V0.0606079Z" fill="#FFE600"/>
<path d="M199.346 0.0606079H195.434V330.931H199.346V0.0606079Z" fill="#CE529E"/>
<path d="M199.769 0.0606079H199.328V330.931H199.769V0.0606079Z" fill="#FFE600"/>
<path d="M204.236 0.0606079H203.794V330.931H204.236V0.0606079Z" fill="#FFE600"/>
<path d="M203.747 0.0606079H199.835V330.931H203.747V0.0606079Z" fill="#82CEC7"/>
<path d="M204.142 0.0606079H203.7V330.931H204.142V0.0606079Z" fill="#FFE600"/>
<path d="M208.044 0.0606079H204.132V330.931H208.044V0.0606079Z" fill="#CE529E"/>
<path d="M208.467 0.0606079H208.025V330.931H208.467V0.0606079Z" fill="#FFE600"/>
<path d="M212.942 0.0606079H212.5V330.931H212.942V0.0606079Z" fill="#FFE600"/>
<path d="M212.444 0.0606079H208.533V330.931H212.444V0.0606079Z" fill="#82CEC7"/>
<path d="M212.839 0.0606079H212.397V330.931H212.839V0.0606079Z" fill="#FFE600"/>
<path d="M216.741 0.0606079H212.829V330.931H216.741V0.0606079Z" fill="#CE529E"/>
<path d="M217.173 0.0606079H216.731V330.931H217.173V0.0606079Z" fill="#FFE600"/>
<path d="M217.173 0.0606079H221.085C221.085 3.50852 221.085 4.40478 221.085 9.72153V330.996C220.668 331 219.919 330.996 218.471 330.996H217.164V0.0606079H217.173Z" fill="#82CEC7"/>
<path d="M221.429 0.0606079H220.987V330.931H221.429V0.0606079Z" fill="#FFE600"/>
<path d="M218.871 0.0648168H221.006V330.935H218.871C217.884 330.935 217.585 331 217.085 331L217.085 12.3193C217.085 5.51124 217.085 3.44792 217.085 0L218.871 0.0648168Z" fill="#82CEC7"/>
<path d="M225.331 0.0606079H221.42V330.931H225.331V0.0606079Z" fill="#CE529E"/>
<path d="M225.754 0.0606079H225.312V330.931H225.754V0.0606079Z" fill="#FFE600"/>
<path d="M230.154 0.0606079H229.712V330.931H230.154V0.0606079Z" fill="#FFE600"/>
<path d="M234.056 0.0606079H230.145V330.931H234.056V0.0606079Z" fill="#CE529E"/>
<path d="M234.489 0.0606079H234.047V330.931H234.489V0.0606079Z" fill="#FFE600"/>
<path d="M238.955 0.0606079H238.513V330.931H238.955V0.0606079Z" fill="#FFE600"/>
<path d="M229.665 0.0606079H225.754V330.931H229.665V0.0606079Z" fill="#82CEC7"/>
<path d="M238.457 0.0606079H234.545V330.931H238.457V0.0606079Z" fill="#82CEC7"/>
<path d="M238.861 0.0606079H238.419V330.931H238.861V0.0606079Z" fill="#FFE600"/>
<path d="M242.763 0.0606079H238.851V330.931H242.763V0.0606079Z" fill="#CE529E"/>
<path d="M243.186 0.0606079H242.744V330.931H243.186V0.0606079Z" fill="#FFE600"/>
<path d="M247.653 0.0606079H247.211V330.931H247.653V0.0606079Z" fill="#FFE600"/>
<path d="M247.164 0.0606079H243.252V330.931H247.164V0.0606079Z" fill="#82CEC7"/>
<path d="M247.558 0.0606079H247.117V330.931H247.558V0.0606079Z" fill="#FFE600"/>
<path d="M251.461 0.0606079H247.549V330.931H251.461V0.0606079Z" fill="#CE529E"/>
<path d="M251.884 0.0606079H251.442V330.931H251.884V0.0606079Z" fill="#FFE600"/>
<path d="M256.359 0.0606079H255.917V330.931H256.359V0.0606079Z" fill="#FFE600"/>
<path d="M255.861 0.0606079H251.95V330.931H255.861V0.0606079Z" fill="#82CEC7"/>
<path d="M256.256 0.0606079H255.814V330.931H256.256V0.0606079Z" fill="#FFE600"/>
<path d="M260.158 0.0606079H256.246V330.931H260.158V0.0606079Z" fill="#CE529E"/>
<path d="M260.59 0.0606079H260.148V330.931H260.59V0.0606079Z" fill="#FFE600"/>
<path d="M260.59 0.0606079H264.502C264.502 3.50852 264.502 4.40478 264.502 9.72153V330.996C264.085 331 263.336 330.996 261.888 330.996H260.581V0.0606079H260.59Z" fill="#82CEC7"/>
<path d="M264.846 0.0606079H264.404V330.931H264.846V0.0606079Z" fill="#FFE600"/>
<path d="M262.288 0.0648168H264.423V330.935H262.288C261.301 330.935 261.002 331 260.502 331L260.502 12.3193C260.502 5.51124 260.502 3.44792 260.502 0L262.288 0.0648168Z" fill="#82CEC7"/>
<path d="M268.748 0.0606079H264.836V330.931H268.748V0.0606079Z" fill="#CE529E"/>
<path d="M269.171 0.0606079H268.729V330.931H269.171V0.0606079Z" fill="#FFE600"/>
<path d="M273.571 0.0606079H273.129V330.931H273.571V0.0606079Z" fill="#FFE600"/>
<path d="M277.473 0.0606079H273.562V330.931H277.473V0.0606079Z" fill="#CE529E"/>
<path d="M277.906 0.0606079H277.464V330.931H277.906V0.0606079Z" fill="#FFE600"/>
<path d="M282.372 0.0606079H281.93V330.931H282.372V0.0606079Z" fill="#FFE600"/>
<path d="M273.082 0.0606079H269.171V330.931H273.082V0.0606079Z" fill="#82CEC7"/>
<path d="M281.874 0.0606079H277.962V330.931H281.874V0.0606079Z" fill="#82CEC7"/>
<path d="M282.278 0.0606079H281.836V330.931H282.278V0.0606079Z" fill="#FFE600"/>
<path d="M286.18 0.0606079H282.268V330.931H286.18V0.0606079Z" fill="#CE529E"/>
<path d="M286.603 0.0606079H286.161V330.931H286.603V0.0606079Z" fill="#FFE600"/>
<path d="M291.07 0.0606079H290.628V330.931H291.07V0.0606079Z" fill="#FFE600"/>
<path d="M290.581 0.0606079H286.669V330.931H290.581V0.0606079Z" fill="#82CEC7"/>
<path d="M290.975 0.0606079H290.534V330.931H290.975V0.0606079Z" fill="#FFE600"/>
<path d="M294.878 0.0606079H290.966V330.931H294.878V0.0606079Z" fill="#CE529E"/>
<path d="M295.301 0.0606079H294.859V330.931H295.301V0.0606079Z" fill="#FFE600"/>
<path d="M299.776 0.0606079H299.334V330.931H299.776V0.0606079Z" fill="#FFE600"/>
<path d="M299.278 0.0606079H295.367V330.931H299.278V0.0606079Z" fill="#82CEC7"/>
<path d="M299.673 0.0606079H299.231V330.931H299.673V0.0606079Z" fill="#FFE600"/>
<path d="M303.575 0.0606079H299.663V330.931H303.575V0.0606079Z" fill="#CE529E"/>
<path d="M304.007 0.0606079H303.565V330.931H304.007V0.0606079Z" fill="#FFE600"/>
<path d="M304.007 0.0606079H307.919C307.919 3.50852 307.919 4.40478 307.919 9.72153V330.996C307.502 331 306.753 330.996 305.305 330.996H303.998V0.0606079H304.007Z" fill="#82CEC7"/>
</svg>
