<svg width="377" height="15" viewBox="0 0 377 15" fill="none" xmlns="http://www.w3.org/2000/svg">
<path d="M45.4541 11.6464H1.79185C0.811097 11.6464 9.15527e-05 10.8448 9.15527e-05 9.85466V0L6.62959 2.93282C8.57223 3.79098 10.7695 3.923 12.797 3.31003L18.6438 1.52771C21.9349 0.528095 25.443 0.424362 28.7908 1.22594L36.8159 3.15915C38.834 3.64009 40.9558 3.36661 42.7759 2.39529L47.2364 0V9.85466C47.2364 10.8354 46.4348 11.6464 45.4447 11.6464H45.4541Z" fill="#345729"/>
<path d="M45.4446 14.6464H1.8682e-07C0 14.1464 1.28951e-06 13.8448 1.28951e-06 12.8547V3L6.6295 5.93282C8.57214 6.79098 10.7694 6.923 12.7969 6.31003L18.6437 4.52771C21.9349 3.5281 25.4429 3.42437 28.7907 4.22594L36.8159 6.15915C38.834 6.64009 40.9558 6.36661 42.7758 5.39529L47.2363 3V14.6464C46.9527 14.6464 46.4348 14.6464 45.4446 14.6464Z" fill="#447B3A"/>
<path d="M92.4541 11.6464H48.7918C47.8111 11.6464 47.0001 10.8448 47.0001 9.85466V0L53.6296 2.93282C55.5722 3.79098 57.7695 3.923 59.797 3.31003L65.6438 1.52771C68.9349 0.528095 72.443 0.424362 75.7908 1.22594L83.8159 3.15915C85.834 3.64009 87.9558 3.36661 89.7759 2.39529L94.2364 0V9.85466C94.2364 10.8354 93.4348 11.6464 92.4447 11.6464H92.4541Z" fill="#345729"/>
<path d="M92.4446 14.6464H47C47 14.1464 47 13.8448 47 12.8547V3L53.6295 5.93282C55.5721 6.79098 57.7694 6.923 59.7969 6.31003L65.6437 4.52771C68.9349 3.5281 72.4429 3.42437 75.7907 4.22594L83.8159 6.15915C85.834 6.64009 87.9558 6.36661 89.7758 5.39529L94.2363 3V14.6464C93.9527 14.6464 93.4348 14.6464 92.4446 14.6464Z" fill="#447B3A"/>
<path d="M139.454 11.6464H95.7918C94.8111 11.6464 94.0001 10.8448 94.0001 9.85466V0L100.63 2.93282C102.572 3.79098 104.769 3.923 106.797 3.31003L112.644 1.52771C115.935 0.528095 119.443 0.424362 122.791 1.22594L130.816 3.15915C132.834 3.64009 134.956 3.36661 136.776 2.39529L141.236 0V9.85466C141.236 10.8354 140.435 11.6464 139.445 11.6464H139.454Z" fill="#345729"/>
<path d="M139.445 14.6464H94C94 14.1464 94 13.8448 94 12.8547V3L100.629 5.93282C102.572 6.79098 104.769 6.923 106.797 6.31003L112.644 4.52771C115.935 3.5281 119.443 3.42437 122.791 4.22594L130.816 6.15915C132.834 6.64009 134.956 6.36661 136.776 5.39529L141.236 3V14.6464C140.953 14.6464 140.435 14.6464 139.445 14.6464Z" fill="#447B3A"/>
<path d="M186.454 11.6464H142.792C141.811 11.6464 141 10.8448 141 9.85466V0L147.63 2.93282C149.572 3.79098 151.769 3.923 153.797 3.31003L159.644 1.52771C162.935 0.528095 166.443 0.424362 169.791 1.22594L177.816 3.15915C179.834 3.64009 181.956 3.36661 183.776 2.39529L188.236 0V9.85466C188.236 10.8354 187.435 11.6464 186.445 11.6464H186.454Z" fill="#345729"/>
<path d="M186.445 14.6464H141C141 14.1464 141 13.8448 141 12.8547V3L147.629 5.93282C149.572 6.79098 151.769 6.923 153.797 6.31003L159.644 4.52771C162.935 3.5281 166.443 3.42437 169.791 4.22594L177.816 6.15915C179.834 6.64009 181.956 6.36661 183.776 5.39529L188.236 3V14.6464C187.953 14.6464 187.435 14.6464 186.445 14.6464Z" fill="#447B3A"/>
<path d="M233.454 11.6464H189.792C188.811 11.6464 188 10.8448 188 9.85466V0L194.63 2.93282C196.572 3.79098 198.769 3.923 200.797 3.31003L206.644 1.52771C209.935 0.528095 213.443 0.424362 216.791 1.22594L224.816 3.15915C226.834 3.64009 228.956 3.36661 230.776 2.39529L235.236 0V9.85466C235.236 10.8354 234.435 11.6464 233.445 11.6464H233.454Z" fill="#345729"/>
<path d="M233.445 14.6464H188C188 14.1464 188 13.8448 188 12.8547V3L194.629 5.93282C196.572 6.79098 198.769 6.923 200.797 6.31003L206.644 4.52771C209.935 3.5281 213.443 3.42437 216.791 4.22594L224.816 6.15915C226.834 6.64009 228.956 6.36661 230.776 5.39529L235.236 3V14.6464C234.953 14.6464 234.435 14.6464 233.445 14.6464Z" fill="#447B3A"/>
<path d="M280.454 11.6464H236.792C235.811 11.6464 235 10.8448 235 9.85466V0L241.63 2.93282C243.572 3.79098 245.769 3.923 247.797 3.31003L253.644 1.52771C256.935 0.528095 260.443 0.424362 263.791 1.22594L271.816 3.15915C273.834 3.64009 275.956 3.36661 277.776 2.39529L282.236 0V9.85466C282.236 10.8354 281.435 11.6464 280.445 11.6464H280.454Z" fill="#345729"/>
<path d="M280.445 14.6464H235C235 14.1464 235 13.8448 235 12.8547V3L241.629 5.93282C243.572 6.79098 245.769 6.923 247.797 6.31003L253.644 4.52771C256.935 3.5281 260.443 3.42437 263.791 4.22594L271.816 6.15915C273.834 6.64009 275.956 6.36661 277.776 5.39529L282.236 3V14.6464C281.953 14.6464 281.435 14.6464 280.445 14.6464Z" fill="#447B3A"/>
<path d="M327.454 11.6464H283.792C282.811 11.6464 282 10.8448 282 9.85466V0L288.63 2.93282C290.572 3.79098 292.769 3.923 294.797 3.31003L300.644 1.52771C303.935 0.528095 307.443 0.424362 310.791 1.22594L318.816 3.15915C320.834 3.64009 322.956 3.36661 324.776 2.39529L329.236 0V9.85466C329.236 10.8354 328.435 11.6464 327.445 11.6464H327.454Z" fill="#345729"/>
<path d="M327.445 14.6464H282C282 14.1464 282 13.8448 282 12.8547V3L288.629 5.93282C290.572 6.79098 292.769 6.923 294.797 6.31003L300.644 4.52771C303.935 3.5281 307.443 3.42437 310.791 4.22594L318.816 6.15915C320.834 6.64009 322.956 6.36661 324.776 5.39529L329.236 3V14.6464C328.953 14.6464 328.435 14.6464 327.445 14.6464Z" fill="#447B3A"/>
<path d="M374.454 11.6464H330.792C329.811 11.6464 329 10.8448 329 9.85466V0L335.63 2.93282C337.572 3.79098 339.769 3.923 341.797 3.31003L347.644 1.52771C350.935 0.528095 354.443 0.424362 357.791 1.22594L365.816 3.15915C367.834 3.64009 369.956 3.36661 371.776 2.39529L376.236 0V9.85466C376.236 10.8354 375.435 11.6464 374.445 11.6464H374.454Z" fill="#345729"/>
<path d="M374.445 14.6464H329C329 14.1464 329 13.8448 329 12.8547V3L335.629 5.93282C337.572 6.79098 339.769 6.923 341.797 6.31003L347.644 4.52771C350.935 3.5281 354.443 3.42437 357.791 4.22594L365.816 6.15915C367.834 6.64009 369.956 6.36661 371.776 5.39529L376.236 3V14.6464C375.953 14.6464 375.435 14.6464 374.445 14.6464Z" fill="#447B3A"/>
</svg>
