<svg width="300" height="331" viewBox="0 0 300 331" fill="none" xmlns="http://www.w3.org/2000/svg">
<g clip-path="url(#clip0_2001_12063)">
<path d="M63.1306 287.213L-8.00006 556.13V-224.037H63.1306V287.213Z" fill="#E2DDA8"/>
<path d="M13.7044 473.924L6.32843 502.045V-226.798H13.7044V473.924Z" fill="#D1CA9B"/>
<path d="M27.8551 420.448L20.4791 448.569V-226.798H27.8551V420.448Z" fill="#D1CA9B"/>
<path d="M42.0052 366.818L34.6515 394.939V-225.414H42.0052V366.818Z" fill="#D1CA9B"/>
</g>
<g clip-path="url(#clip1_2001_12063)">
<path d="M105.131 287.213L33.9999 556.13V-224.037H105.131V287.213Z" fill="#E2DDA8"/>
<path d="M55.7044 473.924L48.3284 502.045V-226.798H55.7044V473.924Z" fill="#D1CA9B"/>
<path d="M69.8551 420.448L62.4791 448.569V-226.798H69.8551V420.448Z" fill="#D1CA9B"/>
<path d="M84.0052 366.818L76.6515 394.939V-225.414H84.0052V366.818Z" fill="#D1CA9B"/>
</g>
<g clip-path="url(#clip2_2001_12063)">
<path d="M147.131 287.213L75.9999 556.13V-224.037H147.131V287.213Z" fill="#E2DDA8"/>
<path d="M97.7044 473.924L90.3284 502.045V-226.798H97.7044V473.924Z" fill="#D1CA9B"/>
<path d="M111.855 420.448L104.479 448.569V-226.798H111.855V420.448Z" fill="#D1CA9B"/>
<path d="M126.005 366.818L118.651 394.939V-225.414H126.005V366.818Z" fill="#D1CA9B"/>
</g>
<g clip-path="url(#clip3_2001_12063)">
<path d="M189.131 287.213L118 556.13V-224.037H189.131V287.213Z" fill="#E2DDA8"/>
<path d="M139.704 473.924L132.328 502.045V-226.798H139.704V473.924Z" fill="#D1CA9B"/>
<path d="M153.855 420.448L146.479 448.569V-226.798H153.855V420.448Z" fill="#D1CA9B"/>
<path d="M168.005 366.818L160.651 394.939V-225.414H168.005V366.818Z" fill="#D1CA9B"/>
</g>
<g clip-path="url(#clip4_2001_12063)">
<path d="M231.131 287.213L160 556.13V-224.037H231.131V287.213Z" fill="#E2DDA8"/>
<path d="M181.704 473.924L174.328 502.045V-226.798H181.704V473.924Z" fill="#D1CA9B"/>
<path d="M195.855 420.448L188.479 448.569V-226.798H195.855V420.448Z" fill="#D1CA9B"/>
<path d="M210.005 366.818L202.651 394.939V-225.414H210.005V366.818Z" fill="#D1CA9B"/>
</g>
<g clip-path="url(#clip5_2001_12063)">
<path d="M273.131 287.213L202 556.13V-224.037H273.131V287.213Z" fill="#E2DDA8"/>
<path d="M223.704 473.924L216.328 502.045V-226.798H223.704V473.924Z" fill="#D1CA9B"/>
<path d="M237.855 420.448L230.479 448.569V-226.798H237.855V420.448Z" fill="#D1CA9B"/>
<path d="M252.005 366.818L244.651 394.939V-225.414H252.005V366.818Z" fill="#D1CA9B"/>
</g>
<g clip-path="url(#clip6_2001_12063)">
<path d="M315.131 287.213L244 556.13V-224.037H315.131V287.213Z" fill="#E2DDA8"/>
<path d="M265.704 473.924L258.328 502.045V-226.798H265.704V473.924Z" fill="#D1CA9B"/>
<path d="M279.855 420.448L272.479 448.569V-226.798H279.855V420.448Z" fill="#D1CA9B"/>
<path d="M294.005 366.818L286.651 394.939V-225.414H294.005V366.818Z" fill="#D1CA9B"/>
</g>
<defs>
<clipPath id="clip0_2001_12063">
<rect width="48" height="331" fill="white"/>
</clipPath>
<clipPath id="clip1_2001_12063">
<rect width="48" height="331" fill="white" transform="translate(42)"/>
</clipPath>
<clipPath id="clip2_2001_12063">
<rect width="48" height="331" fill="white" transform="translate(84)"/>
</clipPath>
<clipPath id="clip3_2001_12063">
<rect width="48" height="331" fill="white" transform="translate(126)"/>
</clipPath>
<clipPath id="clip4_2001_12063">
<rect width="48" height="331" fill="white" transform="translate(168)"/>
</clipPath>
<clipPath id="clip5_2001_12063">
<rect width="48" height="331" fill="white" transform="translate(210)"/>
</clipPath>
<clipPath id="clip6_2001_12063">
<rect width="48" height="331" fill="white" transform="translate(252)"/>
</clipPath>
</defs>
</svg>
